<svg width="375" height="812" viewBox="0 0 375 812" fill="none" xmlns="http://www.w3.org/2000/svg">
<rect width="375" height="812" rx="40" fill="#FCF5EF"/>
<rect x="121" y="799" width="134" height="5" rx="2.5" fill="black"/>
<path d="M182.869 199.713C182.869 199.713 182.357 188.968 188.047 186C188.047 186 194.106 189.827 193.144 199.713C193.144 199.713 189.193 198.096 182.869 199.713Z" fill="#D3AF7C" stroke="black" stroke-width="2" stroke-miterlimit="10"/>
<path d="M161.884 281.421V222.189C161.884 222.189 161.884 199.204 188.02 198.856C188.02 198.856 212.847 199.204 213.707 221.759L214.055 281.421H161.884Z" fill="white" stroke="black" stroke-width="2" stroke-miterlimit="10"/>
<path d="M174.43 226.978C176.646 226.978 178.442 225.182 178.442 222.966C178.442 220.751 176.646 218.955 174.43 218.955C172.215 218.955 170.418 220.751 170.418 222.966C170.418 225.182 172.215 226.978 174.43 226.978Z" fill="black" stroke="black" stroke-miterlimit="10"/>
<path d="M200.731 226.978C202.946 226.978 204.742 225.182 204.742 222.966C204.742 220.751 202.946 218.955 200.731 218.955C198.515 218.955 196.719 220.751 196.719 222.966C196.719 225.182 198.515 226.978 200.731 226.978Z" fill="black" stroke="black" stroke-miterlimit="10"/>
<path d="M214.075 281.339C214.075 281.339 228.402 283.14 229.753 270.225C229.753 270.225 232.782 257.515 217.616 248.776C216.061 247.875 214.075 249.001 214.075 250.761V281.339Z" fill="#D3AF7C" stroke="black" stroke-width="2" stroke-miterlimit="10"/>
<path d="M161.925 281.339C161.925 281.339 147.598 283.14 146.247 270.225C146.247 270.225 143.218 257.515 158.384 248.776C159.939 247.875 161.925 249.001 161.925 250.761V281.339Z" fill="#D3AF7C" stroke="black" stroke-width="2" stroke-miterlimit="10"/>
<path d="M205.868 241.776C209.078 241.776 211.681 239.173 211.681 235.963C211.681 232.753 209.078 230.15 205.868 230.15C202.658 230.15 200.055 232.753 200.055 235.963C200.055 239.173 202.658 241.776 205.868 241.776Z" fill="#D7B995"/>
<path d="M169.784 241.776C172.995 241.776 175.597 239.173 175.597 235.963C175.597 232.753 172.995 230.15 169.784 230.15C166.574 230.15 163.972 232.753 163.972 235.963C163.972 239.173 166.574 241.776 169.784 241.776Z" fill="#D7B995"/>
<path d="M175.495 234.837L183.661 229.761C185.81 228.411 189.249 228.288 191.561 229.454L200.117 233.773C203.248 235.349 202.798 238.419 199.257 239.709L191.009 242.738C189.371 243.331 187.386 243.413 185.667 242.963L177.193 240.691C173.427 239.688 172.547 236.659 175.495 234.837Z" fill="#BB8682" stroke="black" stroke-miterlimit="10"/>
<path d="M172.813 237.539C172.813 237.539 186.649 240.788 202.143 236.571" stroke="#040000" stroke-width="0.5" stroke-miterlimit="10"/>
<rect x="30" y="352" width="315" height="43" rx="21.5" fill="#FFB800"/>
<path d="M127.521 378.232V375.864H136.049V378.232H127.521ZM136.049 372.424V374.744H127.521V372.424H136.049ZM136.049 368.92V371.304H127.521V368.92H136.049ZM131.537 367.784C131.809 367.176 132.097 366.456 132.337 365.768L130.977 365.592C130.849 366.216 130.593 367.08 130.353 367.784H126.337V380.248H127.521V379.352H136.049V380.168H137.281V367.784H131.537ZM154.129 366.584H146.321V367.704H154.129V366.584ZM143.649 365.608C142.849 366.744 141.313 368.184 139.985 369.08C140.193 369.304 140.513 369.768 140.689 370.024C142.113 369.016 143.745 367.464 144.785 366.056L143.649 365.608ZM144.305 369.016C143.201 370.824 141.473 372.664 139.825 373.832C140.065 374.072 140.481 374.584 140.657 374.824C141.249 374.36 141.857 373.784 142.465 373.16V380.264H143.649V371.848C144.305 371.064 144.913 370.248 145.409 369.432L144.305 369.016ZM154.593 370.952H145.633V372.088H150.977V378.68C150.977 378.952 150.881 379.016 150.577 379.032C150.273 379.048 149.217 379.048 148.081 379.016C148.257 379.352 148.417 379.848 148.465 380.168C150.033 380.168 150.929 380.168 151.473 379.992C152.001 379.8 152.177 379.432 152.177 378.696V372.088H154.593V370.952ZM156.513 374.68C156.337 376.072 156.033 377.512 155.537 378.488C155.761 378.568 156.225 378.776 156.401 378.904C156.913 377.88 157.265 376.36 157.489 374.856L156.513 374.68ZM160.321 373.4C160.449 373.784 160.545 374.136 160.593 374.424L161.505 374.04C161.313 373.144 160.753 371.752 160.145 370.696L159.313 371.016C159.537 371.448 159.761 371.928 159.953 372.408L157.809 372.52C158.833 371.176 160.017 369.352 160.881 367.864L159.905 367.432C159.489 368.28 158.913 369.32 158.289 370.312C158.065 370.008 157.777 369.656 157.457 369.304C158.017 368.424 158.705 367.112 159.249 366.008L158.225 365.624C157.905 366.504 157.329 367.736 156.817 368.648C156.657 368.488 156.481 368.312 156.321 368.168L155.681 368.904C156.417 369.592 157.217 370.52 157.681 371.24C157.361 371.736 157.041 372.184 156.737 372.584C156.321 372.6 155.921 372.616 155.569 372.632L155.681 373.704C156.401 373.656 157.217 373.608 158.097 373.544V380.216H159.137V373.48L160.321 373.4ZM167.729 376.2V374.36H168.993V376.2H167.729ZM165.681 376.2V374.36H166.913V376.2H165.681ZM163.681 376.2V374.36H164.881V376.2H163.681ZM168.529 369.656V371.368H163.009V369.656H168.529ZM170.001 373.432H162.977C162.993 373.048 163.009 372.696 163.009 372.344H169.681V368.664H161.937V372.168C161.937 373.704 161.857 375.672 161.217 377.432C161.121 376.648 160.817 375.512 160.433 374.632L159.601 374.888C159.969 375.8 160.289 377 160.337 377.784L161.185 377.544C160.945 378.168 160.641 378.776 160.241 379.32C160.481 379.448 160.929 379.784 161.105 379.992C162.049 378.696 162.545 377.048 162.785 375.432V380.216H163.681V377.112H164.881V380.056H165.681V377.112H166.913V380.056H167.729V377.112H168.993V379.08C168.993 379.224 168.961 379.256 168.865 379.256C168.737 379.256 168.401 379.256 168.017 379.24C168.145 379.512 168.305 379.928 168.337 380.216C168.929 380.216 169.345 380.184 169.649 380.04C169.937 379.848 170.001 379.56 170.001 379.096V373.432ZM161.329 366.584V367.624H170.065V366.584H161.329ZM176.017 376.92C176.337 377.816 176.577 379 176.561 379.72L177.537 379.576C177.537 378.856 177.297 377.704 176.945 376.824L176.017 376.92ZM178.273 376.856C178.737 377.624 179.153 378.632 179.281 379.304L180.193 379.032C180.065 378.36 179.617 377.352 179.105 376.6L178.273 376.856ZM182.657 378.12C182.401 377.624 181.809 376.888 181.265 376.376L180.465 376.76C181.009 377.288 181.585 378.04 181.825 378.552L182.657 378.12ZM176.241 375.048C176.545 374.712 176.833 374.376 177.073 374.008H183.601V369.256H179.185V370.136H182.513V371.208H179.425V372.056H182.513V373.144H174.993V372.056H178.049V371.208H174.993V370.184C176.113 369.944 177.377 369.624 178.321 369.224L177.569 368.456C176.865 368.792 175.697 369.144 174.641 369.416L173.921 369.256V374.008H175.761C174.769 375.272 173.121 376.28 171.473 376.92C171.697 377.144 172.049 377.64 172.177 377.864C172.817 377.576 173.473 377.224 174.081 376.824C173.841 377.832 173.377 378.872 172.641 379.48L173.537 380.024C174.401 379.304 174.817 378.088 175.089 376.936L174.273 376.696C174.593 376.488 174.897 376.264 175.185 376.024H183.793C183.665 377.992 183.505 378.808 183.265 379.064C183.137 379.192 183.009 379.208 182.737 379.192C182.449 379.208 181.729 379.192 180.961 379.128C181.153 379.4 181.265 379.848 181.297 380.152C182.081 380.2 182.849 380.216 183.233 380.168C183.681 380.152 183.969 380.056 184.241 379.768C184.625 379.352 184.817 378.264 184.993 375.528C185.009 375.368 185.025 375.048 185.025 375.048H176.241ZM179.281 366.904V365.624H178.113V366.904H171.985V369.72H173.073V367.944H184.353V369.72H185.473V366.904H179.281ZM199.697 370.248H194.897V367.32H199.697V370.248ZM200.865 366.28H193.809V371.272H200.865V366.28ZM193.169 374.376C192.849 374.008 191.489 372.6 190.993 372.184V371.208H192.993V370.088H190.993V367.384C191.745 367.208 192.449 366.984 193.025 366.744L192.193 365.848C191.025 366.376 188.929 366.84 187.137 367.128C187.281 367.4 187.441 367.784 187.505 368.056C188.241 367.944 189.057 367.816 189.841 367.656V370.088H187.233V371.208H189.681C189.041 373.032 187.937 375.096 186.929 376.216C187.121 376.504 187.409 376.968 187.521 377.304C188.337 376.328 189.185 374.728 189.841 373.112V380.184H190.993V373.336C191.537 373.992 192.193 374.872 192.449 375.32L193.169 374.376ZM197.873 378.728V376.664H201.057V375.624H197.873V373.72H201.409V372.664H193.217V373.72H196.689V375.624H193.585V376.664H196.689V378.728H192.497V379.8H201.761V378.728H197.873ZM216.513 367.64C216.033 367.096 215.025 366.28 214.209 365.736L213.409 366.392C214.225 366.968 215.217 367.832 215.681 368.392L216.513 367.64ZM207.601 373.272H210.593V372.12H203.585V373.272H206.433V377.912C205.153 378.168 203.985 378.408 203.089 378.584L203.457 379.752C205.489 379.304 208.417 378.632 211.121 377.976L211.025 376.936C209.873 377.192 208.721 377.416 207.601 377.656V373.272ZM217.169 369.736V368.584H212.433C212.385 367.64 212.369 366.68 212.369 365.688H211.121C211.137 366.664 211.153 367.64 211.201 368.584H203.025V369.736H211.281C211.697 375.656 213.025 380.248 215.633 380.248C216.849 380.248 217.297 379.432 217.505 376.664C217.169 376.536 216.721 376.28 216.449 376.008C216.353 378.136 216.161 379.016 215.729 379.016C214.145 379.016 212.881 375.128 212.497 369.736H217.169ZM225.873 369.144H227.009V367.944H229.441V369.16H230.593V367.944H232.817V366.936H230.593V365.624H229.441V366.936H227.009V365.624H225.873V366.936H223.553V367.944H225.873V369.144ZM223.633 373.544C223.345 373.048 222.145 371.032 221.729 370.424V369.8H223.377V368.68H221.729V365.608H220.593V368.68H218.625V369.8H220.593C220.161 371.96 219.249 374.504 218.321 375.832C218.529 376.12 218.817 376.632 218.945 376.984C219.537 376.04 220.129 374.584 220.593 373.032V380.216H221.729V372.024C222.161 372.856 222.657 373.88 222.881 374.424L223.633 373.544ZM225.313 372.328H230.849V373.464H225.313V372.328ZM225.313 370.344H230.849V371.48H225.313V370.344ZM232.801 376.696V375.688H228.401C228.481 375.272 228.561 374.824 228.609 374.36H231.985V369.448H224.209V374.36H227.441C227.377 374.824 227.313 375.288 227.217 375.688H223.201V376.696H226.865C226.257 377.912 225.121 378.76 222.785 379.288C222.993 379.512 223.297 379.96 223.393 380.216C226.177 379.544 227.457 378.424 228.097 376.728C228.897 378.472 230.369 379.656 232.417 380.216C232.577 379.912 232.913 379.464 233.169 379.24C231.361 378.856 230.001 377.976 229.217 376.696H232.801ZM234.945 374.68C234.769 376.088 234.433 377.512 233.905 378.488C234.161 378.568 234.641 378.792 234.833 378.936C235.361 377.912 235.745 376.376 235.969 374.872L234.945 374.68ZM239.233 373.512C239.377 373.848 239.473 374.152 239.537 374.424L240.481 373.976C240.257 373.112 239.553 371.752 238.897 370.728L238.017 371.112C238.289 371.544 238.561 372.04 238.801 372.536C237.921 372.568 237.041 372.616 236.241 372.648C237.345 371.272 238.625 369.384 239.553 367.88L238.529 367.432C238.081 368.296 237.473 369.336 236.817 370.344C236.561 370.008 236.225 369.624 235.841 369.24C236.449 368.376 237.121 367.096 237.665 366.024L236.609 365.624C236.273 366.504 235.713 367.704 235.185 368.6C235.025 368.456 234.865 368.312 234.705 368.184L234.097 368.968C234.849 369.64 235.697 370.536 236.193 371.256C235.841 371.784 235.473 372.264 235.121 372.68C234.753 372.696 234.385 372.712 234.065 372.712L234.161 373.784L236.769 373.656V380.248H237.841V373.592L239.233 373.512ZM238.417 374.904C238.849 375.896 239.297 377.176 239.441 378.008L240.385 377.688C240.241 376.856 239.777 375.592 239.313 374.616L238.417 374.904ZM242.385 375.624H246.449V378.68H242.385V375.624ZM246.449 367.592V370.536H242.385V367.592H246.449ZM246.449 374.552H242.385V371.608H246.449V374.552ZM247.617 378.68V366.52H241.233V378.68H239.537V379.768H248.849V378.68H247.617Z" fill="black"/>
<rect x="30" y="425" width="315" height="43" rx="21.5" fill="#FFB800"/>
<path d="M153.868 441.104H150.796V442.768C150.796 443.728 151.132 443.968 152.316 443.968H154.46C155.308 443.968 155.612 443.68 155.724 442.608C155.436 442.544 155.052 442.416 154.844 442.272C154.796 443.024 154.716 443.12 154.332 443.12H152.428C151.9 443.12 151.804 443.056 151.804 442.752V441.936H154.924V439.232H150.492V440.064H153.868V441.104ZM148.716 441.104H145.58V442.768C145.58 443.728 145.884 443.968 147.068 443.968H149.052C149.868 443.968 150.172 443.696 150.284 442.656C149.996 442.608 149.612 442.48 149.404 442.32C149.356 443.024 149.276 443.12 148.892 443.12H147.164C146.652 443.12 146.572 443.056 146.572 442.768V441.936H149.724V439.232H145.292V440.064H148.716V441.104ZM148.972 446.24H151.596V447.76H148.972V446.24ZM155.628 447.76H152.732V446.24H155.132V445.328H152.732V444.176H151.596V445.328H148.972V444.176H147.868V445.328H145.5V446.24H147.868V447.76H144.988V448.688H155.628V447.76ZM155.388 450.816C154.636 450.224 153.324 449.456 152.156 448.896L151.308 449.424C152.412 449.984 153.564 450.736 154.236 451.328L155.388 450.816ZM148.396 448.864C147.692 449.504 146.508 450.112 145.42 450.544C145.676 450.704 146.108 451.088 146.3 451.296C147.356 450.784 148.636 450 149.452 449.232L148.396 448.864ZM144.684 441.648C144.236 440.848 143.18 439.744 142.236 438.992L141.324 439.6C142.252 440.384 143.276 441.52 143.692 442.32L144.684 441.648ZM144.316 444.88H141.244V446H143.212V450.128C142.508 450.8 141.724 451.472 141.052 451.968L141.676 453.072C142.444 452.368 143.164 451.696 143.836 450.992C144.828 452.256 146.284 452.832 148.396 452.912C150.204 452.976 153.66 452.944 155.468 452.864C155.516 452.528 155.708 452 155.852 451.744C153.9 451.872 150.172 451.92 148.364 451.84C146.492 451.76 145.068 451.216 144.316 450.016V444.88ZM161.548 445.344C161.02 445.52 160.492 445.696 159.964 445.856V442.912H161.676V441.824H159.964V438.624H158.86V441.824H156.86V442.912H158.86V446.192C158.028 446.448 157.26 446.688 156.652 446.848L156.956 448L158.86 447.376V451.84C158.86 452.08 158.78 452.128 158.588 452.128C158.396 452.144 157.772 452.144 157.084 452.128C157.244 452.448 157.388 452.944 157.436 453.216C158.428 453.232 159.036 453.184 159.42 453.008C159.82 452.816 159.964 452.496 159.964 451.84V447.024L161.708 446.448L161.548 445.344ZM168.124 448.144H164.908L165.356 448.016C165.276 447.632 165.02 447.056 164.78 446.624H168.412C168.236 447.072 167.964 447.648 167.756 448.032L168.124 448.144ZM165.836 440.128H167.42V441.808H165.836V440.128ZM164.876 441.808H163.356V440.128H164.876V441.808ZM168.38 440.128H169.996V441.808H168.38V440.128ZM171.468 445.68H167.116V444.544H170.684V443.648H167.116V442.656H170.988V439.264H162.38V442.656H165.996V443.648H162.556V444.544H165.996V445.68H161.772V446.624H164.396L163.74 446.784C163.964 447.184 164.188 447.728 164.3 448.144H161.916V449.072H165.996V450.208H162.252V451.136H165.996V453.344H167.116V451.136H170.892V450.208H167.116V449.072H171.244V448.144H168.764C169.02 447.728 169.308 447.216 169.612 446.688L169.372 446.624H171.468V445.68ZM185.116 443.248H180.316V440.32H185.116V443.248ZM186.284 439.28H179.228V444.272H186.284V439.28ZM178.588 447.376C178.268 447.008 176.908 445.6 176.412 445.184V444.208H178.412V443.088H176.412V440.384C177.164 440.208 177.868 439.984 178.444 439.744L177.612 438.848C176.444 439.376 174.348 439.84 172.556 440.128C172.7 440.4 172.86 440.784 172.924 441.056C173.66 440.944 174.476 440.816 175.26 440.656V443.088H172.652V444.208H175.1C174.46 446.032 173.356 448.096 172.348 449.216C172.54 449.504 172.828 449.968 172.94 450.304C173.756 449.328 174.604 447.728 175.26 446.112V453.184H176.412V446.336C176.956 446.992 177.612 447.872 177.868 448.32L178.588 447.376ZM183.292 451.728V449.664H186.476V448.624H183.292V446.72H186.828V445.664H178.636V446.72H182.108V448.624H179.004V449.664H182.108V451.728H177.916V452.8H187.18V451.728H183.292ZM201.932 440.64C201.452 440.096 200.444 439.28 199.628 438.736L198.828 439.392C199.644 439.968 200.636 440.832 201.1 441.392L201.932 440.64ZM193.02 446.272H196.012V445.12H189.004V446.272H191.852V450.912C190.572 451.168 189.404 451.408 188.508 451.584L188.876 452.752C190.908 452.304 193.836 451.632 196.54 450.976L196.444 449.936C195.292 450.192 194.14 450.416 193.02 450.656V446.272ZM202.588 442.736V441.584H197.852C197.804 440.64 197.788 439.68 197.788 438.688H196.54C196.556 439.664 196.572 440.64 196.62 441.584H188.444V442.736H196.7C197.116 448.656 198.444 453.248 201.052 453.248C202.268 453.248 202.716 452.432 202.924 449.664C202.588 449.536 202.14 449.28 201.868 449.008C201.772 451.136 201.58 452.016 201.148 452.016C199.564 452.016 198.3 448.128 197.916 442.736H202.588ZM211.292 442.144H212.428V440.944H214.86V442.16H216.012V440.944H218.236V439.936H216.012V438.624H214.86V439.936H212.428V438.624H211.292V439.936H208.972V440.944H211.292V442.144ZM209.052 446.544C208.764 446.048 207.564 444.032 207.148 443.424V442.8H208.796V441.68H207.148V438.608H206.012V441.68H204.044V442.8H206.012C205.58 444.96 204.668 447.504 203.74 448.832C203.948 449.12 204.236 449.632 204.364 449.984C204.956 449.04 205.548 447.584 206.012 446.032V453.216H207.148V445.024C207.58 445.856 208.076 446.88 208.3 447.424L209.052 446.544ZM210.732 445.328H216.268V446.464H210.732V445.328ZM210.732 443.344H216.268V444.48H210.732V443.344ZM218.22 449.696V448.688H213.82C213.9 448.272 213.98 447.824 214.028 447.36H217.404V442.448H209.628V447.36H212.86C212.796 447.824 212.732 448.288 212.636 448.688H208.62V449.696H212.284C211.676 450.912 210.54 451.76 208.204 452.288C208.412 452.512 208.716 452.96 208.812 453.216C211.596 452.544 212.876 451.424 213.516 449.728C214.316 451.472 215.788 452.656 217.836 453.216C217.996 452.912 218.332 452.464 218.588 452.24C216.78 451.856 215.42 450.976 214.636 449.696H218.22ZM220.364 447.68C220.188 449.088 219.852 450.512 219.324 451.488C219.58 451.568 220.06 451.792 220.252 451.936C220.78 450.912 221.164 449.376 221.388 447.872L220.364 447.68ZM224.652 446.512C224.796 446.848 224.892 447.152 224.956 447.424L225.9 446.976C225.676 446.112 224.972 444.752 224.316 443.728L223.436 444.112C223.708 444.544 223.98 445.04 224.22 445.536C223.34 445.568 222.46 445.616 221.66 445.648C222.764 444.272 224.044 442.384 224.972 440.88L223.948 440.432C223.5 441.296 222.892 442.336 222.236 443.344C221.98 443.008 221.644 442.624 221.26 442.24C221.868 441.376 222.54 440.096 223.084 439.024L222.028 438.624C221.692 439.504 221.132 440.704 220.604 441.6C220.444 441.456 220.284 441.312 220.124 441.184L219.516 441.968C220.268 442.64 221.116 443.536 221.612 444.256C221.26 444.784 220.892 445.264 220.54 445.68C220.172 445.696 219.804 445.712 219.484 445.712L219.58 446.784L222.188 446.656V453.248H223.26V446.592L224.652 446.512ZM223.836 447.904C224.268 448.896 224.716 450.176 224.86 451.008L225.804 450.688C225.66 449.856 225.196 448.592 224.732 447.616L223.836 447.904ZM227.804 448.624H231.868V451.68H227.804V448.624ZM231.868 440.592V443.536H227.804V440.592H231.868ZM231.868 447.552H227.804V444.608H231.868V447.552ZM233.036 451.68V439.52H226.652V451.68H224.956V452.768H234.268V451.68H233.036Z" fill="black"/>
<rect x="16" y="352" width="343" height="43" rx="21.5" fill="#FEA735"/>
<path d="M118.023 378.136V375.472H127.617V378.136H118.023ZM127.617 371.602V374.212H118.023V371.602H127.617ZM127.617 367.66V370.342H118.023V367.66H127.617ZM122.541 366.382C122.847 365.698 123.171 364.888 123.441 364.114L121.911 363.916C121.767 364.618 121.479 365.59 121.209 366.382H116.691V380.404H118.023V379.396H127.617V380.314H129.003V366.382H122.541ZM148.317 365.032H139.533V366.292H148.317V365.032ZM136.527 363.934C135.627 365.212 133.899 366.832 132.405 367.84C132.639 368.092 132.999 368.614 133.197 368.902C134.799 367.768 136.635 366.022 137.805 364.438L136.527 363.934ZM137.265 367.768C136.023 369.802 134.079 371.872 132.225 373.186C132.495 373.456 132.963 374.032 133.161 374.302C133.827 373.78 134.511 373.132 135.195 372.43V380.422H136.527V370.954C137.265 370.072 137.949 369.154 138.507 368.236L137.265 367.768ZM148.839 369.946H138.759V371.224H144.771V378.64C144.771 378.946 144.663 379.018 144.321 379.036C143.979 379.054 142.791 379.054 141.513 379.018C141.711 379.396 141.891 379.954 141.945 380.314C143.709 380.314 144.717 380.314 145.329 380.116C145.923 379.9 146.121 379.486 146.121 378.658V371.224H148.839V369.946ZM151.359 374.14C151.161 375.706 150.819 377.326 150.261 378.424C150.513 378.514 151.035 378.748 151.233 378.892C151.809 377.74 152.205 376.03 152.457 374.338L151.359 374.14ZM155.643 372.7C155.787 373.132 155.895 373.528 155.949 373.852L156.975 373.42C156.759 372.412 156.129 370.846 155.445 369.658L154.509 370.018C154.761 370.504 155.013 371.044 155.229 371.584L152.817 371.71C153.969 370.198 155.301 368.146 156.273 366.472L155.175 365.986C154.707 366.94 154.059 368.11 153.357 369.226C153.105 368.884 152.781 368.488 152.421 368.092C153.051 367.102 153.825 365.626 154.437 364.384L153.285 363.952C152.925 364.942 152.277 366.328 151.701 367.354C151.521 367.174 151.323 366.976 151.143 366.814L150.423 367.642C151.251 368.416 152.151 369.46 152.673 370.27C152.313 370.828 151.953 371.332 151.611 371.782C151.143 371.8 150.693 371.818 150.297 371.836L150.423 373.042C151.233 372.988 152.151 372.934 153.141 372.862V380.368H154.311V372.79L155.643 372.7ZM163.977 375.85V373.78H165.399V375.85H163.977ZM161.673 375.85V373.78H163.059V375.85H161.673ZM159.423 375.85V373.78H160.773V375.85H159.423ZM164.877 368.488V370.414H158.667V368.488H164.877ZM166.533 372.736H158.631C158.649 372.304 158.667 371.908 158.667 371.512H166.173V367.372H157.461V371.314C157.461 373.042 157.371 375.256 156.651 377.236C156.543 376.354 156.201 375.076 155.769 374.086L154.833 374.374C155.247 375.4 155.607 376.75 155.661 377.632L156.615 377.362C156.345 378.064 156.003 378.748 155.553 379.36C155.823 379.504 156.327 379.882 156.525 380.116C157.587 378.658 158.145 376.804 158.415 374.986V380.368H159.423V376.876H160.773V380.188H161.673V376.876H163.059V380.188H163.977V376.876H165.399V379.09C165.399 379.252 165.363 379.288 165.255 379.288C165.111 379.288 164.733 379.288 164.301 379.27C164.445 379.576 164.625 380.044 164.661 380.368C165.327 380.368 165.795 380.332 166.137 380.17C166.461 379.954 166.533 379.63 166.533 379.108V372.736ZM156.777 365.032V366.202H166.605V365.032H156.777ZM173.661 376.66C174.021 377.668 174.291 379 174.273 379.81L175.371 379.648C175.371 378.838 175.101 377.542 174.705 376.552L173.661 376.66ZM176.199 376.588C176.721 377.452 177.189 378.586 177.333 379.342L178.359 379.036C178.215 378.28 177.711 377.146 177.135 376.3L176.199 376.588ZM181.131 378.01C180.843 377.452 180.177 376.624 179.565 376.048L178.665 376.48C179.277 377.074 179.925 377.92 180.195 378.496L181.131 378.01ZM173.913 374.554C174.255 374.176 174.579 373.798 174.849 373.384H182.193V368.038H177.225V369.028H180.969V370.234H177.495V371.188H180.969V372.412H172.509V371.188H175.947V370.234H172.509V369.082C173.769 368.812 175.191 368.452 176.253 368.002L175.407 367.138C174.615 367.516 173.301 367.912 172.113 368.218L171.303 368.038V373.384H173.373C172.257 374.806 170.403 375.94 168.549 376.66C168.801 376.912 169.197 377.47 169.341 377.722C170.061 377.398 170.799 377.002 171.483 376.552C171.213 377.686 170.691 378.856 169.863 379.54L170.871 380.152C171.843 379.342 172.311 377.974 172.617 376.678L171.699 376.408C172.059 376.174 172.401 375.922 172.725 375.652H182.409C182.265 377.866 182.085 378.784 181.815 379.072C181.671 379.216 181.527 379.234 181.221 379.216C180.897 379.234 180.087 379.216 179.223 379.144C179.439 379.45 179.565 379.954 179.601 380.296C180.483 380.35 181.347 380.368 181.779 380.314C182.283 380.296 182.607 380.188 182.913 379.864C183.345 379.396 183.561 378.172 183.759 375.094C183.777 374.914 183.795 374.554 183.795 374.554H173.913ZM177.333 365.392V363.952H176.019V365.392H169.125V368.56H170.349V366.562H183.039V368.56H184.299V365.392H177.333ZM200.661 369.154H195.261V365.86H200.661V369.154ZM201.975 364.69H194.037V370.306H201.975V364.69ZM193.317 373.798C192.957 373.384 191.427 371.8 190.869 371.332V370.234H193.119V368.974H190.869V365.932C191.715 365.734 192.507 365.482 193.155 365.212L192.219 364.204C190.905 364.798 188.547 365.32 186.531 365.644C186.693 365.95 186.873 366.382 186.945 366.688C187.773 366.562 188.691 366.418 189.573 366.238V368.974H186.639V370.234H189.393C188.673 372.286 187.431 374.608 186.297 375.868C186.513 376.192 186.837 376.714 186.963 377.092C187.881 375.994 188.835 374.194 189.573 372.376V380.332H190.869V372.628C191.481 373.366 192.219 374.356 192.507 374.86L193.317 373.798ZM198.609 378.694V376.372H202.191V375.202H198.609V373.06H202.587V371.872H193.371V373.06H197.277V375.202H193.785V376.372H197.277V378.694H192.561V379.9H202.983V378.694H198.609ZM219.939 366.22C219.399 365.608 218.265 364.69 217.347 364.078L216.447 364.816C217.365 365.464 218.481 366.436 219.003 367.066L219.939 366.22ZM209.913 372.556H213.279V371.26H205.395V372.556H208.599V377.776C207.159 378.064 205.845 378.334 204.837 378.532L205.251 379.846C207.537 379.342 210.831 378.586 213.873 377.848L213.765 376.678C212.469 376.966 211.173 377.218 209.913 377.488V372.556ZM220.677 368.578V367.282H215.349C215.295 366.22 215.277 365.14 215.277 364.024H213.873C213.891 365.122 213.909 366.22 213.963 367.282H204.765V368.578H214.053C214.521 375.238 216.015 380.404 218.949 380.404C220.317 380.404 220.821 379.486 221.055 376.372C220.677 376.228 220.173 375.94 219.867 375.634C219.759 378.028 219.543 379.018 219.057 379.018C217.275 379.018 215.853 374.644 215.421 368.578H220.677ZM230.829 367.912H232.107V366.562H234.843V367.93H236.139V366.562H238.641V365.428H236.139V363.952H234.843V365.428H232.107V363.952H230.829V365.428H228.219V366.562H230.829V367.912ZM228.309 372.862C227.985 372.304 226.635 370.036 226.167 369.352V368.65H228.021V367.39H226.167V363.934H224.889V367.39H222.675V368.65H224.889C224.403 371.08 223.377 373.942 222.333 375.436C222.567 375.76 222.891 376.336 223.035 376.732C223.701 375.67 224.367 374.032 224.889 372.286V380.368H226.167V371.152C226.653 372.088 227.211 373.24 227.463 373.852L228.309 372.862ZM230.199 371.494H236.427V372.772H230.199V371.494ZM230.199 369.262H236.427V370.54H230.199V369.262ZM238.623 376.408V375.274H233.673C233.763 374.806 233.853 374.302 233.907 373.78H237.705V368.254H228.957V373.78H232.593C232.521 374.302 232.449 374.824 232.341 375.274H227.823V376.408H231.945C231.261 377.776 229.983 378.73 227.355 379.324C227.589 379.576 227.931 380.08 228.039 380.368C231.171 379.612 232.611 378.352 233.331 376.444C234.231 378.406 235.887 379.738 238.191 380.368C238.371 380.026 238.749 379.522 239.037 379.27C237.003 378.838 235.473 377.848 234.591 376.408H238.623ZM241.395 374.14C241.197 375.724 240.819 377.326 240.225 378.424C240.513 378.514 241.053 378.766 241.269 378.928C241.863 377.776 242.295 376.048 242.547 374.356L241.395 374.14ZM246.219 372.826C246.381 373.204 246.489 373.546 246.561 373.852L247.623 373.348C247.371 372.376 246.579 370.846 245.841 369.694L244.851 370.126C245.157 370.612 245.463 371.17 245.733 371.728C244.743 371.764 243.753 371.818 242.853 371.854C244.095 370.306 245.535 368.182 246.579 366.49L245.427 365.986C244.923 366.958 244.239 368.128 243.501 369.262C243.213 368.884 242.835 368.452 242.403 368.02C243.087 367.048 243.843 365.608 244.455 364.402L243.267 363.952C242.889 364.942 242.259 366.292 241.665 367.3C241.485 367.138 241.305 366.976 241.125 366.832L240.441 367.714C241.287 368.47 242.241 369.478 242.799 370.288C242.403 370.882 241.989 371.422 241.593 371.89C241.179 371.908 240.765 371.926 240.405 371.926L240.513 373.132L243.447 372.988V380.404H244.653V372.916L246.219 372.826ZM245.301 374.392C245.787 375.508 246.291 376.948 246.453 377.884L247.515 377.524C247.353 376.588 246.831 375.166 246.309 374.068L245.301 374.392ZM249.765 375.202H254.337V378.64H249.765V375.202ZM254.337 366.166V369.478H249.765V366.166H254.337ZM254.337 373.996H249.765V370.684H254.337V373.996ZM255.651 378.64V364.96H248.469V378.64H246.561V379.864H257.037V378.64H255.651Z" fill="black"/>
<rect x="16" y="425" width="343" height="43" rx="21.5" fill="#FEA735"/>
<path d="M148.084 439.742H144.628V441.614C144.628 442.694 145.006 442.964 146.338 442.964H148.75C149.704 442.964 150.046 442.64 150.172 441.434C149.848 441.362 149.416 441.218 149.182 441.056C149.128 441.902 149.038 442.01 148.606 442.01H146.464C145.87 442.01 145.762 441.938 145.762 441.596V440.678H149.272V437.636H144.286V438.572H148.084V439.742ZM142.288 439.742H138.76V441.614C138.76 442.694 139.102 442.964 140.434 442.964H142.666C143.584 442.964 143.926 442.658 144.052 441.488C143.728 441.434 143.296 441.29 143.062 441.11C143.008 441.902 142.918 442.01 142.486 442.01H140.542C139.966 442.01 139.876 441.938 139.876 441.614V440.678H143.422V437.636H138.436V438.572H142.288V439.742ZM142.576 445.52H145.528V447.23H142.576V445.52ZM150.064 447.23H146.806V445.52H149.506V444.494H146.806V443.198H145.528V444.494H142.576V443.198H141.334V444.494H138.67V445.52H141.334V447.23H138.094V448.274H150.064V447.23ZM149.794 450.668C148.948 450.002 147.472 449.138 146.158 448.508L145.204 449.102C146.446 449.732 147.742 450.578 148.498 451.244L149.794 450.668ZM141.928 448.472C141.136 449.192 139.804 449.876 138.58 450.362C138.868 450.542 139.354 450.974 139.57 451.208C140.758 450.632 142.198 449.75 143.116 448.886L141.928 448.472ZM137.752 440.354C137.248 439.454 136.06 438.212 134.998 437.366L133.972 438.05C135.016 438.932 136.168 440.21 136.636 441.11L137.752 440.354ZM137.338 443.99H133.882V445.25H136.096V449.894C135.304 450.65 134.422 451.406 133.666 451.964L134.368 453.206C135.232 452.414 136.042 451.658 136.798 450.866C137.914 452.288 139.552 452.936 141.928 453.026C143.962 453.098 147.85 453.062 149.884 452.972C149.938 452.594 150.154 452 150.316 451.712C148.12 451.856 143.926 451.91 141.892 451.82C139.786 451.73 138.184 451.118 137.338 449.768V443.99ZM157.084 444.512C156.49 444.71 155.896 444.908 155.302 445.088V441.776H157.228V440.552H155.302V436.952H154.06V440.552H151.81V441.776H154.06V445.466C153.124 445.754 152.26 446.024 151.576 446.204L151.918 447.5L154.06 446.798V451.82C154.06 452.09 153.97 452.144 153.754 452.144C153.538 452.162 152.836 452.162 152.062 452.144C152.242 452.504 152.404 453.062 152.458 453.368C153.574 453.386 154.258 453.332 154.69 453.134C155.14 452.918 155.302 452.558 155.302 451.82V446.402L157.264 445.754L157.084 444.512ZM164.482 447.662H160.864L161.368 447.518C161.278 447.086 160.99 446.438 160.72 445.952H164.806C164.608 446.456 164.302 447.104 164.068 447.536L164.482 447.662ZM161.908 438.644H163.69V440.534H161.908V438.644ZM160.828 440.534H159.118V438.644H160.828V440.534ZM164.77 438.644H166.588V440.534H164.77V438.644ZM168.244 444.89H163.348V443.612H167.362V442.604H163.348V441.488H167.704V437.672H158.02V441.488H162.088V442.604H158.218V443.612H162.088V444.89H157.336V445.952H160.288L159.55 446.132C159.802 446.582 160.054 447.194 160.18 447.662H157.498V448.706H162.088V449.984H157.876V451.028H162.088V453.512H163.348V451.028H167.596V449.984H163.348V448.706H167.992V447.662H165.202C165.49 447.194 165.814 446.618 166.156 446.024L165.886 445.952H168.244V444.89ZM183.958 442.154H178.558V438.86H183.958V442.154ZM185.272 437.69H177.334V443.306H185.272V437.69ZM176.614 446.798C176.254 446.384 174.724 444.8 174.166 444.332V443.234H176.416V441.974H174.166V438.932C175.012 438.734 175.804 438.482 176.452 438.212L175.516 437.204C174.202 437.798 171.844 438.32 169.828 438.644C169.99 438.95 170.17 439.382 170.242 439.688C171.07 439.562 171.988 439.418 172.87 439.238V441.974H169.936V443.234H172.69C171.97 445.286 170.728 447.608 169.594 448.868C169.81 449.192 170.134 449.714 170.26 450.092C171.178 448.994 172.132 447.194 172.87 445.376V453.332H174.166V445.628C174.778 446.366 175.516 447.356 175.804 447.86L176.614 446.798ZM181.906 451.694V449.372H185.488V448.202H181.906V446.06H185.884V444.872H176.668V446.06H180.574V448.202H177.082V449.372H180.574V451.694H175.858V452.9H186.28V451.694H181.906ZM203.236 439.22C202.696 438.608 201.562 437.69 200.644 437.078L199.744 437.816C200.662 438.464 201.778 439.436 202.3 440.066L203.236 439.22ZM193.21 445.556H196.576V444.26H188.692V445.556H191.896V450.776C190.456 451.064 189.142 451.334 188.134 451.532L188.548 452.846C190.834 452.342 194.128 451.586 197.17 450.848L197.062 449.678C195.766 449.966 194.47 450.218 193.21 450.488V445.556ZM203.974 441.578V440.282H198.646C198.592 439.22 198.574 438.14 198.574 437.024H197.17C197.188 438.122 197.206 439.22 197.26 440.282H188.062V441.578H197.35C197.818 448.238 199.312 453.404 202.246 453.404C203.614 453.404 204.118 452.486 204.352 449.372C203.974 449.228 203.47 448.94 203.164 448.634C203.056 451.028 202.84 452.018 202.354 452.018C200.572 452.018 199.15 447.644 198.718 441.578H203.974ZM214.126 440.912H215.404V439.562H218.14V440.93H219.436V439.562H221.938V438.428H219.436V436.952H218.14V438.428H215.404V436.952H214.126V438.428H211.516V439.562H214.126V440.912ZM211.606 445.862C211.282 445.304 209.932 443.036 209.464 442.352V441.65H211.318V440.39H209.464V436.934H208.186V440.39H205.972V441.65H208.186C207.7 444.08 206.674 446.942 205.63 448.436C205.864 448.76 206.188 449.336 206.332 449.732C206.998 448.67 207.664 447.032 208.186 445.286V453.368H209.464V444.152C209.95 445.088 210.508 446.24 210.76 446.852L211.606 445.862ZM213.496 444.494H219.724V445.772H213.496V444.494ZM213.496 442.262H219.724V443.54H213.496V442.262ZM221.92 449.408V448.274H216.97C217.06 447.806 217.15 447.302 217.204 446.78H221.002V441.254H212.254V446.78H215.89C215.818 447.302 215.746 447.824 215.638 448.274H211.12V449.408H215.242C214.558 450.776 213.28 451.73 210.652 452.324C210.886 452.576 211.228 453.08 211.336 453.368C214.468 452.612 215.908 451.352 216.628 449.444C217.528 451.406 219.184 452.738 221.488 453.368C221.668 453.026 222.046 452.522 222.334 452.27C220.3 451.838 218.77 450.848 217.888 449.408H221.92ZM224.692 447.14C224.494 448.724 224.116 450.326 223.522 451.424C223.81 451.514 224.35 451.766 224.566 451.928C225.16 450.776 225.592 449.048 225.844 447.356L224.692 447.14ZM229.516 445.826C229.678 446.204 229.786 446.546 229.858 446.852L230.92 446.348C230.668 445.376 229.876 443.846 229.138 442.694L228.148 443.126C228.454 443.612 228.76 444.17 229.03 444.728C228.04 444.764 227.05 444.818 226.15 444.854C227.392 443.306 228.832 441.182 229.876 439.49L228.724 438.986C228.22 439.958 227.536 441.128 226.798 442.262C226.51 441.884 226.132 441.452 225.7 441.02C226.384 440.048 227.14 438.608 227.752 437.402L226.564 436.952C226.186 437.942 225.556 439.292 224.962 440.3C224.782 440.138 224.602 439.976 224.422 439.832L223.738 440.714C224.584 441.47 225.538 442.478 226.096 443.288C225.7 443.882 225.286 444.422 224.89 444.89C224.476 444.908 224.062 444.926 223.702 444.926L223.81 446.132L226.744 445.988V453.404H227.95V445.916L229.516 445.826ZM228.598 447.392C229.084 448.508 229.588 449.948 229.75 450.884L230.812 450.524C230.65 449.588 230.128 448.166 229.606 447.068L228.598 447.392ZM233.062 448.202H237.634V451.64H233.062V448.202ZM237.634 439.166V442.478H233.062V439.166H237.634ZM237.634 446.996H233.062V443.684H237.634V446.996ZM238.948 451.64V437.96H231.766V451.64H229.858V452.864H240.334V451.64H238.948Z" fill="black"/>
<rect x="17.5" y="280.5" width="340" height="40" rx="20" fill="#FCF5EF" stroke="#FEA735" stroke-width="3"/>
<path d="M167.024 62.64H169.16V64.824H167.024V62.64ZM167.024 59.208H169.16V61.368H167.024V59.208ZM172.52 61.368H170.36V59.208H172.52V61.368ZM172.52 64.824H170.36V62.64H172.52V64.824ZM170.552 66.168H173.888V57.864H170.552V56.04H174.392V54.504H170.552V51.912H168.968V54.504H165.32V56.04H168.968V57.864H165.68V66.168H168.968V68.088H165.032V69.672H168.968V73.848H170.552V69.672H174.32V68.088H170.552V66.168ZM176.312 67.776V65.784H179.024V67.776H176.312ZM179.024 62.664V64.512H176.312V62.664H179.024ZM180.344 61.32H174.992V73.752H176.312V69.12H179.024V72.288C179.024 72.456 178.976 72.528 178.808 72.528H177.608C177.752 72.888 177.944 73.464 177.968 73.8C178.856 73.8 179.432 73.8 179.84 73.56C180.224 73.32 180.344 72.936 180.344 72.288V61.32ZM183.92 58.032H177.32V59.472H183.92V58.032ZM183.008 61.824H181.688V70.224H183.008V61.824ZM184.904 72.072C184.904 72.336 184.808 72.384 184.544 72.408C184.28 72.432 183.392 72.432 182.408 72.408C182.6 72.792 182.792 73.392 182.864 73.752C184.256 73.752 185.096 73.728 185.672 73.536C186.2 73.272 186.368 72.864 186.368 72.096V60.936H184.904V72.072ZM179.768 52.008C178.64 54.264 176.36 56.88 173.936 58.296C174.224 58.704 174.632 59.328 174.824 59.76C177.248 58.224 179.432 55.776 180.632 53.664C181.976 55.8 184.304 58.176 186.512 59.568C186.776 59.088 187.16 58.416 187.472 58.032C185.24 56.808 182.84 54.432 181.352 52.008H179.768ZM193.52 53.376V55.152H199.424C199.472 56.064 199.568 57.12 199.736 58.224L198.68 58.056C197.216 64.776 194.264 69.6 188.96 72.36C189.44 72.672 190.232 73.416 190.568 73.776C195.344 70.968 198.368 66.6 200.144 60.384C201.224 64.92 203.768 70.176 209.672 73.752C209.984 73.32 210.704 72.552 211.112 72.264C201.704 66.672 201.152 57.624 201.152 53.376H193.52Z" fill="black"/>
<path d="M42.492 302.458V303.256H52.194V302.458H42.492ZM43.01 300.68V301.478H53.286V300.68H43.01ZM43.066 297.166V297.894H50.766V297.166H43.066ZM51.886 302.458V302.598C51.732 304.992 51.536 305.902 51.284 306.168C51.172 306.28 51.06 306.294 50.808 306.294C50.584 306.294 49.954 306.294 49.296 306.238C49.436 306.476 49.548 306.854 49.562 307.106C50.248 307.148 50.906 307.148 51.256 307.12C51.634 307.092 51.886 307.008 52.124 306.77C52.474 306.392 52.67 305.398 52.866 302.864C52.88 302.724 52.894 302.458 52.894 302.458H51.886ZM46.356 294.17C46.244 294.604 45.978 295.248 45.768 295.696L46.678 295.892C46.944 295.5 47.294 294.926 47.574 294.338L46.356 294.17ZM43.108 295.374V296.158H50.276V298.972H43.108V299.742H51.312V295.374H43.108ZM42.492 295.374V302.808H43.528V295.374H42.492ZM46.286 304.096C46.608 304.81 46.902 305.748 46.972 306.35L47.84 306.098C47.756 305.524 47.448 304.6 47.098 303.886L46.286 304.096ZM48.498 303.886C48.918 304.446 49.338 305.216 49.52 305.72L50.304 305.384C50.122 304.894 49.674 304.138 49.254 303.592L48.498 303.886ZM44.004 304.152C44.228 304.95 44.354 306 44.326 306.658L45.25 306.518C45.264 305.846 45.124 304.81 44.886 304.012L44.004 304.152ZM42.1 303.746C41.834 304.754 41.33 305.874 40.588 306.532L41.442 307.05C42.212 306.322 42.688 305.118 42.968 304.054L42.1 303.746ZM56.492 302.458V303.256H66.194V302.458H56.492ZM57.01 300.68V301.478H67.286V300.68H57.01ZM57.066 297.166V297.894H64.766V297.166H57.066ZM65.886 302.458V302.598C65.732 304.992 65.536 305.902 65.284 306.168C65.172 306.28 65.06 306.294 64.808 306.294C64.584 306.294 63.954 306.294 63.296 306.238C63.436 306.476 63.548 306.854 63.562 307.106C64.248 307.148 64.906 307.148 65.256 307.12C65.634 307.092 65.886 307.008 66.124 306.77C66.474 306.392 66.67 305.398 66.866 302.864C66.88 302.724 66.894 302.458 66.894 302.458H65.886ZM60.356 294.17C60.244 294.604 59.978 295.248 59.768 295.696L60.678 295.892C60.944 295.5 61.294 294.926 61.574 294.338L60.356 294.17ZM57.108 295.374V296.158H64.276V298.972H57.108V299.742H65.312V295.374H57.108ZM56.492 295.374V302.808H57.528V295.374H56.492ZM60.286 304.096C60.608 304.81 60.902 305.748 60.972 306.35L61.84 306.098C61.756 305.524 61.448 304.6 61.098 303.886L60.286 304.096ZM62.498 303.886C62.918 304.446 63.338 305.216 63.52 305.72L64.304 305.384C64.122 304.894 63.674 304.138 63.254 303.592L62.498 303.886ZM58.004 304.152C58.228 304.95 58.354 306 58.326 306.658L59.25 306.518C59.264 305.846 59.124 304.81 58.886 304.012L58.004 304.152ZM56.1 303.746C55.834 304.754 55.33 305.874 54.588 306.532L55.442 307.05C56.212 306.322 56.688 305.118 56.968 304.054L56.1 303.746Z" fill="black"/>
<g clip-path="url(#clip0_483_208)">
<path d="M38 86.0007C50.1506 86.0007 60.0007 76.1506 60.0007 64C60.0007 51.8493 50.1506 41.9993 38 41.9993C25.8493 41.9993 15.9993 51.8493 15.9993 64C15.9993 76.1506 25.8493 86.0007 38 86.0007Z" fill="#FEA735"/>
<path d="M46.6571 62.4124L32.8641 62.2907L37.8624 56.5786C38.4399 55.9186 38.3729 54.9159 37.7128 54.3384C37.0531 53.7613 36.0497 53.8279 35.4726 54.4877L28.3459 62.6325C28.0001 62.9208 27.774 63.348 27.7694 63.8331C27.7694 63.8405 27.7715 63.8479 27.7715 63.8553C27.7641 64.2321 27.8883 64.6117 28.1487 64.9172L35.4595 73.496C35.7735 73.8643 36.2194 74.0538 36.6685 74.0538C37.0326 74.0538 37.3985 73.9292 37.6976 73.6745C38.3651 73.1058 38.4448 72.1035 37.8761 71.4364L32.7868 65.4654L46.6289 65.5875C46.6338 65.5875 46.6384 65.5875 46.6433 65.5875C47.5137 65.5875 48.2228 64.8858 48.2305 64.014C48.2383 63.1374 47.5341 62.4201 46.6571 62.4124Z" fill="black"/>
</g>
<g clip-path="url(#clip1_483_208)">
<path d="M337 86.0007C349.151 86.0007 359.001 76.1506 359.001 64C359.001 51.8493 349.151 41.9993 337 41.9993C324.849 41.9993 314.999 51.8493 314.999 64C314.999 76.1506 324.849 86.0007 337 86.0007Z" fill="#FEA735"/>
</g>
<path d="M328 65.8261L333.043 71.5" stroke="black" stroke-width="3" stroke-linecap="round"/>
<path d="M333.043 71.5L346.913 57" stroke="black" stroke-width="3" stroke-linecap="round"/>
<path opacity="0.35" d="M338.979 16.5026H355.469C356.666 16.5026 357.636 17.4727 357.636 18.6693V24.6693C357.636 25.8659 356.666 26.836 355.469 26.836H338.979C337.782 26.836 336.812 25.8659 336.812 24.6693V18.6693C336.812 17.4727 337.782 16.5026 338.979 16.5026Z" stroke="black"/>
<path opacity="0.4" d="M359.128 19.6693V23.6693C359.926 23.3305 360.445 22.5424 360.445 21.6693C360.445 20.7962 359.926 20.0081 359.128 19.6693" fill="black"/>
<path d="M338.296 19.336C338.296 18.5996 338.893 18.0026 339.629 18.0026H354.819C355.555 18.0026 356.152 18.5996 356.152 19.336V24.0026C356.152 24.739 355.555 25.336 354.819 25.336H339.629C338.893 25.336 338.296 24.739 338.296 24.0026V19.336Z" fill="black"/>
<path fill-rule="evenodd" clip-rule="evenodd" d="M323.744 18.2773C325.942 18.2774 328.056 19.1289 329.649 20.6557C329.769 20.7735 329.961 20.772 330.079 20.6523L331.226 19.4857C331.286 19.4249 331.319 19.3427 331.318 19.2571C331.318 19.1715 331.284 19.0897 331.223 19.0297C327.042 14.9901 320.445 14.9901 316.264 19.0297C316.203 19.0896 316.169 19.1715 316.168 19.257C316.168 19.3426 316.201 19.4249 316.261 19.4857L317.408 20.6523C317.526 20.7722 317.718 20.7737 317.838 20.6557C319.431 19.1288 321.545 18.2773 323.744 18.2773ZM323.744 22.073C324.951 22.0729 326.116 22.5255 327.011 23.3427C327.132 23.4587 327.323 23.4562 327.441 23.337L328.587 22.1704C328.647 22.1092 328.68 22.0261 328.68 21.9399C328.679 21.8536 328.644 21.7713 328.582 21.7114C325.856 19.155 321.634 19.155 318.908 21.7114C318.846 21.7713 318.811 21.8537 318.81 21.9399C318.809 22.0262 318.843 22.1092 318.903 22.1704L320.049 23.337C320.167 23.4562 320.357 23.4587 320.478 23.3427C321.373 22.526 322.537 22.0735 323.744 22.073ZM326.038 24.6268C326.04 24.7133 326.006 24.7967 325.945 24.8573L323.964 26.873C323.906 26.9323 323.826 26.9656 323.744 26.9656C323.661 26.9656 323.582 26.9323 323.524 26.873L321.542 24.8573C321.481 24.7967 321.447 24.7133 321.449 24.6268C321.451 24.5403 321.488 24.4583 321.552 24.4003C322.817 23.3215 324.67 23.3215 325.936 24.4003C325.999 24.4584 326.037 24.5403 326.038 24.6268Z" fill="black"/>
<path fill-rule="evenodd" clip-rule="evenodd" d="M312.189 16.336H311.197C310.65 16.336 310.205 16.7837 310.205 17.336V26.0027C310.205 26.555 310.65 27.0027 311.197 27.0027H312.189C312.737 27.0027 313.181 26.555 313.181 26.0027V17.336C313.181 16.7837 312.737 16.336 312.189 16.336ZM306.568 18.6693H307.56C308.108 18.6693 308.552 19.117 308.552 19.6693V26.0026C308.552 26.5549 308.108 27.0026 307.56 27.0026H306.568C306.02 27.0026 305.576 26.5549 305.576 26.0026V19.6693C305.576 19.117 306.02 18.6693 306.568 18.6693ZM302.931 21.0027H301.939C301.391 21.0027 300.947 21.4504 300.947 22.0027V26.0027C300.947 26.555 301.391 27.0027 301.939 27.0027H302.931C303.479 27.0027 303.923 26.555 303.923 26.0027V22.0027C303.923 21.4504 303.479 21.0027 302.931 21.0027ZM298.301 23.0027H297.309C296.762 23.0027 296.317 23.4504 296.317 24.0027V26.0027C296.317 26.5549 296.762 27.0027 297.309 27.0027H298.301C298.849 27.0027 299.293 26.5549 299.293 26.0027V24.0027C299.293 23.4504 298.849 23.0027 298.301 23.0027Z" fill="black"/>
<path d="M38.4455 22.8765C37.9133 23.355 37.3176 23.5942 36.6584 23.5942C35.6916 23.5942 34.925 23.2671 34.3586 22.6128C33.7922 21.9585 33.509 21.0845 33.509 19.9907C33.509 19.3071 33.6677 18.6724 33.9851 18.0864C34.3025 17.5005 34.7468 17.0366 35.3181 16.6948C35.8943 16.353 36.529 16.1821 37.2224 16.1821C37.9255 16.1821 38.5603 16.3604 39.1267 16.7168C39.698 17.0684 40.1423 17.5688 40.4597 18.2183C40.7771 18.8628 40.9406 19.6074 40.9504 20.4521V21.397C40.9504 22.5737 40.7185 23.5942 40.2546 24.4585C39.7956 25.3228 39.1389 25.9868 38.2844 26.4507C37.4299 26.9146 36.4338 27.1465 35.2961 27.1465H35.1423V25.1689L35.6111 25.1616C37.3103 25.0786 38.2551 24.3169 38.4455 22.8765ZM37.3249 21.8145C37.862 21.8145 38.2478 21.5825 38.4821 21.1187V20.0933C38.4821 19.4097 38.3674 18.9043 38.1379 18.5771C37.9084 18.25 37.5984 18.0864 37.2077 18.0864C36.8611 18.0864 36.5705 18.272 36.3361 18.6431C36.1018 19.0142 35.9846 19.4634 35.9846 19.9907C35.9846 20.5474 36.1042 20.9917 36.3435 21.3237C36.5827 21.6509 36.9099 21.8145 37.3249 21.8145ZM43.5435 24.605C43.9341 24.605 44.2588 24.7222 44.5176 24.9565C44.7764 25.186 44.9058 25.4814 44.9058 25.8428C44.9058 26.2041 44.7764 26.502 44.5176 26.7363C44.2588 26.9658 43.9341 27.0806 43.5435 27.0806C43.148 27.0806 42.8208 26.9634 42.562 26.729C42.3081 26.4946 42.1812 26.1992 42.1812 25.8428C42.1812 25.4863 42.3081 25.1909 42.562 24.9565C42.8208 24.7222 43.148 24.605 43.5435 24.605ZM43.5435 18.7603C43.9341 18.7603 44.2588 18.8774 44.5176 19.1118C44.7764 19.3413 44.9058 19.6367 44.9058 19.998C44.9058 20.3594 44.7764 20.6572 44.5176 20.8916C44.2588 21.1211 43.9341 21.2358 43.5435 21.2358C43.148 21.2358 42.8208 21.1187 42.562 20.8843C42.3081 20.6499 42.1812 20.3545 42.1812 19.998C42.1812 19.6416 42.3081 19.3462 42.562 19.1118C42.8208 18.8774 43.148 18.7603 43.5435 18.7603ZM51.6517 27H49.1761V19.1191L46.7444 19.8296V17.9546L51.4246 16.3359H51.6517V27ZM61.0856 22.8325H62.1695V24.7368H61.0856V27H58.6173V24.7368H54.4938L54.3473 23.228L58.6173 16.3579V16.3359H61.0856V22.8325ZM56.6984 22.8325H58.6173V19.5513L58.4635 19.8003L56.6984 22.8325Z" fill="black"/>
<defs>
<clipPath id="clip0_483_208">
<rect width="44" height="44" fill="white" transform="translate(16 42)"/>
</clipPath>
<clipPath id="clip1_483_208">
<rect width="44" height="44" fill="white" transform="translate(315 42)"/>
</clipPath>
</defs>
</svg>
