<svg width="375" height="812" viewBox="0 0 375 812" fill="none" xmlns="http://www.w3.org/2000/svg">
<rect width="375" height="812" rx="40" fill="#FCF5EF"/>
<rect x="121" y="799" width="134" height="5" rx="2.5" fill="black"/>
<path d="M182.869 130.713C182.869 130.713 182.357 119.968 188.047 117C188.047 117 194.106 120.827 193.144 130.713C193.144 130.713 189.193 129.096 182.869 130.713Z" fill="#D3AF7C" stroke="black" stroke-width="2" stroke-miterlimit="10"/>
<path d="M161.884 212.421V153.189C161.884 153.189 161.884 130.204 188.02 129.856C188.02 129.856 212.847 130.204 213.707 152.759L214.055 212.421H161.884Z" fill="white" stroke="black" stroke-width="2" stroke-miterlimit="10"/>
<path d="M174.43 157.978C176.646 157.978 178.442 156.182 178.442 153.966C178.442 151.751 176.646 149.955 174.43 149.955C172.215 149.955 170.418 151.751 170.418 153.966C170.418 156.182 172.215 157.978 174.43 157.978Z" fill="black" stroke="black" stroke-miterlimit="10"/>
<path d="M200.731 157.978C202.946 157.978 204.742 156.182 204.742 153.966C204.742 151.751 202.946 149.955 200.731 149.955C198.515 149.955 196.719 151.751 196.719 153.966C196.719 156.182 198.515 157.978 200.731 157.978Z" fill="black" stroke="black" stroke-miterlimit="10"/>
<path d="M214.075 212.339C214.075 212.339 228.402 214.14 229.753 201.225C229.753 201.225 232.782 188.515 217.616 179.776C216.061 178.875 214.075 180.001 214.075 181.761V212.339Z" fill="#D3AF7C" stroke="black" stroke-width="2" stroke-miterlimit="10"/>
<path d="M161.925 212.339C161.925 212.339 147.598 214.14 146.247 201.225C146.247 201.225 143.218 188.515 158.384 179.776C159.939 178.875 161.925 180.001 161.925 181.761V212.339Z" fill="#D3AF7C" stroke="black" stroke-width="2" stroke-miterlimit="10"/>
<path d="M205.868 172.776C209.078 172.776 211.681 170.173 211.681 166.963C211.681 163.753 209.078 161.15 205.868 161.15C202.658 161.15 200.055 163.753 200.055 166.963C200.055 170.173 202.658 172.776 205.868 172.776Z" fill="#D7B995"/>
<path d="M169.784 172.776C172.995 172.776 175.597 170.173 175.597 166.963C175.597 163.753 172.995 161.15 169.784 161.15C166.574 161.15 163.972 163.753 163.972 166.963C163.972 170.173 166.574 172.776 169.784 172.776Z" fill="#D7B995"/>
<path d="M175.495 165.837L183.661 160.761C185.81 159.411 189.249 159.288 191.561 160.454L200.117 164.773C203.248 166.349 202.798 169.419 199.257 170.709L191.009 173.738C189.371 174.331 187.386 174.413 185.667 173.963L177.193 171.691C173.427 170.688 172.547 167.659 175.495 165.837Z" fill="#BB8682" stroke="black" stroke-miterlimit="10"/>
<path d="M172.813 168.539C172.813 168.539 186.649 171.788 202.143 167.571" stroke="#040000" stroke-width="0.5" stroke-miterlimit="10"/>
<rect x="16" y="263" width="343" height="43" rx="21.5" fill="#FEA735"/>
<path d="M119.82 290.136V287.472H129.414V290.136H119.82ZM129.414 283.602V286.212H119.82V283.602H129.414ZM129.414 279.66V282.342H119.82V279.66H129.414ZM124.338 278.382C124.644 277.698 124.968 276.888 125.238 276.114L123.708 275.916C123.564 276.618 123.276 277.59 123.006 278.382H118.488V292.404H119.82V291.396H129.414V292.314H130.8V278.382H124.338ZM150.114 277.032H141.33V278.292H150.114V277.032ZM138.324 275.934C137.424 277.212 135.696 278.832 134.202 279.84C134.436 280.092 134.796 280.614 134.994 280.902C136.596 279.768 138.432 278.022 139.602 276.438L138.324 275.934ZM139.062 279.768C137.82 281.802 135.876 283.872 134.022 285.186C134.292 285.456 134.76 286.032 134.958 286.302C135.624 285.78 136.308 285.132 136.992 284.43V292.422H138.324V282.954C139.062 282.072 139.746 281.154 140.304 280.236L139.062 279.768ZM150.636 281.946H140.556V283.224H146.568V290.64C146.568 290.946 146.46 291.018 146.118 291.036C145.776 291.054 144.588 291.054 143.31 291.018C143.508 291.396 143.688 291.954 143.742 292.314C145.506 292.314 146.514 292.314 147.126 292.116C147.72 291.9 147.918 291.486 147.918 290.658V283.224H150.636V281.946ZM153.156 286.14C152.958 287.706 152.616 289.326 152.058 290.424C152.31 290.514 152.832 290.748 153.03 290.892C153.606 289.74 154.002 288.03 154.254 286.338L153.156 286.14ZM157.44 284.7C157.584 285.132 157.692 285.528 157.746 285.852L158.772 285.42C158.556 284.412 157.926 282.846 157.242 281.658L156.306 282.018C156.558 282.504 156.81 283.044 157.026 283.584L154.614 283.71C155.766 282.198 157.098 280.146 158.07 278.472L156.972 277.986C156.504 278.94 155.856 280.11 155.154 281.226C154.902 280.884 154.578 280.488 154.218 280.092C154.848 279.102 155.622 277.626 156.234 276.384L155.082 275.952C154.722 276.942 154.074 278.328 153.498 279.354C153.318 279.174 153.12 278.976 152.94 278.814L152.22 279.642C153.048 280.416 153.948 281.46 154.47 282.27C154.11 282.828 153.75 283.332 153.408 283.782C152.94 283.8 152.49 283.818 152.094 283.836L152.22 285.042C153.03 284.988 153.948 284.934 154.938 284.862V292.368H156.108V284.79L157.44 284.7ZM165.774 287.85V285.78H167.196V287.85H165.774ZM163.47 287.85V285.78H164.856V287.85H163.47ZM161.22 287.85V285.78H162.57V287.85H161.22ZM166.674 280.488V282.414H160.464V280.488H166.674ZM168.33 284.736H160.428C160.446 284.304 160.464 283.908 160.464 283.512H167.97V279.372H159.258V283.314C159.258 285.042 159.168 287.256 158.448 289.236C158.34 288.354 157.998 287.076 157.566 286.086L156.63 286.374C157.044 287.4 157.404 288.75 157.458 289.632L158.412 289.362C158.142 290.064 157.8 290.748 157.35 291.36C157.62 291.504 158.124 291.882 158.322 292.116C159.384 290.658 159.942 288.804 160.212 286.986V292.368H161.22V288.876H162.57V292.188H163.47V288.876H164.856V292.188H165.774V288.876H167.196V291.09C167.196 291.252 167.16 291.288 167.052 291.288C166.908 291.288 166.53 291.288 166.098 291.27C166.242 291.576 166.422 292.044 166.458 292.368C167.124 292.368 167.592 292.332 167.934 292.17C168.258 291.954 168.33 291.63 168.33 291.108V284.736ZM158.574 277.032V278.202H168.402V277.032H158.574ZM175.458 288.66C175.818 289.668 176.088 291 176.07 291.81L177.168 291.648C177.168 290.838 176.898 289.542 176.502 288.552L175.458 288.66ZM177.996 288.588C178.518 289.452 178.986 290.586 179.13 291.342L180.156 291.036C180.012 290.28 179.508 289.146 178.932 288.3L177.996 288.588ZM182.928 290.01C182.64 289.452 181.974 288.624 181.362 288.048L180.462 288.48C181.074 289.074 181.722 289.92 181.992 290.496L182.928 290.01ZM175.71 286.554C176.052 286.176 176.376 285.798 176.646 285.384H183.99V280.038H179.022V281.028H182.766V282.234H179.292V283.188H182.766V284.412H174.306V283.188H177.744V282.234H174.306V281.082C175.566 280.812 176.988 280.452 178.05 280.002L177.204 279.138C176.412 279.516 175.098 279.912 173.91 280.218L173.1 280.038V285.384H175.17C174.054 286.806 172.2 287.94 170.346 288.66C170.598 288.912 170.994 289.47 171.138 289.722C171.858 289.398 172.596 289.002 173.28 288.552C173.01 289.686 172.488 290.856 171.66 291.54L172.668 292.152C173.64 291.342 174.108 289.974 174.414 288.678L173.496 288.408C173.856 288.174 174.198 287.922 174.522 287.652H184.206C184.062 289.866 183.882 290.784 183.612 291.072C183.468 291.216 183.324 291.234 183.018 291.216C182.694 291.234 181.884 291.216 181.02 291.144C181.236 291.45 181.362 291.954 181.398 292.296C182.28 292.35 183.144 292.368 183.576 292.314C184.08 292.296 184.404 292.188 184.71 291.864C185.142 291.396 185.358 290.172 185.556 287.094C185.574 286.914 185.592 286.554 185.592 286.554H175.71ZM179.13 277.392V275.952H177.816V277.392H170.922V280.56H172.146V278.562H184.836V280.56H186.096V277.392H179.13ZM202.458 281.154H197.058V277.86H202.458V281.154ZM203.772 276.69H195.834V282.306H203.772V276.69ZM195.114 285.798C194.754 285.384 193.224 283.8 192.666 283.332V282.234H194.916V280.974H192.666V277.932C193.512 277.734 194.304 277.482 194.952 277.212L194.016 276.204C192.702 276.798 190.344 277.32 188.328 277.644C188.49 277.95 188.67 278.382 188.742 278.688C189.57 278.562 190.488 278.418 191.37 278.238V280.974H188.436V282.234H191.19C190.47 284.286 189.228 286.608 188.094 287.868C188.31 288.192 188.634 288.714 188.76 289.092C189.678 287.994 190.632 286.194 191.37 284.376V292.332H192.666V284.628C193.278 285.366 194.016 286.356 194.304 286.86L195.114 285.798ZM200.406 290.694V288.372H203.988V287.202H200.406V285.06H204.384V283.872H195.168V285.06H199.074V287.202H195.582V288.372H199.074V290.694H194.358V291.9H204.78V290.694H200.406ZM221.736 278.22C221.196 277.608 220.062 276.69 219.144 276.078L218.244 276.816C219.162 277.464 220.278 278.436 220.8 279.066L221.736 278.22ZM211.71 284.556H215.076V283.26H207.192V284.556H210.396V289.776C208.956 290.064 207.642 290.334 206.634 290.532L207.048 291.846C209.334 291.342 212.628 290.586 215.67 289.848L215.562 288.678C214.266 288.966 212.97 289.218 211.71 289.488V284.556ZM222.474 280.578V279.282H217.146C217.092 278.22 217.074 277.14 217.074 276.024H215.67C215.688 277.122 215.706 278.22 215.76 279.282H206.562V280.578H215.85C216.318 287.238 217.812 292.404 220.746 292.404C222.114 292.404 222.618 291.486 222.852 288.372C222.474 288.228 221.97 287.94 221.664 287.634C221.556 290.028 221.34 291.018 220.854 291.018C219.072 291.018 217.65 286.644 217.218 280.578H222.474ZM232.626 279.912H233.904V278.562H236.64V279.93H237.936V278.562H240.438V277.428H237.936V275.952H236.64V277.428H233.904V275.952H232.626V277.428H230.016V278.562H232.626V279.912ZM230.106 284.862C229.782 284.304 228.432 282.036 227.964 281.352V280.65H229.818V279.39H227.964V275.934H226.686V279.39H224.472V280.65H226.686C226.2 283.08 225.174 285.942 224.13 287.436C224.364 287.76 224.688 288.336 224.832 288.732C225.498 287.67 226.164 286.032 226.686 284.286V292.368H227.964V283.152C228.45 284.088 229.008 285.24 229.26 285.852L230.106 284.862ZM231.996 283.494H238.224V284.772H231.996V283.494ZM231.996 281.262H238.224V282.54H231.996V281.262ZM240.42 288.408V287.274H235.47C235.56 286.806 235.65 286.302 235.704 285.78H239.502V280.254H230.754V285.78H234.39C234.318 286.302 234.246 286.824 234.138 287.274H229.62V288.408H233.742C233.058 289.776 231.78 290.73 229.152 291.324C229.386 291.576 229.728 292.08 229.836 292.368C232.968 291.612 234.408 290.352 235.128 288.444C236.028 290.406 237.684 291.738 239.988 292.368C240.168 292.026 240.546 291.522 240.834 291.27C238.8 290.838 237.27 289.848 236.388 288.408H240.42ZM243.192 286.14C242.994 287.724 242.616 289.326 242.022 290.424C242.31 290.514 242.85 290.766 243.066 290.928C243.66 289.776 244.092 288.048 244.344 286.356L243.192 286.14ZM248.016 284.826C248.178 285.204 248.286 285.546 248.358 285.852L249.42 285.348C249.168 284.376 248.376 282.846 247.638 281.694L246.648 282.126C246.954 282.612 247.26 283.17 247.53 283.728C246.54 283.764 245.55 283.818 244.65 283.854C245.892 282.306 247.332 280.182 248.376 278.49L247.224 277.986C246.72 278.958 246.036 280.128 245.298 281.262C245.01 280.884 244.632 280.452 244.2 280.02C244.884 279.048 245.64 277.608 246.252 276.402L245.064 275.952C244.686 276.942 244.056 278.292 243.462 279.3C243.282 279.138 243.102 278.976 242.922 278.832L242.238 279.714C243.084 280.47 244.038 281.478 244.596 282.288C244.2 282.882 243.786 283.422 243.39 283.89C242.976 283.908 242.562 283.926 242.202 283.926L242.31 285.132L245.244 284.988V292.404H246.45V284.916L248.016 284.826ZM247.098 286.392C247.584 287.508 248.088 288.948 248.25 289.884L249.312 289.524C249.15 288.588 248.628 287.166 248.106 286.068L247.098 286.392ZM251.562 287.202H256.134V290.64H251.562V287.202ZM256.134 278.166V281.478H251.562V278.166H256.134ZM256.134 285.996H251.562V282.684H256.134V285.996ZM257.448 290.64V276.96H250.266V290.64H248.358V291.864H258.834V290.64H257.448Z" fill="black"/>
<rect x="17.5" y="322.5" width="340" height="448" rx="23.5" stroke="#FEA735" stroke-width="3"/>
<path d="M16 346C16 332.193 27.1929 321 41 321H334C347.807 321 359 332.193 359 346V364H16V346Z" fill="#FEA735"/>
<path d="M148.084 336.742H144.628V338.614C144.628 339.694 145.006 339.964 146.338 339.964H148.75C149.704 339.964 150.046 339.64 150.172 338.434C149.848 338.362 149.416 338.218 149.182 338.056C149.128 338.902 149.038 339.01 148.606 339.01H146.464C145.87 339.01 145.762 338.938 145.762 338.596V337.678H149.272V334.636H144.286V335.572H148.084V336.742ZM142.288 336.742H138.76V338.614C138.76 339.694 139.102 339.964 140.434 339.964H142.666C143.584 339.964 143.926 339.658 144.052 338.488C143.728 338.434 143.296 338.29 143.062 338.11C143.008 338.902 142.918 339.01 142.486 339.01H140.542C139.966 339.01 139.876 338.938 139.876 338.614V337.678H143.422V334.636H138.436V335.572H142.288V336.742ZM142.576 342.52H145.528V344.23H142.576V342.52ZM150.064 344.23H146.806V342.52H149.506V341.494H146.806V340.198H145.528V341.494H142.576V340.198H141.334V341.494H138.67V342.52H141.334V344.23H138.094V345.274H150.064V344.23ZM149.794 347.668C148.948 347.002 147.472 346.138 146.158 345.508L145.204 346.102C146.446 346.732 147.742 347.578 148.498 348.244L149.794 347.668ZM141.928 345.472C141.136 346.192 139.804 346.876 138.58 347.362C138.868 347.542 139.354 347.974 139.57 348.208C140.758 347.632 142.198 346.75 143.116 345.886L141.928 345.472ZM137.752 337.354C137.248 336.454 136.06 335.212 134.998 334.366L133.972 335.05C135.016 335.932 136.168 337.21 136.636 338.11L137.752 337.354ZM137.338 340.99H133.882V342.25H136.096V346.894C135.304 347.65 134.422 348.406 133.666 348.964L134.368 350.206C135.232 349.414 136.042 348.658 136.798 347.866C137.914 349.288 139.552 349.936 141.928 350.026C143.962 350.098 147.85 350.062 149.884 349.972C149.938 349.594 150.154 349 150.316 348.712C148.12 348.856 143.926 348.91 141.892 348.82C139.786 348.73 138.184 348.118 137.338 346.768V340.99ZM157.084 341.512C156.49 341.71 155.896 341.908 155.302 342.088V338.776H157.228V337.552H155.302V333.952H154.06V337.552H151.81V338.776H154.06V342.466C153.124 342.754 152.26 343.024 151.576 343.204L151.918 344.5L154.06 343.798V348.82C154.06 349.09 153.97 349.144 153.754 349.144C153.538 349.162 152.836 349.162 152.062 349.144C152.242 349.504 152.404 350.062 152.458 350.368C153.574 350.386 154.258 350.332 154.69 350.134C155.14 349.918 155.302 349.558 155.302 348.82V343.402L157.264 342.754L157.084 341.512ZM164.482 344.662H160.864L161.368 344.518C161.278 344.086 160.99 343.438 160.72 342.952H164.806C164.608 343.456 164.302 344.104 164.068 344.536L164.482 344.662ZM161.908 335.644H163.69V337.534H161.908V335.644ZM160.828 337.534H159.118V335.644H160.828V337.534ZM164.77 335.644H166.588V337.534H164.77V335.644ZM168.244 341.89H163.348V340.612H167.362V339.604H163.348V338.488H167.704V334.672H158.02V338.488H162.088V339.604H158.218V340.612H162.088V341.89H157.336V342.952H160.288L159.55 343.132C159.802 343.582 160.054 344.194 160.18 344.662H157.498V345.706H162.088V346.984H157.876V348.028H162.088V350.512H163.348V348.028H167.596V346.984H163.348V345.706H167.992V344.662H165.202C165.49 344.194 165.814 343.618 166.156 343.024L165.886 342.952H168.244V341.89ZM183.958 339.154H178.558V335.86H183.958V339.154ZM185.272 334.69H177.334V340.306H185.272V334.69ZM176.614 343.798C176.254 343.384 174.724 341.8 174.166 341.332V340.234H176.416V338.974H174.166V335.932C175.012 335.734 175.804 335.482 176.452 335.212L175.516 334.204C174.202 334.798 171.844 335.32 169.828 335.644C169.99 335.95 170.17 336.382 170.242 336.688C171.07 336.562 171.988 336.418 172.87 336.238V338.974H169.936V340.234H172.69C171.97 342.286 170.728 344.608 169.594 345.868C169.81 346.192 170.134 346.714 170.26 347.092C171.178 345.994 172.132 344.194 172.87 342.376V350.332H174.166V342.628C174.778 343.366 175.516 344.356 175.804 344.86L176.614 343.798ZM181.906 348.694V346.372H185.488V345.202H181.906V343.06H185.884V341.872H176.668V343.06H180.574V345.202H177.082V346.372H180.574V348.694H175.858V349.9H186.28V348.694H181.906ZM203.236 336.22C202.696 335.608 201.562 334.69 200.644 334.078L199.744 334.816C200.662 335.464 201.778 336.436 202.3 337.066L203.236 336.22ZM193.21 342.556H196.576V341.26H188.692V342.556H191.896V347.776C190.456 348.064 189.142 348.334 188.134 348.532L188.548 349.846C190.834 349.342 194.128 348.586 197.17 347.848L197.062 346.678C195.766 346.966 194.47 347.218 193.21 347.488V342.556ZM203.974 338.578V337.282H198.646C198.592 336.22 198.574 335.14 198.574 334.024H197.17C197.188 335.122 197.206 336.22 197.26 337.282H188.062V338.578H197.35C197.818 345.238 199.312 350.404 202.246 350.404C203.614 350.404 204.118 349.486 204.352 346.372C203.974 346.228 203.47 345.94 203.164 345.634C203.056 348.028 202.84 349.018 202.354 349.018C200.572 349.018 199.15 344.644 198.718 338.578H203.974ZM214.126 337.912H215.404V336.562H218.14V337.93H219.436V336.562H221.938V335.428H219.436V333.952H218.14V335.428H215.404V333.952H214.126V335.428H211.516V336.562H214.126V337.912ZM211.606 342.862C211.282 342.304 209.932 340.036 209.464 339.352V338.65H211.318V337.39H209.464V333.934H208.186V337.39H205.972V338.65H208.186C207.7 341.08 206.674 343.942 205.63 345.436C205.864 345.76 206.188 346.336 206.332 346.732C206.998 345.67 207.664 344.032 208.186 342.286V350.368H209.464V341.152C209.95 342.088 210.508 343.24 210.76 343.852L211.606 342.862ZM213.496 341.494H219.724V342.772H213.496V341.494ZM213.496 339.262H219.724V340.54H213.496V339.262ZM221.92 346.408V345.274H216.97C217.06 344.806 217.15 344.302 217.204 343.78H221.002V338.254H212.254V343.78H215.89C215.818 344.302 215.746 344.824 215.638 345.274H211.12V346.408H215.242C214.558 347.776 213.28 348.73 210.652 349.324C210.886 349.576 211.228 350.08 211.336 350.368C214.468 349.612 215.908 348.352 216.628 346.444C217.528 348.406 219.184 349.738 221.488 350.368C221.668 350.026 222.046 349.522 222.334 349.27C220.3 348.838 218.77 347.848 217.888 346.408H221.92ZM224.692 344.14C224.494 345.724 224.116 347.326 223.522 348.424C223.81 348.514 224.35 348.766 224.566 348.928C225.16 347.776 225.592 346.048 225.844 344.356L224.692 344.14ZM229.516 342.826C229.678 343.204 229.786 343.546 229.858 343.852L230.92 343.348C230.668 342.376 229.876 340.846 229.138 339.694L228.148 340.126C228.454 340.612 228.76 341.17 229.03 341.728C228.04 341.764 227.05 341.818 226.15 341.854C227.392 340.306 228.832 338.182 229.876 336.49L228.724 335.986C228.22 336.958 227.536 338.128 226.798 339.262C226.51 338.884 226.132 338.452 225.7 338.02C226.384 337.048 227.14 335.608 227.752 334.402L226.564 333.952C226.186 334.942 225.556 336.292 224.962 337.3C224.782 337.138 224.602 336.976 224.422 336.832L223.738 337.714C224.584 338.47 225.538 339.478 226.096 340.288C225.7 340.882 225.286 341.422 224.89 341.89C224.476 341.908 224.062 341.926 223.702 341.926L223.81 343.132L226.744 342.988V350.404H227.95V342.916L229.516 342.826ZM228.598 344.392C229.084 345.508 229.588 346.948 229.75 347.884L230.812 347.524C230.65 346.588 230.128 345.166 229.606 344.068L228.598 344.392ZM233.062 345.202H237.634V348.64H233.062V345.202ZM237.634 336.166V339.478H233.062V336.166H237.634ZM237.634 343.996H233.062V340.684H237.634V343.996ZM238.948 348.64V334.96H231.766V348.64H229.858V349.864H240.334V348.64H238.948Z" fill="black"/>
<g clip-path="url(#clip0_483_790)">
<rect x="32" y="384" width="311" height="43" rx="21.5" fill="#FFCD6E"/>
<rect x="32" y="443" width="311" height="43" rx="21.5" fill="#FFCD6E"/>
<rect x="32" y="502" width="311" height="43" rx="21.5" fill="#FFCD6E"/>
<rect x="32" y="561" width="311" height="43" rx="21.5" fill="#FFCD6E"/>
<rect x="32" y="620" width="311" height="43" rx="21.5" fill="#FFCD6E"/>
<rect x="32" y="679" width="311" height="43" rx="21.5" fill="#FFCD6E"/>
<rect x="32" y="738" width="311" height="43" rx="21.5" fill="#FFCD6E"/>
<path d="M156.93 399.022C156.174 398.518 154.662 397.69 153.564 397.168L152.826 398.122C153.924 398.716 155.418 399.58 156.156 400.102L156.93 399.022ZM156.012 403.882C155.22 403.378 153.726 402.586 152.682 402.064L151.944 403.036C153.042 403.612 154.518 404.476 155.256 404.98L156.012 403.882ZM153.492 413.134C154.554 411.478 155.814 409.246 156.75 407.356L155.778 406.474C154.734 408.508 153.348 410.884 152.376 412.234L153.492 413.134ZM165.84 411.37H159.45V407.662H165.84V411.37ZM168.288 403.468V402.172H163.356V399.058C164.904 398.788 166.344 398.446 167.514 398.05L166.47 397.006C164.472 397.726 160.854 398.284 157.758 398.608C157.884 398.914 158.064 399.418 158.136 399.742C159.414 399.616 160.764 399.454 162.078 399.256V402.172H156.894V403.468H162.078V406.42H158.208V413.368H159.45V412.612H165.84V413.278H167.118V406.42H163.356V403.468H168.288ZM177.918 400.858C177.918 400.588 177.918 400.336 177.918 400.084V396.97H176.532V400.084C176.532 400.336 176.532 400.588 176.532 400.858H170.7V402.19H176.46C176.19 405.556 175.038 409.498 170.16 412.396C170.484 412.612 170.97 413.134 171.186 413.458C176.406 410.272 177.594 405.916 177.846 402.19H183.984C183.642 408.526 183.246 411.064 182.598 411.676C182.382 411.892 182.148 411.946 181.77 411.946C181.32 411.946 180.168 411.928 178.944 411.82C179.214 412.216 179.376 412.792 179.394 413.188C180.492 413.26 181.644 413.296 182.274 413.242C182.958 413.17 183.39 413.026 183.804 412.522C184.596 411.622 184.974 408.94 185.37 401.56C185.388 401.362 185.406 400.858 185.406 400.858H177.918ZM189.024 405.322C192.138 405.232 196.908 405.034 201.444 404.782C201.912 405.304 202.326 405.79 202.614 406.222L203.766 405.448C202.794 404.098 200.706 402.172 198.942 400.84L197.862 401.506C198.654 402.118 199.5 402.856 200.274 403.594C197.826 403.684 195.342 403.774 193.164 403.846C193.794 402.802 194.46 401.506 195.036 400.372H203.91V399.094H196.764V396.934H195.432V399.094H188.394V400.372H193.452C193.002 401.506 192.336 402.874 191.742 403.9C190.698 403.936 189.762 403.954 188.952 403.972L189.024 405.322ZM193.11 405.808C192.858 409.138 192.156 411.19 187.98 412.216C188.268 412.468 188.628 413.008 188.754 413.35C193.29 412.108 194.208 409.678 194.514 405.808H193.11ZM199.914 411.982C199.212 411.982 199.086 411.874 199.086 411.334V405.7H197.736V411.334C197.736 412.81 198.168 413.242 199.752 413.242H202.308C203.838 413.242 204.198 412.468 204.36 409.444C203.982 409.336 203.424 409.12 203.118 408.868C203.028 411.568 202.92 411.982 202.218 411.982H199.914ZM209.688 403.864C208.986 403.36 207.6 402.568 206.628 402.046L205.944 403.036C206.988 403.612 208.356 404.44 209.022 404.98L209.688 403.864ZM207.474 413.152C208.446 411.478 209.598 409.246 210.48 407.374L209.616 406.492C208.644 408.508 207.348 410.884 206.448 412.252L207.474 413.152ZM206.736 398.176C207.762 398.752 209.184 399.616 209.868 400.174L210.57 399.094C209.85 398.554 208.446 397.744 207.402 397.204L206.736 398.176ZM222.324 400.894V399.598H217.104V396.934H215.754V399.598H210.786V400.894H215.754V403.09H211.56V411.064H212.874V404.386H215.754V413.404H217.104V404.386H220.128V409.444C220.128 409.642 220.074 409.696 219.858 409.696C219.624 409.714 218.94 409.714 218.166 409.696C218.346 410.074 218.508 410.596 218.562 410.992C219.66 410.992 220.398 410.974 220.866 410.74C221.334 410.524 221.442 410.146 221.442 409.462V403.09H217.104V400.894H222.324Z" fill="black"/>
<path d="M170.952 464.34C171.402 463.062 171.744 460.974 171.834 459.534L170.808 459.39C170.682 460.848 170.358 462.792 169.89 463.98L170.952 464.34ZM172.518 472.368H173.814V455.934H172.518V472.368ZM173.994 459.228C174.516 460.308 175.056 461.73 175.272 462.594L176.298 462.108C176.082 461.262 175.506 459.876 174.966 458.796L173.994 459.228ZM178.17 470.136V465.798H184.452V470.136H178.17ZM184.452 460.452V464.538H178.17V460.452H184.452ZM181.212 459.156C181.518 458.292 181.842 457.23 182.13 456.258L180.6 456.06C180.456 456.96 180.15 458.202 179.862 459.156H176.874V472.368H178.17V471.45H184.452V472.224H185.784V459.156H181.212ZM196.854 470.514V465.942H202.632V464.646H196.854V460.722H203.298V459.408H196.854V455.952H195.486V459.408H191.832C192.228 458.49 192.552 457.518 192.84 456.528L191.49 456.24C190.788 458.796 189.636 461.28 188.16 462.864C188.52 463.044 189.114 463.44 189.384 463.656C190.05 462.846 190.68 461.856 191.256 460.722H195.486V464.646H190.14V465.942H195.486V470.514H188.196V471.81H204.144V470.514H196.854Z" fill="black"/>
<path d="M153.024 523.322C156.138 523.232 160.908 523.034 165.444 522.782C165.912 523.304 166.326 523.79 166.614 524.222L167.766 523.448C166.794 522.098 164.706 520.172 162.942 518.84L161.862 519.506C162.654 520.118 163.5 520.856 164.274 521.594C161.826 521.684 159.342 521.774 157.164 521.846C157.794 520.802 158.46 519.506 159.036 518.372H167.91V517.094H160.764V514.934H159.432V517.094H152.394V518.372H157.452C157.002 519.506 156.336 520.874 155.742 521.9C154.698 521.936 153.762 521.954 152.952 521.972L153.024 523.322ZM157.11 523.808C156.858 527.138 156.156 529.19 151.98 530.216C152.268 530.468 152.628 531.008 152.754 531.35C157.29 530.108 158.208 527.678 158.514 523.808H157.11ZM163.914 529.982C163.212 529.982 163.086 529.874 163.086 529.334V523.7H161.736V529.334C161.736 530.81 162.168 531.242 163.752 531.242H166.308C167.838 531.242 168.198 530.468 168.36 527.444C167.982 527.336 167.424 527.12 167.118 526.868C167.028 529.568 166.92 529.982 166.218 529.982H163.914ZM173.58 521.576C172.95 521.018 171.672 520.334 170.628 519.92L169.872 520.892C170.934 521.36 172.212 522.116 172.824 522.674L173.58 521.576ZM171.456 531.152C172.23 529.496 173.13 527.3 173.796 525.428L172.716 524.726C171.996 526.742 170.97 529.046 170.25 530.432L171.456 531.152ZM170.646 516.086C171.654 516.59 172.896 517.418 173.472 518.012L174.264 516.95C173.652 516.356 172.428 515.6 171.42 515.132L170.646 516.086ZM178.224 517.832H182.094V519.344H178.224V517.832ZM183.408 520.496V517.832H186.288V516.644H183.408V514.934H182.094V516.644H178.224V514.934H176.946V516.644H174.264V517.832H176.946V520.496H179.502V521.774H174.678V531.332H175.848V522.926H179.502V528.254C178.746 527.462 178.314 525.896 178.242 523.952H176.532V524.87H177.558C177.576 525.104 177.594 525.338 177.63 525.554H177.324C177.198 526.652 176.766 527.858 175.902 528.542C176.082 528.65 176.37 528.92 176.496 529.1C177.18 528.524 177.612 527.714 177.882 526.814C178.116 527.732 178.494 528.47 178.98 528.974C179.088 528.794 179.322 528.578 179.502 528.434V531.17H180.708V522.926H184.542V528.254C183.678 527.498 183.156 525.95 183.066 523.952H181.356V524.87H182.382C182.4 525.104 182.436 525.32 182.454 525.536H182.166C182.04 526.598 181.608 527.75 180.726 528.398C180.924 528.524 181.212 528.794 181.32 528.974C182.004 528.416 182.454 527.624 182.724 526.76C182.994 527.696 183.408 528.416 183.93 528.92C184.056 528.722 184.344 528.488 184.542 528.344V530.054C184.542 530.27 184.47 530.306 184.254 530.306C184.038 530.324 183.336 530.324 182.58 530.306C182.724 530.612 182.868 531.026 182.922 531.332C184.02 531.332 184.74 531.314 185.172 531.152C185.604 530.972 185.73 530.666 185.73 530.054V521.774H180.708V520.496H183.408ZM193.326 519.866C193.092 522.224 192.624 524.204 191.94 525.824C191.256 525.338 190.536 524.888 189.852 524.492C190.212 523.07 190.59 521.468 190.95 519.866H193.326ZM193.884 518.588L193.65 518.642H191.22C191.49 517.4 191.742 516.194 191.958 515.096L190.68 514.952C190.482 516.068 190.23 517.346 189.942 518.642H187.98V519.866H189.69C189.186 522.116 188.646 524.33 188.214 525.878L189.33 526.454L189.528 525.698C190.158 526.094 190.788 526.526 191.382 526.976C190.536 528.524 189.438 529.64 188.124 530.324C188.412 530.594 188.772 531.08 188.952 531.404C190.356 530.558 191.508 529.388 192.408 527.786C193.164 528.416 193.812 529.046 194.244 529.586L195.054 528.524C194.568 527.93 193.848 527.264 193.002 526.616C193.884 524.6 194.442 522.026 194.676 518.768L193.884 518.588ZM204.414 522.152H200.13V520.55C201.498 519.488 203.028 517.868 204.036 516.428L203.154 515.78L202.884 515.87H195.18V517.094H201.912C201.192 518.012 200.238 519.038 199.338 519.758H198.798V522.152H194.586V523.394H198.798V529.676C198.798 529.946 198.708 530.036 198.402 530.054C198.096 530.072 197.088 530.072 195.954 530.036C196.152 530.378 196.386 530.972 196.458 531.332C197.88 531.332 198.816 531.296 199.374 531.098C199.95 530.882 200.13 530.486 200.13 529.676V523.394H204.414V522.152ZM221.01 520.892C219.372 520.118 216.564 518.984 214.278 518.21C214.332 518.084 214.386 517.94 214.44 517.796H221.28V516.608H214.764C214.872 516.104 214.962 515.528 215.016 514.934H213.648C213.594 515.546 213.504 516.104 213.396 516.608H207.042V517.796H213C212.226 519.452 210.552 520.37 206.754 520.838C206.97 521.09 207.258 521.594 207.366 521.882C210.732 521.432 212.604 520.586 213.684 519.2C215.934 519.992 218.562 521.108 220.038 521.846L221.01 520.892ZM213.846 525.77V528.218H209.274V525.77H213.846ZM215.142 529.316V524.672H207.996V530.486H209.274V529.316H215.142ZM222.162 522.008H206.142V523.232H218.328V529.73C218.328 530.036 218.238 530.108 217.878 530.144C217.518 530.144 216.276 530.162 214.908 530.108C215.106 530.486 215.34 531.008 215.412 531.386C217.068 531.386 218.184 531.368 218.832 531.17C219.48 530.954 219.678 530.576 219.678 529.748V523.232H222.162V522.008Z" fill="black"/>
<path d="M184.938 575.554C184.884 577.048 184.812 577.624 184.686 577.822C184.596 577.912 184.488 577.93 184.308 577.93C184.146 577.93 183.786 577.93 183.336 577.876C183.498 578.182 183.606 578.668 183.624 578.992C184.11 579.01 184.614 578.992 184.884 578.974C185.244 578.938 185.496 578.83 185.694 578.578C185.982 578.218 186.072 577.3 186.144 574.996C186.162 574.834 186.162 574.51 186.162 574.51H180.438V575.554H182.022C181.806 576.85 181.266 577.912 179.952 578.542C180.204 578.722 180.528 579.118 180.672 579.388C182.274 578.578 182.922 577.246 183.192 575.554H184.938ZM181.896 584.824H184.758V586.066H181.896V584.824ZM181.896 582.718H184.758V583.942H181.896V582.718ZM181.896 580.612H184.758V581.818H181.896V580.612ZM180.798 587.038H185.892V579.64H180.798V587.038ZM170.502 577.066C170.502 578.632 170.25 580.576 169.692 581.674L170.538 582.052C171.15 580.81 171.402 578.776 171.384 577.192L170.502 577.066ZM171.942 590.35H173.166V573.934H171.942V590.35ZM175.704 579.91H176.964V582.79H175.704V579.91ZM179.106 582.79H177.882V579.91H179.106V582.79ZM180.51 586.606C180.15 586.192 178.62 584.608 178.008 584.05V583.852H180.096V578.848H178.008V577.012H180.222V575.914H178.008V573.952H176.82V575.914H174.624V577.012H176.82V578.848H174.858C174.768 578.2 174.498 577.264 174.192 576.49L173.364 576.76C173.688 577.588 173.958 578.704 173.994 579.388L174.75 579.082V583.852H176.388C175.794 585.382 174.858 587.002 173.922 587.902C174.138 588.226 174.408 588.73 174.534 589.09C175.38 588.19 176.208 586.678 176.82 585.166V590.368H178.008V585.328C178.674 586.084 179.52 587.056 179.862 587.56L180.51 586.606ZM181.608 587.326C181.104 588.172 180.24 589.018 179.34 589.594C179.61 589.792 180.06 590.206 180.276 590.44C181.194 589.756 182.166 588.694 182.778 587.668L181.608 587.326ZM183.768 587.74C184.452 588.55 185.244 589.666 185.604 590.368L186.666 589.81C186.306 589.126 185.496 588.046 184.776 587.272L183.768 587.74ZM191.238 577.246H193.56V579.37H191.238V577.246ZM196.656 579.37H194.802V577.246H196.62V576.112H194.802V574.114H193.56V576.112H191.238V574.114H190.014V576.112H188.214V577.246H190.014V579.37H187.926V580.522H196.656V579.37ZM190.446 586.318V585.058H194.37V586.318H190.446ZM194.37 582.772V584.032H190.446V582.772H194.37ZM195.612 581.71H189.204V590.386H190.446V587.362H194.37V588.964C194.37 589.162 194.298 589.234 194.082 589.252C193.884 589.252 193.2 589.27 192.408 589.234C192.57 589.558 192.75 590.026 192.786 590.35C193.884 590.35 194.604 590.35 195.036 590.152C195.486 589.954 195.612 589.63 195.612 588.982V581.71ZM198.78 578.524H201.858C201.552 580.756 201.084 582.682 200.364 584.32C199.608 582.646 199.104 580.702 198.744 578.65L198.78 578.524ZM204.36 578.524V577.264H199.122C199.374 576.256 199.572 575.194 199.752 574.132L198.456 573.934C198.006 576.958 197.232 579.928 195.954 581.836C196.224 582.088 196.692 582.646 196.872 582.934C197.304 582.268 197.7 581.512 198.024 580.702C198.438 582.52 198.942 584.212 199.608 585.688C198.69 587.2 197.412 588.388 195.684 589.27C195.954 589.522 196.35 590.116 196.476 590.404C198.078 589.486 199.338 588.37 200.31 586.984C201.156 588.424 202.218 589.576 203.55 590.386C203.766 590.026 204.18 589.504 204.504 589.252C203.082 588.478 201.948 587.272 201.066 585.742C202.11 583.798 202.758 581.404 203.154 578.524H204.36Z" fill="black"/>
<path d="M155.832 637.722H164.67V639.504H155.832V637.722ZM155.832 634.878H164.67V636.66H155.832V634.878ZM156.966 642.15C157.344 641.664 157.74 641.16 158.046 640.638H166.02V633.762H154.518V640.638H156.498C155.364 642.294 153.636 643.77 151.89 644.76C152.214 644.976 152.718 645.444 152.934 645.696C153.924 645.084 154.932 644.274 155.85 643.356H158.352C157.164 645.282 155.328 646.974 153.402 648.054C153.708 648.288 154.212 648.774 154.428 649.008C156.48 647.694 158.514 645.678 159.828 643.356H162.258C161.394 645.498 160.026 647.406 158.37 648.648C158.694 648.828 159.216 649.26 159.45 649.476C161.16 648.054 162.672 645.876 163.626 643.356H165.822C165.534 646.452 165.228 647.73 164.832 648.09C164.67 648.27 164.49 648.288 164.184 648.288C163.86 648.288 163.032 648.288 162.168 648.198C162.366 648.522 162.51 649.008 162.528 649.368C163.428 649.422 164.292 649.422 164.742 649.386C165.264 649.368 165.606 649.242 165.948 648.882C166.488 648.324 166.848 646.776 167.19 642.762C167.226 642.564 167.244 642.15 167.244 642.15H156.966ZM173.202 639.576C173.22 638.766 173.256 637.938 173.256 637.11H177.612V635.868H174.48V632.97H173.166V635.868H169.998V637.11H171.942C171.888 641.7 171.69 646.074 169.746 648.486C170.07 648.72 170.538 649.152 170.736 649.44C172.356 647.406 172.914 644.31 173.13 640.8H175.434C175.326 645.768 175.2 647.532 174.894 647.946C174.75 648.144 174.606 648.198 174.336 648.18C174.066 648.18 173.382 648.18 172.644 648.126C172.86 648.45 172.986 648.972 173.004 649.332C173.76 649.368 174.516 649.368 174.948 649.332C175.416 649.278 175.74 649.152 176.01 648.756C176.478 648.144 176.604 646.128 176.73 640.206C176.748 640.008 176.748 639.576 176.748 639.576H173.202ZM178.242 645.516C180.42 646.524 183.048 648.162 184.29 649.368L185.154 648.216C183.858 647.01 181.212 645.444 179.052 644.49L178.242 645.516ZM183.894 642.51C183.228 641.682 181.77 640.566 180.546 639.828L179.682 640.674C180.906 641.448 182.328 642.618 182.976 643.446L183.894 642.51ZM180.888 632.952C180.222 635.382 178.638 638.082 176.838 639.486C177.09 639.81 177.396 640.35 177.54 640.71C179.358 639.216 180.888 636.66 181.626 634.482C182.472 636.75 184.038 639.216 185.838 640.674C186.018 640.278 186.306 639.738 186.54 639.396C184.83 638.154 183.174 635.58 182.238 632.952H180.888ZM195.756 634.824H192.714V632.988H191.436V634.824H188.286V635.958H195.756V634.824ZM189.384 636.264C189.744 637.11 190.014 638.244 190.086 638.982L191.202 638.694C191.13 637.974 190.806 636.858 190.41 636.03L189.384 636.264ZM193.686 635.994C193.524 636.804 193.146 637.974 192.894 638.712L193.92 638.982C194.226 638.28 194.586 637.218 194.892 636.282L193.686 635.994ZM195.81 646.092C195.378 645.678 193.506 644.112 192.75 643.536V643.104H195.81V641.97H192.75V640.134H195.954V638.982H187.926V640.134H191.472V641.97H188.106V643.104H191.13C190.32 644.688 188.988 646.272 187.746 647.118C188.034 647.37 188.358 647.82 188.538 648.144C189.564 647.334 190.644 646.056 191.472 644.724V649.35H192.75V644.814C193.56 645.588 194.568 646.578 194.982 647.082L195.81 646.092ZM197.79 640.8H202.29V642.672H197.79V640.8ZM197.79 637.83H202.29V639.702H197.79V637.83ZM197.79 634.914H202.29V636.768H197.79V634.914ZM202.002 647.964C201.678 647.964 201.624 647.91 201.624 647.496V643.878H203.55V633.726H196.566V643.878H197.736C197.52 646.128 196.926 647.604 194.55 648.432C194.82 648.666 195.162 649.134 195.306 649.422C197.97 648.378 198.726 646.596 198.978 643.878H200.4V647.514C200.4 648.756 200.67 649.152 201.822 649.152H203.118C204.108 649.152 204.45 648.558 204.522 646.092C204.198 646.002 203.676 645.804 203.424 645.606C203.388 647.712 203.334 647.964 202.974 647.964H202.002ZM217.554 639.468V646.848H218.886V639.468H222.216V638.226H213.918V635.49C216.438 635.166 219.264 634.68 221.226 634.014L220.092 633.006C218.616 633.564 216.042 634.05 213.684 634.392L212.622 634.158V638.316C212.622 640.512 212.388 643.356 210.426 645.48C210.75 645.66 211.218 646.11 211.38 646.398C213.252 644.4 213.774 641.7 213.882 639.468H217.554ZM210.39 636.156C209.76 635.292 208.41 634.14 207.258 633.384L206.268 634.194C207.438 634.986 208.77 636.174 209.328 637.038L210.39 636.156ZM209.886 639.99H206.07V641.25H208.572V645.804C207.672 646.56 206.664 647.316 205.836 647.856L206.556 649.206C207.51 648.432 208.41 647.658 209.274 646.902C210.426 648.288 212.028 648.936 214.368 649.026C216.348 649.098 220.038 649.062 222 648.99C222.054 648.576 222.288 647.946 222.432 647.622C220.326 647.766 216.33 647.82 214.368 647.748C212.298 647.658 210.732 647.046 209.886 645.732V639.99Z" fill="black"/>
<path d="M167.712 693.86C168.18 694.562 168.63 695.498 168.756 696.11H165.57L166.164 695.858C165.984 695.3 165.534 694.544 165.03 693.95C165.984 693.896 166.956 693.842 167.928 693.788L167.712 693.86ZM162.87 697.19H167.982L167.46 697.748C168.414 698.162 169.566 698.846 170.124 699.332L170.826 698.522C170.322 698.09 169.368 697.586 168.522 697.19H175.344V699.35H176.64V696.11H173.4C173.922 695.462 174.48 694.688 174.966 693.95L173.706 693.464C173.31 694.238 172.59 695.372 172.05 696.11H168.81L169.926 695.714C169.782 695.156 169.404 694.364 168.954 693.698C171.492 693.518 173.904 693.23 175.74 692.87L174.858 691.934C171.96 692.51 166.578 692.888 162.186 693.014C162.312 693.266 162.438 693.734 162.474 694.04C163.068 694.022 163.68 694.004 164.31 693.968L163.788 694.184C164.238 694.76 164.724 695.534 164.94 696.11H161.628V699.224H162.87V697.19ZM172.482 698.666C173.526 699.494 174.714 700.718 175.254 701.528L176.208 700.79C175.668 699.98 174.444 698.828 173.4 698.036L172.482 698.666ZM162.996 701.744C164.202 701.042 164.868 699.854 165.282 698.684L164.274 698.252C163.878 699.332 163.158 700.394 162.078 700.97L162.996 701.744ZM172.014 703.544C171.276 704.3 170.304 704.93 169.17 705.434C167.982 704.912 166.992 704.282 166.236 703.544H172.014ZM173.148 702.5L172.932 702.554H167.334C167.712 702.212 168.036 701.852 168.342 701.474L168.018 701.366H170.934C172.104 701.366 172.446 701.024 172.572 699.566C172.23 699.494 171.762 699.368 171.51 699.188C171.438 700.25 171.33 700.376 170.772 700.376H168.144C167.388 700.376 167.262 700.304 167.262 699.944V698.234H166.02V699.962C166.02 700.79 166.236 701.168 166.992 701.294C165.678 702.806 163.518 704.084 161.412 704.894C161.664 705.11 162.15 705.542 162.348 705.776C163.32 705.344 164.346 704.786 165.3 704.156C165.984 704.858 166.812 705.47 167.748 705.992C165.786 706.658 163.5 707.072 161.16 707.288C161.412 707.558 161.736 708.098 161.862 708.404C164.436 708.08 166.992 707.558 169.152 706.676C171.258 707.558 173.778 708.116 176.424 708.386C176.604 708.044 176.91 707.486 177.198 707.216C174.804 707.036 172.536 706.622 170.61 705.992C172.014 705.236 173.166 704.264 173.994 703.058L173.148 702.5ZM183.696 699.62C183.138 699.8 182.598 699.98 182.058 700.16V696.794H183.696V695.552H182.058V691.952H180.888V695.552H178.944V696.794H180.888V700.556C180.06 700.826 179.304 701.06 178.674 701.24L179.034 702.536L180.888 701.888V706.892C180.888 707.126 180.798 707.198 180.564 707.198C180.384 707.216 179.7 707.216 178.944 707.198C179.106 707.558 179.268 708.062 179.322 708.386C180.402 708.386 181.068 708.35 181.464 708.152C181.896 707.936 182.058 707.594 182.058 706.892V701.492L183.894 700.844L183.696 699.62ZM189.204 699.62C189.42 699.872 189.654 700.16 189.762 700.322C190.014 699.926 190.248 699.476 190.464 698.972C190.698 700.646 191.094 702.374 191.706 703.958C191.094 705.308 190.284 706.478 189.186 707.396C189.204 707.306 189.204 707.18 189.204 707.054V699.62ZM193.344 696.614C193.128 698.792 192.822 700.754 192.264 702.446C191.67 700.664 191.328 698.738 191.148 696.992C191.184 696.866 191.22 696.74 191.256 696.614H193.344ZM185.316 704.03V702.626H188.088V704.03H185.316ZM188.088 700.232V701.618H185.316V700.232H188.088ZM185.946 695.066H187.512V697.154H185.946V695.066ZM195.27 696.614V695.426H191.526C191.76 694.364 191.94 693.248 192.084 692.15L190.932 691.97C190.698 693.932 190.338 695.876 189.798 697.478V697.154H188.61V695.066H189.654V694.004H188.61V692.168H187.512V694.004H185.946V692.168H184.848V694.004H183.66V695.066H184.848V697.154H183.372V698.234H189.51C189.366 698.576 189.204 698.882 189.042 699.188H184.182V708.296H185.316V705.02H188.088V707.036C188.088 707.198 188.052 707.252 187.89 707.27C187.71 707.27 187.278 707.27 186.738 707.252C186.9 707.54 187.062 707.954 187.116 708.26C187.872 708.26 188.412 708.242 188.754 708.062C188.97 707.954 189.078 707.81 189.15 707.612C189.402 707.846 189.726 708.242 189.852 708.44C190.86 707.558 191.67 706.496 192.3 705.308C192.93 706.514 193.74 707.612 194.784 708.422C194.946 708.116 195.342 707.648 195.594 707.432C194.424 706.586 193.542 705.398 192.912 704.012C193.74 701.96 194.208 699.494 194.514 696.614H195.27ZM201.3 696.848C201.138 699.152 200.796 701.096 200.256 702.698C199.698 702.212 199.122 701.744 198.564 701.33C198.852 699.944 199.158 698.396 199.446 696.848H201.3ZM201.822 695.606L201.588 695.642H199.662C199.896 694.382 200.094 693.158 200.274 692.06L199.05 691.952C198.888 693.068 198.69 694.346 198.456 695.642H196.926V696.848H198.258C197.844 699.08 197.412 701.258 197.034 702.788L198.114 703.418L198.294 702.644C198.78 703.04 199.284 703.49 199.77 703.94C199.068 705.506 198.132 706.622 196.998 707.324C197.286 707.594 197.628 708.062 197.808 708.386C199.032 707.558 200.004 706.424 200.742 704.894C201.39 705.578 201.948 706.226 202.308 706.784L203.154 705.722C202.722 705.092 202.056 704.354 201.264 703.616C201.984 701.6 202.416 699.008 202.578 695.714L201.822 695.606ZM209.328 704.066V705.614H206.628V704.066H209.328ZM210.3 706.514V703.166H205.674V707.27H206.628V706.514H210.3ZM212.766 701.222H203.19V708.386H204.396V702.266H211.56V707.036C211.56 707.216 211.506 707.288 211.308 707.288C211.11 707.288 210.462 707.288 209.724 707.27C209.886 707.576 210.048 708.044 210.102 708.35C211.146 708.35 211.812 708.332 212.244 708.152C212.658 707.972 212.766 707.63 212.766 707.054V701.222ZM209.76 699.44H206.142V697.892H209.76V699.44ZM209.058 695.84C209.292 696.236 209.562 696.614 209.886 696.992H206.286C206.592 696.632 206.844 696.254 207.096 695.84H209.058ZM213.198 695.84V694.832H207.6C207.78 694.418 207.942 693.968 208.068 693.5C209.67 693.374 211.182 693.176 212.352 692.924L211.416 692.042C209.58 692.456 206.07 692.69 203.208 692.762C203.334 693.014 203.478 693.428 203.514 693.698C204.558 693.698 205.674 693.662 206.79 693.59C206.664 694.022 206.502 694.436 206.304 694.832H202.866V695.84H205.71C204.918 696.974 203.82 697.838 202.506 698.432C202.758 698.63 203.154 699.134 203.298 699.368C203.91 699.062 204.468 698.684 204.99 698.27V700.34H210.984V698.108C211.542 698.594 212.136 698.99 212.73 699.296C212.928 698.99 213.288 698.558 213.558 698.36C212.316 697.856 211.074 696.902 210.264 695.84H213.198Z" fill="black"/>
<path d="M167.964 760.978L164.958 761.752V754.48H167.748V753.202H161.016V754.48H163.644V762.076C162.546 762.364 161.556 762.616 160.764 762.796L161.106 764.164C163.014 763.642 165.624 762.886 168.09 762.184L167.964 760.978ZM174.408 755.56C173.958 758.026 173.22 760.042 172.122 761.644C171.06 759.934 170.304 757.846 169.8 755.56H174.408ZM177.324 755.56V754.264H170.268C170.646 753.274 170.952 752.23 171.24 751.186L169.908 750.934C169.188 753.958 167.964 756.91 166.326 758.782C166.65 758.962 167.226 759.376 167.478 759.556C168.018 758.908 168.504 758.116 168.936 757.252C169.512 759.358 170.25 761.212 171.24 762.778C169.872 764.29 168.054 765.406 165.66 766.18C165.894 766.486 166.272 767.098 166.398 767.422C168.774 766.558 170.61 765.406 172.032 763.894C173.22 765.424 174.714 766.594 176.586 767.386C176.802 767.008 177.198 766.486 177.522 766.216C175.632 765.514 174.12 764.344 172.932 762.814C174.3 760.942 175.2 758.584 175.812 755.56H177.324ZM180.852 755.722V755.074H182.58V755.722H180.852ZM180.852 753.85H182.58V754.444H180.852V753.85ZM185.478 753.85V754.444H183.66V753.85H185.478ZM185.478 755.722H183.66V755.074H185.478V755.722ZM182.58 758.854H180.996V757.846H180.006V759.646H186.36V757.846H185.352V758.854H183.66V757.666H187.116V756.892H183.66V756.334H186.45V753.22H183.66V752.626H187.026V751.834H183.66V750.952H182.58V751.834H179.322V752.626H182.58V753.22H179.898V756.334H182.58V756.892H179.088V757.666H182.58V758.854ZM187.782 762.832H194.046V761.932H187.782V760.924C189.564 760.816 191.238 760.618 192.516 760.366L191.598 759.628C189.276 760.096 184.632 760.294 180.906 760.312C180.996 760.528 181.122 760.906 181.14 761.122C182.832 761.122 184.686 761.104 186.486 761.014V761.932H180.384V762.832H186.486V763.804H179.286V764.758H186.486V766.036C186.486 766.288 186.378 766.342 186.09 766.36C185.802 766.378 184.776 766.378 183.714 766.342C183.876 766.648 184.056 767.08 184.146 767.368C185.604 767.386 186.504 767.386 187.062 767.206C187.602 767.044 187.782 766.756 187.782 766.072V764.758H195.054V763.804H187.782V762.832ZM192.678 756.262C192.228 756.892 191.598 757.396 190.842 757.792C190.158 757.36 189.618 756.856 189.24 756.262H192.678ZM193.56 755.308L193.344 755.344H187.818C189.186 754.606 189.51 753.526 189.51 752.572V752.482H191.778V753.274C191.778 754.066 191.85 754.336 192.066 754.552C192.282 754.75 192.678 754.822 192.984 754.822H193.812C194.046 754.822 194.37 754.804 194.55 754.714C194.748 754.642 194.91 754.498 195.018 754.3C195.108 754.12 195.18 753.616 195.198 753.148C194.91 753.076 194.568 752.914 194.352 752.716C194.334 753.13 194.316 753.436 194.28 753.58C194.244 753.724 194.154 753.796 194.1 753.814C194.028 753.85 193.884 753.85 193.74 753.85H193.272C193.146 753.85 193.056 753.85 193.002 753.796C192.93 753.742 192.93 753.58 192.93 753.328V751.492H188.376V752.554C188.376 753.22 188.16 753.94 186.936 754.534C187.17 754.678 187.584 755.092 187.764 755.344H187.422V756.262H188.952L188.196 756.496C188.592 757.162 189.132 757.756 189.78 758.26C188.934 758.566 187.98 758.764 186.99 758.89C187.188 759.124 187.422 759.52 187.512 759.808C188.682 759.61 189.78 759.34 190.752 758.908C191.868 759.556 193.218 760.006 194.694 760.258C194.838 759.97 195.162 759.52 195.414 759.286C194.1 759.124 192.876 758.8 191.85 758.332C192.912 757.666 193.722 756.766 194.208 755.524L193.56 755.308ZM197.736 759.304C198.204 757.99 198.546 755.956 198.636 754.48L197.628 754.336C197.502 755.794 197.178 757.756 196.692 758.944L197.736 759.304ZM199.284 767.368H200.616V750.934H199.284V767.368ZM200.742 754.246C201.246 755.236 201.786 756.532 201.984 757.306L202.992 756.82C202.776 756.064 202.218 754.786 201.678 753.814L200.742 754.246ZM208.644 765.478V760.978H212.316V759.736H208.644V756.01H212.712V754.732H208.644V751.006H207.312V754.732H205.062C205.314 753.85 205.53 752.914 205.71 751.978L204.414 751.762C204 754.21 203.28 756.622 202.236 758.188C202.56 758.332 203.154 758.62 203.424 758.8C203.91 758.026 204.324 757.09 204.684 756.01H207.312V759.736H203.496V760.978H207.312V765.478H202.164V766.756H213.144V765.478H208.644Z" fill="black"/>
<path d="M326.064 406.325H311.337C310.598 406.325 310 405.732 310 405C310 404.268 310.598 403.675 311.337 403.675H326.064C326.802 403.675 327.4 404.268 327.4 405C327.4 405.732 326.802 406.325 326.064 406.325Z" fill="white"/>
<path d="M318.7 414C317.962 414 317.364 413.407 317.364 412.675V397.325C317.364 396.594 317.962 396 318.7 396C319.438 396 320.036 396.593 320.036 397.325V412.675C320.036 413.407 319.438 414 318.7 414Z" fill="white"/>
<path d="M326.064 465.325H311.337C310.598 465.325 310 464.732 310 464C310 463.268 310.598 462.675 311.337 462.675H326.064C326.802 462.675 327.4 463.268 327.4 464C327.4 464.732 326.802 465.325 326.064 465.325Z" fill="white"/>
<path d="M318.7 473C317.962 473 317.364 472.407 317.364 471.675V456.325C317.364 455.594 317.962 455 318.7 455C319.438 455 320.036 455.593 320.036 456.325V471.675C320.036 472.407 319.438 473 318.7 473Z" fill="white"/>
<path d="M326.064 524.325H311.337C310.598 524.325 310 523.732 310 523C310 522.268 310.598 521.675 311.337 521.675H326.064C326.802 521.675 327.4 522.268 327.4 523C327.4 523.732 326.802 524.325 326.064 524.325Z" fill="white"/>
<path d="M318.7 532C317.962 532 317.364 531.407 317.364 530.675V515.325C317.364 514.594 317.962 514 318.7 514C319.438 514 320.036 514.593 320.036 515.325V530.675C320.036 531.407 319.438 532 318.7 532Z" fill="white"/>
<path d="M326.064 583.325H311.337C310.598 583.325 310 582.732 310 582C310 581.268 310.598 580.675 311.337 580.675H326.064C326.802 580.675 327.4 581.268 327.4 582C327.4 582.732 326.802 583.325 326.064 583.325Z" fill="white"/>
<path d="M318.7 591C317.962 591 317.364 590.407 317.364 589.675V574.325C317.364 573.594 317.962 573 318.7 573C319.438 573 320.036 573.593 320.036 574.325V589.675C320.036 590.407 319.438 591 318.7 591Z" fill="white"/>
<path d="M326.064 642.325H311.337C310.598 642.325 310 641.732 310 641C310 640.268 310.598 639.675 311.337 639.675H326.064C326.802 639.675 327.4 640.268 327.4 641C327.4 641.732 326.802 642.325 326.064 642.325Z" fill="white"/>
<path d="M318.7 650C317.962 650 317.364 649.407 317.364 648.675V633.325C317.364 632.594 317.962 632 318.7 632C319.438 632 320.036 632.593 320.036 633.325V648.675C320.036 649.407 319.438 650 318.7 650Z" fill="white"/>
<path d="M326.064 701.325H311.337C310.598 701.325 310 700.732 310 700C310 699.268 310.598 698.675 311.337 698.675H326.064C326.802 698.675 327.4 699.268 327.4 700C327.4 700.732 326.802 701.325 326.064 701.325Z" fill="white"/>
<path d="M318.7 709C317.962 709 317.364 708.407 317.364 707.675V692.325C317.364 691.594 317.962 691 318.7 691C319.438 691 320.036 691.593 320.036 692.325V707.675C320.036 708.407 319.438 709 318.7 709Z" fill="white"/>
<path d="M326.064 760.325H311.337C310.598 760.325 310 759.732 310 759C310 758.268 310.598 757.675 311.337 757.675H326.064C326.802 757.675 327.4 758.268 327.4 759C327.4 759.732 326.802 760.325 326.064 760.325Z" fill="white"/>
<path d="M318.7 768C317.962 768 317.364 767.407 317.364 766.675V751.325C317.364 750.594 317.962 750 318.7 750C319.438 750 320.036 750.593 320.036 751.325V766.675C320.036 767.407 319.438 768 318.7 768Z" fill="white"/>
</g>
<g clip-path="url(#clip1_483_790)">
<path d="M38 86.0007C50.1506 86.0007 60.0007 76.1506 60.0007 64C60.0007 51.8493 50.1506 41.9993 38 41.9993C25.8493 41.9993 15.9993 51.8493 15.9993 64C15.9993 76.1506 25.8493 86.0007 38 86.0007Z" fill="#FEA735"/>
<path d="M46.657 62.4124L32.8639 62.2907L37.8623 56.5786C38.4398 55.9186 38.3728 54.9159 37.7127 54.3384C37.053 53.7613 36.0496 53.8279 35.4725 54.4877L28.3457 62.6325C28 62.9208 27.7739 63.348 27.7693 63.8331C27.7693 63.8405 27.7714 63.8479 27.7714 63.8553C27.764 64.2321 27.8882 64.6117 28.1485 64.9172L35.4594 73.496C35.7734 73.8643 36.2193 74.0538 36.6684 74.0538C37.0325 74.0538 37.3983 73.9292 37.6975 73.6745C38.365 73.1058 38.4447 72.1035 37.876 71.4364L32.7867 65.4654L46.6288 65.5875C46.6337 65.5875 46.6383 65.5875 46.6432 65.5875C47.5135 65.5875 48.2227 64.8858 48.2304 64.014C48.2382 63.1374 47.534 62.4201 46.657 62.4124Z" fill="black"/>
</g>
<g clip-path="url(#clip2_483_790)">
<path d="M337 86.0007C349.151 86.0007 359.001 76.1506 359.001 64C359.001 51.8493 349.151 41.9993 337 41.9993C324.849 41.9993 314.999 51.8493 314.999 64C314.999 76.1506 324.849 86.0007 337 86.0007Z" fill="#FEA735"/>
</g>
<path d="M328 65.8261L333.043 71.5" stroke="black" stroke-width="3" stroke-linecap="round"/>
<path d="M333.043 71.5L346.913 57" stroke="black" stroke-width="3" stroke-linecap="round"/>
<rect x="17.5" y="205.5" width="340" height="40" rx="20" fill="#FCF5EF" stroke="#FEA735" stroke-width="3"/>
<path d="M42.4476 227.458V228.256H52.1496V227.458H42.4476ZM42.9656 225.68V226.478H53.2416V225.68H42.9656ZM43.0216 222.166V222.894H50.7216V222.166H43.0216ZM51.8416 227.458V227.598C51.6876 229.992 51.4916 230.902 51.2396 231.168C51.1276 231.28 51.0156 231.294 50.7636 231.294C50.5396 231.294 49.9096 231.294 49.2516 231.238C49.3916 231.476 49.5036 231.854 49.5176 232.106C50.2036 232.148 50.8616 232.148 51.2116 232.12C51.5896 232.092 51.8416 232.008 52.0796 231.77C52.4296 231.392 52.6256 230.398 52.8216 227.864C52.8356 227.724 52.8496 227.458 52.8496 227.458H51.8416ZM46.3116 219.17C46.1996 219.604 45.9336 220.248 45.7236 220.696L46.6336 220.892C46.8996 220.5 47.2496 219.926 47.5296 219.338L46.3116 219.17ZM43.0636 220.374V221.158H50.2316V223.972H43.0636V224.742H51.2676V220.374H43.0636ZM42.4476 220.374V227.808H43.4836V220.374H42.4476ZM46.2416 229.096C46.5636 229.81 46.8576 230.748 46.9276 231.35L47.7956 231.098C47.7116 230.524 47.4036 229.6 47.0536 228.886L46.2416 229.096ZM48.4536 228.886C48.8736 229.446 49.2936 230.216 49.4756 230.72L50.2596 230.384C50.0776 229.894 49.6296 229.138 49.2096 228.592L48.4536 228.886ZM43.9596 229.152C44.1836 229.95 44.3096 231 44.2816 231.658L45.2056 231.518C45.2196 230.846 45.0796 229.81 44.8416 229.012L43.9596 229.152ZM42.0556 228.746C41.7896 229.754 41.2856 230.874 40.5436 231.532L41.3976 232.05C42.1676 231.322 42.6436 230.118 42.9236 229.054L42.0556 228.746ZM56.4476 227.458V228.256H66.1496V227.458H56.4476ZM56.9656 225.68V226.478H67.2416V225.68H56.9656ZM57.0216 222.166V222.894H64.7216V222.166H57.0216ZM65.8416 227.458V227.598C65.6876 229.992 65.4916 230.902 65.2396 231.168C65.1276 231.28 65.0156 231.294 64.7636 231.294C64.5396 231.294 63.9096 231.294 63.2516 231.238C63.3916 231.476 63.5036 231.854 63.5176 232.106C64.2036 232.148 64.8616 232.148 65.2116 232.12C65.5896 232.092 65.8416 232.008 66.0796 231.77C66.4296 231.392 66.6256 230.398 66.8216 227.864C66.8356 227.724 66.8496 227.458 66.8496 227.458H65.8416ZM60.3116 219.17C60.1996 219.604 59.9336 220.248 59.7236 220.696L60.6336 220.892C60.8996 220.5 61.2496 219.926 61.5296 219.338L60.3116 219.17ZM57.0636 220.374V221.158H64.2316V223.972H57.0636V224.742H65.2676V220.374H57.0636ZM56.4476 220.374V227.808H57.4836V220.374H56.4476ZM60.2416 229.096C60.5636 229.81 60.8576 230.748 60.9276 231.35L61.7956 231.098C61.7116 230.524 61.4036 229.6 61.0536 228.886L60.2416 229.096ZM62.4536 228.886C62.8736 229.446 63.2936 230.216 63.4756 230.72L64.2596 230.384C64.0776 229.894 63.6296 229.138 63.2096 228.592L62.4536 228.886ZM57.9596 229.152C58.1836 229.95 58.3096 231 58.2816 231.658L59.2056 231.518C59.2196 230.846 59.0796 229.81 58.8416 229.012L57.9596 229.152ZM56.0556 228.746C55.7896 229.754 55.2856 230.874 54.5436 231.532L55.3976 232.05C56.1676 231.322 56.6436 230.118 56.9236 229.054L56.0556 228.746Z" fill="black"/>
<path opacity="0.35" d="M338.979 16.5026H355.469C356.666 16.5026 357.636 17.4727 357.636 18.6693V24.6693C357.636 25.8659 356.666 26.836 355.469 26.836H338.979C337.782 26.836 336.812 25.8659 336.812 24.6693V18.6693C336.812 17.4727 337.782 16.5026 338.979 16.5026Z" stroke="black"/>
<path opacity="0.4" d="M359.128 19.6693V23.6693C359.926 23.3305 360.445 22.5424 360.445 21.6693C360.445 20.7962 359.926 20.0081 359.128 19.6693" fill="black"/>
<path d="M338.296 19.336C338.296 18.5996 338.893 18.0026 339.629 18.0026H354.819C355.555 18.0026 356.152 18.5996 356.152 19.336V24.0026C356.152 24.739 355.555 25.336 354.819 25.336H339.629C338.893 25.336 338.296 24.739 338.296 24.0026V19.336Z" fill="black"/>
<path fill-rule="evenodd" clip-rule="evenodd" d="M323.744 18.2773C325.942 18.2774 328.056 19.1289 329.649 20.6557C329.769 20.7735 329.961 20.772 330.079 20.6523L331.226 19.4857C331.286 19.4249 331.319 19.3427 331.318 19.2571C331.318 19.1715 331.284 19.0897 331.223 19.0297C327.042 14.9901 320.445 14.9901 316.264 19.0297C316.203 19.0896 316.169 19.1715 316.168 19.257C316.168 19.3426 316.201 19.4249 316.261 19.4857L317.408 20.6523C317.526 20.7722 317.718 20.7737 317.838 20.6557C319.431 19.1288 321.545 18.2773 323.744 18.2773ZM323.744 22.073C324.951 22.0729 326.116 22.5255 327.011 23.3427C327.132 23.4587 327.323 23.4562 327.441 23.337L328.587 22.1704C328.647 22.1092 328.68 22.0261 328.68 21.9399C328.679 21.8536 328.644 21.7713 328.582 21.7114C325.856 19.155 321.634 19.155 318.908 21.7114C318.846 21.7713 318.811 21.8537 318.81 21.9399C318.809 22.0262 318.843 22.1092 318.903 22.1704L320.049 23.337C320.167 23.4562 320.357 23.4587 320.478 23.3427C321.373 22.526 322.537 22.0735 323.744 22.073ZM326.038 24.6268C326.04 24.7133 326.006 24.7967 325.945 24.8573L323.964 26.873C323.906 26.9323 323.826 26.9656 323.744 26.9656C323.661 26.9656 323.582 26.9323 323.524 26.873L321.542 24.8573C321.481 24.7967 321.447 24.7133 321.449 24.6268C321.451 24.5403 321.488 24.4583 321.552 24.4003C322.817 23.3215 324.67 23.3215 325.936 24.4003C325.999 24.4584 326.037 24.5403 326.038 24.6268Z" fill="black"/>
<path fill-rule="evenodd" clip-rule="evenodd" d="M312.189 16.336H311.197C310.65 16.336 310.205 16.7837 310.205 17.336V26.0027C310.205 26.555 310.65 27.0027 311.197 27.0027H312.189C312.737 27.0027 313.181 26.555 313.181 26.0027V17.336C313.181 16.7837 312.737 16.336 312.189 16.336ZM306.568 18.6693H307.56C308.108 18.6693 308.552 19.117 308.552 19.6693V26.0026C308.552 26.5549 308.108 27.0026 307.56 27.0026H306.568C306.02 27.0026 305.576 26.5549 305.576 26.0026V19.6693C305.576 19.117 306.02 18.6693 306.568 18.6693ZM302.931 21.0027H301.939C301.391 21.0027 300.947 21.4504 300.947 22.0027V26.0027C300.947 26.555 301.391 27.0027 301.939 27.0027H302.931C303.479 27.0027 303.923 26.555 303.923 26.0027V22.0027C303.923 21.4504 303.479 21.0027 302.931 21.0027ZM298.301 23.0027H297.309C296.762 23.0027 296.317 23.4504 296.317 24.0027V26.0027C296.317 26.5549 296.762 27.0027 297.309 27.0027H298.301C298.849 27.0027 299.293 26.5549 299.293 26.0027V24.0027C299.293 23.4504 298.849 23.0027 298.301 23.0027Z" fill="black"/>
<path d="M38.4455 22.8765C37.9133 23.355 37.3176 23.5942 36.6584 23.5942C35.6916 23.5942 34.925 23.2671 34.3586 22.6128C33.7922 21.9585 33.509 21.0845 33.509 19.9907C33.509 19.3071 33.6677 18.6724 33.9851 18.0864C34.3025 17.5005 34.7468 17.0366 35.3181 16.6948C35.8943 16.353 36.529 16.1821 37.2224 16.1821C37.9255 16.1821 38.5603 16.3604 39.1267 16.7168C39.698 17.0684 40.1423 17.5688 40.4597 18.2183C40.7771 18.8628 40.9406 19.6074 40.9504 20.4521V21.397C40.9504 22.5737 40.7185 23.5942 40.2546 24.4585C39.7956 25.3228 39.1389 25.9868 38.2844 26.4507C37.4299 26.9146 36.4338 27.1465 35.2961 27.1465H35.1423V25.1689L35.6111 25.1616C37.3103 25.0786 38.2551 24.3169 38.4455 22.8765ZM37.3249 21.8145C37.862 21.8145 38.2478 21.5825 38.4821 21.1187V20.0933C38.4821 19.4097 38.3674 18.9043 38.1379 18.5771C37.9084 18.25 37.5984 18.0864 37.2077 18.0864C36.8611 18.0864 36.5705 18.272 36.3361 18.6431C36.1018 19.0142 35.9846 19.4634 35.9846 19.9907C35.9846 20.5474 36.1042 20.9917 36.3435 21.3237C36.5827 21.6509 36.9099 21.8145 37.3249 21.8145ZM43.5435 24.605C43.9341 24.605 44.2588 24.7222 44.5176 24.9565C44.7764 25.186 44.9058 25.4814 44.9058 25.8428C44.9058 26.2041 44.7764 26.502 44.5176 26.7363C44.2588 26.9658 43.9341 27.0806 43.5435 27.0806C43.148 27.0806 42.8208 26.9634 42.562 26.729C42.3081 26.4946 42.1812 26.1992 42.1812 25.8428C42.1812 25.4863 42.3081 25.1909 42.562 24.9565C42.8208 24.7222 43.148 24.605 43.5435 24.605ZM43.5435 18.7603C43.9341 18.7603 44.2588 18.8774 44.5176 19.1118C44.7764 19.3413 44.9058 19.6367 44.9058 19.998C44.9058 20.3594 44.7764 20.6572 44.5176 20.8916C44.2588 21.1211 43.9341 21.2358 43.5435 21.2358C43.148 21.2358 42.8208 21.1187 42.562 20.8843C42.3081 20.6499 42.1812 20.3545 42.1812 19.998C42.1812 19.6416 42.3081 19.3462 42.562 19.1118C42.8208 18.8774 43.148 18.7603 43.5435 18.7603ZM51.6517 27H49.1761V19.1191L46.7444 19.8296V17.9546L51.4246 16.3359H51.6517V27ZM61.0856 22.8325H62.1695V24.7368H61.0856V27H58.6173V24.7368H54.4938L54.3473 23.228L58.6173 16.3579V16.3359H61.0856V22.8325ZM56.6984 22.8325H58.6173V19.5513L58.4635 19.8003L56.6984 22.8325Z" fill="black"/>
<defs>
<clipPath id="clip0_483_790">
<rect x="16" y="364" width="343" height="405" rx="25" fill="white"/>
</clipPath>
<clipPath id="clip1_483_790">
<rect width="44" height="44" fill="white" transform="translate(16 42)"/>
</clipPath>
<clipPath id="clip2_483_790">
<rect width="44" height="44" fill="white" transform="translate(315 42)"/>
</clipPath>
</defs>
</svg>
