<svg width="44" height="44" viewBox="0 0 44 44" fill="none" xmlns="http://www.w3.org/2000/svg">
<g clip-path="url(#clip0_395_13)">
<path d="M22 44.0007C34.1506 44.0007 44.0007 34.1506 44.0007 22C44.0007 9.84932 34.1506 -0.000732422 22 -0.000732422C9.84932 -0.000732422 -0.000732422 9.84932 -0.000732422 22C-0.000732422 34.1506 9.84932 44.0007 22 44.0007Z" fill="#FEA735"/>
<path d="M30.6571 20.4124L16.864 20.2907L21.8624 14.5786C22.4399 13.9186 22.3728 12.9159 21.7128 12.3384C21.0531 11.7613 20.0497 11.8279 19.4726 12.4877L12.3458 20.6325C12.0001 20.9208 11.774 21.348 11.7694 21.8331C11.7694 21.8405 11.7715 21.8479 11.7715 21.8553C11.7641 22.2321 11.8883 22.6117 12.1486 22.9172L19.4595 31.496C19.7735 31.8643 20.2194 32.0538 20.6685 32.0538C21.0326 32.0538 21.3984 31.9292 21.6976 31.6745C22.3651 31.1058 22.4448 30.1035 21.8761 29.4364L16.7868 23.4654L30.6288 23.5875C30.6338 23.5875 30.6384 23.5875 30.6433 23.5875C31.5136 23.5875 32.2227 22.8858 32.2305 22.014C32.2383 21.1374 31.5341 20.4201 30.6571 20.4124Z" fill="black"/>
</g>
<defs>
<clipPath id="clip0_395_13">
<rect width="44" height="44" fill="white"/>
</clipPath>
</defs>
</svg>
