<svg width="230" height="366" viewBox="0 0 230 366" fill="none" xmlns="http://www.w3.org/2000/svg">
<path d="M177.344 87.1689C177.344 87.1689 191.879 64.6898 221.922 72.7603C221.922 72.7603 265.105 86.9576 257.33 116.789C257.33 116.789 249.598 136.775 228.598 127.099C228.555 127.141 203.499 99.3802 177.344 87.1689Z" fill="#6A4B2E" stroke="black" stroke-width="2" stroke-miterlimit="10"/>
<path d="M87.1689 177.344C87.1689 177.344 64.6898 191.879 72.7603 221.922C72.7603 221.922 86.9576 265.105 116.789 257.33C116.789 257.33 136.775 249.598 127.099 228.598C127.141 228.555 99.3803 203.499 87.1689 177.344Z" fill="#6A4B2E" stroke="black" stroke-width="2" stroke-miterlimit="10"/>
<path d="M231.5 340.5L105.496 213.131C105.496 213.131 58.0453 165.68 111.285 111.003C111.285 111.003 163.257 60.4677 211.596 105.257L335.484 227.708L231.5 340.5Z" fill="#906526" stroke="black" stroke-width="2" stroke-miterlimit="10"/>
<path d="M139.172 193.399C143.746 188.825 143.746 181.409 139.172 176.835C134.598 172.261 127.183 172.261 122.609 176.835C118.035 181.409 118.035 188.825 122.609 193.399C127.183 197.973 134.598 197.973 139.172 193.399Z" fill="black" stroke="black" stroke-miterlimit="10"/>
<path d="M193.469 139.102C198.043 134.528 198.043 127.112 193.469 122.538C188.895 117.965 181.479 117.965 176.905 122.538C172.331 127.112 172.331 134.528 176.905 139.102C181.479 143.676 188.895 143.676 193.469 139.102Z" fill="black" stroke="black" stroke-miterlimit="10"/>
<path d="M164.061 174.003L174.117 163.947C180.328 157.736 189.117 159.764 188.737 167.243L188.272 176.834C188.018 182.412 182.568 187.863 176.99 188.116L167.399 188.581C159.835 188.961 157.849 180.215 164.061 174.003Z" fill="black" stroke="black" stroke-miterlimit="10"/>
<path d="M182.127 218.127L184.789 185.211L219.986 183.986" stroke="black" stroke-width="2" stroke-miterlimit="10" stroke-linecap="round"/>
<path d="M140.779 91.7354C143.145 90.7213 144.666 88.3551 144.412 85.8199C143.694 78.848 142.173 69.4676 128.102 74.2423C125.44 75.1296 122.483 74.1155 120.919 71.7916C118.384 67.9887 112.933 64.7352 102.159 75.7634C100.299 77.7071 97.3839 78.1719 95.0177 76.9043C89.736 74.0733 81.0317 71.6226 81.6655 86.7917C81.7922 89.1157 80.5669 91.3551 78.4542 92.3692C73.1302 94.9889 64.4682 100.778 71.3133 108.045C73.2147 110.031 73.2992 113.158 71.6936 115.44C68.6513 119.834 65.4823 126.215 71.3133 128.412C73.3837 129.215 74.8204 131.158 74.9894 133.355C75.4119 139.186 77.3133 148.018 90.074 142.947C90.1163 142.989 102.201 108.088 140.779 91.7354Z" fill="#6A4B2E" stroke="black" stroke-width="2" stroke-miterlimit="10"/>
</svg>
