<svg width="84" height="43" viewBox="0 0 84 43" fill="none" xmlns="http://www.w3.org/2000/svg">
<path d="M34.7458 6.7C36.5959 6.7 38.0958 5.20016 38.0958 3.35C38.0958 1.49985 36.5959 0 34.7458 0C32.8956 0 31.3958 1.49985 31.3958 3.35C31.3958 5.20016 32.8956 6.7 34.7458 6.7Z" fill="#DFA043"/>
<path d="M42.2658 8.85003C44.1159 8.85003 45.6158 7.35018 45.6158 5.50002C45.6158 3.64987 44.1159 2.15002 42.2658 2.15002C40.4156 2.15002 38.9158 3.64987 38.9158 5.50002C38.9158 7.35018 40.4156 8.85003 42.2658 8.85003Z" fill="#DFA043"/>
<path d="M20.2858 10.04C22.1359 10.04 23.6358 8.54012 23.6358 6.68996C23.6358 4.83981 22.1359 3.33997 20.2858 3.33997C18.4356 3.33997 16.9358 4.83981 16.9358 6.68996C16.9358 8.54012 18.4356 10.04 20.2858 10.04Z" fill="#DFA043"/>
<path d="M15.7858 14.24C17.6359 14.24 19.1358 12.7402 19.1358 10.89C19.1358 9.03988 17.6359 7.54004 15.7858 7.54004C13.9356 7.54004 12.4358 9.03988 12.4358 10.89C12.4358 12.7402 13.9356 14.24 15.7858 14.24Z" fill="#F3A83A"/>
<path d="M26.9757 15.54C28.8259 15.54 30.3257 14.0401 30.3257 12.19C30.3257 10.3398 28.8259 8.83997 26.9757 8.83997C25.1256 8.83997 23.6257 10.3398 23.6257 12.19C23.6257 14.0401 25.1256 15.54 26.9757 15.54Z" fill="#F3A83A"/>
<path d="M42.2658 13.3899C44.1159 13.3899 45.6158 11.8901 45.6158 10.0399C45.6158 8.18979 44.1159 6.68994 42.2658 6.68994C40.4156 6.68994 38.9158 8.18979 38.9158 10.0399C38.9158 11.8901 40.4156 13.3899 42.2658 13.3899Z" fill="#F3A83A"/>
<path d="M38.0958 8.85003C39.946 8.85003 41.4458 7.35018 41.4458 5.50002C41.4458 3.64987 39.946 2.15002 38.0958 2.15002C36.2457 2.15002 34.7458 3.64987 34.7458 5.50002C34.7458 7.35018 36.2457 8.85003 38.0958 8.85003Z" fill="#F3A83A"/>
<path d="M58.6557 9.53997C60.5058 9.53997 62.0057 8.04012 62.0057 6.18996C62.0057 4.33981 60.5058 2.83997 58.6557 2.83997C56.8055 2.83997 55.3057 4.33981 55.3057 6.18996C55.3057 8.04012 56.8055 9.53997 58.6557 9.53997Z" fill="#F3A83A"/>
<path d="M67.5058 10.8899C69.3559 10.8899 70.8558 9.3901 70.8558 7.53994C70.8558 5.68979 69.3559 4.18994 67.5058 4.18994C65.6556 4.18994 64.1558 5.68979 64.1558 7.53994C64.1558 9.3901 65.6556 10.8899 67.5058 10.8899Z" fill="#F3A83A"/>
<path d="M61.9958 8.23003C63.8459 8.23003 65.3457 6.73019 65.3457 4.88003C65.3457 3.02988 63.8459 1.53003 61.9958 1.53003C60.1456 1.53003 58.6458 3.02988 58.6458 4.88003C58.6458 6.73019 60.1456 8.23003 61.9958 8.23003Z" fill="#F3A83A"/>
<path d="M46.5758 7.53997C48.426 7.53997 49.9258 6.04012 49.9258 4.18996C49.9258 2.33981 48.426 0.839966 46.5758 0.839966C44.7257 0.839966 43.2258 2.33981 43.2258 4.18996C43.2258 6.04012 44.7257 7.53997 46.5758 7.53997Z" fill="#F3A83A"/>
<path d="M32.1857 14.24C34.0358 14.24 35.5357 12.7402 35.5357 10.89C35.5357 9.03988 34.0358 7.54004 32.1857 7.54004C30.3355 7.54004 28.8357 9.03988 28.8357 10.89C28.8357 12.7402 30.3355 14.24 32.1857 14.24Z" fill="#F3A83A"/>
<path d="M70.2257 15.54C72.0759 15.54 73.5757 14.0401 73.5757 12.19C73.5757 10.3398 72.0759 8.83997 70.2257 8.83997C68.3756 8.83997 66.8757 10.3398 66.8757 12.19C66.8757 14.0401 68.3756 15.54 70.2257 15.54Z" fill="#F3A83A"/>
<path d="M51.8759 14.17C53.726 14.17 55.2259 12.6701 55.2259 10.82C55.2259 8.96982 53.726 7.46997 51.8759 7.46997C50.0257 7.46997 48.5259 8.96982 48.5259 10.82C48.5259 12.6701 50.0257 14.17 51.8759 14.17Z" fill="#F3A83A"/>
<path d="M46.4457 16.23C48.2959 16.23 49.7957 14.7302 49.7957 12.88C49.7957 11.0299 48.2959 9.53003 46.4457 9.53003C44.5955 9.53003 43.0957 11.0299 43.0957 12.88C43.0957 14.7302 44.5955 16.23 46.4457 16.23Z" fill="#F3A83A"/>
<path d="M31.4057 8.85003C33.2558 8.85003 34.7557 7.35018 34.7557 5.50002C34.7557 3.64987 33.2558 2.15002 31.4057 2.15002C29.5555 2.15002 28.0557 3.64987 28.0557 5.50002C28.0557 7.35018 29.5555 8.85003 31.4057 8.85003Z" fill="#F3A83A"/>
<path d="M56.7057 17.93C58.5559 17.93 60.0557 16.4301 60.0557 14.58C60.0557 12.7298 58.5559 11.23 56.7057 11.23C54.8556 11.23 53.3557 12.7298 53.3557 14.58C53.3557 16.4301 54.8556 17.93 56.7057 17.93Z" fill="#F3A83A"/>
<path d="M36.9657 15.54C38.8159 15.54 40.3157 14.0401 40.3157 12.19C40.3157 10.3398 38.8159 8.83997 36.9657 8.83997C35.1156 8.83997 33.6157 10.3398 33.6157 12.19C33.6157 14.0401 35.1156 15.54 36.9657 15.54Z" fill="#F3A83A"/>
<path d="M21.4657 12.19C23.3159 12.19 24.8157 10.6901 24.8157 8.83999C24.8157 6.98983 23.3159 5.48999 21.4657 5.48999C19.6156 5.48999 18.1157 6.98983 18.1157 8.83999C18.1157 10.6901 19.6156 12.19 21.4657 12.19Z" fill="#F3A83A"/>
<path d="M25.4958 8.85003C27.3459 8.85003 28.8458 7.35018 28.8458 5.50002C28.8458 3.64987 27.3459 2.15002 25.4958 2.15002C23.6456 2.15002 22.1458 3.64987 22.1458 5.50002C22.1458 7.35018 23.6456 8.85003 25.4958 8.85003Z" fill="#F3A83A"/>
<path d="M48.0958 10.04C49.946 10.04 51.4459 8.54012 51.4459 6.68996C51.4459 4.83981 49.946 3.33997 48.0958 3.33997C46.2457 3.33997 44.7458 4.83981 44.7458 6.68996C44.7458 8.54012 46.2457 10.04 48.0958 10.04Z" fill="#F3A83A"/>
<path d="M15.7858 16.73C17.6359 16.73 19.1358 15.2302 19.1358 13.38C19.1358 11.5299 17.6359 10.03 15.7858 10.03C13.9356 10.03 12.4358 11.5299 12.4358 13.38C12.4358 15.2302 13.9356 16.73 15.7858 16.73Z" fill="#DFA043"/>
<path d="M27.2357 10.83C29.0859 10.83 30.5857 9.33016 30.5857 7.48C30.5857 5.62985 29.0859 4.13 27.2357 4.13C25.3856 4.13 23.8857 5.62985 23.8857 7.48C23.8857 9.33016 25.3856 10.83 27.2357 10.83Z" fill="#DFA043"/>
<path d="M35.5358 10.83C37.3859 10.83 38.8858 9.33016 38.8858 7.48C38.8858 5.62985 37.3859 4.13 35.5358 4.13C33.6856 4.13 32.1858 5.62985 32.1858 7.48C32.1858 9.33016 33.6856 10.83 35.5358 10.83Z" fill="#DFA043"/>
<path d="M61.8559 18.24C63.706 18.24 65.2059 16.7402 65.2059 14.89C65.2059 13.0399 63.706 11.54 61.8559 11.54C60.0057 11.54 58.5059 13.0399 58.5059 14.89C58.5059 16.7402 60.0057 18.24 61.8559 18.24Z" fill="#DFA043"/>
<path d="M64.8258 12.19C66.676 12.19 68.1758 10.6901 68.1758 8.83999C68.1758 6.98983 66.676 5.48999 64.8258 5.48999C62.9757 5.48999 61.4758 6.98983 61.4758 8.83999C61.4758 10.6901 62.9757 12.19 64.8258 12.19Z" fill="#DFA043"/>
<path d="M51.4457 18.8801C53.2959 18.8801 54.7957 17.3802 54.7957 15.5301C54.7957 13.6799 53.2959 12.1801 51.4457 12.1801C49.5956 12.1801 48.0957 13.6799 48.0957 15.5301C48.0957 17.3802 49.5956 18.8801 51.4457 18.8801Z" fill="#DFA043"/>
<path d="M33.6159 18.24C35.466 18.24 36.9659 16.7402 36.9659 14.89C36.9659 13.0399 35.466 11.54 33.6159 11.54C31.7657 11.54 30.2659 13.0399 30.2659 14.89C30.2659 16.7402 31.7657 18.24 33.6159 18.24Z" fill="#DFA043"/>
<path d="M41.8957 17.5199C43.7458 17.5199 45.2457 16.0201 45.2457 14.1699C45.2457 12.3198 43.7458 10.8199 41.8957 10.8199C40.0455 10.8199 38.5457 12.3198 38.5457 14.1699C38.5457 16.0201 40.0455 17.5199 41.8957 17.5199Z" fill="#DFA043"/>
<path d="M65.8659 16.73C67.716 16.73 69.2159 15.2302 69.2159 13.38C69.2159 11.5299 67.716 10.03 65.8659 10.03C64.0157 10.03 62.5159 11.5299 62.5159 13.38C62.5159 15.2302 64.0157 16.73 65.8659 16.73Z" fill="#DFA043"/>
<path d="M50.9257 9.53997C52.7758 9.53997 54.2757 8.04012 54.2757 6.18996C54.2757 4.33981 52.7758 2.83997 50.9257 2.83997C49.0755 2.83997 47.5757 4.33981 47.5757 6.18996C47.5757 8.04012 49.0755 9.53997 50.9257 9.53997Z" fill="#DFA043"/>
<path d="M56.7057 12.8801C58.5559 12.8801 60.0557 11.3802 60.0557 9.53005C60.0557 7.6799 58.5559 6.18005 56.7057 6.18005C54.8556 6.18005 53.3557 7.6799 53.3557 9.53005C53.3557 11.3802 54.8556 12.8801 56.7057 12.8801Z" fill="#DFA043"/>
<path d="M46.4457 12.19C48.2959 12.19 49.7957 10.6901 49.7957 8.83999C49.7957 6.98983 48.2959 5.48999 46.4457 5.48999C44.5955 5.48999 43.0957 6.98983 43.0957 8.83999C43.0957 10.6901 44.5955 12.19 46.4457 12.19Z" fill="#DFA043"/>
<path d="M38.0958 13.3899C39.946 13.3899 41.4458 11.8901 41.4458 10.0399C41.4458 8.18979 39.946 6.68994 38.0958 6.68994C36.2457 6.68994 34.7458 8.18979 34.7458 10.0399C34.7458 11.8901 36.2457 13.3899 38.0958 13.3899Z" fill="#DFA043"/>
<path d="M55.3058 7.53997C57.156 7.53997 58.6558 6.04012 58.6558 4.18996C58.6558 2.33981 57.156 0.839966 55.3058 0.839966C53.4557 0.839966 51.9558 2.33981 51.9558 4.18996C51.9558 6.04012 53.4557 7.53997 55.3058 7.53997Z" fill="#DFA043"/>
<path d="M21.6557 15.94C23.5058 15.94 25.0057 14.4401 25.0057 12.59C25.0057 10.7398 23.5058 9.23999 21.6557 9.23999C19.8055 9.23999 18.3057 10.7398 18.3057 12.59C18.3057 14.4401 19.8055 15.94 21.6557 15.94Z" fill="#DFA043"/>
<path d="M30.4958 18.8801C32.3459 18.8801 33.8458 17.3802 33.8458 15.5301C33.8458 13.6799 32.3459 12.1801 30.4958 12.1801C28.6456 12.1801 27.1458 13.6799 27.1458 15.5301C27.1458 17.3802 28.6456 18.8801 30.4958 18.8801Z" fill="#F3A83A"/>
<path d="M26.9757 17.5199C28.8259 17.5199 30.3257 16.0201 30.3257 14.1699C30.3257 12.3198 28.8259 10.8199 26.9757 10.8199C25.1256 10.8199 23.6257 12.3198 23.6257 14.1699C23.6257 16.0201 25.1256 17.5199 26.9757 17.5199Z" fill="#F3A83A"/>
<path d="M17.4257 18.24C19.2758 18.24 20.7757 16.7402 20.7757 14.89C20.7757 13.0399 19.2758 11.54 17.4257 11.54C15.5755 11.54 14.0757 13.0399 14.0757 14.89C14.0757 16.7402 15.5755 18.24 17.4257 18.24Z" fill="#F3A83A"/>
<path d="M47.5458 18.8801C49.396 18.8801 50.8958 17.3802 50.8958 15.5301C50.8958 13.6799 49.396 12.1801 47.5458 12.1801C45.6956 12.1801 44.1958 13.6799 44.1958 15.5301C44.1958 17.3802 45.6956 18.8801 47.5458 18.8801Z" fill="#F3A83A"/>
<path d="M41.0802 19.3932C42.4928 18.1984 42.5624 15.9582 41.2356 14.3896C39.9088 12.821 37.6881 12.518 36.2755 13.7128C34.8629 14.9076 34.7934 17.1478 36.1201 18.7164C37.4469 20.285 39.6677 20.5881 41.0802 19.3932Z" fill="#F3A83A"/>
<path d="M12.4458 12.1899L1.21575 34.3799C0.765754 35.2799 1.03576 36.3899 1.87576 36.9399C4.69576 38.7799 13.6358 41.8799 41.8958 41.8799C41.8958 41.8799 72.6257 42.2799 81.7757 36.7099C82.6357 36.1799 82.9358 35.0799 82.5058 34.1599L72.0957 12.1899C72.0957 12.1899 74.2958 16.0099 41.8958 16.8399C41.8958 16.8399 17.1458 16.0499 12.4458 12.1899Z" fill="#E94925" stroke="#040000" stroke-width="2" stroke-miterlimit="10"/>
<path d="M60.5458 14.17C62.396 14.17 63.8958 12.6701 63.8958 10.82C63.8958 8.96982 62.396 7.46997 60.5458 7.46997C58.6956 7.46997 57.1958 8.96982 57.1958 10.82C57.1958 12.6701 58.6956 14.17 60.5458 14.17Z" fill="#F3A83A"/>
<path d="M31.0358 24.3701L27.6458 23.9401L27.2858 26.7301L30.4158 27.1301L30.2658 28.3201L27.1358 27.9201L26.6458 31.7401L25.2458 31.5601L26.4058 22.5601L31.1958 23.1701L31.0358 24.3701Z" fill="white"/>
<path d="M31.9459 27.97C32.0359 26.54 32.5059 25.41 33.3659 24.57C34.2259 23.74 35.3359 23.36 36.6959 23.45C37.9759 23.53 38.9659 24.02 39.6859 24.93C40.4059 25.84 40.7259 26.96 40.6359 28.3C40.5459 29.72 40.0859 30.85 39.2359 31.68C38.3959 32.51 37.2959 32.89 35.9559 32.8C34.6759 32.72 33.6659 32.23 32.9259 31.33C32.1859 30.44 31.8559 29.32 31.9459 27.97ZM33.4259 27.97C33.3659 28.97 33.5659 29.81 34.0359 30.48C34.5059 31.16 35.1759 31.52 36.0459 31.58C36.9559 31.64 37.6859 31.38 38.2359 30.79C38.7759 30.21 39.0859 29.39 39.1559 28.35C39.2259 27.28 39.0359 26.42 38.5759 25.77C38.1259 25.12 37.4459 24.76 36.5459 24.7C35.6659 24.64 34.9359 24.92 34.3759 25.54C33.8059 26.15 33.4859 26.96 33.4259 27.97Z" fill="white"/>
<path d="M42.0258 28.5501C41.9958 27.1201 42.3758 25.9501 43.1658 25.0501C43.9558 24.1501 45.0258 23.6901 46.3858 23.6701C47.6658 23.6501 48.6958 24.0601 49.4858 24.9001C50.2758 25.7401 50.6858 26.8401 50.7058 28.1801C50.7358 29.6101 50.3558 30.7701 49.5858 31.6601C48.8158 32.5601 47.7558 33.0201 46.4158 33.0401C45.1358 33.0601 44.0858 32.6601 43.2758 31.8201C42.4658 31.0001 42.0458 29.9001 42.0258 28.5501ZM43.5058 28.4301C43.5258 29.4301 43.7958 30.2501 44.3158 30.8901C44.8358 31.5301 45.5358 31.8401 46.4058 31.8201C47.3158 31.8001 48.0258 31.4801 48.5258 30.8601C49.0258 30.2401 49.2658 29.4001 49.2458 28.3501C49.2258 27.2801 48.9658 26.4401 48.4658 25.8201C47.9658 25.2001 47.2558 24.9001 46.3558 24.9201C45.4758 24.9401 44.7758 25.2701 44.2558 25.9301C43.7258 26.5901 43.4858 27.4201 43.5058 28.4301Z" fill="white"/>
<path d="M53.1758 32.65L52.2458 23.62L54.9859 23.34C58.1759 23.01 59.9159 24.31 60.2159 27.25C60.3659 28.66 60.0258 29.83 59.2058 30.76C58.3858 31.69 57.2658 32.23 55.8458 32.38L53.1758 32.65ZM53.7659 24.67L54.4558 31.3L55.6859 31.17C56.7459 31.06 57.5559 30.68 58.1059 30.02C58.6559 29.36 58.8659 28.49 58.7559 27.42C58.6459 26.37 58.2758 25.59 57.6358 25.1C56.9958 24.61 56.1359 24.42 55.0359 24.54L53.7659 24.67Z" fill="white"/>
</svg>
