<svg width="184" height="370" viewBox="0 0 184 370" fill="none" xmlns="http://www.w3.org/2000/svg">
<path d="M-4.38456 59.5C-4.38456 59.5 -6.54704 14.0883 17.4995 1.54602C17.4995 1.54602 43.1031 17.7212 39.0377 59.5C39.0377 59.5 22.3435 52.6666 -4.38456 59.5Z" fill="#D3AF7C" stroke="black" stroke-width="2" stroke-miterlimit="10"/>
<path d="M115 401.961C115 401.961 175.549 409.573 181.258 354.992C181.258 354.992 194.06 301.277 129.964 264.342C123.39 260.536 115 265.293 115 272.732V401.961Z" fill="#D3AF7C" stroke="black" stroke-width="2" stroke-miterlimit="10"/>
<path d="M-92.8719 398.889V148.562C-92.8719 148.562 -92.872 51.4246 17.5866 49.9541C17.5866 49.9541 122.509 51.4246 126.142 146.746L127.613 398.889H-92.8719Z" fill="#FCF5EF" stroke="black" stroke-width="2" stroke-miterlimit="10"/>
<path d="M71.3025 168.803C80.6658 168.803 88.2562 161.213 88.2562 151.849C88.2562 142.486 80.6658 134.896 71.3025 134.896C61.9392 134.896 54.3488 142.486 54.3488 151.849C54.3488 161.213 61.9392 168.803 71.3025 168.803Z" fill="black" stroke="black" stroke-miterlimit="10"/>
<path d="M93.0137 231.341C106.581 231.341 117.579 220.343 117.579 206.776C117.579 193.208 106.581 182.21 93.0137 182.21C79.4465 182.21 68.4481 193.208 68.4481 206.776C68.4481 220.343 79.4465 231.341 93.0137 231.341Z" fill="#D7B995"/>
<path d="M-35.3503 202.018L-0.837359 180.567C8.24498 174.858 22.7767 174.339 32.5511 179.269L68.7074 197.52C81.9417 204.181 80.0387 217.155 65.0745 222.605L30.2156 235.407C23.2957 237.915 14.9054 238.261 7.63949 236.358L-28.1709 226.757C-44.0866 222.518 -47.8061 209.717 -35.3503 202.018Z" fill="#BB8682" stroke="black" stroke-width="2" stroke-miterlimit="10"/>
<path d="M-43 213.343C-43 213.343 16.2353 224.428 78 208" stroke="#040000" stroke-width="2" stroke-miterlimit="10"/>
</svg>
