<svg width="44" height="44" viewBox="0 0 44 44" fill="none" xmlns="http://www.w3.org/2000/svg">
<g clip-path="url(#clip0_396_2)">
<path d="M22.0003 44.0007C34.151 44.0007 44.001 34.1506 44.001 22C44.001 9.84932 34.151 -0.000732422 22.0003 -0.000732422C9.84968 -0.000732422 -0.000366211 9.84932 -0.000366211 22C-0.000366211 34.1506 9.84968 44.0007 22.0003 44.0007Z" fill="#FEA735"/>
<path d="M11.7097 15.3312H32.2908C33.1675 15.3312 33.8784 14.6204 33.8784 13.7437C33.8784 12.867 33.1675 12.1561 32.2908 12.1561H11.7097C10.833 12.1561 10.1222 12.867 10.1222 13.7437C10.1222 14.6204 10.833 15.3312 11.7097 15.3312Z" fill="#12121D"/>
<path d="M32.2908 28.6691H11.7097C10.833 28.6691 10.1222 29.3799 10.1222 30.2566C10.1222 31.1333 10.833 31.8442 11.7097 31.8442H32.2908C33.1675 31.8442 33.8784 31.1333 33.8784 30.2566C33.8784 29.3799 33.1678 28.6691 32.2908 28.6691Z" fill="#12121D"/>
<path d="M11.7097 23.8353H26.0058C26.8825 23.8353 27.5934 23.1244 27.5934 22.2477C27.5934 21.371 26.8825 20.6602 26.0058 20.6602H11.7097C10.833 20.6602 10.1222 21.371 10.1222 22.2477C10.1222 23.1244 10.833 23.8353 11.7097 23.8353Z" fill="#12121D"/>
</g>
<defs>
<clipPath id="clip0_396_2">
<rect width="44" height="44" fill="white"/>
</clipPath>
</defs>
</svg>
