<svg width="44" height="44" viewBox="0 0 44 44" fill="none" xmlns="http://www.w3.org/2000/svg">
<g clip-path="url(#clip0_214_207)">
<path d="M22.0003 44.0007C34.151 44.0007 44.001 34.1506 44.001 22C44.001 9.84932 34.151 -0.000732422 22.0003 -0.000732422C9.84968 -0.000732422 -0.000368118 9.84932 -0.000368118 22C-0.000368118 34.1506 9.84968 44.0007 22.0003 44.0007Z" fill="#12121D"/>
<path d="M22.0003 44.0007C34.151 44.0007 44.001 34.1506 44.001 22C44.001 9.84932 34.151 -0.000732422 22.0003 -0.000732422C9.84968 -0.000732422 -0.000368118 9.84932 -0.000368118 22C-0.000368118 34.1506 9.84968 44.0007 22.0003 44.0007Z" fill="#FEA735"/>
<path d="M11.7097 15.3312H32.2908C33.1675 15.3312 33.8784 14.6203 33.8784 13.7436C33.8784 12.8669 33.1675 12.1561 32.2908 12.1561H11.7097C10.833 12.1561 10.1222 12.8669 10.1222 13.7436C10.1222 14.6203 10.833 15.3312 11.7097 15.3312Z" fill="#12121D"/>
<path d="M32.2908 28.669H11.7097C10.833 28.669 10.1222 29.3799 10.1222 30.2566C10.1222 31.1333 10.833 31.8441 11.7097 31.8441H32.2908C33.1675 31.8441 33.8784 31.1333 33.8784 30.2566C33.8784 29.3799 33.1678 28.669 32.2908 28.669Z" fill="#12121D"/>
<path d="M11.7097 23.8352H26.0058C26.8825 23.8352 27.5934 23.1243 27.5934 22.2477C27.5934 21.371 26.8825 20.6601 26.0058 20.6601H11.7097C10.833 20.6601 10.1222 21.371 10.1222 22.2477C10.1222 23.1243 10.833 23.8352 11.7097 23.8352Z" fill="#12121D"/>
</g>
<defs>
<clipPath id="clip0_214_207">
<rect width="44" height="44" fill="white"/>
</clipPath>
</defs>
</svg>
