<svg width="375" height="812" viewBox="0 0 375 812" fill="none" xmlns="http://www.w3.org/2000/svg">
<rect width="375" height="812" rx="40" fill="#FCF5EF"/>
<rect x="121" y="799" width="134" height="5" rx="2.5" fill="black"/>
<path d="M209 217.399C209 217.399 218.115 215.443 223.525 224.828C223.525 224.828 230.663 238.958 221.403 244.39C221.403 244.39 214.577 247.407 211.789 239.853C211.768 239.853 212.434 226.847 209 217.399Z" fill="#6A4B2E" stroke="black" stroke-width="2" stroke-miterlimit="10"/>
<path d="M167.151 217.399C167.151 217.399 158.037 215.443 152.626 224.828C152.626 224.828 145.488 238.958 154.749 244.39C154.749 244.39 161.574 247.407 164.363 239.853C164.384 239.853 163.718 226.847 167.151 217.399Z" fill="#6A4B2E" stroke="black" stroke-width="2" stroke-miterlimit="10"/>
<path d="M161.488 291.17V230.946C161.488 230.946 161.488 207.577 188.062 207.223C188.062 207.223 213.304 207.577 214.178 230.509L214.532 291.17H161.488Z" fill="#906526" stroke="black" stroke-width="2" stroke-miterlimit="10"/>
<path d="M174.639 234.38C176.892 234.38 178.718 232.554 178.718 230.301C178.718 228.049 176.892 226.223 174.639 226.223C172.387 226.223 170.561 228.049 170.561 230.301C170.561 232.554 172.387 234.38 174.639 234.38Z" fill="black" stroke="black" stroke-miterlimit="10"/>
<path d="M201.38 234.38C203.633 234.38 205.459 232.554 205.459 230.301C205.459 228.049 203.633 226.223 201.38 226.223C199.128 226.223 197.302 228.049 197.302 230.301C197.302 232.554 199.128 234.38 201.38 234.38Z" fill="black" stroke="black" stroke-miterlimit="10"/>
<path d="M185.544 235.733H190.497C193.556 235.733 195.221 238.397 193.285 240.145L190.809 242.392C189.373 243.703 186.689 243.703 185.253 242.392L182.776 240.145C180.82 238.376 182.485 235.733 185.544 235.733Z" fill="black" stroke="black" stroke-miterlimit="10"/>
<path d="M179.155 251.548L187.916 244.099L196.885 252.464" stroke="black" stroke-width="2" stroke-miterlimit="10"/>
<path d="M200.069 209.741C200.902 210.074 201.859 209.866 202.421 209.179C203.961 207.286 205.896 204.601 201.255 202.312C200.381 201.875 199.903 200.897 200.09 199.94C200.402 198.379 199.861 196.236 194.492 196.298C193.556 196.319 192.723 195.715 192.453 194.821C191.849 192.823 190.309 190.076 186.73 193.967C186.189 194.571 185.336 194.821 184.566 194.55C182.61 193.884 179.051 193.177 178.947 196.652C178.926 197.609 178.177 198.4 177.22 198.566C175.389 198.899 173.037 199.69 173.932 201.667C174.244 202.375 174.119 203.207 173.62 203.79C172.288 205.33 170.582 207.972 174.973 209.866C174.973 209.887 186.543 204.268 200.069 209.741Z" fill="#6A4B2E" stroke="black" stroke-width="2" stroke-miterlimit="10"/>
<rect x="30" y="352" width="315" height="43" rx="21.5" fill="#FFB800"/>
<path d="M127.521 378.232V375.864H136.049V378.232H127.521ZM136.049 372.424V374.744H127.521V372.424H136.049ZM136.049 368.92V371.304H127.521V368.92H136.049ZM131.537 367.784C131.809 367.176 132.097 366.456 132.337 365.768L130.977 365.592C130.849 366.216 130.593 367.08 130.353 367.784H126.337V380.248H127.521V379.352H136.049V380.168H137.281V367.784H131.537ZM154.129 366.584H146.321V367.704H154.129V366.584ZM143.649 365.608C142.849 366.744 141.313 368.184 139.985 369.08C140.193 369.304 140.513 369.768 140.689 370.024C142.113 369.016 143.745 367.464 144.785 366.056L143.649 365.608ZM144.305 369.016C143.201 370.824 141.473 372.664 139.825 373.832C140.065 374.072 140.481 374.584 140.657 374.824C141.249 374.36 141.857 373.784 142.465 373.16V380.264H143.649V371.848C144.305 371.064 144.913 370.248 145.409 369.432L144.305 369.016ZM154.593 370.952H145.633V372.088H150.977V378.68C150.977 378.952 150.881 379.016 150.577 379.032C150.273 379.048 149.217 379.048 148.081 379.016C148.257 379.352 148.417 379.848 148.465 380.168C150.033 380.168 150.929 380.168 151.473 379.992C152.001 379.8 152.177 379.432 152.177 378.696V372.088H154.593V370.952ZM156.513 374.68C156.337 376.072 156.033 377.512 155.537 378.488C155.761 378.568 156.225 378.776 156.401 378.904C156.913 377.88 157.265 376.36 157.489 374.856L156.513 374.68ZM160.321 373.4C160.449 373.784 160.545 374.136 160.593 374.424L161.505 374.04C161.313 373.144 160.753 371.752 160.145 370.696L159.313 371.016C159.537 371.448 159.761 371.928 159.953 372.408L157.809 372.52C158.833 371.176 160.017 369.352 160.881 367.864L159.905 367.432C159.489 368.28 158.913 369.32 158.289 370.312C158.065 370.008 157.777 369.656 157.457 369.304C158.017 368.424 158.705 367.112 159.249 366.008L158.225 365.624C157.905 366.504 157.329 367.736 156.817 368.648C156.657 368.488 156.481 368.312 156.321 368.168L155.681 368.904C156.417 369.592 157.217 370.52 157.681 371.24C157.361 371.736 157.041 372.184 156.737 372.584C156.321 372.6 155.921 372.616 155.569 372.632L155.681 373.704C156.401 373.656 157.217 373.608 158.097 373.544V380.216H159.137V373.48L160.321 373.4ZM167.729 376.2V374.36H168.993V376.2H167.729ZM165.681 376.2V374.36H166.913V376.2H165.681ZM163.681 376.2V374.36H164.881V376.2H163.681ZM168.529 369.656V371.368H163.009V369.656H168.529ZM170.001 373.432H162.977C162.993 373.048 163.009 372.696 163.009 372.344H169.681V368.664H161.937V372.168C161.937 373.704 161.857 375.672 161.217 377.432C161.121 376.648 160.817 375.512 160.433 374.632L159.601 374.888C159.969 375.8 160.289 377 160.337 377.784L161.185 377.544C160.945 378.168 160.641 378.776 160.241 379.32C160.481 379.448 160.929 379.784 161.105 379.992C162.049 378.696 162.545 377.048 162.785 375.432V380.216H163.681V377.112H164.881V380.056H165.681V377.112H166.913V380.056H167.729V377.112H168.993V379.08C168.993 379.224 168.961 379.256 168.865 379.256C168.737 379.256 168.401 379.256 168.017 379.24C168.145 379.512 168.305 379.928 168.337 380.216C168.929 380.216 169.345 380.184 169.649 380.04C169.937 379.848 170.001 379.56 170.001 379.096V373.432ZM161.329 366.584V367.624H170.065V366.584H161.329ZM176.017 376.92C176.337 377.816 176.577 379 176.561 379.72L177.537 379.576C177.537 378.856 177.297 377.704 176.945 376.824L176.017 376.92ZM178.273 376.856C178.737 377.624 179.153 378.632 179.281 379.304L180.193 379.032C180.065 378.36 179.617 377.352 179.105 376.6L178.273 376.856ZM182.657 378.12C182.401 377.624 181.809 376.888 181.265 376.376L180.465 376.76C181.009 377.288 181.585 378.04 181.825 378.552L182.657 378.12ZM176.241 375.048C176.545 374.712 176.833 374.376 177.073 374.008H183.601V369.256H179.185V370.136H182.513V371.208H179.425V372.056H182.513V373.144H174.993V372.056H178.049V371.208H174.993V370.184C176.113 369.944 177.377 369.624 178.321 369.224L177.569 368.456C176.865 368.792 175.697 369.144 174.641 369.416L173.921 369.256V374.008H175.761C174.769 375.272 173.121 376.28 171.473 376.92C171.697 377.144 172.049 377.64 172.177 377.864C172.817 377.576 173.473 377.224 174.081 376.824C173.841 377.832 173.377 378.872 172.641 379.48L173.537 380.024C174.401 379.304 174.817 378.088 175.089 376.936L174.273 376.696C174.593 376.488 174.897 376.264 175.185 376.024H183.793C183.665 377.992 183.505 378.808 183.265 379.064C183.137 379.192 183.009 379.208 182.737 379.192C182.449 379.208 181.729 379.192 180.961 379.128C181.153 379.4 181.265 379.848 181.297 380.152C182.081 380.2 182.849 380.216 183.233 380.168C183.681 380.152 183.969 380.056 184.241 379.768C184.625 379.352 184.817 378.264 184.993 375.528C185.009 375.368 185.025 375.048 185.025 375.048H176.241ZM179.281 366.904V365.624H178.113V366.904H171.985V369.72H173.073V367.944H184.353V369.72H185.473V366.904H179.281ZM199.697 370.248H194.897V367.32H199.697V370.248ZM200.865 366.28H193.809V371.272H200.865V366.28ZM193.169 374.376C192.849 374.008 191.489 372.6 190.993 372.184V371.208H192.993V370.088H190.993V367.384C191.745 367.208 192.449 366.984 193.025 366.744L192.193 365.848C191.025 366.376 188.929 366.84 187.137 367.128C187.281 367.4 187.441 367.784 187.505 368.056C188.241 367.944 189.057 367.816 189.841 367.656V370.088H187.233V371.208H189.681C189.041 373.032 187.937 375.096 186.929 376.216C187.121 376.504 187.409 376.968 187.521 377.304C188.337 376.328 189.185 374.728 189.841 373.112V380.184H190.993V373.336C191.537 373.992 192.193 374.872 192.449 375.32L193.169 374.376ZM197.873 378.728V376.664H201.057V375.624H197.873V373.72H201.409V372.664H193.217V373.72H196.689V375.624H193.585V376.664H196.689V378.728H192.497V379.8H201.761V378.728H197.873ZM216.513 367.64C216.033 367.096 215.025 366.28 214.209 365.736L213.409 366.392C214.225 366.968 215.217 367.832 215.681 368.392L216.513 367.64ZM207.601 373.272H210.593V372.12H203.585V373.272H206.433V377.912C205.153 378.168 203.985 378.408 203.089 378.584L203.457 379.752C205.489 379.304 208.417 378.632 211.121 377.976L211.025 376.936C209.873 377.192 208.721 377.416 207.601 377.656V373.272ZM217.169 369.736V368.584H212.433C212.385 367.64 212.369 366.68 212.369 365.688H211.121C211.137 366.664 211.153 367.64 211.201 368.584H203.025V369.736H211.281C211.697 375.656 213.025 380.248 215.633 380.248C216.849 380.248 217.297 379.432 217.505 376.664C217.169 376.536 216.721 376.28 216.449 376.008C216.353 378.136 216.161 379.016 215.729 379.016C214.145 379.016 212.881 375.128 212.497 369.736H217.169ZM225.873 369.144H227.009V367.944H229.441V369.16H230.593V367.944H232.817V366.936H230.593V365.624H229.441V366.936H227.009V365.624H225.873V366.936H223.553V367.944H225.873V369.144ZM223.633 373.544C223.345 373.048 222.145 371.032 221.729 370.424V369.8H223.377V368.68H221.729V365.608H220.593V368.68H218.625V369.8H220.593C220.161 371.96 219.249 374.504 218.321 375.832C218.529 376.12 218.817 376.632 218.945 376.984C219.537 376.04 220.129 374.584 220.593 373.032V380.216H221.729V372.024C222.161 372.856 222.657 373.88 222.881 374.424L223.633 373.544ZM225.313 372.328H230.849V373.464H225.313V372.328ZM225.313 370.344H230.849V371.48H225.313V370.344ZM232.801 376.696V375.688H228.401C228.481 375.272 228.561 374.824 228.609 374.36H231.985V369.448H224.209V374.36H227.441C227.377 374.824 227.313 375.288 227.217 375.688H223.201V376.696H226.865C226.257 377.912 225.121 378.76 222.785 379.288C222.993 379.512 223.297 379.96 223.393 380.216C226.177 379.544 227.457 378.424 228.097 376.728C228.897 378.472 230.369 379.656 232.417 380.216C232.577 379.912 232.913 379.464 233.169 379.24C231.361 378.856 230.001 377.976 229.217 376.696H232.801ZM234.945 374.68C234.769 376.088 234.433 377.512 233.905 378.488C234.161 378.568 234.641 378.792 234.833 378.936C235.361 377.912 235.745 376.376 235.969 374.872L234.945 374.68ZM239.233 373.512C239.377 373.848 239.473 374.152 239.537 374.424L240.481 373.976C240.257 373.112 239.553 371.752 238.897 370.728L238.017 371.112C238.289 371.544 238.561 372.04 238.801 372.536C237.921 372.568 237.041 372.616 236.241 372.648C237.345 371.272 238.625 369.384 239.553 367.88L238.529 367.432C238.081 368.296 237.473 369.336 236.817 370.344C236.561 370.008 236.225 369.624 235.841 369.24C236.449 368.376 237.121 367.096 237.665 366.024L236.609 365.624C236.273 366.504 235.713 367.704 235.185 368.6C235.025 368.456 234.865 368.312 234.705 368.184L234.097 368.968C234.849 369.64 235.697 370.536 236.193 371.256C235.841 371.784 235.473 372.264 235.121 372.68C234.753 372.696 234.385 372.712 234.065 372.712L234.161 373.784L236.769 373.656V380.248H237.841V373.592L239.233 373.512ZM238.417 374.904C238.849 375.896 239.297 377.176 239.441 378.008L240.385 377.688C240.241 376.856 239.777 375.592 239.313 374.616L238.417 374.904ZM242.385 375.624H246.449V378.68H242.385V375.624ZM246.449 367.592V370.536H242.385V367.592H246.449ZM246.449 374.552H242.385V371.608H246.449V374.552ZM247.617 378.68V366.52H241.233V378.68H239.537V379.768H248.849V378.68H247.617Z" fill="black"/>
<rect x="30" y="425" width="315" height="43" rx="21.5" fill="#FFB800"/>
<path d="M153.868 441.104H150.796V442.768C150.796 443.728 151.132 443.968 152.316 443.968H154.46C155.308 443.968 155.612 443.68 155.724 442.608C155.436 442.544 155.052 442.416 154.844 442.272C154.796 443.024 154.716 443.12 154.332 443.12H152.428C151.9 443.12 151.804 443.056 151.804 442.752V441.936H154.924V439.232H150.492V440.064H153.868V441.104ZM148.716 441.104H145.58V442.768C145.58 443.728 145.884 443.968 147.068 443.968H149.052C149.868 443.968 150.172 443.696 150.284 442.656C149.996 442.608 149.612 442.48 149.404 442.32C149.356 443.024 149.276 443.12 148.892 443.12H147.164C146.652 443.12 146.572 443.056 146.572 442.768V441.936H149.724V439.232H145.292V440.064H148.716V441.104ZM148.972 446.24H151.596V447.76H148.972V446.24ZM155.628 447.76H152.732V446.24H155.132V445.328H152.732V444.176H151.596V445.328H148.972V444.176H147.868V445.328H145.5V446.24H147.868V447.76H144.988V448.688H155.628V447.76ZM155.388 450.816C154.636 450.224 153.324 449.456 152.156 448.896L151.308 449.424C152.412 449.984 153.564 450.736 154.236 451.328L155.388 450.816ZM148.396 448.864C147.692 449.504 146.508 450.112 145.42 450.544C145.676 450.704 146.108 451.088 146.3 451.296C147.356 450.784 148.636 450 149.452 449.232L148.396 448.864ZM144.684 441.648C144.236 440.848 143.18 439.744 142.236 438.992L141.324 439.6C142.252 440.384 143.276 441.52 143.692 442.32L144.684 441.648ZM144.316 444.88H141.244V446H143.212V450.128C142.508 450.8 141.724 451.472 141.052 451.968L141.676 453.072C142.444 452.368 143.164 451.696 143.836 450.992C144.828 452.256 146.284 452.832 148.396 452.912C150.204 452.976 153.66 452.944 155.468 452.864C155.516 452.528 155.708 452 155.852 451.744C153.9 451.872 150.172 451.92 148.364 451.84C146.492 451.76 145.068 451.216 144.316 450.016V444.88ZM161.548 445.344C161.02 445.52 160.492 445.696 159.964 445.856V442.912H161.676V441.824H159.964V438.624H158.86V441.824H156.86V442.912H158.86V446.192C158.028 446.448 157.26 446.688 156.652 446.848L156.956 448L158.86 447.376V451.84C158.86 452.08 158.78 452.128 158.588 452.128C158.396 452.144 157.772 452.144 157.084 452.128C157.244 452.448 157.388 452.944 157.436 453.216C158.428 453.232 159.036 453.184 159.42 453.008C159.82 452.816 159.964 452.496 159.964 451.84V447.024L161.708 446.448L161.548 445.344ZM168.124 448.144H164.908L165.356 448.016C165.276 447.632 165.02 447.056 164.78 446.624H168.412C168.236 447.072 167.964 447.648 167.756 448.032L168.124 448.144ZM165.836 440.128H167.42V441.808H165.836V440.128ZM164.876 441.808H163.356V440.128H164.876V441.808ZM168.38 440.128H169.996V441.808H168.38V440.128ZM171.468 445.68H167.116V444.544H170.684V443.648H167.116V442.656H170.988V439.264H162.38V442.656H165.996V443.648H162.556V444.544H165.996V445.68H161.772V446.624H164.396L163.74 446.784C163.964 447.184 164.188 447.728 164.3 448.144H161.916V449.072H165.996V450.208H162.252V451.136H165.996V453.344H167.116V451.136H170.892V450.208H167.116V449.072H171.244V448.144H168.764C169.02 447.728 169.308 447.216 169.612 446.688L169.372 446.624H171.468V445.68ZM185.116 443.248H180.316V440.32H185.116V443.248ZM186.284 439.28H179.228V444.272H186.284V439.28ZM178.588 447.376C178.268 447.008 176.908 445.6 176.412 445.184V444.208H178.412V443.088H176.412V440.384C177.164 440.208 177.868 439.984 178.444 439.744L177.612 438.848C176.444 439.376 174.348 439.84 172.556 440.128C172.7 440.4 172.86 440.784 172.924 441.056C173.66 440.944 174.476 440.816 175.26 440.656V443.088H172.652V444.208H175.1C174.46 446.032 173.356 448.096 172.348 449.216C172.54 449.504 172.828 449.968 172.94 450.304C173.756 449.328 174.604 447.728 175.26 446.112V453.184H176.412V446.336C176.956 446.992 177.612 447.872 177.868 448.32L178.588 447.376ZM183.292 451.728V449.664H186.476V448.624H183.292V446.72H186.828V445.664H178.636V446.72H182.108V448.624H179.004V449.664H182.108V451.728H177.916V452.8H187.18V451.728H183.292ZM201.932 440.64C201.452 440.096 200.444 439.28 199.628 438.736L198.828 439.392C199.644 439.968 200.636 440.832 201.1 441.392L201.932 440.64ZM193.02 446.272H196.012V445.12H189.004V446.272H191.852V450.912C190.572 451.168 189.404 451.408 188.508 451.584L188.876 452.752C190.908 452.304 193.836 451.632 196.54 450.976L196.444 449.936C195.292 450.192 194.14 450.416 193.02 450.656V446.272ZM202.588 442.736V441.584H197.852C197.804 440.64 197.788 439.68 197.788 438.688H196.54C196.556 439.664 196.572 440.64 196.62 441.584H188.444V442.736H196.7C197.116 448.656 198.444 453.248 201.052 453.248C202.268 453.248 202.716 452.432 202.924 449.664C202.588 449.536 202.14 449.28 201.868 449.008C201.772 451.136 201.58 452.016 201.148 452.016C199.564 452.016 198.3 448.128 197.916 442.736H202.588ZM211.292 442.144H212.428V440.944H214.86V442.16H216.012V440.944H218.236V439.936H216.012V438.624H214.86V439.936H212.428V438.624H211.292V439.936H208.972V440.944H211.292V442.144ZM209.052 446.544C208.764 446.048 207.564 444.032 207.148 443.424V442.8H208.796V441.68H207.148V438.608H206.012V441.68H204.044V442.8H206.012C205.58 444.96 204.668 447.504 203.74 448.832C203.948 449.12 204.236 449.632 204.364 449.984C204.956 449.04 205.548 447.584 206.012 446.032V453.216H207.148V445.024C207.58 445.856 208.076 446.88 208.3 447.424L209.052 446.544ZM210.732 445.328H216.268V446.464H210.732V445.328ZM210.732 443.344H216.268V444.48H210.732V443.344ZM218.22 449.696V448.688H213.82C213.9 448.272 213.98 447.824 214.028 447.36H217.404V442.448H209.628V447.36H212.86C212.796 447.824 212.732 448.288 212.636 448.688H208.62V449.696H212.284C211.676 450.912 210.54 451.76 208.204 452.288C208.412 452.512 208.716 452.96 208.812 453.216C211.596 452.544 212.876 451.424 213.516 449.728C214.316 451.472 215.788 452.656 217.836 453.216C217.996 452.912 218.332 452.464 218.588 452.24C216.78 451.856 215.42 450.976 214.636 449.696H218.22ZM220.364 447.68C220.188 449.088 219.852 450.512 219.324 451.488C219.58 451.568 220.06 451.792 220.252 451.936C220.78 450.912 221.164 449.376 221.388 447.872L220.364 447.68ZM224.652 446.512C224.796 446.848 224.892 447.152 224.956 447.424L225.9 446.976C225.676 446.112 224.972 444.752 224.316 443.728L223.436 444.112C223.708 444.544 223.98 445.04 224.22 445.536C223.34 445.568 222.46 445.616 221.66 445.648C222.764 444.272 224.044 442.384 224.972 440.88L223.948 440.432C223.5 441.296 222.892 442.336 222.236 443.344C221.98 443.008 221.644 442.624 221.26 442.24C221.868 441.376 222.54 440.096 223.084 439.024L222.028 438.624C221.692 439.504 221.132 440.704 220.604 441.6C220.444 441.456 220.284 441.312 220.124 441.184L219.516 441.968C220.268 442.64 221.116 443.536 221.612 444.256C221.26 444.784 220.892 445.264 220.54 445.68C220.172 445.696 219.804 445.712 219.484 445.712L219.58 446.784L222.188 446.656V453.248H223.26V446.592L224.652 446.512ZM223.836 447.904C224.268 448.896 224.716 450.176 224.86 451.008L225.804 450.688C225.66 449.856 225.196 448.592 224.732 447.616L223.836 447.904ZM227.804 448.624H231.868V451.68H227.804V448.624ZM231.868 440.592V443.536H227.804V440.592H231.868ZM231.868 447.552H227.804V444.608H231.868V447.552ZM233.036 451.68V439.52H226.652V451.68H224.956V452.768H234.268V451.68H233.036Z" fill="black"/>
<rect x="16" y="352" width="343" height="43" rx="21.5" fill="#FEA735"/>
<path d="M118.023 378.136V375.472H127.617V378.136H118.023ZM127.617 371.602V374.212H118.023V371.602H127.617ZM127.617 367.66V370.342H118.023V367.66H127.617ZM122.541 366.382C122.847 365.698 123.171 364.888 123.441 364.114L121.911 363.916C121.767 364.618 121.479 365.59 121.209 366.382H116.691V380.404H118.023V379.396H127.617V380.314H129.003V366.382H122.541ZM148.317 365.032H139.533V366.292H148.317V365.032ZM136.527 363.934C135.627 365.212 133.899 366.832 132.405 367.84C132.639 368.092 132.999 368.614 133.197 368.902C134.799 367.768 136.635 366.022 137.805 364.438L136.527 363.934ZM137.265 367.768C136.023 369.802 134.079 371.872 132.225 373.186C132.495 373.456 132.963 374.032 133.161 374.302C133.827 373.78 134.511 373.132 135.195 372.43V380.422H136.527V370.954C137.265 370.072 137.949 369.154 138.507 368.236L137.265 367.768ZM148.839 369.946H138.759V371.224H144.771V378.64C144.771 378.946 144.663 379.018 144.321 379.036C143.979 379.054 142.791 379.054 141.513 379.018C141.711 379.396 141.891 379.954 141.945 380.314C143.709 380.314 144.717 380.314 145.329 380.116C145.923 379.9 146.121 379.486 146.121 378.658V371.224H148.839V369.946ZM151.359 374.14C151.161 375.706 150.819 377.326 150.261 378.424C150.513 378.514 151.035 378.748 151.233 378.892C151.809 377.74 152.205 376.03 152.457 374.338L151.359 374.14ZM155.643 372.7C155.787 373.132 155.895 373.528 155.949 373.852L156.975 373.42C156.759 372.412 156.129 370.846 155.445 369.658L154.509 370.018C154.761 370.504 155.013 371.044 155.229 371.584L152.817 371.71C153.969 370.198 155.301 368.146 156.273 366.472L155.175 365.986C154.707 366.94 154.059 368.11 153.357 369.226C153.105 368.884 152.781 368.488 152.421 368.092C153.051 367.102 153.825 365.626 154.437 364.384L153.285 363.952C152.925 364.942 152.277 366.328 151.701 367.354C151.521 367.174 151.323 366.976 151.143 366.814L150.423 367.642C151.251 368.416 152.151 369.46 152.673 370.27C152.313 370.828 151.953 371.332 151.611 371.782C151.143 371.8 150.693 371.818 150.297 371.836L150.423 373.042C151.233 372.988 152.151 372.934 153.141 372.862V380.368H154.311V372.79L155.643 372.7ZM163.977 375.85V373.78H165.399V375.85H163.977ZM161.673 375.85V373.78H163.059V375.85H161.673ZM159.423 375.85V373.78H160.773V375.85H159.423ZM164.877 368.488V370.414H158.667V368.488H164.877ZM166.533 372.736H158.631C158.649 372.304 158.667 371.908 158.667 371.512H166.173V367.372H157.461V371.314C157.461 373.042 157.371 375.256 156.651 377.236C156.543 376.354 156.201 375.076 155.769 374.086L154.833 374.374C155.247 375.4 155.607 376.75 155.661 377.632L156.615 377.362C156.345 378.064 156.003 378.748 155.553 379.36C155.823 379.504 156.327 379.882 156.525 380.116C157.587 378.658 158.145 376.804 158.415 374.986V380.368H159.423V376.876H160.773V380.188H161.673V376.876H163.059V380.188H163.977V376.876H165.399V379.09C165.399 379.252 165.363 379.288 165.255 379.288C165.111 379.288 164.733 379.288 164.301 379.27C164.445 379.576 164.625 380.044 164.661 380.368C165.327 380.368 165.795 380.332 166.137 380.17C166.461 379.954 166.533 379.63 166.533 379.108V372.736ZM156.777 365.032V366.202H166.605V365.032H156.777ZM173.661 376.66C174.021 377.668 174.291 379 174.273 379.81L175.371 379.648C175.371 378.838 175.101 377.542 174.705 376.552L173.661 376.66ZM176.199 376.588C176.721 377.452 177.189 378.586 177.333 379.342L178.359 379.036C178.215 378.28 177.711 377.146 177.135 376.3L176.199 376.588ZM181.131 378.01C180.843 377.452 180.177 376.624 179.565 376.048L178.665 376.48C179.277 377.074 179.925 377.92 180.195 378.496L181.131 378.01ZM173.913 374.554C174.255 374.176 174.579 373.798 174.849 373.384H182.193V368.038H177.225V369.028H180.969V370.234H177.495V371.188H180.969V372.412H172.509V371.188H175.947V370.234H172.509V369.082C173.769 368.812 175.191 368.452 176.253 368.002L175.407 367.138C174.615 367.516 173.301 367.912 172.113 368.218L171.303 368.038V373.384H173.373C172.257 374.806 170.403 375.94 168.549 376.66C168.801 376.912 169.197 377.47 169.341 377.722C170.061 377.398 170.799 377.002 171.483 376.552C171.213 377.686 170.691 378.856 169.863 379.54L170.871 380.152C171.843 379.342 172.311 377.974 172.617 376.678L171.699 376.408C172.059 376.174 172.401 375.922 172.725 375.652H182.409C182.265 377.866 182.085 378.784 181.815 379.072C181.671 379.216 181.527 379.234 181.221 379.216C180.897 379.234 180.087 379.216 179.223 379.144C179.439 379.45 179.565 379.954 179.601 380.296C180.483 380.35 181.347 380.368 181.779 380.314C182.283 380.296 182.607 380.188 182.913 379.864C183.345 379.396 183.561 378.172 183.759 375.094C183.777 374.914 183.795 374.554 183.795 374.554H173.913ZM177.333 365.392V363.952H176.019V365.392H169.125V368.56H170.349V366.562H183.039V368.56H184.299V365.392H177.333ZM200.661 369.154H195.261V365.86H200.661V369.154ZM201.975 364.69H194.037V370.306H201.975V364.69ZM193.317 373.798C192.957 373.384 191.427 371.8 190.869 371.332V370.234H193.119V368.974H190.869V365.932C191.715 365.734 192.507 365.482 193.155 365.212L192.219 364.204C190.905 364.798 188.547 365.32 186.531 365.644C186.693 365.95 186.873 366.382 186.945 366.688C187.773 366.562 188.691 366.418 189.573 366.238V368.974H186.639V370.234H189.393C188.673 372.286 187.431 374.608 186.297 375.868C186.513 376.192 186.837 376.714 186.963 377.092C187.881 375.994 188.835 374.194 189.573 372.376V380.332H190.869V372.628C191.481 373.366 192.219 374.356 192.507 374.86L193.317 373.798ZM198.609 378.694V376.372H202.191V375.202H198.609V373.06H202.587V371.872H193.371V373.06H197.277V375.202H193.785V376.372H197.277V378.694H192.561V379.9H202.983V378.694H198.609ZM219.939 366.22C219.399 365.608 218.265 364.69 217.347 364.078L216.447 364.816C217.365 365.464 218.481 366.436 219.003 367.066L219.939 366.22ZM209.913 372.556H213.279V371.26H205.395V372.556H208.599V377.776C207.159 378.064 205.845 378.334 204.837 378.532L205.251 379.846C207.537 379.342 210.831 378.586 213.873 377.848L213.765 376.678C212.469 376.966 211.173 377.218 209.913 377.488V372.556ZM220.677 368.578V367.282H215.349C215.295 366.22 215.277 365.14 215.277 364.024H213.873C213.891 365.122 213.909 366.22 213.963 367.282H204.765V368.578H214.053C214.521 375.238 216.015 380.404 218.949 380.404C220.317 380.404 220.821 379.486 221.055 376.372C220.677 376.228 220.173 375.94 219.867 375.634C219.759 378.028 219.543 379.018 219.057 379.018C217.275 379.018 215.853 374.644 215.421 368.578H220.677ZM230.829 367.912H232.107V366.562H234.843V367.93H236.139V366.562H238.641V365.428H236.139V363.952H234.843V365.428H232.107V363.952H230.829V365.428H228.219V366.562H230.829V367.912ZM228.309 372.862C227.985 372.304 226.635 370.036 226.167 369.352V368.65H228.021V367.39H226.167V363.934H224.889V367.39H222.675V368.65H224.889C224.403 371.08 223.377 373.942 222.333 375.436C222.567 375.76 222.891 376.336 223.035 376.732C223.701 375.67 224.367 374.032 224.889 372.286V380.368H226.167V371.152C226.653 372.088 227.211 373.24 227.463 373.852L228.309 372.862ZM230.199 371.494H236.427V372.772H230.199V371.494ZM230.199 369.262H236.427V370.54H230.199V369.262ZM238.623 376.408V375.274H233.673C233.763 374.806 233.853 374.302 233.907 373.78H237.705V368.254H228.957V373.78H232.593C232.521 374.302 232.449 374.824 232.341 375.274H227.823V376.408H231.945C231.261 377.776 229.983 378.73 227.355 379.324C227.589 379.576 227.931 380.08 228.039 380.368C231.171 379.612 232.611 378.352 233.331 376.444C234.231 378.406 235.887 379.738 238.191 380.368C238.371 380.026 238.749 379.522 239.037 379.27C237.003 378.838 235.473 377.848 234.591 376.408H238.623ZM241.395 374.14C241.197 375.724 240.819 377.326 240.225 378.424C240.513 378.514 241.053 378.766 241.269 378.928C241.863 377.776 242.295 376.048 242.547 374.356L241.395 374.14ZM246.219 372.826C246.381 373.204 246.489 373.546 246.561 373.852L247.623 373.348C247.371 372.376 246.579 370.846 245.841 369.694L244.851 370.126C245.157 370.612 245.463 371.17 245.733 371.728C244.743 371.764 243.753 371.818 242.853 371.854C244.095 370.306 245.535 368.182 246.579 366.49L245.427 365.986C244.923 366.958 244.239 368.128 243.501 369.262C243.213 368.884 242.835 368.452 242.403 368.02C243.087 367.048 243.843 365.608 244.455 364.402L243.267 363.952C242.889 364.942 242.259 366.292 241.665 367.3C241.485 367.138 241.305 366.976 241.125 366.832L240.441 367.714C241.287 368.47 242.241 369.478 242.799 370.288C242.403 370.882 241.989 371.422 241.593 371.89C241.179 371.908 240.765 371.926 240.405 371.926L240.513 373.132L243.447 372.988V380.404H244.653V372.916L246.219 372.826ZM245.301 374.392C245.787 375.508 246.291 376.948 246.453 377.884L247.515 377.524C247.353 376.588 246.831 375.166 246.309 374.068L245.301 374.392ZM249.765 375.202H254.337V378.64H249.765V375.202ZM254.337 366.166V369.478H249.765V366.166H254.337ZM254.337 373.996H249.765V370.684H254.337V373.996ZM255.651 378.64V364.96H248.469V378.64H246.561V379.864H257.037V378.64H255.651Z" fill="black"/>
<rect x="16" y="425" width="343" height="43" rx="21.5" fill="#FEA735"/>
<path d="M148.084 439.742H144.628V441.614C144.628 442.694 145.006 442.964 146.338 442.964H148.75C149.704 442.964 150.046 442.64 150.172 441.434C149.848 441.362 149.416 441.218 149.182 441.056C149.128 441.902 149.038 442.01 148.606 442.01H146.464C145.87 442.01 145.762 441.938 145.762 441.596V440.678H149.272V437.636H144.286V438.572H148.084V439.742ZM142.288 439.742H138.76V441.614C138.76 442.694 139.102 442.964 140.434 442.964H142.666C143.584 442.964 143.926 442.658 144.052 441.488C143.728 441.434 143.296 441.29 143.062 441.11C143.008 441.902 142.918 442.01 142.486 442.01H140.542C139.966 442.01 139.876 441.938 139.876 441.614V440.678H143.422V437.636H138.436V438.572H142.288V439.742ZM142.576 445.52H145.528V447.23H142.576V445.52ZM150.064 447.23H146.806V445.52H149.506V444.494H146.806V443.198H145.528V444.494H142.576V443.198H141.334V444.494H138.67V445.52H141.334V447.23H138.094V448.274H150.064V447.23ZM149.794 450.668C148.948 450.002 147.472 449.138 146.158 448.508L145.204 449.102C146.446 449.732 147.742 450.578 148.498 451.244L149.794 450.668ZM141.928 448.472C141.136 449.192 139.804 449.876 138.58 450.362C138.868 450.542 139.354 450.974 139.57 451.208C140.758 450.632 142.198 449.75 143.116 448.886L141.928 448.472ZM137.752 440.354C137.248 439.454 136.06 438.212 134.998 437.366L133.972 438.05C135.016 438.932 136.168 440.21 136.636 441.11L137.752 440.354ZM137.338 443.99H133.882V445.25H136.096V449.894C135.304 450.65 134.422 451.406 133.666 451.964L134.368 453.206C135.232 452.414 136.042 451.658 136.798 450.866C137.914 452.288 139.552 452.936 141.928 453.026C143.962 453.098 147.85 453.062 149.884 452.972C149.938 452.594 150.154 452 150.316 451.712C148.12 451.856 143.926 451.91 141.892 451.82C139.786 451.73 138.184 451.118 137.338 449.768V443.99ZM157.084 444.512C156.49 444.71 155.896 444.908 155.302 445.088V441.776H157.228V440.552H155.302V436.952H154.06V440.552H151.81V441.776H154.06V445.466C153.124 445.754 152.26 446.024 151.576 446.204L151.918 447.5L154.06 446.798V451.82C154.06 452.09 153.97 452.144 153.754 452.144C153.538 452.162 152.836 452.162 152.062 452.144C152.242 452.504 152.404 453.062 152.458 453.368C153.574 453.386 154.258 453.332 154.69 453.134C155.14 452.918 155.302 452.558 155.302 451.82V446.402L157.264 445.754L157.084 444.512ZM164.482 447.662H160.864L161.368 447.518C161.278 447.086 160.99 446.438 160.72 445.952H164.806C164.608 446.456 164.302 447.104 164.068 447.536L164.482 447.662ZM161.908 438.644H163.69V440.534H161.908V438.644ZM160.828 440.534H159.118V438.644H160.828V440.534ZM164.77 438.644H166.588V440.534H164.77V438.644ZM168.244 444.89H163.348V443.612H167.362V442.604H163.348V441.488H167.704V437.672H158.02V441.488H162.088V442.604H158.218V443.612H162.088V444.89H157.336V445.952H160.288L159.55 446.132C159.802 446.582 160.054 447.194 160.18 447.662H157.498V448.706H162.088V449.984H157.876V451.028H162.088V453.512H163.348V451.028H167.596V449.984H163.348V448.706H167.992V447.662H165.202C165.49 447.194 165.814 446.618 166.156 446.024L165.886 445.952H168.244V444.89ZM183.958 442.154H178.558V438.86H183.958V442.154ZM185.272 437.69H177.334V443.306H185.272V437.69ZM176.614 446.798C176.254 446.384 174.724 444.8 174.166 444.332V443.234H176.416V441.974H174.166V438.932C175.012 438.734 175.804 438.482 176.452 438.212L175.516 437.204C174.202 437.798 171.844 438.32 169.828 438.644C169.99 438.95 170.17 439.382 170.242 439.688C171.07 439.562 171.988 439.418 172.87 439.238V441.974H169.936V443.234H172.69C171.97 445.286 170.728 447.608 169.594 448.868C169.81 449.192 170.134 449.714 170.26 450.092C171.178 448.994 172.132 447.194 172.87 445.376V453.332H174.166V445.628C174.778 446.366 175.516 447.356 175.804 447.86L176.614 446.798ZM181.906 451.694V449.372H185.488V448.202H181.906V446.06H185.884V444.872H176.668V446.06H180.574V448.202H177.082V449.372H180.574V451.694H175.858V452.9H186.28V451.694H181.906ZM203.236 439.22C202.696 438.608 201.562 437.69 200.644 437.078L199.744 437.816C200.662 438.464 201.778 439.436 202.3 440.066L203.236 439.22ZM193.21 445.556H196.576V444.26H188.692V445.556H191.896V450.776C190.456 451.064 189.142 451.334 188.134 451.532L188.548 452.846C190.834 452.342 194.128 451.586 197.17 450.848L197.062 449.678C195.766 449.966 194.47 450.218 193.21 450.488V445.556ZM203.974 441.578V440.282H198.646C198.592 439.22 198.574 438.14 198.574 437.024H197.17C197.188 438.122 197.206 439.22 197.26 440.282H188.062V441.578H197.35C197.818 448.238 199.312 453.404 202.246 453.404C203.614 453.404 204.118 452.486 204.352 449.372C203.974 449.228 203.47 448.94 203.164 448.634C203.056 451.028 202.84 452.018 202.354 452.018C200.572 452.018 199.15 447.644 198.718 441.578H203.974ZM214.126 440.912H215.404V439.562H218.14V440.93H219.436V439.562H221.938V438.428H219.436V436.952H218.14V438.428H215.404V436.952H214.126V438.428H211.516V439.562H214.126V440.912ZM211.606 445.862C211.282 445.304 209.932 443.036 209.464 442.352V441.65H211.318V440.39H209.464V436.934H208.186V440.39H205.972V441.65H208.186C207.7 444.08 206.674 446.942 205.63 448.436C205.864 448.76 206.188 449.336 206.332 449.732C206.998 448.67 207.664 447.032 208.186 445.286V453.368H209.464V444.152C209.95 445.088 210.508 446.24 210.76 446.852L211.606 445.862ZM213.496 444.494H219.724V445.772H213.496V444.494ZM213.496 442.262H219.724V443.54H213.496V442.262ZM221.92 449.408V448.274H216.97C217.06 447.806 217.15 447.302 217.204 446.78H221.002V441.254H212.254V446.78H215.89C215.818 447.302 215.746 447.824 215.638 448.274H211.12V449.408H215.242C214.558 450.776 213.28 451.73 210.652 452.324C210.886 452.576 211.228 453.08 211.336 453.368C214.468 452.612 215.908 451.352 216.628 449.444C217.528 451.406 219.184 452.738 221.488 453.368C221.668 453.026 222.046 452.522 222.334 452.27C220.3 451.838 218.77 450.848 217.888 449.408H221.92ZM224.692 447.14C224.494 448.724 224.116 450.326 223.522 451.424C223.81 451.514 224.35 451.766 224.566 451.928C225.16 450.776 225.592 449.048 225.844 447.356L224.692 447.14ZM229.516 445.826C229.678 446.204 229.786 446.546 229.858 446.852L230.92 446.348C230.668 445.376 229.876 443.846 229.138 442.694L228.148 443.126C228.454 443.612 228.76 444.17 229.03 444.728C228.04 444.764 227.05 444.818 226.15 444.854C227.392 443.306 228.832 441.182 229.876 439.49L228.724 438.986C228.22 439.958 227.536 441.128 226.798 442.262C226.51 441.884 226.132 441.452 225.7 441.02C226.384 440.048 227.14 438.608 227.752 437.402L226.564 436.952C226.186 437.942 225.556 439.292 224.962 440.3C224.782 440.138 224.602 439.976 224.422 439.832L223.738 440.714C224.584 441.47 225.538 442.478 226.096 443.288C225.7 443.882 225.286 444.422 224.89 444.89C224.476 444.908 224.062 444.926 223.702 444.926L223.81 446.132L226.744 445.988V453.404H227.95V445.916L229.516 445.826ZM228.598 447.392C229.084 448.508 229.588 449.948 229.75 450.884L230.812 450.524C230.65 449.588 230.128 448.166 229.606 447.068L228.598 447.392ZM233.062 448.202H237.634V451.64H233.062V448.202ZM237.634 439.166V442.478H233.062V439.166H237.634ZM237.634 446.996H233.062V443.684H237.634V446.996ZM238.948 451.64V437.96H231.766V451.64H229.858V452.864H240.334V451.64H238.948Z" fill="black"/>
<rect x="17.5" y="280.5" width="340" height="40" rx="20" fill="#FCF5EF" stroke="#FEA735" stroke-width="3"/>
<path d="M45.2196 294.772H41.2436V295.612H45.2196V294.772ZM45.7236 296.606H40.5436V297.46H45.7236V296.606ZM45.2476 298.496H41.1876V299.322H45.2476V298.496ZM41.1876 301.184H45.2476V300.344H41.1876V301.184ZM44.3656 303.074V305.426H42.0836V303.074H44.3656ZM45.2616 302.22H41.1736V306.91H42.0836V306.266H45.2616V302.22ZM47.6976 303.704V302.696H51.4916V303.704H47.6976ZM51.4916 300.96V301.954H47.6976V300.96H51.4916ZM52.4716 300.162H46.7316V307.036H47.6976V304.446H51.4916V305.958C51.4916 306.126 51.4496 306.168 51.2816 306.182C51.0996 306.182 50.5256 306.196 49.8956 306.168C50.0356 306.406 50.1616 306.77 50.1896 307.022C51.0576 307.022 51.6456 307.022 52.0096 306.882C52.3736 306.728 52.4716 306.476 52.4716 305.972V300.162ZM49.9796 298.552V297.628H52.8076V296.858H49.9796V296.018H53.0176V295.234H49.9796V294.282H48.9856V295.234H46.0316V296.018H48.9856V296.858H46.3956V297.628H48.9856V298.552H45.6816V299.35H53.3256V298.552H49.9796ZM55.7196 300.54H56.9656V301.814H55.7196V300.54ZM55.7196 298.538H56.9656V299.798H55.7196V298.538ZM58.9256 299.798H57.6656V298.538H58.9256V299.798ZM58.9256 301.814H57.6656V300.54H58.9256V301.814ZM57.7776 302.598H59.7236V297.754H57.7776V296.69H60.0176V295.794H57.7776V294.282H56.8536V295.794H54.7256V296.69H56.8536V297.754H54.9356V302.598H56.8536V303.718H54.5576V304.642H56.8536V307.078H57.7776V304.642H59.9756V303.718H57.7776V302.598ZM61.1376 303.536V302.374H62.7196V303.536H61.1376ZM62.7196 300.554V301.632H61.1376V300.554H62.7196ZM63.4896 299.77H60.3676V307.022H61.1376V304.32H62.7196V306.168C62.7196 306.266 62.6916 306.308 62.5936 306.308H61.8936C61.9776 306.518 62.0896 306.854 62.1036 307.05C62.6216 307.05 62.9576 307.05 63.1956 306.91C63.4196 306.77 63.4896 306.546 63.4896 306.168V299.77ZM65.5756 297.852H61.7256V298.692H65.5756V297.852ZM65.0436 300.064H64.2736V304.964H65.0436V300.064ZM66.1496 306.042C66.1496 306.196 66.0936 306.224 65.9396 306.238C65.7856 306.252 65.2676 306.252 64.6936 306.238C64.8056 306.462 64.9176 306.812 64.9596 307.022C65.7716 307.022 66.2616 307.008 66.5976 306.896C66.9056 306.742 67.0036 306.504 67.0036 306.056V299.546H66.1496V306.042ZM63.1536 294.338C62.4956 295.654 61.1656 297.18 59.7516 298.006C59.9196 298.244 60.1576 298.608 60.2696 298.86C61.6836 297.964 62.9576 296.536 63.6576 295.304C64.4416 296.55 65.7996 297.936 67.0876 298.748C67.2416 298.468 67.4656 298.076 67.6476 297.852C66.3456 297.138 64.9456 295.752 64.0776 294.338H63.1536ZM71.1756 295.136V296.172H74.6196C74.6476 296.704 74.7036 297.32 74.8016 297.964L74.1856 297.866C73.3316 301.786 71.6096 304.6 68.5156 306.21C68.7956 306.392 69.2576 306.826 69.4536 307.036C72.2396 305.398 74.0036 302.85 75.0396 299.224C75.6696 301.87 77.1536 304.936 80.5976 307.022C80.7796 306.77 81.1996 306.322 81.4376 306.154C75.9496 302.892 75.6276 297.614 75.6276 295.136H71.1756ZM83.9576 296.116H93.9536V297.32H94.9336V295.262H89.4456V294.282H88.4236V295.262H83.0196V297.32H83.9576V296.116ZM84.5176 304.278V303.41H87.5416V304.278H84.5176ZM87.5416 301.912V302.752H84.5176V301.912H87.5416ZM88.4936 301.17H83.5936V307.064H84.5176V304.922H87.5416V306.098C87.5416 306.224 87.4996 306.266 87.3316 306.28C87.1916 306.28 86.7016 306.28 86.1556 306.266C86.2676 306.49 86.3936 306.812 86.4356 307.036C87.2056 307.036 87.7376 307.036 88.0596 306.91C88.3956 306.784 88.4936 306.546 88.4936 306.084V301.17ZM87.1636 298.398C87.0236 298.804 86.8136 299.336 86.6316 299.7H85.2596C85.1896 299.35 85.0356 298.818 84.8396 298.398H87.1636ZM87.7236 298.398H89.0676V297.628H86.4776V296.676H85.5676V297.628H83.0616V298.398H84.2236L83.9436 298.454C84.1116 298.832 84.2796 299.322 84.3496 299.7H82.7536V300.498H89.2916V299.7H87.5416C87.7096 299.35 87.9056 298.93 88.0876 298.496L87.7236 298.398ZM91.5456 306.196C90.8876 306.196 90.7756 306.098 90.7756 305.678V305.286H94.4996C94.4436 306.056 94.3456 306.196 93.8976 306.196H91.5456ZM94.7236 305.286V304.67H90.7756V303.998H94.2756V303.382H90.7756V302.71H94.3456V302.094H90.7756V301.422H94.6396V299.154H90.7756V298.398H94.7936V297.684H90.7756V296.788H89.8376V299.84H93.6736V300.736H89.8376V305.692C89.8376 306.756 90.2016 306.994 91.4616 306.994H93.9816C94.9616 306.994 95.2556 306.672 95.3676 305.524C95.1576 305.468 94.9056 305.384 94.6956 305.286H94.7236ZM101.822 301.422L101.682 300.498L100.058 301.002V298.146H101.486V297.138H100.058V294.296H99.0916V297.138H98.0136C98.1116 296.522 98.2096 295.878 98.2796 295.248L97.3696 295.094C97.2016 296.802 96.9356 298.566 96.4036 299.756C96.6276 299.84 97.0196 300.092 97.2016 300.218C97.4536 299.644 97.6496 298.93 97.8176 298.146H99.0916V301.268C98.1116 301.576 97.2156 301.814 96.5016 302.01L96.7816 303.004C97.4676 302.794 98.2656 302.542 99.0916 302.29V307.078H100.058V301.982L101.822 301.422ZM103.768 296.62C104.006 295.934 104.216 295.22 104.384 294.478L103.432 294.282C102.97 296.396 102.13 298.412 100.982 299.658C101.192 299.798 101.612 300.092 101.78 300.26C102.382 299.546 102.914 298.622 103.376 297.6H104.58C103.936 299.84 102.69 302.178 101.206 303.34C101.5 303.494 101.836 303.732 102.032 303.942C103.558 302.612 104.846 299.994 105.476 297.6H106.624C105.896 301.114 104.384 304.558 102.088 306.21C102.396 306.364 102.76 306.616 102.956 306.84C105.28 304.992 106.82 301.268 107.52 297.6H108.192C107.912 303.144 107.604 305.216 107.156 305.706C107.002 305.888 106.862 305.944 106.638 305.944C106.358 305.944 105.798 305.93 105.168 305.874C105.35 306.154 105.448 306.588 105.462 306.896C106.078 306.938 106.68 306.952 107.058 306.896C107.478 306.854 107.758 306.728 108.024 306.364C108.584 305.664 108.892 303.494 109.2 297.152C109.214 297.026 109.214 296.62 109.214 296.62H103.768ZM113.498 296.214V299.294H111.902V296.214H113.498ZM111.902 303.396V300.19H113.498V303.396H111.902ZM114.366 295.29H111.062V305.426H111.902V304.32H114.366V295.29ZM123.368 305.398H116.186V295.794H123.256V294.884H115.234V307.064H116.186V306.308H123.368V305.398ZM118.86 302.122H121.548V303.788H118.86V302.122ZM123.046 300.344V299.546H119.616C119.714 299.28 119.798 299 119.868 298.706L118.986 298.566C118.902 298.902 118.804 299.238 118.692 299.546H116.606V300.344H118.342C117.852 301.366 117.152 302.234 116.284 302.85C116.494 302.99 116.83 303.326 116.97 303.48C117.348 303.172 117.698 302.836 118.02 302.444V304.558H122.43V301.352H118.79C118.986 301.03 119.154 300.694 119.308 300.344H123.046ZM118.02 296.172V297.138H116.606V297.922H118.02V298.79H118.888V297.922H120.638V298.79H121.492V297.922H123.004V297.138H121.492V296.172H120.638V297.138H118.888V296.172H118.02ZM129.458 301.842C129.192 301.506 128.044 300.302 127.652 299.952V299.266H129.36V298.426C129.598 298.552 129.892 298.706 130.032 298.804C130.536 298.104 131.012 297.068 131.362 295.99C133.084 295.836 135.03 295.584 136.416 295.234L135.632 294.506C134.624 294.758 132.944 295.024 131.362 295.192L130.578 295.024C130.27 296.242 129.78 297.46 129.136 298.3H127.652V295.892C128.282 295.724 128.884 295.542 129.374 295.318L128.59 294.59C127.68 295.038 126.014 295.43 124.558 295.682C124.684 295.892 124.824 296.228 124.866 296.452C125.44 296.368 126.07 296.256 126.672 296.13V298.3H124.628V299.266H126.504C126.056 300.848 125.23 302.682 124.46 303.676C124.642 303.928 124.894 304.334 125.006 304.628C125.594 303.774 126.196 302.43 126.672 301.058V307.092H127.652V300.96C128.1 301.52 128.632 302.248 128.842 302.626L129.458 301.842ZM135.058 296.004C135.632 296.816 136.22 297.964 136.472 298.692L137.368 298.286C137.102 297.558 136.5 296.48 135.912 295.668L135.058 296.004ZM133.966 297.978C133.882 297.446 133.616 296.648 133.308 296.06L132.44 296.284C132.734 296.9 132.986 297.712 133.042 298.23L133.966 297.978ZM133.77 303.466V302.122H135.744V303.466H133.77ZM130.984 302.122H132.818V303.466H130.984V302.122ZM132.818 300.022V301.338H130.984V300.022H132.818ZM135.744 300.022V301.338H133.77V300.022H135.744ZM137.48 303.466H136.71V299.182H133.77V298.272H132.818V299.182H130.032V303.466H129.038V304.334H130.032V307.05H130.984V304.334H135.744V305.944C135.744 306.112 135.674 306.154 135.492 306.168C135.324 306.168 134.722 306.182 134.064 306.154C134.204 306.392 134.372 306.798 134.428 307.064C135.31 307.064 135.87 307.05 136.22 306.896C136.598 306.742 136.71 306.448 136.71 305.944V304.334H137.48V303.466Z" fill="black" fill-opacity="0.3"/>
<path d="M166.024 62.64H168.16V64.824H166.024V62.64ZM166.024 59.208H168.16V61.368H166.024V59.208ZM171.52 61.368H169.36V59.208H171.52V61.368ZM171.52 64.824H169.36V62.64H171.52V64.824ZM169.552 66.168H172.888V57.864H169.552V56.04H173.392V54.504H169.552V51.912H167.968V54.504H164.32V56.04H167.968V57.864H164.68V66.168H167.968V68.088H164.032V69.672H167.968V73.848H169.552V69.672H173.32V68.088H169.552V66.168ZM175.312 67.776V65.784H178.024V67.776H175.312ZM178.024 62.664V64.512H175.312V62.664H178.024ZM179.344 61.32H173.992V73.752H175.312V69.12H178.024V72.288C178.024 72.456 177.976 72.528 177.808 72.528H176.608C176.752 72.888 176.944 73.464 176.968 73.8C177.856 73.8 178.432 73.8 178.84 73.56C179.224 73.32 179.344 72.936 179.344 72.288V61.32ZM182.92 58.032H176.32V59.472H182.92V58.032ZM182.008 61.824H180.688V70.224H182.008V61.824ZM183.904 72.072C183.904 72.336 183.808 72.384 183.544 72.408C183.28 72.432 182.392 72.432 181.408 72.408C181.6 72.792 181.792 73.392 181.864 73.752C183.256 73.752 184.096 73.728 184.672 73.536C185.2 73.272 185.368 72.864 185.368 72.096V60.936H183.904V72.072ZM178.768 52.008C177.64 54.264 175.36 56.88 172.936 58.296C173.224 58.704 173.632 59.328 173.824 59.76C176.248 58.224 178.432 55.776 179.632 53.664C180.976 55.8 183.304 58.176 185.512 59.568C185.776 59.088 186.16 58.416 186.472 58.032C184.24 56.808 181.84 54.432 180.352 52.008H178.768ZM192.52 53.376V55.152H198.424C198.472 56.064 198.568 57.12 198.736 58.224L197.68 58.056C196.216 64.776 193.264 69.6 187.96 72.36C188.44 72.672 189.232 73.416 189.568 73.776C194.344 70.968 197.368 66.6 199.144 60.384C200.224 64.92 202.768 70.176 208.672 73.752C208.984 73.32 209.704 72.552 210.112 72.264C200.704 66.672 200.152 57.624 200.152 53.376H192.52Z" fill="black"/>
<g clip-path="url(#clip0_34_30)">
<path d="M38 86.0007C50.1506 86.0007 60.0007 76.1506 60.0007 64C60.0007 51.8493 50.1506 41.9993 38 41.9993C25.8493 41.9993 15.9993 51.8493 15.9993 64C15.9993 76.1506 25.8493 86.0007 38 86.0007Z" fill="#FEA735"/>
<path d="M46.6571 62.4124L32.8641 62.2907L37.8624 56.5786C38.4399 55.9186 38.3729 54.9159 37.7128 54.3384C37.0531 53.7613 36.0497 53.8279 35.4726 54.4877L28.3459 62.6325C28.0001 62.9208 27.774 63.348 27.7694 63.8331C27.7694 63.8405 27.7715 63.8479 27.7715 63.8553C27.7641 64.2321 27.8883 64.6117 28.1487 64.9172L35.4595 73.496C35.7735 73.8643 36.2194 74.0538 36.6685 74.0538C37.0326 74.0538 37.3985 73.9292 37.6976 73.6745C38.3651 73.1058 38.4448 72.1035 37.8761 71.4364L32.7868 65.4654L46.6289 65.5875C46.6338 65.5875 46.6384 65.5875 46.6433 65.5875C47.5137 65.5875 48.2228 64.8858 48.2305 64.014C48.2383 63.1374 47.5341 62.4201 46.6571 62.4124Z" fill="black"/>
</g>
<rect x="225" y="729" width="134" height="43" rx="21.5" fill="#FEA735"/>
<path d="M276.923 745.12H289.181V747.622H290.567V743.86H283.727V741.952H282.341V743.86H275.573V747.622H276.923V745.12ZM287.921 748.36V747.118H278.219V748.36H287.921ZM286.589 756.838C285.833 756.838 285.707 756.73 285.707 756.226V751.672H290.999V750.412H275.159V751.672H279.803C279.479 754.39 278.597 756.316 274.763 757.27C275.051 757.522 275.411 758.08 275.555 758.404C279.749 757.234 280.811 754.93 281.225 751.672H284.375V756.226C284.375 757.648 284.807 758.062 286.445 758.062H289.217C290.639 758.062 291.035 757.432 291.179 754.984C290.819 754.876 290.261 754.66 289.955 754.462C289.901 756.514 289.775 756.838 289.109 756.838H286.589ZM304.139 742.834C305.273 743.446 306.641 744.364 307.325 744.994L308.153 744.076C307.451 743.446 306.047 742.582 304.931 742.024L304.139 742.834ZM306.695 747.694C306.137 749.512 305.363 751.132 304.391 752.554C303.905 750.844 303.581 748.702 303.401 746.308H309.125V744.994H303.311C303.257 744.022 303.239 743.014 303.239 741.97H301.853C301.871 742.996 301.889 744.004 301.961 744.994H294.455V750.016C294.455 752.338 294.293 755.416 292.817 757.612C293.123 757.774 293.699 758.242 293.933 758.512C295.553 756.172 295.823 752.554 295.823 750.034V749.89H299.099C299.027 752.986 298.937 754.12 298.685 754.39C298.577 754.552 298.397 754.588 298.145 754.588C297.839 754.588 297.065 754.57 296.237 754.498C296.453 754.84 296.597 755.344 296.615 755.758C297.497 755.794 298.307 755.794 298.757 755.758C299.261 755.704 299.567 755.578 299.837 755.236C300.215 754.768 300.323 753.256 300.413 749.224V748.648H295.823V746.308H302.033C302.267 749.206 302.699 751.852 303.347 753.886C302.195 755.236 300.809 756.352 299.207 757.216C299.513 757.468 299.981 758.008 300.179 758.278C301.565 757.468 302.807 756.46 303.887 755.29C304.715 757.144 305.795 758.242 307.181 758.242C308.549 758.242 309.035 757.36 309.287 754.3C308.927 754.192 308.441 753.886 308.135 753.58C308.009 755.974 307.793 756.91 307.289 756.91C306.371 756.91 305.543 755.884 304.877 754.12C306.209 752.41 307.271 750.358 308.045 748.036L306.695 747.694Z" fill="black"/>
<path opacity="0.35" d="M336.812 18.6692C336.812 17.4726 337.782 16.5026 338.979 16.5026H355.469C356.666 16.5026 357.636 17.4726 357.636 18.6692V24.6692C357.636 25.8658 356.666 26.8359 355.469 26.8359H338.979C337.782 26.8359 336.812 25.8658 336.812 24.6692V18.6692Z" stroke="black"/>
<path opacity="0.4" d="M359.128 19.6692V23.6692C359.926 23.3304 360.445 22.5423 360.445 21.6692C360.445 20.7961 359.926 20.008 359.128 19.6692Z" fill="black"/>
<path d="M338.296 19.3359C338.296 18.5995 338.893 18.0026 339.629 18.0026H354.819C355.555 18.0026 356.152 18.5995 356.152 19.3359V24.0026C356.152 24.7389 355.555 25.3359 354.819 25.3359H339.629C338.893 25.3359 338.296 24.7389 338.296 24.0026V19.3359Z" fill="black"/>
<path fill-rule="evenodd" clip-rule="evenodd" d="M323.744 18.2773C325.942 18.2774 328.056 19.1289 329.649 20.6557C329.769 20.7735 329.961 20.772 330.079 20.6523L331.226 19.4857C331.286 19.4249 331.319 19.3427 331.318 19.2571C331.318 19.1715 331.284 19.0897 331.223 19.0297C327.042 14.9901 320.445 14.9901 316.264 19.0297C316.203 19.0896 316.169 19.1715 316.168 19.257C316.168 19.3426 316.201 19.4249 316.261 19.4857L317.408 20.6523C317.526 20.7722 317.718 20.7737 317.838 20.6557C319.431 19.1288 321.545 18.2773 323.744 18.2773ZM323.744 22.073C324.951 22.0729 326.116 22.5255 327.011 23.3427C327.132 23.4587 327.323 23.4562 327.441 23.337L328.587 22.1704C328.647 22.1092 328.68 22.0261 328.68 21.9399C328.679 21.8536 328.644 21.7713 328.582 21.7114C325.856 19.155 321.634 19.155 318.908 21.7114C318.846 21.7713 318.811 21.8537 318.81 21.9399C318.809 22.0262 318.843 22.1092 318.903 22.1704L320.049 23.337C320.167 23.4562 320.357 23.4587 320.478 23.3427C321.373 22.526 322.537 22.0735 323.744 22.073ZM326.038 24.6268C326.04 24.7133 326.006 24.7967 325.945 24.8573L323.964 26.873C323.906 26.9323 323.826 26.9656 323.744 26.9656C323.661 26.9656 323.582 26.9323 323.524 26.873L321.542 24.8573C321.481 24.7967 321.447 24.7133 321.449 24.6268C321.451 24.5403 321.488 24.4583 321.552 24.4003C322.817 23.3215 324.67 23.3215 325.936 24.4003C325.999 24.4584 326.037 24.5403 326.038 24.6268Z" fill="black"/>
<path fill-rule="evenodd" clip-rule="evenodd" d="M312.189 16.3359H311.197C310.65 16.3359 310.205 16.7837 310.205 17.3359V26.0026C310.205 26.5549 310.65 27.0026 311.197 27.0026H312.189C312.737 27.0026 313.181 26.5549 313.181 26.0026V17.3359C313.181 16.7837 312.737 16.3359 312.189 16.3359ZM306.568 18.6693H307.56C308.108 18.6693 308.552 19.117 308.552 19.6693V26.0026C308.552 26.5549 308.108 27.0026 307.56 27.0026H306.568C306.02 27.0026 305.576 26.5549 305.576 26.0026V19.6693C305.576 19.117 306.02 18.6693 306.568 18.6693ZM302.931 21.0026H301.939C301.391 21.0026 300.947 21.4503 300.947 22.0026V26.0026C300.947 26.5549 301.391 27.0026 301.939 27.0026H302.931C303.479 27.0026 303.923 26.5549 303.923 26.0026V22.0026C303.923 21.4503 303.479 21.0026 302.931 21.0026ZM298.301 23.0026H297.309C296.762 23.0026 296.317 23.4503 296.317 24.0026V26.0026C296.317 26.5549 296.762 27.0026 297.309 27.0026H298.301C298.849 27.0026 299.293 26.5549 299.293 26.0026V24.0026C299.293 23.4503 298.849 23.0026 298.301 23.0026Z" fill="black"/>
<path d="M38.4455 22.8765C37.9133 23.355 37.3176 23.5942 36.6584 23.5942C35.6916 23.5942 34.925 23.2671 34.3586 22.6128C33.7922 21.9585 33.509 21.0845 33.509 19.9907C33.509 19.3071 33.6677 18.6724 33.9851 18.0864C34.3025 17.5005 34.7468 17.0366 35.3181 16.6948C35.8943 16.353 36.529 16.1821 37.2224 16.1821C37.9255 16.1821 38.5603 16.3604 39.1267 16.7168C39.698 17.0684 40.1423 17.5688 40.4597 18.2183C40.7771 18.8628 40.9406 19.6074 40.9504 20.4521V21.397C40.9504 22.5737 40.7185 23.5942 40.2546 24.4585C39.7956 25.3228 39.1389 25.9868 38.2844 26.4507C37.4299 26.9146 36.4338 27.1465 35.2961 27.1465H35.1423V25.1689L35.6111 25.1616C37.3103 25.0786 38.2551 24.3169 38.4455 22.8765ZM37.3249 21.8145C37.862 21.8145 38.2478 21.5825 38.4821 21.1187V20.0933C38.4821 19.4097 38.3674 18.9043 38.1379 18.5771C37.9084 18.25 37.5984 18.0864 37.2077 18.0864C36.8611 18.0864 36.5705 18.272 36.3361 18.6431C36.1018 19.0142 35.9846 19.4634 35.9846 19.9907C35.9846 20.5474 36.1042 20.9917 36.3435 21.3237C36.5827 21.6509 36.9099 21.8145 37.3249 21.8145ZM43.5435 24.605C43.9341 24.605 44.2588 24.7222 44.5176 24.9565C44.7764 25.186 44.9058 25.4814 44.9058 25.8428C44.9058 26.2041 44.7764 26.502 44.5176 26.7363C44.2588 26.9658 43.9341 27.0806 43.5435 27.0806C43.148 27.0806 42.8208 26.9634 42.562 26.729C42.3081 26.4946 42.1812 26.1992 42.1812 25.8428C42.1812 25.4863 42.3081 25.1909 42.562 24.9565C42.8208 24.7222 43.148 24.605 43.5435 24.605ZM43.5435 18.7603C43.9341 18.7603 44.2588 18.8774 44.5176 19.1118C44.7764 19.3413 44.9058 19.6367 44.9058 19.998C44.9058 20.3594 44.7764 20.6572 44.5176 20.8916C44.2588 21.1211 43.9341 21.2358 43.5435 21.2358C43.148 21.2358 42.8208 21.1187 42.562 20.8843C42.3081 20.6499 42.1812 20.3545 42.1812 19.998C42.1812 19.6416 42.3081 19.3462 42.562 19.1118C42.8208 18.8774 43.148 18.7603 43.5435 18.7603ZM51.6517 27H49.1761V19.1191L46.7444 19.8296V17.9546L51.4246 16.3359H51.6517V27ZM61.0856 22.8325H62.1695V24.7368H61.0856V27H58.6173V24.7368H54.4938L54.3473 23.228L58.6173 16.3579V16.3359H61.0856V22.8325ZM56.6984 22.8325H58.6173V19.5513L58.4635 19.8003L56.6984 22.8325Z" fill="black"/>
<defs>
<clipPath id="clip0_34_30">
<rect width="44" height="44" fill="white" transform="translate(16 42)"/>
</clipPath>
</defs>
</svg>
