<svg width="375" height="812" viewBox="0 0 375 812" fill="none" xmlns="http://www.w3.org/2000/svg">
<rect width="375" height="812" rx="40" fill="#FCF5EF"/>
<rect x="121" y="799" width="134" height="5" rx="2.5" fill="black"/>
<rect x="16" y="175" width="343" height="43" rx="21.5" fill="#FEA735"/>
<path d="M119.82 202.136V199.472H129.414V202.136H119.82ZM129.414 195.602V198.212H119.82V195.602H129.414ZM129.414 191.66V194.342H119.82V191.66H129.414ZM124.338 190.382C124.644 189.698 124.968 188.888 125.238 188.114L123.708 187.916C123.564 188.618 123.276 189.59 123.006 190.382H118.488V204.404H119.82V203.396H129.414V204.314H130.8V190.382H124.338ZM150.114 189.032H141.33V190.292H150.114V189.032ZM138.324 187.934C137.424 189.212 135.696 190.832 134.202 191.84C134.436 192.092 134.796 192.614 134.994 192.902C136.596 191.768 138.432 190.022 139.602 188.438L138.324 187.934ZM139.062 191.768C137.82 193.802 135.876 195.872 134.022 197.186C134.292 197.456 134.76 198.032 134.958 198.302C135.624 197.78 136.308 197.132 136.992 196.43V204.422H138.324V194.954C139.062 194.072 139.746 193.154 140.304 192.236L139.062 191.768ZM150.636 193.946H140.556V195.224H146.568V202.64C146.568 202.946 146.46 203.018 146.118 203.036C145.776 203.054 144.588 203.054 143.31 203.018C143.508 203.396 143.688 203.954 143.742 204.314C145.506 204.314 146.514 204.314 147.126 204.116C147.72 203.9 147.918 203.486 147.918 202.658V195.224H150.636V193.946ZM153.156 198.14C152.958 199.706 152.616 201.326 152.058 202.424C152.31 202.514 152.832 202.748 153.03 202.892C153.606 201.74 154.002 200.03 154.254 198.338L153.156 198.14ZM157.44 196.7C157.584 197.132 157.692 197.528 157.746 197.852L158.772 197.42C158.556 196.412 157.926 194.846 157.242 193.658L156.306 194.018C156.558 194.504 156.81 195.044 157.026 195.584L154.614 195.71C155.766 194.198 157.098 192.146 158.07 190.472L156.972 189.986C156.504 190.94 155.856 192.11 155.154 193.226C154.902 192.884 154.578 192.488 154.218 192.092C154.848 191.102 155.622 189.626 156.234 188.384L155.082 187.952C154.722 188.942 154.074 190.328 153.498 191.354C153.318 191.174 153.12 190.976 152.94 190.814L152.22 191.642C153.048 192.416 153.948 193.46 154.47 194.27C154.11 194.828 153.75 195.332 153.408 195.782C152.94 195.8 152.49 195.818 152.094 195.836L152.22 197.042C153.03 196.988 153.948 196.934 154.938 196.862V204.368H156.108V196.79L157.44 196.7ZM165.774 199.85V197.78H167.196V199.85H165.774ZM163.47 199.85V197.78H164.856V199.85H163.47ZM161.22 199.85V197.78H162.57V199.85H161.22ZM166.674 192.488V194.414H160.464V192.488H166.674ZM168.33 196.736H160.428C160.446 196.304 160.464 195.908 160.464 195.512H167.97V191.372H159.258V195.314C159.258 197.042 159.168 199.256 158.448 201.236C158.34 200.354 157.998 199.076 157.566 198.086L156.63 198.374C157.044 199.4 157.404 200.75 157.458 201.632L158.412 201.362C158.142 202.064 157.8 202.748 157.35 203.36C157.62 203.504 158.124 203.882 158.322 204.116C159.384 202.658 159.942 200.804 160.212 198.986V204.368H161.22V200.876H162.57V204.188H163.47V200.876H164.856V204.188H165.774V200.876H167.196V203.09C167.196 203.252 167.16 203.288 167.052 203.288C166.908 203.288 166.53 203.288 166.098 203.27C166.242 203.576 166.422 204.044 166.458 204.368C167.124 204.368 167.592 204.332 167.934 204.17C168.258 203.954 168.33 203.63 168.33 203.108V196.736ZM158.574 189.032V190.202H168.402V189.032H158.574ZM175.458 200.66C175.818 201.668 176.088 203 176.07 203.81L177.168 203.648C177.168 202.838 176.898 201.542 176.502 200.552L175.458 200.66ZM177.996 200.588C178.518 201.452 178.986 202.586 179.13 203.342L180.156 203.036C180.012 202.28 179.508 201.146 178.932 200.3L177.996 200.588ZM182.928 202.01C182.64 201.452 181.974 200.624 181.362 200.048L180.462 200.48C181.074 201.074 181.722 201.92 181.992 202.496L182.928 202.01ZM175.71 198.554C176.052 198.176 176.376 197.798 176.646 197.384H183.99V192.038H179.022V193.028H182.766V194.234H179.292V195.188H182.766V196.412H174.306V195.188H177.744V194.234H174.306V193.082C175.566 192.812 176.988 192.452 178.05 192.002L177.204 191.138C176.412 191.516 175.098 191.912 173.91 192.218L173.1 192.038V197.384H175.17C174.054 198.806 172.2 199.94 170.346 200.66C170.598 200.912 170.994 201.47 171.138 201.722C171.858 201.398 172.596 201.002 173.28 200.552C173.01 201.686 172.488 202.856 171.66 203.54L172.668 204.152C173.64 203.342 174.108 201.974 174.414 200.678L173.496 200.408C173.856 200.174 174.198 199.922 174.522 199.652H184.206C184.062 201.866 183.882 202.784 183.612 203.072C183.468 203.216 183.324 203.234 183.018 203.216C182.694 203.234 181.884 203.216 181.02 203.144C181.236 203.45 181.362 203.954 181.398 204.296C182.28 204.35 183.144 204.368 183.576 204.314C184.08 204.296 184.404 204.188 184.71 203.864C185.142 203.396 185.358 202.172 185.556 199.094C185.574 198.914 185.592 198.554 185.592 198.554H175.71ZM179.13 189.392V187.952H177.816V189.392H170.922V192.56H172.146V190.562H184.836V192.56H186.096V189.392H179.13ZM202.458 193.154H197.058V189.86H202.458V193.154ZM203.772 188.69H195.834V194.306H203.772V188.69ZM195.114 197.798C194.754 197.384 193.224 195.8 192.666 195.332V194.234H194.916V192.974H192.666V189.932C193.512 189.734 194.304 189.482 194.952 189.212L194.016 188.204C192.702 188.798 190.344 189.32 188.328 189.644C188.49 189.95 188.67 190.382 188.742 190.688C189.57 190.562 190.488 190.418 191.37 190.238V192.974H188.436V194.234H191.19C190.47 196.286 189.228 198.608 188.094 199.868C188.31 200.192 188.634 200.714 188.76 201.092C189.678 199.994 190.632 198.194 191.37 196.376V204.332H192.666V196.628C193.278 197.366 194.016 198.356 194.304 198.86L195.114 197.798ZM200.406 202.694V200.372H203.988V199.202H200.406V197.06H204.384V195.872H195.168V197.06H199.074V199.202H195.582V200.372H199.074V202.694H194.358V203.9H204.78V202.694H200.406ZM221.736 190.22C221.196 189.608 220.062 188.69 219.144 188.078L218.244 188.816C219.162 189.464 220.278 190.436 220.8 191.066L221.736 190.22ZM211.71 196.556H215.076V195.26H207.192V196.556H210.396V201.776C208.956 202.064 207.642 202.334 206.634 202.532L207.048 203.846C209.334 203.342 212.628 202.586 215.67 201.848L215.562 200.678C214.266 200.966 212.97 201.218 211.71 201.488V196.556ZM222.474 192.578V191.282H217.146C217.092 190.22 217.074 189.14 217.074 188.024H215.67C215.688 189.122 215.706 190.22 215.76 191.282H206.562V192.578H215.85C216.318 199.238 217.812 204.404 220.746 204.404C222.114 204.404 222.618 203.486 222.852 200.372C222.474 200.228 221.97 199.94 221.664 199.634C221.556 202.028 221.34 203.018 220.854 203.018C219.072 203.018 217.65 198.644 217.218 192.578H222.474ZM232.626 191.912H233.904V190.562H236.64V191.93H237.936V190.562H240.438V189.428H237.936V187.952H236.64V189.428H233.904V187.952H232.626V189.428H230.016V190.562H232.626V191.912ZM230.106 196.862C229.782 196.304 228.432 194.036 227.964 193.352V192.65H229.818V191.39H227.964V187.934H226.686V191.39H224.472V192.65H226.686C226.2 195.08 225.174 197.942 224.13 199.436C224.364 199.76 224.688 200.336 224.832 200.732C225.498 199.67 226.164 198.032 226.686 196.286V204.368H227.964V195.152C228.45 196.088 229.008 197.24 229.26 197.852L230.106 196.862ZM231.996 195.494H238.224V196.772H231.996V195.494ZM231.996 193.262H238.224V194.54H231.996V193.262ZM240.42 200.408V199.274H235.47C235.56 198.806 235.65 198.302 235.704 197.78H239.502V192.254H230.754V197.78H234.39C234.318 198.302 234.246 198.824 234.138 199.274H229.62V200.408H233.742C233.058 201.776 231.78 202.73 229.152 203.324C229.386 203.576 229.728 204.08 229.836 204.368C232.968 203.612 234.408 202.352 235.128 200.444C236.028 202.406 237.684 203.738 239.988 204.368C240.168 204.026 240.546 203.522 240.834 203.27C238.8 202.838 237.27 201.848 236.388 200.408H240.42ZM243.192 198.14C242.994 199.724 242.616 201.326 242.022 202.424C242.31 202.514 242.85 202.766 243.066 202.928C243.66 201.776 244.092 200.048 244.344 198.356L243.192 198.14ZM248.016 196.826C248.178 197.204 248.286 197.546 248.358 197.852L249.42 197.348C249.168 196.376 248.376 194.846 247.638 193.694L246.648 194.126C246.954 194.612 247.26 195.17 247.53 195.728C246.54 195.764 245.55 195.818 244.65 195.854C245.892 194.306 247.332 192.182 248.376 190.49L247.224 189.986C246.72 190.958 246.036 192.128 245.298 193.262C245.01 192.884 244.632 192.452 244.2 192.02C244.884 191.048 245.64 189.608 246.252 188.402L245.064 187.952C244.686 188.942 244.056 190.292 243.462 191.3C243.282 191.138 243.102 190.976 242.922 190.832L242.238 191.714C243.084 192.47 244.038 193.478 244.596 194.288C244.2 194.882 243.786 195.422 243.39 195.89C242.976 195.908 242.562 195.926 242.202 195.926L242.31 197.132L245.244 196.988V204.404H246.45V196.916L248.016 196.826ZM247.098 198.392C247.584 199.508 248.088 200.948 248.25 201.884L249.312 201.524C249.15 200.588 248.628 199.166 248.106 198.068L247.098 198.392ZM251.562 199.202H256.134V202.64H251.562V199.202ZM256.134 190.166V193.478H251.562V190.166H256.134ZM256.134 197.996H251.562V194.684H256.134V197.996ZM257.448 202.64V188.96H250.266V202.64H248.358V203.864H258.834V202.64H257.448Z" fill="black"/>
<rect x="225" y="729" width="134" height="43" rx="21.5" fill="#FEA735"/>
<path d="M276.844 744.12H289.102V746.622H290.488V742.86H283.648V740.952H282.262V742.86H275.494V746.622H276.844V744.12ZM287.842 747.36V746.118H278.14V747.36H287.842ZM286.51 755.838C285.754 755.838 285.628 755.73 285.628 755.226V750.672H290.92V749.412H275.08V750.672H279.724C279.4 753.39 278.518 755.316 274.684 756.27C274.972 756.522 275.332 757.08 275.476 757.404C279.67 756.234 280.732 753.93 281.146 750.672H284.296V755.226C284.296 756.648 284.728 757.062 286.366 757.062H289.138C290.56 757.062 290.956 756.432 291.1 753.984C290.74 753.876 290.182 753.66 289.876 753.462C289.822 755.514 289.696 755.838 289.03 755.838H286.51ZM304.06 741.834C305.194 742.446 306.562 743.364 307.246 743.994L308.074 743.076C307.372 742.446 305.968 741.582 304.852 741.024L304.06 741.834ZM306.616 746.694C306.058 748.512 305.284 750.132 304.312 751.554C303.826 749.844 303.502 747.702 303.322 745.308H309.046V743.994H303.232C303.178 743.022 303.16 742.014 303.16 740.97H301.774C301.792 741.996 301.81 743.004 301.882 743.994H294.376V749.016C294.376 751.338 294.214 754.416 292.738 756.612C293.044 756.774 293.62 757.242 293.854 757.512C295.474 755.172 295.744 751.554 295.744 749.034V748.89H299.02C298.948 751.986 298.858 753.12 298.606 753.39C298.498 753.552 298.318 753.588 298.066 753.588C297.76 753.588 296.986 753.57 296.158 753.498C296.374 753.84 296.518 754.344 296.536 754.758C297.418 754.794 298.228 754.794 298.678 754.758C299.182 754.704 299.488 754.578 299.758 754.236C300.136 753.768 300.244 752.256 300.334 748.224V747.648H295.744V745.308H301.954C302.188 748.206 302.62 750.852 303.268 752.886C302.116 754.236 300.73 755.352 299.128 756.216C299.434 756.468 299.902 757.008 300.1 757.278C301.486 756.468 302.728 755.46 303.808 754.29C304.636 756.144 305.716 757.242 307.102 757.242C308.47 757.242 308.956 756.36 309.208 753.3C308.848 753.192 308.362 752.886 308.056 752.58C307.93 754.974 307.714 755.91 307.21 755.91C306.292 755.91 305.464 754.884 304.798 753.12C306.13 751.41 307.192 749.358 307.966 747.036L306.616 746.694Z" fill="black"/>
<rect x="17.5" y="103.5" width="340" height="40" rx="20" fill="#FCF5EF" stroke="#FEA735" stroke-width="3"/>
<path d="M43.3156 119.172V125.71H41.9016V119.172H43.3156ZM44.1556 126.578V118.318H41.0616V127.922H41.9016V126.578H44.1556ZM46.7456 120.096C46.7596 119.214 46.7736 118.29 46.7736 117.338H45.8636C45.8636 118.304 45.8636 119.228 45.8496 120.096H44.6596V121.034H45.8216C45.7236 124.716 45.3176 127.67 43.5536 129.448C43.7776 129.588 44.1136 129.896 44.2816 130.12C46.1856 128.132 46.6196 124.982 46.7316 121.034H47.9356C47.7816 126.396 47.6136 128.258 47.3056 128.678C47.1796 128.874 47.0816 128.902 46.8996 128.902C46.6896 128.902 46.2836 128.902 45.8356 128.86C45.9756 129.126 46.0736 129.518 46.0736 129.798C46.5356 129.84 46.9976 129.826 47.3056 129.798C47.6416 129.742 47.8796 129.63 48.1036 129.294C48.5236 128.692 48.6776 126.746 48.8596 120.586C48.8736 120.474 48.8736 120.096 48.8736 120.096H46.7456ZM50.2736 127.446V119.858H52.0096V127.446H50.2736ZM49.4196 118.92V129.56H50.2736V128.384H52.0096V129.448H52.9056V118.92H49.4196ZM57.7076 119.55V125.024H55.9576V119.55H57.7076ZM58.6456 125.976V118.584H55.0336V127.208H55.9576V125.976H58.6456ZM62.8876 124.73L62.3136 124.926C62.3416 124.492 62.3556 124.058 62.3556 123.61V117.408H61.3616V119.648H59.0236V120.614H61.3616V122.546H59.1216V123.498H61.3616V123.596C61.3616 124.156 61.3476 124.716 61.2776 125.276C60.2136 125.626 59.2056 125.948 58.4636 126.158L58.8696 127.096C59.5416 126.858 60.2976 126.578 61.0816 126.27C60.7736 127.502 60.0876 128.608 58.6736 129.448C58.9256 129.602 59.2756 129.924 59.4436 130.12C61.2216 129.042 61.9356 127.53 62.2156 125.836L63.0276 125.514L62.8876 124.73ZM67.3536 125.472H64.6096V123.498H67.0456V122.546H64.6096V120.614H67.2136V119.648H64.6096V117.38H63.6016V130.05H64.6096V126.438H67.3536V125.472Z" fill="black"/>
<rect x="17.5" y="249.5" width="340" height="448" rx="23.5" stroke="#FEA735" stroke-width="3"/>
<path d="M16 273C16 259.193 27.1929 248 41 248H334C347.807 248 359 259.193 359 273V291H16V273Z" fill="#FEA735"/>
<path d="M148.084 263.742H144.628V265.614C144.628 266.694 145.006 266.964 146.338 266.964H148.75C149.704 266.964 150.046 266.64 150.172 265.434C149.848 265.362 149.416 265.218 149.182 265.056C149.128 265.902 149.038 266.01 148.606 266.01H146.464C145.87 266.01 145.762 265.938 145.762 265.596V264.678H149.272V261.636H144.286V262.572H148.084V263.742ZM142.288 263.742H138.76V265.614C138.76 266.694 139.102 266.964 140.434 266.964H142.666C143.584 266.964 143.926 266.658 144.052 265.488C143.728 265.434 143.296 265.29 143.062 265.11C143.008 265.902 142.918 266.01 142.486 266.01H140.542C139.966 266.01 139.876 265.938 139.876 265.614V264.678H143.422V261.636H138.436V262.572H142.288V263.742ZM142.576 269.52H145.528V271.23H142.576V269.52ZM150.064 271.23H146.806V269.52H149.506V268.494H146.806V267.198H145.528V268.494H142.576V267.198H141.334V268.494H138.67V269.52H141.334V271.23H138.094V272.274H150.064V271.23ZM149.794 274.668C148.948 274.002 147.472 273.138 146.158 272.508L145.204 273.102C146.446 273.732 147.742 274.578 148.498 275.244L149.794 274.668ZM141.928 272.472C141.136 273.192 139.804 273.876 138.58 274.362C138.868 274.542 139.354 274.974 139.57 275.208C140.758 274.632 142.198 273.75 143.116 272.886L141.928 272.472ZM137.752 264.354C137.248 263.454 136.06 262.212 134.998 261.366L133.972 262.05C135.016 262.932 136.168 264.21 136.636 265.11L137.752 264.354ZM137.338 267.99H133.882V269.25H136.096V273.894C135.304 274.65 134.422 275.406 133.666 275.964L134.368 277.206C135.232 276.414 136.042 275.658 136.798 274.866C137.914 276.288 139.552 276.936 141.928 277.026C143.962 277.098 147.85 277.062 149.884 276.972C149.938 276.594 150.154 276 150.316 275.712C148.12 275.856 143.926 275.91 141.892 275.82C139.786 275.73 138.184 275.118 137.338 273.768V267.99ZM157.084 268.512C156.49 268.71 155.896 268.908 155.302 269.088V265.776H157.228V264.552H155.302V260.952H154.06V264.552H151.81V265.776H154.06V269.466C153.124 269.754 152.26 270.024 151.576 270.204L151.918 271.5L154.06 270.798V275.82C154.06 276.09 153.97 276.144 153.754 276.144C153.538 276.162 152.836 276.162 152.062 276.144C152.242 276.504 152.404 277.062 152.458 277.368C153.574 277.386 154.258 277.332 154.69 277.134C155.14 276.918 155.302 276.558 155.302 275.82V270.402L157.264 269.754L157.084 268.512ZM164.482 271.662H160.864L161.368 271.518C161.278 271.086 160.99 270.438 160.72 269.952H164.806C164.608 270.456 164.302 271.104 164.068 271.536L164.482 271.662ZM161.908 262.644H163.69V264.534H161.908V262.644ZM160.828 264.534H159.118V262.644H160.828V264.534ZM164.77 262.644H166.588V264.534H164.77V262.644ZM168.244 268.89H163.348V267.612H167.362V266.604H163.348V265.488H167.704V261.672H158.02V265.488H162.088V266.604H158.218V267.612H162.088V268.89H157.336V269.952H160.288L159.55 270.132C159.802 270.582 160.054 271.194 160.18 271.662H157.498V272.706H162.088V273.984H157.876V275.028H162.088V277.512H163.348V275.028H167.596V273.984H163.348V272.706H167.992V271.662H165.202C165.49 271.194 165.814 270.618 166.156 270.024L165.886 269.952H168.244V268.89ZM183.958 266.154H178.558V262.86H183.958V266.154ZM185.272 261.69H177.334V267.306H185.272V261.69ZM176.614 270.798C176.254 270.384 174.724 268.8 174.166 268.332V267.234H176.416V265.974H174.166V262.932C175.012 262.734 175.804 262.482 176.452 262.212L175.516 261.204C174.202 261.798 171.844 262.32 169.828 262.644C169.99 262.95 170.17 263.382 170.242 263.688C171.07 263.562 171.988 263.418 172.87 263.238V265.974H169.936V267.234H172.69C171.97 269.286 170.728 271.608 169.594 272.868C169.81 273.192 170.134 273.714 170.26 274.092C171.178 272.994 172.132 271.194 172.87 269.376V277.332H174.166V269.628C174.778 270.366 175.516 271.356 175.804 271.86L176.614 270.798ZM181.906 275.694V273.372H185.488V272.202H181.906V270.06H185.884V268.872H176.668V270.06H180.574V272.202H177.082V273.372H180.574V275.694H175.858V276.9H186.28V275.694H181.906ZM203.236 263.22C202.696 262.608 201.562 261.69 200.644 261.078L199.744 261.816C200.662 262.464 201.778 263.436 202.3 264.066L203.236 263.22ZM193.21 269.556H196.576V268.26H188.692V269.556H191.896V274.776C190.456 275.064 189.142 275.334 188.134 275.532L188.548 276.846C190.834 276.342 194.128 275.586 197.17 274.848L197.062 273.678C195.766 273.966 194.47 274.218 193.21 274.488V269.556ZM203.974 265.578V264.282H198.646C198.592 263.22 198.574 262.14 198.574 261.024H197.17C197.188 262.122 197.206 263.22 197.26 264.282H188.062V265.578H197.35C197.818 272.238 199.312 277.404 202.246 277.404C203.614 277.404 204.118 276.486 204.352 273.372C203.974 273.228 203.47 272.94 203.164 272.634C203.056 275.028 202.84 276.018 202.354 276.018C200.572 276.018 199.15 271.644 198.718 265.578H203.974ZM214.126 264.912H215.404V263.562H218.14V264.93H219.436V263.562H221.938V262.428H219.436V260.952H218.14V262.428H215.404V260.952H214.126V262.428H211.516V263.562H214.126V264.912ZM211.606 269.862C211.282 269.304 209.932 267.036 209.464 266.352V265.65H211.318V264.39H209.464V260.934H208.186V264.39H205.972V265.65H208.186C207.7 268.08 206.674 270.942 205.63 272.436C205.864 272.76 206.188 273.336 206.332 273.732C206.998 272.67 207.664 271.032 208.186 269.286V277.368H209.464V268.152C209.95 269.088 210.508 270.24 210.76 270.852L211.606 269.862ZM213.496 268.494H219.724V269.772H213.496V268.494ZM213.496 266.262H219.724V267.54H213.496V266.262ZM221.92 273.408V272.274H216.97C217.06 271.806 217.15 271.302 217.204 270.78H221.002V265.254H212.254V270.78H215.89C215.818 271.302 215.746 271.824 215.638 272.274H211.12V273.408H215.242C214.558 274.776 213.28 275.73 210.652 276.324C210.886 276.576 211.228 277.08 211.336 277.368C214.468 276.612 215.908 275.352 216.628 273.444C217.528 275.406 219.184 276.738 221.488 277.368C221.668 277.026 222.046 276.522 222.334 276.27C220.3 275.838 218.77 274.848 217.888 273.408H221.92ZM224.692 271.14C224.494 272.724 224.116 274.326 223.522 275.424C223.81 275.514 224.35 275.766 224.566 275.928C225.16 274.776 225.592 273.048 225.844 271.356L224.692 271.14ZM229.516 269.826C229.678 270.204 229.786 270.546 229.858 270.852L230.92 270.348C230.668 269.376 229.876 267.846 229.138 266.694L228.148 267.126C228.454 267.612 228.76 268.17 229.03 268.728C228.04 268.764 227.05 268.818 226.15 268.854C227.392 267.306 228.832 265.182 229.876 263.49L228.724 262.986C228.22 263.958 227.536 265.128 226.798 266.262C226.51 265.884 226.132 265.452 225.7 265.02C226.384 264.048 227.14 262.608 227.752 261.402L226.564 260.952C226.186 261.942 225.556 263.292 224.962 264.3C224.782 264.138 224.602 263.976 224.422 263.832L223.738 264.714C224.584 265.47 225.538 266.478 226.096 267.288C225.7 267.882 225.286 268.422 224.89 268.89C224.476 268.908 224.062 268.926 223.702 268.926L223.81 270.132L226.744 269.988V277.404H227.95V269.916L229.516 269.826ZM228.598 271.392C229.084 272.508 229.588 273.948 229.75 274.884L230.812 274.524C230.65 273.588 230.128 272.166 229.606 271.068L228.598 271.392ZM233.062 272.202H237.634V275.64H233.062V272.202ZM237.634 263.166V266.478H233.062V263.166H237.634ZM237.634 270.996H233.062V267.684H237.634V270.996ZM238.948 275.64V261.96H231.766V275.64H229.858V276.864H240.334V275.64H238.948Z" fill="black"/>
<g clip-path="url(#clip0_67_2)">
<path d="M38 86.0007C50.1506 86.0007 60.0007 76.1506 60.0007 64C60.0007 51.8493 50.1506 41.9993 38 41.9993C25.8493 41.9993 15.9993 51.8493 15.9993 64C15.9993 76.1506 25.8493 86.0007 38 86.0007Z" fill="black"/>
<path d="M38 86.0007C50.1506 86.0007 60.0007 76.1506 60.0007 64C60.0007 51.8493 50.1506 41.9993 38 41.9993C25.8493 41.9993 15.9993 51.8493 15.9993 64C15.9993 76.1506 25.8493 86.0007 38 86.0007Z" fill="#FEA735"/>
<path d="M46.6571 62.4124L32.864 62.2907L37.8624 56.5786C38.4399 55.9186 38.3728 54.9159 37.7128 54.3384C37.0531 53.7613 36.0497 53.8279 35.4726 54.4877L28.3458 62.6325C28.0001 62.9208 27.774 63.348 27.7694 63.8331C27.7694 63.8405 27.7715 63.8479 27.7715 63.8553C27.7641 64.2321 27.8883 64.6117 28.1486 64.9172L35.4595 73.496C35.7735 73.8643 36.2194 74.0538 36.6685 74.0538C37.0326 74.0538 37.3984 73.9292 37.6976 73.6745C38.3651 73.1058 38.4448 72.1035 37.8761 71.4364L32.7868 65.4654L46.6288 65.5875C46.6338 65.5875 46.6384 65.5875 46.6433 65.5875C47.5136 65.5875 48.2227 64.8858 48.2305 64.014C48.2383 63.1374 47.5341 62.4201 46.6571 62.4124Z" fill="black"/>
</g>
<path d="M166.024 62.64H168.16V64.824H166.024V62.64ZM166.024 59.208H168.16V61.368H166.024V59.208ZM171.52 61.368H169.36V59.208H171.52V61.368ZM171.52 64.824H169.36V62.64H171.52V64.824ZM169.552 66.168H172.888V57.864H169.552V56.04H173.392V54.504H169.552V51.912H167.968V54.504H164.32V56.04H167.968V57.864H164.68V66.168H167.968V68.088H164.032V69.672H167.968V73.848H169.552V69.672H173.32V68.088H169.552V66.168ZM175.312 67.776V65.784H178.024V67.776H175.312ZM178.024 62.664V64.512H175.312V62.664H178.024ZM179.344 61.32H173.992V73.752H175.312V69.12H178.024V72.288C178.024 72.456 177.976 72.528 177.808 72.528H176.608C176.752 72.888 176.944 73.464 176.968 73.8C177.856 73.8 178.432 73.8 178.84 73.56C179.224 73.32 179.344 72.936 179.344 72.288V61.32ZM182.92 58.032H176.32V59.472H182.92V58.032ZM182.008 61.824H180.688V70.224H182.008V61.824ZM183.904 72.072C183.904 72.336 183.808 72.384 183.544 72.408C183.28 72.432 182.392 72.432 181.408 72.408C181.6 72.792 181.792 73.392 181.864 73.752C183.256 73.752 184.096 73.728 184.672 73.536C185.2 73.272 185.368 72.864 185.368 72.096V60.936H183.904V72.072ZM178.768 52.008C177.64 54.264 175.36 56.88 172.936 58.296C173.224 58.704 173.632 59.328 173.824 59.76C176.248 58.224 178.432 55.776 179.632 53.664C180.976 55.8 183.304 58.176 185.512 59.568C185.776 59.088 186.16 58.416 186.472 58.032C184.24 56.808 181.84 54.432 180.352 52.008H178.768ZM192.52 53.376V55.152H198.424C198.472 56.064 198.568 57.12 198.736 58.224L197.68 58.056C196.216 64.776 193.264 69.6 187.96 72.36C188.44 72.672 189.232 73.416 189.568 73.776C194.344 70.968 197.368 66.6 199.144 60.384C200.224 64.92 202.768 70.176 208.672 73.752C208.984 73.32 209.704 72.552 210.112 72.264C200.704 66.672 200.152 57.624 200.152 53.376H192.52Z" fill="black"/>
<g clip-path="url(#clip1_67_2)">
<rect x="32" y="311" width="311" height="43" rx="21.5" fill="#FFCD6E"/>
<rect x="32" y="370" width="311" height="43" rx="21.5" fill="#FFCD6E"/>
<rect x="32" y="429" width="311" height="43" rx="21.5" fill="#FFCD6E"/>
<rect x="32" y="488" width="311" height="43" rx="21.5" fill="#FFCD6E"/>
<rect x="32" y="547" width="311" height="43" rx="21.5" fill="#FFCD6E"/>
<rect x="32" y="606" width="311" height="43" rx="21.5" fill="#FFCD6E"/>
<rect x="32" y="665" width="311" height="43" rx="21.5" fill="#FFCD6E"/>
<path d="M156.93 326.022C156.174 325.518 154.662 324.69 153.564 324.168L152.826 325.122C153.924 325.716 155.418 326.58 156.156 327.102L156.93 326.022ZM156.012 330.882C155.22 330.378 153.726 329.586 152.682 329.064L151.944 330.036C153.042 330.612 154.518 331.476 155.256 331.98L156.012 330.882ZM153.492 340.134C154.554 338.478 155.814 336.246 156.75 334.356L155.778 333.474C154.734 335.508 153.348 337.884 152.376 339.234L153.492 340.134ZM165.84 338.37H159.45V334.662H165.84V338.37ZM168.288 330.468V329.172H163.356V326.058C164.904 325.788 166.344 325.446 167.514 325.05L166.47 324.006C164.472 324.726 160.854 325.284 157.758 325.608C157.884 325.914 158.064 326.418 158.136 326.742C159.414 326.616 160.764 326.454 162.078 326.256V329.172H156.894V330.468H162.078V333.42H158.208V340.368H159.45V339.612H165.84V340.278H167.118V333.42H163.356V330.468H168.288ZM177.918 327.858C177.918 327.588 177.918 327.336 177.918 327.084V323.97H176.532V327.084C176.532 327.336 176.532 327.588 176.532 327.858H170.7V329.19H176.46C176.19 332.556 175.038 336.498 170.16 339.396C170.484 339.612 170.97 340.134 171.186 340.458C176.406 337.272 177.594 332.916 177.846 329.19H183.984C183.642 335.526 183.246 338.064 182.598 338.676C182.382 338.892 182.148 338.946 181.77 338.946C181.32 338.946 180.168 338.928 178.944 338.82C179.214 339.216 179.376 339.792 179.394 340.188C180.492 340.26 181.644 340.296 182.274 340.242C182.958 340.17 183.39 340.026 183.804 339.522C184.596 338.622 184.974 335.94 185.37 328.56C185.388 328.362 185.406 327.858 185.406 327.858H177.918ZM189.024 332.322C192.138 332.232 196.908 332.034 201.444 331.782C201.912 332.304 202.326 332.79 202.614 333.222L203.766 332.448C202.794 331.098 200.706 329.172 198.942 327.84L197.862 328.506C198.654 329.118 199.5 329.856 200.274 330.594C197.826 330.684 195.342 330.774 193.164 330.846C193.794 329.802 194.46 328.506 195.036 327.372H203.91V326.094H196.764V323.934H195.432V326.094H188.394V327.372H193.452C193.002 328.506 192.336 329.874 191.742 330.9C190.698 330.936 189.762 330.954 188.952 330.972L189.024 332.322ZM193.11 332.808C192.858 336.138 192.156 338.19 187.98 339.216C188.268 339.468 188.628 340.008 188.754 340.35C193.29 339.108 194.208 336.678 194.514 332.808H193.11ZM199.914 338.982C199.212 338.982 199.086 338.874 199.086 338.334V332.7H197.736V338.334C197.736 339.81 198.168 340.242 199.752 340.242H202.308C203.838 340.242 204.198 339.468 204.36 336.444C203.982 336.336 203.424 336.12 203.118 335.868C203.028 338.568 202.92 338.982 202.218 338.982H199.914ZM209.688 330.864C208.986 330.36 207.6 329.568 206.628 329.046L205.944 330.036C206.988 330.612 208.356 331.44 209.022 331.98L209.688 330.864ZM207.474 340.152C208.446 338.478 209.598 336.246 210.48 334.374L209.616 333.492C208.644 335.508 207.348 337.884 206.448 339.252L207.474 340.152ZM206.736 325.176C207.762 325.752 209.184 326.616 209.868 327.174L210.57 326.094C209.85 325.554 208.446 324.744 207.402 324.204L206.736 325.176ZM222.324 327.894V326.598H217.104V323.934H215.754V326.598H210.786V327.894H215.754V330.09H211.56V338.064H212.874V331.386H215.754V340.404H217.104V331.386H220.128V336.444C220.128 336.642 220.074 336.696 219.858 336.696C219.624 336.714 218.94 336.714 218.166 336.696C218.346 337.074 218.508 337.596 218.562 337.992C219.66 337.992 220.398 337.974 220.866 337.74C221.334 337.524 221.442 337.146 221.442 336.462V330.09H217.104V327.894H222.324Z" fill="black"/>
<path d="M170.953 391.34C171.403 390.062 171.745 387.974 171.835 386.534L170.809 386.39C170.683 387.848 170.359 389.792 169.891 390.98L170.953 391.34ZM172.519 399.368H173.815V382.934H172.519V399.368ZM173.995 386.228C174.517 387.308 175.057 388.73 175.273 389.594L176.299 389.108C176.083 388.262 175.507 386.876 174.967 385.796L173.995 386.228ZM178.171 397.136V392.798H184.453V397.136H178.171ZM184.453 387.452V391.538H178.171V387.452H184.453ZM181.213 386.156C181.519 385.292 181.843 384.23 182.131 383.258L180.601 383.06C180.457 383.96 180.151 385.202 179.863 386.156H176.875V399.368H178.171V398.45H184.453V399.224H185.785V386.156H181.213ZM196.855 397.514V392.942H202.633V391.646H196.855V387.722H203.299V386.408H196.855V382.952H195.487V386.408H191.833C192.229 385.49 192.553 384.518 192.841 383.528L191.491 383.24C190.789 385.796 189.637 388.28 188.161 389.864C188.521 390.044 189.115 390.44 189.385 390.656C190.051 389.846 190.681 388.856 191.257 387.722H195.487V391.646H190.141V392.942H195.487V397.514H188.197V398.81H204.145V397.514H196.855Z" fill="black"/>
<path d="M153.024 450.322C156.138 450.232 160.908 450.034 165.444 449.782C165.912 450.304 166.326 450.79 166.614 451.222L167.766 450.448C166.794 449.098 164.706 447.172 162.942 445.84L161.862 446.506C162.654 447.118 163.5 447.856 164.274 448.594C161.826 448.684 159.342 448.774 157.164 448.846C157.794 447.802 158.46 446.506 159.036 445.372H167.91V444.094H160.764V441.934H159.432V444.094H152.394V445.372H157.452C157.002 446.506 156.336 447.874 155.742 448.9C154.698 448.936 153.762 448.954 152.952 448.972L153.024 450.322ZM157.11 450.808C156.858 454.138 156.156 456.19 151.98 457.216C152.268 457.468 152.628 458.008 152.754 458.35C157.29 457.108 158.208 454.678 158.514 450.808H157.11ZM163.914 456.982C163.212 456.982 163.086 456.874 163.086 456.334V450.7H161.736V456.334C161.736 457.81 162.168 458.242 163.752 458.242H166.308C167.838 458.242 168.198 457.468 168.36 454.444C167.982 454.336 167.424 454.12 167.118 453.868C167.028 456.568 166.92 456.982 166.218 456.982H163.914ZM173.58 448.576C172.95 448.018 171.672 447.334 170.628 446.92L169.872 447.892C170.934 448.36 172.212 449.116 172.824 449.674L173.58 448.576ZM171.456 458.152C172.23 456.496 173.13 454.3 173.796 452.428L172.716 451.726C171.996 453.742 170.97 456.046 170.25 457.432L171.456 458.152ZM170.646 443.086C171.654 443.59 172.896 444.418 173.472 445.012L174.264 443.95C173.652 443.356 172.428 442.6 171.42 442.132L170.646 443.086ZM178.224 444.832H182.094V446.344H178.224V444.832ZM183.408 447.496V444.832H186.288V443.644H183.408V441.934H182.094V443.644H178.224V441.934H176.946V443.644H174.264V444.832H176.946V447.496H179.502V448.774H174.678V458.332H175.848V449.926H179.502V455.254C178.746 454.462 178.314 452.896 178.242 450.952H176.532V451.87H177.558C177.576 452.104 177.594 452.338 177.63 452.554H177.324C177.198 453.652 176.766 454.858 175.902 455.542C176.082 455.65 176.37 455.92 176.496 456.1C177.18 455.524 177.612 454.714 177.882 453.814C178.116 454.732 178.494 455.47 178.98 455.974C179.088 455.794 179.322 455.578 179.502 455.434V458.17H180.708V449.926H184.542V455.254C183.678 454.498 183.156 452.95 183.066 450.952H181.356V451.87H182.382C182.4 452.104 182.436 452.32 182.454 452.536H182.166C182.04 453.598 181.608 454.75 180.726 455.398C180.924 455.524 181.212 455.794 181.32 455.974C182.004 455.416 182.454 454.624 182.724 453.76C182.994 454.696 183.408 455.416 183.93 455.92C184.056 455.722 184.344 455.488 184.542 455.344V457.054C184.542 457.27 184.47 457.306 184.254 457.306C184.038 457.324 183.336 457.324 182.58 457.306C182.724 457.612 182.868 458.026 182.922 458.332C184.02 458.332 184.74 458.314 185.172 458.152C185.604 457.972 185.73 457.666 185.73 457.054V448.774H180.708V447.496H183.408ZM193.326 446.866C193.092 449.224 192.624 451.204 191.94 452.824C191.256 452.338 190.536 451.888 189.852 451.492C190.212 450.07 190.59 448.468 190.95 446.866H193.326ZM193.884 445.588L193.65 445.642H191.22C191.49 444.4 191.742 443.194 191.958 442.096L190.68 441.952C190.482 443.068 190.23 444.346 189.942 445.642H187.98V446.866H189.69C189.186 449.116 188.646 451.33 188.214 452.878L189.33 453.454L189.528 452.698C190.158 453.094 190.788 453.526 191.382 453.976C190.536 455.524 189.438 456.64 188.124 457.324C188.412 457.594 188.772 458.08 188.952 458.404C190.356 457.558 191.508 456.388 192.408 454.786C193.164 455.416 193.812 456.046 194.244 456.586L195.054 455.524C194.568 454.93 193.848 454.264 193.002 453.616C193.884 451.6 194.442 449.026 194.676 445.768L193.884 445.588ZM204.414 449.152H200.13V447.55C201.498 446.488 203.028 444.868 204.036 443.428L203.154 442.78L202.884 442.87H195.18V444.094H201.912C201.192 445.012 200.238 446.038 199.338 446.758H198.798V449.152H194.586V450.394H198.798V456.676C198.798 456.946 198.708 457.036 198.402 457.054C198.096 457.072 197.088 457.072 195.954 457.036C196.152 457.378 196.386 457.972 196.458 458.332C197.88 458.332 198.816 458.296 199.374 458.098C199.95 457.882 200.13 457.486 200.13 456.676V450.394H204.414V449.152ZM221.01 447.892C219.372 447.118 216.564 445.984 214.278 445.21C214.332 445.084 214.386 444.94 214.44 444.796H221.28V443.608H214.764C214.872 443.104 214.962 442.528 215.016 441.934H213.648C213.594 442.546 213.504 443.104 213.396 443.608H207.042V444.796H213C212.226 446.452 210.552 447.37 206.754 447.838C206.97 448.09 207.258 448.594 207.366 448.882C210.732 448.432 212.604 447.586 213.684 446.2C215.934 446.992 218.562 448.108 220.038 448.846L221.01 447.892ZM213.846 452.77V455.218H209.274V452.77H213.846ZM215.142 456.316V451.672H207.996V457.486H209.274V456.316H215.142ZM222.162 449.008H206.142V450.232H218.328V456.73C218.328 457.036 218.238 457.108 217.878 457.144C217.518 457.144 216.276 457.162 214.908 457.108C215.106 457.486 215.34 458.008 215.412 458.386C217.068 458.386 218.184 458.368 218.832 458.17C219.48 457.954 219.678 457.576 219.678 456.748V450.232H222.162V449.008Z" fill="black"/>
<path d="M184.938 502.554C184.884 504.048 184.812 504.624 184.686 504.822C184.596 504.912 184.488 504.93 184.308 504.93C184.146 504.93 183.786 504.93 183.336 504.876C183.498 505.182 183.606 505.668 183.624 505.992C184.11 506.01 184.614 505.992 184.884 505.974C185.244 505.938 185.496 505.83 185.694 505.578C185.982 505.218 186.072 504.3 186.144 501.996C186.162 501.834 186.162 501.51 186.162 501.51H180.438V502.554H182.022C181.806 503.85 181.266 504.912 179.952 505.542C180.204 505.722 180.528 506.118 180.672 506.388C182.274 505.578 182.922 504.246 183.192 502.554H184.938ZM181.896 511.824H184.758V513.066H181.896V511.824ZM181.896 509.718H184.758V510.942H181.896V509.718ZM181.896 507.612H184.758V508.818H181.896V507.612ZM180.798 514.038H185.892V506.64H180.798V514.038ZM170.502 504.066C170.502 505.632 170.25 507.576 169.692 508.674L170.538 509.052C171.15 507.81 171.402 505.776 171.384 504.192L170.502 504.066ZM171.942 517.35H173.166V500.934H171.942V517.35ZM175.704 506.91H176.964V509.79H175.704V506.91ZM179.106 509.79H177.882V506.91H179.106V509.79ZM180.51 513.606C180.15 513.192 178.62 511.608 178.008 511.05V510.852H180.096V505.848H178.008V504.012H180.222V502.914H178.008V500.952H176.82V502.914H174.624V504.012H176.82V505.848H174.858C174.768 505.2 174.498 504.264 174.192 503.49L173.364 503.76C173.688 504.588 173.958 505.704 173.994 506.388L174.75 506.082V510.852H176.388C175.794 512.382 174.858 514.002 173.922 514.902C174.138 515.226 174.408 515.73 174.534 516.09C175.38 515.19 176.208 513.678 176.82 512.166V517.368H178.008V512.328C178.674 513.084 179.52 514.056 179.862 514.56L180.51 513.606ZM181.608 514.326C181.104 515.172 180.24 516.018 179.34 516.594C179.61 516.792 180.06 517.206 180.276 517.44C181.194 516.756 182.166 515.694 182.778 514.668L181.608 514.326ZM183.768 514.74C184.452 515.55 185.244 516.666 185.604 517.368L186.666 516.81C186.306 516.126 185.496 515.046 184.776 514.272L183.768 514.74ZM191.238 504.246H193.56V506.37H191.238V504.246ZM196.656 506.37H194.802V504.246H196.62V503.112H194.802V501.114H193.56V503.112H191.238V501.114H190.014V503.112H188.214V504.246H190.014V506.37H187.926V507.522H196.656V506.37ZM190.446 513.318V512.058H194.37V513.318H190.446ZM194.37 509.772V511.032H190.446V509.772H194.37ZM195.612 508.71H189.204V517.386H190.446V514.362H194.37V515.964C194.37 516.162 194.298 516.234 194.082 516.252C193.884 516.252 193.2 516.27 192.408 516.234C192.57 516.558 192.75 517.026 192.786 517.35C193.884 517.35 194.604 517.35 195.036 517.152C195.486 516.954 195.612 516.63 195.612 515.982V508.71ZM198.78 505.524H201.858C201.552 507.756 201.084 509.682 200.364 511.32C199.608 509.646 199.104 507.702 198.744 505.65L198.78 505.524ZM204.36 505.524V504.264H199.122C199.374 503.256 199.572 502.194 199.752 501.132L198.456 500.934C198.006 503.958 197.232 506.928 195.954 508.836C196.224 509.088 196.692 509.646 196.872 509.934C197.304 509.268 197.7 508.512 198.024 507.702C198.438 509.52 198.942 511.212 199.608 512.688C198.69 514.2 197.412 515.388 195.684 516.27C195.954 516.522 196.35 517.116 196.476 517.404C198.078 516.486 199.338 515.37 200.31 513.984C201.156 515.424 202.218 516.576 203.55 517.386C203.766 517.026 204.18 516.504 204.504 516.252C203.082 515.478 201.948 514.272 201.066 512.742C202.11 510.798 202.758 508.404 203.154 505.524H204.36Z" fill="black"/>
<path d="M155.832 564.722H164.67V566.504H155.832V564.722ZM155.832 561.878H164.67V563.66H155.832V561.878ZM156.966 569.15C157.344 568.664 157.74 568.16 158.046 567.638H166.02V560.762H154.518V567.638H156.498C155.364 569.294 153.636 570.77 151.89 571.76C152.214 571.976 152.718 572.444 152.934 572.696C153.924 572.084 154.932 571.274 155.85 570.356H158.352C157.164 572.282 155.328 573.974 153.402 575.054C153.708 575.288 154.212 575.774 154.428 576.008C156.48 574.694 158.514 572.678 159.828 570.356H162.258C161.394 572.498 160.026 574.406 158.37 575.648C158.694 575.828 159.216 576.26 159.45 576.476C161.16 575.054 162.672 572.876 163.626 570.356H165.822C165.534 573.452 165.228 574.73 164.832 575.09C164.67 575.27 164.49 575.288 164.184 575.288C163.86 575.288 163.032 575.288 162.168 575.198C162.366 575.522 162.51 576.008 162.528 576.368C163.428 576.422 164.292 576.422 164.742 576.386C165.264 576.368 165.606 576.242 165.948 575.882C166.488 575.324 166.848 573.776 167.19 569.762C167.226 569.564 167.244 569.15 167.244 569.15H156.966ZM173.202 566.576C173.22 565.766 173.256 564.938 173.256 564.11H177.612V562.868H174.48V559.97H173.166V562.868H169.998V564.11H171.942C171.888 568.7 171.69 573.074 169.746 575.486C170.07 575.72 170.538 576.152 170.736 576.44C172.356 574.406 172.914 571.31 173.13 567.8H175.434C175.326 572.768 175.2 574.532 174.894 574.946C174.75 575.144 174.606 575.198 174.336 575.18C174.066 575.18 173.382 575.18 172.644 575.126C172.86 575.45 172.986 575.972 173.004 576.332C173.76 576.368 174.516 576.368 174.948 576.332C175.416 576.278 175.74 576.152 176.01 575.756C176.478 575.144 176.604 573.128 176.73 567.206C176.748 567.008 176.748 566.576 176.748 566.576H173.202ZM178.242 572.516C180.42 573.524 183.048 575.162 184.29 576.368L185.154 575.216C183.858 574.01 181.212 572.444 179.052 571.49L178.242 572.516ZM183.894 569.51C183.228 568.682 181.77 567.566 180.546 566.828L179.682 567.674C180.906 568.448 182.328 569.618 182.976 570.446L183.894 569.51ZM180.888 559.952C180.222 562.382 178.638 565.082 176.838 566.486C177.09 566.81 177.396 567.35 177.54 567.71C179.358 566.216 180.888 563.66 181.626 561.482C182.472 563.75 184.038 566.216 185.838 567.674C186.018 567.278 186.306 566.738 186.54 566.396C184.83 565.154 183.174 562.58 182.238 559.952H180.888ZM195.756 561.824H192.714V559.988H191.436V561.824H188.286V562.958H195.756V561.824ZM189.384 563.264C189.744 564.11 190.014 565.244 190.086 565.982L191.202 565.694C191.13 564.974 190.806 563.858 190.41 563.03L189.384 563.264ZM193.686 562.994C193.524 563.804 193.146 564.974 192.894 565.712L193.92 565.982C194.226 565.28 194.586 564.218 194.892 563.282L193.686 562.994ZM195.81 573.092C195.378 572.678 193.506 571.112 192.75 570.536V570.104H195.81V568.97H192.75V567.134H195.954V565.982H187.926V567.134H191.472V568.97H188.106V570.104H191.13C190.32 571.688 188.988 573.272 187.746 574.118C188.034 574.37 188.358 574.82 188.538 575.144C189.564 574.334 190.644 573.056 191.472 571.724V576.35H192.75V571.814C193.56 572.588 194.568 573.578 194.982 574.082L195.81 573.092ZM197.79 567.8H202.29V569.672H197.79V567.8ZM197.79 564.83H202.29V566.702H197.79V564.83ZM197.79 561.914H202.29V563.768H197.79V561.914ZM202.002 574.964C201.678 574.964 201.624 574.91 201.624 574.496V570.878H203.55V560.726H196.566V570.878H197.736C197.52 573.128 196.926 574.604 194.55 575.432C194.82 575.666 195.162 576.134 195.306 576.422C197.97 575.378 198.726 573.596 198.978 570.878H200.4V574.514C200.4 575.756 200.67 576.152 201.822 576.152H203.118C204.108 576.152 204.45 575.558 204.522 573.092C204.198 573.002 203.676 572.804 203.424 572.606C203.388 574.712 203.334 574.964 202.974 574.964H202.002ZM217.554 566.468V573.848H218.886V566.468H222.216V565.226H213.918V562.49C216.438 562.166 219.264 561.68 221.226 561.014L220.092 560.006C218.616 560.564 216.042 561.05 213.684 561.392L212.622 561.158V565.316C212.622 567.512 212.388 570.356 210.426 572.48C210.75 572.66 211.218 573.11 211.38 573.398C213.252 571.4 213.774 568.7 213.882 566.468H217.554ZM210.39 563.156C209.76 562.292 208.41 561.14 207.258 560.384L206.268 561.194C207.438 561.986 208.77 563.174 209.328 564.038L210.39 563.156ZM209.886 566.99H206.07V568.25H208.572V572.804C207.672 573.56 206.664 574.316 205.836 574.856L206.556 576.206C207.51 575.432 208.41 574.658 209.274 573.902C210.426 575.288 212.028 575.936 214.368 576.026C216.348 576.098 220.038 576.062 222 575.99C222.054 575.576 222.288 574.946 222.432 574.622C220.326 574.766 216.33 574.82 214.368 574.748C212.298 574.658 210.732 574.046 209.886 572.732V566.99Z" fill="black"/>
<path d="M167.713 620.86C168.181 621.562 168.631 622.498 168.757 623.11H165.571L166.165 622.858C165.985 622.3 165.535 621.544 165.031 620.95C165.985 620.896 166.957 620.842 167.929 620.788L167.713 620.86ZM162.871 624.19H167.983L167.461 624.748C168.415 625.162 169.567 625.846 170.125 626.332L170.827 625.522C170.323 625.09 169.369 624.586 168.523 624.19H175.345V626.35H176.641V623.11H173.401C173.923 622.462 174.481 621.688 174.967 620.95L173.707 620.464C173.311 621.238 172.591 622.372 172.051 623.11H168.811L169.927 622.714C169.783 622.156 169.405 621.364 168.955 620.698C171.493 620.518 173.905 620.23 175.741 619.87L174.859 618.934C171.961 619.51 166.579 619.888 162.187 620.014C162.313 620.266 162.439 620.734 162.475 621.04C163.069 621.022 163.681 621.004 164.311 620.968L163.789 621.184C164.239 621.76 164.725 622.534 164.941 623.11H161.629V626.224H162.871V624.19ZM172.483 625.666C173.527 626.494 174.715 627.718 175.255 628.528L176.209 627.79C175.669 626.98 174.445 625.828 173.401 625.036L172.483 625.666ZM162.997 628.744C164.203 628.042 164.869 626.854 165.283 625.684L164.275 625.252C163.879 626.332 163.159 627.394 162.079 627.97L162.997 628.744ZM172.015 630.544C171.277 631.3 170.305 631.93 169.171 632.434C167.983 631.912 166.993 631.282 166.237 630.544H172.015ZM173.149 629.5L172.933 629.554H167.335C167.713 629.212 168.037 628.852 168.343 628.474L168.019 628.366H170.935C172.105 628.366 172.447 628.024 172.573 626.566C172.231 626.494 171.763 626.368 171.511 626.188C171.439 627.25 171.331 627.376 170.773 627.376H168.145C167.389 627.376 167.263 627.304 167.263 626.944V625.234H166.021V626.962C166.021 627.79 166.237 628.168 166.993 628.294C165.679 629.806 163.519 631.084 161.413 631.894C161.665 632.11 162.151 632.542 162.349 632.776C163.321 632.344 164.347 631.786 165.301 631.156C165.985 631.858 166.813 632.47 167.749 632.992C165.787 633.658 163.501 634.072 161.161 634.288C161.413 634.558 161.737 635.098 161.863 635.404C164.437 635.08 166.993 634.558 169.153 633.676C171.259 634.558 173.779 635.116 176.425 635.386C176.605 635.044 176.911 634.486 177.199 634.216C174.805 634.036 172.537 633.622 170.611 632.992C172.015 632.236 173.167 631.264 173.995 630.058L173.149 629.5ZM183.697 626.62C183.139 626.8 182.599 626.98 182.059 627.16V623.794H183.697V622.552H182.059V618.952H180.889V622.552H178.945V623.794H180.889V627.556C180.061 627.826 179.305 628.06 178.675 628.24L179.035 629.536L180.889 628.888V633.892C180.889 634.126 180.799 634.198 180.565 634.198C180.385 634.216 179.701 634.216 178.945 634.198C179.107 634.558 179.269 635.062 179.323 635.386C180.403 635.386 181.069 635.35 181.465 635.152C181.897 634.936 182.059 634.594 182.059 633.892V628.492L183.895 627.844L183.697 626.62ZM189.205 626.62C189.421 626.872 189.655 627.16 189.763 627.322C190.015 626.926 190.249 626.476 190.465 625.972C190.699 627.646 191.095 629.374 191.707 630.958C191.095 632.308 190.285 633.478 189.187 634.396C189.205 634.306 189.205 634.18 189.205 634.054V626.62ZM193.345 623.614C193.129 625.792 192.823 627.754 192.265 629.446C191.671 627.664 191.329 625.738 191.149 623.992C191.185 623.866 191.221 623.74 191.257 623.614H193.345ZM185.317 631.03V629.626H188.089V631.03H185.317ZM188.089 627.232V628.618H185.317V627.232H188.089ZM185.947 622.066H187.513V624.154H185.947V622.066ZM195.271 623.614V622.426H191.527C191.761 621.364 191.941 620.248 192.085 619.15L190.933 618.97C190.699 620.932 190.339 622.876 189.799 624.478V624.154H188.611V622.066H189.655V621.004H188.611V619.168H187.513V621.004H185.947V619.168H184.849V621.004H183.661V622.066H184.849V624.154H183.373V625.234H189.511C189.367 625.576 189.205 625.882 189.043 626.188H184.183V635.296H185.317V632.02H188.089V634.036C188.089 634.198 188.053 634.252 187.891 634.27C187.711 634.27 187.279 634.27 186.739 634.252C186.901 634.54 187.063 634.954 187.117 635.26C187.873 635.26 188.413 635.242 188.755 635.062C188.971 634.954 189.079 634.81 189.151 634.612C189.403 634.846 189.727 635.242 189.853 635.44C190.861 634.558 191.671 633.496 192.301 632.308C192.931 633.514 193.741 634.612 194.785 635.422C194.947 635.116 195.343 634.648 195.595 634.432C194.425 633.586 193.543 632.398 192.913 631.012C193.741 628.96 194.209 626.494 194.515 623.614H195.271ZM201.301 623.848C201.139 626.152 200.797 628.096 200.257 629.698C199.699 629.212 199.123 628.744 198.565 628.33C198.853 626.944 199.159 625.396 199.447 623.848H201.301ZM201.823 622.606L201.589 622.642H199.663C199.897 621.382 200.095 620.158 200.275 619.06L199.051 618.952C198.889 620.068 198.691 621.346 198.457 622.642H196.927V623.848H198.259C197.845 626.08 197.413 628.258 197.035 629.788L198.115 630.418L198.295 629.644C198.781 630.04 199.285 630.49 199.771 630.94C199.069 632.506 198.133 633.622 196.999 634.324C197.287 634.594 197.629 635.062 197.809 635.386C199.033 634.558 200.005 633.424 200.743 631.894C201.391 632.578 201.949 633.226 202.309 633.784L203.155 632.722C202.723 632.092 202.057 631.354 201.265 630.616C201.985 628.6 202.417 626.008 202.579 622.714L201.823 622.606ZM209.329 631.066V632.614H206.629V631.066H209.329ZM210.301 633.514V630.166H205.675V634.27H206.629V633.514H210.301ZM212.767 628.222H203.191V635.386H204.397V629.266H211.561V634.036C211.561 634.216 211.507 634.288 211.309 634.288C211.111 634.288 210.463 634.288 209.725 634.27C209.887 634.576 210.049 635.044 210.103 635.35C211.147 635.35 211.813 635.332 212.245 635.152C212.659 634.972 212.767 634.63 212.767 634.054V628.222ZM209.761 626.44H206.143V624.892H209.761V626.44ZM209.059 622.84C209.293 623.236 209.563 623.614 209.887 623.992H206.287C206.593 623.632 206.845 623.254 207.097 622.84H209.059ZM213.199 622.84V621.832H207.601C207.781 621.418 207.943 620.968 208.069 620.5C209.671 620.374 211.183 620.176 212.353 619.924L211.417 619.042C209.581 619.456 206.071 619.69 203.209 619.762C203.335 620.014 203.479 620.428 203.515 620.698C204.559 620.698 205.675 620.662 206.791 620.59C206.665 621.022 206.503 621.436 206.305 621.832H202.867V622.84H205.711C204.919 623.974 203.821 624.838 202.507 625.432C202.759 625.63 203.155 626.134 203.299 626.368C203.911 626.062 204.469 625.684 204.991 625.27V627.34H210.985V625.108C211.543 625.594 212.137 625.99 212.731 626.296C212.929 625.99 213.289 625.558 213.559 625.36C212.317 624.856 211.075 623.902 210.265 622.84H213.199Z" fill="black"/>
<path d="M167.965 687.978L164.959 688.752V681.48H167.749V680.202H161.017V681.48H163.645V689.076C162.547 689.364 161.557 689.616 160.765 689.796L161.107 691.164C163.015 690.642 165.625 689.886 168.091 689.184L167.965 687.978ZM174.409 682.56C173.959 685.026 173.221 687.042 172.123 688.644C171.061 686.934 170.305 684.846 169.801 682.56H174.409ZM177.325 682.56V681.264H170.269C170.647 680.274 170.953 679.23 171.241 678.186L169.909 677.934C169.189 680.958 167.965 683.91 166.327 685.782C166.651 685.962 167.227 686.376 167.479 686.556C168.019 685.908 168.505 685.116 168.937 684.252C169.513 686.358 170.251 688.212 171.241 689.778C169.873 691.29 168.055 692.406 165.661 693.18C165.895 693.486 166.273 694.098 166.399 694.422C168.775 693.558 170.611 692.406 172.033 690.894C173.221 692.424 174.715 693.594 176.587 694.386C176.803 694.008 177.199 693.486 177.523 693.216C175.633 692.514 174.121 691.344 172.933 689.814C174.301 687.942 175.201 685.584 175.813 682.56H177.325ZM180.853 682.722V682.074H182.581V682.722H180.853ZM180.853 680.85H182.581V681.444H180.853V680.85ZM185.479 680.85V681.444H183.661V680.85H185.479ZM185.479 682.722H183.661V682.074H185.479V682.722ZM182.581 685.854H180.997V684.846H180.007V686.646H186.361V684.846H185.353V685.854H183.661V684.666H187.117V683.892H183.661V683.334H186.451V680.22H183.661V679.626H187.027V678.834H183.661V677.952H182.581V678.834H179.323V679.626H182.581V680.22H179.899V683.334H182.581V683.892H179.089V684.666H182.581V685.854ZM187.783 689.832H194.047V688.932H187.783V687.924C189.565 687.816 191.239 687.618 192.517 687.366L191.599 686.628C189.277 687.096 184.633 687.294 180.907 687.312C180.997 687.528 181.123 687.906 181.141 688.122C182.833 688.122 184.687 688.104 186.487 688.014V688.932H180.385V689.832H186.487V690.804H179.287V691.758H186.487V693.036C186.487 693.288 186.379 693.342 186.091 693.36C185.803 693.378 184.777 693.378 183.715 693.342C183.877 693.648 184.057 694.08 184.147 694.368C185.605 694.386 186.505 694.386 187.063 694.206C187.603 694.044 187.783 693.756 187.783 693.072V691.758H195.055V690.804H187.783V689.832ZM192.679 683.262C192.229 683.892 191.599 684.396 190.843 684.792C190.159 684.36 189.619 683.856 189.241 683.262H192.679ZM193.561 682.308L193.345 682.344H187.819C189.187 681.606 189.511 680.526 189.511 679.572V679.482H191.779V680.274C191.779 681.066 191.851 681.336 192.067 681.552C192.283 681.75 192.679 681.822 192.985 681.822H193.813C194.047 681.822 194.371 681.804 194.551 681.714C194.749 681.642 194.911 681.498 195.019 681.3C195.109 681.12 195.181 680.616 195.199 680.148C194.911 680.076 194.569 679.914 194.353 679.716C194.335 680.13 194.317 680.436 194.281 680.58C194.245 680.724 194.155 680.796 194.101 680.814C194.029 680.85 193.885 680.85 193.741 680.85H193.273C193.147 680.85 193.057 680.85 193.003 680.796C192.931 680.742 192.931 680.58 192.931 680.328V678.492H188.377V679.554C188.377 680.22 188.161 680.94 186.937 681.534C187.171 681.678 187.585 682.092 187.765 682.344H187.423V683.262H188.953L188.197 683.496C188.593 684.162 189.133 684.756 189.781 685.26C188.935 685.566 187.981 685.764 186.991 685.89C187.189 686.124 187.423 686.52 187.513 686.808C188.683 686.61 189.781 686.34 190.753 685.908C191.869 686.556 193.219 687.006 194.695 687.258C194.839 686.97 195.163 686.52 195.415 686.286C194.101 686.124 192.877 685.8 191.851 685.332C192.913 684.666 193.723 683.766 194.209 682.524L193.561 682.308ZM197.737 686.304C198.205 684.99 198.547 682.956 198.637 681.48L197.629 681.336C197.503 682.794 197.179 684.756 196.693 685.944L197.737 686.304ZM199.285 694.368H200.617V677.934H199.285V694.368ZM200.743 681.246C201.247 682.236 201.787 683.532 201.985 684.306L202.993 683.82C202.777 683.064 202.219 681.786 201.679 680.814L200.743 681.246ZM208.645 692.478V687.978H212.317V686.736H208.645V683.01H212.713V681.732H208.645V678.006H207.313V681.732H205.063C205.315 680.85 205.531 679.914 205.711 678.978L204.415 678.762C204.001 681.21 203.281 683.622 202.237 685.188C202.561 685.332 203.155 685.62 203.425 685.8C203.911 685.026 204.325 684.09 204.685 683.01H207.313V686.736H203.497V687.978H207.313V692.478H202.165V693.756H213.145V692.478H208.645Z" fill="black"/>
<path d="M326.064 333.325H311.337C310.598 333.325 310 332.732 310 332C310 331.268 310.598 330.675 311.337 330.675H326.064C326.802 330.675 327.4 331.268 327.4 332C327.4 332.732 326.802 333.325 326.064 333.325Z" fill="white"/>
<path d="M318.7 341C317.962 341 317.364 340.407 317.364 339.675V324.325C317.364 323.594 317.962 323 318.7 323C319.438 323 320.036 323.593 320.036 324.325V339.675C320.036 340.407 319.438 341 318.7 341Z" fill="white"/>
<path d="M326.064 392.325H311.337C310.598 392.325 310 391.732 310 391C310 390.268 310.598 389.675 311.337 389.675H326.064C326.802 389.675 327.4 390.268 327.4 391C327.4 391.732 326.802 392.325 326.064 392.325Z" fill="white"/>
<path d="M318.7 400C317.962 400 317.364 399.407 317.364 398.675V383.325C317.364 382.594 317.962 382 318.7 382C319.438 382 320.036 382.593 320.036 383.325V398.675C320.036 399.407 319.438 400 318.7 400Z" fill="white"/>
<path d="M326.064 451.325H311.337C310.598 451.325 310 450.732 310 450C310 449.268 310.598 448.675 311.337 448.675H326.064C326.802 448.675 327.4 449.268 327.4 450C327.4 450.732 326.802 451.325 326.064 451.325Z" fill="white"/>
<path d="M318.7 459C317.962 459 317.364 458.407 317.364 457.675V442.325C317.364 441.594 317.962 441 318.7 441C319.438 441 320.036 441.593 320.036 442.325V457.675C320.036 458.407 319.438 459 318.7 459Z" fill="white"/>
<path d="M326.064 510.325H311.337C310.598 510.325 310 509.732 310 509C310 508.268 310.598 507.675 311.337 507.675H326.064C326.802 507.675 327.4 508.268 327.4 509C327.4 509.732 326.802 510.325 326.064 510.325Z" fill="white"/>
<path d="M318.7 518C317.962 518 317.364 517.407 317.364 516.675V501.325C317.364 500.594 317.962 500 318.7 500C319.438 500 320.036 500.593 320.036 501.325V516.675C320.036 517.407 319.438 518 318.7 518Z" fill="white"/>
<path d="M326.064 569.325H311.337C310.598 569.325 310 568.732 310 568C310 567.268 310.598 566.675 311.337 566.675H326.064C326.802 566.675 327.4 567.268 327.4 568C327.4 568.732 326.802 569.325 326.064 569.325Z" fill="white"/>
<path d="M318.7 577C317.962 577 317.364 576.407 317.364 575.675V560.325C317.364 559.594 317.962 559 318.7 559C319.438 559 320.036 559.593 320.036 560.325V575.675C320.036 576.407 319.438 577 318.7 577Z" fill="white"/>
<path d="M326.064 628.325H311.337C310.598 628.325 310 627.732 310 627C310 626.268 310.598 625.675 311.337 625.675H326.064C326.802 625.675 327.4 626.268 327.4 627C327.4 627.732 326.802 628.325 326.064 628.325Z" fill="white"/>
<path d="M318.7 636C317.962 636 317.364 635.407 317.364 634.675V619.325C317.364 618.594 317.962 618 318.7 618C319.438 618 320.036 618.593 320.036 619.325V634.675C320.036 635.407 319.438 636 318.7 636Z" fill="white"/>
<path d="M326.064 687.325H311.337C310.598 687.325 310 686.732 310 686C310 685.268 310.598 684.675 311.337 684.675H326.064C326.802 684.675 327.4 685.268 327.4 686C327.4 686.732 326.802 687.325 326.064 687.325Z" fill="white"/>
<path d="M318.7 695C317.962 695 317.364 694.407 317.364 693.675V678.325C317.364 677.594 317.962 677 318.7 677C319.438 677 320.036 677.593 320.036 678.325V693.675C320.036 694.407 319.438 695 318.7 695Z" fill="white"/>
</g>
<path opacity="0.35" d="M336.812 18.6692C336.812 17.4726 337.782 16.5026 338.979 16.5026H355.469C356.666 16.5026 357.636 17.4726 357.636 18.6692V24.6692C357.636 25.8658 356.666 26.8359 355.469 26.8359H338.979C337.782 26.8359 336.812 25.8658 336.812 24.6692V18.6692Z" stroke="black"/>
<path opacity="0.4" d="M359.128 19.6692V23.6692C359.926 23.3304 360.445 22.5423 360.445 21.6692C360.445 20.7961 359.926 20.008 359.128 19.6692Z" fill="black"/>
<path d="M338.296 19.3359C338.296 18.5995 338.893 18.0026 339.629 18.0026H354.819C355.555 18.0026 356.152 18.5995 356.152 19.3359V24.0026C356.152 24.7389 355.555 25.3359 354.819 25.3359H339.629C338.893 25.3359 338.296 24.7389 338.296 24.0026V19.3359Z" fill="black"/>
<path fill-rule="evenodd" clip-rule="evenodd" d="M323.744 18.2773C325.942 18.2774 328.056 19.1289 329.649 20.6557C329.769 20.7735 329.961 20.772 330.079 20.6523L331.226 19.4857C331.286 19.4249 331.319 19.3427 331.318 19.2571C331.318 19.1715 331.284 19.0897 331.223 19.0297C327.042 14.9901 320.445 14.9901 316.264 19.0297C316.203 19.0896 316.169 19.1715 316.168 19.257C316.168 19.3426 316.201 19.4249 316.261 19.4857L317.408 20.6523C317.526 20.7722 317.718 20.7737 317.838 20.6557C319.431 19.1288 321.545 18.2773 323.744 18.2773ZM323.744 22.073C324.952 22.0729 326.116 22.5255 327.011 23.3427C327.133 23.4587 327.323 23.4562 327.441 23.337L328.587 22.1704C328.647 22.1092 328.681 22.0261 328.68 21.9399C328.679 21.8536 328.644 21.7713 328.582 21.7114C325.856 19.155 321.634 19.155 318.908 21.7114C318.846 21.7713 318.811 21.8537 318.81 21.9399C318.809 22.0262 318.843 22.1092 318.903 22.1704L320.049 23.337C320.167 23.4562 320.357 23.4587 320.478 23.3427C321.373 22.526 322.537 22.0735 323.744 22.073ZM326.038 24.6268C326.04 24.7133 326.006 24.7967 325.945 24.8573L323.964 26.873C323.906 26.9323 323.826 26.9656 323.744 26.9656C323.661 26.9656 323.582 26.9323 323.524 26.873L321.542 24.8573C321.481 24.7967 321.447 24.7133 321.449 24.6268C321.451 24.5403 321.488 24.4583 321.552 24.4003C322.817 23.3215 324.67 23.3215 325.936 24.4003C325.999 24.4584 326.037 24.5403 326.038 24.6268Z" fill="black"/>
<path fill-rule="evenodd" clip-rule="evenodd" d="M312.189 16.3359H311.197C310.65 16.3359 310.205 16.7837 310.205 17.3359V26.0026C310.205 26.5549 310.65 27.0026 311.197 27.0026H312.189C312.737 27.0026 313.181 26.5549 313.181 26.0026V17.3359C313.181 16.7837 312.737 16.3359 312.189 16.3359ZM306.568 18.6693H307.56C308.108 18.6693 308.552 19.117 308.552 19.6693V26.0026C308.552 26.5549 308.108 27.0026 307.56 27.0026H306.568C306.02 27.0026 305.576 26.5549 305.576 26.0026V19.6693C305.576 19.117 306.02 18.6693 306.568 18.6693ZM302.931 21.0026H301.939C301.391 21.0026 300.947 21.4503 300.947 22.0026V26.0026C300.947 26.5549 301.391 27.0026 301.939 27.0026H302.931C303.479 27.0026 303.923 26.5549 303.923 26.0026V22.0026C303.923 21.4503 303.479 21.0026 302.931 21.0026ZM298.301 23.0026H297.309C296.762 23.0026 296.317 23.4503 296.317 24.0026V26.0026C296.317 26.5549 296.762 27.0026 297.309 27.0026H298.301C298.849 27.0026 299.293 26.5549 299.293 26.0026V24.0026C299.293 23.4503 298.849 23.0026 298.301 23.0026Z" fill="black"/>
<path d="M38.4455 22.8765C37.9133 23.355 37.3176 23.5942 36.6584 23.5942C35.6916 23.5942 34.925 23.2671 34.3586 22.6128C33.7922 21.9585 33.509 21.0845 33.509 19.9907C33.509 19.3071 33.6677 18.6724 33.9851 18.0864C34.3025 17.5005 34.7468 17.0366 35.3181 16.6948C35.8943 16.353 36.529 16.1821 37.2224 16.1821C37.9255 16.1821 38.5603 16.3604 39.1267 16.7168C39.698 17.0684 40.1423 17.5688 40.4597 18.2183C40.7771 18.8628 40.9406 19.6074 40.9504 20.4521V21.397C40.9504 22.5737 40.7185 23.5942 40.2546 24.4585C39.7956 25.3228 39.1389 25.9868 38.2844 26.4507C37.4299 26.9146 36.4338 27.1465 35.2961 27.1465H35.1423V25.1689L35.6111 25.1616C37.3103 25.0786 38.2551 24.3169 38.4455 22.8765ZM37.3249 21.8145C37.862 21.8145 38.2478 21.5825 38.4821 21.1187V20.0933C38.4821 19.4097 38.3674 18.9043 38.1379 18.5771C37.9084 18.25 37.5984 18.0864 37.2077 18.0864C36.8611 18.0864 36.5705 18.272 36.3361 18.6431C36.1018 19.0142 35.9846 19.4634 35.9846 19.9907C35.9846 20.5474 36.1042 20.9917 36.3435 21.3237C36.5827 21.6509 36.9099 21.8145 37.3249 21.8145ZM43.5435 24.605C43.9341 24.605 44.2588 24.7222 44.5176 24.9565C44.7764 25.186 44.9058 25.4814 44.9058 25.8428C44.9058 26.2041 44.7764 26.502 44.5176 26.7363C44.2588 26.9658 43.9341 27.0806 43.5435 27.0806C43.148 27.0806 42.8208 26.9634 42.562 26.729C42.3081 26.4946 42.1812 26.1992 42.1812 25.8428C42.1812 25.4863 42.3081 25.1909 42.562 24.9565C42.8208 24.7222 43.148 24.605 43.5435 24.605ZM43.5435 18.7603C43.9341 18.7603 44.2588 18.8774 44.5176 19.1118C44.7764 19.3413 44.9058 19.6367 44.9058 19.998C44.9058 20.3594 44.7764 20.6572 44.5176 20.8916C44.2588 21.1211 43.9341 21.2358 43.5435 21.2358C43.148 21.2358 42.8208 21.1187 42.562 20.8843C42.3081 20.6499 42.1812 20.3545 42.1812 19.998C42.1812 19.6416 42.3081 19.3462 42.562 19.1118C42.8208 18.8774 43.148 18.7603 43.5435 18.7603ZM51.6517 27H49.1761V19.1191L46.7444 19.8296V17.9546L51.4246 16.3359H51.6517V27ZM61.0856 22.8325H62.1695V24.7368H61.0856V27H58.6173V24.7368H54.4938L54.3473 23.228L58.6173 16.3579V16.3359H61.0856V22.8325ZM56.6984 22.8325H58.6173V19.5513L58.4635 19.8003L56.6984 22.8325Z" fill="black"/>
<defs>
<clipPath id="clip0_67_2">
<rect width="44" height="44" fill="white" transform="translate(16 42)"/>
</clipPath>
<clipPath id="clip1_67_2">
<rect x="16" y="291" width="343" height="405" rx="25" fill="white"/>
</clipPath>
</defs>
</svg>
