<svg width="375" height="812" viewBox="0 0 375 812" fill="none" xmlns="http://www.w3.org/2000/svg">
<rect width="375" height="812" rx="40" fill="#FCF5EF"/>
<rect x="121" y="799" width="134" height="5" rx="2.5" fill="black"/>
<path d="M16 197C16 183.193 27.1929 172 41 172H334C347.807 172 359 183.193 359 197V215H16V197Z" fill="#FEA735"/>
<path d="M121.76 198.136V195.472H131.354V198.136H121.76ZM131.354 191.602V194.212H121.76V191.602H131.354ZM131.354 187.66V190.342H121.76V187.66H131.354ZM126.278 186.382C126.584 185.698 126.908 184.888 127.178 184.114L125.648 183.916C125.504 184.618 125.216 185.59 124.946 186.382H120.428V200.404H121.76V199.396H131.354V200.314H132.74V186.382H126.278ZM151.694 185.032H142.91V186.292H151.694V185.032ZM139.904 183.934C139.004 185.212 137.276 186.832 135.782 187.84C136.016 188.092 136.376 188.614 136.574 188.902C138.176 187.768 140.012 186.022 141.182 184.438L139.904 183.934ZM140.642 187.768C139.4 189.802 137.456 191.872 135.602 193.186C135.872 193.456 136.34 194.032 136.538 194.302C137.204 193.78 137.888 193.132 138.572 192.43V200.422H139.904V190.954C140.642 190.072 141.326 189.154 141.884 188.236L140.642 187.768ZM152.216 189.946H142.136V191.224H148.148V198.64C148.148 198.946 148.04 199.018 147.698 199.036C147.356 199.054 146.168 199.054 144.89 199.018C145.088 199.396 145.268 199.954 145.322 200.314C147.086 200.314 148.094 200.314 148.706 200.116C149.3 199.9 149.498 199.486 149.498 198.658V191.224H152.216V189.946ZM154.376 194.14C154.178 195.706 153.836 197.326 153.278 198.424C153.53 198.514 154.052 198.748 154.25 198.892C154.826 197.74 155.222 196.03 155.474 194.338L154.376 194.14ZM158.66 192.7C158.804 193.132 158.912 193.528 158.966 193.852L159.992 193.42C159.776 192.412 159.146 190.846 158.462 189.658L157.526 190.018C157.778 190.504 158.03 191.044 158.246 191.584L155.834 191.71C156.986 190.198 158.318 188.146 159.29 186.472L158.192 185.986C157.724 186.94 157.076 188.11 156.374 189.226C156.122 188.884 155.798 188.488 155.438 188.092C156.068 187.102 156.842 185.626 157.454 184.384L156.302 183.952C155.942 184.942 155.294 186.328 154.718 187.354C154.538 187.174 154.34 186.976 154.16 186.814L153.44 187.642C154.268 188.416 155.168 189.46 155.69 190.27C155.33 190.828 154.97 191.332 154.628 191.782C154.16 191.8 153.71 191.818 153.314 191.836L153.44 193.042C154.25 192.988 155.168 192.934 156.158 192.862V200.368H157.328V192.79L158.66 192.7ZM166.994 195.85V193.78H168.416V195.85H166.994ZM164.69 195.85V193.78H166.076V195.85H164.69ZM162.44 195.85V193.78H163.79V195.85H162.44ZM167.894 188.488V190.414H161.684V188.488H167.894ZM169.55 192.736H161.648C161.666 192.304 161.684 191.908 161.684 191.512H169.19V187.372H160.478V191.314C160.478 193.042 160.388 195.256 159.668 197.236C159.56 196.354 159.218 195.076 158.786 194.086L157.85 194.374C158.264 195.4 158.624 196.75 158.678 197.632L159.632 197.362C159.362 198.064 159.02 198.748 158.57 199.36C158.84 199.504 159.344 199.882 159.542 200.116C160.604 198.658 161.162 196.804 161.432 194.986V200.368H162.44V196.876H163.79V200.188H164.69V196.876H166.076V200.188H166.994V196.876H168.416V199.09C168.416 199.252 168.38 199.288 168.272 199.288C168.128 199.288 167.75 199.288 167.318 199.27C167.462 199.576 167.642 200.044 167.678 200.368C168.344 200.368 168.812 200.332 169.154 200.17C169.478 199.954 169.55 199.63 169.55 199.108V192.736ZM159.794 185.032V186.202H169.622V185.032H159.794ZM176.318 196.66C176.678 197.668 176.948 199 176.93 199.81L178.028 199.648C178.028 198.838 177.758 197.542 177.362 196.552L176.318 196.66ZM178.856 196.588C179.378 197.452 179.846 198.586 179.99 199.342L181.016 199.036C180.872 198.28 180.368 197.146 179.792 196.3L178.856 196.588ZM183.788 198.01C183.5 197.452 182.834 196.624 182.222 196.048L181.322 196.48C181.934 197.074 182.582 197.92 182.852 198.496L183.788 198.01ZM176.57 194.554C176.912 194.176 177.236 193.798 177.506 193.384H184.85V188.038H179.882V189.028H183.626V190.234H180.152V191.188H183.626V192.412H175.166V191.188H178.604V190.234H175.166V189.082C176.426 188.812 177.848 188.452 178.91 188.002L178.064 187.138C177.272 187.516 175.958 187.912 174.77 188.218L173.96 188.038V193.384H176.03C174.914 194.806 173.06 195.94 171.206 196.66C171.458 196.912 171.854 197.47 171.998 197.722C172.718 197.398 173.456 197.002 174.14 196.552C173.87 197.686 173.348 198.856 172.52 199.54L173.528 200.152C174.5 199.342 174.968 197.974 175.274 196.678L174.356 196.408C174.716 196.174 175.058 195.922 175.382 195.652H185.066C184.922 197.866 184.742 198.784 184.472 199.072C184.328 199.216 184.184 199.234 183.878 199.216C183.554 199.234 182.744 199.216 181.88 199.144C182.096 199.45 182.222 199.954 182.258 200.296C183.14 200.35 184.004 200.368 184.436 200.314C184.94 200.296 185.264 200.188 185.57 199.864C186.002 199.396 186.218 198.172 186.416 195.094C186.434 194.914 186.452 194.554 186.452 194.554H176.57ZM179.99 185.392V183.952H178.676V185.392H171.782V188.56H173.006V186.562H185.696V188.56H186.956V185.392H179.99ZM202.958 189.154H197.558V185.86H202.958V189.154ZM204.272 184.69H196.334V190.306H204.272V184.69ZM195.614 193.798C195.254 193.384 193.724 191.8 193.166 191.332V190.234H195.416V188.974H193.166V185.932C194.012 185.734 194.804 185.482 195.452 185.212L194.516 184.204C193.202 184.798 190.844 185.32 188.828 185.644C188.99 185.95 189.17 186.382 189.242 186.688C190.07 186.562 190.988 186.418 191.87 186.238V188.974H188.936V190.234H191.69C190.97 192.286 189.728 194.608 188.594 195.868C188.81 196.192 189.134 196.714 189.26 197.092C190.178 195.994 191.132 194.194 191.87 192.376V200.332H193.166V192.628C193.778 193.366 194.516 194.356 194.804 194.86L195.614 193.798ZM200.906 198.694V196.372H204.488V195.202H200.906V193.06H204.884V191.872H195.668V193.06H199.574V195.202H196.082V196.372H199.574V198.694H194.858V199.9H205.28V198.694H200.906ZM221.876 186.22C221.336 185.608 220.202 184.69 219.284 184.078L218.384 184.816C219.302 185.464 220.418 186.436 220.94 187.066L221.876 186.22ZM211.85 192.556H215.216V191.26H207.332V192.556H210.536V197.776C209.096 198.064 207.782 198.334 206.774 198.532L207.188 199.846C209.474 199.342 212.768 198.586 215.81 197.848L215.702 196.678C214.406 196.966 213.11 197.218 211.85 197.488V192.556ZM222.614 188.578V187.282H217.286C217.232 186.22 217.214 185.14 217.214 184.024H215.81C215.828 185.122 215.846 186.22 215.9 187.282H206.702V188.578H215.99C216.458 195.238 217.952 200.404 220.886 200.404C222.254 200.404 222.758 199.486 222.992 196.372C222.614 196.228 222.11 195.94 221.804 195.634C221.696 198.028 221.48 199.018 220.994 199.018C219.212 199.018 217.79 194.644 217.358 188.578H222.614ZM232.406 187.912H233.684V186.562H236.42V187.93H237.716V186.562H240.218V185.428H237.716V183.952H236.42V185.428H233.684V183.952H232.406V185.428H229.796V186.562H232.406V187.912ZM229.886 192.862C229.562 192.304 228.212 190.036 227.744 189.352V188.65H229.598V187.39H227.744V183.934H226.466V187.39H224.252V188.65H226.466C225.98 191.08 224.954 193.942 223.91 195.436C224.144 195.76 224.468 196.336 224.612 196.732C225.278 195.67 225.944 194.032 226.466 192.286V200.368H227.744V191.152C228.23 192.088 228.788 193.24 229.04 193.852L229.886 192.862ZM231.776 191.494H238.004V192.772H231.776V191.494ZM231.776 189.262H238.004V190.54H231.776V189.262ZM240.2 196.408V195.274H235.25C235.34 194.806 235.43 194.302 235.484 193.78H239.282V188.254H230.534V193.78H234.17C234.098 194.302 234.026 194.824 233.918 195.274H229.4V196.408H233.522C232.838 197.776 231.56 198.73 228.932 199.324C229.166 199.576 229.508 200.08 229.616 200.368C232.748 199.612 234.188 198.352 234.908 196.444C235.808 198.406 237.464 199.738 239.768 200.368C239.948 200.026 240.326 199.522 240.614 199.27C238.58 198.838 237.05 197.848 236.168 196.408H240.2ZM242.612 194.14C242.414 195.724 242.036 197.326 241.442 198.424C241.73 198.514 242.27 198.766 242.486 198.928C243.08 197.776 243.512 196.048 243.764 194.356L242.612 194.14ZM247.436 192.826C247.598 193.204 247.706 193.546 247.778 193.852L248.84 193.348C248.588 192.376 247.796 190.846 247.058 189.694L246.068 190.126C246.374 190.612 246.68 191.17 246.95 191.728C245.96 191.764 244.97 191.818 244.07 191.854C245.312 190.306 246.752 188.182 247.796 186.49L246.644 185.986C246.14 186.958 245.456 188.128 244.718 189.262C244.43 188.884 244.052 188.452 243.62 188.02C244.304 187.048 245.06 185.608 245.672 184.402L244.484 183.952C244.106 184.942 243.476 186.292 242.882 187.3C242.702 187.138 242.522 186.976 242.342 186.832L241.658 187.714C242.504 188.47 243.458 189.478 244.016 190.288C243.62 190.882 243.206 191.422 242.81 191.89C242.396 191.908 241.982 191.926 241.622 191.926L241.73 193.132L244.664 192.988V200.404H245.87V192.916L247.436 192.826ZM246.518 194.392C247.004 195.508 247.508 196.948 247.67 197.884L248.732 197.524C248.57 196.588 248.048 195.166 247.526 194.068L246.518 194.392ZM250.982 195.202H255.554V198.64H250.982V195.202ZM255.554 186.166V189.478H250.982V186.166H255.554ZM255.554 193.996H250.982V190.684H255.554V193.996ZM256.868 198.64V184.96H249.686V198.64H247.778V199.864H258.254V198.64H256.868Z" fill="black"/>
<path d="M19.6825 237.701C24.8062 233.551 58.4879 208.897 104.128 237.983C104.419 238.165 104.765 238.274 105.111 238.274H131.703C132.704 238.274 133.514 239.075 133.514 240.067V280.183C133.514 281.184 132.695 282.003 131.685 282.003H61.5185C61.0998 282.003 60.6994 282.148 60.3718 282.403L53.528 287.873C53.2004 288.137 52.8 288.273 52.3813 288.273H39.7587C39.2854 288.273 38.8304 288.091 38.4937 287.764L32.1505 281.721C31.8229 281.402 31.386 281.229 30.931 281.211L20.811 280.965C19.819 280.938 19.0273 280.137 19.0273 279.145V239.102C19 238.565 19.2548 238.055 19.6825 237.701Z" fill="#BEE1DD"/>
<path d="M162.755 319.907V281.275C162.755 280.265 161.936 279.455 160.926 279.455L61.7733 279.755C61.3638 279.755 60.9634 279.9 60.6357 280.155L53.7283 285.707C53.4007 285.971 53.0002 286.107 52.5907 286.107H39.8679C39.3947 286.107 38.9487 285.925 38.612 285.598L32.2142 279.464C31.8866 279.145 31.4498 278.972 30.9947 278.954L20.8656 278.708C19.8464 278.681 19 279.509 19 280.528V573.18C19 574.181 19.8191 575 20.8201 575H160.935C161.936 575 162.755 574.181 162.755 573.18V562.669C162.755 552.558 154.519 544.385 144.408 544.467L71.8933 545.031L67.7252 551.393C67.3794 551.921 66.7787 552.239 66.1417 552.212L53.6282 551.784C53.1277 551.766 52.6544 551.547 52.3268 551.165L47.3396 545.514C47.0029 545.131 46.5296 544.913 46.02 544.895L34.1982 544.595C33.2062 544.567 32.4144 543.748 32.4235 542.747L35.3904 324.084C35.4086 323.074 36.2367 322.264 37.256 322.292L45.1827 322.474C45.5832 322.483 45.9654 322.619 46.2839 322.874L53.9922 329.072C54.3016 329.326 54.693 329.463 55.0934 329.472L67.2519 329.745C67.7889 329.754 68.3076 329.527 68.6625 329.126L74.9875 321.873C75.3334 321.473 75.843 321.245 76.3708 321.254L160.916 321.709C161.936 321.736 162.755 320.917 162.755 319.907Z" fill="#F8C8BC"/>
<path d="M235.078 362.162V339.628C235.078 329.618 226.997 321.482 216.986 321.427L75.8977 320.608C75.3699 320.608 74.8602 320.835 74.5144 321.227L68.1894 328.48C67.8345 328.89 67.3157 329.117 66.7788 329.099L54.6203 328.826C54.2198 328.817 53.8376 328.68 53.5191 328.425L45.8108 322.228C45.5013 321.973 45.11 321.837 44.7096 321.827L36.7829 321.645C35.7727 321.618 34.9354 322.428 34.9172 323.438L31.9504 542.101C31.9413 543.102 32.724 543.921 33.725 543.948L45.5469 544.249C46.0565 544.258 46.5297 544.485 46.8665 544.867L51.8536 550.519C52.1813 550.892 52.6545 551.12 53.155 551.138L65.6685 551.566C66.3056 551.584 66.9062 551.274 67.252 550.747L70.8832 545.204C71.2199 544.695 71.7842 544.385 72.3939 544.385L233.267 543.539C234.268 543.53 235.078 542.72 235.078 541.719L234.787 517.684C234.778 516.683 233.959 515.882 232.967 515.882L88.7661 515.955C88.2292 515.955 87.7104 516.191 87.3646 516.61L83.0327 521.806C82.6868 522.225 82.1772 522.462 81.6311 522.462H68.2167C67.7344 522.462 67.2702 522.27 66.9335 521.925L60.563 515.554C60.2172 515.208 59.7622 515.017 59.2798 515.017H48.6866C47.6855 515.017 46.8665 514.207 46.8665 513.197L46.5661 366.111C46.5661 365.101 47.3761 364.291 48.3863 364.291H58.9249C59.3435 364.291 59.7439 364.437 60.0716 364.701L67.8982 371.062C68.2258 371.326 68.6262 371.472 69.0449 371.472H81.2489C81.6584 371.472 82.0498 371.335 82.3774 371.08L89.9128 365.147C90.2313 364.892 90.6226 364.755 91.0322 364.755L233.276 363.991C234.268 363.982 235.078 363.163 235.078 362.162Z" fill="#94CC93"/>
<path d="M104.71 328H176.569C177.079 328 177.57 328.173 177.916 328.491L192.941 342.042C193.587 342.625 193.578 343.526 192.905 344.099L177.434 357.322C177.088 357.614 176.615 357.777 176.123 357.777H104.701C104.209 357.777 103.745 357.614 103.399 357.322L87.5187 343.935C86.8271 343.353 86.8271 342.416 87.5187 341.833L103.399 328.446C103.745 328.164 104.219 328 104.71 328Z" fill="#D7FAD6"/>
<path d="M88.1743 516.583L227.57 515.591C228.571 515.582 229.381 514.772 229.381 513.771V497.944C229.381 478.587 213.828 463.644 194.471 463.38L90.95 462.816C90.5132 462.816 90.0946 462.97 89.7579 463.253L81.4853 470.315C81.1577 470.597 80.7391 470.751 80.3022 470.751H68.626C68.1983 470.751 67.7887 470.606 67.4611 470.324L59.9166 464.017C59.589 463.744 59.1795 463.589 58.7517 463.589H48.559C47.5579 463.589 46.7479 464.399 46.7388 465.391L46.3566 513.443C46.3475 514.426 47.1301 515.245 48.113 515.272L59.1249 515.654C59.5344 515.673 59.9257 515.818 60.2352 516.082L67.088 521.87C67.4156 522.143 67.8342 522.298 68.262 522.298L81.4216 522.307C81.9403 522.307 82.4318 522.089 82.7776 521.697L86.8274 517.165C87.1733 516.81 87.6647 516.592 88.1743 516.583Z" fill="#CBA0C9"/>
<path d="M47.0392 419.414V461.796C47.0392 462.797 47.8583 463.616 48.8594 463.616H58.2695C58.6972 463.616 59.1068 463.762 59.4344 464.044L66.9789 470.351C67.3065 470.624 67.7161 470.779 68.1438 470.779H79.82C80.2568 470.779 80.6754 470.624 81.0031 470.342L89.2756 463.28C89.6033 462.998 90.031 462.843 90.4678 462.843L234.942 463.626C245.143 463.562 252.57 456.208 257.211 447.117L270.543 420.47C271.162 419.26 271.499 417.603 268.869 417.603H89.5941C89.13 417.603 88.675 417.785 88.3383 418.104L81.4126 424.702C81.0759 425.02 80.6209 425.202 80.1567 425.202H67.9072C67.4339 425.202 66.988 425.02 66.6422 424.693L59.7984 418.104C59.4617 417.776 59.0067 417.594 58.5334 417.594H48.8503C47.8583 417.594 47.0392 418.404 47.0392 419.414Z" fill="#BEE1DD"/>
<path d="M47.6755 364L58.9223 364.081C59.318 364.081 59.6969 364.227 60 364.5L67.8518 370.868C68.1549 371.141 68.5338 371.287 68.9295 371.287L77.6901 371.223C78.0521 371.223 78.3973 371.096 78.692 370.868L86.2441 364.856C86.5303 364.628 86.8839 364.501 87.2375 364.501L318.11 364.091C327.506 364.064 335.1 372.353 334.999 382.518L334.814 399.387C334.704 409.361 327.203 417.394 317.975 417.394L89.6282 418.035C89.2156 418.035 88.8115 418.199 88.5 418.5L81.5 425C81.1885 425.301 80.7928 425.465 80.3718 425.465L67.5 425.5C67.0622 425.5 66.6497 425.318 66.3297 424.99L57.8123 417.895C57.5008 417.567 57.0798 417.385 56.642 417.385H47.6839C46.7578 417.385 46.0001 416.565 46.0001 415.564V365.804C45.9917 364.82 46.7494 364 47.6755 364Z" fill="#ED6547"/>
<path d="M159.737 406H90.2626C89.5682 406 89 405.168 89 404.152V379.848C89 378.832 89.5682 378 90.2626 378H159.737C160.432 378 161 378.832 161 379.848V404.152C161 405.178 160.432 406 159.737 406Z" fill="#B05B47"/>
<path d="M235.401 454.575H197.788C190.17 454.575 184 448.405 184 440.788C184 433.17 190.17 427 197.788 427H235.401C243.018 427 249.188 433.17 249.188 440.788C249.188 448.396 243.018 454.575 235.401 454.575Z" fill="#FCFDFD"/>
<path d="M128.638 454H98.3618C89.8789 454 83 450.026 83 445.125V435.875C83 430.974 89.8789 427 98.3618 427H128.638C137.121 427 144 430.974 144 435.875V445.125C143.985 450.026 137.121 454 128.638 454Z" fill="#7AC1B6"/>
<path d="M298.79 409H215.201C210.674 409 207 404.964 207 399.991V384.009C207 379.036 210.674 375 215.201 375H298.799C303.326 375 307 379.036 307 384.009V399.991C306.992 404.964 303.326 409 298.79 409Z" fill="#F9B8A9"/>
<path d="M211.389 503.231H176.779C173.585 503.231 171 500.646 171 497.452V488.779C171 485.585 173.585 483 176.779 483H211.389C214.583 483 217.168 485.585 217.168 488.779V497.452C217.168 500.646 214.583 503.231 211.389 503.231Z" fill="#F1D5F0"/>
<rect x="16" y="581" width="343" height="43" rx="21.5" fill="#FEA735"/>
<path d="M149.084 596.742H145.628V598.614C145.628 599.694 146.006 599.964 147.338 599.964H149.75C150.704 599.964 151.046 599.64 151.172 598.434C150.848 598.362 150.416 598.218 150.182 598.056C150.128 598.902 150.038 599.01 149.606 599.01H147.464C146.87 599.01 146.762 598.938 146.762 598.596V597.678H150.272V594.636H145.286V595.572H149.084V596.742ZM143.288 596.742H139.76V598.614C139.76 599.694 140.102 599.964 141.434 599.964H143.666C144.584 599.964 144.926 599.658 145.052 598.488C144.728 598.434 144.296 598.29 144.062 598.11C144.008 598.902 143.918 599.01 143.486 599.01H141.542C140.966 599.01 140.876 598.938 140.876 598.614V597.678H144.422V594.636H139.436V595.572H143.288V596.742ZM143.576 602.52H146.528V604.23H143.576V602.52ZM151.064 604.23H147.806V602.52H150.506V601.494H147.806V600.198H146.528V601.494H143.576V600.198H142.334V601.494H139.67V602.52H142.334V604.23H139.094V605.274H151.064V604.23ZM150.794 607.668C149.948 607.002 148.472 606.138 147.158 605.508L146.204 606.102C147.446 606.732 148.742 607.578 149.498 608.244L150.794 607.668ZM142.928 605.472C142.136 606.192 140.804 606.876 139.58 607.362C139.868 607.542 140.354 607.974 140.57 608.208C141.758 607.632 143.198 606.75 144.116 605.886L142.928 605.472ZM138.752 597.354C138.248 596.454 137.06 595.212 135.998 594.366L134.972 595.05C136.016 595.932 137.168 597.21 137.636 598.11L138.752 597.354ZM138.338 600.99H134.882V602.25H137.096V606.894C136.304 607.65 135.422 608.406 134.666 608.964L135.368 610.206C136.232 609.414 137.042 608.658 137.798 607.866C138.914 609.288 140.552 609.936 142.928 610.026C144.962 610.098 148.85 610.062 150.884 609.972C150.938 609.594 151.154 609 151.316 608.712C149.12 608.856 144.926 608.91 142.892 608.82C140.786 608.73 139.184 608.118 138.338 606.768V600.99ZM158.084 601.512C157.49 601.71 156.896 601.908 156.302 602.088V598.776H158.228V597.552H156.302V593.952H155.06V597.552H152.81V598.776H155.06V602.466C154.124 602.754 153.26 603.024 152.576 603.204L152.918 604.5L155.06 603.798V608.82C155.06 609.09 154.97 609.144 154.754 609.144C154.538 609.162 153.836 609.162 153.062 609.144C153.242 609.504 153.404 610.062 153.458 610.368C154.574 610.386 155.258 610.332 155.69 610.134C156.14 609.918 156.302 609.558 156.302 608.82V603.402L158.264 602.754L158.084 601.512ZM165.482 604.662H161.864L162.368 604.518C162.278 604.086 161.99 603.438 161.72 602.952H165.806C165.608 603.456 165.302 604.104 165.068 604.536L165.482 604.662ZM162.908 595.644H164.69V597.534H162.908V595.644ZM161.828 597.534H160.118V595.644H161.828V597.534ZM165.77 595.644H167.588V597.534H165.77V595.644ZM169.244 601.89H164.348V600.612H168.362V599.604H164.348V598.488H168.704V594.672H159.02V598.488H163.088V599.604H159.218V600.612H163.088V601.89H158.336V602.952H161.288L160.55 603.132C160.802 603.582 161.054 604.194 161.18 604.662H158.498V605.706H163.088V606.984H158.876V608.028H163.088V610.512H164.348V608.028H168.596V606.984H164.348V605.706H168.992V604.662H166.202C166.49 604.194 166.814 603.618 167.156 603.024L166.886 602.952H169.244V601.89ZM184.958 599.154H179.558V595.86H184.958V599.154ZM186.272 594.69H178.334V600.306H186.272V594.69ZM177.614 603.798C177.254 603.384 175.724 601.8 175.166 601.332V600.234H177.416V598.974H175.166V595.932C176.012 595.734 176.804 595.482 177.452 595.212L176.516 594.204C175.202 594.798 172.844 595.32 170.828 595.644C170.99 595.95 171.17 596.382 171.242 596.688C172.07 596.562 172.988 596.418 173.87 596.238V598.974H170.936V600.234H173.69C172.97 602.286 171.728 604.608 170.594 605.868C170.81 606.192 171.134 606.714 171.26 607.092C172.178 605.994 173.132 604.194 173.87 602.376V610.332H175.166V602.628C175.778 603.366 176.516 604.356 176.804 604.86L177.614 603.798ZM182.906 608.694V606.372H186.488V605.202H182.906V603.06H186.884V601.872H177.668V603.06H181.574V605.202H178.082V606.372H181.574V608.694H176.858V609.9H187.28V608.694H182.906ZM204.236 596.22C203.696 595.608 202.562 594.69 201.644 594.078L200.744 594.816C201.662 595.464 202.778 596.436 203.3 597.066L204.236 596.22ZM194.21 602.556H197.576V601.26H189.692V602.556H192.896V607.776C191.456 608.064 190.142 608.334 189.134 608.532L189.548 609.846C191.834 609.342 195.128 608.586 198.17 607.848L198.062 606.678C196.766 606.966 195.47 607.218 194.21 607.488V602.556ZM204.974 598.578V597.282H199.646C199.592 596.22 199.574 595.14 199.574 594.024H198.17C198.188 595.122 198.206 596.22 198.26 597.282H189.062V598.578H198.35C198.818 605.238 200.312 610.404 203.246 610.404C204.614 610.404 205.118 609.486 205.352 606.372C204.974 606.228 204.47 605.94 204.164 605.634C204.056 608.028 203.84 609.018 203.354 609.018C201.572 609.018 200.15 604.644 199.718 598.578H204.974ZM215.126 597.912H216.404V596.562H219.14V597.93H220.436V596.562H222.938V595.428H220.436V593.952H219.14V595.428H216.404V593.952H215.126V595.428H212.516V596.562H215.126V597.912ZM212.606 602.862C212.282 602.304 210.932 600.036 210.464 599.352V598.65H212.318V597.39H210.464V593.934H209.186V597.39H206.972V598.65H209.186C208.7 601.08 207.674 603.942 206.63 605.436C206.864 605.76 207.188 606.336 207.332 606.732C207.998 605.67 208.664 604.032 209.186 602.286V610.368H210.464V601.152C210.95 602.088 211.508 603.24 211.76 603.852L212.606 602.862ZM214.496 601.494H220.724V602.772H214.496V601.494ZM214.496 599.262H220.724V600.54H214.496V599.262ZM222.92 606.408V605.274H217.97C218.06 604.806 218.15 604.302 218.204 603.78H222.002V598.254H213.254V603.78H216.89C216.818 604.302 216.746 604.824 216.638 605.274H212.12V606.408H216.242C215.558 607.776 214.28 608.73 211.652 609.324C211.886 609.576 212.228 610.08 212.336 610.368C215.468 609.612 216.908 608.352 217.628 606.444C218.528 608.406 220.184 609.738 222.488 610.368C222.668 610.026 223.046 609.522 223.334 609.27C221.3 608.838 219.77 607.848 218.888 606.408H222.92ZM225.692 604.14C225.494 605.724 225.116 607.326 224.522 608.424C224.81 608.514 225.35 608.766 225.566 608.928C226.16 607.776 226.592 606.048 226.844 604.356L225.692 604.14ZM230.516 602.826C230.678 603.204 230.786 603.546 230.858 603.852L231.92 603.348C231.668 602.376 230.876 600.846 230.138 599.694L229.148 600.126C229.454 600.612 229.76 601.17 230.03 601.728C229.04 601.764 228.05 601.818 227.15 601.854C228.392 600.306 229.832 598.182 230.876 596.49L229.724 595.986C229.22 596.958 228.536 598.128 227.798 599.262C227.51 598.884 227.132 598.452 226.7 598.02C227.384 597.048 228.14 595.608 228.752 594.402L227.564 593.952C227.186 594.942 226.556 596.292 225.962 597.3C225.782 597.138 225.602 596.976 225.422 596.832L224.738 597.714C225.584 598.47 226.538 599.478 227.096 600.288C226.7 600.882 226.286 601.422 225.89 601.89C225.476 601.908 225.062 601.926 224.702 601.926L224.81 603.132L227.744 602.988V610.404H228.95V602.916L230.516 602.826ZM229.598 604.392C230.084 605.508 230.588 606.948 230.75 607.884L231.812 607.524C231.65 606.588 231.128 605.166 230.606 604.068L229.598 604.392ZM234.062 605.202H238.634V608.64H234.062V605.202ZM238.634 596.166V599.478H234.062V596.166H238.634ZM238.634 603.996H234.062V600.684H238.634V603.996ZM239.948 608.64V594.96H232.766V608.64H230.858V609.864H241.334V608.64H239.948Z" fill="black"/>
<path d="M58.468 263.13V263.858H55.864V263.13H58.468ZM62.808 263.858H60.078V263.13H62.808V263.858ZM60.078 265.706V264.978H62.808V265.706H60.078ZM55.864 265.706V264.978H58.468V265.706H55.864ZM54.282 267.246H55.864V266.91H62.808V267.232H64.474V261.926H54.282V267.246ZM61.366 260.148H57.166V259.322H61.366V260.148ZM55.612 258.132V261.338H63.018V258.132H55.612ZM63.424 256.046C63.732 255.668 64.068 255.22 64.404 254.744L62.64 254.226C62.416 254.772 61.996 255.528 61.646 256.018L61.73 256.046H60.078V254.142H58.412V256.046H56.676L56.928 255.934C56.704 255.458 56.256 254.772 55.822 254.268L54.338 254.842C54.604 255.206 54.884 255.64 55.108 256.046H53.26V259.224H54.828V257.46H63.788V259.224H65.44V256.046H63.424ZM68.198 256.368C68.394 256.998 68.534 257.782 68.562 258.314L69.304 258.09C69.262 257.544 69.08 256.718 68.856 256.074L68.198 256.27V255.682H69.374V258.72H68.198V256.368ZM71.586 256.298L70.914 256.06C70.816 256.62 70.578 257.432 70.382 257.992V255.682H71.586V256.298ZM70.382 258.72V258.118L70.956 258.328C71.138 257.922 71.362 257.32 71.586 256.732V258.72H70.382ZM66.686 263.858C68.38 263.788 70.774 263.662 73.042 263.522L73.07 262.234C72.258 262.262 71.418 262.304 70.606 262.332V261.716H72.846V260.456H70.606V259.84H72.874V254.562H66.952V259.84H69.136V260.456H66.98V261.716H69.136V262.388C68.198 262.416 67.344 262.444 66.644 262.458L66.686 263.858ZM67.414 267.218C68.002 266.574 68.24 265.51 68.408 264.516L67.288 264.18C67.162 265.104 66.84 266.07 66.336 266.658L67.414 267.218ZM68.506 264.264C68.66 265.048 68.772 266.056 68.744 266.714L69.822 266.588C69.808 265.916 69.696 264.922 69.528 264.138L68.506 264.264ZM69.906 264.208C70.172 264.95 70.41 265.916 70.466 266.546L71.502 266.336C71.418 265.692 71.166 264.754 70.9 264.012L69.906 264.208ZM71.264 264.082C71.698 264.782 72.118 265.706 72.286 266.322L73.336 265.888C73.154 265.272 72.706 264.376 72.258 263.718L71.264 264.082ZM77.466 265.16H74.876V262.234H77.466V265.16ZM79.524 258.566V257.026H76.822V254.156H75.198V260.722H73.364V267.204H74.876V266.658H77.466V267.148H79.062V260.722H76.822V258.566H79.524ZM82.016 257.74V257.39H82.94V257.74H82.016ZM82.016 256.508H82.94V256.844H82.016V256.508ZM85.18 256.508V256.844H84.2V256.508H85.18ZM85.18 257.74H84.2V257.39H85.18V257.74ZM82.94 260.246H82.156V259.56H81.036V261.086H86.188V259.56H85.012V260.246H84.2V259.462H86.706V258.65H84.2V258.314H86.314V255.934H84.2V255.598H86.664V254.772H84.2V254.156H82.94V254.772H80.56V255.598H82.94V255.934H80.938V258.314H82.94V258.65H80.364V259.462H82.94V260.246ZM87.546 263.746H92.152V262.724H87.546V262.234C88.834 262.15 90.038 262.038 91.032 261.87L90.066 261.044C88.176 261.324 84.676 261.436 81.792 261.422C81.876 261.66 82.016 262.094 82.044 262.346C83.262 262.36 84.606 262.36 85.908 262.304V262.724H81.414V263.746H85.908V264.194H80.49V265.258H85.908V265.748C85.908 265.93 85.824 265.986 85.6 265.986C85.404 266 84.564 266.014 83.892 265.986C84.102 266.322 84.326 266.826 84.424 267.218C85.502 267.218 86.258 267.218 86.818 267.022C87.378 266.84 87.546 266.532 87.546 265.79V265.258H92.978V264.208H87.546V263.746ZM90.598 258.594C90.332 258.888 90.01 259.126 89.646 259.322C89.31 259.112 89.03 258.86 88.806 258.594H90.598ZM91.676 257.53L91.438 257.544H87.938C88.666 257.012 88.876 256.312 88.918 255.64H90.094V255.78C90.094 256.522 90.178 256.802 90.388 257.012C90.584 257.222 90.962 257.306 91.27 257.306H91.9C92.124 257.306 92.39 257.278 92.558 257.194C92.768 257.124 92.908 256.984 92.992 256.816C93.09 256.648 93.146 256.242 93.174 255.85C92.866 255.752 92.432 255.542 92.208 255.346C92.194 255.612 92.18 255.85 92.138 255.948C92.11 256.06 92.082 256.102 92.026 256.13C91.998 256.144 91.942 256.158 91.872 256.158H91.648C91.592 256.158 91.564 256.144 91.522 256.102C91.494 256.046 91.494 255.934 91.494 255.752V254.534H87.546V255.36C87.546 255.864 87.434 256.354 86.524 256.802C86.734 256.928 87.112 257.264 87.378 257.544H86.93V258.594H88.232L87.476 258.818C87.728 259.182 88.022 259.518 88.358 259.826C87.812 259.966 87.224 260.064 86.594 260.134C86.804 260.4 87.056 260.89 87.154 261.198C88.008 261.072 88.792 260.89 89.478 260.624C90.318 261.1 91.326 261.436 92.474 261.632C92.642 261.268 93.006 260.764 93.3 260.484C92.39 260.386 91.55 260.19 90.822 259.91C91.55 259.392 92.096 258.678 92.446 257.74L91.676 257.53Z" fill="black"/>
<path d="M56.2 306.8V306.17H58.524V306.8H56.2ZM56.2 304.546H58.524V305.176H56.2V304.546ZM62.654 304.546V305.176H60.204V304.546H62.654ZM62.654 306.8H60.204V306.17H62.654V306.8ZM60.204 310.51V309.768H64.88V308.522H60.204V307.892H64.362V303.454H60.204V302.922H65.692V301.62H60.204V300.892C61.73 300.78 63.186 300.626 64.404 300.43L63.634 299.142C61.268 299.534 57.474 299.772 54.212 299.842C54.352 300.178 54.534 300.738 54.548 301.116C55.808 301.102 57.18 301.06 58.524 301.004V301.62H53.176V302.922H58.524V303.454H54.576V307.892H58.524V308.522H54.114V309.768H58.524V310.51H53.092V311.826H65.79V310.51H60.204ZM76.612 308.396C76.304 308.746 75.94 309.054 75.52 309.32C75.1 309.054 74.736 308.746 74.428 308.396H76.612ZM74.092 304.91H77.172V305.498H74.092V304.91ZM74.092 303.384H77.172V303.958H74.092V303.384ZM77.872 307.122L77.578 307.178H75.352C75.534 306.968 75.688 306.744 75.842 306.52H78.754V302.362H73.098C73.252 302.166 73.392 301.97 73.518 301.76H79.524V300.388H74.288C74.442 300.052 74.596 299.73 74.736 299.394L73.196 299.142C72.846 300.108 72.23 301.242 71.334 302.18L70.494 301.648L70.242 301.704H69.794V299.212H68.31V301.704H66.826V303.146H69.528C68.8 304.84 67.61 306.506 66.406 307.472C66.658 307.752 67.036 308.536 67.162 308.942C67.554 308.592 67.946 308.186 68.324 307.724V312.218H69.808V306.87C70.172 307.43 70.522 308.018 70.718 308.424L71.642 307.332C71.53 307.178 71.278 306.842 70.984 306.464C71.306 306.044 71.67 305.512 72.034 304.98L71.096 304.322C70.928 304.7 70.634 305.218 70.368 305.652L70.018 305.218C70.48 304.378 70.886 303.482 71.194 302.586C71.544 302.81 71.964 303.174 72.174 303.44C72.314 303.3 72.454 303.16 72.58 303.006V306.52H73.994C73.378 307.304 72.412 308.102 71.082 308.704C71.432 308.928 71.922 309.446 72.16 309.796C72.552 309.586 72.916 309.362 73.252 309.124C73.504 309.46 73.798 309.754 74.106 310.034C73.154 310.412 72.076 310.664 70.928 310.818C71.194 311.126 71.614 311.826 71.754 312.232C73.098 311.98 74.372 311.602 75.492 311.028C76.458 311.588 77.592 311.98 78.88 312.218C79.104 311.77 79.538 311.112 79.902 310.762C78.824 310.622 77.844 310.398 76.99 310.062C77.774 309.432 78.418 308.648 78.852 307.682L77.872 307.122ZM89.688 303.356H90.682C90.682 304.77 90.682 306.156 90.724 307.402C90.388 307.08 89.968 306.73 89.492 306.394C89.646 305.372 89.688 304.364 89.688 303.44V303.356ZM86.3 305.876H85.418C85.642 305.4 85.88 304.798 86.118 304.196L85.544 304.056H86.734V303.356H88.134V303.426C88.134 304.042 88.12 304.7 88.05 305.4C87.714 305.176 87.392 304.98 87.084 304.798L86.3 305.876ZM84.69 304.056C84.564 304.602 84.326 305.288 84.13 305.778L84.494 305.876H82.66L83.038 305.764C82.968 305.316 82.758 304.63 82.506 304.056H84.69ZM89.688 301.83V299.156H88.134V301.83H86.468V302.656H84.354V301.76H86.174V300.388H84.354V299.142H82.814V300.388H80.868V301.76H82.814V302.656H80.322V304.056H81.778L81.19 304.224C81.4 304.728 81.596 305.386 81.694 305.876H80.616V307.276H82.814V308.242H80.728V309.642H82.814V312.176H84.354V309.642H86.314V308.242H84.354V307.276H86.482V306.17C86.902 306.436 87.336 306.744 87.77 307.052C87.406 308.578 86.664 310.076 85.208 311.21C85.6 311.434 86.202 311.924 86.482 312.218C87.868 311.098 88.666 309.642 89.128 308.13C89.506 308.452 89.842 308.788 90.08 309.068L90.752 308.074C90.878 310.23 91.2 311.826 91.984 312.134C92.88 312.512 93.566 311.966 93.678 309.558C93.44 309.362 93.02 308.788 92.768 308.396C92.754 309.474 92.684 310.566 92.614 310.538C92.138 310.37 92.166 305.638 92.292 301.83H89.688ZM106.642 299.94H99.838V301.522H106.642V299.94ZM97.15 299.142C96.478 300.122 95.148 301.382 93.986 302.124C94.28 302.446 94.7 303.118 94.91 303.482C96.24 302.558 97.752 301.116 98.76 299.8L97.15 299.142ZM97.682 302.166C96.786 303.748 95.26 305.372 93.832 306.352C94.168 306.702 94.728 307.458 94.966 307.794C95.344 307.486 95.722 307.136 96.114 306.758V312.232H97.78V304.924C98.34 304.224 98.858 303.496 99.278 302.782L97.682 302.166ZM106.992 303.79H99.25V305.372H103.38V310.244C103.38 310.454 103.282 310.51 103.03 310.51C102.778 310.524 101.854 310.524 101.056 310.482C101.28 310.972 101.49 311.686 101.56 312.176C102.806 312.176 103.702 312.148 104.29 311.896C104.906 311.644 105.074 311.182 105.074 310.286V305.372H106.992V303.79Z" fill="black"/>
<path d="M57.11 340.482C56.928 341.966 56.606 343.254 56.144 344.332C55.696 344.024 55.248 343.744 54.814 343.478C55.052 342.526 55.29 341.518 55.528 340.482H57.11ZM57.796 338.872L57.502 338.914H55.878C56.074 338.004 56.256 337.122 56.424 336.296L54.814 336.142C54.674 336.996 54.492 337.948 54.296 338.914H52.728V340.482H53.96C53.596 342.12 53.204 343.702 52.868 344.864L54.268 345.536L54.408 345.018C54.73 345.242 55.066 345.48 55.388 345.718C54.716 346.684 53.848 347.398 52.798 347.846C53.134 348.182 53.568 348.798 53.778 349.218C54.968 348.616 55.92 347.804 56.676 346.74C57.278 347.258 57.796 347.748 58.146 348.196L59.112 346.768C58.734 346.32 58.16 345.816 57.502 345.298C58.216 343.702 58.65 341.672 58.818 339.04L57.796 338.872ZM61.072 346.222V339.138H63.536V346.222H61.072ZM59.49 337.57V348.84H61.072V347.804H63.536V348.63H65.188V337.57H59.49ZM69.752 341.252V340.356H72.006V341.252H69.752ZM69.752 338.172H72.006V339.068H69.752V338.172ZM75.996 339.068H73.77V338.172H75.996V339.068ZM75.996 341.252H73.77V340.356H75.996V341.252ZM79.118 344.99V343.464H73.77V342.638H77.83V336.786H68.002V342.638H72.006V343.464H66.644V344.99H70.788C69.612 346.04 67.876 346.964 66.21 347.454C66.588 347.804 67.092 348.448 67.344 348.84C69.01 348.224 70.718 347.132 72.006 345.844V349.218H73.77V345.774C75.072 347.048 76.78 348.14 78.404 348.756C78.642 348.336 79.146 347.678 79.524 347.342C77.928 346.88 76.22 345.984 74.988 344.99H79.118Z" fill="black"/>
<path d="M203.004 343.142C203.06 342.61 203.116 342.078 203.158 341.504H204.544C204.544 342.12 204.544 342.652 204.53 343.142H203.004ZM204.572 338.354L204.558 340.034H203.228C203.256 339.488 203.27 338.928 203.27 338.354H204.572ZM199.798 336.842V338.354H201.618C201.618 338.928 201.604 339.488 201.59 340.034H199.966V341.504H201.52C201.478 342.078 201.436 342.61 201.366 343.142H199.798V344.612H201.1C200.792 345.97 200.288 347.118 199.504 347.986C199.882 348.252 200.638 348.91 200.862 349.218C201.842 348 202.416 346.46 202.78 344.612H204.502C204.46 346.082 204.39 346.754 204.25 346.992C204.124 347.216 203.998 347.286 203.816 347.286C203.55 347.286 203.088 347.286 202.57 347.244C202.85 347.748 203.046 348.504 203.074 349.022C203.718 349.036 204.32 349.05 204.754 348.938C205.216 348.826 205.482 348.658 205.804 348.126C206.224 347.426 206.21 344.92 206.238 337.682C206.238 337.472 206.252 336.842 206.252 336.842H199.798ZM211.516 336.744L211.278 336.8H207.12V349.204H208.702V338.368H210.592C210.214 339.432 209.71 340.818 209.248 341.826C210.508 342.918 210.886 343.898 210.886 344.682C210.886 345.144 210.788 345.452 210.494 345.606C210.312 345.69 210.074 345.732 209.85 345.732C209.584 345.746 209.248 345.746 208.828 345.704C209.094 346.152 209.262 346.824 209.29 347.272C209.752 347.286 210.256 347.286 210.62 347.244C211.012 347.188 211.362 347.076 211.642 346.894C212.202 346.516 212.468 345.844 212.468 344.85C212.468 343.926 212.188 342.848 210.886 341.616C211.502 340.384 212.16 338.816 212.706 337.5L211.516 336.744ZM217.9 338.62V339.39H216.36V340.538H217.9V343.548H219.132V340.538H220.686V339.39H219.132V338.62H222.632V339.39H221.092V340.538H222.632V343.646H223.864V340.538H225.95V339.39H223.864V338.62H226.216V337.234H221.162V336.156H219.426V337.234H214.246V341.462C214.246 343.492 214.162 346.348 213.224 348.322C213.56 348.476 214.232 348.98 214.498 349.26C215.59 347.118 215.772 343.688 215.772 341.462V338.62H217.9ZM222.184 340.832H221.274V341.35C221.274 341.868 221.19 342.61 220.644 343.072C220.882 343.184 221.288 343.492 221.456 343.702C222.086 343.058 222.184 342.148 222.184 341.406V340.832ZM220.504 342.932V340.86H219.58V342.932H220.504ZM217.466 340.846H216.556V341.392C216.556 341.924 216.472 342.694 215.982 343.17C216.22 343.31 216.584 343.59 216.752 343.8C217.368 343.114 217.466 342.19 217.466 341.42V340.846ZM222.436 346.376C222.772 346.698 223.122 347.062 223.472 347.44C222.394 347.468 221.33 347.482 220.294 347.496C221.512 346.684 222.8 345.69 223.864 344.78L222.464 344.024C221.862 344.64 221.064 345.326 220.224 345.984C220 345.816 219.734 345.62 219.44 345.424C220 344.976 220.602 344.444 221.162 343.926L219.818 343.212C219.454 343.688 218.922 344.276 218.404 344.766C218.138 344.626 217.9 344.486 217.662 344.36L216.612 345.326C217.382 345.76 218.334 346.39 218.978 346.922C218.67 347.132 218.362 347.342 218.068 347.538C217.312 347.538 216.626 347.552 216.024 347.552L216.136 348.924C218.292 348.868 221.47 348.784 224.494 348.672C224.634 348.868 224.76 349.064 224.858 349.232L226.258 348.532C225.754 347.72 224.648 346.558 223.738 345.746L222.436 346.376ZM225.418 342.792C225.362 342.792 225.334 342.778 225.306 342.736V342.428V340.832H224.34V342.358C224.34 342.988 224.382 343.184 224.55 343.352C224.69 343.52 224.942 343.59 225.18 343.59H225.614C225.754 343.59 225.95 343.562 226.048 343.506C226.188 343.436 226.3 343.324 226.384 343.184C226.454 343.058 226.496 342.666 226.524 342.316C226.272 342.246 225.964 342.078 225.796 341.938C225.796 342.246 225.782 342.484 225.754 342.596C225.712 342.694 225.698 342.75 225.656 342.764C225.642 342.778 225.586 342.792 225.544 342.792H225.418Z" fill="black"/>
<path d="M101.27 438.776V439.994H99.716V438.776H101.27ZM96.622 438.776H98.092V439.994H96.622V438.776ZM98.092 437.502H95.082V441.254H97.35C96.594 442.178 95.418 443.018 94.27 443.494C94.62 443.788 95.082 444.362 95.32 444.754C96.328 444.236 97.322 443.382 98.092 442.416V444.978H99.716V442.514C100.528 443.41 101.522 444.222 102.446 444.712C102.698 444.306 103.216 443.732 103.566 443.41C102.418 442.948 101.13 442.122 100.29 441.254H102.894V437.502H99.716V436.746H103.37V435.36H99.716V434.156H98.092V435.36H94.648V436.746H98.092V437.502ZM94.382 436.578C93.906 435.92 92.884 435.052 92.044 434.464L90.812 435.472C91.638 436.088 92.632 437.012 93.066 437.684L94.382 436.578ZM94.032 439.574H90.798V441.1H92.408V444.054C91.792 444.53 91.092 444.992 90.49 445.342L91.302 447.078C92.072 446.49 92.688 445.944 93.304 445.398C94.214 446.49 95.362 446.882 97.084 446.952C98.75 447.022 101.564 446.994 103.244 446.91C103.328 446.434 103.58 445.622 103.762 445.23C101.9 445.37 98.75 445.412 97.112 445.342C95.656 445.286 94.606 444.908 94.032 443.97V439.574ZM107.038 436.886H117.132V435.402H112.162V434.156H110.426V435.402H105.442V439.322C105.442 441.366 105.358 444.278 104.196 446.266C104.574 446.434 105.274 446.896 105.554 447.176C106.828 445.02 107.038 441.59 107.038 439.322V436.886ZM113.394 439.378V440.302H110.846V439.378H113.394ZM115.046 441.562V439.378H117.062V438.062H115.046V437.138H113.394V438.062H110.846V437.138H109.278V438.062H107.388V439.378H109.278V441.562H115.046ZM113.912 443.424C113.45 443.872 112.876 444.264 112.232 444.572C111.574 444.25 111.014 443.872 110.594 443.424H113.912ZM115.326 442.052L115.032 442.122H107.486V443.424H109.572L108.914 443.662C109.362 444.264 109.908 444.782 110.524 445.216C109.418 445.538 108.186 445.734 106.898 445.846C107.15 446.196 107.444 446.826 107.57 447.246C109.236 447.036 110.804 446.7 112.176 446.154C113.394 446.7 114.822 447.064 116.432 447.26C116.642 446.826 117.076 446.182 117.412 445.832C116.152 445.72 114.99 445.524 113.968 445.23C114.976 444.558 115.802 443.69 116.362 442.57L115.326 442.052Z" fill="black"/>
<path d="M131.841 445.788C131.079 446.476 129.921 446.476 129.159 445.788L124.396 441.484C123.037 440.256 123.906 438 125.737 438L135.263 438C137.094 438 137.963 440.256 136.604 441.484L131.841 445.788Z" fill="black"/>
<path d="M157.544 434.576H153.316V435.836H157.544V434.576ZM158.076 436.452H152.602V437.768H158.076V436.452ZM157.572 440.316H153.26V441.562H157.572V440.316ZM162.92 441.646C162.584 442.36 162.15 442.99 161.604 443.536C161.044 442.976 160.582 442.346 160.246 441.646H162.92ZM156.116 445.174H154.632V443.564H156.116V445.174ZM163.97 440.078L163.69 440.148H158.762C160.218 439.154 160.498 437.558 160.498 436.242V436.004H162.066V437.698C162.066 439.084 162.388 439.518 163.508 439.518H164.32C165.258 439.518 165.622 439.028 165.762 437.292C165.356 437.18 164.712 436.942 164.404 436.704C164.39 437.922 164.334 438.104 164.152 438.104H163.802C163.648 438.104 163.62 438.062 163.62 437.67V434.534H158.93V436.2C158.93 437.138 158.776 438.244 157.572 439.07V438.398H153.26V439.672H157.572V439.14C157.908 439.364 158.496 439.868 158.734 440.148H158.258V441.646H160.204L158.776 442.108C159.21 443.018 159.742 443.83 160.386 444.53C159.56 445.076 158.608 445.468 157.558 445.734V442.248H153.218V447.022H154.632V446.476H157.558V445.762C157.866 446.14 158.258 446.798 158.426 447.204C159.616 446.84 160.694 446.336 161.632 445.678C162.514 446.336 163.536 446.854 164.712 447.204C164.95 446.77 165.426 446.112 165.79 445.762C164.712 445.496 163.732 445.09 162.906 444.558C163.872 443.508 164.614 442.178 165.062 440.484L163.97 440.078ZM170.27 443.802C170.494 444.698 170.634 445.902 170.592 446.658L172.02 446.49C172.02 445.706 171.88 444.53 171.614 443.634L170.27 443.802ZM172.37 443.676C172.664 444.46 172.972 445.51 173.056 446.196L174.386 445.846C174.288 445.188 173.966 444.152 173.644 443.382L172.37 443.676ZM175.366 437.908C175.282 438.286 175.198 438.65 175.114 438.972H172.412C172.622 438.622 172.804 438.272 172.986 437.908H175.366ZM176.29 440.4C176.22 440.792 176.136 441.156 176.052 441.492H170.634C170.942 441.142 171.222 440.778 171.502 440.4H176.29ZM179.104 441.492H177.55C177.746 440.736 177.928 439.798 178.082 438.972H176.626C176.808 438.202 177.018 437.236 177.186 436.41H173.658C173.896 435.794 174.12 435.164 174.316 434.534L172.608 434.142C172.412 434.898 172.16 435.668 171.838 436.41H170.088L171.18 435.962C170.9 435.444 170.312 434.674 169.808 434.142L168.31 434.73C168.744 435.234 169.22 435.906 169.486 436.41H166.756V437.908H171.124C169.99 439.994 168.338 441.814 166.098 442.948C166.392 443.326 166.798 443.984 166.994 444.404C167.47 444.138 167.932 443.858 168.352 443.55C168.1 444.572 167.652 445.594 166.98 446.252L168.268 447.162C169.094 446.294 169.514 444.992 169.794 443.788L168.59 443.382C168.786 443.242 168.982 443.074 169.178 442.92H177.34C177.172 444.6 176.976 445.356 176.738 445.594C176.598 445.734 176.458 445.748 176.234 445.748C175.954 445.762 175.366 445.748 174.764 445.692C175.016 446.112 175.198 446.742 175.226 447.204C175.94 447.232 176.598 447.232 177.004 447.176C177.466 447.12 177.788 447.008 178.124 446.644C178.572 446.182 178.824 444.964 179.062 442.136L179.104 441.492ZM176.514 444.866C176.374 444.348 175.996 443.592 175.618 443.018L174.47 443.41C174.82 443.998 175.17 444.81 175.296 445.3L176.514 444.866Z" fill="black"/>
<path d="M58.188 443.536C58.734 444.152 59.364 445.02 59.602 445.58L60.974 444.768C60.694 444.194 60.022 443.396 59.448 442.794L58.188 443.536ZM59.504 437.474C59.686 437.348 59.854 437.208 60.036 437.082C60.568 437.404 61.1 437.838 61.45 438.216C61.254 438.37 61.044 438.524 60.82 438.664C60.498 438.286 59.98 437.838 59.504 437.474ZM63.144 436.34C62.92 436.718 62.64 437.068 62.346 437.404C61.982 437.054 61.45 436.662 60.946 436.34H63.144ZM65.44 441.24H63.886V439.616H62.318V441.24H58.454C61.394 440.358 63.984 438.65 65.16 435.64L64.124 435.164L63.858 435.22H62.01C62.192 435.01 62.36 434.8 62.514 434.576L60.904 434.156C60.12 435.36 58.678 436.592 57.068 437.292V434.156H55.542V437.964H54.464V434.786H53.022V439.448H55.542V441.044H52.476V442.472H53.162C53.162 443.466 53.064 445.244 52.322 446.448C52.672 446.616 53.26 446.994 53.54 447.246C54.45 445.818 54.604 443.648 54.604 442.486V442.472H55.542V447.218H57.068V437.46C57.376 437.726 57.768 438.132 57.978 438.37C58.132 438.286 58.3 438.202 58.454 438.118C58.916 438.468 59.378 438.902 59.7 439.294C58.972 439.644 58.188 439.924 57.39 440.106C57.656 440.386 58.006 440.876 58.188 441.24H57.502V442.696H62.318V445.398C62.318 445.58 62.248 445.636 62.038 445.636C61.828 445.636 61.114 445.636 60.456 445.608C60.666 446.084 60.876 446.756 60.932 447.232C61.968 447.232 62.696 447.19 63.228 446.938C63.774 446.672 63.886 446.238 63.886 445.426V442.696H65.44V441.24Z" fill="black"/>
<path d="M63.13 395.978H61.618V390.308H63.13V395.978ZM55.052 390.308H56.494V395.978H55.052V390.308ZM60.12 391.274H57.978V390.308H60.12V391.274ZM57.978 394.942H60.12V395.978H57.978V394.942ZM60.12 393.64H57.978V392.576H60.12V393.64ZM65.468 387.508V385.94H52.868V387.508H57.978C57.922 387.928 57.838 388.362 57.754 388.768H53.442V398.218H55.052V397.504H63.13V398.218H64.824V388.768H59.504C59.616 388.362 59.756 387.942 59.882 387.508H65.468ZM74.064 391.918V393.78H71.628V391.918H74.064ZM75.59 395.236V390.462H70.13V396.216H71.628V395.236H75.59ZM78.67 387.48H72.832C73.168 386.864 73.518 386.136 73.812 385.436L71.698 385.142C71.53 385.842 71.25 386.724 70.956 387.48H67.092V398.204H68.758V389.104H76.99V396.244C76.99 396.496 76.906 396.566 76.64 396.566C76.36 396.58 75.422 396.594 74.596 396.538C74.834 396.986 75.086 397.742 75.142 398.218C76.402 398.218 77.298 398.19 77.886 397.924C78.474 397.658 78.67 397.182 78.67 396.272V387.48Z" fill="black"/>
<path d="M58.668 495.536C59.214 496.152 59.844 497.02 60.082 497.58L61.454 496.768C61.174 496.194 60.502 495.396 59.928 494.794L58.668 495.536ZM59.984 489.474C60.166 489.348 60.334 489.208 60.516 489.082C61.048 489.404 61.58 489.838 61.93 490.216C61.734 490.37 61.524 490.524 61.3 490.664C60.978 490.286 60.46 489.838 59.984 489.474ZM63.624 488.34C63.4 488.718 63.12 489.068 62.826 489.404C62.462 489.054 61.93 488.662 61.426 488.34H63.624ZM65.92 493.24H64.366V491.616H62.798V493.24H58.934C61.874 492.358 64.464 490.65 65.64 487.64L64.604 487.164L64.338 487.22H62.49C62.672 487.01 62.84 486.8 62.994 486.576L61.384 486.156C60.6 487.36 59.158 488.592 57.548 489.292V486.156H56.022V489.964H54.944V486.786H53.502V491.448H56.022V493.044H52.956V494.472H53.642C53.642 495.466 53.544 497.244 52.802 498.448C53.152 498.616 53.74 498.994 54.02 499.246C54.93 497.818 55.084 495.648 55.084 494.486V494.472H56.022V499.218H57.548V489.46C57.856 489.726 58.248 490.132 58.458 490.37C58.612 490.286 58.78 490.202 58.934 490.118C59.396 490.468 59.858 490.902 60.18 491.294C59.452 491.644 58.668 491.924 57.87 492.106C58.136 492.386 58.486 492.876 58.668 493.24H57.982V494.696H62.798V497.398C62.798 497.58 62.728 497.636 62.518 497.636C62.308 497.636 61.594 497.636 60.936 497.608C61.146 498.084 61.356 498.756 61.412 499.232C62.448 499.232 63.176 499.19 63.708 498.938C64.254 498.672 64.366 498.238 64.366 497.426V494.696H65.92V493.24ZM72.22 493.856C71.954 493.548 70.806 492.33 70.428 492.022V491.616H71.926V490.062H70.428V488.088C71.03 487.934 71.59 487.752 72.094 487.556L70.988 486.282C69.91 486.772 68.188 487.178 66.648 487.444C66.83 487.78 67.026 488.34 67.11 488.718C67.656 488.648 68.23 488.55 68.818 488.438V490.062H66.816V491.616H68.594C68.076 492.974 67.306 494.458 66.522 495.368C66.788 495.788 67.138 496.474 67.292 496.95C67.838 496.25 68.37 495.256 68.818 494.178V499.204H70.428V493.744C70.764 494.248 71.1 494.794 71.268 495.158L72.22 493.856ZM77.582 494.15C77.288 494.696 76.91 495.172 76.476 495.592C76.07 495.242 75.524 494.864 75.034 494.57C75.188 494.43 75.342 494.29 75.482 494.15H77.582ZM76.91 488.704C76.616 489.166 76.238 489.572 75.804 489.95C75.426 489.6 74.922 489.236 74.46 488.956C74.558 488.872 74.656 488.788 74.74 488.704H76.91ZM78.674 492.736L78.38 492.792H76.616C76.826 492.484 77.022 492.176 77.19 491.854L76.056 491.658C77.414 490.734 78.506 489.474 79.122 487.78L78.058 487.304L77.792 487.374H75.916C76.14 487.08 76.336 486.772 76.518 486.45L74.894 486.156C74.292 487.234 73.158 488.396 71.394 489.208C71.716 489.446 72.206 490.006 72.43 490.356C72.78 490.174 73.102 489.964 73.41 489.768C73.83 490.048 74.306 490.426 74.656 490.762C73.802 491.266 72.822 491.644 71.786 491.882C72.08 492.204 72.472 492.82 72.64 493.198C73.55 492.932 74.418 492.596 75.216 492.162C74.544 493.17 73.438 494.164 71.856 494.906C72.192 495.158 72.654 495.704 72.864 496.068C73.214 495.872 73.55 495.676 73.872 495.466C74.348 495.774 74.852 496.166 75.244 496.53C74.194 497.174 72.92 497.594 71.52 497.846C71.814 498.182 72.178 498.84 72.346 499.26C75.888 498.462 78.618 496.782 79.738 493.156L78.674 492.736ZM84.736 496.32H87.27V495.144H84.736V494.598H87.214V490.272H84.736V489.726H87.424V490.818H88.698C88.6 493.324 88.264 495.326 87.172 496.838C86.36 496.908 85.534 496.978 84.736 497.034V496.32ZM82.132 493.562V492.932H83.224V493.562H82.132ZM85.828 492.932V493.562H84.736V492.932H85.828ZM84.736 491.938V491.322H85.828V491.938H84.736ZM82.132 491.322H83.224V491.938H82.132V491.322ZM90.322 489.292C90.35 488.368 90.35 487.388 90.35 486.366H88.754C88.754 487.402 88.754 488.368 88.74 489.292H87.424V488.522H84.736V487.836C85.646 487.738 86.514 487.612 87.256 487.458L86.528 486.212C84.988 486.548 82.566 486.786 80.494 486.898C80.648 487.22 80.802 487.738 80.858 488.074C81.614 488.06 82.412 488.018 83.224 487.962V488.522H80.466V489.726H83.224V490.272H80.816V494.598H83.224V495.144H80.76V496.32H83.224V497.16C82.146 497.23 81.166 497.3 80.382 497.356L80.578 498.756C82.09 498.63 84.106 498.42 86.122 498.21C86.486 498.518 86.892 498.98 87.102 499.316C89.454 497.454 90.098 494.57 90.28 490.818H91.54C91.456 495.34 91.316 497.048 91.022 497.426C90.896 497.608 90.756 497.664 90.546 497.664C90.28 497.664 89.748 497.65 89.132 497.594C89.412 498.056 89.594 498.728 89.622 499.19C90.294 499.204 90.938 499.218 91.358 499.134C91.82 499.036 92.142 498.896 92.464 498.434C92.912 497.79 93.024 495.76 93.15 490.034C93.15 489.838 93.164 489.292 93.164 489.292H90.322ZM104.77 490.776V491.994H103.216V490.776H104.77ZM100.122 490.776H101.592V491.994H100.122V490.776ZM101.592 489.502H98.582V493.254H100.85C100.094 494.178 98.918 495.018 97.77 495.494C98.12 495.788 98.582 496.362 98.82 496.754C99.828 496.236 100.822 495.382 101.592 494.416V496.978H103.216V494.514C104.028 495.41 105.022 496.222 105.946 496.712C106.198 496.306 106.716 495.732 107.066 495.41C105.918 494.948 104.63 494.122 103.79 493.254H106.394V489.502H103.216V488.746H106.87V487.36H103.216V486.156H101.592V487.36H98.148V488.746H101.592V489.502ZM97.882 488.578C97.406 487.92 96.384 487.052 95.544 486.464L94.312 487.472C95.138 488.088 96.132 489.012 96.566 489.684L97.882 488.578ZM97.532 491.574H94.298V493.1H95.908V496.054C95.292 496.53 94.592 496.992 93.99 497.342L94.802 499.078C95.572 498.49 96.188 497.944 96.804 497.398C97.714 498.49 98.862 498.882 100.584 498.952C102.25 499.022 105.064 498.994 106.744 498.91C106.828 498.434 107.08 497.622 107.262 497.23C105.4 497.37 102.25 497.412 100.612 497.342C99.156 497.286 98.106 496.908 97.532 495.97V491.574ZM110.538 488.886H120.632V487.402H115.662V486.156H113.926V487.402H108.942V491.322C108.942 493.366 108.858 496.278 107.696 498.266C108.074 498.434 108.774 498.896 109.054 499.176C110.328 497.02 110.538 493.59 110.538 491.322V488.886ZM116.894 491.378V492.302H114.346V491.378H116.894ZM118.546 493.562V491.378H120.562V490.062H118.546V489.138H116.894V490.062H114.346V489.138H112.778V490.062H110.888V491.378H112.778V493.562H118.546ZM117.412 495.424C116.95 495.872 116.376 496.264 115.732 496.572C115.074 496.25 114.514 495.872 114.094 495.424H117.412ZM118.826 494.052L118.532 494.122H110.986V495.424H113.072L112.414 495.662C112.862 496.264 113.408 496.782 114.024 497.216C112.918 497.538 111.686 497.734 110.398 497.846C110.65 498.196 110.944 498.826 111.07 499.246C112.736 499.036 114.304 498.7 115.676 498.154C116.894 498.7 118.322 499.064 119.932 499.26C120.142 498.826 120.576 498.182 120.912 497.832C119.652 497.72 118.49 497.524 117.468 497.23C118.476 496.558 119.302 495.69 119.862 494.57L118.826 494.052ZM126.484 486.576H122.256V487.836H126.484V486.576ZM127.016 488.452H121.542V489.768H127.016V488.452ZM126.512 492.316H122.2V493.562H126.512V492.316ZM131.86 493.646C131.524 494.36 131.09 494.99 130.544 495.536C129.984 494.976 129.522 494.346 129.186 493.646H131.86ZM125.056 497.174H123.572V495.564H125.056V497.174ZM132.91 492.078L132.63 492.148H127.702C129.158 491.154 129.438 489.558 129.438 488.242V488.004H131.006V489.698C131.006 491.084 131.328 491.518 132.448 491.518H133.26C134.198 491.518 134.562 491.028 134.702 489.292C134.296 489.18 133.652 488.942 133.344 488.704C133.33 489.922 133.274 490.104 133.092 490.104H132.742C132.588 490.104 132.56 490.062 132.56 489.67V486.534H127.87V488.2C127.87 489.138 127.716 490.244 126.512 491.07V490.398H122.2V491.672H126.512V491.14C126.848 491.364 127.436 491.868 127.674 492.148H127.198V493.646H129.144L127.716 494.108C128.15 495.018 128.682 495.83 129.326 496.53C128.5 497.076 127.548 497.468 126.498 497.734V494.248H122.158V499.022H123.572V498.476H126.498V497.762C126.806 498.14 127.198 498.798 127.366 499.204C128.556 498.84 129.634 498.336 130.572 497.678C131.454 498.336 132.476 498.854 133.652 499.204C133.89 498.77 134.366 498.112 134.73 497.762C133.652 497.496 132.672 497.09 131.846 496.558C132.812 495.508 133.554 494.178 134.002 492.484L132.91 492.078ZM137.46 489.138H146.07V491.056H147.792V487.556H142.668V486.156H140.904V487.556H135.822V491.056H137.46V489.138ZM142.654 495.242H146.504V493.674H142.654V491.924H145.65V490.342H137.95V491.924H140.932V496.866C140.106 496.46 139.448 495.788 139.028 494.668C139.154 494.108 139.252 493.52 139.336 492.89L137.6 492.722C137.348 495.116 136.662 497.048 135.15 498.168C135.542 498.42 136.242 499.008 136.522 499.302C137.32 498.616 137.936 497.72 138.384 496.656C139.672 498.644 141.59 499.064 144.166 499.064H147.666C147.75 498.574 148.016 497.776 148.254 497.37C147.316 497.412 145.006 497.412 144.25 497.412C143.69 497.412 143.158 497.384 142.654 497.328V495.242ZM152.93 495.802C153.154 496.698 153.294 497.902 153.252 498.658L154.68 498.49C154.68 497.706 154.54 496.53 154.274 495.634L152.93 495.802ZM155.03 495.676C155.324 496.46 155.632 497.51 155.716 498.196L157.046 497.846C156.948 497.188 156.626 496.152 156.304 495.382L155.03 495.676ZM158.026 489.908C157.942 490.286 157.858 490.65 157.774 490.972H155.072C155.282 490.622 155.464 490.272 155.646 489.908H158.026ZM158.95 492.4C158.88 492.792 158.796 493.156 158.712 493.492H153.294C153.602 493.142 153.882 492.778 154.162 492.4H158.95ZM161.764 493.492H160.21C160.406 492.736 160.588 491.798 160.742 490.972H159.286C159.468 490.202 159.678 489.236 159.846 488.41H156.318C156.556 487.794 156.78 487.164 156.976 486.534L155.268 486.142C155.072 486.898 154.82 487.668 154.498 488.41H152.748L153.84 487.962C153.56 487.444 152.972 486.674 152.468 486.142L150.97 486.73C151.404 487.234 151.88 487.906 152.146 488.41H149.416V489.908H153.784C152.65 491.994 150.998 493.814 148.758 494.948C149.052 495.326 149.458 495.984 149.654 496.404C150.13 496.138 150.592 495.858 151.012 495.55C150.76 496.572 150.312 497.594 149.64 498.252L150.928 499.162C151.754 498.294 152.174 496.992 152.454 495.788L151.25 495.382C151.446 495.242 151.642 495.074 151.838 494.92H160C159.832 496.6 159.636 497.356 159.398 497.594C159.258 497.734 159.118 497.748 158.894 497.748C158.614 497.762 158.026 497.748 157.424 497.692C157.676 498.112 157.858 498.742 157.886 499.204C158.6 499.232 159.258 499.232 159.664 499.176C160.126 499.12 160.448 499.008 160.784 498.644C161.232 498.182 161.484 496.964 161.722 494.136L161.764 493.492ZM159.174 496.866C159.034 496.348 158.656 495.592 158.278 495.018L157.13 495.41C157.48 495.998 157.83 496.81 157.956 497.3L159.174 496.866Z" fill="black"/>
<path d="M110.454 388.964V387.368H104.924V385.086H103.202V387.368H97.84V388.964H101.844C101.69 391.96 101.368 395.152 97.588 396.902C98.022 397.266 98.526 397.854 98.764 398.316C101.564 396.902 102.726 394.718 103.258 392.352H107.108C106.912 394.9 106.66 396.118 106.296 396.426C106.128 396.58 105.932 396.608 105.624 396.608C105.218 396.608 104.238 396.608 103.272 396.51C103.58 396.986 103.832 397.672 103.86 398.148C104.798 398.19 105.736 398.204 106.254 398.148C106.912 398.092 107.346 397.952 107.766 397.504C108.326 396.888 108.62 395.32 108.872 391.512C108.914 391.288 108.928 390.784 108.928 390.784H103.524C103.594 390.182 103.636 389.566 103.678 388.964H110.454ZM119.064 391.918V393.78H116.628V391.918H119.064ZM120.59 395.236V390.462H115.13V396.216H116.628V395.236H120.59ZM123.67 387.48H117.832C118.168 386.864 118.518 386.136 118.812 385.436L116.698 385.142C116.53 385.842 116.25 386.724 115.956 387.48H112.092V398.204H113.758V389.104H121.99V396.244C121.99 396.496 121.906 396.566 121.64 396.566C121.36 396.58 120.422 396.594 119.596 396.538C119.834 396.986 120.086 397.742 120.142 398.218C121.402 398.218 122.298 398.19 122.886 397.924C123.474 397.658 123.67 397.182 123.67 396.272V387.48Z" fill="black"/>
<path d="M173.15 394.088V393.178H175.488V394.088H173.15ZM175.488 391.078V391.946H173.15V391.078H175.488ZM177.098 389.678H171.568V398.134H173.15V395.306H175.488V396.552C175.488 396.72 175.432 396.776 175.264 396.776C175.082 396.79 174.522 396.79 174.004 396.762C174.214 397.14 174.452 397.756 174.536 398.176C175.39 398.176 176.034 398.148 176.482 397.91C176.958 397.672 177.098 397.28 177.098 396.566V389.678ZM181.088 396.356C181.088 396.552 181.018 396.608 180.794 396.608C180.556 396.622 179.828 396.622 179.114 396.594C179.366 397.028 179.632 397.714 179.716 398.162C180.724 398.176 181.48 398.134 182.012 397.882C182.572 397.616 182.726 397.21 182.726 396.384V389.426H181.088V396.356ZM179.828 389.818H178.302V395.53H179.828V389.818ZM180.626 387.214C180.976 386.724 181.354 386.178 181.69 385.632L179.884 385.1C179.604 385.744 179.156 386.57 178.736 387.214H174.844L175.614 386.948C175.376 386.416 174.816 385.66 174.312 385.128L172.73 385.674C173.122 386.136 173.528 386.738 173.78 387.214H170.798V388.712H183.468V387.214H180.626ZM192.484 389.426H190.664V388.544H192.484V389.426ZM192.484 391.694H190.664V390.77H192.484V391.694ZM192.484 393.99H190.664V393.038H192.484V393.99ZM189.054 395.39H197.09V393.99H194.066V393.038H196.418V391.694H194.066V390.77H196.474V389.426H194.066V388.544H196.852V387.144H194.374C194.626 386.668 194.878 386.15 195.13 385.646L193.296 385.296C193.156 385.842 192.946 386.528 192.708 387.144H191.112C191.378 386.654 191.616 386.164 191.826 385.66L190.174 385.184C189.53 386.85 188.368 388.46 187.08 389.44C187.43 389.748 188.046 390.42 188.298 390.756C188.55 390.532 188.802 390.294 189.054 390.028V395.39ZM187.962 387.718C187.514 387.046 186.548 386.122 185.764 385.492L184.49 386.444C185.274 387.116 186.198 388.082 186.59 388.768L187.962 387.718ZM187.584 390.574H184.434V392.1H186.002V395.152C185.442 395.628 184.812 396.09 184.266 396.44L185.05 398.092C185.764 397.49 186.338 396.958 186.898 396.412C187.738 397.49 188.858 397.896 190.524 397.966C192.232 398.036 195.2 398.008 196.936 397.924C197.02 397.462 197.258 396.692 197.454 396.3C195.522 396.454 192.218 396.496 190.538 396.426C189.11 396.37 188.13 395.978 187.584 395.04V390.574Z" fill="black"/>
<path d="M324.332 391.274C323.086 394.816 320.384 396.132 315.722 396.65C316.072 397.07 316.394 397.728 316.562 398.232C321.63 397.462 324.528 395.894 326.04 391.82L324.332 391.274ZM317.346 390.868C316.716 391.876 315.61 392.898 314.532 393.514C314.938 393.78 315.652 394.34 315.988 394.662C317.038 393.892 318.284 392.646 319.054 391.428L317.346 390.868ZM321.896 389.09V388.026H325.844V386.486H321.896V385.156H320.202V389.09H318.312V386.052H316.618V389.09H314.714V390.672H320.216V393.304C320.216 393.458 320.146 393.472 319.95 393.472C319.754 393.486 318.998 393.486 318.41 393.472C318.62 393.892 318.858 394.522 318.928 394.956C319.894 394.956 320.622 394.956 321.168 394.732C321.714 394.494 321.868 394.102 321.868 393.332V390.672H327.286V389.09H321.896Z" fill="black"/>
<path d="M141.841 396.788C141.079 397.476 139.921 397.476 139.159 396.788L134.396 392.484C133.037 391.256 133.906 389 135.737 389L145.263 389C147.094 389 147.963 391.256 146.604 392.484L141.841 396.788Z" fill="black"/>
<path d="M166.024 62.64H168.16V64.824H166.024V62.64ZM166.024 59.208H168.16V61.368H166.024V59.208ZM171.52 61.368H169.36V59.208H171.52V61.368ZM171.52 64.824H169.36V62.64H171.52V64.824ZM169.552 66.168H172.888V57.864H169.552V56.04H173.392V54.504H169.552V51.912H167.968V54.504H164.32V56.04H167.968V57.864H164.68V66.168H167.968V68.088H164.032V69.672H167.968V73.848H169.552V69.672H173.32V68.088H169.552V66.168ZM175.312 67.776V65.784H178.024V67.776H175.312ZM178.024 62.664V64.512H175.312V62.664H178.024ZM179.344 61.32H173.992V73.752H175.312V69.12H178.024V72.288C178.024 72.456 177.976 72.528 177.808 72.528H176.608C176.752 72.888 176.944 73.464 176.968 73.8C177.856 73.8 178.432 73.8 178.84 73.56C179.224 73.32 179.344 72.936 179.344 72.288V61.32ZM182.92 58.032H176.32V59.472H182.92V58.032ZM182.008 61.824H180.688V70.224H182.008V61.824ZM183.904 72.072C183.904 72.336 183.808 72.384 183.544 72.408C183.28 72.432 182.392 72.432 181.408 72.408C181.6 72.792 181.792 73.392 181.864 73.752C183.256 73.752 184.096 73.728 184.672 73.536C185.2 73.272 185.368 72.864 185.368 72.096V60.936H183.904V72.072ZM178.768 52.008C177.64 54.264 175.36 56.88 172.936 58.296C173.224 58.704 173.632 59.328 173.824 59.76C176.248 58.224 178.432 55.776 179.632 53.664C180.976 55.8 183.304 58.176 185.512 59.568C185.776 59.088 186.16 58.416 186.472 58.032C184.24 56.808 181.84 54.432 180.352 52.008H178.768ZM192.52 53.376V55.152H198.424C198.472 56.064 198.568 57.12 198.736 58.224L197.68 58.056C196.216 64.776 193.264 69.6 187.96 72.36C188.44 72.672 189.232 73.416 189.568 73.776C194.344 70.968 197.368 66.6 199.144 60.384C200.224 64.92 202.768 70.176 208.672 73.752C208.984 73.32 209.704 72.552 210.112 72.264C200.704 66.672 200.152 57.624 200.152 53.376H192.52Z" fill="black"/>
<rect x="225" y="729" width="134" height="43" rx="21.5" fill="#FEA735"/>
<path d="M276.923 745.12H289.181V747.622H290.567V743.86H283.727V741.952H282.341V743.86H275.573V747.622H276.923V745.12ZM287.921 748.36V747.118H278.219V748.36H287.921ZM286.589 756.838C285.833 756.838 285.707 756.73 285.707 756.226V751.672H290.999V750.412H275.159V751.672H279.803C279.479 754.39 278.597 756.316 274.763 757.27C275.051 757.522 275.411 758.08 275.555 758.404C279.749 757.234 280.811 754.93 281.225 751.672H284.375V756.226C284.375 757.648 284.807 758.062 286.445 758.062H289.217C290.639 758.062 291.035 757.432 291.179 754.984C290.819 754.876 290.261 754.66 289.955 754.462C289.901 756.514 289.775 756.838 289.109 756.838H286.589ZM304.139 742.834C305.273 743.446 306.641 744.364 307.325 744.994L308.153 744.076C307.451 743.446 306.047 742.582 304.931 742.024L304.139 742.834ZM306.695 747.694C306.137 749.512 305.363 751.132 304.391 752.554C303.905 750.844 303.581 748.702 303.401 746.308H309.125V744.994H303.311C303.257 744.022 303.239 743.014 303.239 741.97H301.853C301.871 742.996 301.889 744.004 301.961 744.994H294.455V750.016C294.455 752.338 294.293 755.416 292.817 757.612C293.123 757.774 293.699 758.242 293.933 758.512C295.553 756.172 295.823 752.554 295.823 750.034V749.89H299.099C299.027 752.986 298.937 754.12 298.685 754.39C298.577 754.552 298.397 754.588 298.145 754.588C297.839 754.588 297.065 754.57 296.237 754.498C296.453 754.84 296.597 755.344 296.615 755.758C297.497 755.794 298.307 755.794 298.757 755.758C299.261 755.704 299.567 755.578 299.837 755.236C300.215 754.768 300.323 753.256 300.413 749.224V748.648H295.823V746.308H302.033C302.267 749.206 302.699 751.852 303.347 753.886C302.195 755.236 300.809 756.352 299.207 757.216C299.513 757.468 299.981 758.008 300.179 758.278C301.565 757.468 302.807 756.46 303.887 755.29C304.715 757.144 305.795 758.242 307.181 758.242C308.549 758.242 309.035 757.36 309.287 754.3C308.927 754.192 308.441 753.886 308.135 753.58C308.009 755.974 307.793 756.91 307.289 756.91C306.371 756.91 305.543 755.884 304.877 754.12C306.209 752.41 307.271 750.358 308.045 748.036L306.695 747.694Z" fill="black"/>
<g clip-path="url(#clip0_345_196)">
<path d="M38 86.0007C50.1506 86.0007 60.0007 76.1506 60.0007 64C60.0007 51.8493 50.1506 41.9993 38 41.9993C25.8493 41.9993 15.9993 51.8493 15.9993 64C15.9993 76.1506 25.8493 86.0007 38 86.0007Z" fill="#FEA735"/>
<path d="M46.6571 62.4124L32.8641 62.2907L37.8624 56.5786C38.4399 55.9186 38.3729 54.9159 37.7128 54.3384C37.0531 53.7613 36.0497 53.8279 35.4726 54.4877L28.3459 62.6325C28.0001 62.9208 27.774 63.348 27.7694 63.8331C27.7694 63.8405 27.7715 63.8479 27.7715 63.8553C27.7641 64.2321 27.8883 64.6117 28.1487 64.9172L35.4595 73.496C35.7735 73.8643 36.2194 74.0538 36.6685 74.0538C37.0326 74.0538 37.3985 73.9292 37.6976 73.6745C38.3651 73.1058 38.4448 72.1035 37.8761 71.4364L32.7868 65.4654L46.6289 65.5875C46.6338 65.5875 46.6384 65.5875 46.6433 65.5875C47.5137 65.5875 48.2228 64.8858 48.2305 64.014C48.2383 63.1374 47.5341 62.4201 46.6571 62.4124Z" fill="black"/>
</g>
<rect x="17.5" y="103.5" width="340" height="40" rx="20" fill="#FCF5EF" stroke="#FEA735" stroke-width="3"/>
<path d="M43.3156 119.172V125.71H41.9016V119.172H43.3156ZM44.1556 126.578V118.318H41.0616V127.922H41.9016V126.578H44.1556ZM46.7456 120.096C46.7596 119.214 46.7736 118.29 46.7736 117.338H45.8636C45.8636 118.304 45.8636 119.228 45.8496 120.096H44.6596V121.034H45.8216C45.7236 124.716 45.3176 127.67 43.5536 129.448C43.7776 129.588 44.1136 129.896 44.2816 130.12C46.1856 128.132 46.6196 124.982 46.7316 121.034H47.9356C47.7816 126.396 47.6136 128.258 47.3056 128.678C47.1796 128.874 47.0816 128.902 46.8996 128.902C46.6896 128.902 46.2836 128.902 45.8356 128.86C45.9756 129.126 46.0736 129.518 46.0736 129.798C46.5356 129.84 46.9976 129.826 47.3056 129.798C47.6416 129.742 47.8796 129.63 48.1036 129.294C48.5236 128.692 48.6776 126.746 48.8596 120.586C48.8736 120.474 48.8736 120.096 48.8736 120.096H46.7456ZM50.2736 127.446V119.858H52.0096V127.446H50.2736ZM49.4196 118.92V129.56H50.2736V128.384H52.0096V129.448H52.9056V118.92H49.4196ZM57.7076 119.55V125.024H55.9576V119.55H57.7076ZM58.6456 125.976V118.584H55.0336V127.208H55.9576V125.976H58.6456ZM62.8876 124.73L62.3136 124.926C62.3416 124.492 62.3556 124.058 62.3556 123.61V117.408H61.3616V119.648H59.0236V120.614H61.3616V122.546H59.1216V123.498H61.3616V123.596C61.3616 124.156 61.3476 124.716 61.2776 125.276C60.2136 125.626 59.2056 125.948 58.4636 126.158L58.8696 127.096C59.5416 126.858 60.2976 126.578 61.0816 126.27C60.7736 127.502 60.0876 128.608 58.6736 129.448C58.9256 129.602 59.2756 129.924 59.4436 130.12C61.2216 129.042 61.9356 127.53 62.2156 125.836L63.0276 125.514L62.8876 124.73ZM67.3536 125.472H64.6096V123.498H67.0456V122.546H64.6096V120.614H67.2136V119.648H64.6096V117.38H63.6016V130.05H64.6096V126.438H67.3536V125.472Z" fill="black"/>
<path opacity="0.35" d="M338.979 16.5026H355.469C356.666 16.5026 357.636 17.4726 357.636 18.6692V24.6692C357.636 25.8658 356.666 26.8359 355.469 26.8359H338.979C337.782 26.8359 336.812 25.8658 336.812 24.6692V18.6692C336.812 17.4726 337.782 16.5026 338.979 16.5026Z" stroke="black"/>
<path opacity="0.4" d="M359.128 19.6692V23.6692C359.926 23.3304 360.445 22.5423 360.445 21.6692C360.445 20.7961 359.926 20.008 359.128 19.6692" fill="black"/>
<path d="M338.296 19.3359C338.296 18.5995 338.893 18.0026 339.629 18.0026H354.819C355.555 18.0026 356.152 18.5995 356.152 19.3359V24.0026C356.152 24.7389 355.555 25.3359 354.819 25.3359H339.629C338.893 25.3359 338.296 24.7389 338.296 24.0026V19.3359Z" fill="black"/>
<path fill-rule="evenodd" clip-rule="evenodd" d="M323.744 18.2773C325.942 18.2774 328.056 19.1289 329.649 20.6557C329.769 20.7735 329.961 20.772 330.079 20.6523L331.226 19.4857C331.286 19.4249 331.319 19.3427 331.318 19.2571C331.318 19.1715 331.284 19.0897 331.223 19.0297C327.042 14.9901 320.445 14.9901 316.264 19.0297C316.203 19.0896 316.169 19.1715 316.168 19.257C316.168 19.3426 316.201 19.4249 316.261 19.4857L317.408 20.6523C317.526 20.7722 317.718 20.7737 317.838 20.6557C319.431 19.1288 321.545 18.2773 323.744 18.2773ZM323.744 22.073C324.952 22.0729 326.116 22.5255 327.011 23.3427C327.133 23.4587 327.323 23.4562 327.441 23.337L328.587 22.1704C328.647 22.1092 328.681 22.0261 328.68 21.9399C328.679 21.8536 328.644 21.7713 328.582 21.7114C325.856 19.155 321.634 19.155 318.908 21.7114C318.846 21.7713 318.811 21.8537 318.81 21.9399C318.809 22.0262 318.843 22.1092 318.903 22.1704L320.049 23.337C320.167 23.4562 320.357 23.4587 320.478 23.3427C321.373 22.526 322.537 22.0735 323.744 22.073ZM326.038 24.6268C326.04 24.7133 326.006 24.7967 325.945 24.8573L323.964 26.873C323.906 26.9323 323.826 26.9656 323.744 26.9656C323.661 26.9656 323.582 26.9323 323.524 26.873L321.542 24.8573C321.481 24.7967 321.447 24.7133 321.449 24.6268C321.451 24.5403 321.488 24.4583 321.552 24.4003C322.817 23.3215 324.67 23.3215 325.936 24.4003C325.999 24.4584 326.037 24.5403 326.038 24.6268Z" fill="black"/>
<path fill-rule="evenodd" clip-rule="evenodd" d="M312.189 16.3359H311.197C310.65 16.3359 310.205 16.7837 310.205 17.3359V26.0026C310.205 26.5549 310.65 27.0026 311.197 27.0026H312.189C312.737 27.0026 313.181 26.5549 313.181 26.0026V17.3359C313.181 16.7837 312.737 16.3359 312.189 16.3359ZM306.568 18.6693H307.56C308.108 18.6693 308.552 19.117 308.552 19.6693V26.0026C308.552 26.5549 308.108 27.0026 307.56 27.0026H306.568C306.02 27.0026 305.576 26.5549 305.576 26.0026V19.6693C305.576 19.117 306.02 18.6693 306.568 18.6693ZM302.931 21.0026H301.939C301.391 21.0026 300.947 21.4503 300.947 22.0026V26.0026C300.947 26.5549 301.391 27.0026 301.939 27.0026H302.931C303.479 27.0026 303.923 26.5549 303.923 26.0026V22.0026C303.923 21.4503 303.479 21.0026 302.931 21.0026ZM298.301 23.0026H297.309C296.762 23.0026 296.317 23.4503 296.317 24.0026V26.0026C296.317 26.5549 296.762 27.0026 297.309 27.0026H298.301C298.849 27.0026 299.293 26.5549 299.293 26.0026V24.0026C299.293 23.4503 298.849 23.0026 298.301 23.0026Z" fill="black"/>
<path d="M38.4455 22.8765C37.9133 23.355 37.3176 23.5942 36.6584 23.5942C35.6916 23.5942 34.925 23.2671 34.3586 22.6128C33.7922 21.9585 33.509 21.0845 33.509 19.9907C33.509 19.3071 33.6677 18.6724 33.9851 18.0864C34.3025 17.5005 34.7468 17.0366 35.3181 16.6948C35.8943 16.353 36.529 16.1821 37.2224 16.1821C37.9255 16.1821 38.5603 16.3604 39.1267 16.7168C39.698 17.0684 40.1423 17.5688 40.4597 18.2183C40.7771 18.8628 40.9406 19.6074 40.9504 20.4521V21.397C40.9504 22.5737 40.7185 23.5942 40.2546 24.4585C39.7956 25.3228 39.1389 25.9868 38.2844 26.4507C37.4299 26.9146 36.4338 27.1465 35.2961 27.1465H35.1423V25.1689L35.6111 25.1616C37.3103 25.0786 38.2551 24.3169 38.4455 22.8765ZM37.3249 21.8145C37.862 21.8145 38.2478 21.5825 38.4821 21.1187V20.0933C38.4821 19.4097 38.3674 18.9043 38.1379 18.5771C37.9084 18.25 37.5984 18.0864 37.2077 18.0864C36.8611 18.0864 36.5705 18.272 36.3361 18.6431C36.1018 19.0142 35.9846 19.4634 35.9846 19.9907C35.9846 20.5474 36.1042 20.9917 36.3435 21.3237C36.5827 21.6509 36.9099 21.8145 37.3249 21.8145ZM43.5435 24.605C43.9341 24.605 44.2588 24.7222 44.5176 24.9565C44.7764 25.186 44.9058 25.4814 44.9058 25.8428C44.9058 26.2041 44.7764 26.502 44.5176 26.7363C44.2588 26.9658 43.9341 27.0806 43.5435 27.0806C43.148 27.0806 42.8208 26.9634 42.562 26.729C42.3081 26.4946 42.1812 26.1992 42.1812 25.8428C42.1812 25.4863 42.3081 25.1909 42.562 24.9565C42.8208 24.7222 43.148 24.605 43.5435 24.605ZM43.5435 18.7603C43.9341 18.7603 44.2588 18.8774 44.5176 19.1118C44.7764 19.3413 44.9058 19.6367 44.9058 19.998C44.9058 20.3594 44.7764 20.6572 44.5176 20.8916C44.2588 21.1211 43.9341 21.2358 43.5435 21.2358C43.148 21.2358 42.8208 21.1187 42.562 20.8843C42.3081 20.6499 42.1812 20.3545 42.1812 19.998C42.1812 19.6416 42.3081 19.3462 42.562 19.1118C42.8208 18.8774 43.148 18.7603 43.5435 18.7603ZM51.6517 27H49.1761V19.1191L46.7444 19.8296V17.9546L51.4246 16.3359H51.6517V27ZM61.0856 22.8325H62.1695V24.7368H61.0856V27H58.6173V24.7368H54.4938L54.3473 23.228L58.6173 16.3579V16.3359H61.0856V22.8325ZM56.6984 22.8325H58.6173V19.5513L58.4635 19.8003L56.6984 22.8325Z" fill="black"/>
<defs>
<clipPath id="clip0_345_196">
<rect width="44" height="44" fill="white" transform="translate(16 42)"/>
</clipPath>
</defs>
</svg>
