<svg width="375" height="812" viewBox="0 0 375 812" fill="none" xmlns="http://www.w3.org/2000/svg">
<rect width="375" height="812" rx="40" fill="#FCF5EF"/>
<rect x="121" y="799" width="134" height="5" rx="2.5" fill="black"/>
<rect x="16" y="263" width="343" height="43" rx="21.5" fill="#FEA735"/>
<path d="M119.82 290.136V287.472H129.414V290.136H119.82ZM129.414 283.602V286.212H119.82V283.602H129.414ZM129.414 279.66V282.342H119.82V279.66H129.414ZM124.338 278.382C124.644 277.698 124.968 276.888 125.238 276.114L123.708 275.916C123.564 276.618 123.276 277.59 123.006 278.382H118.488V292.404H119.82V291.396H129.414V292.314H130.8V278.382H124.338ZM150.114 277.032H141.33V278.292H150.114V277.032ZM138.324 275.934C137.424 277.212 135.696 278.832 134.202 279.84C134.436 280.092 134.796 280.614 134.994 280.902C136.596 279.768 138.432 278.022 139.602 276.438L138.324 275.934ZM139.062 279.768C137.82 281.802 135.876 283.872 134.022 285.186C134.292 285.456 134.76 286.032 134.958 286.302C135.624 285.78 136.308 285.132 136.992 284.43V292.422H138.324V282.954C139.062 282.072 139.746 281.154 140.304 280.236L139.062 279.768ZM150.636 281.946H140.556V283.224H146.568V290.64C146.568 290.946 146.46 291.018 146.118 291.036C145.776 291.054 144.588 291.054 143.31 291.018C143.508 291.396 143.688 291.954 143.742 292.314C145.506 292.314 146.514 292.314 147.126 292.116C147.72 291.9 147.918 291.486 147.918 290.658V283.224H150.636V281.946ZM153.156 286.14C152.958 287.706 152.616 289.326 152.058 290.424C152.31 290.514 152.832 290.748 153.03 290.892C153.606 289.74 154.002 288.03 154.254 286.338L153.156 286.14ZM157.44 284.7C157.584 285.132 157.692 285.528 157.746 285.852L158.772 285.42C158.556 284.412 157.926 282.846 157.242 281.658L156.306 282.018C156.558 282.504 156.81 283.044 157.026 283.584L154.614 283.71C155.766 282.198 157.098 280.146 158.07 278.472L156.972 277.986C156.504 278.94 155.856 280.11 155.154 281.226C154.902 280.884 154.578 280.488 154.218 280.092C154.848 279.102 155.622 277.626 156.234 276.384L155.082 275.952C154.722 276.942 154.074 278.328 153.498 279.354C153.318 279.174 153.12 278.976 152.94 278.814L152.22 279.642C153.048 280.416 153.948 281.46 154.47 282.27C154.11 282.828 153.75 283.332 153.408 283.782C152.94 283.8 152.49 283.818 152.094 283.836L152.22 285.042C153.03 284.988 153.948 284.934 154.938 284.862V292.368H156.108V284.79L157.44 284.7ZM165.774 287.85V285.78H167.196V287.85H165.774ZM163.47 287.85V285.78H164.856V287.85H163.47ZM161.22 287.85V285.78H162.57V287.85H161.22ZM166.674 280.488V282.414H160.464V280.488H166.674ZM168.33 284.736H160.428C160.446 284.304 160.464 283.908 160.464 283.512H167.97V279.372H159.258V283.314C159.258 285.042 159.168 287.256 158.448 289.236C158.34 288.354 157.998 287.076 157.566 286.086L156.63 286.374C157.044 287.4 157.404 288.75 157.458 289.632L158.412 289.362C158.142 290.064 157.8 290.748 157.35 291.36C157.62 291.504 158.124 291.882 158.322 292.116C159.384 290.658 159.942 288.804 160.212 286.986V292.368H161.22V288.876H162.57V292.188H163.47V288.876H164.856V292.188H165.774V288.876H167.196V291.09C167.196 291.252 167.16 291.288 167.052 291.288C166.908 291.288 166.53 291.288 166.098 291.27C166.242 291.576 166.422 292.044 166.458 292.368C167.124 292.368 167.592 292.332 167.934 292.17C168.258 291.954 168.33 291.63 168.33 291.108V284.736ZM158.574 277.032V278.202H168.402V277.032H158.574ZM175.458 288.66C175.818 289.668 176.088 291 176.07 291.81L177.168 291.648C177.168 290.838 176.898 289.542 176.502 288.552L175.458 288.66ZM177.996 288.588C178.518 289.452 178.986 290.586 179.13 291.342L180.156 291.036C180.012 290.28 179.508 289.146 178.932 288.3L177.996 288.588ZM182.928 290.01C182.64 289.452 181.974 288.624 181.362 288.048L180.462 288.48C181.074 289.074 181.722 289.92 181.992 290.496L182.928 290.01ZM175.71 286.554C176.052 286.176 176.376 285.798 176.646 285.384H183.99V280.038H179.022V281.028H182.766V282.234H179.292V283.188H182.766V284.412H174.306V283.188H177.744V282.234H174.306V281.082C175.566 280.812 176.988 280.452 178.05 280.002L177.204 279.138C176.412 279.516 175.098 279.912 173.91 280.218L173.1 280.038V285.384H175.17C174.054 286.806 172.2 287.94 170.346 288.66C170.598 288.912 170.994 289.47 171.138 289.722C171.858 289.398 172.596 289.002 173.28 288.552C173.01 289.686 172.488 290.856 171.66 291.54L172.668 292.152C173.64 291.342 174.108 289.974 174.414 288.678L173.496 288.408C173.856 288.174 174.198 287.922 174.522 287.652H184.206C184.062 289.866 183.882 290.784 183.612 291.072C183.468 291.216 183.324 291.234 183.018 291.216C182.694 291.234 181.884 291.216 181.02 291.144C181.236 291.45 181.362 291.954 181.398 292.296C182.28 292.35 183.144 292.368 183.576 292.314C184.08 292.296 184.404 292.188 184.71 291.864C185.142 291.396 185.358 290.172 185.556 287.094C185.574 286.914 185.592 286.554 185.592 286.554H175.71ZM179.13 277.392V275.952H177.816V277.392H170.922V280.56H172.146V278.562H184.836V280.56H186.096V277.392H179.13ZM202.458 281.154H197.058V277.86H202.458V281.154ZM203.772 276.69H195.834V282.306H203.772V276.69ZM195.114 285.798C194.754 285.384 193.224 283.8 192.666 283.332V282.234H194.916V280.974H192.666V277.932C193.512 277.734 194.304 277.482 194.952 277.212L194.016 276.204C192.702 276.798 190.344 277.32 188.328 277.644C188.49 277.95 188.67 278.382 188.742 278.688C189.57 278.562 190.488 278.418 191.37 278.238V280.974H188.436V282.234H191.19C190.47 284.286 189.228 286.608 188.094 287.868C188.31 288.192 188.634 288.714 188.76 289.092C189.678 287.994 190.632 286.194 191.37 284.376V292.332H192.666V284.628C193.278 285.366 194.016 286.356 194.304 286.86L195.114 285.798ZM200.406 290.694V288.372H203.988V287.202H200.406V285.06H204.384V283.872H195.168V285.06H199.074V287.202H195.582V288.372H199.074V290.694H194.358V291.9H204.78V290.694H200.406ZM221.736 278.22C221.196 277.608 220.062 276.69 219.144 276.078L218.244 276.816C219.162 277.464 220.278 278.436 220.8 279.066L221.736 278.22ZM211.71 284.556H215.076V283.26H207.192V284.556H210.396V289.776C208.956 290.064 207.642 290.334 206.634 290.532L207.048 291.846C209.334 291.342 212.628 290.586 215.67 289.848L215.562 288.678C214.266 288.966 212.97 289.218 211.71 289.488V284.556ZM222.474 280.578V279.282H217.146C217.092 278.22 217.074 277.14 217.074 276.024H215.67C215.688 277.122 215.706 278.22 215.76 279.282H206.562V280.578H215.85C216.318 287.238 217.812 292.404 220.746 292.404C222.114 292.404 222.618 291.486 222.852 288.372C222.474 288.228 221.97 287.94 221.664 287.634C221.556 290.028 221.34 291.018 220.854 291.018C219.072 291.018 217.65 286.644 217.218 280.578H222.474ZM232.626 279.912H233.904V278.562H236.64V279.93H237.936V278.562H240.438V277.428H237.936V275.952H236.64V277.428H233.904V275.952H232.626V277.428H230.016V278.562H232.626V279.912ZM230.106 284.862C229.782 284.304 228.432 282.036 227.964 281.352V280.65H229.818V279.39H227.964V275.934H226.686V279.39H224.472V280.65H226.686C226.2 283.08 225.174 285.942 224.13 287.436C224.364 287.76 224.688 288.336 224.832 288.732C225.498 287.67 226.164 286.032 226.686 284.286V292.368H227.964V283.152C228.45 284.088 229.008 285.24 229.26 285.852L230.106 284.862ZM231.996 283.494H238.224V284.772H231.996V283.494ZM231.996 281.262H238.224V282.54H231.996V281.262ZM240.42 288.408V287.274H235.47C235.56 286.806 235.65 286.302 235.704 285.78H239.502V280.254H230.754V285.78H234.39C234.318 286.302 234.246 286.824 234.138 287.274H229.62V288.408H233.742C233.058 289.776 231.78 290.73 229.152 291.324C229.386 291.576 229.728 292.08 229.836 292.368C232.968 291.612 234.408 290.352 235.128 288.444C236.028 290.406 237.684 291.738 239.988 292.368C240.168 292.026 240.546 291.522 240.834 291.27C238.8 290.838 237.27 289.848 236.388 288.408H240.42ZM243.192 286.14C242.994 287.724 242.616 289.326 242.022 290.424C242.31 290.514 242.85 290.766 243.066 290.928C243.66 289.776 244.092 288.048 244.344 286.356L243.192 286.14ZM248.016 284.826C248.178 285.204 248.286 285.546 248.358 285.852L249.42 285.348C249.168 284.376 248.376 282.846 247.638 281.694L246.648 282.126C246.954 282.612 247.26 283.17 247.53 283.728C246.54 283.764 245.55 283.818 244.65 283.854C245.892 282.306 247.332 280.182 248.376 278.49L247.224 277.986C246.72 278.958 246.036 280.128 245.298 281.262C245.01 280.884 244.632 280.452 244.2 280.02C244.884 279.048 245.64 277.608 246.252 276.402L245.064 275.952C244.686 276.942 244.056 278.292 243.462 279.3C243.282 279.138 243.102 278.976 242.922 278.832L242.238 279.714C243.084 280.47 244.038 281.478 244.596 282.288C244.2 282.882 243.786 283.422 243.39 283.89C242.976 283.908 242.562 283.926 242.202 283.926L242.31 285.132L245.244 284.988V292.404H246.45V284.916L248.016 284.826ZM247.098 286.392C247.584 287.508 248.088 288.948 248.25 289.884L249.312 289.524C249.15 288.588 248.628 287.166 248.106 286.068L247.098 286.392ZM251.562 287.202H256.134V290.64H251.562V287.202ZM256.134 278.166V281.478H251.562V278.166H256.134ZM256.134 285.996H251.562V282.684H256.134V285.996ZM257.448 290.64V276.96H250.266V290.64H248.358V291.864H258.834V290.64H257.448Z" fill="black"/>
<rect x="17.5" y="322.5" width="340" height="448" rx="23.5" stroke="#FEA735" stroke-width="3"/>
<path d="M16 346C16 332.193 27.1929 321 41 321H334C347.807 321 359 332.193 359 346V364H16V346Z" fill="#FEA735"/>
<path d="M148.084 336.742H144.628V338.614C144.628 339.694 145.006 339.964 146.338 339.964H148.75C149.704 339.964 150.046 339.64 150.172 338.434C149.848 338.362 149.416 338.218 149.182 338.056C149.128 338.902 149.038 339.01 148.606 339.01H146.464C145.87 339.01 145.762 338.938 145.762 338.596V337.678H149.272V334.636H144.286V335.572H148.084V336.742ZM142.288 336.742H138.76V338.614C138.76 339.694 139.102 339.964 140.434 339.964H142.666C143.584 339.964 143.926 339.658 144.052 338.488C143.728 338.434 143.296 338.29 143.062 338.11C143.008 338.902 142.918 339.01 142.486 339.01H140.542C139.966 339.01 139.876 338.938 139.876 338.614V337.678H143.422V334.636H138.436V335.572H142.288V336.742ZM142.576 342.52H145.528V344.23H142.576V342.52ZM150.064 344.23H146.806V342.52H149.506V341.494H146.806V340.198H145.528V341.494H142.576V340.198H141.334V341.494H138.67V342.52H141.334V344.23H138.094V345.274H150.064V344.23ZM149.794 347.668C148.948 347.002 147.472 346.138 146.158 345.508L145.204 346.102C146.446 346.732 147.742 347.578 148.498 348.244L149.794 347.668ZM141.928 345.472C141.136 346.192 139.804 346.876 138.58 347.362C138.868 347.542 139.354 347.974 139.57 348.208C140.758 347.632 142.198 346.75 143.116 345.886L141.928 345.472ZM137.752 337.354C137.248 336.454 136.06 335.212 134.998 334.366L133.972 335.05C135.016 335.932 136.168 337.21 136.636 338.11L137.752 337.354ZM137.338 340.99H133.882V342.25H136.096V346.894C135.304 347.65 134.422 348.406 133.666 348.964L134.368 350.206C135.232 349.414 136.042 348.658 136.798 347.866C137.914 349.288 139.552 349.936 141.928 350.026C143.962 350.098 147.85 350.062 149.884 349.972C149.938 349.594 150.154 349 150.316 348.712C148.12 348.856 143.926 348.91 141.892 348.82C139.786 348.73 138.184 348.118 137.338 346.768V340.99ZM157.084 341.512C156.49 341.71 155.896 341.908 155.302 342.088V338.776H157.228V337.552H155.302V333.952H154.06V337.552H151.81V338.776H154.06V342.466C153.124 342.754 152.26 343.024 151.576 343.204L151.918 344.5L154.06 343.798V348.82C154.06 349.09 153.97 349.144 153.754 349.144C153.538 349.162 152.836 349.162 152.062 349.144C152.242 349.504 152.404 350.062 152.458 350.368C153.574 350.386 154.258 350.332 154.69 350.134C155.14 349.918 155.302 349.558 155.302 348.82V343.402L157.264 342.754L157.084 341.512ZM164.482 344.662H160.864L161.368 344.518C161.278 344.086 160.99 343.438 160.72 342.952H164.806C164.608 343.456 164.302 344.104 164.068 344.536L164.482 344.662ZM161.908 335.644H163.69V337.534H161.908V335.644ZM160.828 337.534H159.118V335.644H160.828V337.534ZM164.77 335.644H166.588V337.534H164.77V335.644ZM168.244 341.89H163.348V340.612H167.362V339.604H163.348V338.488H167.704V334.672H158.02V338.488H162.088V339.604H158.218V340.612H162.088V341.89H157.336V342.952H160.288L159.55 343.132C159.802 343.582 160.054 344.194 160.18 344.662H157.498V345.706H162.088V346.984H157.876V348.028H162.088V350.512H163.348V348.028H167.596V346.984H163.348V345.706H167.992V344.662H165.202C165.49 344.194 165.814 343.618 166.156 343.024L165.886 342.952H168.244V341.89ZM183.958 339.154H178.558V335.86H183.958V339.154ZM185.272 334.69H177.334V340.306H185.272V334.69ZM176.614 343.798C176.254 343.384 174.724 341.8 174.166 341.332V340.234H176.416V338.974H174.166V335.932C175.012 335.734 175.804 335.482 176.452 335.212L175.516 334.204C174.202 334.798 171.844 335.32 169.828 335.644C169.99 335.95 170.17 336.382 170.242 336.688C171.07 336.562 171.988 336.418 172.87 336.238V338.974H169.936V340.234H172.69C171.97 342.286 170.728 344.608 169.594 345.868C169.81 346.192 170.134 346.714 170.26 347.092C171.178 345.994 172.132 344.194 172.87 342.376V350.332H174.166V342.628C174.778 343.366 175.516 344.356 175.804 344.86L176.614 343.798ZM181.906 348.694V346.372H185.488V345.202H181.906V343.06H185.884V341.872H176.668V343.06H180.574V345.202H177.082V346.372H180.574V348.694H175.858V349.9H186.28V348.694H181.906ZM203.236 336.22C202.696 335.608 201.562 334.69 200.644 334.078L199.744 334.816C200.662 335.464 201.778 336.436 202.3 337.066L203.236 336.22ZM193.21 342.556H196.576V341.26H188.692V342.556H191.896V347.776C190.456 348.064 189.142 348.334 188.134 348.532L188.548 349.846C190.834 349.342 194.128 348.586 197.17 347.848L197.062 346.678C195.766 346.966 194.47 347.218 193.21 347.488V342.556ZM203.974 338.578V337.282H198.646C198.592 336.22 198.574 335.14 198.574 334.024H197.17C197.188 335.122 197.206 336.22 197.26 337.282H188.062V338.578H197.35C197.818 345.238 199.312 350.404 202.246 350.404C203.614 350.404 204.118 349.486 204.352 346.372C203.974 346.228 203.47 345.94 203.164 345.634C203.056 348.028 202.84 349.018 202.354 349.018C200.572 349.018 199.15 344.644 198.718 338.578H203.974ZM214.126 337.912H215.404V336.562H218.14V337.93H219.436V336.562H221.938V335.428H219.436V333.952H218.14V335.428H215.404V333.952H214.126V335.428H211.516V336.562H214.126V337.912ZM211.606 342.862C211.282 342.304 209.932 340.036 209.464 339.352V338.65H211.318V337.39H209.464V333.934H208.186V337.39H205.972V338.65H208.186C207.7 341.08 206.674 343.942 205.63 345.436C205.864 345.76 206.188 346.336 206.332 346.732C206.998 345.67 207.664 344.032 208.186 342.286V350.368H209.464V341.152C209.95 342.088 210.508 343.24 210.76 343.852L211.606 342.862ZM213.496 341.494H219.724V342.772H213.496V341.494ZM213.496 339.262H219.724V340.54H213.496V339.262ZM221.92 346.408V345.274H216.97C217.06 344.806 217.15 344.302 217.204 343.78H221.002V338.254H212.254V343.78H215.89C215.818 344.302 215.746 344.824 215.638 345.274H211.12V346.408H215.242C214.558 347.776 213.28 348.73 210.652 349.324C210.886 349.576 211.228 350.08 211.336 350.368C214.468 349.612 215.908 348.352 216.628 346.444C217.528 348.406 219.184 349.738 221.488 350.368C221.668 350.026 222.046 349.522 222.334 349.27C220.3 348.838 218.77 347.848 217.888 346.408H221.92ZM224.692 344.14C224.494 345.724 224.116 347.326 223.522 348.424C223.81 348.514 224.35 348.766 224.566 348.928C225.16 347.776 225.592 346.048 225.844 344.356L224.692 344.14ZM229.516 342.826C229.678 343.204 229.786 343.546 229.858 343.852L230.92 343.348C230.668 342.376 229.876 340.846 229.138 339.694L228.148 340.126C228.454 340.612 228.76 341.17 229.03 341.728C228.04 341.764 227.05 341.818 226.15 341.854C227.392 340.306 228.832 338.182 229.876 336.49L228.724 335.986C228.22 336.958 227.536 338.128 226.798 339.262C226.51 338.884 226.132 338.452 225.7 338.02C226.384 337.048 227.14 335.608 227.752 334.402L226.564 333.952C226.186 334.942 225.556 336.292 224.962 337.3C224.782 337.138 224.602 336.976 224.422 336.832L223.738 337.714C224.584 338.47 225.538 339.478 226.096 340.288C225.7 340.882 225.286 341.422 224.89 341.89C224.476 341.908 224.062 341.926 223.702 341.926L223.81 343.132L226.744 342.988V350.404H227.95V342.916L229.516 342.826ZM228.598 344.392C229.084 345.508 229.588 346.948 229.75 347.884L230.812 347.524C230.65 346.588 230.128 345.166 229.606 344.068L228.598 344.392ZM233.062 345.202H237.634V348.64H233.062V345.202ZM237.634 336.166V339.478H233.062V336.166H237.634ZM237.634 343.996H233.062V340.684H237.634V343.996ZM238.948 348.64V334.96H231.766V348.64H229.858V349.864H240.334V348.64H238.948Z" fill="black"/>
<g clip-path="url(#clip0_449_1712)">
<rect x="32" y="384" width="311" height="43" rx="21.5" fill="#FEA735"/>
<rect x="32" y="443" width="311" height="43" rx="21.5" fill="#FFCD6E"/>
<rect x="32" y="502" width="311" height="43" rx="21.5" fill="#FFCD6E"/>
<rect x="32" y="561" width="311" height="43" rx="21.5" fill="#FFCD6E"/>
<rect x="32" y="620" width="311" height="43" rx="21.5" fill="#FFCD6E"/>
<rect x="32" y="679" width="311" height="43" rx="21.5" fill="#FFCD6E"/>
<rect x="32" y="738" width="311" height="43" rx="21.5" fill="#FFCD6E"/>
<path d="M161.736 405.718V411.388C161.736 412.882 162.168 413.332 163.77 413.332C164.112 413.332 166.002 413.332 166.362 413.332C167.892 413.332 168.252 412.54 168.414 409.48C168.036 409.39 167.46 409.156 167.154 408.904C167.082 411.622 166.974 412.036 166.254 412.036C165.822 412.036 164.256 412.036 163.932 412.036C163.212 412.036 163.086 411.928 163.086 411.388V405.718H161.736ZM157.074 405.808C156.822 409.192 156.12 411.226 151.908 412.27C152.196 412.54 152.556 413.08 152.7 413.422C157.272 412.18 158.19 409.732 158.496 405.808H157.074ZM161.862 401.488C163.662 402.874 165.714 404.89 166.632 406.258L167.82 405.466C166.848 404.098 164.724 402.154 162.96 400.804L161.862 401.488ZM157.65 399.778C157.128 401.182 156.174 403.162 155.4 404.386L156.516 404.818C157.326 403.648 158.316 401.776 159.09 400.228L157.65 399.778ZM152.88 403.954L152.952 405.34C156.192 405.232 161.196 405.016 165.858 404.782L165.93 403.54C161.16 403.72 156.066 403.882 152.88 403.954ZM152.322 399.058V400.336H167.964V399.058H152.322ZM159.396 396.88V399.76H160.782V396.88H159.396ZM174.228 398.59V399.796H186.342V398.59H174.228ZM176.496 405.97V406.888H177.918V405.97H176.496ZM179.502 402.208V413.242H180.726V402.208H179.502ZM184.56 403.774V412.108C184.56 412.324 184.506 412.378 184.29 412.378C184.092 412.396 183.372 412.396 182.598 412.378C182.742 412.684 182.886 413.098 182.94 413.404C184.056 413.404 184.794 413.404 185.226 413.224C185.658 413.044 185.784 412.738 185.784 412.108V403.774H184.56ZM174.642 403.774V413.422H175.812V404.944H185.172V403.774H174.642ZM170.592 398.05C171.6 398.554 172.842 399.382 173.418 399.994L174.228 398.896C173.616 398.32 172.374 397.546 171.366 397.078L170.592 398.05ZM169.8 402.892C170.862 403.36 172.14 404.116 172.77 404.674L173.544 403.576C172.914 403.018 171.618 402.316 170.556 401.902L169.8 402.892ZM170.178 412.504L171.384 413.224C172.176 411.55 173.076 409.336 173.76 407.464L172.68 406.744C171.942 408.76 170.916 411.118 170.178 412.504ZM176.928 396.88V402.496H183.444V396.88H182.13V401.326H178.224V396.88H176.928ZM177.288 405.97V406.438H177.504C177.612 408.508 178.098 410.146 178.98 411.028C179.106 410.812 179.43 410.524 179.61 410.416C178.782 409.642 178.314 408.022 178.224 405.97H177.288ZM177.306 407.572C177.18 408.688 176.748 409.894 175.884 410.578C176.082 410.704 176.352 410.974 176.478 411.172C177.468 410.326 177.954 408.958 178.116 407.572H177.306ZM181.392 405.97V406.888H182.76V405.97H181.392ZM182.148 405.97V406.438H182.382C182.49 408.508 183.048 410.11 183.966 410.992C184.128 410.776 184.434 410.488 184.632 410.344C183.732 409.624 183.192 408.022 183.102 405.97H182.148ZM182.184 407.572C182.058 408.634 181.626 409.804 180.726 410.452C180.942 410.56 181.212 410.848 181.338 411.028C182.364 410.218 182.85 408.922 183.03 407.572H182.184ZM195.18 397.816V399.076H203.082V397.816H195.18ZM194.568 404.134V405.43H204.468V404.134H194.568ZM198.816 401.74V411.73C198.816 412 198.726 412.09 198.42 412.108C198.096 412.126 197.088 412.126 195.954 412.09C196.134 412.45 196.368 413.044 196.44 413.404C197.88 413.422 198.816 413.386 199.41 413.17C199.968 412.954 200.166 412.558 200.166 411.748V401.74H198.816ZM202.596 397.816V398.122C201.876 399.292 200.382 400.984 199.086 401.956C199.32 402.136 199.698 402.496 199.896 402.748C201.336 401.668 203.01 399.922 204.09 398.392L203.208 397.744L202.92 397.816H202.596ZM187.908 400.606V401.866H193.83V400.606H187.908ZM190.626 396.898C190.014 400.318 188.934 405.142 188.142 407.896L189.276 408.49C190.086 405.502 191.22 400.642 191.904 397.042L190.626 396.898ZM188.808 407.32C190.824 408.49 193.146 410.326 194.226 411.676L195.036 410.578C193.956 409.246 191.58 407.518 189.564 406.384L188.808 407.32ZM193.38 400.606V400.876C192.93 406.996 191.058 410.812 188.052 412.396C188.34 412.666 188.718 413.152 188.898 413.476C192.21 411.496 194.172 407.68 194.658 400.714L193.848 400.552L193.596 400.606H193.38ZM206.07 404.008V405.25H222.234V404.008H206.07ZM206.988 398.572V399.76H221.352V398.572H206.988ZM218.364 404.566V411.802C218.364 412.09 218.256 412.162 217.896 412.198C217.536 412.198 216.258 412.216 214.908 412.162C215.106 412.54 215.322 413.08 215.412 413.458C217.086 413.458 218.202 413.44 218.886 413.242C219.534 413.026 219.732 412.63 219.732 411.82V404.566H218.364ZM207.924 406.708V412.558H209.22V406.708H207.924ZM208.878 406.708V407.806H213.846V410.272H208.878V411.37H215.124V406.708H208.878ZM213.612 396.88C213.27 400.462 212.28 402.118 206.682 402.82C206.898 403.072 207.204 403.576 207.294 403.9C213.36 403.054 214.602 401.002 215.016 396.88H213.612ZM212.874 400.912C215.304 401.722 218.4 403.018 220.092 403.846L221.064 402.874C219.336 402.082 216.258 400.822 213.9 400.03L212.874 400.912Z" fill="black"/>
<path d="M170.953 464.34C171.403 463.062 171.745 460.974 171.835 459.534L170.809 459.39C170.683 460.848 170.359 462.792 169.891 463.98L170.953 464.34ZM172.519 472.368H173.815V455.934H172.519V472.368ZM173.995 459.228C174.517 460.308 175.057 461.73 175.273 462.594L176.299 462.108C176.083 461.262 175.507 459.876 174.967 458.796L173.995 459.228ZM178.171 470.136V465.798H184.453V470.136H178.171ZM184.453 460.452V464.538H178.171V460.452H184.453ZM181.213 459.156C181.519 458.292 181.843 457.23 182.131 456.258L180.601 456.06C180.457 456.96 180.151 458.202 179.863 459.156H176.875V472.368H178.171V471.45H184.453V472.224H185.785V459.156H181.213ZM196.855 470.514V465.942H202.633V464.646H196.855V460.722H203.299V459.408H196.855V455.952H195.487V459.408H191.833C192.229 458.49 192.553 457.518 192.841 456.528L191.491 456.24C190.789 458.796 189.637 461.28 188.161 462.864C188.521 463.044 189.115 463.44 189.385 463.656C190.051 462.846 190.681 461.856 191.257 460.722H195.487V464.646H190.141V465.942H195.487V470.514H188.197V471.81H204.145V470.514H196.855Z" fill="black"/>
<path d="M158.19 524.438V531.44H159.432V525.68H165.876V531.35H167.172V524.438H158.19ZM166.506 514.952C164.508 515.672 160.854 516.23 157.722 516.572C157.884 516.878 158.064 517.4 158.118 517.724C161.34 517.418 165.102 516.86 167.568 516.014L166.506 514.952ZM162.078 516.518V525.158H163.374V516.518H162.078ZM156.876 520.172V521.468H168.342V520.172H156.876ZM159.036 529.424V530.666H166.47V529.424H159.036ZM152.754 516.068C153.87 516.662 155.364 517.544 156.12 518.084L156.912 516.986C156.138 516.464 154.608 515.654 153.51 515.114L152.754 516.068ZM151.872 521.036C152.97 521.612 154.464 522.476 155.202 522.98L155.958 521.882C155.202 521.36 153.69 520.568 152.628 520.046L151.872 521.036ZM152.304 530.288L153.438 531.206C154.5 529.532 155.76 527.282 156.714 525.374L155.742 524.492C154.698 526.544 153.276 528.92 152.304 530.288ZM170.61 518.822V520.19H184.578V518.822H170.61ZM184.056 518.822V519.11C183.696 526.256 183.3 529.064 182.616 529.73C182.382 529.946 182.166 530 181.77 530C181.32 530 180.168 529.982 178.944 529.874C179.196 530.27 179.376 530.864 179.394 531.26C180.51 531.332 181.662 531.368 182.292 531.296C182.976 531.242 183.408 531.098 183.84 530.576C184.632 529.676 185.01 526.994 185.424 519.542C185.442 519.326 185.46 518.822 185.46 518.822H184.056ZM176.496 514.916V518.048C176.496 521.774 176.064 526.886 170.088 530.45C170.412 530.684 170.916 531.188 171.114 531.512C177.414 527.714 177.918 522.152 177.918 518.048V514.916H176.496ZM197.736 523.718V529.388C197.736 530.882 198.168 531.332 199.77 531.332C200.112 531.332 202.002 531.332 202.362 531.332C203.892 531.332 204.252 530.54 204.414 527.48C204.036 527.39 203.46 527.156 203.154 526.904C203.082 529.622 202.974 530.036 202.254 530.036C201.822 530.036 200.256 530.036 199.932 530.036C199.212 530.036 199.086 529.928 199.086 529.388V523.718H197.736ZM193.074 523.808C192.822 527.192 192.12 529.226 187.908 530.27C188.196 530.54 188.556 531.08 188.7 531.422C193.272 530.18 194.19 527.732 194.496 523.808H193.074ZM197.862 519.488C199.662 520.874 201.714 522.89 202.632 524.258L203.82 523.466C202.848 522.098 200.724 520.154 198.96 518.804L197.862 519.488ZM193.65 517.778C193.128 519.182 192.174 521.162 191.4 522.386L192.516 522.818C193.326 521.648 194.316 519.776 195.09 518.228L193.65 517.778ZM188.88 521.954L188.952 523.34C192.192 523.232 197.196 523.016 201.858 522.782L201.93 521.54C197.16 521.72 192.066 521.882 188.88 521.954ZM188.322 517.058V518.336H203.964V517.058H188.322ZM195.396 514.88V517.76H196.782V514.88H195.396ZM210.75 517.562V518.858H222.396V517.562H210.75ZM211.542 521.09V529.1H212.856V522.386H220.668V521.09H211.542ZM220.164 521.09V527.462C220.164 527.678 220.11 527.732 219.894 527.732C219.66 527.75 218.976 527.75 218.184 527.732C218.364 528.11 218.544 528.65 218.598 529.028C219.714 529.028 220.434 529.01 220.92 528.794C221.406 528.56 221.514 528.182 221.514 527.48V521.09H220.164ZM215.754 514.88V531.476H217.14V514.88H215.754ZM206.664 516.122C207.708 516.716 209.13 517.58 209.832 518.156L210.534 517.04C209.796 516.5 208.374 515.69 207.33 515.15L206.664 516.122ZM205.872 521.036C206.916 521.594 208.284 522.44 208.986 522.98L209.652 521.864C208.95 521.342 207.546 520.55 206.556 520.046L205.872 521.036ZM206.376 530.288L207.402 531.206C208.392 529.532 209.58 527.282 210.462 525.374L209.58 524.492C208.608 526.544 207.294 528.92 206.376 530.288Z" fill="black"/>
<path d="M184.938 575.554C184.884 577.048 184.812 577.624 184.686 577.822C184.596 577.912 184.488 577.93 184.308 577.93C184.146 577.93 183.786 577.93 183.336 577.876C183.498 578.182 183.606 578.668 183.624 578.992C184.11 579.01 184.614 578.992 184.884 578.974C185.244 578.938 185.496 578.83 185.694 578.578C185.982 578.218 186.072 577.3 186.144 574.996C186.162 574.834 186.162 574.51 186.162 574.51H180.438V575.554H182.022C181.806 576.85 181.266 577.912 179.952 578.542C180.204 578.722 180.528 579.118 180.672 579.388C182.274 578.578 182.922 577.246 183.192 575.554H184.938ZM181.896 584.824H184.758V586.066H181.896V584.824ZM181.896 582.718H184.758V583.942H181.896V582.718ZM181.896 580.612H184.758V581.818H181.896V580.612ZM180.798 587.038H185.892V579.64H180.798V587.038ZM170.502 577.066C170.502 578.632 170.25 580.576 169.692 581.674L170.538 582.052C171.15 580.81 171.402 578.776 171.384 577.192L170.502 577.066ZM171.942 590.35H173.166V573.934H171.942V590.35ZM175.704 579.91H176.964V582.79H175.704V579.91ZM179.106 582.79H177.882V579.91H179.106V582.79ZM180.51 586.606C180.15 586.192 178.62 584.608 178.008 584.05V583.852H180.096V578.848H178.008V577.012H180.222V575.914H178.008V573.952H176.82V575.914H174.624V577.012H176.82V578.848H174.858C174.768 578.2 174.498 577.264 174.192 576.49L173.364 576.76C173.688 577.588 173.958 578.704 173.994 579.388L174.75 579.082V583.852H176.388C175.794 585.382 174.858 587.002 173.922 587.902C174.138 588.226 174.408 588.73 174.534 589.09C175.38 588.19 176.208 586.678 176.82 585.166V590.368H178.008V585.328C178.674 586.084 179.52 587.056 179.862 587.56L180.51 586.606ZM181.608 587.326C181.104 588.172 180.24 589.018 179.34 589.594C179.61 589.792 180.06 590.206 180.276 590.44C181.194 589.756 182.166 588.694 182.778 587.668L181.608 587.326ZM183.768 587.74C184.452 588.55 185.244 589.666 185.604 590.368L186.666 589.81C186.306 589.126 185.496 588.046 184.776 587.272L183.768 587.74ZM191.238 577.246H193.56V579.37H191.238V577.246ZM196.656 579.37H194.802V577.246H196.62V576.112H194.802V574.114H193.56V576.112H191.238V574.114H190.014V576.112H188.214V577.246H190.014V579.37H187.926V580.522H196.656V579.37ZM190.446 586.318V585.058H194.37V586.318H190.446ZM194.37 582.772V584.032H190.446V582.772H194.37ZM195.612 581.71H189.204V590.386H190.446V587.362H194.37V588.964C194.37 589.162 194.298 589.234 194.082 589.252C193.884 589.252 193.2 589.27 192.408 589.234C192.57 589.558 192.75 590.026 192.786 590.35C193.884 590.35 194.604 590.35 195.036 590.152C195.486 589.954 195.612 589.63 195.612 588.982V581.71ZM198.78 578.524H201.858C201.552 580.756 201.084 582.682 200.364 584.32C199.608 582.646 199.104 580.702 198.744 578.65L198.78 578.524ZM204.36 578.524V577.264H199.122C199.374 576.256 199.572 575.194 199.752 574.132L198.456 573.934C198.006 576.958 197.232 579.928 195.954 581.836C196.224 582.088 196.692 582.646 196.872 582.934C197.304 582.268 197.7 581.512 198.024 580.702C198.438 582.52 198.942 584.212 199.608 585.688C198.69 587.2 197.412 588.388 195.684 589.27C195.954 589.522 196.35 590.116 196.476 590.404C198.078 589.486 199.338 588.37 200.31 586.984C201.156 588.424 202.218 589.576 203.55 590.386C203.766 590.026 204.18 589.504 204.504 589.252C203.082 588.478 201.948 587.272 201.066 585.742C202.11 583.798 202.758 581.404 203.154 578.524H204.36Z" fill="black"/>
<path d="M155.832 637.722H164.67V639.504H155.832V637.722ZM155.832 634.878H164.67V636.66H155.832V634.878ZM156.966 642.15C157.344 641.664 157.74 641.16 158.046 640.638H166.02V633.762H154.518V640.638H156.498C155.364 642.294 153.636 643.77 151.89 644.76C152.214 644.976 152.718 645.444 152.934 645.696C153.924 645.084 154.932 644.274 155.85 643.356H158.352C157.164 645.282 155.328 646.974 153.402 648.054C153.708 648.288 154.212 648.774 154.428 649.008C156.48 647.694 158.514 645.678 159.828 643.356H162.258C161.394 645.498 160.026 647.406 158.37 648.648C158.694 648.828 159.216 649.26 159.45 649.476C161.16 648.054 162.672 645.876 163.626 643.356H165.822C165.534 646.452 165.228 647.73 164.832 648.09C164.67 648.27 164.49 648.288 164.184 648.288C163.86 648.288 163.032 648.288 162.168 648.198C162.366 648.522 162.51 649.008 162.528 649.368C163.428 649.422 164.292 649.422 164.742 649.386C165.264 649.368 165.606 649.242 165.948 648.882C166.488 648.324 166.848 646.776 167.19 642.762C167.226 642.564 167.244 642.15 167.244 642.15H156.966ZM173.202 639.576C173.22 638.766 173.256 637.938 173.256 637.11H177.612V635.868H174.48V632.97H173.166V635.868H169.998V637.11H171.942C171.888 641.7 171.69 646.074 169.746 648.486C170.07 648.72 170.538 649.152 170.736 649.44C172.356 647.406 172.914 644.31 173.13 640.8H175.434C175.326 645.768 175.2 647.532 174.894 647.946C174.75 648.144 174.606 648.198 174.336 648.18C174.066 648.18 173.382 648.18 172.644 648.126C172.86 648.45 172.986 648.972 173.004 649.332C173.76 649.368 174.516 649.368 174.948 649.332C175.416 649.278 175.74 649.152 176.01 648.756C176.478 648.144 176.604 646.128 176.73 640.206C176.748 640.008 176.748 639.576 176.748 639.576H173.202ZM178.242 645.516C180.42 646.524 183.048 648.162 184.29 649.368L185.154 648.216C183.858 647.01 181.212 645.444 179.052 644.49L178.242 645.516ZM183.894 642.51C183.228 641.682 181.77 640.566 180.546 639.828L179.682 640.674C180.906 641.448 182.328 642.618 182.976 643.446L183.894 642.51ZM180.888 632.952C180.222 635.382 178.638 638.082 176.838 639.486C177.09 639.81 177.396 640.35 177.54 640.71C179.358 639.216 180.888 636.66 181.626 634.482C182.472 636.75 184.038 639.216 185.838 640.674C186.018 640.278 186.306 639.738 186.54 639.396C184.83 638.154 183.174 635.58 182.238 632.952H180.888ZM195.756 634.824H192.714V632.988H191.436V634.824H188.286V635.958H195.756V634.824ZM189.384 636.264C189.744 637.11 190.014 638.244 190.086 638.982L191.202 638.694C191.13 637.974 190.806 636.858 190.41 636.03L189.384 636.264ZM193.686 635.994C193.524 636.804 193.146 637.974 192.894 638.712L193.92 638.982C194.226 638.28 194.586 637.218 194.892 636.282L193.686 635.994ZM195.81 646.092C195.378 645.678 193.506 644.112 192.75 643.536V643.104H195.81V641.97H192.75V640.134H195.954V638.982H187.926V640.134H191.472V641.97H188.106V643.104H191.13C190.32 644.688 188.988 646.272 187.746 647.118C188.034 647.37 188.358 647.82 188.538 648.144C189.564 647.334 190.644 646.056 191.472 644.724V649.35H192.75V644.814C193.56 645.588 194.568 646.578 194.982 647.082L195.81 646.092ZM197.79 640.8H202.29V642.672H197.79V640.8ZM197.79 637.83H202.29V639.702H197.79V637.83ZM197.79 634.914H202.29V636.768H197.79V634.914ZM202.002 647.964C201.678 647.964 201.624 647.91 201.624 647.496V643.878H203.55V633.726H196.566V643.878H197.736C197.52 646.128 196.926 647.604 194.55 648.432C194.82 648.666 195.162 649.134 195.306 649.422C197.97 648.378 198.726 646.596 198.978 643.878H200.4V647.514C200.4 648.756 200.67 649.152 201.822 649.152H203.118C204.108 649.152 204.45 648.558 204.522 646.092C204.198 646.002 203.676 645.804 203.424 645.606C203.388 647.712 203.334 647.964 202.974 647.964H202.002ZM217.554 639.468V646.848H218.886V639.468H222.216V638.226H213.918V635.49C216.438 635.166 219.264 634.68 221.226 634.014L220.092 633.006C218.616 633.564 216.042 634.05 213.684 634.392L212.622 634.158V638.316C212.622 640.512 212.388 643.356 210.426 645.48C210.75 645.66 211.218 646.11 211.38 646.398C213.252 644.4 213.774 641.7 213.882 639.468H217.554ZM210.39 636.156C209.76 635.292 208.41 634.14 207.258 633.384L206.268 634.194C207.438 634.986 208.77 636.174 209.328 637.038L210.39 636.156ZM209.886 639.99H206.07V641.25H208.572V645.804C207.672 646.56 206.664 647.316 205.836 647.856L206.556 649.206C207.51 648.432 208.41 647.658 209.274 646.902C210.426 648.288 212.028 648.936 214.368 649.026C216.348 649.098 220.038 649.062 222 648.99C222.054 648.576 222.288 647.946 222.432 647.622C220.326 647.766 216.33 647.82 214.368 647.748C212.298 647.658 210.732 647.046 209.886 645.732V639.99Z" fill="black"/>
<path d="M167.713 693.86C168.181 694.562 168.631 695.498 168.757 696.11H165.571L166.165 695.858C165.985 695.3 165.535 694.544 165.031 693.95C165.985 693.896 166.957 693.842 167.929 693.788L167.713 693.86ZM162.871 697.19H167.983L167.461 697.748C168.415 698.162 169.567 698.846 170.125 699.332L170.827 698.522C170.323 698.09 169.369 697.586 168.523 697.19H175.345V699.35H176.641V696.11H173.401C173.923 695.462 174.481 694.688 174.967 693.95L173.707 693.464C173.311 694.238 172.591 695.372 172.051 696.11H168.811L169.927 695.714C169.783 695.156 169.405 694.364 168.955 693.698C171.493 693.518 173.905 693.23 175.741 692.87L174.859 691.934C171.961 692.51 166.579 692.888 162.187 693.014C162.313 693.266 162.439 693.734 162.475 694.04C163.069 694.022 163.681 694.004 164.311 693.968L163.789 694.184C164.239 694.76 164.725 695.534 164.941 696.11H161.629V699.224H162.871V697.19ZM172.483 698.666C173.527 699.494 174.715 700.718 175.255 701.528L176.209 700.79C175.669 699.98 174.445 698.828 173.401 698.036L172.483 698.666ZM162.997 701.744C164.203 701.042 164.869 699.854 165.283 698.684L164.275 698.252C163.879 699.332 163.159 700.394 162.079 700.97L162.997 701.744ZM172.015 703.544C171.277 704.3 170.305 704.93 169.171 705.434C167.983 704.912 166.993 704.282 166.237 703.544H172.015ZM173.149 702.5L172.933 702.554H167.335C167.713 702.212 168.037 701.852 168.343 701.474L168.019 701.366H170.935C172.105 701.366 172.447 701.024 172.573 699.566C172.231 699.494 171.763 699.368 171.511 699.188C171.439 700.25 171.331 700.376 170.773 700.376H168.145C167.389 700.376 167.263 700.304 167.263 699.944V698.234H166.021V699.962C166.021 700.79 166.237 701.168 166.993 701.294C165.679 702.806 163.519 704.084 161.413 704.894C161.665 705.11 162.151 705.542 162.349 705.776C163.321 705.344 164.347 704.786 165.301 704.156C165.985 704.858 166.813 705.47 167.749 705.992C165.787 706.658 163.501 707.072 161.161 707.288C161.413 707.558 161.737 708.098 161.863 708.404C164.437 708.08 166.993 707.558 169.153 706.676C171.259 707.558 173.779 708.116 176.425 708.386C176.605 708.044 176.911 707.486 177.199 707.216C174.805 707.036 172.537 706.622 170.611 705.992C172.015 705.236 173.167 704.264 173.995 703.058L173.149 702.5ZM183.697 699.62C183.139 699.8 182.599 699.98 182.059 700.16V696.794H183.697V695.552H182.059V691.952H180.889V695.552H178.945V696.794H180.889V700.556C180.061 700.826 179.305 701.06 178.675 701.24L179.035 702.536L180.889 701.888V706.892C180.889 707.126 180.799 707.198 180.565 707.198C180.385 707.216 179.701 707.216 178.945 707.198C179.107 707.558 179.269 708.062 179.323 708.386C180.403 708.386 181.069 708.35 181.465 708.152C181.897 707.936 182.059 707.594 182.059 706.892V701.492L183.895 700.844L183.697 699.62ZM189.205 699.62C189.421 699.872 189.655 700.16 189.763 700.322C190.015 699.926 190.249 699.476 190.465 698.972C190.699 700.646 191.095 702.374 191.707 703.958C191.095 705.308 190.285 706.478 189.187 707.396C189.205 707.306 189.205 707.18 189.205 707.054V699.62ZM193.345 696.614C193.129 698.792 192.823 700.754 192.265 702.446C191.671 700.664 191.329 698.738 191.149 696.992C191.185 696.866 191.221 696.74 191.257 696.614H193.345ZM185.317 704.03V702.626H188.089V704.03H185.317ZM188.089 700.232V701.618H185.317V700.232H188.089ZM185.947 695.066H187.513V697.154H185.947V695.066ZM195.271 696.614V695.426H191.527C191.761 694.364 191.941 693.248 192.085 692.15L190.933 691.97C190.699 693.932 190.339 695.876 189.799 697.478V697.154H188.611V695.066H189.655V694.004H188.611V692.168H187.513V694.004H185.947V692.168H184.849V694.004H183.661V695.066H184.849V697.154H183.373V698.234H189.511C189.367 698.576 189.205 698.882 189.043 699.188H184.183V708.296H185.317V705.02H188.089V707.036C188.089 707.198 188.053 707.252 187.891 707.27C187.711 707.27 187.279 707.27 186.739 707.252C186.901 707.54 187.063 707.954 187.117 708.26C187.873 708.26 188.413 708.242 188.755 708.062C188.971 707.954 189.079 707.81 189.151 707.612C189.403 707.846 189.727 708.242 189.853 708.44C190.861 707.558 191.671 706.496 192.301 705.308C192.931 706.514 193.741 707.612 194.785 708.422C194.947 708.116 195.343 707.648 195.595 707.432C194.425 706.586 193.543 705.398 192.913 704.012C193.741 701.96 194.209 699.494 194.515 696.614H195.271ZM201.301 696.848C201.139 699.152 200.797 701.096 200.257 702.698C199.699 702.212 199.123 701.744 198.565 701.33C198.853 699.944 199.159 698.396 199.447 696.848H201.301ZM201.823 695.606L201.589 695.642H199.663C199.897 694.382 200.095 693.158 200.275 692.06L199.051 691.952C198.889 693.068 198.691 694.346 198.457 695.642H196.927V696.848H198.259C197.845 699.08 197.413 701.258 197.035 702.788L198.115 703.418L198.295 702.644C198.781 703.04 199.285 703.49 199.771 703.94C199.069 705.506 198.133 706.622 196.999 707.324C197.287 707.594 197.629 708.062 197.809 708.386C199.033 707.558 200.005 706.424 200.743 704.894C201.391 705.578 201.949 706.226 202.309 706.784L203.155 705.722C202.723 705.092 202.057 704.354 201.265 703.616C201.985 701.6 202.417 699.008 202.579 695.714L201.823 695.606ZM209.329 704.066V705.614H206.629V704.066H209.329ZM210.301 706.514V703.166H205.675V707.27H206.629V706.514H210.301ZM212.767 701.222H203.191V708.386H204.397V702.266H211.561V707.036C211.561 707.216 211.507 707.288 211.309 707.288C211.111 707.288 210.463 707.288 209.725 707.27C209.887 707.576 210.049 708.044 210.103 708.35C211.147 708.35 211.813 708.332 212.245 708.152C212.659 707.972 212.767 707.63 212.767 707.054V701.222ZM209.761 699.44H206.143V697.892H209.761V699.44ZM209.059 695.84C209.293 696.236 209.563 696.614 209.887 696.992H206.287C206.593 696.632 206.845 696.254 207.097 695.84H209.059ZM213.199 695.84V694.832H207.601C207.781 694.418 207.943 693.968 208.069 693.5C209.671 693.374 211.183 693.176 212.353 692.924L211.417 692.042C209.581 692.456 206.071 692.69 203.209 692.762C203.335 693.014 203.479 693.428 203.515 693.698C204.559 693.698 205.675 693.662 206.791 693.59C206.665 694.022 206.503 694.436 206.305 694.832H202.867V695.84H205.711C204.919 696.974 203.821 697.838 202.507 698.432C202.759 698.63 203.155 699.134 203.299 699.368C203.911 699.062 204.469 698.684 204.991 698.27V700.34H210.985V698.108C211.543 698.594 212.137 698.99 212.731 699.296C212.929 698.99 213.289 698.558 213.559 698.36C212.317 697.856 211.075 696.902 210.265 695.84H213.199Z" fill="black"/>
<path d="M167.965 760.978L164.959 761.752V754.48H167.749V753.202H161.017V754.48H163.645V762.076C162.547 762.364 161.557 762.616 160.765 762.796L161.107 764.164C163.015 763.642 165.625 762.886 168.091 762.184L167.965 760.978ZM174.409 755.56C173.959 758.026 173.221 760.042 172.123 761.644C171.061 759.934 170.305 757.846 169.801 755.56H174.409ZM177.325 755.56V754.264H170.269C170.647 753.274 170.953 752.23 171.241 751.186L169.909 750.934C169.189 753.958 167.965 756.91 166.327 758.782C166.651 758.962 167.227 759.376 167.479 759.556C168.019 758.908 168.505 758.116 168.937 757.252C169.513 759.358 170.251 761.212 171.241 762.778C169.873 764.29 168.055 765.406 165.661 766.18C165.895 766.486 166.273 767.098 166.399 767.422C168.775 766.558 170.611 765.406 172.033 763.894C173.221 765.424 174.715 766.594 176.587 767.386C176.803 767.008 177.199 766.486 177.523 766.216C175.633 765.514 174.121 764.344 172.933 762.814C174.301 760.942 175.201 758.584 175.813 755.56H177.325ZM180.853 755.722V755.074H182.581V755.722H180.853ZM180.853 753.85H182.581V754.444H180.853V753.85ZM185.479 753.85V754.444H183.661V753.85H185.479ZM185.479 755.722H183.661V755.074H185.479V755.722ZM182.581 758.854H180.997V757.846H180.007V759.646H186.361V757.846H185.353V758.854H183.661V757.666H187.117V756.892H183.661V756.334H186.451V753.22H183.661V752.626H187.027V751.834H183.661V750.952H182.581V751.834H179.323V752.626H182.581V753.22H179.899V756.334H182.581V756.892H179.089V757.666H182.581V758.854ZM187.783 762.832H194.047V761.932H187.783V760.924C189.565 760.816 191.239 760.618 192.517 760.366L191.599 759.628C189.277 760.096 184.633 760.294 180.907 760.312C180.997 760.528 181.123 760.906 181.141 761.122C182.833 761.122 184.687 761.104 186.487 761.014V761.932H180.385V762.832H186.487V763.804H179.287V764.758H186.487V766.036C186.487 766.288 186.379 766.342 186.091 766.36C185.803 766.378 184.777 766.378 183.715 766.342C183.877 766.648 184.057 767.08 184.147 767.368C185.605 767.386 186.505 767.386 187.063 767.206C187.603 767.044 187.783 766.756 187.783 766.072V764.758H195.055V763.804H187.783V762.832ZM192.679 756.262C192.229 756.892 191.599 757.396 190.843 757.792C190.159 757.36 189.619 756.856 189.241 756.262H192.679ZM193.561 755.308L193.345 755.344H187.819C189.187 754.606 189.511 753.526 189.511 752.572V752.482H191.779V753.274C191.779 754.066 191.851 754.336 192.067 754.552C192.283 754.75 192.679 754.822 192.985 754.822H193.813C194.047 754.822 194.371 754.804 194.551 754.714C194.749 754.642 194.911 754.498 195.019 754.3C195.109 754.12 195.181 753.616 195.199 753.148C194.911 753.076 194.569 752.914 194.353 752.716C194.335 753.13 194.317 753.436 194.281 753.58C194.245 753.724 194.155 753.796 194.101 753.814C194.029 753.85 193.885 753.85 193.741 753.85H193.273C193.147 753.85 193.057 753.85 193.003 753.796C192.931 753.742 192.931 753.58 192.931 753.328V751.492H188.377V752.554C188.377 753.22 188.161 753.94 186.937 754.534C187.171 754.678 187.585 755.092 187.765 755.344H187.423V756.262H188.953L188.197 756.496C188.593 757.162 189.133 757.756 189.781 758.26C188.935 758.566 187.981 758.764 186.991 758.89C187.189 759.124 187.423 759.52 187.513 759.808C188.683 759.61 189.781 759.34 190.753 758.908C191.869 759.556 193.219 760.006 194.695 760.258C194.839 759.97 195.163 759.52 195.415 759.286C194.101 759.124 192.877 758.8 191.851 758.332C192.913 757.666 193.723 756.766 194.209 755.524L193.561 755.308ZM197.737 759.304C198.205 757.99 198.547 755.956 198.637 754.48L197.629 754.336C197.503 755.794 197.179 757.756 196.693 758.944L197.737 759.304ZM199.285 767.368H200.617V750.934H199.285V767.368ZM200.743 754.246C201.247 755.236 201.787 756.532 201.985 757.306L202.993 756.82C202.777 756.064 202.219 754.786 201.679 753.814L200.743 754.246ZM208.645 765.478V760.978H212.317V759.736H208.645V756.01H212.713V754.732H208.645V751.006H207.313V754.732H205.063C205.315 753.85 205.531 752.914 205.711 751.978L204.415 751.762C204.001 754.21 203.281 756.622 202.237 758.188C202.561 758.332 203.155 758.62 203.425 758.8C203.911 758.026 204.325 757.09 204.685 756.01H207.313V759.736H203.497V760.978H207.313V765.478H202.165V766.756H213.145V765.478H208.645Z" fill="black"/>
<path d="M326.064 406.325H311.337C310.598 406.325 310 405.732 310 405C310 404.268 310.598 403.675 311.337 403.675H326.064C326.802 403.675 327.4 404.268 327.4 405C327.4 405.732 326.802 406.325 326.064 406.325Z" fill="white"/>
<path d="M326.064 465.325H311.337C310.598 465.325 310 464.732 310 464C310 463.268 310.598 462.675 311.337 462.675H326.064C326.802 462.675 327.4 463.268 327.4 464C327.4 464.732 326.802 465.325 326.064 465.325Z" fill="white"/>
<path d="M318.7 473C317.962 473 317.364 472.407 317.364 471.675V456.325C317.364 455.594 317.962 455 318.7 455C319.438 455 320.036 455.593 320.036 456.325V471.675C320.036 472.407 319.438 473 318.7 473Z" fill="white"/>
<path d="M326.064 524.325H311.337C310.598 524.325 310 523.732 310 523C310 522.268 310.598 521.675 311.337 521.675H326.064C326.802 521.675 327.4 522.268 327.4 523C327.4 523.732 326.802 524.325 326.064 524.325Z" fill="white"/>
<path d="M318.7 532C317.962 532 317.364 531.407 317.364 530.675V515.325C317.364 514.594 317.962 514 318.7 514C319.438 514 320.036 514.593 320.036 515.325V530.675C320.036 531.407 319.438 532 318.7 532Z" fill="white"/>
<path d="M326.064 583.325H311.337C310.598 583.325 310 582.732 310 582C310 581.268 310.598 580.675 311.337 580.675H326.064C326.802 580.675 327.4 581.268 327.4 582C327.4 582.732 326.802 583.325 326.064 583.325Z" fill="white"/>
<path d="M318.7 591C317.962 591 317.364 590.407 317.364 589.675V574.325C317.364 573.594 317.962 573 318.7 573C319.438 573 320.036 573.593 320.036 574.325V589.675C320.036 590.407 319.438 591 318.7 591Z" fill="white"/>
<path d="M326.064 642.325H311.337C310.598 642.325 310 641.732 310 641C310 640.268 310.598 639.675 311.337 639.675H326.064C326.802 639.675 327.4 640.268 327.4 641C327.4 641.732 326.802 642.325 326.064 642.325Z" fill="white"/>
<path d="M318.7 650C317.962 650 317.364 649.407 317.364 648.675V633.325C317.364 632.594 317.962 632 318.7 632C319.438 632 320.036 632.593 320.036 633.325V648.675C320.036 649.407 319.438 650 318.7 650Z" fill="white"/>
<path d="M326.064 701.325H311.337C310.598 701.325 310 700.732 310 700C310 699.268 310.598 698.675 311.337 698.675H326.064C326.802 698.675 327.4 699.268 327.4 700C327.4 700.732 326.802 701.325 326.064 701.325Z" fill="white"/>
<path d="M318.7 709C317.962 709 317.364 708.407 317.364 707.675V692.325C317.364 691.594 317.962 691 318.7 691C319.438 691 320.036 691.593 320.036 692.325V707.675C320.036 708.407 319.438 709 318.7 709Z" fill="white"/>
<path d="M326.064 760.325H311.337C310.598 760.325 310 759.732 310 759C310 758.268 310.598 757.675 311.337 757.675H326.064C326.802 757.675 327.4 758.268 327.4 759C327.4 759.732 326.802 760.325 326.064 760.325Z" fill="white"/>
<path d="M318.7 768C317.962 768 317.364 767.407 317.364 766.675V751.325C317.364 750.594 317.962 750 318.7 750C319.438 750 320.036 750.593 320.036 751.325V766.675C320.036 767.407 319.438 768 318.7 768Z" fill="white"/>
</g>
<g clip-path="url(#clip1_449_1712)">
<path d="M38 86.0007C50.1506 86.0007 60.0007 76.1506 60.0007 64C60.0007 51.8493 50.1506 41.9993 38 41.9993C25.8493 41.9993 15.9993 51.8493 15.9993 64C15.9993 76.1506 25.8493 86.0007 38 86.0007Z" fill="#FEA735"/>
<path d="M46.6571 62.4124L32.864 62.2907L37.8624 56.5786C38.4399 55.9186 38.3728 54.9159 37.7128 54.3384C37.0531 53.7613 36.0497 53.8279 35.4726 54.4877L28.3458 62.6325C28.0001 62.9208 27.774 63.348 27.7694 63.8331C27.7694 63.8405 27.7715 63.8479 27.7715 63.8553C27.7641 64.2321 27.8883 64.6117 28.1486 64.9172L35.4595 73.496C35.7735 73.8643 36.2194 74.0538 36.6685 74.0538C37.0326 74.0538 37.3984 73.9292 37.6976 73.6745C38.3651 73.1058 38.4448 72.1035 37.8761 71.4364L32.7868 65.4654L46.6288 65.5875C46.6338 65.5875 46.6384 65.5875 46.6433 65.5875C47.5136 65.5875 48.2227 64.8858 48.2305 64.014C48.2383 63.1374 47.5341 62.4201 46.6571 62.4124Z" fill="black"/>
</g>
<g clip-path="url(#clip2_449_1712)">
<path d="M337 86.0007C349.151 86.0007 359.001 76.1506 359.001 64C359.001 51.8493 349.151 41.9993 337 41.9993C324.849 41.9993 314.999 51.8493 314.999 64C314.999 76.1506 324.849 86.0007 337 86.0007Z" fill="#FEA735"/>
</g>
<path d="M328 65.8261L333.043 71.5" stroke="black" stroke-width="3" stroke-linecap="round"/>
<path d="M333.043 71.5L346.913 57" stroke="black" stroke-width="3" stroke-linecap="round"/>
<path d="M209 142.399C209 142.399 218.115 140.443 223.525 149.828C223.525 149.828 230.663 163.958 221.403 169.39C221.403 169.39 214.577 172.407 211.789 164.853C211.768 164.853 212.434 151.847 209 142.399Z" fill="#6A4B2E" stroke="black" stroke-width="2" stroke-miterlimit="10"/>
<path d="M167.151 142.399C167.151 142.399 158.037 140.443 152.626 149.828C152.626 149.828 145.488 163.958 154.749 169.39C154.749 169.39 161.574 172.407 164.363 164.853C164.384 164.853 163.718 151.847 167.151 142.399Z" fill="#6A4B2E" stroke="black" stroke-width="2" stroke-miterlimit="10"/>
<path d="M161.488 216.17V155.947C161.488 155.947 161.488 132.577 188.062 132.223C188.062 132.223 213.304 132.577 214.178 155.509L214.532 216.17H161.488Z" fill="#906526" stroke="black" stroke-width="2" stroke-miterlimit="10"/>
<path d="M174.639 159.38C176.892 159.38 178.718 157.554 178.718 155.301C178.718 153.049 176.892 151.223 174.639 151.223C172.387 151.223 170.561 153.049 170.561 155.301C170.561 157.554 172.387 159.38 174.639 159.38Z" fill="black" stroke="black" stroke-miterlimit="10"/>
<path d="M201.38 159.38C203.633 159.38 205.459 157.554 205.459 155.301C205.459 153.049 203.633 151.223 201.38 151.223C199.128 151.223 197.302 153.049 197.302 155.301C197.302 157.554 199.128 159.38 201.38 159.38Z" fill="black" stroke="black" stroke-miterlimit="10"/>
<path d="M185.544 160.733H190.497C193.556 160.733 195.221 163.397 193.285 165.145L190.809 167.392C189.373 168.703 186.689 168.703 185.253 167.392L182.776 165.145C180.82 163.376 182.485 160.733 185.544 160.733Z" fill="black" stroke="black" stroke-miterlimit="10"/>
<path d="M179.155 176.548L187.916 169.098L196.885 177.464" stroke="black" stroke-width="2" stroke-miterlimit="10"/>
<path d="M200.069 134.741C200.902 135.074 201.859 134.866 202.421 134.179C203.961 132.286 205.896 129.601 201.255 127.312C200.381 126.875 199.903 125.897 200.09 124.94C200.402 123.379 199.861 121.236 194.492 121.298C193.556 121.319 192.723 120.715 192.453 119.821C191.849 117.823 190.309 115.076 186.73 118.967C186.189 119.571 185.336 119.821 184.566 119.55C182.61 118.884 179.051 118.177 178.947 121.652C178.926 122.609 178.177 123.4 177.22 123.566C175.389 123.899 173.037 124.69 173.932 126.667C174.244 127.375 174.119 128.207 173.62 128.79C172.288 130.33 170.582 132.972 174.973 134.866C174.973 134.887 186.543 129.268 200.069 134.741Z" fill="#6A4B2E" stroke="black" stroke-width="2" stroke-miterlimit="10"/>
<rect x="17.5" y="205.5" width="340" height="40" rx="20" fill="#FCF5EF" stroke="#FEA735" stroke-width="3"/>
<path d="M43.3156 221.172V227.71H41.9016V221.172H43.3156ZM44.1556 228.578V220.318H41.0616V229.922H41.9016V228.578H44.1556ZM46.7456 222.096C46.7596 221.214 46.7736 220.29 46.7736 219.338H45.8636C45.8636 220.304 45.8636 221.228 45.8496 222.096H44.6596V223.034H45.8216C45.7236 226.716 45.3176 229.67 43.5536 231.448C43.7776 231.588 44.1136 231.896 44.2816 232.12C46.1856 230.132 46.6196 226.982 46.7316 223.034H47.9356C47.7816 228.396 47.6136 230.258 47.3056 230.678C47.1796 230.874 47.0816 230.902 46.8996 230.902C46.6896 230.902 46.2836 230.902 45.8356 230.86C45.9756 231.126 46.0736 231.518 46.0736 231.798C46.5356 231.84 46.9976 231.826 47.3056 231.798C47.6416 231.742 47.8796 231.63 48.1036 231.294C48.5236 230.692 48.6776 228.746 48.8596 222.586C48.8736 222.474 48.8736 222.096 48.8736 222.096H46.7456ZM50.2736 229.446V221.858H52.0096V229.446H50.2736ZM49.4196 220.92V231.56H50.2736V230.384H52.0096V231.448H52.9056V220.92H49.4196ZM57.7076 221.55V227.024H55.9576V221.55H57.7076ZM58.6456 227.976V220.584H55.0336V229.208H55.9576V227.976H58.6456ZM62.8876 226.73L62.3136 226.926C62.3416 226.492 62.3556 226.058 62.3556 225.61V219.408H61.3616V221.648H59.0236V222.614H61.3616V224.546H59.1216V225.498H61.3616V225.596C61.3616 226.156 61.3476 226.716 61.2776 227.276C60.2136 227.626 59.2056 227.948 58.4636 228.158L58.8696 229.096C59.5416 228.858 60.2976 228.578 61.0816 228.27C60.7736 229.502 60.0876 230.608 58.6736 231.448C58.9256 231.602 59.2756 231.924 59.4436 232.12C61.2216 231.042 61.9356 229.53 62.2156 227.836L63.0276 227.514L62.8876 226.73ZM67.3536 227.472H64.6096V225.498H67.0456V224.546H64.6096V222.614H67.2136V221.648H64.6096V219.38H63.6016V232.05H64.6096V228.438H67.3536V227.472Z" fill="black"/>
<path opacity="0.35" d="M338.979 16.5026H355.469C356.666 16.5026 357.636 17.4727 357.636 18.6693V24.6693C357.636 25.8659 356.666 26.836 355.469 26.836H338.979C337.782 26.836 336.812 25.8659 336.812 24.6693V18.6693C336.812 17.4727 337.782 16.5026 338.979 16.5026Z" stroke="black"/>
<path opacity="0.4" d="M359.128 19.6693V23.6693C359.926 23.3305 360.445 22.5424 360.445 21.6693C360.445 20.7962 359.926 20.0081 359.128 19.6693" fill="black"/>
<path d="M338.296 19.336C338.296 18.5996 338.893 18.0026 339.629 18.0026H354.819C355.555 18.0026 356.152 18.5996 356.152 19.336V24.0026C356.152 24.739 355.555 25.336 354.819 25.336H339.629C338.893 25.336 338.296 24.739 338.296 24.0026V19.336Z" fill="black"/>
<path fill-rule="evenodd" clip-rule="evenodd" d="M323.744 18.2773C325.942 18.2774 328.056 19.1289 329.649 20.6557C329.769 20.7735 329.961 20.772 330.079 20.6523L331.226 19.4857C331.286 19.4249 331.319 19.3427 331.318 19.2571C331.318 19.1715 331.284 19.0897 331.223 19.0297C327.042 14.9901 320.445 14.9901 316.264 19.0297C316.203 19.0896 316.169 19.1715 316.168 19.257C316.168 19.3426 316.201 19.4249 316.261 19.4857L317.408 20.6523C317.526 20.7722 317.718 20.7737 317.838 20.6557C319.431 19.1288 321.545 18.2773 323.744 18.2773ZM323.744 22.073C324.952 22.0729 326.116 22.5255 327.011 23.3427C327.133 23.4587 327.323 23.4562 327.441 23.337L328.587 22.1704C328.647 22.1092 328.681 22.0261 328.68 21.9399C328.679 21.8536 328.644 21.7713 328.582 21.7114C325.856 19.155 321.634 19.155 318.908 21.7114C318.846 21.7713 318.811 21.8537 318.81 21.9399C318.809 22.0262 318.843 22.1092 318.903 22.1704L320.049 23.337C320.167 23.4562 320.357 23.4587 320.478 23.3427C321.373 22.526 322.537 22.0735 323.744 22.073ZM326.038 24.6268C326.04 24.7133 326.006 24.7967 325.945 24.8573L323.964 26.873C323.906 26.9323 323.826 26.9656 323.744 26.9656C323.661 26.9656 323.582 26.9323 323.524 26.873L321.542 24.8573C321.481 24.7967 321.447 24.7133 321.449 24.6268C321.451 24.5403 321.488 24.4583 321.552 24.4003C322.817 23.3215 324.67 23.3215 325.936 24.4003C325.999 24.4584 326.037 24.5403 326.038 24.6268Z" fill="black"/>
<path fill-rule="evenodd" clip-rule="evenodd" d="M312.189 16.336H311.197C310.65 16.336 310.205 16.7837 310.205 17.336V26.0027C310.205 26.555 310.65 27.0027 311.197 27.0027H312.189C312.737 27.0027 313.181 26.555 313.181 26.0027V17.336C313.181 16.7837 312.737 16.336 312.189 16.336ZM306.568 18.6693H307.56C308.108 18.6693 308.552 19.117 308.552 19.6693V26.0026C308.552 26.5549 308.108 27.0026 307.56 27.0026H306.568C306.02 27.0026 305.576 26.5549 305.576 26.0026V19.6693C305.576 19.117 306.02 18.6693 306.568 18.6693ZM302.931 21.0027H301.939C301.391 21.0027 300.947 21.4504 300.947 22.0027V26.0027C300.947 26.555 301.391 27.0027 301.939 27.0027H302.931C303.479 27.0027 303.923 26.555 303.923 26.0027V22.0027C303.923 21.4504 303.479 21.0027 302.931 21.0027ZM298.301 23.0027H297.309C296.762 23.0027 296.317 23.4504 296.317 24.0027V26.0027C296.317 26.5549 296.762 27.0027 297.309 27.0027H298.301C298.849 27.0027 299.293 26.5549 299.293 26.0027V24.0027C299.293 23.4504 298.849 23.0027 298.301 23.0027Z" fill="black"/>
<path d="M38.4455 22.8765C37.9133 23.355 37.3176 23.5942 36.6584 23.5942C35.6916 23.5942 34.925 23.2671 34.3586 22.6128C33.7922 21.9585 33.509 21.0845 33.509 19.9907C33.509 19.3071 33.6677 18.6724 33.9851 18.0864C34.3025 17.5005 34.7468 17.0366 35.3181 16.6948C35.8943 16.353 36.529 16.1821 37.2224 16.1821C37.9255 16.1821 38.5603 16.3604 39.1267 16.7168C39.698 17.0684 40.1423 17.5688 40.4597 18.2183C40.7771 18.8628 40.9406 19.6074 40.9504 20.4521V21.397C40.9504 22.5737 40.7185 23.5942 40.2546 24.4585C39.7956 25.3228 39.1389 25.9868 38.2844 26.4507C37.4299 26.9146 36.4338 27.1465 35.2961 27.1465H35.1423V25.1689L35.6111 25.1616C37.3103 25.0786 38.2551 24.3169 38.4455 22.8765ZM37.3249 21.8145C37.862 21.8145 38.2478 21.5825 38.4821 21.1187V20.0933C38.4821 19.4097 38.3674 18.9043 38.1379 18.5771C37.9084 18.25 37.5984 18.0864 37.2077 18.0864C36.8611 18.0864 36.5705 18.272 36.3361 18.6431C36.1018 19.0142 35.9846 19.4634 35.9846 19.9907C35.9846 20.5474 36.1042 20.9917 36.3435 21.3237C36.5827 21.6509 36.9099 21.8145 37.3249 21.8145ZM43.5435 24.605C43.9341 24.605 44.2588 24.7222 44.5176 24.9565C44.7764 25.186 44.9058 25.4814 44.9058 25.8428C44.9058 26.2041 44.7764 26.502 44.5176 26.7363C44.2588 26.9658 43.9341 27.0806 43.5435 27.0806C43.148 27.0806 42.8208 26.9634 42.562 26.729C42.3081 26.4946 42.1812 26.1992 42.1812 25.8428C42.1812 25.4863 42.3081 25.1909 42.562 24.9565C42.8208 24.7222 43.148 24.605 43.5435 24.605ZM43.5435 18.7603C43.9341 18.7603 44.2588 18.8774 44.5176 19.1118C44.7764 19.3413 44.9058 19.6367 44.9058 19.998C44.9058 20.3594 44.7764 20.6572 44.5176 20.8916C44.2588 21.1211 43.9341 21.2358 43.5435 21.2358C43.148 21.2358 42.8208 21.1187 42.562 20.8843C42.3081 20.6499 42.1812 20.3545 42.1812 19.998C42.1812 19.6416 42.3081 19.3462 42.562 19.1118C42.8208 18.8774 43.148 18.7603 43.5435 18.7603ZM51.6517 27H49.1761V19.1191L46.7444 19.8296V17.9546L51.4246 16.3359H51.6517V27ZM61.0856 22.8325H62.1695V24.7368H61.0856V27H58.6173V24.7368H54.4938L54.3473 23.228L58.6173 16.3579V16.3359H61.0856V22.8325ZM56.6984 22.8325H58.6173V19.5513L58.4635 19.8003L56.6984 22.8325Z" fill="black"/>
<defs>
<clipPath id="clip0_449_1712">
<rect x="16" y="364" width="343" height="405" rx="25" fill="white"/>
</clipPath>
<clipPath id="clip1_449_1712">
<rect width="44" height="44" fill="white" transform="translate(16 42)"/>
</clipPath>
<clipPath id="clip2_449_1712">
<rect width="44" height="44" fill="white" transform="translate(315 42)"/>
</clipPath>
</defs>
</svg>
