<svg width="375" height="812" viewBox="0 0 375 812" fill="none" xmlns="http://www.w3.org/2000/svg">
<rect width="375" height="812" rx="40" fill="#FCF5EF"/>
<rect x="121" y="799" width="134" height="5" rx="2.5" fill="black"/>
<path d="M16 185C16 171.193 27.1929 160 41 160H334C347.807 160 359 171.193 359 185V203H16V185Z" fill="#FEA735"/>
<path d="M121.76 186.136V183.472H131.354V186.136H121.76ZM131.354 179.602V182.212H121.76V179.602H131.354ZM131.354 175.66V178.342H121.76V175.66H131.354ZM126.278 174.382C126.584 173.698 126.908 172.888 127.178 172.114L125.648 171.916C125.504 172.618 125.216 173.59 124.946 174.382H120.428V188.404H121.76V187.396H131.354V188.314H132.74V174.382H126.278ZM151.694 173.032H142.91V174.292H151.694V173.032ZM139.904 171.934C139.004 173.212 137.276 174.832 135.782 175.84C136.016 176.092 136.376 176.614 136.574 176.902C138.176 175.768 140.012 174.022 141.182 172.438L139.904 171.934ZM140.642 175.768C139.4 177.802 137.456 179.872 135.602 181.186C135.872 181.456 136.34 182.032 136.538 182.302C137.204 181.78 137.888 181.132 138.572 180.43V188.422H139.904V178.954C140.642 178.072 141.326 177.154 141.884 176.236L140.642 175.768ZM152.216 177.946H142.136V179.224H148.148V186.64C148.148 186.946 148.04 187.018 147.698 187.036C147.356 187.054 146.168 187.054 144.89 187.018C145.088 187.396 145.268 187.954 145.322 188.314C147.086 188.314 148.094 188.314 148.706 188.116C149.3 187.9 149.498 187.486 149.498 186.658V179.224H152.216V177.946ZM154.376 182.14C154.178 183.706 153.836 185.326 153.278 186.424C153.53 186.514 154.052 186.748 154.25 186.892C154.826 185.74 155.222 184.03 155.474 182.338L154.376 182.14ZM158.66 180.7C158.804 181.132 158.912 181.528 158.966 181.852L159.992 181.42C159.776 180.412 159.146 178.846 158.462 177.658L157.526 178.018C157.778 178.504 158.03 179.044 158.246 179.584L155.834 179.71C156.986 178.198 158.318 176.146 159.29 174.472L158.192 173.986C157.724 174.94 157.076 176.11 156.374 177.226C156.122 176.884 155.798 176.488 155.438 176.092C156.068 175.102 156.842 173.626 157.454 172.384L156.302 171.952C155.942 172.942 155.294 174.328 154.718 175.354C154.538 175.174 154.34 174.976 154.16 174.814L153.44 175.642C154.268 176.416 155.168 177.46 155.69 178.27C155.33 178.828 154.97 179.332 154.628 179.782C154.16 179.8 153.71 179.818 153.314 179.836L153.44 181.042C154.25 180.988 155.168 180.934 156.158 180.862V188.368H157.328V180.79L158.66 180.7ZM166.994 183.85V181.78H168.416V183.85H166.994ZM164.69 183.85V181.78H166.076V183.85H164.69ZM162.44 183.85V181.78H163.79V183.85H162.44ZM167.894 176.488V178.414H161.684V176.488H167.894ZM169.55 180.736H161.648C161.666 180.304 161.684 179.908 161.684 179.512H169.19V175.372H160.478V179.314C160.478 181.042 160.388 183.256 159.668 185.236C159.56 184.354 159.218 183.076 158.786 182.086L157.85 182.374C158.264 183.4 158.624 184.75 158.678 185.632L159.632 185.362C159.362 186.064 159.02 186.748 158.57 187.36C158.84 187.504 159.344 187.882 159.542 188.116C160.604 186.658 161.162 184.804 161.432 182.986V188.368H162.44V184.876H163.79V188.188H164.69V184.876H166.076V188.188H166.994V184.876H168.416V187.09C168.416 187.252 168.38 187.288 168.272 187.288C168.128 187.288 167.75 187.288 167.318 187.27C167.462 187.576 167.642 188.044 167.678 188.368C168.344 188.368 168.812 188.332 169.154 188.17C169.478 187.954 169.55 187.63 169.55 187.108V180.736ZM159.794 173.032V174.202H169.622V173.032H159.794ZM176.318 184.66C176.678 185.668 176.948 187 176.93 187.81L178.028 187.648C178.028 186.838 177.758 185.542 177.362 184.552L176.318 184.66ZM178.856 184.588C179.378 185.452 179.846 186.586 179.99 187.342L181.016 187.036C180.872 186.28 180.368 185.146 179.792 184.3L178.856 184.588ZM183.788 186.01C183.5 185.452 182.834 184.624 182.222 184.048L181.322 184.48C181.934 185.074 182.582 185.92 182.852 186.496L183.788 186.01ZM176.57 182.554C176.912 182.176 177.236 181.798 177.506 181.384H184.85V176.038H179.882V177.028H183.626V178.234H180.152V179.188H183.626V180.412H175.166V179.188H178.604V178.234H175.166V177.082C176.426 176.812 177.848 176.452 178.91 176.002L178.064 175.138C177.272 175.516 175.958 175.912 174.77 176.218L173.96 176.038V181.384H176.03C174.914 182.806 173.06 183.94 171.206 184.66C171.458 184.912 171.854 185.47 171.998 185.722C172.718 185.398 173.456 185.002 174.14 184.552C173.87 185.686 173.348 186.856 172.52 187.54L173.528 188.152C174.5 187.342 174.968 185.974 175.274 184.678L174.356 184.408C174.716 184.174 175.058 183.922 175.382 183.652H185.066C184.922 185.866 184.742 186.784 184.472 187.072C184.328 187.216 184.184 187.234 183.878 187.216C183.554 187.234 182.744 187.216 181.88 187.144C182.096 187.45 182.222 187.954 182.258 188.296C183.14 188.35 184.004 188.368 184.436 188.314C184.94 188.296 185.264 188.188 185.57 187.864C186.002 187.396 186.218 186.172 186.416 183.094C186.434 182.914 186.452 182.554 186.452 182.554H176.57ZM179.99 173.392V171.952H178.676V173.392H171.782V176.56H173.006V174.562H185.696V176.56H186.956V173.392H179.99ZM202.958 177.154H197.558V173.86H202.958V177.154ZM204.272 172.69H196.334V178.306H204.272V172.69ZM195.614 181.798C195.254 181.384 193.724 179.8 193.166 179.332V178.234H195.416V176.974H193.166V173.932C194.012 173.734 194.804 173.482 195.452 173.212L194.516 172.204C193.202 172.798 190.844 173.32 188.828 173.644C188.99 173.95 189.17 174.382 189.242 174.688C190.07 174.562 190.988 174.418 191.87 174.238V176.974H188.936V178.234H191.69C190.97 180.286 189.728 182.608 188.594 183.868C188.81 184.192 189.134 184.714 189.26 185.092C190.178 183.994 191.132 182.194 191.87 180.376V188.332H193.166V180.628C193.778 181.366 194.516 182.356 194.804 182.86L195.614 181.798ZM200.906 186.694V184.372H204.488V183.202H200.906V181.06H204.884V179.872H195.668V181.06H199.574V183.202H196.082V184.372H199.574V186.694H194.858V187.9H205.28V186.694H200.906ZM221.876 174.22C221.336 173.608 220.202 172.69 219.284 172.078L218.384 172.816C219.302 173.464 220.418 174.436 220.94 175.066L221.876 174.22ZM211.85 180.556H215.216V179.26H207.332V180.556H210.536V185.776C209.096 186.064 207.782 186.334 206.774 186.532L207.188 187.846C209.474 187.342 212.768 186.586 215.81 185.848L215.702 184.678C214.406 184.966 213.11 185.218 211.85 185.488V180.556ZM222.614 176.578V175.282H217.286C217.232 174.22 217.214 173.14 217.214 172.024H215.81C215.828 173.122 215.846 174.22 215.9 175.282H206.702V176.578H215.99C216.458 183.238 217.952 188.404 220.886 188.404C222.254 188.404 222.758 187.486 222.992 184.372C222.614 184.228 222.11 183.94 221.804 183.634C221.696 186.028 221.48 187.018 220.994 187.018C219.212 187.018 217.79 182.644 217.358 176.578H222.614ZM232.406 175.912H233.684V174.562H236.42V175.93H237.716V174.562H240.218V173.428H237.716V171.952H236.42V173.428H233.684V171.952H232.406V173.428H229.796V174.562H232.406V175.912ZM229.886 180.862C229.562 180.304 228.212 178.036 227.744 177.352V176.65H229.598V175.39H227.744V171.934H226.466V175.39H224.252V176.65H226.466C225.98 179.08 224.954 181.942 223.91 183.436C224.144 183.76 224.468 184.336 224.612 184.732C225.278 183.67 225.944 182.032 226.466 180.286V188.368H227.744V179.152C228.23 180.088 228.788 181.24 229.04 181.852L229.886 180.862ZM231.776 179.494H238.004V180.772H231.776V179.494ZM231.776 177.262H238.004V178.54H231.776V177.262ZM240.2 184.408V183.274H235.25C235.34 182.806 235.43 182.302 235.484 181.78H239.282V176.254H230.534V181.78H234.17C234.098 182.302 234.026 182.824 233.918 183.274H229.4V184.408H233.522C232.838 185.776 231.56 186.73 228.932 187.324C229.166 187.576 229.508 188.08 229.616 188.368C232.748 187.612 234.188 186.352 234.908 184.444C235.808 186.406 237.464 187.738 239.768 188.368C239.948 188.026 240.326 187.522 240.614 187.27C238.58 186.838 237.05 185.848 236.168 184.408H240.2ZM242.612 182.14C242.414 183.724 242.036 185.326 241.442 186.424C241.73 186.514 242.27 186.766 242.486 186.928C243.08 185.776 243.512 184.048 243.764 182.356L242.612 182.14ZM247.436 180.826C247.598 181.204 247.706 181.546 247.778 181.852L248.84 181.348C248.588 180.376 247.796 178.846 247.058 177.694L246.068 178.126C246.374 178.612 246.68 179.17 246.95 179.728C245.96 179.764 244.97 179.818 244.07 179.854C245.312 178.306 246.752 176.182 247.796 174.49L246.644 173.986C246.14 174.958 245.456 176.128 244.718 177.262C244.43 176.884 244.052 176.452 243.62 176.02C244.304 175.048 245.06 173.608 245.672 172.402L244.484 171.952C244.106 172.942 243.476 174.292 242.882 175.3C242.702 175.138 242.522 174.976 242.342 174.832L241.658 175.714C242.504 176.47 243.458 177.478 244.016 178.288C243.62 178.882 243.206 179.422 242.81 179.89C242.396 179.908 241.982 179.926 241.622 179.926L241.73 181.132L244.664 180.988V188.404H245.87V180.916L247.436 180.826ZM246.518 182.392C247.004 183.508 247.508 184.948 247.67 185.884L248.732 185.524C248.57 184.588 248.048 183.166 247.526 182.068L246.518 182.392ZM250.982 183.202H255.554V186.64H250.982V183.202ZM255.554 174.166V177.478H250.982V174.166H255.554ZM255.554 181.996H250.982V178.684H255.554V181.996ZM256.868 186.64V172.96H249.686V186.64H247.778V187.864H258.254V186.64H256.868Z" fill="black"/>
<rect x="16" y="562" width="343" height="43" rx="21.5" fill="#FEA735"/>
<path d="M149.084 577.742H145.628V579.614C145.628 580.694 146.006 580.964 147.338 580.964H149.75C150.704 580.964 151.046 580.64 151.172 579.434C150.848 579.362 150.416 579.218 150.182 579.056C150.128 579.902 150.038 580.01 149.606 580.01H147.464C146.87 580.01 146.762 579.938 146.762 579.596V578.678H150.272V575.636H145.286V576.572H149.084V577.742ZM143.288 577.742H139.76V579.614C139.76 580.694 140.102 580.964 141.434 580.964H143.666C144.584 580.964 144.926 580.658 145.052 579.488C144.728 579.434 144.296 579.29 144.062 579.11C144.008 579.902 143.918 580.01 143.486 580.01H141.542C140.966 580.01 140.876 579.938 140.876 579.614V578.678H144.422V575.636H139.436V576.572H143.288V577.742ZM143.576 583.52H146.528V585.23H143.576V583.52ZM151.064 585.23H147.806V583.52H150.506V582.494H147.806V581.198H146.528V582.494H143.576V581.198H142.334V582.494H139.67V583.52H142.334V585.23H139.094V586.274H151.064V585.23ZM150.794 588.668C149.948 588.002 148.472 587.138 147.158 586.508L146.204 587.102C147.446 587.732 148.742 588.578 149.498 589.244L150.794 588.668ZM142.928 586.472C142.136 587.192 140.804 587.876 139.58 588.362C139.868 588.542 140.354 588.974 140.57 589.208C141.758 588.632 143.198 587.75 144.116 586.886L142.928 586.472ZM138.752 578.354C138.248 577.454 137.06 576.212 135.998 575.366L134.972 576.05C136.016 576.932 137.168 578.21 137.636 579.11L138.752 578.354ZM138.338 581.99H134.882V583.25H137.096V587.894C136.304 588.65 135.422 589.406 134.666 589.964L135.368 591.206C136.232 590.414 137.042 589.658 137.798 588.866C138.914 590.288 140.552 590.936 142.928 591.026C144.962 591.098 148.85 591.062 150.884 590.972C150.938 590.594 151.154 590 151.316 589.712C149.12 589.856 144.926 589.91 142.892 589.82C140.786 589.73 139.184 589.118 138.338 587.768V581.99ZM158.084 582.512C157.49 582.71 156.896 582.908 156.302 583.088V579.776H158.228V578.552H156.302V574.952H155.06V578.552H152.81V579.776H155.06V583.466C154.124 583.754 153.26 584.024 152.576 584.204L152.918 585.5L155.06 584.798V589.82C155.06 590.09 154.97 590.144 154.754 590.144C154.538 590.162 153.836 590.162 153.062 590.144C153.242 590.504 153.404 591.062 153.458 591.368C154.574 591.386 155.258 591.332 155.69 591.134C156.14 590.918 156.302 590.558 156.302 589.82V584.402L158.264 583.754L158.084 582.512ZM165.482 585.662H161.864L162.368 585.518C162.278 585.086 161.99 584.438 161.72 583.952H165.806C165.608 584.456 165.302 585.104 165.068 585.536L165.482 585.662ZM162.908 576.644H164.69V578.534H162.908V576.644ZM161.828 578.534H160.118V576.644H161.828V578.534ZM165.77 576.644H167.588V578.534H165.77V576.644ZM169.244 582.89H164.348V581.612H168.362V580.604H164.348V579.488H168.704V575.672H159.02V579.488H163.088V580.604H159.218V581.612H163.088V582.89H158.336V583.952H161.288L160.55 584.132C160.802 584.582 161.054 585.194 161.18 585.662H158.498V586.706H163.088V587.984H158.876V589.028H163.088V591.512H164.348V589.028H168.596V587.984H164.348V586.706H168.992V585.662H166.202C166.49 585.194 166.814 584.618 167.156 584.024L166.886 583.952H169.244V582.89ZM184.958 580.154H179.558V576.86H184.958V580.154ZM186.272 575.69H178.334V581.306H186.272V575.69ZM177.614 584.798C177.254 584.384 175.724 582.8 175.166 582.332V581.234H177.416V579.974H175.166V576.932C176.012 576.734 176.804 576.482 177.452 576.212L176.516 575.204C175.202 575.798 172.844 576.32 170.828 576.644C170.99 576.95 171.17 577.382 171.242 577.688C172.07 577.562 172.988 577.418 173.87 577.238V579.974H170.936V581.234H173.69C172.97 583.286 171.728 585.608 170.594 586.868C170.81 587.192 171.134 587.714 171.26 588.092C172.178 586.994 173.132 585.194 173.87 583.376V591.332H175.166V583.628C175.778 584.366 176.516 585.356 176.804 585.86L177.614 584.798ZM182.906 589.694V587.372H186.488V586.202H182.906V584.06H186.884V582.872H177.668V584.06H181.574V586.202H178.082V587.372H181.574V589.694H176.858V590.9H187.28V589.694H182.906ZM204.236 577.22C203.696 576.608 202.562 575.69 201.644 575.078L200.744 575.816C201.662 576.464 202.778 577.436 203.3 578.066L204.236 577.22ZM194.21 583.556H197.576V582.26H189.692V583.556H192.896V588.776C191.456 589.064 190.142 589.334 189.134 589.532L189.548 590.846C191.834 590.342 195.128 589.586 198.17 588.848L198.062 587.678C196.766 587.966 195.47 588.218 194.21 588.488V583.556ZM204.974 579.578V578.282H199.646C199.592 577.22 199.574 576.14 199.574 575.024H198.17C198.188 576.122 198.206 577.22 198.26 578.282H189.062V579.578H198.35C198.818 586.238 200.312 591.404 203.246 591.404C204.614 591.404 205.118 590.486 205.352 587.372C204.974 587.228 204.47 586.94 204.164 586.634C204.056 589.028 203.84 590.018 203.354 590.018C201.572 590.018 200.15 585.644 199.718 579.578H204.974ZM215.126 578.912H216.404V577.562H219.14V578.93H220.436V577.562H222.938V576.428H220.436V574.952H219.14V576.428H216.404V574.952H215.126V576.428H212.516V577.562H215.126V578.912ZM212.606 583.862C212.282 583.304 210.932 581.036 210.464 580.352V579.65H212.318V578.39H210.464V574.934H209.186V578.39H206.972V579.65H209.186C208.7 582.08 207.674 584.942 206.63 586.436C206.864 586.76 207.188 587.336 207.332 587.732C207.998 586.67 208.664 585.032 209.186 583.286V591.368H210.464V582.152C210.95 583.088 211.508 584.24 211.76 584.852L212.606 583.862ZM214.496 582.494H220.724V583.772H214.496V582.494ZM214.496 580.262H220.724V581.54H214.496V580.262ZM222.92 587.408V586.274H217.97C218.06 585.806 218.15 585.302 218.204 584.78H222.002V579.254H213.254V584.78H216.89C216.818 585.302 216.746 585.824 216.638 586.274H212.12V587.408H216.242C215.558 588.776 214.28 589.73 211.652 590.324C211.886 590.576 212.228 591.08 212.336 591.368C215.468 590.612 216.908 589.352 217.628 587.444C218.528 589.406 220.184 590.738 222.488 591.368C222.668 591.026 223.046 590.522 223.334 590.27C221.3 589.838 219.77 588.848 218.888 587.408H222.92ZM225.692 585.14C225.494 586.724 225.116 588.326 224.522 589.424C224.81 589.514 225.35 589.766 225.566 589.928C226.16 588.776 226.592 587.048 226.844 585.356L225.692 585.14ZM230.516 583.826C230.678 584.204 230.786 584.546 230.858 584.852L231.92 584.348C231.668 583.376 230.876 581.846 230.138 580.694L229.148 581.126C229.454 581.612 229.76 582.17 230.03 582.728C229.04 582.764 228.05 582.818 227.15 582.854C228.392 581.306 229.832 579.182 230.876 577.49L229.724 576.986C229.22 577.958 228.536 579.128 227.798 580.262C227.51 579.884 227.132 579.452 226.7 579.02C227.384 578.048 228.14 576.608 228.752 575.402L227.564 574.952C227.186 575.942 226.556 577.292 225.962 578.3C225.782 578.138 225.602 577.976 225.422 577.832L224.738 578.714C225.584 579.47 226.538 580.478 227.096 581.288C226.7 581.882 226.286 582.422 225.89 582.89C225.476 582.908 225.062 582.926 224.702 582.926L224.81 584.132L227.744 583.988V591.404H228.95V583.916L230.516 583.826ZM229.598 585.392C230.084 586.508 230.588 587.948 230.75 588.884L231.812 588.524C231.65 587.588 231.128 586.166 230.606 585.068L229.598 585.392ZM234.062 586.202H238.634V589.64H234.062V586.202ZM238.634 577.166V580.478H234.062V577.166H238.634ZM238.634 584.996H234.062V581.684H238.634V584.996ZM239.948 589.64V575.96H232.766V589.64H230.858V590.864H241.334V589.64H239.948Z" fill="black"/>
<path d="M246.078 302.454V279.921C246.078 269.91 237.997 261.774 227.986 261.719L86.8977 260.9C86.3699 260.9 85.8602 261.128 85.5144 261.519L79.1894 268.772C78.8345 269.182 78.3157 269.409 77.7788 269.391L65.6203 269.118C65.2198 269.109 64.8376 268.973 64.5191 268.718L56.8108 262.52C56.5013 262.265 56.11 262.129 55.7096 262.12L47.7829 261.938C46.7727 261.91 45.9354 262.72 45.9172 263.731L42.9504 482.393C42.9413 483.394 43.724 484.213 44.725 484.241L56.5469 484.541C57.0565 484.55 57.5297 484.778 57.8665 485.16L62.8536 490.811C63.1813 491.185 63.6545 491.412 64.155 491.43L76.6685 491.858C77.3056 491.876 77.9062 491.567 78.252 491.039L81.8832 485.497C82.2199 484.987 82.7842 484.677 83.3939 484.677L244.267 483.831C245.268 483.822 246.078 483.012 246.078 482.011L245.787 457.976C245.778 456.975 244.959 456.174 243.967 456.174L99.7661 456.247C99.2292 456.247 98.7104 456.484 98.3646 456.902L94.0327 462.099C93.6868 462.517 93.1772 462.754 92.6311 462.754H79.2167C78.7344 462.754 78.2702 462.563 77.9335 462.217L71.563 455.846C71.2172 455.501 70.7622 455.31 70.2798 455.31H59.6866C58.6855 455.31 57.8665 454.5 57.8665 453.489L57.5661 306.404C57.5661 305.394 58.3761 304.584 59.3863 304.584H69.9249C70.3435 304.584 70.7439 304.729 71.0716 304.993L78.8982 311.355C79.2258 311.618 79.6262 311.764 80.0449 311.764H92.2489C92.6584 311.764 93.0498 311.628 93.3774 311.373L100.913 305.439C101.231 305.184 101.623 305.048 102.032 305.048L244.276 304.283C245.268 304.274 246.078 303.455 246.078 302.454Z" fill="#94CC93"/>
<path d="M115.71 268.292H187.569C188.079 268.292 188.57 268.465 188.916 268.784L203.941 282.335C204.587 282.917 204.578 283.818 203.905 284.392L188.434 297.615C188.088 297.906 187.615 298.07 187.123 298.07H115.701C115.209 298.07 114.745 297.906 114.399 297.615L98.5187 284.228C97.8271 283.645 97.8271 282.708 98.5187 282.126L114.399 268.738C114.745 268.456 115.219 268.292 115.71 268.292Z" fill="#D7FAD6"/>
<path d="M99.1743 456.875L238.57 455.883C239.571 455.874 240.381 455.064 240.381 454.063V438.237C240.381 418.88 224.828 403.936 205.471 403.672L101.95 403.108C101.513 403.108 101.095 403.263 100.758 403.545L92.4853 410.607C92.1577 410.889 91.7391 411.044 91.3022 411.044H79.626C79.1983 411.044 78.7887 410.898 78.4611 410.616L70.9166 404.309C70.589 404.036 70.1795 403.882 69.7517 403.882H59.559C58.5579 403.882 57.7479 404.692 57.7388 405.684L57.3566 453.735C57.3475 454.718 58.1301 455.537 59.113 455.565L70.1249 455.947C70.5344 455.965 70.9257 456.111 71.2352 456.375L78.088 462.163C78.4156 462.436 78.8342 462.59 79.262 462.59L92.4216 462.599C92.9403 462.599 93.4318 462.381 93.7776 461.99L97.8274 457.458C98.1733 457.103 98.6647 456.884 99.1743 456.875Z" fill="#CBA0C9"/>
<path d="M58.0392 359.707V402.089C58.0392 403.09 58.8583 403.909 59.8594 403.909H69.2695C69.6972 403.909 70.1068 404.054 70.4344 404.337L77.9789 410.643C78.3065 410.916 78.7161 411.071 79.1438 411.071H90.82C91.2568 411.071 91.6754 410.916 92.0031 410.634L100.276 403.572C100.603 403.29 101.031 403.135 101.468 403.135L245.942 403.918C256.143 403.854 263.57 396.501 268.211 387.409L281.543 360.762C282.162 359.552 282.499 357.896 279.869 357.896H100.594C100.13 357.896 99.675 358.078 99.3383 358.396L92.4126 364.994C92.0759 365.313 91.6209 365.495 91.1567 365.495H78.9072C78.4339 365.495 77.988 365.313 77.6422 364.985L70.7984 358.396C70.4617 358.069 70.0067 357.887 69.5334 357.887H59.8503C58.8583 357.887 58.0392 358.697 58.0392 359.707Z" fill="#BEE1DD"/>
<path d="M58.6755 304.292L69.9223 304.373C70.318 304.373 70.6969 304.519 71 304.792L78.8518 311.16C79.1549 311.433 79.5338 311.579 79.9295 311.579L88.6901 311.515C89.0521 311.515 89.3973 311.388 89.692 311.16L97.2441 305.149C97.5303 304.921 97.8839 304.793 98.2375 304.793L329.11 304.383C338.506 304.356 346.1 312.645 345.999 322.81L345.814 339.679C345.704 349.653 338.203 357.687 328.975 357.687L100.628 358.328C100.216 358.328 99.8115 358.492 99.5 358.792L92.5 365.292C92.1885 365.593 91.7928 365.757 91.3718 365.757L78.5 365.792C78.0622 365.792 77.6497 365.61 77.3297 365.282L68.8123 358.188C68.5008 357.86 68.0798 357.678 67.642 357.678H58.6839C57.7578 357.678 57.0001 356.858 57.0001 355.856V306.096C56.9917 305.112 57.7494 304.292 58.6755 304.292Z" fill="#ED6547"/>
<path d="M170.737 346.292H101.263C100.568 346.292 100 345.461 100 344.444V320.141C100 319.124 100.568 318.292 101.263 318.292H170.737C171.432 318.292 172 319.124 172 320.141V344.444C172 345.47 171.432 346.292 170.737 346.292Z" fill="#B05B47"/>
<path d="M246.401 394.868H208.788C201.17 394.868 195 388.697 195 381.08C195 373.463 201.17 367.292 208.788 367.292H246.401C254.018 367.292 260.188 373.463 260.188 381.08C260.188 388.688 254.018 394.868 246.401 394.868Z" fill="#FCFDFD"/>
<path d="M139.638 394.292H109.362C100.879 394.292 94 390.318 94 385.417V376.168C94 371.267 100.879 367.292 109.362 367.292H139.638C148.121 367.292 155 371.267 155 376.168V385.417C154.985 390.318 148.121 394.292 139.638 394.292Z" fill="#7AC1B6"/>
<path d="M309.79 349.292H226.201C221.674 349.292 218 345.256 218 340.283V324.301C218 319.328 221.674 315.292 226.201 315.292H309.799C314.326 315.292 318 319.328 318 324.301V340.283C317.992 345.256 314.326 349.292 309.79 349.292Z" fill="#F9B8A9"/>
<path d="M222.389 443.523H187.779C184.585 443.523 182 440.939 182 437.744V429.071C182 425.877 184.585 423.292 187.779 423.292H222.389C225.583 423.292 228.168 425.877 228.168 429.071V437.744C228.168 440.939 225.583 443.523 222.389 443.523Z" fill="#F1D5F0"/>
<path d="M173.755 260.2V221.567C173.755 220.557 172.936 219.747 171.926 219.747L72.7733 220.047C72.3638 220.047 71.9634 220.193 71.6357 220.448L64.7283 225.999C64.4007 226.263 64.0002 226.4 63.5907 226.4H50.8679C50.3947 226.4 49.9487 226.218 49.612 225.89L43.2142 219.756C42.8866 219.437 42.4498 219.265 41.9947 219.246L31.8656 219.001C30.8464 218.973 30 219.802 30 220.821V513.472C30 514.473 30.8191 515.292 31.8201 515.292H171.935C172.936 515.292 173.755 514.473 173.755 513.472V502.961C173.755 492.85 165.519 484.678 155.408 484.759L82.8933 485.324L78.7252 491.685C78.3794 492.213 77.7787 492.531 77.1417 492.504L64.6282 492.076C64.1277 492.058 63.6544 491.84 63.3268 491.458L58.3396 485.806C58.0029 485.424 57.5296 485.205 57.02 485.187L45.1982 484.887C44.2062 484.86 43.4144 484.041 43.4235 483.039L46.3904 264.377C46.4086 263.367 47.2367 262.557 48.256 262.584L56.1827 262.766C56.5832 262.775 56.9654 262.912 57.2839 263.166L64.9922 269.364C65.3016 269.619 65.693 269.755 66.0934 269.764L78.2519 270.037C78.7889 270.047 79.3076 269.819 79.6625 269.419L85.9875 262.165C86.3334 261.765 86.843 261.537 87.3708 261.546L171.916 262.001C172.936 262.029 173.755 261.21 173.755 260.2Z" fill="#F8C8BC"/>
<path d="M40.5 219.292L172 219.792L163.5 228.292H41L40.5 219.292Z" fill="#F8C8BC"/>
<path d="M67.2 247.092V246.462H69.524V247.092H67.2ZM67.2 244.838H69.524V245.468H67.2V244.838ZM73.654 244.838V245.468H71.204V244.838H73.654ZM73.654 247.092H71.204V246.462H73.654V247.092ZM71.204 250.802V250.06H75.88V248.814H71.204V248.184H75.362V243.746H71.204V243.214H76.692V241.912H71.204V241.184C72.73 241.072 74.186 240.918 75.404 240.722L74.634 239.434C72.268 239.826 68.474 240.064 65.212 240.134C65.352 240.47 65.534 241.03 65.548 241.408C66.808 241.394 68.18 241.352 69.524 241.296V241.912H64.176V243.214H69.524V243.746H65.576V248.184H69.524V248.814H65.114V250.06H69.524V250.802H64.092V252.118H76.79V250.802H71.204ZM87.612 248.688C87.304 249.038 86.94 249.346 86.52 249.612C86.1 249.346 85.736 249.038 85.428 248.688H87.612ZM85.092 245.202H88.172V245.79H85.092V245.202ZM85.092 243.676H88.172V244.25H85.092V243.676ZM88.872 247.414L88.578 247.47H86.352C86.534 247.26 86.688 247.036 86.842 246.812H89.754V242.654H84.098C84.252 242.458 84.392 242.262 84.518 242.052H90.524V240.68H85.288C85.442 240.344 85.596 240.022 85.736 239.686L84.196 239.434C83.846 240.4 83.23 241.534 82.334 242.472L81.494 241.94L81.242 241.996H80.794V239.504H79.31V241.996H77.826V243.438H80.528C79.8 245.132 78.61 246.798 77.406 247.764C77.658 248.044 78.036 248.828 78.162 249.234C78.554 248.884 78.946 248.478 79.324 248.016V252.51H80.808V247.162C81.172 247.722 81.522 248.31 81.718 248.716L82.642 247.624C82.53 247.47 82.278 247.134 81.984 246.756C82.306 246.336 82.67 245.804 83.034 245.272L82.096 244.614C81.928 244.992 81.634 245.51 81.368 245.944L81.018 245.51C81.48 244.67 81.886 243.774 82.194 242.878C82.544 243.102 82.964 243.466 83.174 243.732C83.314 243.592 83.454 243.452 83.58 243.298V246.812H84.994C84.378 247.596 83.412 248.394 82.082 248.996C82.432 249.22 82.922 249.738 83.16 250.088C83.552 249.878 83.916 249.654 84.252 249.416C84.504 249.752 84.798 250.046 85.106 250.326C84.154 250.704 83.076 250.956 81.928 251.11C82.194 251.418 82.614 252.118 82.754 252.524C84.098 252.272 85.372 251.894 86.492 251.32C87.458 251.88 88.592 252.272 89.88 252.51C90.104 252.062 90.538 251.404 90.902 251.054C89.824 250.914 88.844 250.69 87.99 250.354C88.774 249.724 89.418 248.94 89.852 247.974L88.872 247.414ZM100.688 243.648H101.682C101.682 245.062 101.682 246.448 101.724 247.694C101.388 247.372 100.968 247.022 100.492 246.686C100.646 245.664 100.688 244.656 100.688 243.732V243.648ZM97.3 246.168H96.418C96.642 245.692 96.88 245.09 97.118 244.488L96.544 244.348H97.734V243.648H99.134V243.718C99.134 244.334 99.12 244.992 99.05 245.692C98.714 245.468 98.392 245.272 98.084 245.09L97.3 246.168ZM95.69 244.348C95.564 244.894 95.326 245.58 95.13 246.07L95.494 246.168H93.66L94.038 246.056C93.968 245.608 93.758 244.922 93.506 244.348H95.69ZM100.688 242.122V239.448H99.134V242.122H97.468V242.948H95.354V242.052H97.174V240.68H95.354V239.434H93.814V240.68H91.868V242.052H93.814V242.948H91.322V244.348H92.778L92.19 244.516C92.4 245.02 92.596 245.678 92.694 246.168H91.616V247.568H93.814V248.534H91.728V249.934H93.814V252.468H95.354V249.934H97.314V248.534H95.354V247.568H97.482V246.462C97.902 246.728 98.336 247.036 98.77 247.344C98.406 248.87 97.664 250.368 96.208 251.502C96.6 251.726 97.202 252.216 97.482 252.51C98.868 251.39 99.666 249.934 100.128 248.422C100.506 248.744 100.842 249.08 101.08 249.36L101.752 248.366C101.878 250.522 102.2 252.118 102.984 252.426C103.88 252.804 104.566 252.258 104.678 249.85C104.44 249.654 104.02 249.08 103.768 248.688C103.754 249.766 103.684 250.858 103.614 250.83C103.138 250.662 103.166 245.93 103.292 242.122H100.688ZM117.642 240.232H110.838V241.814H117.642V240.232ZM108.15 239.434C107.478 240.414 106.148 241.674 104.986 242.416C105.28 242.738 105.7 243.41 105.91 243.774C107.24 242.85 108.752 241.408 109.76 240.092L108.15 239.434ZM108.682 242.458C107.786 244.04 106.26 245.664 104.832 246.644C105.168 246.994 105.728 247.75 105.966 248.086C106.344 247.778 106.722 247.428 107.114 247.05V252.524H108.78V245.216C109.34 244.516 109.858 243.788 110.278 243.074L108.682 242.458ZM117.992 244.082H110.25V245.664H114.38V250.536C114.38 250.746 114.282 250.802 114.03 250.802C113.778 250.816 112.854 250.816 112.056 250.774C112.28 251.264 112.49 251.978 112.56 252.468C113.806 252.468 114.702 252.44 115.29 252.188C115.906 251.936 116.074 251.474 116.074 250.578V245.664H117.992V244.082Z" fill="black"/>
<path d="M68.11 280.774C67.928 282.258 67.606 283.546 67.144 284.624C66.696 284.316 66.248 284.036 65.814 283.77C66.052 282.818 66.29 281.81 66.528 280.774H68.11ZM68.796 279.164L68.502 279.206H66.878C67.074 278.296 67.256 277.414 67.424 276.588L65.814 276.434C65.674 277.288 65.492 278.24 65.296 279.206H63.728V280.774H64.96C64.596 282.412 64.204 283.994 63.868 285.156L65.268 285.828L65.408 285.31C65.73 285.534 66.066 285.772 66.388 286.01C65.716 286.976 64.848 287.69 63.798 288.138C64.134 288.474 64.568 289.09 64.778 289.51C65.968 288.908 66.92 288.096 67.676 287.032C68.278 287.55 68.796 288.04 69.146 288.488L70.112 287.06C69.734 286.612 69.16 286.108 68.502 285.59C69.216 283.994 69.65 281.964 69.818 279.332L68.796 279.164ZM72.072 286.514V279.43H74.536V286.514H72.072ZM70.49 277.862V289.132H72.072V288.096H74.536V288.922H76.188V277.862H70.49ZM80.752 281.544V280.648H83.006V281.544H80.752ZM80.752 278.464H83.006V279.36H80.752V278.464ZM86.996 279.36H84.77V278.464H86.996V279.36ZM86.996 281.544H84.77V280.648H86.996V281.544ZM90.118 285.282V283.756H84.77V282.93H88.83V277.078H79.002V282.93H83.006V283.756H77.644V285.282H81.788C80.612 286.332 78.876 287.256 77.21 287.746C77.588 288.096 78.092 288.74 78.344 289.132C80.01 288.516 81.718 287.424 83.006 286.136V289.51H84.77V286.066C86.072 287.34 87.78 288.432 89.404 289.048C89.642 288.628 90.146 287.97 90.524 287.634C88.928 287.172 87.22 286.276 85.988 285.282H90.118Z" fill="black"/>
<path d="M214.004 283.434C214.06 282.902 214.116 282.37 214.158 281.796H215.544C215.544 282.412 215.544 282.944 215.53 283.434H214.004ZM215.572 278.646L215.558 280.326H214.228C214.256 279.78 214.27 279.22 214.27 278.646H215.572ZM210.798 277.134V278.646H212.618C212.618 279.22 212.604 279.78 212.59 280.326H210.966V281.796H212.52C212.478 282.37 212.436 282.902 212.366 283.434H210.798V284.904H212.1C211.792 286.262 211.288 287.41 210.504 288.278C210.882 288.544 211.638 289.202 211.862 289.51C212.842 288.292 213.416 286.752 213.78 284.904H215.502C215.46 286.374 215.39 287.046 215.25 287.284C215.124 287.508 214.998 287.578 214.816 287.578C214.55 287.578 214.088 287.578 213.57 287.536C213.85 288.04 214.046 288.796 214.074 289.314C214.718 289.328 215.32 289.342 215.754 289.23C216.216 289.118 216.482 288.95 216.804 288.418C217.224 287.718 217.21 285.212 217.238 277.974C217.238 277.764 217.252 277.134 217.252 277.134H210.798ZM222.516 277.036L222.278 277.092H218.12V289.496H219.702V278.66H221.592C221.214 279.724 220.71 281.11 220.248 282.118C221.508 283.21 221.886 284.19 221.886 284.974C221.886 285.436 221.788 285.744 221.494 285.898C221.312 285.982 221.074 286.024 220.85 286.024C220.584 286.038 220.248 286.038 219.828 285.996C220.094 286.444 220.262 287.116 220.29 287.564C220.752 287.578 221.256 287.578 221.62 287.536C222.012 287.48 222.362 287.368 222.642 287.186C223.202 286.808 223.468 286.136 223.468 285.142C223.468 284.218 223.188 283.14 221.886 281.908C222.502 280.676 223.16 279.108 223.706 277.792L222.516 277.036ZM228.9 278.912V279.682H227.36V280.83H228.9V283.84H230.132V280.83H231.686V279.682H230.132V278.912H233.632V279.682H232.092V280.83H233.632V283.938H234.864V280.83H236.95V279.682H234.864V278.912H237.216V277.526H232.162V276.448H230.426V277.526H225.246V281.754C225.246 283.784 225.162 286.64 224.224 288.614C224.56 288.768 225.232 289.272 225.498 289.552C226.59 287.41 226.772 283.98 226.772 281.754V278.912H228.9ZM233.184 281.124H232.274V281.642C232.274 282.16 232.19 282.902 231.644 283.364C231.882 283.476 232.288 283.784 232.456 283.994C233.086 283.35 233.184 282.44 233.184 281.698V281.124ZM231.504 283.224V281.152H230.58V283.224H231.504ZM228.466 281.138H227.556V281.684C227.556 282.216 227.472 282.986 226.982 283.462C227.22 283.602 227.584 283.882 227.752 284.092C228.368 283.406 228.466 282.482 228.466 281.712V281.138ZM233.436 286.668C233.772 286.99 234.122 287.354 234.472 287.732C233.394 287.76 232.33 287.774 231.294 287.788C232.512 286.976 233.8 285.982 234.864 285.072L233.464 284.316C232.862 284.932 232.064 285.618 231.224 286.276C231 286.108 230.734 285.912 230.44 285.716C231 285.268 231.602 284.736 232.162 284.218L230.818 283.504C230.454 283.98 229.922 284.568 229.404 285.058C229.138 284.918 228.9 284.778 228.662 284.652L227.612 285.618C228.382 286.052 229.334 286.682 229.978 287.214C229.67 287.424 229.362 287.634 229.068 287.83C228.312 287.83 227.626 287.844 227.024 287.844L227.136 289.216C229.292 289.16 232.47 289.076 235.494 288.964C235.634 289.16 235.76 289.356 235.858 289.524L237.258 288.824C236.754 288.012 235.648 286.85 234.738 286.038L233.436 286.668ZM236.418 283.084C236.362 283.084 236.334 283.07 236.306 283.028V282.72V281.124H235.34V282.65C235.34 283.28 235.382 283.476 235.55 283.644C235.69 283.812 235.942 283.882 236.18 283.882H236.614C236.754 283.882 236.95 283.854 237.048 283.798C237.188 283.728 237.3 283.616 237.384 283.476C237.454 283.35 237.496 282.958 237.524 282.608C237.272 282.538 236.964 282.37 236.796 282.23C236.796 282.538 236.782 282.776 236.754 282.888C236.712 282.986 236.698 283.042 236.656 283.056C236.642 283.07 236.586 283.084 236.544 283.084H236.418Z" fill="black"/>
<path d="M112.27 379.068V380.286H110.716V379.068H112.27ZM107.622 379.068H109.092V380.286H107.622V379.068ZM109.092 377.794H106.082V381.546H108.35C107.594 382.47 106.418 383.31 105.27 383.786C105.62 384.08 106.082 384.654 106.32 385.046C107.328 384.528 108.322 383.674 109.092 382.708V385.27H110.716V382.806C111.528 383.702 112.522 384.514 113.446 385.004C113.698 384.598 114.216 384.024 114.566 383.702C113.418 383.24 112.13 382.414 111.29 381.546H113.894V377.794H110.716V377.038H114.37V375.652H110.716V374.448H109.092V375.652H105.648V377.038H109.092V377.794ZM105.382 376.87C104.906 376.212 103.884 375.344 103.044 374.756L101.812 375.764C102.638 376.38 103.632 377.304 104.066 377.976L105.382 376.87ZM105.032 379.866H101.798V381.392H103.408V384.346C102.792 384.822 102.092 385.284 101.49 385.634L102.302 387.37C103.072 386.782 103.688 386.236 104.304 385.69C105.214 386.782 106.362 387.174 108.084 387.244C109.75 387.314 112.564 387.286 114.244 387.202C114.328 386.726 114.58 385.914 114.762 385.522C112.9 385.662 109.75 385.704 108.112 385.634C106.656 385.578 105.606 385.2 105.032 384.262V379.866ZM118.038 377.178H128.132V375.694H123.162V374.448H121.426V375.694H116.442V379.614C116.442 381.658 116.358 384.57 115.196 386.558C115.574 386.726 116.274 387.188 116.554 387.468C117.828 385.312 118.038 381.882 118.038 379.614V377.178ZM124.394 379.67V380.594H121.846V379.67H124.394ZM126.046 381.854V379.67H128.062V378.354H126.046V377.43H124.394V378.354H121.846V377.43H120.278V378.354H118.388V379.67H120.278V381.854H126.046ZM124.912 383.716C124.45 384.164 123.876 384.556 123.232 384.864C122.574 384.542 122.014 384.164 121.594 383.716H124.912ZM126.326 382.344L126.032 382.414H118.486V383.716H120.572L119.914 383.954C120.362 384.556 120.908 385.074 121.524 385.508C120.418 385.83 119.186 386.026 117.898 386.138C118.15 386.488 118.444 387.118 118.57 387.538C120.236 387.328 121.804 386.992 123.176 386.446C124.394 386.992 125.822 387.356 127.432 387.552C127.642 387.118 128.076 386.474 128.412 386.124C127.152 386.012 125.99 385.816 124.968 385.522C125.976 384.85 126.802 383.982 127.362 382.862L126.326 382.344Z" fill="black"/>
<path d="M142.841 386.081C142.079 386.769 140.921 386.769 140.159 386.081L135.396 381.776C134.037 380.549 134.906 378.292 136.737 378.292L146.263 378.292C148.094 378.292 148.963 380.549 147.604 381.776L142.841 386.081Z" fill="black"/>
<path d="M168.544 374.868H164.316V376.128H168.544V374.868ZM169.076 376.744H163.602V378.06H169.076V376.744ZM168.572 380.608H164.26V381.854H168.572V380.608ZM173.92 381.938C173.584 382.652 173.15 383.282 172.604 383.828C172.044 383.268 171.582 382.638 171.246 381.938H173.92ZM167.116 385.466H165.632V383.856H167.116V385.466ZM174.97 380.37L174.69 380.44H169.762C171.218 379.446 171.498 377.85 171.498 376.534V376.296H173.066V377.99C173.066 379.376 173.388 379.81 174.508 379.81H175.32C176.258 379.81 176.622 379.32 176.762 377.584C176.356 377.472 175.712 377.234 175.404 376.996C175.39 378.214 175.334 378.396 175.152 378.396H174.802C174.648 378.396 174.62 378.354 174.62 377.962V374.826H169.93V376.492C169.93 377.43 169.776 378.536 168.572 379.362V378.69H164.26V379.964H168.572V379.432C168.908 379.656 169.496 380.16 169.734 380.44H169.258V381.938H171.204L169.776 382.4C170.21 383.31 170.742 384.122 171.386 384.822C170.56 385.368 169.608 385.76 168.558 386.026V382.54H164.218V387.314H165.632V386.768H168.558V386.054C168.866 386.432 169.258 387.09 169.426 387.496C170.616 387.132 171.694 386.628 172.632 385.97C173.514 386.628 174.536 387.146 175.712 387.496C175.95 387.062 176.426 386.404 176.79 386.054C175.712 385.788 174.732 385.382 173.906 384.85C174.872 383.8 175.614 382.47 176.062 380.776L174.97 380.37ZM181.27 384.094C181.494 384.99 181.634 386.194 181.592 386.95L183.02 386.782C183.02 385.998 182.88 384.822 182.614 383.926L181.27 384.094ZM183.37 383.968C183.664 384.752 183.972 385.802 184.056 386.488L185.386 386.138C185.288 385.48 184.966 384.444 184.644 383.674L183.37 383.968ZM186.366 378.2C186.282 378.578 186.198 378.942 186.114 379.264H183.412C183.622 378.914 183.804 378.564 183.986 378.2H186.366ZM187.29 380.692C187.22 381.084 187.136 381.448 187.052 381.784H181.634C181.942 381.434 182.222 381.07 182.502 380.692H187.29ZM190.104 381.784H188.55C188.746 381.028 188.928 380.09 189.082 379.264H187.626C187.808 378.494 188.018 377.528 188.186 376.702H184.658C184.896 376.086 185.12 375.456 185.316 374.826L183.608 374.434C183.412 375.19 183.16 375.96 182.838 376.702H181.088L182.18 376.254C181.9 375.736 181.312 374.966 180.808 374.434L179.31 375.022C179.744 375.526 180.22 376.198 180.486 376.702H177.756V378.2H182.124C180.99 380.286 179.338 382.106 177.098 383.24C177.392 383.618 177.798 384.276 177.994 384.696C178.47 384.43 178.932 384.15 179.352 383.842C179.1 384.864 178.652 385.886 177.98 386.544L179.268 387.454C180.094 386.586 180.514 385.284 180.794 384.08L179.59 383.674C179.786 383.534 179.982 383.366 180.178 383.212H188.34C188.172 384.892 187.976 385.648 187.738 385.886C187.598 386.026 187.458 386.04 187.234 386.04C186.954 386.054 186.366 386.04 185.764 385.984C186.016 386.404 186.198 387.034 186.226 387.496C186.94 387.524 187.598 387.524 188.004 387.468C188.466 387.412 188.788 387.3 189.124 386.936C189.572 386.474 189.824 385.256 190.062 382.428L190.104 381.784ZM187.514 385.158C187.374 384.64 186.996 383.884 186.618 383.31L185.47 383.702C185.82 384.29 186.17 385.102 186.296 385.592L187.514 385.158Z" fill="black"/>
<path d="M69.188 383.828C69.734 384.444 70.364 385.312 70.602 385.872L71.974 385.06C71.694 384.486 71.022 383.688 70.448 383.086L69.188 383.828ZM70.504 377.766C70.686 377.64 70.854 377.5 71.036 377.374C71.568 377.696 72.1 378.13 72.45 378.508C72.254 378.662 72.044 378.816 71.82 378.956C71.498 378.578 70.98 378.13 70.504 377.766ZM74.144 376.632C73.92 377.01 73.64 377.36 73.346 377.696C72.982 377.346 72.45 376.954 71.946 376.632H74.144ZM76.44 381.532H74.886V379.908H73.318V381.532H69.454C72.394 380.65 74.984 378.942 76.16 375.932L75.124 375.456L74.858 375.512H73.01C73.192 375.302 73.36 375.092 73.514 374.868L71.904 374.448C71.12 375.652 69.678 376.884 68.068 377.584V374.448H66.542V378.256H65.464V375.078H64.022V379.74H66.542V381.336H63.476V382.764H64.162C64.162 383.758 64.064 385.536 63.322 386.74C63.672 386.908 64.26 387.286 64.54 387.538C65.45 386.11 65.604 383.94 65.604 382.778V382.764H66.542V387.51H68.068V377.752C68.376 378.018 68.768 378.424 68.978 378.662C69.132 378.578 69.3 378.494 69.454 378.41C69.916 378.76 70.378 379.194 70.7 379.586C69.972 379.936 69.188 380.216 68.39 380.398C68.656 380.678 69.006 381.168 69.188 381.532H68.502V382.988H73.318V385.69C73.318 385.872 73.248 385.928 73.038 385.928C72.828 385.928 72.114 385.928 71.456 385.9C71.666 386.376 71.876 387.048 71.932 387.524C72.968 387.524 73.696 387.482 74.228 387.23C74.774 386.964 74.886 386.53 74.886 385.718V382.988H76.44V381.532Z" fill="black"/>
<path d="M74.13 336.27H72.618V330.6H74.13V336.27ZM66.052 330.6H67.494V336.27H66.052V330.6ZM71.12 331.566H68.978V330.6H71.12V331.566ZM68.978 335.234H71.12V336.27H68.978V335.234ZM71.12 333.932H68.978V332.868H71.12V333.932ZM76.468 327.8V326.232H63.868V327.8H68.978C68.922 328.22 68.838 328.654 68.754 329.06H64.442V338.51H66.052V337.796H74.13V338.51H75.824V329.06H70.504C70.616 328.654 70.756 328.234 70.882 327.8H76.468ZM85.064 332.21V334.072H82.628V332.21H85.064ZM86.59 335.528V330.754H81.13V336.508H82.628V335.528H86.59ZM89.67 327.772H83.832C84.168 327.156 84.518 326.428 84.812 325.728L82.698 325.434C82.53 326.134 82.25 327.016 81.956 327.772H78.092V338.496H79.758V329.396H87.99V336.536C87.99 336.788 87.906 336.858 87.64 336.858C87.36 336.872 86.422 336.886 85.596 336.83C85.834 337.278 86.086 338.034 86.142 338.51C87.402 338.51 88.298 338.482 88.886 338.216C89.474 337.95 89.67 337.474 89.67 336.564V327.772Z" fill="black"/>
<path d="M69.668 435.828C70.214 436.444 70.844 437.312 71.082 437.872L72.454 437.06C72.174 436.486 71.502 435.688 70.928 435.086L69.668 435.828ZM70.984 429.766C71.166 429.64 71.334 429.5 71.516 429.374C72.048 429.696 72.58 430.13 72.93 430.508C72.734 430.662 72.524 430.816 72.3 430.956C71.978 430.578 71.46 430.13 70.984 429.766ZM74.624 428.632C74.4 429.01 74.12 429.36 73.826 429.696C73.462 429.346 72.93 428.954 72.426 428.632H74.624ZM76.92 433.532H75.366V431.908H73.798V433.532H69.934C72.874 432.65 75.464 430.942 76.64 427.932L75.604 427.456L75.338 427.512H73.49C73.672 427.302 73.84 427.092 73.994 426.868L72.384 426.448C71.6 427.652 70.158 428.884 68.548 429.584V426.448H67.022V430.256H65.944V427.078H64.502V431.74H67.022V433.336H63.956V434.764H64.642C64.642 435.758 64.544 437.536 63.802 438.74C64.152 438.908 64.74 439.286 65.02 439.538C65.93 438.11 66.084 435.94 66.084 434.778V434.764H67.022V439.51H68.548V429.752C68.856 430.018 69.248 430.424 69.458 430.662C69.612 430.578 69.78 430.494 69.934 430.41C70.396 430.76 70.858 431.194 71.18 431.586C70.452 431.936 69.668 432.216 68.87 432.398C69.136 432.678 69.486 433.168 69.668 433.532H68.982V434.988H73.798V437.69C73.798 437.872 73.728 437.928 73.518 437.928C73.308 437.928 72.594 437.928 71.936 437.9C72.146 438.376 72.356 439.048 72.412 439.524C73.448 439.524 74.176 439.482 74.708 439.23C75.254 438.964 75.366 438.53 75.366 437.718V434.988H76.92V433.532ZM83.22 434.148C82.954 433.84 81.806 432.622 81.428 432.314V431.908H82.926V430.354H81.428V428.38C82.03 428.226 82.59 428.044 83.094 427.848L81.988 426.574C80.91 427.064 79.188 427.47 77.648 427.736C77.83 428.072 78.026 428.632 78.11 429.01C78.656 428.94 79.23 428.842 79.818 428.73V430.354H77.816V431.908H79.594C79.076 433.266 78.306 434.75 77.522 435.66C77.788 436.08 78.138 436.766 78.292 437.242C78.838 436.542 79.37 435.548 79.818 434.47V439.496H81.428V434.036C81.764 434.54 82.1 435.086 82.268 435.45L83.22 434.148ZM88.582 434.442C88.288 434.988 87.91 435.464 87.476 435.884C87.07 435.534 86.524 435.156 86.034 434.862C86.188 434.722 86.342 434.582 86.482 434.442H88.582ZM87.91 428.996C87.616 429.458 87.238 429.864 86.804 430.242C86.426 429.892 85.922 429.528 85.46 429.248C85.558 429.164 85.656 429.08 85.74 428.996H87.91ZM89.674 433.028L89.38 433.084H87.616C87.826 432.776 88.022 432.468 88.19 432.146L87.056 431.95C88.414 431.026 89.506 429.766 90.122 428.072L89.058 427.596L88.792 427.666H86.916C87.14 427.372 87.336 427.064 87.518 426.742L85.894 426.448C85.292 427.526 84.158 428.688 82.394 429.5C82.716 429.738 83.206 430.298 83.43 430.648C83.78 430.466 84.102 430.256 84.41 430.06C84.83 430.34 85.306 430.718 85.656 431.054C84.802 431.558 83.822 431.936 82.786 432.174C83.08 432.496 83.472 433.112 83.64 433.49C84.55 433.224 85.418 432.888 86.216 432.454C85.544 433.462 84.438 434.456 82.856 435.198C83.192 435.45 83.654 435.996 83.864 436.36C84.214 436.164 84.55 435.968 84.872 435.758C85.348 436.066 85.852 436.458 86.244 436.822C85.194 437.466 83.92 437.886 82.52 438.138C82.814 438.474 83.178 439.132 83.346 439.552C86.888 438.754 89.618 437.074 90.738 433.448L89.674 433.028ZM95.736 436.612H98.27V435.436H95.736V434.89H98.214V430.564H95.736V430.018H98.424V431.11H99.698C99.6 433.616 99.264 435.618 98.172 437.13C97.36 437.2 96.534 437.27 95.736 437.326V436.612ZM93.132 433.854V433.224H94.224V433.854H93.132ZM96.828 433.224V433.854H95.736V433.224H96.828ZM95.736 432.23V431.614H96.828V432.23H95.736ZM93.132 431.614H94.224V432.23H93.132V431.614ZM101.322 429.584C101.35 428.66 101.35 427.68 101.35 426.658H99.754C99.754 427.694 99.754 428.66 99.74 429.584H98.424V428.814H95.736V428.128C96.646 428.03 97.514 427.904 98.256 427.75L97.528 426.504C95.988 426.84 93.566 427.078 91.494 427.19C91.648 427.512 91.802 428.03 91.858 428.366C92.614 428.352 93.412 428.31 94.224 428.254V428.814H91.466V430.018H94.224V430.564H91.816V434.89H94.224V435.436H91.76V436.612H94.224V437.452C93.146 437.522 92.166 437.592 91.382 437.648L91.578 439.048C93.09 438.922 95.106 438.712 97.122 438.502C97.486 438.81 97.892 439.272 98.102 439.608C100.454 437.746 101.098 434.862 101.28 431.11H102.54C102.456 435.632 102.316 437.34 102.022 437.718C101.896 437.9 101.756 437.956 101.546 437.956C101.28 437.956 100.748 437.942 100.132 437.886C100.412 438.348 100.594 439.02 100.622 439.482C101.294 439.496 101.938 439.51 102.358 439.426C102.82 439.328 103.142 439.188 103.464 438.726C103.912 438.082 104.024 436.052 104.15 430.326C104.15 430.13 104.164 429.584 104.164 429.584H101.322ZM115.77 431.068V432.286H114.216V431.068H115.77ZM111.122 431.068H112.592V432.286H111.122V431.068ZM112.592 429.794H109.582V433.546H111.85C111.094 434.47 109.918 435.31 108.77 435.786C109.12 436.08 109.582 436.654 109.82 437.046C110.828 436.528 111.822 435.674 112.592 434.708V437.27H114.216V434.806C115.028 435.702 116.022 436.514 116.946 437.004C117.198 436.598 117.716 436.024 118.066 435.702C116.918 435.24 115.63 434.414 114.79 433.546H117.394V429.794H114.216V429.038H117.87V427.652H114.216V426.448H112.592V427.652H109.148V429.038H112.592V429.794ZM108.882 428.87C108.406 428.212 107.384 427.344 106.544 426.756L105.312 427.764C106.138 428.38 107.132 429.304 107.566 429.976L108.882 428.87ZM108.532 431.866H105.298V433.392H106.908V436.346C106.292 436.822 105.592 437.284 104.99 437.634L105.802 439.37C106.572 438.782 107.188 438.236 107.804 437.69C108.714 438.782 109.862 439.174 111.584 439.244C113.25 439.314 116.064 439.286 117.744 439.202C117.828 438.726 118.08 437.914 118.262 437.522C116.4 437.662 113.25 437.704 111.612 437.634C110.156 437.578 109.106 437.2 108.532 436.262V431.866ZM121.538 429.178H131.632V427.694H126.662V426.448H124.926V427.694H119.942V431.614C119.942 433.658 119.858 436.57 118.696 438.558C119.074 438.726 119.774 439.188 120.054 439.468C121.328 437.312 121.538 433.882 121.538 431.614V429.178ZM127.894 431.67V432.594H125.346V431.67H127.894ZM129.546 433.854V431.67H131.562V430.354H129.546V429.43H127.894V430.354H125.346V429.43H123.778V430.354H121.888V431.67H123.778V433.854H129.546ZM128.412 435.716C127.95 436.164 127.376 436.556 126.732 436.864C126.074 436.542 125.514 436.164 125.094 435.716H128.412ZM129.826 434.344L129.532 434.414H121.986V435.716H124.072L123.414 435.954C123.862 436.556 124.408 437.074 125.024 437.508C123.918 437.83 122.686 438.026 121.398 438.138C121.65 438.488 121.944 439.118 122.07 439.538C123.736 439.328 125.304 438.992 126.676 438.446C127.894 438.992 129.322 439.356 130.932 439.552C131.142 439.118 131.576 438.474 131.912 438.124C130.652 438.012 129.49 437.816 128.468 437.522C129.476 436.85 130.302 435.982 130.862 434.862L129.826 434.344ZM137.484 426.868H133.256V428.128H137.484V426.868ZM138.016 428.744H132.542V430.06H138.016V428.744ZM137.512 432.608H133.2V433.854H137.512V432.608ZM142.86 433.938C142.524 434.652 142.09 435.282 141.544 435.828C140.984 435.268 140.522 434.638 140.186 433.938H142.86ZM136.056 437.466H134.572V435.856H136.056V437.466ZM143.91 432.37L143.63 432.44H138.702C140.158 431.446 140.438 429.85 140.438 428.534V428.296H142.006V429.99C142.006 431.376 142.328 431.81 143.448 431.81H144.26C145.198 431.81 145.562 431.32 145.702 429.584C145.296 429.472 144.652 429.234 144.344 428.996C144.33 430.214 144.274 430.396 144.092 430.396H143.742C143.588 430.396 143.56 430.354 143.56 429.962V426.826H138.87V428.492C138.87 429.43 138.716 430.536 137.512 431.362V430.69H133.2V431.964H137.512V431.432C137.848 431.656 138.436 432.16 138.674 432.44H138.198V433.938H140.144L138.716 434.4C139.15 435.31 139.682 436.122 140.326 436.822C139.5 437.368 138.548 437.76 137.498 438.026V434.54H133.158V439.314H134.572V438.768H137.498V438.054C137.806 438.432 138.198 439.09 138.366 439.496C139.556 439.132 140.634 438.628 141.572 437.97C142.454 438.628 143.476 439.146 144.652 439.496C144.89 439.062 145.366 438.404 145.73 438.054C144.652 437.788 143.672 437.382 142.846 436.85C143.812 435.8 144.554 434.47 145.002 432.776L143.91 432.37ZM148.46 429.43H157.07V431.348H158.792V427.848H153.668V426.448H151.904V427.848H146.822V431.348H148.46V429.43ZM153.654 435.534H157.504V433.966H153.654V432.216H156.65V430.634H148.95V432.216H151.932V437.158C151.106 436.752 150.448 436.08 150.028 434.96C150.154 434.4 150.252 433.812 150.336 433.182L148.6 433.014C148.348 435.408 147.662 437.34 146.15 438.46C146.542 438.712 147.242 439.3 147.522 439.594C148.32 438.908 148.936 438.012 149.384 436.948C150.672 438.936 152.59 439.356 155.166 439.356H158.666C158.75 438.866 159.016 438.068 159.254 437.662C158.316 437.704 156.006 437.704 155.25 437.704C154.69 437.704 154.158 437.676 153.654 437.62V435.534ZM163.93 436.094C164.154 436.99 164.294 438.194 164.252 438.95L165.68 438.782C165.68 437.998 165.54 436.822 165.274 435.926L163.93 436.094ZM166.03 435.968C166.324 436.752 166.632 437.802 166.716 438.488L168.046 438.138C167.948 437.48 167.626 436.444 167.304 435.674L166.03 435.968ZM169.026 430.2C168.942 430.578 168.858 430.942 168.774 431.264H166.072C166.282 430.914 166.464 430.564 166.646 430.2H169.026ZM169.95 432.692C169.88 433.084 169.796 433.448 169.712 433.784H164.294C164.602 433.434 164.882 433.07 165.162 432.692H169.95ZM172.764 433.784H171.21C171.406 433.028 171.588 432.09 171.742 431.264H170.286C170.468 430.494 170.678 429.528 170.846 428.702H167.318C167.556 428.086 167.78 427.456 167.976 426.826L166.268 426.434C166.072 427.19 165.82 427.96 165.498 428.702H163.748L164.84 428.254C164.56 427.736 163.972 426.966 163.468 426.434L161.97 427.022C162.404 427.526 162.88 428.198 163.146 428.702H160.416V430.2H164.784C163.65 432.286 161.998 434.106 159.758 435.24C160.052 435.618 160.458 436.276 160.654 436.696C161.13 436.43 161.592 436.15 162.012 435.842C161.76 436.864 161.312 437.886 160.64 438.544L161.928 439.454C162.754 438.586 163.174 437.284 163.454 436.08L162.25 435.674C162.446 435.534 162.642 435.366 162.838 435.212H171C170.832 436.892 170.636 437.648 170.398 437.886C170.258 438.026 170.118 438.04 169.894 438.04C169.614 438.054 169.026 438.04 168.424 437.984C168.676 438.404 168.858 439.034 168.886 439.496C169.6 439.524 170.258 439.524 170.664 439.468C171.126 439.412 171.448 439.3 171.784 438.936C172.232 438.474 172.484 437.256 172.722 434.428L172.764 433.784ZM170.174 437.158C170.034 436.64 169.656 435.884 169.278 435.31L168.13 435.702C168.48 436.29 168.83 437.102 168.956 437.592L170.174 437.158Z" fill="black"/>
<path d="M121.454 329.256V327.66H115.924V325.378H114.202V327.66H108.84V329.256H112.844C112.69 332.252 112.368 335.444 108.588 337.194C109.022 337.558 109.526 338.146 109.764 338.608C112.564 337.194 113.726 335.01 114.258 332.644H118.108C117.912 335.192 117.66 336.41 117.296 336.718C117.128 336.872 116.932 336.9 116.624 336.9C116.218 336.9 115.238 336.9 114.272 336.802C114.58 337.278 114.832 337.964 114.86 338.44C115.798 338.482 116.736 338.496 117.254 338.44C117.912 338.384 118.346 338.244 118.766 337.796C119.326 337.18 119.62 335.612 119.872 331.804C119.914 331.58 119.928 331.076 119.928 331.076H114.524C114.594 330.474 114.636 329.858 114.678 329.256H121.454ZM130.064 332.21V334.072H127.628V332.21H130.064ZM131.59 335.528V330.754H126.13V336.508H127.628V335.528H131.59ZM134.67 327.772H128.832C129.168 327.156 129.518 326.428 129.812 325.728L127.698 325.434C127.53 326.134 127.25 327.016 126.956 327.772H123.092V338.496H124.758V329.396H132.99V336.536C132.99 336.788 132.906 336.858 132.64 336.858C132.36 336.872 131.422 336.886 130.596 336.83C130.834 337.278 131.086 338.034 131.142 338.51C132.402 338.51 133.298 338.482 133.886 338.216C134.474 337.95 134.67 337.474 134.67 336.564V327.772Z" fill="black"/>
<path d="M184.15 334.38V333.47H186.488V334.38H184.15ZM186.488 331.37V332.238H184.15V331.37H186.488ZM188.098 329.97H182.568V338.426H184.15V335.598H186.488V336.844C186.488 337.012 186.432 337.068 186.264 337.068C186.082 337.082 185.522 337.082 185.004 337.054C185.214 337.432 185.452 338.048 185.536 338.468C186.39 338.468 187.034 338.44 187.482 338.202C187.958 337.964 188.098 337.572 188.098 336.858V329.97ZM192.088 336.648C192.088 336.844 192.018 336.9 191.794 336.9C191.556 336.914 190.828 336.914 190.114 336.886C190.366 337.32 190.632 338.006 190.716 338.454C191.724 338.468 192.48 338.426 193.012 338.174C193.572 337.908 193.726 337.502 193.726 336.676V329.718H192.088V336.648ZM190.828 330.11H189.302V335.822H190.828V330.11ZM191.626 327.506C191.976 327.016 192.354 326.47 192.69 325.924L190.884 325.392C190.604 326.036 190.156 326.862 189.736 327.506H185.844L186.614 327.24C186.376 326.708 185.816 325.952 185.312 325.42L183.73 325.966C184.122 326.428 184.528 327.03 184.78 327.506H181.798V329.004H194.468V327.506H191.626ZM203.484 329.718H201.664V328.836H203.484V329.718ZM203.484 331.986H201.664V331.062H203.484V331.986ZM203.484 334.282H201.664V333.33H203.484V334.282ZM200.054 335.682H208.09V334.282H205.066V333.33H207.418V331.986H205.066V331.062H207.474V329.718H205.066V328.836H207.852V327.436H205.374C205.626 326.96 205.878 326.442 206.13 325.938L204.296 325.588C204.156 326.134 203.946 326.82 203.708 327.436H202.112C202.378 326.946 202.616 326.456 202.826 325.952L201.174 325.476C200.53 327.142 199.368 328.752 198.08 329.732C198.43 330.04 199.046 330.712 199.298 331.048C199.55 330.824 199.802 330.586 200.054 330.32V335.682ZM198.962 328.01C198.514 327.338 197.548 326.414 196.764 325.784L195.49 326.736C196.274 327.408 197.198 328.374 197.59 329.06L198.962 328.01ZM198.584 330.866H195.434V332.392H197.002V335.444C196.442 335.92 195.812 336.382 195.266 336.732L196.05 338.384C196.764 337.782 197.338 337.25 197.898 336.704C198.738 337.782 199.858 338.188 201.524 338.258C203.232 338.328 206.2 338.3 207.936 338.216C208.02 337.754 208.258 336.984 208.454 336.592C206.522 336.746 203.218 336.788 201.538 336.718C200.11 336.662 199.13 336.27 198.584 335.332V330.866Z" fill="black"/>
<path d="M335.332 331.566C334.086 335.108 331.384 336.424 326.722 336.942C327.072 337.362 327.394 338.02 327.562 338.524C332.63 337.754 335.528 336.186 337.04 332.112L335.332 331.566ZM328.346 331.16C327.716 332.168 326.61 333.19 325.532 333.806C325.938 334.072 326.652 334.632 326.988 334.954C328.038 334.184 329.284 332.938 330.054 331.72L328.346 331.16ZM332.896 329.382V328.318H336.844V326.778H332.896V325.448H331.202V329.382H329.312V326.344H327.618V329.382H325.714V330.964H331.216V333.596C331.216 333.75 331.146 333.764 330.95 333.764C330.754 333.778 329.998 333.778 329.41 333.764C329.62 334.184 329.858 334.814 329.928 335.248C330.894 335.248 331.622 335.248 332.168 335.024C332.714 334.786 332.868 334.394 332.868 333.624V330.964H338.286V329.382H332.896Z" fill="black"/>
<path d="M152.841 337.081C152.079 337.769 150.921 337.769 150.159 337.081L145.396 332.776C144.037 331.549 144.906 329.292 146.737 329.292L156.263 329.292C158.094 329.292 158.963 331.549 157.604 332.776L152.841 337.081Z" fill="black"/>
<g clip-path="url(#clip0_483_516)">
<path d="M38 86.0007C50.1506 86.0007 60.0007 76.1506 60.0007 64C60.0007 51.8493 50.1506 41.9993 38 41.9993C25.8493 41.9993 15.9993 51.8493 15.9993 64C15.9993 76.1506 25.8493 86.0007 38 86.0007Z" fill="#FEA735"/>
<path d="M46.6571 62.4124L32.8641 62.2907L37.8624 56.5786C38.4399 55.9186 38.3729 54.9159 37.7128 54.3384C37.0531 53.7613 36.0497 53.8279 35.4726 54.4877L28.3459 62.6325C28.0001 62.9208 27.774 63.348 27.7694 63.8331C27.7694 63.8405 27.7715 63.8479 27.7715 63.8553C27.7641 64.2321 27.8883 64.6117 28.1487 64.9172L35.4595 73.496C35.7735 73.8643 36.2194 74.0538 36.6685 74.0538C37.0326 74.0538 37.3985 73.9292 37.6976 73.6745C38.3651 73.1058 38.4448 72.1035 37.8761 71.4364L32.7868 65.4654L46.6289 65.5875C46.6338 65.5875 46.6384 65.5875 46.6433 65.5875C47.5137 65.5875 48.2228 64.8858 48.2305 64.014C48.2383 63.1374 47.5341 62.4201 46.6571 62.4124Z" fill="black"/>
</g>
<rect x="17.5" y="103.5" width="340" height="40" rx="20" fill="#FCF5EF" stroke="#FEA735" stroke-width="3"/>
<path d="M43.3156 119.172V125.71H41.9016V119.172H43.3156ZM44.1556 126.578V118.318H41.0616V127.922H41.9016V126.578H44.1556ZM46.7456 120.096C46.7596 119.214 46.7736 118.29 46.7736 117.338H45.8636C45.8636 118.304 45.8636 119.228 45.8496 120.096H44.6596V121.034H45.8216C45.7236 124.716 45.3176 127.67 43.5536 129.448C43.7776 129.588 44.1136 129.896 44.2816 130.12C46.1856 128.132 46.6196 124.982 46.7316 121.034H47.9356C47.7816 126.396 47.6136 128.258 47.3056 128.678C47.1796 128.874 47.0816 128.902 46.8996 128.902C46.6896 128.902 46.2836 128.902 45.8356 128.86C45.9756 129.126 46.0736 129.518 46.0736 129.798C46.5356 129.84 46.9976 129.826 47.3056 129.798C47.6416 129.742 47.8796 129.63 48.1036 129.294C48.5236 128.692 48.6776 126.746 48.8596 120.586C48.8736 120.474 48.8736 120.096 48.8736 120.096H46.7456ZM50.2736 127.446V119.858H52.0096V127.446H50.2736ZM49.4196 118.92V129.56H50.2736V128.384H52.0096V129.448H52.9056V118.92H49.4196ZM57.7076 119.55V125.024H55.9576V119.55H57.7076ZM58.6456 125.976V118.584H55.0336V127.208H55.9576V125.976H58.6456ZM62.8876 124.73L62.3136 124.926C62.3416 124.492 62.3556 124.058 62.3556 123.61V117.408H61.3616V119.648H59.0236V120.614H61.3616V122.546H59.1216V123.498H61.3616V123.596C61.3616 124.156 61.3476 124.716 61.2776 125.276C60.2136 125.626 59.2056 125.948 58.4636 126.158L58.8696 127.096C59.5416 126.858 60.2976 126.578 61.0816 126.27C60.7736 127.502 60.0876 128.608 58.6736 129.448C58.9256 129.602 59.2756 129.924 59.4436 130.12C61.2216 129.042 61.9356 127.53 62.2156 125.836L63.0276 125.514L62.8876 124.73ZM67.3536 125.472H64.6096V123.498H67.0456V122.546H64.6096V120.614H67.2136V119.648H64.6096V117.38H63.6016V130.05H64.6096V126.438H67.3536V125.472Z" fill="black"/>
<g clip-path="url(#clip1_483_516)">
<path d="M337 86.0007C349.151 86.0007 359.001 76.1506 359.001 64C359.001 51.8493 349.151 41.9993 337 41.9993C324.849 41.9993 314.999 51.8493 314.999 64C314.999 76.1506 324.849 86.0007 337 86.0007Z" fill="#FEA735"/>
</g>
<path d="M328 65.826L333.043 71.5" stroke="black" stroke-width="3" stroke-linecap="round"/>
<path d="M333.043 71.5L346.913 57" stroke="black" stroke-width="3" stroke-linecap="round"/>
<path d="M17.5 200.5H357.5V513C357.5 525.979 346.979 536.5 334 536.5H41C28.0213 536.5 17.5 525.979 17.5 513V200.5Z" stroke="#FEA735" stroke-width="3"/>
<path opacity="0.35" d="M338.979 16.5026H355.469C356.666 16.5026 357.636 17.4726 357.636 18.6692V24.6692C357.636 25.8658 356.666 26.8359 355.469 26.8359H338.979C337.782 26.8359 336.812 25.8658 336.812 24.6692V18.6692C336.812 17.4726 337.782 16.5026 338.979 16.5026Z" stroke="black"/>
<path opacity="0.4" d="M359.128 19.6692V23.6692C359.926 23.3304 360.445 22.5423 360.445 21.6692C360.445 20.7961 359.926 20.008 359.128 19.6692" fill="black"/>
<path d="M338.296 19.3359C338.296 18.5995 338.893 18.0026 339.629 18.0026H354.819C355.555 18.0026 356.152 18.5995 356.152 19.3359V24.0026C356.152 24.7389 355.555 25.3359 354.819 25.3359H339.629C338.893 25.3359 338.296 24.7389 338.296 24.0026V19.3359Z" fill="black"/>
<path fill-rule="evenodd" clip-rule="evenodd" d="M323.744 18.2773C325.942 18.2774 328.056 19.1289 329.649 20.6557C329.769 20.7735 329.961 20.772 330.079 20.6523L331.226 19.4857C331.286 19.4249 331.319 19.3427 331.318 19.2571C331.318 19.1715 331.284 19.0897 331.223 19.0297C327.042 14.9901 320.445 14.9901 316.264 19.0297C316.203 19.0896 316.169 19.1715 316.168 19.257C316.168 19.3426 316.201 19.4249 316.261 19.4857L317.408 20.6523C317.526 20.7722 317.718 20.7737 317.838 20.6557C319.431 19.1288 321.545 18.2773 323.744 18.2773ZM323.744 22.073C324.952 22.0729 326.116 22.5255 327.011 23.3427C327.133 23.4587 327.323 23.4562 327.441 23.337L328.587 22.1704C328.647 22.1092 328.681 22.0261 328.68 21.9399C328.679 21.8536 328.644 21.7713 328.582 21.7114C325.856 19.155 321.634 19.155 318.908 21.7114C318.846 21.7713 318.811 21.8537 318.81 21.9399C318.809 22.0262 318.843 22.1092 318.903 22.1704L320.049 23.337C320.167 23.4562 320.357 23.4587 320.478 23.3427C321.373 22.526 322.537 22.0735 323.744 22.073ZM326.038 24.6268C326.04 24.7133 326.006 24.7967 325.945 24.8573L323.964 26.873C323.906 26.9323 323.826 26.9656 323.744 26.9656C323.661 26.9656 323.582 26.9323 323.524 26.873L321.542 24.8573C321.481 24.7967 321.447 24.7133 321.449 24.6268C321.451 24.5403 321.488 24.4583 321.552 24.4003C322.817 23.3215 324.67 23.3215 325.936 24.4003C325.999 24.4584 326.037 24.5403 326.038 24.6268Z" fill="black"/>
<path fill-rule="evenodd" clip-rule="evenodd" d="M312.189 16.3359H311.197C310.65 16.3359 310.205 16.7837 310.205 17.3359V26.0026C310.205 26.5549 310.65 27.0026 311.197 27.0026H312.189C312.737 27.0026 313.181 26.5549 313.181 26.0026V17.3359C313.181 16.7837 312.737 16.3359 312.189 16.3359ZM306.568 18.6693H307.56C308.108 18.6693 308.552 19.117 308.552 19.6693V26.0026C308.552 26.5549 308.108 27.0026 307.56 27.0026H306.568C306.02 27.0026 305.576 26.5549 305.576 26.0026V19.6693C305.576 19.117 306.02 18.6693 306.568 18.6693ZM302.931 21.0026H301.939C301.391 21.0026 300.947 21.4503 300.947 22.0026V26.0026C300.947 26.5549 301.391 27.0026 301.939 27.0026H302.931C303.479 27.0026 303.923 26.5549 303.923 26.0026V22.0026C303.923 21.4503 303.479 21.0026 302.931 21.0026ZM298.301 23.0026H297.309C296.762 23.0026 296.317 23.4503 296.317 24.0026V26.0026C296.317 26.5549 296.762 27.0026 297.309 27.0026H298.301C298.849 27.0026 299.293 26.5549 299.293 26.0026V24.0026C299.293 23.4503 298.849 23.0026 298.301 23.0026Z" fill="black"/>
<path d="M38.4455 22.8765C37.9133 23.355 37.3176 23.5942 36.6584 23.5942C35.6916 23.5942 34.925 23.2671 34.3586 22.6128C33.7922 21.9585 33.509 21.0845 33.509 19.9907C33.509 19.3071 33.6677 18.6724 33.9851 18.0864C34.3025 17.5005 34.7468 17.0366 35.3181 16.6948C35.8943 16.353 36.529 16.1821 37.2224 16.1821C37.9255 16.1821 38.5603 16.3604 39.1267 16.7168C39.698 17.0684 40.1423 17.5688 40.4597 18.2183C40.7771 18.8628 40.9406 19.6074 40.9504 20.4521V21.397C40.9504 22.5737 40.7185 23.5942 40.2546 24.4585C39.7956 25.3228 39.1389 25.9868 38.2844 26.4507C37.4299 26.9146 36.4338 27.1465 35.2961 27.1465H35.1423V25.1689L35.6111 25.1616C37.3103 25.0786 38.2551 24.3169 38.4455 22.8765ZM37.3249 21.8145C37.862 21.8145 38.2478 21.5825 38.4821 21.1187V20.0933C38.4821 19.4097 38.3674 18.9043 38.1379 18.5771C37.9084 18.25 37.5984 18.0864 37.2077 18.0864C36.8611 18.0864 36.5705 18.272 36.3361 18.6431C36.1018 19.0142 35.9846 19.4634 35.9846 19.9907C35.9846 20.5474 36.1042 20.9917 36.3435 21.3237C36.5827 21.6509 36.9099 21.8145 37.3249 21.8145ZM43.5435 24.605C43.9341 24.605 44.2588 24.7222 44.5176 24.9565C44.7764 25.186 44.9058 25.4814 44.9058 25.8428C44.9058 26.2041 44.7764 26.502 44.5176 26.7363C44.2588 26.9658 43.9341 27.0806 43.5435 27.0806C43.148 27.0806 42.8208 26.9634 42.562 26.729C42.3081 26.4946 42.1812 26.1992 42.1812 25.8428C42.1812 25.4863 42.3081 25.1909 42.562 24.9565C42.8208 24.7222 43.148 24.605 43.5435 24.605ZM43.5435 18.7603C43.9341 18.7603 44.2588 18.8774 44.5176 19.1118C44.7764 19.3413 44.9058 19.6367 44.9058 19.998C44.9058 20.3594 44.7764 20.6572 44.5176 20.8916C44.2588 21.1211 43.9341 21.2358 43.5435 21.2358C43.148 21.2358 42.8208 21.1187 42.562 20.8843C42.3081 20.6499 42.1812 20.3545 42.1812 19.998C42.1812 19.6416 42.3081 19.3462 42.562 19.1118C42.8208 18.8774 43.148 18.7603 43.5435 18.7603ZM51.6517 27H49.1761V19.1191L46.7444 19.8296V17.9546L51.4246 16.3359H51.6517V27ZM61.0856 22.8325H62.1695V24.7368H61.0856V27H58.6173V24.7368H54.4938L54.3473 23.228L58.6173 16.3579V16.3359H61.0856V22.8325ZM56.6984 22.8325H58.6173V19.5513L58.4635 19.8003L56.6984 22.8325Z" fill="black"/>
<defs>
<clipPath id="clip0_483_516">
<rect width="44" height="44" fill="white" transform="translate(16 42)"/>
</clipPath>
<clipPath id="clip1_483_516">
<rect width="44" height="44" fill="white" transform="translate(315 42)"/>
</clipPath>
</defs>
</svg>
