<svg width="375" height="812" viewBox="0 0 375 812" fill="none" xmlns="http://www.w3.org/2000/svg">
<g clip-path="url(#clip0_94_4)">
<rect width="375" height="812" rx="40" fill="#FEA735"/>
<rect x="121" y="799" width="134" height="5" rx="2.5" fill="black"/>
<path d="M312.64 641.16H305.008V642.624H310.864V644.64H305.368V646.056H310.864V648.168H297.28V646.056H302.536V644.64H297.28V642.744C299.272 642.36 301.48 641.76 303.16 641.112L301.816 639.888C300.52 640.464 298.384 641.112 296.392 641.568L295.528 641.4V649.632H312.64V641.16ZM305.392 652.2C306.424 652.752 307.624 653.568 308.2 654.192L309.136 653.088C308.536 652.488 307.288 651.696 306.304 651.216L305.392 652.2ZM305.272 655.776C306.28 656.4 307.504 657.336 308.104 658.008L309.088 656.904C308.464 656.256 307.24 655.368 306.184 654.792L305.272 655.776ZM298.48 652.176C299.464 652.68 300.64 653.496 301.168 654.12L302.152 653.016C301.552 652.416 300.376 651.672 299.392 651.192L298.48 652.176ZM298.264 655.728C299.248 656.304 300.352 657.144 300.904 657.792L301.864 656.712C301.312 656.064 300.184 655.272 299.2 654.744L298.264 655.728ZM297.76 650.52H296.08V659.448C295 659.592 293.992 659.736 293.176 659.832L293.44 661.416C295.576 661.08 298.48 660.648 301.264 660.216L301.168 658.68C300.016 658.872 298.864 659.04 297.76 659.208V650.52ZM304.552 650.568H302.896V659.688L301.456 659.88L301.696 661.44C303.904 661.056 306.928 660.576 309.784 660.12L309.736 658.632C307.936 658.92 306.16 659.208 304.552 659.424V650.568ZM309.736 650.52C309.832 658.056 310.552 661.968 313.048 661.968C314.248 661.968 314.848 661.392 315.04 658.968C314.632 658.824 314.104 658.512 313.792 658.2C313.696 659.856 313.552 660.288 313.168 660.288C312.064 660.288 311.416 657.336 311.488 650.52H309.736Z" fill="white"/>
<path d="M83.8209 99.8389C83.8209 99.8389 76.8017 76.3037 53.7207 62.1413C53.7207 62.1413 26.4694 74.1154 28.9881 103.638C28.9468 103.679 50.1698 92.6132 83.8209 99.8389Z" fill="#ECA368" stroke="black" stroke-width="2" stroke-miterlimit="10"/>
<path d="M131.102 147.12C131.102 147.12 154.637 154.139 168.799 177.22C168.799 177.22 156.825 204.471 127.303 201.953C127.303 201.953 138.41 180.771 131.102 147.12Z" fill="#ECA368" stroke="black" stroke-width="2" stroke-miterlimit="10"/>
<path d="M-106.213 232.14L13.28 112.647C13.28 112.647 59.6484 66.2783 113.077 118.304C113.077 118.304 162.46 169.09 118.693 216.326L-15.9268 356L-106.213 232.14Z" fill="#F1DBBD" stroke="black" stroke-width="2" stroke-miterlimit="10"/>
<path d="M45.3621 178.339L52.8355 185.812C57.4187 190.395 55.9323 196.919 50.3581 196.63L43.2563 196.3C39.086 196.093 35.0809 192.088 34.8744 187.918L34.5441 180.816C34.2551 175.159 40.7376 173.714 45.3621 178.339Z" fill="black" stroke="black" stroke-miterlimit="10"/>
<path d="M121.17 251.587C121.17 251.587 111.425 224.914 82.6877 217.234" stroke="black" stroke-width="2" stroke-miterlimit="10"/>
<path d="M97.676 277.476C97.676 277.476 96.2308 249.11 71.0441 233.337" stroke="black" stroke-width="2" stroke-miterlimit="10"/>
<path d="M-23.2618 107.155C-23.2618 107.155 3.41138 116.9 11.0913 145.637" stroke="black" stroke-width="2" stroke-miterlimit="10"/>
<path d="M82.7294 191.18C87.1989 195.649 94.4085 195.686 98.8324 191.262C103.256 186.839 103.219 179.629 98.7498 175.159C94.2803 170.69 87.0707 170.653 82.6468 175.077C78.2228 179.501 78.2598 186.71 82.7294 191.18Z" fill="black" stroke="black" stroke-miterlimit="10"/>
<path d="M37.7648 146.215C42.2343 150.685 49.4439 150.722 53.8678 146.298C58.2917 141.874 58.2547 134.664 53.7852 130.195C49.3157 125.725 42.1061 125.688 37.6822 130.112C33.2582 134.536 33.2952 141.746 37.7648 146.215Z" fill="black" stroke="black" stroke-miterlimit="10"/>
<path d="M54.7711 224.543C54.7711 224.543 19.4684 225.906 36.6037 195.062C37.0991 194.236 36.2733 193.245 35.4062 193.617C29.0063 196.383 4.64534 207.697 4.06728 176.564" stroke="black" stroke-width="2" stroke-miterlimit="10" stroke-linecap="round"/>
<path d="M49.544 489.68C50.864 488.456 51.656 486.392 52.16 484.616L50.672 484.064C50.216 485.792 49.376 487.688 48.104 488.816L49.544 489.68ZM53.912 484.76C54.296 486.104 54.512 487.904 54.464 489.032L56.048 488.792C56.048 487.664 55.832 485.888 55.4 484.544L53.912 484.76ZM57.8 484.664C58.376 485.888 58.832 487.496 58.952 488.48L60.44 488.096C60.296 487.112 59.768 485.528 59.192 484.328L57.8 484.664ZM64.592 471.152V472.904H53.096V471.152H64.592ZM53.096 475.952V474.128H64.592V475.952H53.096ZM69.704 480.2V478.88H53.096V477.272H66.344V469.832H59.024C59.36 469.304 59.696 468.68 59.984 468.08L57.944 467.792C57.776 468.368 57.464 469.16 57.152 469.832H51.344V483.248H67.256C66.992 486.488 66.68 487.808 66.32 488.216C66.128 488.384 65.912 488.408 65.504 488.408C65.12 488.408 64.04 488.408 62.936 488.336C63.152 488.72 63.344 489.368 63.368 489.776C64.544 489.872 65.672 489.872 66.272 489.824C66.896 489.776 67.328 489.632 67.736 489.224C68.336 488.576 68.672 486.896 68.984 482.576C69.008 482.36 69.032 481.88 69.032 481.88H53.096V480.2H69.704ZM64.616 486.872C64.304 486.056 63.56 484.784 62.84 483.824L61.568 484.328C62.264 485.264 63.008 486.584 63.296 487.424L64.616 486.872Z" fill="white"/>
<path d="M162.252 372.544C161.484 371.416 159.804 369.736 158.436 368.56L157.068 369.496C158.46 370.72 160.092 372.448 160.812 373.576L162.252 372.544ZM160.116 377.776C159.3 379.312 158.244 380.776 156.972 382.144C156.564 380.56 156.228 378.712 155.988 376.672H162.852V374.968H155.796C155.604 372.832 155.508 370.528 155.508 368.128H153.684C153.708 370.48 153.804 372.784 154.02 374.968H148.524V370.792C149.988 370.48 151.38 370.096 152.532 369.688L151.26 368.224C149.004 369.064 145.14 369.88 141.78 370.384C142.02 370.816 142.26 371.44 142.356 371.872C143.772 371.68 145.284 371.44 146.772 371.152V374.968H141.636V376.672H146.772V380.872C144.684 381.304 142.74 381.712 141.3 381.952L141.804 383.752C143.244 383.44 144.972 383.032 146.772 382.648V387.52C146.772 387.952 146.628 388.072 146.196 388.072C145.788 388.096 144.372 388.12 142.836 388.048C143.1 388.552 143.412 389.368 143.508 389.848C145.452 389.848 146.748 389.8 147.492 389.512C148.236 389.224 148.524 388.696 148.524 387.544V382.216C149.988 381.88 151.476 381.544 152.94 381.184L152.82 379.576C151.404 379.888 149.94 380.2 148.524 380.512V376.672H154.164C154.476 379.264 154.932 381.64 155.508 383.632C153.804 385.216 151.836 386.536 149.82 387.52C150.276 387.904 150.78 388.504 151.044 388.936C152.844 388 154.548 386.8 156.108 385.408C157.212 388.216 158.652 389.896 160.548 389.896C162.348 389.896 162.972 388.744 163.308 384.784C162.804 384.616 162.18 384.208 161.796 383.824C161.652 386.896 161.364 388.12 160.716 388.12C159.516 388.12 158.436 386.584 157.524 384.064C159.204 382.36 160.62 380.464 161.7 378.424L160.116 377.776ZM172.572 378.376H167.532V373.36H172.572V378.376ZM167.532 385.72V379.96H172.572V385.72H167.532ZM169.548 367.864C169.38 368.992 168.948 370.6 168.588 371.752H165.9V389.224H167.532V387.328H174.204V371.752H170.22C170.628 370.72 171.06 369.4 171.468 368.224L169.548 367.864ZM185.94 371.68H178.764C179.172 370.552 179.508 369.4 179.796 368.224L178.092 367.816C177.324 371.104 176.028 374.416 174.42 376.528C174.804 376.768 175.572 377.248 175.884 377.536C176.724 376.408 177.468 374.944 178.14 373.336H184.236C183.924 382.888 183.564 386.536 182.772 387.376C182.532 387.688 182.268 387.736 181.788 387.736C181.236 387.736 179.796 387.736 178.236 387.592C178.572 388.096 178.788 388.816 178.836 389.344C180.18 389.416 181.548 389.464 182.388 389.368C183.204 389.296 183.756 389.08 184.284 388.408C185.244 387.232 185.556 383.536 185.94 372.592V371.68ZM182.148 382.48C181.38 381.064 179.724 378.76 178.38 377.056L176.988 377.872C178.308 379.6 179.916 381.976 180.636 383.416L182.148 382.48ZM195.924 372.328L195.588 372.4H193.668V367.936H191.94V372.4H188.676V374.032H194.7C193.164 377.2 190.428 380.2 187.812 381.904C188.076 382.24 188.556 383.056 188.724 383.512C189.804 382.768 190.884 381.808 191.94 380.68V389.776H193.668V379.504C194.556 380.392 195.684 381.616 196.188 382.264L197.22 380.8C196.74 380.32 194.988 378.712 194.124 378.04C195.252 376.48 196.236 374.752 196.908 372.976L195.924 372.328ZM204.396 381.472V378.304H208.044V381.472H204.396ZM199.212 381.472V378.304H202.692V381.472H199.212ZM202.692 373.672V376.744H199.212V373.672H202.692ZM208.044 373.672V376.744H204.396V373.672H208.044ZM204.396 372.04V367.912H202.692V372.04H197.556V384.112H199.212V383.08H202.692V389.824H204.396V383.08H208.044V383.992H209.724V372.04H204.396ZM233.484 372.592C233.1 371.536 232.14 369.904 231.204 368.728L229.812 369.304C230.724 370.528 231.636 372.16 231.996 373.24L233.484 372.592ZM222.132 371.824H219.852V369.784H222.132V371.824ZM223.5 368.608H218.532V372.952H223.5V368.608ZM214.476 377.68H217.26V379.168H214.476V377.68ZM214.476 375.064H217.26V376.528H214.476V375.064ZM221.676 376.528H218.724V375.064H221.676V376.528ZM221.676 379.168H218.724V377.68H221.676V379.168ZM212.868 380.368H223.332V373.864H212.868V380.368ZM216.108 371.824H213.996V369.784H216.108V371.824ZM217.476 368.608H212.7V372.952H217.476V368.608ZM224.46 381.376H211.812V382.72H224.46V381.376ZM214.98 387.376V385.096H221.316V387.376H214.98ZM233.58 376.168V374.512H228.996V373.912V367.984H227.268V373.912V374.512H223.668V376.168H227.244C227.1 380.008 226.428 384.832 223.02 388.456V383.776H213.324V389.776H214.98V388.696H221.316V389.344H223.02V388.744C223.452 389.056 223.956 389.536 224.22 389.824C226.836 386.968 228.036 383.44 228.564 380.104C229.332 384.28 230.58 387.712 232.716 389.872C232.98 389.416 233.58 388.744 233.964 388.408C231.42 386.08 230.124 381.472 229.476 376.168H233.58Z" fill="white"/>
<path d="M-4.38456 501.5C-4.38456 501.5 -6.54704 456.088 17.4995 443.546C17.4995 443.546 43.1031 459.721 39.0377 501.5C39.0377 501.5 22.3435 494.667 -4.38456 501.5Z" fill="#D3AF7C" stroke="black" stroke-width="2" stroke-miterlimit="10"/>
<path d="M115 843.961C115 843.961 175.549 851.573 181.258 796.992C181.258 796.992 194.06 743.277 129.964 706.342C123.39 702.536 115 707.293 115 714.732V843.961Z" fill="#D3AF7C" stroke="black" stroke-width="2" stroke-miterlimit="10"/>
<path d="M-92.8719 840.889V590.562C-92.8719 590.562 -92.872 493.425 17.5866 491.954C17.5866 491.954 122.509 493.425 126.142 588.746L127.613 840.889H-92.8719Z" fill="#FCF5EF" stroke="black" stroke-width="2" stroke-miterlimit="10"/>
<path d="M71.3025 610.803C80.6658 610.803 88.2562 603.213 88.2562 593.849C88.2562 584.486 80.6658 576.896 71.3025 576.896C61.9392 576.896 54.3488 584.486 54.3488 593.849C54.3488 603.213 61.9392 610.803 71.3025 610.803Z" fill="black" stroke="black" stroke-miterlimit="10"/>
<path d="M93.0137 673.341C106.581 673.341 117.579 662.343 117.579 648.776C117.579 635.208 106.581 624.21 93.0137 624.21C79.4465 624.21 68.4481 635.208 68.4481 648.776C68.4481 662.343 79.4465 673.341 93.0137 673.341Z" fill="#D7B995"/>
<path d="M-35.3503 644.018L-0.837358 622.567C8.24498 616.858 22.7767 616.339 32.5511 621.269L68.7074 639.52C81.9417 646.181 80.0387 659.155 65.0745 664.605L30.2156 677.407C23.2957 679.915 14.9054 680.261 7.63949 678.358L-28.1709 668.757C-44.0866 664.518 -47.806 651.717 -35.3503 644.018Z" fill="#BB8682" stroke="black" stroke-width="2" stroke-miterlimit="10"/>
<path d="M-43 655.343C-43 655.343 16.2353 666.428 78 650" stroke="#040000" stroke-width="2" stroke-miterlimit="10"/>
<path d="M225.343 768.595C246.476 762.775 258.89 740.924 253.069 719.791C247.249 698.658 225.398 686.245 204.265 692.065C183.132 697.886 170.719 719.736 176.539 740.869C182.36 762.003 204.21 774.416 225.343 768.595Z" fill="#D9AE58" stroke="#040000" stroke-width="2" stroke-miterlimit="10"/>
<path d="M372.485 728.069C393.618 722.248 406.031 700.398 400.21 679.265C394.39 658.132 372.54 645.718 351.406 651.539C330.273 657.36 317.86 679.21 323.68 700.343C329.501 721.476 351.351 733.89 372.485 728.069Z" fill="#D9AE58" stroke="#040000" stroke-width="2" stroke-miterlimit="10"/>
<path d="M356.799 732.499C372.043 728.301 380.997 712.539 376.798 697.295C372.6 682.051 356.838 673.097 341.594 677.296C326.35 681.494 317.396 697.256 321.595 712.5C325.793 727.744 341.554 736.698 356.799 732.499Z" fill="#F4E2C2"/>
<path d="M237.806 762.806C253.05 758.607 262.004 742.846 257.806 727.602C253.607 712.358 237.846 703.404 222.602 707.602C207.358 711.801 198.404 727.562 202.602 742.806C206.801 758.05 222.562 767.004 237.806 762.806Z" fill="#F4E2C2"/>
<path d="M277.415 914.807L236.762 767.207C236.762 767.207 220.982 709.911 285.895 691.099C285.895 691.099 348.021 674.921 365.65 730.555L407.479 879.04L277.429 914.859L277.415 914.807Z" fill="#D9AE58" stroke="#040000" stroke-width="2" stroke-miterlimit="10"/>
<path d="M271.325 766.744C276.848 765.223 280.092 759.513 278.571 753.99C277.05 748.467 271.34 745.223 265.817 746.744C260.294 748.265 257.05 753.975 258.571 759.498C260.092 765.021 265.803 768.265 271.325 766.744Z" fill="black" stroke="black" stroke-miterlimit="10"/>
<path d="M336.886 748.687C342.409 747.166 345.653 741.456 344.132 735.933C342.611 730.41 336.9 727.166 331.378 728.687C325.855 730.208 322.611 735.919 324.132 741.441C325.653 746.964 331.363 750.208 336.886 748.687Z" fill="black" stroke="black" stroke-miterlimit="10"/>
<path d="M397.938 749.931C397.938 749.931 372.557 745.669 353.641 764.876" stroke="black" stroke-width="2" stroke-miterlimit="10"/>
<path d="M407.82 780.034C407.82 780.034 384.821 768.474 361.117 781.26" stroke="black" stroke-width="2" stroke-miterlimit="10"/>
<path d="M219.47 799.086C219.47 799.086 239.089 782.429 265.172 789.243" stroke="black" stroke-width="2" stroke-miterlimit="10"/>
<path d="M226.444 829.989C226.444 829.989 240.281 808.283 267.189 807.13" stroke="black" stroke-width="2" stroke-miterlimit="10"/>
<path d="M323.093 826.753C344.226 820.932 357.325 801.572 352.351 783.51C347.376 765.448 326.211 755.524 305.078 761.345C283.945 767.166 270.846 786.526 275.821 804.588C280.795 822.65 301.96 832.573 323.093 826.753Z" fill="#F1DFC0" stroke="#040000" stroke-width="2" stroke-miterlimit="10"/>
<path d="M303.915 775.059L313.149 772.515C318.812 770.956 323.288 775.047 320.565 779.31L317.125 784.759C315.096 787.952 310.147 789.316 306.768 787.611L301.024 784.692C296.502 782.425 298.251 776.619 303.915 775.059Z" fill="black" stroke="black" stroke-miterlimit="10"/>
<path d="M295.398 812.095L311.846 787.914L339.485 802.367" stroke="black" stroke-width="2" stroke-miterlimit="10" stroke-linecap="round"/>
<path d="M115.032 56.544C114.264 55.416 112.584 53.736 111.216 52.56L109.848 53.496C111.24 54.72 112.872 56.448 113.592 57.576L115.032 56.544ZM112.896 61.776C112.08 63.312 111.024 64.776 109.752 66.144C109.344 64.56 109.008 62.712 108.768 60.672H115.632V58.968H108.576C108.384 56.832 108.288 54.528 108.288 52.128H106.464C106.488 54.48 106.584 56.784 106.8 58.968H101.304V54.792C102.768 54.48 104.16 54.096 105.312 53.688L104.04 52.224C101.784 53.064 97.92 53.88 94.56 54.384C94.8 54.816 95.04 55.44 95.136 55.872C96.552 55.68 98.064 55.44 99.552 55.152V58.968H94.416V60.672H99.552V64.872C97.464 65.304 95.52 65.712 94.08 65.952L94.584 67.752C96.024 67.44 97.752 67.032 99.552 66.648V71.52C99.552 71.952 99.408 72.072 98.976 72.072C98.568 72.096 97.152 72.12 95.616 72.048C95.88 72.552 96.192 73.368 96.288 73.848C98.232 73.848 99.528 73.8 100.272 73.512C101.016 73.224 101.304 72.696 101.304 71.544V66.216C102.768 65.88 104.256 65.544 105.72 65.184L105.6 63.576C104.184 63.888 102.72 64.2 101.304 64.512V60.672H106.944C107.256 63.264 107.712 65.64 108.288 67.632C106.584 69.216 104.616 70.536 102.6 71.52C103.056 71.904 103.56 72.504 103.824 72.936C105.624 72 107.328 70.8 108.888 69.408C109.992 72.216 111.432 73.896 113.328 73.896C115.128 73.896 115.752 72.744 116.088 68.784C115.584 68.616 114.96 68.208 114.576 67.824C114.432 70.896 114.144 72.12 113.496 72.12C112.296 72.12 111.216 70.584 110.304 68.064C111.984 66.36 113.4 64.464 114.48 62.424L112.896 61.776ZM125.832 62.376H120.792V57.36H125.832V62.376ZM120.792 69.72V63.96H125.832V69.72H120.792ZM122.808 51.864C122.64 52.992 122.208 54.6 121.848 55.752H119.16V73.224H120.792V71.328H127.464V55.752H123.48C123.888 54.72 124.32 53.4 124.728 52.224L122.808 51.864ZM139.2 55.68H132.024C132.432 54.552 132.768 53.4 133.056 52.224L131.352 51.816C130.584 55.104 129.288 58.416 127.68 60.528C128.064 60.768 128.832 61.248 129.144 61.536C129.984 60.408 130.728 58.944 131.4 57.336H137.496C137.184 66.888 136.824 70.536 136.032 71.376C135.792 71.688 135.528 71.736 135.048 71.736C134.496 71.736 133.056 71.736 131.496 71.592C131.832 72.096 132.048 72.816 132.096 73.344C133.44 73.416 134.808 73.464 135.648 73.368C136.464 73.296 137.016 73.08 137.544 72.408C138.504 71.232 138.816 67.536 139.2 56.592V55.68ZM135.408 66.48C134.64 65.064 132.984 62.76 131.64 61.056L130.248 61.872C131.568 63.6 133.176 65.976 133.896 67.416L135.408 66.48ZM144.432 55.056H161.568V57.12H163.248V53.592H153.84V51.912H152.088V53.592H142.824V57.12H144.432V55.056ZM145.392 69.048V67.56H150.576V69.048H145.392ZM150.576 64.992V66.432H145.392V64.992H150.576ZM152.208 63.72H143.808V73.824H145.392V70.152H150.576V72.168C150.576 72.384 150.504 72.456 150.216 72.48C149.976 72.48 149.136 72.48 148.2 72.456C148.392 72.84 148.608 73.392 148.68 73.776C150 73.776 150.912 73.776 151.464 73.56C152.04 73.344 152.208 72.936 152.208 72.144V63.72ZM149.928 58.968C149.688 59.664 149.328 60.576 149.016 61.2H146.664C146.544 60.6 146.28 59.688 145.944 58.968H149.928ZM150.888 58.968H153.192V57.648H148.752V56.016H147.192V57.648H142.896V58.968H144.888L144.408 59.064C144.696 59.712 144.984 60.552 145.104 61.2H142.368V62.568H153.576V61.2H150.576C150.864 60.6 151.2 59.88 151.512 59.136L150.888 58.968ZM157.44 72.336C156.312 72.336 156.12 72.168 156.12 71.448V70.776H162.504C162.408 72.096 162.24 72.336 161.472 72.336H157.44ZM162.888 70.776V69.72H156.12V68.568H162.12V67.512H156.12V66.36H162.24V65.304H156.12V64.152H162.744V60.264H156.12V58.968H163.008V57.744H156.12V56.208H154.512V61.44H161.088V62.976H154.512V71.472C154.512 73.296 155.136 73.704 157.296 73.704H161.616C163.296 73.704 163.8 73.152 163.992 71.184C163.632 71.088 163.2 70.944 162.84 70.776H162.888ZM175.056 64.152L174.816 62.568L172.032 63.432V58.536H174.48V56.808H172.032V51.936H170.376V56.808H168.528C168.696 55.752 168.864 54.648 168.984 53.568L167.424 53.304C167.136 56.232 166.68 59.256 165.768 61.296C166.152 61.44 166.824 61.872 167.136 62.088C167.568 61.104 167.904 59.88 168.192 58.536H170.376V63.888C168.696 64.416 167.16 64.824 165.936 65.16L166.416 66.864C167.592 66.504 168.96 66.072 170.376 65.64V73.848H172.032V65.112L175.056 64.152ZM178.392 55.92C178.8 54.744 179.16 53.52 179.448 52.248L177.816 51.912C177.024 55.536 175.584 58.992 173.616 61.128C173.976 61.368 174.696 61.872 174.984 62.16C176.016 60.936 176.928 59.352 177.72 57.6H179.784C178.68 61.44 176.544 65.448 174 67.44C174.504 67.704 175.08 68.112 175.416 68.472C178.032 66.192 180.24 61.704 181.32 57.6H183.288C182.04 63.624 179.448 69.528 175.512 72.36C176.04 72.624 176.664 73.056 177 73.44C180.984 70.272 183.624 63.888 184.824 57.6H185.976C185.496 67.104 184.968 70.656 184.2 71.496C183.936 71.808 183.696 71.904 183.312 71.904C182.832 71.904 181.872 71.88 180.792 71.784C181.104 72.264 181.272 73.008 181.296 73.536C182.352 73.608 183.384 73.632 184.032 73.536C184.752 73.464 185.232 73.248 185.688 72.624C186.648 71.424 187.176 67.704 187.704 56.832C187.728 56.616 187.728 55.92 187.728 55.92H178.392ZM207.144 56.208H194.736V54.264H207.144V56.208ZM207.144 59.448H194.736V57.504H207.144V59.448ZM208.92 52.896H192.984V60.816H208.92V52.896ZM202.08 68.28H210V66.696H202.08V64.032H211.56V62.424H190.488V64.032H200.328V71.256C198.264 70.704 196.728 69.6 195.792 67.44C196.032 66.672 196.248 65.88 196.416 65.04L194.616 64.8C193.968 68.304 192.456 70.992 189.96 72.6C190.344 72.888 191.04 73.56 191.28 73.872C192.84 72.72 194.088 71.232 195.024 69.36C196.968 72.6 200.016 73.368 204.84 73.368H211.368C211.464 72.84 211.752 72.072 211.992 71.664C210.768 71.688 205.8 71.688 204.912 71.688C203.904 71.688 202.944 71.64 202.08 71.544V68.28ZM218.616 55.2V66.192H216.24V55.2H218.616ZM220.08 67.776V53.592H214.8V69.744H216.24V67.776H220.08ZM224.184 64.416C224.352 62.928 224.4 61.512 224.4 60.264H226.392C226.368 61.848 226.368 63.216 226.344 64.416H224.184ZM224.4 54.648H226.416L226.392 58.728H224.4V54.648ZM228.672 60.264V58.728H227.88L227.904 54V53.088H220.824V54.648H222.912V58.728H221.112V60.264H222.912C222.912 61.536 222.864 62.952 222.696 64.416H220.92V65.976H222.48C222.024 68.376 221.136 70.776 219.432 72.768C219.744 72.984 220.32 73.56 220.512 73.872C222.456 71.64 223.464 68.784 223.944 65.976H226.32C226.248 69.72 226.104 71.304 225.864 71.76C225.672 72.168 225.528 72.24 225.216 72.216C224.808 72.216 224.064 72.216 223.224 72.168C223.464 72.6 223.608 73.296 223.632 73.752C224.472 73.8 225.288 73.8 225.864 73.704C226.488 73.632 226.872 73.464 227.232 72.792C227.616 72.168 227.76 70.344 227.832 65.976H228.696V64.416H227.856C227.856 63.192 227.88 61.824 227.88 60.264H228.672ZM234.648 53.016L234.408 53.088H229.488V73.824H231.024V54.6H233.856C233.4 56.496 232.68 59.184 232.008 61.248C233.64 63.384 233.976 65.256 233.976 66.72C233.976 67.608 233.88 68.4 233.568 68.688C233.352 68.856 233.112 68.904 232.824 68.904C232.536 68.928 232.104 68.928 231.648 68.88C231.888 69.336 232.008 70.008 232.032 70.416C232.512 70.464 233.016 70.44 233.424 70.392C233.88 70.32 234.312 70.2 234.6 69.96C235.248 69.456 235.488 68.328 235.488 66.936C235.464 65.256 235.104 63.312 233.448 61.08C234.216 58.896 235.08 55.944 235.752 53.664L234.648 53.016ZM247.152 65.064C246.672 64.512 244.632 62.4 243.888 61.776V60.312H246.888V58.632H243.888V54.576C245.016 54.312 246.072 53.976 246.936 53.616L245.688 52.272C243.936 53.064 240.792 53.76 238.104 54.192C238.32 54.6 238.56 55.176 238.656 55.584C239.76 55.416 240.984 55.224 242.16 54.984V58.632H238.248V60.312H241.92C240.96 63.048 239.304 66.144 237.792 67.824C238.08 68.256 238.512 68.952 238.68 69.456C239.904 67.992 241.176 65.592 242.16 63.168V73.776H243.888V63.504C244.704 64.488 245.688 65.808 246.072 66.48L247.152 65.064ZM249 65.496V63.576H252.36V65.496H249ZM249 60.528H252.36V62.4H249V60.528ZM257.52 60.528V62.4H254.064V60.528H257.52ZM257.52 65.496H254.064V63.576H257.52V65.496ZM254.064 71.856V69.984H259.248V68.544H254.064V66.84H259.128V59.184H254.064V57.576H259.608V56.112H254.064V54.36C256.128 54.168 258.048 53.904 259.56 53.568L258.48 52.224C255.792 52.824 250.824 53.232 246.84 53.4C247.008 53.736 247.224 54.36 247.248 54.744C248.856 54.696 250.632 54.624 252.36 54.504V56.112H246.408V57.576H252.36V59.184H247.416V66.84H252.36V68.544H247.152V69.984H252.36V71.856H245.784V73.344H260.064V71.856H254.064ZM271.68 66.192H273.648C273 62.592 278.736 61.848 278.736 58.224C278.736 55.464 276.576 53.736 273.192 53.736C270.576 53.736 268.704 54.84 267.12 56.52L268.416 57.72C269.808 56.256 271.32 55.536 272.952 55.536C275.4 55.536 276.6 56.736 276.6 58.392C276.6 61.128 270.936 62.208 271.68 66.192ZM272.712 72.12C273.552 72.12 274.248 71.496 274.248 70.536C274.248 69.576 273.552 68.928 272.712 68.928C271.848 68.928 271.152 69.576 271.152 70.536C271.152 71.496 271.848 72.12 272.712 72.12Z" fill="black"/>
<path d="M252.06 403.741C252.06 403.741 247.863 393.559 251.832 383.536C251.832 383.536 256.858 368.695 266.487 375.578C266.487 375.578 280.026 387.927 277.552 402.853C277.552 402.853 260.671 399.046 252.06 403.741Z" fill="#FCF5EF" stroke="black" stroke-width="2" stroke-miterlimit="10"/>
<path d="M356.162 597.963L234.279 514.868C234.279 514.868 196.721 488.153 210.874 424.542C210.874 424.542 151.022 490.694 204.808 522.526C204.808 522.526 186.945 572.533 240.149 564.888C240.149 564.888 234.982 612.984 282.777 596.56C282.777 596.56 296.496 643.656 344.385 611.129C344.385 611.129 351.331 606.636 356.162 597.963Z" fill="#DBA8CC" stroke="#040000" stroke-width="2" stroke-miterlimit="10"/>
<path d="M204.497 476.466C204.497 476.466 193.487 476.278 185.606 483.636C185.606 483.636 173.628 493.736 183.553 500.185C183.553 500.185 199.996 508.276 212.985 500.519C212.985 500.519 203.273 486.197 204.497 476.466Z" fill="#FCF5EF" stroke="black" stroke-width="2" stroke-miterlimit="10"/>
<path d="M396.501 633.5L226.569 519.477C226.569 519.477 177.772 486.209 214.864 430.217C214.864 430.217 251.536 378.013 300.665 408.834L427.831 494.45" fill="#FCF5EF" stroke="black" stroke-width="2" stroke-miterlimit="10"/>
<path d="M254.94 499.803C258.146 495.099 256.933 488.686 252.229 485.48C247.526 482.273 241.113 483.486 237.906 488.19C234.7 492.894 235.913 499.306 240.617 502.513C245.32 505.72 251.733 504.506 254.94 499.803Z" fill="black" stroke="black" stroke-miterlimit="10"/>
<path d="M293.007 443.967C296.213 439.263 295 432.851 290.296 429.644C285.593 426.437 279.18 427.651 275.973 432.354C272.767 437.058 273.98 443.47 278.684 446.677C283.387 449.884 289.8 448.67 293.007 443.967Z" fill="black" stroke="black" stroke-miterlimit="10"/>
<path d="M209.127 448.901C215.226 447.331 233.98 440.641 229.984 418.121C229.79 417.098 228.996 416.302 228.037 416.03L185.241 404.675C182.928 404.053 181.093 406.557 182.312 408.597L206.251 447.704C206.853 448.688 208.001 449.152 209.127 448.901Z" fill="#E73483" stroke="#040000" stroke-width="2" stroke-miterlimit="10"/>
<path d="M371.159 487.764C383.01 454.79 350.484 450.31 350.484 450.31C305.722 440.16 284.282 476.462 284.282 476.462C260.954 510.586 281.976 546.877 281.976 546.877C304.615 581.915 328.956 551.346 328.956 551.346C328.956 551.346 362.702 511.278 371.159 487.764Z" fill="#FCF5EF" stroke="black" stroke-width="2" stroke-miterlimit="10"/>
<path d="M295.173 499.418C296.498 497.474 295.997 494.824 294.053 493.498C292.109 492.173 289.459 492.675 288.134 494.618C286.809 496.562 287.31 499.212 289.254 500.538C291.198 501.863 293.848 501.361 295.173 499.418Z" fill="#DBA8CC"/>
<path d="M309.721 477.893C311.046 475.949 310.544 473.299 308.601 471.974C306.657 470.649 304.007 471.15 302.681 473.094C301.356 475.038 301.858 477.688 303.801 479.013C305.745 480.339 308.395 479.837 309.721 477.893Z" fill="#DBA8CC"/>
<path d="M312.179 522.087C312.179 522.087 342.932 514.602 335.76 487.499" stroke="#040000" stroke-width="2" stroke-miterlimit="10" stroke-linecap="round"/>
<path d="M55.256 300.96C53.552 302.112 50.456 303.264 47.72 303.912C48.032 304.224 48.392 304.8 48.608 305.136C51.392 304.44 54.464 303.336 56.288 302.016L55.256 300.96ZM54.632 306.48C54.416 305.832 53.84 304.824 53.288 304.056L52.136 304.608C52.64 305.376 53.216 306.408 53.408 307.104L54.632 306.48ZM51.704 308.088C51.44 307.296 50.744 306.12 50.048 305.256L48.848 305.832C49.472 306.72 50.168 307.944 50.432 308.736L51.704 308.088ZM56.048 305.328C54.248 307.248 51.032 309.216 47.888 310.464C48.224 310.752 48.632 311.256 48.848 311.616C50.12 311.088 51.416 310.464 52.616 309.768C52.952 310.224 53.24 310.68 53.504 311.184C52.136 312.48 49.784 313.896 47.984 314.64C48.32 314.952 48.728 315.528 48.92 315.912C50.528 315.096 52.592 313.728 54.056 312.432C54.272 313.08 54.44 313.704 54.56 314.352C53 316.224 50.12 318.264 47.816 319.224C48.152 319.56 48.56 320.16 48.752 320.52C50.744 319.512 53.096 317.808 54.8 316.08C54.944 318.336 54.536 320.256 53.888 320.832C53.48 321.288 53.072 321.336 52.496 321.336C52.088 321.336 51.344 321.312 50.552 321.24C50.816 321.672 50.936 322.32 50.96 322.776C51.632 322.8 52.4 322.824 52.856 322.824C53.864 322.8 54.512 322.584 55.16 321.912C56.936 320.304 57.176 313.248 53.816 309.048C55.112 308.208 56.288 307.272 57.2 306.312L56.048 305.328ZM62.72 311.064V314.544H59.624V311.064H62.72ZM67.424 314.544H64.28V311.064H67.424V314.544ZM64.28 319.776V316.08H67.424V319.776H64.28ZM59.624 319.776V316.08H62.72V319.776H59.624ZM58.016 322.776H59.624V321.336H67.424V322.68H69.08V309.504H58.016V322.776ZM66.968 303.84V301.152H65.36V303.84H61.712V301.152H60.08V303.84H57.128V305.472H60.08V308.736H61.712V305.472H65.36V308.736H66.968V305.472H69.8V303.84H66.968Z" fill="white"/>
<path d="M299.152 95.056C298.672 95.992 298 96.952 297.256 97.888C296.56 96.952 295.696 96.016 294.592 95.104L293.344 96.088C294.544 97.096 295.432 98.152 296.128 99.232C295.144 100.288 294.064 101.272 292.984 102.064C293.368 102.352 293.944 102.88 294.208 103.24C295.144 102.52 296.08 101.68 296.944 100.792C297.4 101.8 297.664 102.856 297.832 103.96C296.752 106.168 294.808 108.52 293.08 109.744C293.512 110.08 294.016 110.656 294.304 111.112C295.6 110.056 296.968 108.4 298.072 106.672C298.096 107.056 298.096 107.44 298.096 107.8C298.096 110.992 297.856 113.8 297.232 114.64C297.04 114.904 296.8 115.024 296.416 115.072C295.84 115.144 294.88 115.144 293.68 115.072C293.992 115.576 294.184 116.224 294.184 116.824C295.264 116.872 296.296 116.872 297.16 116.704C297.736 116.608 298.216 116.32 298.552 115.888C299.56 114.544 299.824 111.352 299.824 107.824C299.824 104.92 299.584 102.088 298.192 99.448C299.176 98.296 300.064 97.096 300.76 95.896L299.152 95.056ZM307.96 104.584V109.432H304.264V104.584H307.96ZM309.568 110.992V103.024H302.632V112.744H304.264V110.992H309.568ZM304.72 98.464C305.152 97.456 305.536 96.4 305.848 95.344L304.144 94.936C303.232 98.128 301.696 101.32 299.848 103.36C300.256 103.624 300.952 104.128 301.264 104.44C302.248 103.264 303.184 101.776 304 100.12H312.472C312.184 110.2 311.8 113.872 311.128 114.688C310.864 115.024 310.6 115.096 310.216 115.072C309.688 115.072 308.464 115.072 307.144 114.976C307.456 115.456 307.624 116.224 307.672 116.752C308.896 116.824 310.168 116.848 310.912 116.776C311.704 116.68 312.208 116.464 312.712 115.768C313.6 114.616 313.888 110.8 314.224 99.424C314.224 99.16 314.248 98.464 314.248 98.464H304.72Z" fill="white"/>
<path d="M321.344 147.169C321.344 147.169 335.879 124.69 365.922 132.76C365.922 132.76 409.105 146.958 401.33 176.789C401.33 176.789 393.598 196.775 372.598 187.099C372.555 187.141 347.499 159.38 321.344 147.169Z" fill="#6A4B2E" stroke="black" stroke-width="2" stroke-miterlimit="10"/>
<path d="M231.169 237.344C231.169 237.344 208.69 251.879 216.76 281.922C216.76 281.922 230.958 325.105 260.789 317.33C260.789 317.33 280.775 309.598 271.099 288.598C271.141 288.555 243.38 263.499 231.169 237.344Z" fill="#6A4B2E" stroke="black" stroke-width="2" stroke-miterlimit="10"/>
<path d="M375.5 400.5L249.496 273.131C249.496 273.131 202.045 225.68 255.285 171.003C255.285 171.003 307.257 120.468 355.596 165.257L479.484 287.708L375.5 400.5Z" fill="#906526" stroke="black" stroke-width="2" stroke-miterlimit="10"/>
<path d="M283.172 253.399C287.746 248.825 287.746 241.409 283.172 236.835C278.598 232.261 271.183 232.261 266.609 236.835C262.035 241.409 262.035 248.825 266.609 253.399C271.183 257.973 278.598 257.973 283.172 253.399Z" fill="black" stroke="black" stroke-miterlimit="10"/>
<path d="M337.469 199.102C342.043 194.528 342.043 187.112 337.469 182.538C332.895 177.965 325.479 177.965 320.905 182.538C316.331 187.112 316.331 194.528 320.905 199.102C325.479 203.676 332.895 203.676 337.469 199.102Z" fill="black" stroke="black" stroke-miterlimit="10"/>
<path d="M308.061 234.003L318.117 223.947C324.328 217.736 333.117 219.764 332.737 227.243L332.272 236.834C332.018 242.412 326.568 247.863 320.99 248.116L311.399 248.581C303.835 248.961 301.849 240.215 308.061 234.003Z" fill="black" stroke="black" stroke-miterlimit="10"/>
<path d="M326.127 278.127L328.789 245.211L363.986 243.986" stroke="black" stroke-width="2" stroke-miterlimit="10" stroke-linecap="round"/>
<path d="M284.779 151.735C287.145 150.721 288.666 148.355 288.412 145.82C287.694 138.848 286.173 129.468 272.102 134.242C269.44 135.13 266.483 134.116 264.919 131.792C262.384 127.989 256.933 124.735 246.159 135.763C244.299 137.707 241.384 138.172 239.018 136.904C233.736 134.073 225.032 131.623 225.665 146.792C225.792 149.116 224.567 151.355 222.454 152.369C217.13 154.989 208.468 160.778 215.313 168.045C217.215 170.031 217.299 173.158 215.694 175.44C212.651 179.834 209.482 186.215 215.313 188.412C217.384 189.215 218.82 191.158 218.989 193.355C219.412 199.186 221.313 208.018 234.074 202.947C234.116 202.989 246.201 168.088 284.779 151.735Z" fill="#6A4B2E" stroke="black" stroke-width="2" stroke-miterlimit="10"/>
<path opacity="0.35" d="M338.979 16.5026H355.469C356.666 16.5026 357.636 17.4726 357.636 18.6692V24.6692C357.636 25.8658 356.666 26.8359 355.469 26.8359H338.979C337.782 26.8359 336.812 25.8658 336.812 24.6692V18.6692C336.812 17.4726 337.782 16.5026 338.979 16.5026Z" stroke="black"/>
<path opacity="0.4" d="M359.128 19.6692V23.6692C359.926 23.3304 360.445 22.5423 360.445 21.6692C360.445 20.7961 359.926 20.008 359.128 19.6692" fill="black"/>
<path d="M338.296 19.3359C338.296 18.5995 338.893 18.0026 339.629 18.0026H354.819C355.555 18.0026 356.152 18.5995 356.152 19.3359V24.0026C356.152 24.7389 355.555 25.3359 354.819 25.3359H339.629C338.893 25.3359 338.296 24.7389 338.296 24.0026V19.3359Z" fill="black"/>
<path fill-rule="evenodd" clip-rule="evenodd" d="M323.744 18.2773C325.942 18.2774 328.056 19.1289 329.649 20.6557C329.769 20.7735 329.961 20.772 330.079 20.6523L331.226 19.4857C331.286 19.4249 331.319 19.3427 331.318 19.2571C331.318 19.1715 331.284 19.0897 331.223 19.0297C327.042 14.9901 320.445 14.9901 316.264 19.0297C316.203 19.0896 316.169 19.1715 316.168 19.257C316.168 19.3426 316.201 19.4249 316.261 19.4857L317.408 20.6523C317.526 20.7722 317.718 20.7737 317.838 20.6557C319.431 19.1288 321.545 18.2773 323.744 18.2773ZM323.744 22.073C324.951 22.0729 326.116 22.5255 327.011 23.3427C327.132 23.4587 327.323 23.4562 327.441 23.337L328.587 22.1704C328.647 22.1092 328.68 22.0261 328.68 21.9399C328.679 21.8536 328.644 21.7713 328.582 21.7114C325.856 19.155 321.634 19.155 318.908 21.7114C318.846 21.7713 318.811 21.8537 318.81 21.9399C318.809 22.0262 318.843 22.1092 318.903 22.1704L320.049 23.337C320.167 23.4562 320.357 23.4587 320.478 23.3427C321.373 22.526 322.537 22.0735 323.744 22.073ZM326.038 24.6268C326.04 24.7133 326.006 24.7967 325.945 24.8573L323.964 26.873C323.906 26.9323 323.826 26.9656 323.744 26.9656C323.661 26.9656 323.582 26.9323 323.524 26.873L321.542 24.8573C321.481 24.7967 321.447 24.7133 321.449 24.6268C321.451 24.5403 321.488 24.4583 321.552 24.4003C322.817 23.3215 324.67 23.3215 325.936 24.4003C325.999 24.4584 326.037 24.5403 326.038 24.6268Z" fill="black"/>
<path fill-rule="evenodd" clip-rule="evenodd" d="M312.189 16.3359H311.197C310.65 16.3359 310.205 16.7837 310.205 17.3359V26.0026C310.205 26.5549 310.65 27.0026 311.197 27.0026H312.189C312.737 27.0026 313.181 26.5549 313.181 26.0026V17.3359C313.181 16.7837 312.737 16.3359 312.189 16.3359ZM306.568 18.6693H307.56C308.108 18.6693 308.552 19.117 308.552 19.6693V26.0026C308.552 26.5549 308.108 27.0026 307.56 27.0026H306.568C306.02 27.0026 305.576 26.5549 305.576 26.0026V19.6693C305.576 19.117 306.02 18.6693 306.568 18.6693ZM302.931 21.0026H301.939C301.391 21.0026 300.947 21.4503 300.947 22.0026V26.0026C300.947 26.5549 301.391 27.0026 301.939 27.0026H302.931C303.479 27.0026 303.923 26.5549 303.923 26.0026V22.0026C303.923 21.4503 303.479 21.0026 302.931 21.0026ZM298.301 23.0026H297.309C296.762 23.0026 296.317 23.4503 296.317 24.0026V26.0026C296.317 26.5549 296.762 27.0026 297.309 27.0026H298.301C298.849 27.0026 299.293 26.5549 299.293 26.0026V24.0026C299.293 23.4503 298.849 23.0026 298.301 23.0026Z" fill="black"/>
<path d="M38.4455 22.8765C37.9133 23.355 37.3176 23.5942 36.6584 23.5942C35.6916 23.5942 34.925 23.2671 34.3586 22.6128C33.7922 21.9585 33.509 21.0845 33.509 19.9907C33.509 19.3071 33.6677 18.6724 33.9851 18.0864C34.3025 17.5005 34.7468 17.0366 35.3181 16.6948C35.8943 16.353 36.529 16.1821 37.2224 16.1821C37.9255 16.1821 38.5603 16.3604 39.1267 16.7168C39.698 17.0684 40.1423 17.5688 40.4597 18.2183C40.7771 18.8628 40.9406 19.6074 40.9504 20.4521V21.397C40.9504 22.5737 40.7185 23.5942 40.2546 24.4585C39.7956 25.3228 39.1389 25.9868 38.2844 26.4507C37.4299 26.9146 36.4338 27.1465 35.2961 27.1465H35.1423V25.1689L35.6111 25.1616C37.3103 25.0786 38.2551 24.3169 38.4455 22.8765ZM37.3249 21.8145C37.862 21.8145 38.2478 21.5825 38.4821 21.1187V20.0933C38.4821 19.4097 38.3674 18.9043 38.1379 18.5771C37.9084 18.25 37.5984 18.0864 37.2077 18.0864C36.8611 18.0864 36.5705 18.272 36.3361 18.6431C36.1018 19.0142 35.9846 19.4634 35.9846 19.9907C35.9846 20.5474 36.1042 20.9917 36.3435 21.3237C36.5827 21.6509 36.9099 21.8145 37.3249 21.8145ZM43.5435 24.605C43.9341 24.605 44.2588 24.7222 44.5176 24.9565C44.7764 25.186 44.9058 25.4814 44.9058 25.8428C44.9058 26.2041 44.7764 26.502 44.5176 26.7363C44.2588 26.9658 43.9341 27.0806 43.5435 27.0806C43.148 27.0806 42.8208 26.9634 42.562 26.729C42.3081 26.4946 42.1812 26.1992 42.1812 25.8428C42.1812 25.4863 42.3081 25.1909 42.562 24.9565C42.8208 24.7222 43.148 24.605 43.5435 24.605ZM43.5435 18.7603C43.9341 18.7603 44.2588 18.8774 44.5176 19.1118C44.7764 19.3413 44.9058 19.6367 44.9058 19.998C44.9058 20.3594 44.7764 20.6572 44.5176 20.8916C44.2588 21.1211 43.9341 21.2358 43.5435 21.2358C43.148 21.2358 42.8208 21.1187 42.562 20.8843C42.3081 20.6499 42.1812 20.3545 42.1812 19.998C42.1812 19.6416 42.3081 19.3462 42.562 19.1118C42.8208 18.8774 43.148 18.7603 43.5435 18.7603ZM51.6517 27H49.1761V19.1191L46.7444 19.8296V17.9546L51.4246 16.3359H51.6517V27ZM61.0856 22.8325H62.1695V24.7368H61.0856V27H58.6173V24.7368H54.4938L54.3473 23.228L58.6173 16.3579V16.3359H61.0856V22.8325ZM56.6984 22.8325H58.6173V19.5513L58.4635 19.8003L56.6984 22.8325Z" fill="black"/>
</g>
<defs>
<clipPath id="clip0_94_4">
<rect width="375" height="812" rx="40" fill="white"/>
</clipPath>
</defs>
</svg>
