<svg width="44" height="44" viewBox="0 0 44 44" fill="none" xmlns="http://www.w3.org/2000/svg">
<g clip-path="url(#clip0_449_309)">
<path d="M22 44.0007C34.1506 44.0007 44.0007 34.1506 44.0007 22C44.0007 9.84932 34.1506 -0.000732422 22 -0.000732422C9.84932 -0.000732422 -0.000732422 9.84932 -0.000732422 22C-0.000732422 34.1506 9.84932 44.0007 22 44.0007Z" fill="#FEA735"/>
<path d="M16.5565 32.3137L11.1178 34.5509C9.76858 34.9511 10.1268 33.7734 10.1268 33.7734L12.4822 27.9993L16.5565 32.3137Z" fill="#F6E9BA"/>
<path d="M10.9387 31.6658L12.9434 33.7125L10.8739 34.5929C10.8739 34.5929 9.92105 34.7987 10.043 34.0098L10.9387 31.6658Z" fill="#2C3C50"/>
<path d="M12.5166 27.9079L27.777 12.6017L31.8246 16.8513L16.5642 32.1879L12.5166 27.9079Z" fill="#ECC644" stroke="black" stroke-miterlimit="10"/>
<path d="M31.8742 16.8094L27.7085 12.6665L30.022 10.3378C30.4679 9.88804 31.192 9.88804 31.6379 10.334L34.1839 12.8609C34.6336 13.3068 34.6336 14.0309 34.1877 14.4768L31.8742 16.8094Z" fill="#DA4E6E" stroke="black" stroke-miterlimit="10"/>
<path d="M16.4728 32.3137L11.034 34.5509C9.68484 34.9511 10.0431 33.7734 10.0431 33.7734L12.3985 27.9993" stroke="black" stroke-miterlimit="10"/>
<path d="M31.8785 16.797L27.731 12.6495L26.1706 14.2099L30.3181 18.3574L31.8785 16.797Z" fill="white" stroke="black" stroke-miterlimit="10"/>
</g>
<defs>
<clipPath id="clip0_449_309">
<rect width="44" height="44" fill="white"/>
</clipPath>
</defs>
</svg>
