<svg width="90" height="39" viewBox="0 0 90 39" fill="none" xmlns="http://www.w3.org/2000/svg">
<ellipse cx="45.0087" cy="7.87263" rx="31.7198" ry="6.87263" fill="#E94925" stroke="black" stroke-width="2"/>
<path d="M13.7601 6.48749L1.88633 29.9496C1.41053 30.9012 1.69601 32.0748 2.58416 32.6564C5.56583 34.6018 15.0183 37.8796 44.8984 37.8796C44.8984 37.8796 77.3901 38.3025 87.0647 32.4132C87.974 31.8528 88.2912 30.6897 87.8365 29.717L76.1998 6.48749C76.1998 6.48749 74.0852 11.4041 44.8984 11.4041C44.8984 11.4041 18.7296 10.5688 13.7601 6.48749Z" fill="#E94925" stroke="#040000" stroke-width="2" stroke-miterlimit="10" stroke-linejoin="round"/>
<path d="M33.4157 19.3659L29.8314 18.9113L29.4508 21.8612L32.7602 22.2841L32.6016 23.5424L29.2922 23.1194L28.7741 27.1584L27.2938 26.9681L28.5203 17.4521L33.5849 18.0971L33.4157 19.3659Z" fill="white"/>
<path d="M34.378 23.1723C34.4731 21.6603 34.9701 20.4655 35.8794 19.5773C36.7887 18.6998 37.9623 18.298 39.4003 18.3931C40.7537 18.4777 41.8004 18.9958 42.5617 19.958C43.323 20.9202 43.6613 22.1044 43.5662 23.5212C43.471 25.0226 42.9846 26.2174 42.0859 27.095C41.1977 27.9725 40.0347 28.3743 38.6179 28.2792C37.2645 28.1946 36.1966 27.6765 35.4142 26.7249C34.6317 25.7839 34.2828 24.5997 34.378 23.1723ZM35.9428 23.1723C35.8794 24.2296 36.0908 25.1177 36.5878 25.8262C37.0847 26.5451 37.7931 26.9258 38.713 26.9892C39.6752 27.0527 40.447 26.7777 41.0286 26.1539C41.5995 25.5407 41.9273 24.6737 42.0013 23.5741C42.0753 22.4427 41.8744 21.5334 41.3881 20.8461C40.9123 20.1589 40.1933 19.7782 39.2417 19.7148C38.3112 19.6514 37.5394 19.9474 36.9473 20.603C36.3446 21.2479 36.0063 22.1044 35.9428 23.1723Z" fill="white"/>
<path d="M45.0357 23.7855C45.004 22.2735 45.4057 21.0364 46.241 20.0848C47.0763 19.1333 48.2077 18.6469 49.6456 18.6257C50.999 18.6046 52.0881 19.0381 52.9233 19.9263C53.7586 20.8144 54.1921 21.9775 54.2133 23.3943C54.245 24.9063 53.8432 26.1328 53.0291 27.0738C52.2149 28.0254 51.0942 28.5118 49.6773 28.5329C48.324 28.554 47.2138 28.1311 46.3573 27.243C45.5009 26.376 45.0568 25.2129 45.0357 23.7855ZM46.6005 23.6586C46.6217 24.7159 46.9071 25.583 47.457 26.2596C48.0068 26.9363 48.7469 27.2641 49.6668 27.243C50.6289 27.2218 51.3796 26.8835 51.9083 26.2279C52.437 25.5724 52.6907 24.6842 52.6696 23.574C52.6484 22.4427 52.3735 21.5545 51.8449 20.899C51.3162 20.2434 50.5655 19.9263 49.6139 19.9474C48.6835 19.9685 47.9433 20.3175 47.3935 21.0153C46.8331 21.7131 46.5794 22.5907 46.6005 23.6586Z" fill="white"/>
<path d="M56.825 28.1205L55.8417 18.5728L58.7388 18.2768C62.1116 17.9279 63.9514 19.3024 64.2686 22.4109C64.4272 23.9018 64.0677 25.1388 63.2007 26.1222C62.3337 27.1055 61.1495 27.6764 59.6481 27.835L56.825 28.1205ZM57.4488 19.683L58.1784 26.6931L59.4789 26.5557C60.5997 26.4394 61.4561 26.0376 62.0376 25.3397C62.6191 24.6419 62.8412 23.722 62.7249 22.5907C62.6086 21.4805 62.2174 20.6558 61.5407 20.1377C60.864 19.6196 59.9547 19.4187 58.7916 19.5456L57.4488 19.683Z" fill="white"/>
</svg>
