<?xml version="1.0" encoding="utf-8"?>
<!-- Generator: Adobe Illustrator 25.2.0, SVG Export Plug-In . SVG Version: 6.00 Build 0)  -->
<svg version="1.1" id="圖層_1" xmlns="http://www.w3.org/2000/svg" xmlns:xlink="http://www.w3.org/1999/xlink" x="0px" y="0px"
	 viewBox="0 0 100 100" style="enable-background:new 0 0 100 100;" xml:space="preserve">
<style type="text/css">
	.st0{stroke:#FFFFFF;stroke-miterlimit:10;}
	.st1{fill:#E94925;stroke:#040000;stroke-width:2;stroke-miterlimit:10;}
	.st2{fill:#C1E4EF;stroke:#040000;stroke-width:2;stroke-miterlimit:10;}
	.st3{fill:#FFFFFF;}
	.st4{fill:#7A524B;}
	.st5{fill:#5F4641;}
	.st6{fill:#F6E9BA;}
	.st7{fill:#2C3C50;}
	.st8{fill:#ECC644;stroke:#000000;stroke-miterlimit:10;}
	.st9{fill:#DA4E6E;stroke:#000000;stroke-miterlimit:10;}
	.st10{fill:none;stroke:#000000;stroke-miterlimit:10;}
	.st11{fill:#FFFFFF;stroke:#000000;stroke-miterlimit:10;}
	.st12{fill:#6A4B2E;stroke:#000000;stroke-width:2;stroke-miterlimit:10;}
	.st13{fill:#E22925;stroke:#000000;stroke-width:2;stroke-miterlimit:10;}
	.st14{fill:#6F401E;stroke:#000000;stroke-width:2;stroke-miterlimit:10;}
	.st15{fill:none;stroke:#040000;stroke-width:2;stroke-miterlimit:10;}
	.st16{fill:#040000;stroke:#040000;stroke-miterlimit:10;}
	.st17{fill:#906526;stroke:#000000;stroke-width:2;stroke-miterlimit:10;}
	.st18{fill:#D3AF7C;stroke:#000000;stroke-width:2;stroke-miterlimit:10;}
	.st19{stroke:#000000;stroke-miterlimit:10;}
	.st20{fill:none;stroke:#000000;stroke-width:2;stroke-miterlimit:10;}
	.st21{fill:#F1DBBD;stroke:#000000;stroke-width:2;stroke-miterlimit:10;}
	.st22{fill:#ECA368;stroke:#000000;stroke-width:2;stroke-miterlimit:10;}
	.st23{fill:none;stroke:#FFFFFF;stroke-width:0.5;stroke-miterlimit:10;}
	.st24{fill:#ECED81;stroke:#000000;stroke-miterlimit:10;}
	.st25{fill:#EB5A41;stroke:#000000;stroke-miterlimit:10;}
	.st26{fill:#EE7C62;stroke:#000000;stroke-miterlimit:10;}
	.st27{fill:none;stroke:#C55643;stroke-width:0.5;stroke-miterlimit:10;}
	.st28{fill:#040000;}
	.st29{fill:#ECED81;stroke:#000000;stroke-width:2;stroke-miterlimit:10;}
	.st30{fill:#B33F2D;}
	.st31{fill:#FFFFFF;stroke:#000000;stroke-width:2;stroke-miterlimit:10;}
	.st32{fill:#BB8682;stroke:#000000;stroke-miterlimit:10;}
	.st33{fill:none;stroke:#040000;stroke-width:0.5;stroke-miterlimit:10;}
	.st34{fill:#B5B5B5;stroke:#000000;stroke-width:2;stroke-miterlimit:10;}
	.st35{fill:#FFFFFF;stroke:#040000;stroke-width:2;stroke-miterlimit:10;}
	.st36{fill:#E73483;stroke:#040000;stroke-width:2;stroke-miterlimit:10;}
	.st37{fill:#DBA8CC;stroke:#040000;stroke-width:2;stroke-miterlimit:10;}
	.st38{fill:#814537;stroke:#040000;stroke-width:2;stroke-miterlimit:10;}
	.st39{fill:#D54426;stroke:#040000;stroke-width:2;stroke-miterlimit:10;}
	.st40{fill:#C68A6B;}
	.st41{fill:#B44522;}
	.st42{fill:#643219;stroke:#000000;stroke-width:2;stroke-miterlimit:10;}
	.st43{fill:#423052;stroke:#000000;stroke-width:2;stroke-miterlimit:10;}
	.st44{fill:#6A567A;}
	.st45{fill:#8C709A;stroke:#000000;stroke-width:2;stroke-miterlimit:10;}
	.st46{fill:#9E87AD;}
	.st47{fill:#645293;stroke:#000000;stroke-width:2;stroke-miterlimit:10;}
	.st48{fill:#8B81B1;}
	.st49{fill:#533B62;stroke:#000000;stroke-width:2;stroke-miterlimit:10;}
	.st50{fill:#3E9C41;stroke:#000000;stroke-width:2;stroke-miterlimit:10;}
	.st51{fill:#81B14A;stroke:#000000;stroke-width:2;stroke-miterlimit:10;}
	.st52{fill:#55A284;stroke:#000000;stroke-width:2;stroke-miterlimit:10;}
	.st53{fill:#F0BE7F;stroke:#000000;stroke-width:2;stroke-miterlimit:10;}
	.st54{fill:none;stroke:#DE7860;stroke-width:2;stroke-miterlimit:10;}
	.st55{fill:url(#SVGID_1_);stroke:#000000;stroke-width:2;stroke-miterlimit:10;}
	.st56{fill:url(#SVGID_2_);stroke:#000000;stroke-width:2;stroke-miterlimit:10;}
	.st57{fill:url(#SVGID_3_);stroke:#000000;stroke-width:2;stroke-miterlimit:10;}
	.st58{fill:#FDF4EA;stroke:#040000;stroke-width:2;stroke-miterlimit:10;}
	.st59{fill:none;stroke:#C29C93;stroke-width:2;stroke-miterlimit:10;}
	.st60{fill:#392D4B;stroke:#000000;stroke-width:2;stroke-miterlimit:10;}
	.st61{fill:#685A7C;}
	.st62{fill:#65AD66;stroke:#040000;stroke-width:2;stroke-miterlimit:10;}
	.st63{fill:#94CC93;stroke:#040000;stroke-width:2;stroke-miterlimit:10;}
	.st64{fill:#DB655F;stroke:#000000;stroke-width:2;stroke-miterlimit:10;}
	.st65{fill:#D24F30;stroke:#000000;stroke-width:2;stroke-miterlimit:10;}
	.st66{fill:#EAB934;stroke:#000000;stroke-width:2;stroke-miterlimit:10;}
	.st67{fill:#F0EDE1;}
	.st68{fill:#F4CADE;}
	.st69{fill:#D9AE58;stroke:#040000;stroke-width:2;stroke-miterlimit:10;}
	.st70{fill:#F4E2C2;}
	.st71{fill:#F1DFC0;stroke:#040000;stroke-miterlimit:10;}
	.st72{fill:#C4E6F1;stroke:#000000;stroke-width:2;stroke-miterlimit:10;}
	.st73{fill:#E8DE80;stroke:#000000;stroke-width:2;stroke-miterlimit:10;}
	.st74{fill:#F7F5F5;stroke:#000000;stroke-width:2;stroke-miterlimit:10;}
	.st75{fill:#AEDCE5;}
	.st76{fill:#D7B995;}
	.st77{fill:#E55F7B;stroke:#000000;stroke-width:2;stroke-miterlimit:10;}
	.st78{fill:none;stroke:#FFFFFF;stroke-miterlimit:10;}
	.st79{fill:#FFFFFF;stroke:#FFFFFF;stroke-miterlimit:10;}
	.st80{fill:none;stroke:#FFFFFF;stroke-width:0.75;stroke-miterlimit:10;}
	.st81{fill:#DBA8CC;}
	.st82{fill:none;stroke:#040000;stroke-miterlimit:10;}
	.st83{fill:none;stroke:#FFFFFF;stroke-width:2;stroke-miterlimit:10;}
</style>
<g>
	<g>
		<circle class="st4" cx="44.45" cy="33.12" r="3.35"/>
		<circle class="st4" cx="51.97" cy="35.27" r="3.35"/>
		<circle class="st4" cx="29.99" cy="36.47" r="3.35"/>
		<circle class="st5" cx="25.49" cy="40.66" r="3.35"/>
		<circle class="st5" cx="36.68" cy="41.96" r="3.35"/>
		<circle class="st5" cx="51.97" cy="39.81" r="3.35"/>
		<circle class="st5" cx="47.79" cy="35.27" r="3.35"/>
		<circle class="st5" cx="68.35" cy="35.96" r="3.35"/>
		<circle class="st5" cx="77.21" cy="37.32" r="3.35"/>
		<circle class="st5" cx="71.7" cy="34.66" r="3.35"/>
		<circle class="st5" cx="56.27" cy="33.97" r="3.35"/>
		<circle class="st5" cx="41.89" cy="40.66" r="3.35"/>
		<circle class="st5" cx="79.93" cy="41.96" r="3.35"/>
		<circle class="st5" cx="61.58" cy="40.6" r="3.35"/>
		<circle class="st5" cx="56.15" cy="42.65" r="3.35"/>
		<circle class="st5" cx="41.1" cy="35.27" r="3.35"/>
		<circle class="st5" cx="66.41" cy="44.35" r="3.35"/>
		<circle class="st5" cx="46.66" cy="41.96" r="3.35"/>
		<circle class="st5" cx="31.16" cy="38.62" r="3.35"/>
		<circle class="st5" cx="35.2" cy="35.27" r="3.35"/>
		<circle class="st5" cx="57.8" cy="36.47" r="3.35"/>
		<circle class="st4" cx="25.49" cy="43.16" r="3.35"/>
		<circle class="st4" cx="36.93" cy="37.25" r="3.35"/>
		<circle class="st4" cx="45.23" cy="37.25" r="3.35"/>
		<circle class="st4" cx="71.55" cy="44.67" r="3.35"/>
		<circle class="st4" cx="74.53" cy="38.62" r="3.35"/>
		<circle class="st4" cx="61.14" cy="45.31" r="3.35"/>
		<circle class="st4" cx="43.32" cy="44.67" r="3.35"/>
		<circle class="st4" cx="51.6" cy="43.94" r="3.35"/>
		<circle class="st4" cx="75.56" cy="43.16" r="3.35"/>
		<circle class="st4" cx="60.63" cy="35.96" r="3.35"/>
		<circle class="st4" cx="66.41" cy="39.31" r="3.35"/>
		<circle class="st4" cx="56.15" cy="38.62" r="3.35"/>
		<circle class="st4" cx="47.79" cy="39.81" r="3.35"/>
		<circle class="st4" cx="65.01" cy="33.97" r="3.35"/>
		<circle class="st4" cx="31.36" cy="42.37" r="3.35"/>
		<circle class="st5" cx="40.2" cy="45.31" r="3.35"/>
		<circle class="st5" cx="36.68" cy="43.94" r="3.35"/>
		<circle class="st5" cx="27.12" cy="44.67" r="3.35"/>
		<circle class="st5" cx="57.25" cy="45.31" r="3.35"/>
		
			<ellipse transform="matrix(0.7635 -0.6458 0.6458 0.7635 -18.4735 42.1994)" class="st5" cx="48.38" cy="46.32" rx="3.35" ry="3.72"/>
		<path class="st1" d="M22.14,41.96L10.92,64.16c-0.45,0.9-0.18,2.01,0.66,2.56c2.82,1.84,11.76,4.94,40.02,4.94
			c0,0,30.73,0.4,39.88-5.17c0.86-0.53,1.16-1.63,0.73-2.55L81.8,41.96c0,0,2.2,3.82-30.2,4.65C51.6,46.61,26.84,45.82,22.14,41.96z
			"/>
		<circle class="st5" cx="70.24" cy="40.6" r="3.35"/>
	</g>
	<g>
		<path class="st3" d="M40.73,54.15l-3.39-0.43l-0.36,2.79l3.13,0.4l-0.15,1.19l-3.13-0.4l-0.49,3.82l-1.4-0.18l1.16-9l4.79,0.61
			L40.73,54.15z"/>
		<path class="st3" d="M41.64,57.75c0.09-1.43,0.56-2.56,1.42-3.4c0.86-0.83,1.97-1.21,3.33-1.12c1.28,0.08,2.27,0.57,2.99,1.48
			c0.72,0.91,1.04,2.03,0.95,3.37c-0.09,1.42-0.55,2.55-1.4,3.38c-0.84,0.83-1.94,1.21-3.28,1.12c-1.28-0.08-2.29-0.57-3.03-1.47
			C41.88,60.22,41.56,59.1,41.64,57.75z M43.12,57.74c-0.06,1,0.14,1.84,0.61,2.51c0.47,0.68,1.14,1.04,2.01,1.1
			c0.91,0.06,1.64-0.2,2.19-0.79c0.54-0.58,0.85-1.4,0.92-2.44c0.07-1.07-0.12-1.93-0.58-2.58c-0.45-0.65-1.13-1.01-2.03-1.07
			c-0.88-0.06-1.61,0.22-2.17,0.84C43.5,55.93,43.19,56.74,43.12,57.74z"/>
		<path class="st3" d="M51.73,58.33c-0.03-1.43,0.35-2.6,1.14-3.5c0.79-0.9,1.86-1.36,3.22-1.38c1.28-0.02,2.31,0.39,3.1,1.23
			c0.79,0.84,1.2,1.94,1.22,3.28c0.03,1.43-0.35,2.59-1.12,3.48c-0.77,0.9-1.83,1.36-3.17,1.38c-1.28,0.02-2.33-0.38-3.14-1.22
			C52.17,60.77,51.75,59.68,51.73,58.33z M53.2,58.2c0.02,1,0.29,1.82,0.81,2.46c0.52,0.64,1.22,0.95,2.09,0.93
			c0.91-0.02,1.62-0.34,2.12-0.96c0.5-0.62,0.74-1.46,0.72-2.51c-0.02-1.07-0.28-1.91-0.78-2.53c-0.5-0.62-1.21-0.92-2.11-0.9
			c-0.88,0.02-1.58,0.35-2.1,1.01C53.43,56.36,53.18,57.2,53.2,58.2z"/>
		<path class="st3" d="M62.87,62.42l-0.93-9.03l2.74-0.28c3.19-0.33,4.93,0.97,5.23,3.91c0.15,1.41-0.19,2.58-1.01,3.51
			c-0.82,0.93-1.94,1.47-3.36,1.62L62.87,62.42z M63.46,54.45l0.69,6.63l1.23-0.13c1.06-0.11,1.87-0.49,2.42-1.15
			c0.55-0.66,0.76-1.53,0.65-2.6c-0.11-1.05-0.48-1.83-1.12-2.32c-0.64-0.49-1.5-0.68-2.6-0.56L63.46,54.45z"/>
	</g>
</g>
</svg>
