<svg width="55" height="18" viewBox="0 0 55 18" fill="none" xmlns="http://www.w3.org/2000/svg">
<path d="M19.1885 6.9248C19.7158 6.26074 20.3896 5.92871 21.21 5.92871C22.084 5.92871 22.7432 6.1875 23.1875 6.70508C23.6318 7.22266 23.8589 7.98682 23.8687 8.99756V14H21.3931V9.05615C21.3931 8.63623 21.3076 8.32861 21.1367 8.1333C20.9658 7.93311 20.6753 7.83301 20.2651 7.83301C19.7573 7.83301 19.3984 7.99414 19.1885 8.31641V14H16.7202V2.75H19.1885V6.9248ZM24.6307 9.96436C24.6307 9.17334 24.7845 8.47021 25.0921 7.85498C25.3997 7.23486 25.8416 6.75879 26.4178 6.42676C26.9939 6.09473 27.6702 5.92871 28.4466 5.92871C29.6331 5.92871 30.5682 6.29736 31.2518 7.03467C31.9354 7.76709 32.2771 8.76562 32.2771 10.0303V10.1182C32.2771 11.3535 31.9329 12.335 31.2444 13.0625C30.5608 13.7852 29.6331 14.1465 28.4612 14.1465C27.3333 14.1465 26.4275 13.8096 25.7439 13.1357C25.0604 12.457 24.6917 11.5391 24.638 10.3818L24.6307 9.96436ZM27.0989 10.1182C27.0989 10.8506 27.2137 11.3877 27.4432 11.7295C27.6727 12.0713 28.012 12.2422 28.4612 12.2422C29.3401 12.2422 29.7894 11.5659 29.8089 10.2134V9.96436C29.8089 8.54346 29.3548 7.83301 28.4466 7.83301C27.6214 7.83301 27.1746 8.4458 27.1062 9.67139L27.0989 10.1182ZM35.3976 6.0752L35.4781 7.00537C36.0396 6.2876 36.794 5.92871 37.7413 5.92871C38.7423 5.92871 39.4186 6.32666 39.7701 7.12256C40.3072 6.32666 41.0836 5.92871 42.0992 5.92871C43.7057 5.92871 44.5309 6.90039 44.5748 8.84375V14H42.0992V8.99756C42.0992 8.59229 42.0309 8.29688 41.8941 8.11133C41.7574 7.92578 41.5084 7.83301 41.1471 7.83301C40.6588 7.83301 40.295 8.05029 40.0558 8.48486L40.0631 8.5874V14H37.5875V9.01221C37.5875 8.59717 37.5216 8.29688 37.3897 8.11133C37.2579 7.92578 37.0064 7.83301 36.6354 7.83301C36.1617 7.83301 35.8004 8.05029 35.5514 8.48486V14H33.0831V6.0752H35.3976ZM49.5189 14.1465C48.3031 14.1465 47.3192 13.7852 46.5673 13.0625C45.8153 12.335 45.4394 11.3901 45.4394 10.228V10.0229C45.4394 9.2124 45.5883 8.49707 45.8861 7.87695C46.1889 7.25684 46.6283 6.77832 47.2045 6.44141C47.7807 6.09961 48.4643 5.92871 49.2553 5.92871C50.3686 5.92871 51.2475 6.27539 51.892 6.96875C52.5365 7.65723 52.8588 8.61914 52.8588 9.85449V10.814H47.9516C48.0395 11.2583 48.2323 11.6074 48.5302 11.8613C48.828 12.1152 49.2138 12.2422 49.6874 12.2422C50.4687 12.2422 51.079 11.9688 51.5185 11.4219L52.6464 12.7549C52.3388 13.1797 51.9018 13.519 51.3354 13.7729C50.7738 14.022 50.1684 14.1465 49.5189 14.1465ZM49.2406 7.83301C48.518 7.83301 48.0883 8.31152 47.9516 9.26855H50.4418V9.07812C50.4516 8.68262 50.3515 8.37744 50.1415 8.1626C49.9315 7.94287 49.6313 7.83301 49.2406 7.83301Z" fill="black" fill-opacity="0.15"/>
<path fill-rule="evenodd" clip-rule="evenodd" d="M13.8329 10.2777L6.91648 3.02478L0 10.2777H3.18946V14.6294H10.6435V10.2777H13.8329Z" fill="black" fill-opacity="0.15"/>
</svg>
