<svg width="375" height="812" viewBox="0 0 375 812" fill="none" xmlns="http://www.w3.org/2000/svg">
<g clip-path="url(#clip0_358_192)">
<rect width="375" height="812" rx="40" fill="#FCF5EF"/>
<rect x="121" y="799" width="134" height="5" rx="2.5" fill="black"/>
<rect x="17.5" y="217.5" width="340" height="40" rx="20" fill="#FCF5EF" stroke="#FEA735" stroke-width="3"/>
<path d="M43.3156 233.172V239.71H41.9016V233.172H43.3156ZM44.1556 240.578V232.318H41.0616V241.922H41.9016V240.578H44.1556ZM46.7456 234.096C46.7596 233.214 46.7736 232.29 46.7736 231.338H45.8636C45.8636 232.304 45.8636 233.228 45.8496 234.096H44.6596V235.034H45.8216C45.7236 238.716 45.3176 241.67 43.5536 243.448C43.7776 243.588 44.1136 243.896 44.2816 244.12C46.1856 242.132 46.6196 238.982 46.7316 235.034H47.9356C47.7816 240.396 47.6136 242.258 47.3056 242.678C47.1796 242.874 47.0816 242.902 46.8996 242.902C46.6896 242.902 46.2836 242.902 45.8356 242.86C45.9756 243.126 46.0736 243.518 46.0736 243.798C46.5356 243.84 46.9976 243.826 47.3056 243.798C47.6416 243.742 47.8796 243.63 48.1036 243.294C48.5236 242.692 48.6776 240.746 48.8596 234.586C48.8736 234.474 48.8736 234.096 48.8736 234.096H46.7456ZM50.2736 241.446V233.858H52.0096V241.446H50.2736ZM49.4196 232.92V243.56H50.2736V242.384H52.0096V243.448H52.9056V232.92H49.4196ZM57.7076 233.55V239.024H55.9576V233.55H57.7076ZM58.6456 239.976V232.584H55.0336V241.208H55.9576V239.976H58.6456ZM62.8876 238.73L62.3136 238.926C62.3416 238.492 62.3556 238.058 62.3556 237.61V231.408H61.3616V233.648H59.0236V234.614H61.3616V236.546H59.1216V237.498H61.3616V237.596C61.3616 238.156 61.3476 238.716 61.2776 239.276C60.2136 239.626 59.2056 239.948 58.4636 240.158L58.8696 241.096C59.5416 240.858 60.2976 240.578 61.0816 240.27C60.7736 241.502 60.0876 242.608 58.6736 243.448C58.9256 243.602 59.2756 243.924 59.4436 244.12C61.2216 243.042 61.9356 241.53 62.2156 239.836L63.0276 239.514L62.8876 238.73ZM67.3536 239.472H64.6096V237.498H67.0456V236.546H64.6096V234.614H67.2136V233.648H64.6096V231.38H63.6016V244.05H64.6096V240.438H67.3536V239.472Z" fill="black"/>
<path d="M145.52 64.56V62.136H151.232V63.096C151.232 63.576 151.232 64.08 151.184 64.56H145.52ZM145.52 58.32H151.232V60.72H145.52V58.32ZM159.104 58.32V60.72H153.056V58.32H159.104ZM159.104 64.56H153.008C153.032 64.104 153.056 63.6 153.056 63.12V62.136H159.104V64.56ZM160.856 66.048V56.832H153.056V54.816H162.368V53.208H141.632V54.816H151.232V56.832H143.816V66.048H150.944C150.656 67.2 150.104 68.28 149 69.216C147.872 68.472 146.912 67.488 146.096 66.24L144.608 66.84C145.424 68.232 146.408 69.336 147.56 70.224C146.096 71.064 144.056 71.736 141.2 72.288C141.584 72.696 142.064 73.44 142.256 73.848C145.376 73.2 147.608 72.312 149.216 71.256C152.48 72.984 156.848 73.512 162.392 73.752C162.488 73.176 162.824 72.432 163.136 72C157.808 71.856 153.68 71.496 150.656 70.128C151.856 68.904 152.504 67.536 152.792 66.048H160.856ZM177.968 57.984H183.272C182.744 61.2 181.928 63.864 180.68 66.024C179.408 63.72 178.52 61.008 177.944 58.032L177.968 57.984ZM187.016 57.984V56.28H178.592C179.024 55.008 179.384 53.664 179.672 52.272L177.824 51.936C177.104 55.704 175.76 59.256 173.84 61.608V54.024H165.752V55.68H172.112V60.384H165.752V68.016C165.752 70.056 166.352 70.56 168.464 70.56H172.16C174.008 70.56 174.512 69.792 174.728 66.768C174.224 66.648 173.48 66.36 173.12 66.072C173.048 68.496 172.904 68.88 172.016 68.88H168.632C167.648 68.88 167.456 68.76 167.456 67.992V62.016H172.112V62.928H173.84V62.136C174.272 62.424 174.848 62.832 175.136 63.048C175.736 62.304 176.288 61.44 176.816 60.48C177.488 63.168 178.376 65.592 179.552 67.656C177.92 69.72 175.688 71.256 172.664 72.336C173 72.72 173.552 73.512 173.744 73.92C176.648 72.744 178.856 71.208 180.56 69.192C182 71.184 183.776 72.744 186.032 73.8C186.32 73.32 186.896 72.624 187.28 72.288C184.976 71.304 183.128 69.72 181.688 67.68C183.344 65.136 184.4 61.968 185.072 57.984H187.016ZM202.208 55.008C201.632 57.192 200.192 58.392 196.28 59.088C196.568 59.4 196.976 59.976 197.12 60.36C200.528 59.688 202.304 58.56 203.24 56.784C204.128 58.512 205.88 60.048 209.96 60.768C210.128 60.336 210.536 59.664 210.872 59.328C205.952 58.608 204.608 56.856 204.08 55.008H207.92C207.488 55.704 206.96 56.376 206.456 56.856L207.872 57.36C208.736 56.52 209.624 55.176 210.296 53.952L209.096 53.592L208.808 53.664H200.6C200.912 53.16 201.176 52.68 201.416 52.176L199.808 51.912C199.184 53.352 197.984 54.96 196.184 56.208C196.616 56.376 197.192 56.76 197.528 57.096C198.368 56.448 199.064 55.752 199.664 55.008H202.208ZM194.12 67.152H206.144V68.832H194.12V67.152ZM194.12 64.344H206.144V66H194.12V64.344ZM194.12 61.584H206.144V63.192H194.12V61.584ZM192.392 70.008H207.92V60.384H192.392V70.008ZM196.184 54.288C195.032 53.688 192.824 52.896 191.168 52.44L190.376 53.664C192.08 54.192 194.288 55.032 195.392 55.68L196.184 54.288ZM195.896 56.904C193.448 57.576 190.928 58.296 189.2 58.704L189.896 60.264C191.696 59.688 193.952 58.992 196.112 58.296L195.896 56.904ZM196.4 70.248C194.696 71.208 191.816 72.048 189.368 72.552C189.776 72.864 190.376 73.56 190.688 73.896C193.064 73.248 196.064 72.144 198.008 71.016L196.4 70.248ZM201.992 71.232C204.608 72.096 207.2 73.104 208.688 73.872L210.656 72.984C208.904 72.192 206.048 71.16 203.456 70.32L201.992 71.232ZM229.064 56.544C228.296 55.656 226.64 54.432 225.296 53.616L224.384 54.816C225.752 55.704 227.384 57 228.152 57.912L229.064 56.544ZM228.032 62.28C227.192 61.416 225.416 60.336 224 59.592L223.16 60.84C224.6 61.608 226.304 62.832 227.144 63.72L228.032 62.28ZM221.096 53.352C220.736 54.96 220.064 57.336 219.512 58.752L220.664 59.136C221.312 57.792 222.056 55.536 222.632 53.736L221.096 53.352ZM216.104 58.704C215.936 57.264 215.384 55.104 214.688 53.448L213.392 53.76C214.016 55.44 214.568 57.648 214.688 59.088L216.104 58.704ZM218.72 61.608H222.632V59.928H218.72V52.008H217.064V59.928H213.224V61.608H216.584C215.744 64.296 214.232 67.392 212.84 69.072C213.128 69.504 213.56 70.296 213.752 70.8C214.952 69.192 216.176 66.528 217.064 63.96V73.824H218.72V63.984C219.584 65.328 220.712 67.176 221.144 68.064L222.32 66.672C221.792 65.856 219.392 62.688 218.72 61.944V61.608ZM235.088 66.528L234.824 64.896L231.992 65.4V51.936H230.312V65.712L222.584 67.08L222.872 68.736L230.312 67.392V73.824H231.992V67.08L235.088 66.528Z" fill="black"/>
<circle cx="5" cy="151" r="50" fill="#FFEBCC"/>
<path d="M1.25867 127.249C1.25867 127.249 0.885567 119.414 5.03445 117.25C5.03445 117.25 9.45197 120.041 8.75054 127.249C8.75054 127.249 5.8702 126.07 1.25867 127.249Z" fill="#D3AF7C" stroke="black" stroke-width="2" stroke-miterlimit="10"/>
<path d="M-14.043 186.203V143.013C-14.043 143.013 -14.043 126.253 5.01502 125.999C5.01502 125.999 23.1179 126.253 23.7447 142.699L23.9984 186.203H-14.043Z" fill="white" stroke="black" stroke-width="2" stroke-miterlimit="10"/>
<path d="M14.2828 146.505C15.8983 146.505 17.2079 145.195 17.2079 143.58C17.2079 141.964 15.8983 140.655 14.2828 140.655C12.6673 140.655 11.3577 141.964 11.3577 143.58C11.3577 145.195 12.6673 146.505 14.2828 146.505Z" fill="black" stroke="black" stroke-miterlimit="10"/>
<path d="M24.0132 186.143C24.0132 186.143 34.46 187.456 35.445 178.039C35.445 178.039 37.6538 168.771 26.595 162.399C25.4608 161.742 24.0132 162.563 24.0132 163.846V186.143Z" fill="#D3AF7C" stroke="black" stroke-width="2" stroke-miterlimit="10"/>
<path d="M18.0287 157.295C20.3695 157.295 22.2671 155.397 22.2671 153.056C22.2671 150.716 20.3695 148.818 18.0287 148.818C15.6879 148.818 13.7903 150.716 13.7903 153.056C13.7903 155.397 15.6879 157.295 18.0287 157.295Z" fill="#D7B995"/>
<path d="M-4.11842 152.236L1.83627 148.534C3.4033 147.549 5.91054 147.46 7.59695 148.311L13.8352 151.46C16.1186 152.609 15.7902 154.847 13.2084 155.787L7.194 157.996C6.00008 158.429 4.55245 158.489 3.29883 158.16L-2.87972 156.504C-5.62575 155.773 -6.26748 153.564 -4.11842 152.236Z" fill="#BB8682" stroke="black" stroke-miterlimit="10"/>
<path d="M-6.07373 154.206C-6.07373 154.206 4.01488 156.574 15.3124 153.5" stroke="#040000" stroke-width="0.5" stroke-miterlimit="10"/>
<circle cx="188.5" cy="151" r="50" fill="#FEA735"/>
<path d="M205.928 133.247C205.928 133.247 212.609 131.813 216.575 138.692C216.575 138.692 221.807 149.05 215.019 153.031C215.019 153.031 210.016 155.243 207.972 149.706C207.957 149.706 208.445 140.172 205.928 133.247Z" fill="#6A4B2E" stroke="black" stroke-width="2" stroke-miterlimit="10"/>
<path d="M171.697 133.247C171.697 133.247 165.016 131.813 161.05 138.692C161.05 138.692 155.818 149.05 162.606 153.031C162.606 153.031 167.609 155.243 169.653 149.706C169.668 149.706 169.18 140.172 171.697 133.247Z" fill="#6A4B2E" stroke="black" stroke-width="2" stroke-miterlimit="10"/>
<path d="M169.745 187.323V143.177C169.745 143.177 169.745 126.047 189.224 125.787C189.224 125.787 207.728 126.047 208.368 142.857L208.628 187.323H169.745Z" fill="#906526" stroke="black" stroke-width="2" stroke-miterlimit="10"/>
<path d="M179.385 145.694C181.037 145.694 182.375 144.356 182.375 142.704C182.375 141.053 181.037 139.714 179.385 139.714C177.734 139.714 176.396 141.053 176.396 142.704C176.396 144.356 177.734 145.694 179.385 145.694Z" fill="black" stroke="black" stroke-miterlimit="10"/>
<path d="M198.987 145.694C200.638 145.694 201.977 144.356 201.977 142.704C201.977 141.053 200.638 139.714 198.987 139.714C197.336 139.714 195.997 141.053 195.997 142.704C195.997 144.356 197.336 145.694 198.987 145.694Z" fill="black" stroke="black" stroke-miterlimit="10"/>
<path d="M187.379 146.686H191.009C193.252 146.686 194.472 148.638 193.053 149.92L191.238 151.567C190.185 152.528 188.218 152.528 187.165 151.567L185.35 149.92C183.916 148.623 185.136 146.686 187.379 146.686Z" fill="black" stroke="black" stroke-miterlimit="10"/>
<path d="M182.696 158.279L189.118 152.818L195.692 158.95" stroke="black" stroke-width="2" stroke-miterlimit="10"/>
<path d="M198.026 127.633C198.636 127.877 199.338 127.725 199.75 127.221C200.878 125.833 202.297 123.865 198.895 122.187C198.255 121.867 197.904 121.15 198.041 120.448C198.27 119.304 197.873 117.733 193.938 117.779C193.251 117.794 192.641 117.352 192.443 116.696C192.001 115.232 190.872 113.218 188.248 116.071C187.851 116.513 187.226 116.696 186.662 116.498C185.228 116.01 182.619 115.491 182.543 118.038C182.528 118.74 181.979 119.32 181.277 119.442C179.935 119.686 178.211 120.265 178.867 121.715C179.096 122.233 179.004 122.843 178.638 123.271C177.662 124.399 176.411 126.337 179.629 127.725C179.629 127.74 188.111 123.621 198.026 127.633Z" fill="#6A4B2E" stroke="black" stroke-width="2" stroke-miterlimit="10"/>
<rect x="18.5" y="323.5" width="340" height="394" rx="23.5" stroke="#FEA735" stroke-width="3"/>
<rect x="17" y="269" width="343" height="43" rx="21.5" fill="#FEA735"/>
<path d="M121.32 296.136V293.472H130.914V296.136H121.32ZM130.914 289.602V292.212H121.32V289.602H130.914ZM130.914 285.66V288.342H121.32V285.66H130.914ZM125.838 284.382C126.144 283.698 126.468 282.888 126.738 282.114L125.208 281.916C125.064 282.618 124.776 283.59 124.506 284.382H119.988V298.404H121.32V297.396H130.914V298.314H132.3V284.382H125.838ZM151.614 283.032H142.83V284.292H151.614V283.032ZM139.824 281.934C138.924 283.212 137.196 284.832 135.702 285.84C135.936 286.092 136.296 286.614 136.494 286.902C138.096 285.768 139.932 284.022 141.102 282.438L139.824 281.934ZM140.562 285.768C139.32 287.802 137.376 289.872 135.522 291.186C135.792 291.456 136.26 292.032 136.458 292.302C137.124 291.78 137.808 291.132 138.492 290.43V298.422H139.824V288.954C140.562 288.072 141.246 287.154 141.804 286.236L140.562 285.768ZM152.136 287.946H142.056V289.224H148.068V296.64C148.068 296.946 147.96 297.018 147.618 297.036C147.276 297.054 146.088 297.054 144.81 297.018C145.008 297.396 145.188 297.954 145.242 298.314C147.006 298.314 148.014 298.314 148.626 298.116C149.22 297.9 149.418 297.486 149.418 296.658V289.224H152.136V287.946ZM154.656 292.14C154.458 293.706 154.116 295.326 153.558 296.424C153.81 296.514 154.332 296.748 154.53 296.892C155.106 295.74 155.502 294.03 155.754 292.338L154.656 292.14ZM158.94 290.7C159.084 291.132 159.192 291.528 159.246 291.852L160.272 291.42C160.056 290.412 159.426 288.846 158.742 287.658L157.806 288.018C158.058 288.504 158.31 289.044 158.526 289.584L156.114 289.71C157.266 288.198 158.598 286.146 159.57 284.472L158.472 283.986C158.004 284.94 157.356 286.11 156.654 287.226C156.402 286.884 156.078 286.488 155.718 286.092C156.348 285.102 157.122 283.626 157.734 282.384L156.582 281.952C156.222 282.942 155.574 284.328 154.998 285.354C154.818 285.174 154.62 284.976 154.44 284.814L153.72 285.642C154.548 286.416 155.448 287.46 155.97 288.27C155.61 288.828 155.25 289.332 154.908 289.782C154.44 289.8 153.99 289.818 153.594 289.836L153.72 291.042C154.53 290.988 155.448 290.934 156.438 290.862V298.368H157.608V290.79L158.94 290.7ZM167.274 293.85V291.78H168.696V293.85H167.274ZM164.97 293.85V291.78H166.356V293.85H164.97ZM162.72 293.85V291.78H164.07V293.85H162.72ZM168.174 286.488V288.414H161.964V286.488H168.174ZM169.83 290.736H161.928C161.946 290.304 161.964 289.908 161.964 289.512H169.47V285.372H160.758V289.314C160.758 291.042 160.668 293.256 159.948 295.236C159.84 294.354 159.498 293.076 159.066 292.086L158.13 292.374C158.544 293.4 158.904 294.75 158.958 295.632L159.912 295.362C159.642 296.064 159.3 296.748 158.85 297.36C159.12 297.504 159.624 297.882 159.822 298.116C160.884 296.658 161.442 294.804 161.712 292.986V298.368H162.72V294.876H164.07V298.188H164.97V294.876H166.356V298.188H167.274V294.876H168.696V297.09C168.696 297.252 168.66 297.288 168.552 297.288C168.408 297.288 168.03 297.288 167.598 297.27C167.742 297.576 167.922 298.044 167.958 298.368C168.624 298.368 169.092 298.332 169.434 298.17C169.758 297.954 169.83 297.63 169.83 297.108V290.736ZM160.074 283.032V284.202H169.902V283.032H160.074ZM176.958 294.66C177.318 295.668 177.588 297 177.57 297.81L178.668 297.648C178.668 296.838 178.398 295.542 178.002 294.552L176.958 294.66ZM179.496 294.588C180.018 295.452 180.486 296.586 180.63 297.342L181.656 297.036C181.512 296.28 181.008 295.146 180.432 294.3L179.496 294.588ZM184.428 296.01C184.14 295.452 183.474 294.624 182.862 294.048L181.962 294.48C182.574 295.074 183.222 295.92 183.492 296.496L184.428 296.01ZM177.21 292.554C177.552 292.176 177.876 291.798 178.146 291.384H185.49V286.038H180.522V287.028H184.266V288.234H180.792V289.188H184.266V290.412H175.806V289.188H179.244V288.234H175.806V287.082C177.066 286.812 178.488 286.452 179.55 286.002L178.704 285.138C177.912 285.516 176.598 285.912 175.41 286.218L174.6 286.038V291.384H176.67C175.554 292.806 173.7 293.94 171.846 294.66C172.098 294.912 172.494 295.47 172.638 295.722C173.358 295.398 174.096 295.002 174.78 294.552C174.51 295.686 173.988 296.856 173.16 297.54L174.168 298.152C175.14 297.342 175.608 295.974 175.914 294.678L174.996 294.408C175.356 294.174 175.698 293.922 176.022 293.652H185.706C185.562 295.866 185.382 296.784 185.112 297.072C184.968 297.216 184.824 297.234 184.518 297.216C184.194 297.234 183.384 297.216 182.52 297.144C182.736 297.45 182.862 297.954 182.898 298.296C183.78 298.35 184.644 298.368 185.076 298.314C185.58 298.296 185.904 298.188 186.21 297.864C186.642 297.396 186.858 296.172 187.056 293.094C187.074 292.914 187.092 292.554 187.092 292.554H177.21ZM180.63 283.392V281.952H179.316V283.392H172.422V286.56H173.646V284.562H186.336V286.56H187.596V283.392H180.63ZM203.958 287.154H198.558V283.86H203.958V287.154ZM205.272 282.69H197.334V288.306H205.272V282.69ZM196.614 291.798C196.254 291.384 194.724 289.8 194.166 289.332V288.234H196.416V286.974H194.166V283.932C195.012 283.734 195.804 283.482 196.452 283.212L195.516 282.204C194.202 282.798 191.844 283.32 189.828 283.644C189.99 283.95 190.17 284.382 190.242 284.688C191.07 284.562 191.988 284.418 192.87 284.238V286.974H189.936V288.234H192.69C191.97 290.286 190.728 292.608 189.594 293.868C189.81 294.192 190.134 294.714 190.26 295.092C191.178 293.994 192.132 292.194 192.87 290.376V298.332H194.166V290.628C194.778 291.366 195.516 292.356 195.804 292.86L196.614 291.798ZM201.906 296.694V294.372H205.488V293.202H201.906V291.06H205.884V289.872H196.668V291.06H200.574V293.202H197.082V294.372H200.574V296.694H195.858V297.9H206.28V296.694H201.906ZM223.236 284.22C222.696 283.608 221.562 282.69 220.644 282.078L219.744 282.816C220.662 283.464 221.778 284.436 222.3 285.066L223.236 284.22ZM213.21 290.556H216.576V289.26H208.692V290.556H211.896V295.776C210.456 296.064 209.142 296.334 208.134 296.532L208.548 297.846C210.834 297.342 214.128 296.586 217.17 295.848L217.062 294.678C215.766 294.966 214.47 295.218 213.21 295.488V290.556ZM223.974 286.578V285.282H218.646C218.592 284.22 218.574 283.14 218.574 282.024H217.17C217.188 283.122 217.206 284.22 217.26 285.282H208.062V286.578H217.35C217.818 293.238 219.312 298.404 222.246 298.404C223.614 298.404 224.118 297.486 224.352 294.372C223.974 294.228 223.47 293.94 223.164 293.634C223.056 296.028 222.84 297.018 222.354 297.018C220.572 297.018 219.15 292.644 218.718 286.578H223.974ZM234.126 285.912H235.404V284.562H238.14V285.93H239.436V284.562H241.938V283.428H239.436V281.952H238.14V283.428H235.404V281.952H234.126V283.428H231.516V284.562H234.126V285.912ZM231.606 290.862C231.282 290.304 229.932 288.036 229.464 287.352V286.65H231.318V285.39H229.464V281.934H228.186V285.39H225.972V286.65H228.186C227.7 289.08 226.674 291.942 225.63 293.436C225.864 293.76 226.188 294.336 226.332 294.732C226.998 293.67 227.664 292.032 228.186 290.286V298.368H229.464V289.152C229.95 290.088 230.508 291.24 230.76 291.852L231.606 290.862ZM233.496 289.494H239.724V290.772H233.496V289.494ZM233.496 287.262H239.724V288.54H233.496V287.262ZM241.92 294.408V293.274H236.97C237.06 292.806 237.15 292.302 237.204 291.78H241.002V286.254H232.254V291.78H235.89C235.818 292.302 235.746 292.824 235.638 293.274H231.12V294.408H235.242C234.558 295.776 233.28 296.73 230.652 297.324C230.886 297.576 231.228 298.08 231.336 298.368C234.468 297.612 235.908 296.352 236.628 294.444C237.528 296.406 239.184 297.738 241.488 298.368C241.668 298.026 242.046 297.522 242.334 297.27C240.3 296.838 238.77 295.848 237.888 294.408H241.92ZM244.692 292.14C244.494 293.724 244.116 295.326 243.522 296.424C243.81 296.514 244.35 296.766 244.566 296.928C245.16 295.776 245.592 294.048 245.844 292.356L244.692 292.14ZM249.516 290.826C249.678 291.204 249.786 291.546 249.858 291.852L250.92 291.348C250.668 290.376 249.876 288.846 249.138 287.694L248.148 288.126C248.454 288.612 248.76 289.17 249.03 289.728C248.04 289.764 247.05 289.818 246.15 289.854C247.392 288.306 248.832 286.182 249.876 284.49L248.724 283.986C248.22 284.958 247.536 286.128 246.798 287.262C246.51 286.884 246.132 286.452 245.7 286.02C246.384 285.048 247.14 283.608 247.752 282.402L246.564 281.952C246.186 282.942 245.556 284.292 244.962 285.3C244.782 285.138 244.602 284.976 244.422 284.832L243.738 285.714C244.584 286.47 245.538 287.478 246.096 288.288C245.7 288.882 245.286 289.422 244.89 289.89C244.476 289.908 244.062 289.926 243.702 289.926L243.81 291.132L246.744 290.988V298.404H247.95V290.916L249.516 290.826ZM248.598 292.392C249.084 293.508 249.588 294.948 249.75 295.884L250.812 295.524C250.65 294.588 250.128 293.166 249.606 292.068L248.598 292.392ZM253.062 293.202H257.634V296.64H253.062V293.202ZM257.634 284.166V287.478H253.062V284.166H257.634ZM257.634 291.996H253.062V288.684H257.634V291.996ZM258.948 296.64V282.96H251.766V296.64H249.858V297.864H260.334V296.64H258.948Z" fill="black"/>
<g clip-path="url(#clip1_358_192)">
<path d="M32 407.5C32 395.626 41.6259 386 53.5 386H321.5C333.374 386 343 395.626 343 407.5C343 419.374 333.374 429 321.5 429H53.5C41.6259 429 32 419.374 32 407.5Z" fill="#FFCD6E"/>
<rect x="32" y="445" width="311" height="43" rx="21.5" fill="#FFCD6E"/>
<rect x="32" y="504" width="311" height="43" rx="21.5" fill="#FFCD6E"/>
<rect x="32" y="563" width="311" height="43" rx="21.5" fill="#FFCD6E"/>
<rect x="32" y="622" width="311" height="43" rx="21.5" fill="#FFCD6E"/>
<rect x="32" y="681" width="311" height="43" rx="21.5" fill="#FFCD6E"/>
<path d="M153.456 525.322C156.57 525.232 161.34 525.034 165.876 524.782C166.344 525.304 166.758 525.79 167.046 526.222L168.198 525.448C167.226 524.098 165.138 522.172 163.374 520.84L162.294 521.506C163.086 522.118 163.932 522.856 164.706 523.594C162.258 523.684 159.774 523.774 157.596 523.846C158.226 522.802 158.892 521.506 159.468 520.372H168.342V519.094H161.196V516.934H159.864V519.094H152.826V520.372H157.884C157.434 521.506 156.768 522.874 156.174 523.9C155.13 523.936 154.194 523.954 153.384 523.972L153.456 525.322ZM157.542 525.808C157.29 529.138 156.588 531.19 152.412 532.216C152.7 532.468 153.06 533.008 153.186 533.35C157.722 532.108 158.64 529.678 158.946 525.808H157.542ZM164.346 531.982C163.644 531.982 163.518 531.874 163.518 531.334V525.7H162.168V531.334C162.168 532.81 162.6 533.242 164.184 533.242H166.74C168.27 533.242 168.63 532.468 168.792 529.444C168.414 529.336 167.856 529.12 167.55 528.868C167.46 531.568 167.352 531.982 166.65 531.982H164.346ZM174.012 523.576C173.382 523.018 172.104 522.334 171.06 521.92L170.304 522.892C171.366 523.36 172.644 524.116 173.256 524.674L174.012 523.576ZM171.888 533.152C172.662 531.496 173.562 529.3 174.228 527.428L173.148 526.726C172.428 528.742 171.402 531.046 170.682 532.432L171.888 533.152ZM171.078 518.086C172.086 518.59 173.328 519.418 173.904 520.012L174.696 518.95C174.084 518.356 172.86 517.6 171.852 517.132L171.078 518.086ZM178.656 519.832H182.526V521.344H178.656V519.832ZM183.84 522.496V519.832H186.72V518.644H183.84V516.934H182.526V518.644H178.656V516.934H177.378V518.644H174.696V519.832H177.378V522.496H179.934V523.774H175.11V533.332H176.28V524.926H179.934V530.254C179.178 529.462 178.746 527.896 178.674 525.952H176.964V526.87H177.99C178.008 527.104 178.026 527.338 178.062 527.554H177.756C177.63 528.652 177.198 529.858 176.334 530.542C176.514 530.65 176.802 530.92 176.928 531.1C177.612 530.524 178.044 529.714 178.314 528.814C178.548 529.732 178.926 530.47 179.412 530.974C179.52 530.794 179.754 530.578 179.934 530.434V533.17H181.14V524.926H184.974V530.254C184.11 529.498 183.588 527.95 183.498 525.952H181.788V526.87H182.814C182.832 527.104 182.868 527.32 182.886 527.536H182.598C182.472 528.598 182.04 529.75 181.158 530.398C181.356 530.524 181.644 530.794 181.752 530.974C182.436 530.416 182.886 529.624 183.156 528.76C183.426 529.696 183.84 530.416 184.362 530.92C184.488 530.722 184.776 530.488 184.974 530.344V532.054C184.974 532.27 184.902 532.306 184.686 532.306C184.47 532.324 183.768 532.324 183.012 532.306C183.156 532.612 183.3 533.026 183.354 533.332C184.452 533.332 185.172 533.314 185.604 533.152C186.036 532.972 186.162 532.666 186.162 532.054V523.774H181.14V522.496H183.84ZM193.758 521.866C193.524 524.224 193.056 526.204 192.372 527.824C191.688 527.338 190.968 526.888 190.284 526.492C190.644 525.07 191.022 523.468 191.382 521.866H193.758ZM194.316 520.588L194.082 520.642H191.652C191.922 519.4 192.174 518.194 192.39 517.096L191.112 516.952C190.914 518.068 190.662 519.346 190.374 520.642H188.412V521.866H190.122C189.618 524.116 189.078 526.33 188.646 527.878L189.762 528.454L189.96 527.698C190.59 528.094 191.22 528.526 191.814 528.976C190.968 530.524 189.87 531.64 188.556 532.324C188.844 532.594 189.204 533.08 189.384 533.404C190.788 532.558 191.94 531.388 192.84 529.786C193.596 530.416 194.244 531.046 194.676 531.586L195.486 530.524C195 529.93 194.28 529.264 193.434 528.616C194.316 526.6 194.874 524.026 195.108 520.768L194.316 520.588ZM204.846 524.152H200.562V522.55C201.93 521.488 203.46 519.868 204.468 518.428L203.586 517.78L203.316 517.87H195.612V519.094H202.344C201.624 520.012 200.67 521.038 199.77 521.758H199.23V524.152H195.018V525.394H199.23V531.676C199.23 531.946 199.14 532.036 198.834 532.054C198.528 532.072 197.52 532.072 196.386 532.036C196.584 532.378 196.818 532.972 196.89 533.332C198.312 533.332 199.248 533.296 199.806 533.098C200.382 532.882 200.562 532.486 200.562 531.676V525.394H204.846V524.152ZM221.442 522.892C219.804 522.118 216.996 520.984 214.71 520.21C214.764 520.084 214.818 519.94 214.872 519.796H221.712V518.608H215.196C215.304 518.104 215.394 517.528 215.448 516.934H214.08C214.026 517.546 213.936 518.104 213.828 518.608H207.474V519.796H213.432C212.658 521.452 210.984 522.37 207.186 522.838C207.402 523.09 207.69 523.594 207.798 523.882C211.164 523.432 213.036 522.586 214.116 521.2C216.366 521.992 218.994 523.108 220.47 523.846L221.442 522.892ZM214.278 527.77V530.218H209.706V527.77H214.278ZM215.574 531.316V526.672H208.428V532.486H209.706V531.316H215.574ZM222.594 524.008H206.574V525.232H218.76V531.73C218.76 532.036 218.67 532.108 218.31 532.144C217.95 532.144 216.708 532.162 215.34 532.108C215.538 532.486 215.772 533.008 215.844 533.386C217.5 533.386 218.616 533.368 219.264 533.17C219.912 532.954 220.11 532.576 220.11 531.748V525.232H222.594V524.008Z" fill="black"/>
<path d="M157.362 402.022C156.606 401.518 155.094 400.69 153.996 400.168L153.258 401.122C154.356 401.716 155.85 402.58 156.588 403.102L157.362 402.022ZM156.444 406.882C155.652 406.378 154.158 405.586 153.114 405.064L152.376 406.036C153.474 406.612 154.95 407.476 155.688 407.98L156.444 406.882ZM153.924 416.134C154.986 414.478 156.246 412.246 157.182 410.356L156.21 409.474C155.166 411.508 153.78 413.884 152.808 415.234L153.924 416.134ZM166.272 414.37H159.882V410.662H166.272V414.37ZM168.72 406.468V405.172H163.788V402.058C165.336 401.788 166.776 401.446 167.946 401.05L166.902 400.006C164.904 400.726 161.286 401.284 158.19 401.608C158.316 401.914 158.496 402.418 158.568 402.742C159.846 402.616 161.196 402.454 162.51 402.256V405.172H157.326V406.468H162.51V409.42H158.64V416.368H159.882V415.612H166.272V416.278H167.55V409.42H163.788V406.468H168.72ZM178.35 403.858C178.35 403.588 178.35 403.336 178.35 403.084V399.97H176.964V403.084C176.964 403.336 176.964 403.588 176.964 403.858H171.132V405.19H176.892C176.622 408.556 175.47 412.498 170.592 415.396C170.916 415.612 171.402 416.134 171.618 416.458C176.838 413.272 178.026 408.916 178.278 405.19H184.416C184.074 411.526 183.678 414.064 183.03 414.676C182.814 414.892 182.58 414.946 182.202 414.946C181.752 414.946 180.6 414.928 179.376 414.82C179.646 415.216 179.808 415.792 179.826 416.188C180.924 416.26 182.076 416.296 182.706 416.242C183.39 416.17 183.822 416.026 184.236 415.522C185.028 414.622 185.406 411.94 185.802 404.56C185.82 404.362 185.838 403.858 185.838 403.858H178.35ZM189.456 408.322C192.57 408.232 197.34 408.034 201.876 407.782C202.344 408.304 202.758 408.79 203.046 409.222L204.198 408.448C203.226 407.098 201.138 405.172 199.374 403.84L198.294 404.506C199.086 405.118 199.932 405.856 200.706 406.594C198.258 406.684 195.774 406.774 193.596 406.846C194.226 405.802 194.892 404.506 195.468 403.372H204.342V402.094H197.196V399.934H195.864V402.094H188.826V403.372H193.884C193.434 404.506 192.768 405.874 192.174 406.9C191.13 406.936 190.194 406.954 189.384 406.972L189.456 408.322ZM193.542 408.808C193.29 412.138 192.588 414.19 188.412 415.216C188.7 415.468 189.06 416.008 189.186 416.35C193.722 415.108 194.64 412.678 194.946 408.808H193.542ZM200.346 414.982C199.644 414.982 199.518 414.874 199.518 414.334V408.7H198.168V414.334C198.168 415.81 198.6 416.242 200.184 416.242H202.74C204.27 416.242 204.63 415.468 204.792 412.444C204.414 412.336 203.856 412.12 203.55 411.868C203.46 414.568 203.352 414.982 202.65 414.982H200.346ZM210.12 406.864C209.418 406.36 208.032 405.568 207.06 405.046L206.376 406.036C207.42 406.612 208.788 407.44 209.454 407.98L210.12 406.864ZM207.906 416.152C208.878 414.478 210.03 412.246 210.912 410.374L210.048 409.492C209.076 411.508 207.78 413.884 206.88 415.252L207.906 416.152ZM207.168 401.176C208.194 401.752 209.616 402.616 210.3 403.174L211.002 402.094C210.282 401.554 208.878 400.744 207.834 400.204L207.168 401.176ZM222.756 403.894V402.598H217.536V399.934H216.186V402.598H211.218V403.894H216.186V406.09H211.992V414.064H213.306V407.386H216.186V416.404H217.536V407.386H220.56V412.444C220.56 412.642 220.506 412.696 220.29 412.696C220.056 412.714 219.372 412.714 218.598 412.696C218.778 413.074 218.94 413.596 218.994 413.992C220.092 413.992 220.83 413.974 221.298 413.74C221.766 413.524 221.874 413.146 221.874 412.462V406.09H217.536V403.894H222.756Z" fill="black"/>
<path d="M170.384 465.34C170.834 464.062 171.176 461.974 171.266 460.534L170.24 460.39C170.114 461.848 169.79 463.792 169.322 464.98L170.384 465.34ZM171.95 473.368H173.246V456.934H171.95V473.368ZM173.426 460.228C173.948 461.308 174.488 462.73 174.704 463.594L175.73 463.108C175.514 462.262 174.938 460.876 174.398 459.796L173.426 460.228ZM177.602 471.136V466.798H183.884V471.136H177.602ZM183.884 461.452V465.538H177.602V461.452H183.884ZM180.644 460.156C180.95 459.292 181.274 458.23 181.562 457.258L180.032 457.06C179.888 457.96 179.582 459.202 179.294 460.156H176.306V473.368H177.602V472.45H183.884V473.224H185.216V460.156H180.644ZM196.286 471.514V466.942H202.064V465.646H196.286V461.722H202.73V460.408H196.286V456.952H194.918V460.408H191.264C191.66 459.49 191.984 458.518 192.272 457.528L190.922 457.24C190.22 459.796 189.068 462.28 187.592 463.864C187.952 464.044 188.546 464.44 188.816 464.656C189.482 463.846 190.112 462.856 190.688 461.722H194.918V465.646H189.572V466.942H194.918V471.514H187.628V472.81H203.576V471.514H196.286Z" fill="black"/>
<path d="M184.938 576.554C184.884 578.048 184.812 578.624 184.686 578.822C184.596 578.912 184.488 578.93 184.308 578.93C184.146 578.93 183.786 578.93 183.336 578.876C183.498 579.182 183.606 579.668 183.624 579.992C184.11 580.01 184.614 579.992 184.884 579.974C185.244 579.938 185.496 579.83 185.694 579.578C185.982 579.218 186.072 578.3 186.144 575.996C186.162 575.834 186.162 575.51 186.162 575.51H180.438V576.554H182.022C181.806 577.85 181.266 578.912 179.952 579.542C180.204 579.722 180.528 580.118 180.672 580.388C182.274 579.578 182.922 578.246 183.192 576.554H184.938ZM181.896 585.824H184.758V587.066H181.896V585.824ZM181.896 583.718H184.758V584.942H181.896V583.718ZM181.896 581.612H184.758V582.818H181.896V581.612ZM180.798 588.038H185.892V580.64H180.798V588.038ZM170.502 578.066C170.502 579.632 170.25 581.576 169.692 582.674L170.538 583.052C171.15 581.81 171.402 579.776 171.384 578.192L170.502 578.066ZM171.942 591.35H173.166V574.934H171.942V591.35ZM175.704 580.91H176.964V583.79H175.704V580.91ZM179.106 583.79H177.882V580.91H179.106V583.79ZM180.51 587.606C180.15 587.192 178.62 585.608 178.008 585.05V584.852H180.096V579.848H178.008V578.012H180.222V576.914H178.008V574.952H176.82V576.914H174.624V578.012H176.82V579.848H174.858C174.768 579.2 174.498 578.264 174.192 577.49L173.364 577.76C173.688 578.588 173.958 579.704 173.994 580.388L174.75 580.082V584.852H176.388C175.794 586.382 174.858 588.002 173.922 588.902C174.138 589.226 174.408 589.73 174.534 590.09C175.38 589.19 176.208 587.678 176.82 586.166V591.368H178.008V586.328C178.674 587.084 179.52 588.056 179.862 588.56L180.51 587.606ZM181.608 588.326C181.104 589.172 180.24 590.018 179.34 590.594C179.61 590.792 180.06 591.206 180.276 591.44C181.194 590.756 182.166 589.694 182.778 588.668L181.608 588.326ZM183.768 588.74C184.452 589.55 185.244 590.666 185.604 591.368L186.666 590.81C186.306 590.126 185.496 589.046 184.776 588.272L183.768 588.74ZM191.238 578.246H193.56V580.37H191.238V578.246ZM196.656 580.37H194.802V578.246H196.62V577.112H194.802V575.114H193.56V577.112H191.238V575.114H190.014V577.112H188.214V578.246H190.014V580.37H187.926V581.522H196.656V580.37ZM190.446 587.318V586.058H194.37V587.318H190.446ZM194.37 583.772V585.032H190.446V583.772H194.37ZM195.612 582.71H189.204V591.386H190.446V588.362H194.37V589.964C194.37 590.162 194.298 590.234 194.082 590.252C193.884 590.252 193.2 590.27 192.408 590.234C192.57 590.558 192.75 591.026 192.786 591.35C193.884 591.35 194.604 591.35 195.036 591.152C195.486 590.954 195.612 590.63 195.612 589.982V582.71ZM198.78 579.524H201.858C201.552 581.756 201.084 583.682 200.364 585.32C199.608 583.646 199.104 581.702 198.744 579.65L198.78 579.524ZM204.36 579.524V578.264H199.122C199.374 577.256 199.572 576.194 199.752 575.132L198.456 574.934C198.006 577.958 197.232 580.928 195.954 582.836C196.224 583.088 196.692 583.646 196.872 583.934C197.304 583.268 197.7 582.512 198.024 581.702C198.438 583.52 198.942 585.212 199.608 586.688C198.69 588.2 197.412 589.388 195.684 590.27C195.954 590.522 196.35 591.116 196.476 591.404C198.078 590.486 199.338 589.37 200.31 587.984C201.156 589.424 202.218 590.576 203.55 591.386C203.766 591.026 204.18 590.504 204.504 590.252C203.082 589.478 201.948 588.272 201.066 586.742C202.11 584.798 202.758 582.404 203.154 579.524H204.36Z" fill="black"/>
<path d="M155.832 638.722H164.67V640.504H155.832V638.722ZM155.832 635.878H164.67V637.66H155.832V635.878ZM156.966 643.15C157.344 642.664 157.74 642.16 158.046 641.638H166.02V634.762H154.518V641.638H156.498C155.364 643.294 153.636 644.77 151.89 645.76C152.214 645.976 152.718 646.444 152.934 646.696C153.924 646.084 154.932 645.274 155.85 644.356H158.352C157.164 646.282 155.328 647.974 153.402 649.054C153.708 649.288 154.212 649.774 154.428 650.008C156.48 648.694 158.514 646.678 159.828 644.356H162.258C161.394 646.498 160.026 648.406 158.37 649.648C158.694 649.828 159.216 650.26 159.45 650.476C161.16 649.054 162.672 646.876 163.626 644.356H165.822C165.534 647.452 165.228 648.73 164.832 649.09C164.67 649.27 164.49 649.288 164.184 649.288C163.86 649.288 163.032 649.288 162.168 649.198C162.366 649.522 162.51 650.008 162.528 650.368C163.428 650.422 164.292 650.422 164.742 650.386C165.264 650.368 165.606 650.242 165.948 649.882C166.488 649.324 166.848 647.776 167.19 643.762C167.226 643.564 167.244 643.15 167.244 643.15H156.966ZM173.202 640.576C173.22 639.766 173.256 638.938 173.256 638.11H177.612V636.868H174.48V633.97H173.166V636.868H169.998V638.11H171.942C171.888 642.7 171.69 647.074 169.746 649.486C170.07 649.72 170.538 650.152 170.736 650.44C172.356 648.406 172.914 645.31 173.13 641.8H175.434C175.326 646.768 175.2 648.532 174.894 648.946C174.75 649.144 174.606 649.198 174.336 649.18C174.066 649.18 173.382 649.18 172.644 649.126C172.86 649.45 172.986 649.972 173.004 650.332C173.76 650.368 174.516 650.368 174.948 650.332C175.416 650.278 175.74 650.152 176.01 649.756C176.478 649.144 176.604 647.128 176.73 641.206C176.748 641.008 176.748 640.576 176.748 640.576H173.202ZM178.242 646.516C180.42 647.524 183.048 649.162 184.29 650.368L185.154 649.216C183.858 648.01 181.212 646.444 179.052 645.49L178.242 646.516ZM183.894 643.51C183.228 642.682 181.77 641.566 180.546 640.828L179.682 641.674C180.906 642.448 182.328 643.618 182.976 644.446L183.894 643.51ZM180.888 633.952C180.222 636.382 178.638 639.082 176.838 640.486C177.09 640.81 177.396 641.35 177.54 641.71C179.358 640.216 180.888 637.66 181.626 635.482C182.472 637.75 184.038 640.216 185.838 641.674C186.018 641.278 186.306 640.738 186.54 640.396C184.83 639.154 183.174 636.58 182.238 633.952H180.888ZM195.756 635.824H192.714V633.988H191.436V635.824H188.286V636.958H195.756V635.824ZM189.384 637.264C189.744 638.11 190.014 639.244 190.086 639.982L191.202 639.694C191.13 638.974 190.806 637.858 190.41 637.03L189.384 637.264ZM193.686 636.994C193.524 637.804 193.146 638.974 192.894 639.712L193.92 639.982C194.226 639.28 194.586 638.218 194.892 637.282L193.686 636.994ZM195.81 647.092C195.378 646.678 193.506 645.112 192.75 644.536V644.104H195.81V642.97H192.75V641.134H195.954V639.982H187.926V641.134H191.472V642.97H188.106V644.104H191.13C190.32 645.688 188.988 647.272 187.746 648.118C188.034 648.37 188.358 648.82 188.538 649.144C189.564 648.334 190.644 647.056 191.472 645.724V650.35H192.75V645.814C193.56 646.588 194.568 647.578 194.982 648.082L195.81 647.092ZM197.79 641.8H202.29V643.672H197.79V641.8ZM197.79 638.83H202.29V640.702H197.79V638.83ZM197.79 635.914H202.29V637.768H197.79V635.914ZM202.002 648.964C201.678 648.964 201.624 648.91 201.624 648.496V644.878H203.55V634.726H196.566V644.878H197.736C197.52 647.128 196.926 648.604 194.55 649.432C194.82 649.666 195.162 650.134 195.306 650.422C197.97 649.378 198.726 647.596 198.978 644.878H200.4V648.514C200.4 649.756 200.67 650.152 201.822 650.152H203.118C204.108 650.152 204.45 649.558 204.522 647.092C204.198 647.002 203.676 646.804 203.424 646.606C203.388 648.712 203.334 648.964 202.974 648.964H202.002ZM217.554 640.468V647.848H218.886V640.468H222.216V639.226H213.918V636.49C216.438 636.166 219.264 635.68 221.226 635.014L220.092 634.006C218.616 634.564 216.042 635.05 213.684 635.392L212.622 635.158V639.316C212.622 641.512 212.388 644.356 210.426 646.48C210.75 646.66 211.218 647.11 211.38 647.398C213.252 645.4 213.774 642.7 213.882 640.468H217.554ZM210.39 637.156C209.76 636.292 208.41 635.14 207.258 634.384L206.268 635.194C207.438 635.986 208.77 637.174 209.328 638.038L210.39 637.156ZM209.886 640.99H206.07V642.25H208.572V646.804C207.672 647.56 206.664 648.316 205.836 648.856L206.556 650.206C207.51 649.432 208.41 648.658 209.274 647.902C210.426 649.288 212.028 649.936 214.368 650.026C216.348 650.098 220.038 650.062 222 649.99C222.054 649.576 222.288 648.946 222.432 648.622C220.326 648.766 216.33 648.82 214.368 648.748C212.298 648.658 210.732 648.046 209.886 646.732V640.99Z" fill="black"/>
<path d="M167.712 694.86C168.18 695.562 168.63 696.498 168.756 697.11H165.57L166.164 696.858C165.984 696.3 165.534 695.544 165.03 694.95C165.984 694.896 166.956 694.842 167.928 694.788L167.712 694.86ZM162.87 698.19H167.982L167.46 698.748C168.414 699.162 169.566 699.846 170.124 700.332L170.826 699.522C170.322 699.09 169.368 698.586 168.522 698.19H175.344V700.35H176.64V697.11H173.4C173.922 696.462 174.48 695.688 174.966 694.95L173.706 694.464C173.31 695.238 172.59 696.372 172.05 697.11H168.81L169.926 696.714C169.782 696.156 169.404 695.364 168.954 694.698C171.492 694.518 173.904 694.23 175.74 693.87L174.858 692.934C171.96 693.51 166.578 693.888 162.186 694.014C162.312 694.266 162.438 694.734 162.474 695.04C163.068 695.022 163.68 695.004 164.31 694.968L163.788 695.184C164.238 695.76 164.724 696.534 164.94 697.11H161.628V700.224H162.87V698.19ZM172.482 699.666C173.526 700.494 174.714 701.718 175.254 702.528L176.208 701.79C175.668 700.98 174.444 699.828 173.4 699.036L172.482 699.666ZM162.996 702.744C164.202 702.042 164.868 700.854 165.282 699.684L164.274 699.252C163.878 700.332 163.158 701.394 162.078 701.97L162.996 702.744ZM172.014 704.544C171.276 705.3 170.304 705.93 169.17 706.434C167.982 705.912 166.992 705.282 166.236 704.544H172.014ZM173.148 703.5L172.932 703.554H167.334C167.712 703.212 168.036 702.852 168.342 702.474L168.018 702.366H170.934C172.104 702.366 172.446 702.024 172.572 700.566C172.23 700.494 171.762 700.368 171.51 700.188C171.438 701.25 171.33 701.376 170.772 701.376H168.144C167.388 701.376 167.262 701.304 167.262 700.944V699.234H166.02V700.962C166.02 701.79 166.236 702.168 166.992 702.294C165.678 703.806 163.518 705.084 161.412 705.894C161.664 706.11 162.15 706.542 162.348 706.776C163.32 706.344 164.346 705.786 165.3 705.156C165.984 705.858 166.812 706.47 167.748 706.992C165.786 707.658 163.5 708.072 161.16 708.288C161.412 708.558 161.736 709.098 161.862 709.404C164.436 709.08 166.992 708.558 169.152 707.676C171.258 708.558 173.778 709.116 176.424 709.386C176.604 709.044 176.91 708.486 177.198 708.216C174.804 708.036 172.536 707.622 170.61 706.992C172.014 706.236 173.166 705.264 173.994 704.058L173.148 703.5ZM183.696 700.62C183.138 700.8 182.598 700.98 182.058 701.16V697.794H183.696V696.552H182.058V692.952H180.888V696.552H178.944V697.794H180.888V701.556C180.06 701.826 179.304 702.06 178.674 702.24L179.034 703.536L180.888 702.888V707.892C180.888 708.126 180.798 708.198 180.564 708.198C180.384 708.216 179.7 708.216 178.944 708.198C179.106 708.558 179.268 709.062 179.322 709.386C180.402 709.386 181.068 709.35 181.464 709.152C181.896 708.936 182.058 708.594 182.058 707.892V702.492L183.894 701.844L183.696 700.62ZM189.204 700.62C189.42 700.872 189.654 701.16 189.762 701.322C190.014 700.926 190.248 700.476 190.464 699.972C190.698 701.646 191.094 703.374 191.706 704.958C191.094 706.308 190.284 707.478 189.186 708.396C189.204 708.306 189.204 708.18 189.204 708.054V700.62ZM193.344 697.614C193.128 699.792 192.822 701.754 192.264 703.446C191.67 701.664 191.328 699.738 191.148 697.992C191.184 697.866 191.22 697.74 191.256 697.614H193.344ZM185.316 705.03V703.626H188.088V705.03H185.316ZM188.088 701.232V702.618H185.316V701.232H188.088ZM185.946 696.066H187.512V698.154H185.946V696.066ZM195.27 697.614V696.426H191.526C191.76 695.364 191.94 694.248 192.084 693.15L190.932 692.97C190.698 694.932 190.338 696.876 189.798 698.478V698.154H188.61V696.066H189.654V695.004H188.61V693.168H187.512V695.004H185.946V693.168H184.848V695.004H183.66V696.066H184.848V698.154H183.372V699.234H189.51C189.366 699.576 189.204 699.882 189.042 700.188H184.182V709.296H185.316V706.02H188.088V708.036C188.088 708.198 188.052 708.252 187.89 708.27C187.71 708.27 187.278 708.27 186.738 708.252C186.9 708.54 187.062 708.954 187.116 709.26C187.872 709.26 188.412 709.242 188.754 709.062C188.97 708.954 189.078 708.81 189.15 708.612C189.402 708.846 189.726 709.242 189.852 709.44C190.86 708.558 191.67 707.496 192.3 706.308C192.93 707.514 193.74 708.612 194.784 709.422C194.946 709.116 195.342 708.648 195.594 708.432C194.424 707.586 193.542 706.398 192.912 705.012C193.74 702.96 194.208 700.494 194.514 697.614H195.27ZM201.3 697.848C201.138 700.152 200.796 702.096 200.256 703.698C199.698 703.212 199.122 702.744 198.564 702.33C198.852 700.944 199.158 699.396 199.446 697.848H201.3ZM201.822 696.606L201.588 696.642H199.662C199.896 695.382 200.094 694.158 200.274 693.06L199.05 692.952C198.888 694.068 198.69 695.346 198.456 696.642H196.926V697.848H198.258C197.844 700.08 197.412 702.258 197.034 703.788L198.114 704.418L198.294 703.644C198.78 704.04 199.284 704.49 199.77 704.94C199.068 706.506 198.132 707.622 196.998 708.324C197.286 708.594 197.628 709.062 197.808 709.386C199.032 708.558 200.004 707.424 200.742 705.894C201.39 706.578 201.948 707.226 202.308 707.784L203.154 706.722C202.722 706.092 202.056 705.354 201.264 704.616C201.984 702.6 202.416 700.008 202.578 696.714L201.822 696.606ZM209.328 705.066V706.614H206.628V705.066H209.328ZM210.3 707.514V704.166H205.674V708.27H206.628V707.514H210.3ZM212.766 702.222H203.19V709.386H204.396V703.266H211.56V708.036C211.56 708.216 211.506 708.288 211.308 708.288C211.11 708.288 210.462 708.288 209.724 708.27C209.886 708.576 210.048 709.044 210.102 709.35C211.146 709.35 211.812 709.332 212.244 709.152C212.658 708.972 212.766 708.63 212.766 708.054V702.222ZM209.76 700.44H206.142V698.892H209.76V700.44ZM209.058 696.84C209.292 697.236 209.562 697.614 209.886 697.992H206.286C206.592 697.632 206.844 697.254 207.096 696.84H209.058ZM213.198 696.84V695.832H207.6C207.78 695.418 207.942 694.968 208.068 694.5C209.67 694.374 211.182 694.176 212.352 693.924L211.416 693.042C209.58 693.456 206.07 693.69 203.208 693.762C203.334 694.014 203.478 694.428 203.514 694.698C204.558 694.698 205.674 694.662 206.79 694.59C206.664 695.022 206.502 695.436 206.304 695.832H202.866V696.84H205.71C204.918 697.974 203.82 698.838 202.506 699.432C202.758 699.63 203.154 700.134 203.298 700.368C203.91 700.062 204.468 699.684 204.99 699.27V701.34H210.984V699.108C211.542 699.594 212.136 699.99 212.73 700.296C212.928 699.99 213.288 699.558 213.558 699.36C212.316 698.856 211.074 697.902 210.264 696.84H213.198Z" fill="black"/>
<path d="M329.064 467.325H314.337C313.598 467.325 313 466.732 313 466C313 465.268 313.598 464.675 314.337 464.675H329.064C329.802 464.675 330.4 465.268 330.4 466C330.4 466.732 329.802 467.325 329.064 467.325Z" fill="white"/>
<path d="M321.7 475C320.962 475 320.364 474.407 320.364 473.675V458.325C320.364 457.594 320.962 457 321.7 457C322.438 457 323.036 457.593 323.036 458.325V473.675C323.036 474.407 322.438 475 321.7 475Z" fill="white"/>
<path d="M329.064 408.325H314.337C313.598 408.325 313 407.732 313 407C313 406.268 313.598 405.675 314.337 405.675H329.064C329.802 405.675 330.4 406.268 330.4 407C330.4 407.732 329.802 408.325 329.064 408.325Z" fill="white"/>
<path d="M321.7 416C320.962 416 320.364 415.407 320.364 414.675V399.325C320.364 398.594 320.962 398 321.7 398C322.438 398 323.036 398.593 323.036 399.325V414.675C323.036 415.407 322.438 416 321.7 416Z" fill="white"/>
<path d="M329.064 526.325H314.337C313.598 526.325 313 525.732 313 525C313 524.268 313.598 523.675 314.337 523.675H329.064C329.802 523.675 330.4 524.268 330.4 525C330.4 525.732 329.802 526.325 329.064 526.325Z" fill="white"/>
<path d="M321.7 534C320.962 534 320.364 533.407 320.364 532.675V517.325C320.364 516.594 320.962 516 321.7 516C322.438 516 323.036 516.593 323.036 517.325V532.675C323.036 533.407 322.438 534 321.7 534Z" fill="white"/>
<path d="M329.064 585.325H314.337C313.598 585.325 313 584.732 313 584C313 583.268 313.598 582.675 314.337 582.675H329.064C329.802 582.675 330.4 583.268 330.4 584C330.4 584.732 329.802 585.325 329.064 585.325Z" fill="white"/>
<path d="M321.7 593C320.962 593 320.364 592.407 320.364 591.675V576.325C320.364 575.594 320.962 575 321.7 575C322.438 575 323.036 575.593 323.036 576.325V591.675C323.036 592.407 322.438 593 321.7 593Z" fill="white"/>
<path d="M329.064 645.325H314.337C313.598 645.325 313 644.732 313 644C313 643.268 313.598 642.675 314.337 642.675H329.064C329.802 642.675 330.4 643.268 330.4 644C330.4 644.732 329.802 645.325 329.064 645.325Z" fill="white"/>
<path d="M321.7 653C320.962 653 320.364 652.407 320.364 651.675V636.325C320.364 635.594 320.962 635 321.7 635C322.438 635 323.036 635.593 323.036 636.325V651.675C323.036 652.407 322.438 653 321.7 653Z" fill="white"/>
<path d="M329.064 704.325H314.337C313.598 704.325 313 703.732 313 703C313 702.268 313.598 701.675 314.337 701.675H329.064C329.802 701.675 330.4 702.268 330.4 703C330.4 703.732 329.802 704.325 329.064 704.325Z" fill="white"/>
<path d="M321.7 712C320.962 712 320.364 711.407 320.364 710.675V695.325C320.364 694.594 320.962 694 321.7 694C322.438 694 323.036 694.593 323.036 695.325V710.675C323.036 711.407 322.438 712 321.7 712Z" fill="white"/>
</g>
<path d="M17 347C17 333.193 28.1929 322 42 322H335C348.807 322 360 333.193 360 347V365H17V347Z" fill="#FEA735"/>
<path d="M150.084 337.742H146.628V339.614C146.628 340.694 147.006 340.964 148.338 340.964H150.75C151.704 340.964 152.046 340.64 152.172 339.434C151.848 339.362 151.416 339.218 151.182 339.056C151.128 339.902 151.038 340.01 150.606 340.01H148.464C147.87 340.01 147.762 339.938 147.762 339.596V338.678H151.272V335.636H146.286V336.572H150.084V337.742ZM144.288 337.742H140.76V339.614C140.76 340.694 141.102 340.964 142.434 340.964H144.666C145.584 340.964 145.926 340.658 146.052 339.488C145.728 339.434 145.296 339.29 145.062 339.11C145.008 339.902 144.918 340.01 144.486 340.01H142.542C141.966 340.01 141.876 339.938 141.876 339.614V338.678H145.422V335.636H140.436V336.572H144.288V337.742ZM144.576 343.52H147.528V345.23H144.576V343.52ZM152.064 345.23H148.806V343.52H151.506V342.494H148.806V341.198H147.528V342.494H144.576V341.198H143.334V342.494H140.67V343.52H143.334V345.23H140.094V346.274H152.064V345.23ZM151.794 348.668C150.948 348.002 149.472 347.138 148.158 346.508L147.204 347.102C148.446 347.732 149.742 348.578 150.498 349.244L151.794 348.668ZM143.928 346.472C143.136 347.192 141.804 347.876 140.58 348.362C140.868 348.542 141.354 348.974 141.57 349.208C142.758 348.632 144.198 347.75 145.116 346.886L143.928 346.472ZM139.752 338.354C139.248 337.454 138.06 336.212 136.998 335.366L135.972 336.05C137.016 336.932 138.168 338.21 138.636 339.11L139.752 338.354ZM139.338 341.99H135.882V343.25H138.096V347.894C137.304 348.65 136.422 349.406 135.666 349.964L136.368 351.206C137.232 350.414 138.042 349.658 138.798 348.866C139.914 350.288 141.552 350.936 143.928 351.026C145.962 351.098 149.85 351.062 151.884 350.972C151.938 350.594 152.154 350 152.316 349.712C150.12 349.856 145.926 349.91 143.892 349.82C141.786 349.73 140.184 349.118 139.338 347.768V341.99ZM159.084 342.512C158.49 342.71 157.896 342.908 157.302 343.088V339.776H159.228V338.552H157.302V334.952H156.06V338.552H153.81V339.776H156.06V343.466C155.124 343.754 154.26 344.024 153.576 344.204L153.918 345.5L156.06 344.798V349.82C156.06 350.09 155.97 350.144 155.754 350.144C155.538 350.162 154.836 350.162 154.062 350.144C154.242 350.504 154.404 351.062 154.458 351.368C155.574 351.386 156.258 351.332 156.69 351.134C157.14 350.918 157.302 350.558 157.302 349.82V344.402L159.264 343.754L159.084 342.512ZM166.482 345.662H162.864L163.368 345.518C163.278 345.086 162.99 344.438 162.72 343.952H166.806C166.608 344.456 166.302 345.104 166.068 345.536L166.482 345.662ZM163.908 336.644H165.69V338.534H163.908V336.644ZM162.828 338.534H161.118V336.644H162.828V338.534ZM166.77 336.644H168.588V338.534H166.77V336.644ZM170.244 342.89H165.348V341.612H169.362V340.604H165.348V339.488H169.704V335.672H160.02V339.488H164.088V340.604H160.218V341.612H164.088V342.89H159.336V343.952H162.288L161.55 344.132C161.802 344.582 162.054 345.194 162.18 345.662H159.498V346.706H164.088V347.984H159.876V349.028H164.088V351.512H165.348V349.028H169.596V347.984H165.348V346.706H169.992V345.662H167.202C167.49 345.194 167.814 344.618 168.156 344.024L167.886 343.952H170.244V342.89ZM185.958 340.154H180.558V336.86H185.958V340.154ZM187.272 335.69H179.334V341.306H187.272V335.69ZM178.614 344.798C178.254 344.384 176.724 342.8 176.166 342.332V341.234H178.416V339.974H176.166V336.932C177.012 336.734 177.804 336.482 178.452 336.212L177.516 335.204C176.202 335.798 173.844 336.32 171.828 336.644C171.99 336.95 172.17 337.382 172.242 337.688C173.07 337.562 173.988 337.418 174.87 337.238V339.974H171.936V341.234H174.69C173.97 343.286 172.728 345.608 171.594 346.868C171.81 347.192 172.134 347.714 172.26 348.092C173.178 346.994 174.132 345.194 174.87 343.376V351.332H176.166V343.628C176.778 344.366 177.516 345.356 177.804 345.86L178.614 344.798ZM183.906 349.694V347.372H187.488V346.202H183.906V344.06H187.884V342.872H178.668V344.06H182.574V346.202H179.082V347.372H182.574V349.694H177.858V350.9H188.28V349.694H183.906ZM205.236 337.22C204.696 336.608 203.562 335.69 202.644 335.078L201.744 335.816C202.662 336.464 203.778 337.436 204.3 338.066L205.236 337.22ZM195.21 343.556H198.576V342.26H190.692V343.556H193.896V348.776C192.456 349.064 191.142 349.334 190.134 349.532L190.548 350.846C192.834 350.342 196.128 349.586 199.17 348.848L199.062 347.678C197.766 347.966 196.47 348.218 195.21 348.488V343.556ZM205.974 339.578V338.282H200.646C200.592 337.22 200.574 336.14 200.574 335.024H199.17C199.188 336.122 199.206 337.22 199.26 338.282H190.062V339.578H199.35C199.818 346.238 201.312 351.404 204.246 351.404C205.614 351.404 206.118 350.486 206.352 347.372C205.974 347.228 205.47 346.94 205.164 346.634C205.056 349.028 204.84 350.018 204.354 350.018C202.572 350.018 201.15 345.644 200.718 339.578H205.974ZM216.126 338.912H217.404V337.562H220.14V338.93H221.436V337.562H223.938V336.428H221.436V334.952H220.14V336.428H217.404V334.952H216.126V336.428H213.516V337.562H216.126V338.912ZM213.606 343.862C213.282 343.304 211.932 341.036 211.464 340.352V339.65H213.318V338.39H211.464V334.934H210.186V338.39H207.972V339.65H210.186C209.7 342.08 208.674 344.942 207.63 346.436C207.864 346.76 208.188 347.336 208.332 347.732C208.998 346.67 209.664 345.032 210.186 343.286V351.368H211.464V342.152C211.95 343.088 212.508 344.24 212.76 344.852L213.606 343.862ZM215.496 342.494H221.724V343.772H215.496V342.494ZM215.496 340.262H221.724V341.54H215.496V340.262ZM223.92 347.408V346.274H218.97C219.06 345.806 219.15 345.302 219.204 344.78H223.002V339.254H214.254V344.78H217.89C217.818 345.302 217.746 345.824 217.638 346.274H213.12V347.408H217.242C216.558 348.776 215.28 349.73 212.652 350.324C212.886 350.576 213.228 351.08 213.336 351.368C216.468 350.612 217.908 349.352 218.628 347.444C219.528 349.406 221.184 350.738 223.488 351.368C223.668 351.026 224.046 350.522 224.334 350.27C222.3 349.838 220.77 348.848 219.888 347.408H223.92ZM226.692 345.14C226.494 346.724 226.116 348.326 225.522 349.424C225.81 349.514 226.35 349.766 226.566 349.928C227.16 348.776 227.592 347.048 227.844 345.356L226.692 345.14ZM231.516 343.826C231.678 344.204 231.786 344.546 231.858 344.852L232.92 344.348C232.668 343.376 231.876 341.846 231.138 340.694L230.148 341.126C230.454 341.612 230.76 342.17 231.03 342.728C230.04 342.764 229.05 342.818 228.15 342.854C229.392 341.306 230.832 339.182 231.876 337.49L230.724 336.986C230.22 337.958 229.536 339.128 228.798 340.262C228.51 339.884 228.132 339.452 227.7 339.02C228.384 338.048 229.14 336.608 229.752 335.402L228.564 334.952C228.186 335.942 227.556 337.292 226.962 338.3C226.782 338.138 226.602 337.976 226.422 337.832L225.738 338.714C226.584 339.47 227.538 340.478 228.096 341.288C227.7 341.882 227.286 342.422 226.89 342.89C226.476 342.908 226.062 342.926 225.702 342.926L225.81 344.132L228.744 343.988V351.404H229.95V343.916L231.516 343.826ZM230.598 345.392C231.084 346.508 231.588 347.948 231.75 348.884L232.812 348.524C232.65 347.588 232.128 346.166 231.606 345.068L230.598 345.392ZM235.062 346.202H239.634V349.64H235.062V346.202ZM239.634 337.166V340.478H235.062V337.166H239.634ZM239.634 344.996H235.062V341.684H239.634V344.996ZM240.948 349.64V335.96H233.766V349.64H231.858V350.864H242.334V349.64H240.948Z" fill="black"/>
<circle cx="372" cy="151" r="50" fill="#FFEBCC"/>
<path d="M359.609 187.124V145.253C359.609 145.253 358.562 130.687 373.562 126.937C373.562 126.937 351.966 121.862 353.101 139.565C353.101 139.565 338.517 143.372 348.817 154.627C348.817 154.627 336.71 161.106 348.205 169.689C348.205 169.689 339.353 180.437 354.638 186.467C354.638 186.467 356.803 187.378 359.609 187.124Z" fill="#DBA8CC" stroke="#040000" stroke-width="2" stroke-miterlimit="10"/>
<path d="M365.288 131.365C365.288 131.365 363.571 128.753 360.585 128.081C360.585 128.081 356.301 126.887 356.376 130.246C356.376 130.246 357.107 135.396 361.003 137.202C361.003 137.202 362.81 132.634 365.288 131.365Z" fill="white" stroke="black" stroke-width="2" stroke-miterlimit="10"/>
<path d="M359.609 187.124V143.924C359.609 143.924 359.609 127.161 378.671 126.907C378.671 126.907 396.778 127.161 397.405 143.611L397.659 187.124" fill="white"/>
<path d="M359.609 187.124V143.924C359.609 143.924 359.609 127.161 378.671 126.907C378.671 126.907 396.778 127.161 397.405 143.611L397.659 187.124H359.609Z" stroke="black" stroke-width="2" stroke-miterlimit="10"/>
<path d="M368.76 147.432C370.375 147.432 371.685 146.122 371.685 144.506C371.685 142.891 370.375 141.581 368.76 141.581C367.144 141.581 365.834 142.891 365.834 144.506C365.834 146.122 367.144 147.432 368.76 147.432Z" fill="black" stroke="black" stroke-miterlimit="10"/>
<path d="M373.372 128.549C374.716 129.728 379.283 133.057 383.926 128.519C384.135 128.31 384.195 127.997 384.105 127.728L379.925 115.876C379.701 115.234 378.821 115.204 378.537 115.816L373.193 127.683C373.059 127.982 373.133 128.325 373.372 128.549Z" fill="#E73483" stroke="#040000" stroke-width="2" stroke-miterlimit="10"/>
<path d="M390.165 172.764C399.794 170.271 395.644 161.927 395.644 161.927C390.867 149.806 378.925 150.582 378.925 150.582C367.192 150.567 362.042 161.3 362.042 161.3C357.445 172.212 368.506 173.033 368.506 173.033C368.506 173.033 383.299 174.54 390.165 172.764Z" fill="white" stroke="black" stroke-width="2" stroke-miterlimit="10"/>
<path d="M375.283 156.807C375.951 156.807 376.492 156.265 376.492 155.597C376.492 154.93 375.951 154.388 375.283 154.388C374.615 154.388 374.074 154.93 374.074 155.597C374.074 156.265 374.615 156.807 375.283 156.807Z" fill="#DBA8CC"/>
<path d="M372.686 164.42C372.686 164.42 379.358 170.435 384.568 164.42" stroke="#040000" stroke-miterlimit="10"/>
<g clip-path="url(#clip2_358_192)">
<path d="M38 86.0007C50.1506 86.0007 60.0007 76.1506 60.0007 64C60.0007 51.8493 50.1506 41.9993 38 41.9993C25.8493 41.9993 15.9993 51.8493 15.9993 64C15.9993 76.1506 25.8493 86.0007 38 86.0007Z" fill="#FEA735"/>
<path d="M46.657 62.4124L32.8639 62.2907L37.8623 56.5786C38.4398 55.9186 38.3728 54.9159 37.7127 54.3384C37.053 53.7613 36.0496 53.8279 35.4725 54.4877L28.3457 62.6325C28 62.9208 27.7739 63.348 27.7693 63.8331C27.7693 63.8405 27.7714 63.8479 27.7714 63.8553C27.764 64.2321 27.8882 64.6117 28.1485 64.9172L35.4594 73.496C35.7734 73.8643 36.2193 74.0538 36.6684 74.0538C37.0325 74.0538 37.3983 73.9292 37.6975 73.6745C38.365 73.1058 38.4447 72.1035 37.876 71.4364L32.7867 65.4654L46.6288 65.5875C46.6337 65.5875 46.6383 65.5875 46.6432 65.5875C47.5135 65.5875 48.2227 64.8858 48.2304 64.014C48.2382 63.1374 47.534 62.4201 46.657 62.4124Z" fill="black"/>
</g>
<g clip-path="url(#clip3_358_192)">
<path d="M38 86.0007C50.1506 86.0007 60.0007 76.1506 60.0007 64C60.0007 51.8493 50.1506 41.9993 38 41.9993C25.8493 41.9993 15.9993 51.8493 15.9993 64C15.9993 76.1506 25.8493 86.0007 38 86.0007Z" fill="#FEA735"/>
<path d="M46.657 62.4124L32.8639 62.2907L37.8623 56.5786C38.4398 55.9186 38.3728 54.9159 37.7127 54.3384C37.053 53.7613 36.0496 53.8279 35.4725 54.4877L28.3457 62.6325C28 62.9208 27.7739 63.348 27.7693 63.8331C27.7693 63.8405 27.7714 63.8479 27.7714 63.8553C27.764 64.2321 27.8882 64.6117 28.1485 64.9172L35.4594 73.496C35.7734 73.8643 36.2193 74.0538 36.6684 74.0538C37.0325 74.0538 37.3983 73.9292 37.6975 73.6745C38.365 73.1058 38.4447 72.1035 37.876 71.4364L32.7867 65.4654L46.6288 65.5875C46.6337 65.5875 46.6383 65.5875 46.6432 65.5875C47.5135 65.5875 48.2227 64.8858 48.2304 64.014C48.2382 63.1374 47.534 62.4201 46.657 62.4124Z" fill="black"/>
</g>
<rect x="225" y="729" width="134" height="43" rx="21.5" fill="#FEA735"/>
<path d="M276.923 745.12H289.181V747.622H290.567V743.86H283.727V741.952H282.341V743.86H275.573V747.622H276.923V745.12ZM287.921 748.36V747.118H278.219V748.36H287.921ZM286.589 756.838C285.833 756.838 285.707 756.73 285.707 756.226V751.672H290.999V750.412H275.159V751.672H279.803C279.479 754.39 278.597 756.316 274.763 757.27C275.051 757.522 275.411 758.08 275.555 758.404C279.749 757.234 280.811 754.93 281.225 751.672H284.375V756.226C284.375 757.648 284.807 758.062 286.445 758.062H289.217C290.639 758.062 291.035 757.432 291.179 754.984C290.819 754.876 290.261 754.66 289.955 754.462C289.901 756.514 289.775 756.838 289.109 756.838H286.589ZM304.139 742.834C305.273 743.446 306.641 744.364 307.325 744.994L308.153 744.076C307.451 743.446 306.047 742.582 304.931 742.024L304.139 742.834ZM306.695 747.694C306.137 749.512 305.363 751.132 304.391 752.554C303.905 750.844 303.581 748.702 303.401 746.308H309.125V744.994H303.311C303.257 744.022 303.239 743.014 303.239 741.97H301.853C301.871 742.996 301.889 744.004 301.961 744.994H294.455V750.016C294.455 752.338 294.293 755.416 292.817 757.612C293.123 757.774 293.699 758.242 293.933 758.512C295.553 756.172 295.823 752.554 295.823 750.034V749.89H299.099C299.027 752.986 298.937 754.12 298.685 754.39C298.577 754.552 298.397 754.588 298.145 754.588C297.839 754.588 297.065 754.57 296.237 754.498C296.453 754.84 296.597 755.344 296.615 755.758C297.497 755.794 298.307 755.794 298.757 755.758C299.261 755.704 299.567 755.578 299.837 755.236C300.215 754.768 300.323 753.256 300.413 749.224V748.648H295.823V746.308H302.033C302.267 749.206 302.699 751.852 303.347 753.886C302.195 755.236 300.809 756.352 299.207 757.216C299.513 757.468 299.981 758.008 300.179 758.278C301.565 757.468 302.807 756.46 303.887 755.29C304.715 757.144 305.795 758.242 307.181 758.242C308.549 758.242 309.035 757.36 309.287 754.3C308.927 754.192 308.441 753.886 308.135 753.58C308.009 755.974 307.793 756.91 307.289 756.91C306.371 756.91 305.543 755.884 304.877 754.12C306.209 752.41 307.271 750.358 308.045 748.036L306.695 747.694Z" fill="black"/>
<path opacity="0.35" d="M336.812 18.6693C336.812 17.4727 337.782 16.5026 338.979 16.5026H355.469C356.666 16.5026 357.636 17.4727 357.636 18.6693V24.6693C357.636 25.8659 356.666 26.836 355.469 26.836H338.979C337.782 26.836 336.812 25.8659 336.812 24.6693V18.6693Z" stroke="black"/>
<path opacity="0.4" d="M359.128 19.6693V23.6693C359.926 23.3305 360.445 22.5424 360.445 21.6693C360.445 20.7962 359.926 20.0081 359.128 19.6693Z" fill="black"/>
<path d="M338.296 19.336C338.296 18.5996 338.893 18.0026 339.629 18.0026H354.819C355.555 18.0026 356.152 18.5996 356.152 19.336V24.0026C356.152 24.739 355.555 25.336 354.819 25.336H339.629C338.893 25.336 338.296 24.739 338.296 24.0026V19.336Z" fill="black"/>
<path fill-rule="evenodd" clip-rule="evenodd" d="M323.744 18.2773C325.942 18.2774 328.056 19.1289 329.649 20.6557C329.769 20.7735 329.961 20.772 330.079 20.6523L331.226 19.4857C331.286 19.4249 331.319 19.3427 331.318 19.2571C331.318 19.1715 331.284 19.0897 331.223 19.0297C327.042 14.9901 320.445 14.9901 316.264 19.0297C316.203 19.0896 316.169 19.1715 316.168 19.257C316.168 19.3426 316.201 19.4249 316.261 19.4857L317.408 20.6523C317.526 20.7722 317.718 20.7737 317.838 20.6557C319.431 19.1288 321.545 18.2773 323.744 18.2773ZM323.744 22.073C324.951 22.0729 326.116 22.5255 327.011 23.3427C327.132 23.4587 327.323 23.4562 327.441 23.337L328.587 22.1704C328.647 22.1092 328.68 22.0261 328.68 21.9399C328.679 21.8536 328.644 21.7713 328.582 21.7114C325.856 19.155 321.634 19.155 318.908 21.7114C318.846 21.7713 318.811 21.8537 318.81 21.9399C318.809 22.0262 318.843 22.1092 318.903 22.1704L320.049 23.337C320.167 23.4562 320.357 23.4587 320.478 23.3427C321.373 22.526 322.537 22.0735 323.744 22.073ZM326.038 24.6268C326.04 24.7133 326.006 24.7967 325.945 24.8573L323.964 26.873C323.906 26.9323 323.826 26.9656 323.744 26.9656C323.661 26.9656 323.582 26.9323 323.524 26.873L321.542 24.8573C321.481 24.7967 321.447 24.7133 321.449 24.6268C321.451 24.5403 321.488 24.4583 321.552 24.4003C322.817 23.3215 324.67 23.3215 325.936 24.4003C325.999 24.4584 326.037 24.5403 326.038 24.6268Z" fill="black"/>
<path fill-rule="evenodd" clip-rule="evenodd" d="M312.189 16.336H311.197C310.65 16.336 310.205 16.7837 310.205 17.336V26.0027C310.205 26.555 310.65 27.0027 311.197 27.0027H312.189C312.737 27.0027 313.181 26.555 313.181 26.0027V17.336C313.181 16.7837 312.737 16.336 312.189 16.336ZM306.568 18.6693H307.56C308.108 18.6693 308.552 19.117 308.552 19.6693V26.0026C308.552 26.5549 308.108 27.0026 307.56 27.0026H306.568C306.02 27.0026 305.576 26.5549 305.576 26.0026V19.6693C305.576 19.117 306.02 18.6693 306.568 18.6693ZM302.931 21.0027H301.939C301.391 21.0027 300.947 21.4504 300.947 22.0027V26.0027C300.947 26.555 301.391 27.0027 301.939 27.0027H302.931C303.479 27.0027 303.923 26.555 303.923 26.0027V22.0027C303.923 21.4504 303.479 21.0027 302.931 21.0027ZM298.301 23.0027H297.309C296.762 23.0027 296.317 23.4504 296.317 24.0027V26.0027C296.317 26.5549 296.762 27.0027 297.309 27.0027H298.301C298.849 27.0027 299.293 26.5549 299.293 26.0027V24.0027C299.293 23.4504 298.849 23.0027 298.301 23.0027Z" fill="black"/>
<path d="M38.4455 22.8765C37.9133 23.355 37.3176 23.5942 36.6584 23.5942C35.6916 23.5942 34.925 23.2671 34.3586 22.6128C33.7922 21.9585 33.509 21.0845 33.509 19.9907C33.509 19.3071 33.6677 18.6724 33.9851 18.0864C34.3025 17.5005 34.7468 17.0366 35.3181 16.6948C35.8943 16.353 36.529 16.1821 37.2224 16.1821C37.9255 16.1821 38.5603 16.3604 39.1267 16.7168C39.698 17.0684 40.1423 17.5688 40.4597 18.2183C40.7771 18.8628 40.9406 19.6074 40.9504 20.4521V21.397C40.9504 22.5737 40.7185 23.5942 40.2546 24.4585C39.7956 25.3228 39.1389 25.9868 38.2844 26.4507C37.4299 26.9146 36.4338 27.1465 35.2961 27.1465H35.1423V25.1689L35.6111 25.1616C37.3103 25.0786 38.2551 24.3169 38.4455 22.8765ZM37.3249 21.8145C37.862 21.8145 38.2478 21.5825 38.4821 21.1187V20.0933C38.4821 19.4097 38.3674 18.9043 38.1379 18.5771C37.9084 18.25 37.5984 18.0864 37.2077 18.0864C36.8611 18.0864 36.5705 18.272 36.3361 18.6431C36.1018 19.0142 35.9846 19.4634 35.9846 19.9907C35.9846 20.5474 36.1042 20.9917 36.3435 21.3237C36.5827 21.6509 36.9099 21.8145 37.3249 21.8145ZM43.5435 24.605C43.9341 24.605 44.2588 24.7222 44.5176 24.9565C44.7764 25.186 44.9058 25.4814 44.9058 25.8428C44.9058 26.2041 44.7764 26.502 44.5176 26.7363C44.2588 26.9658 43.9341 27.0806 43.5435 27.0806C43.148 27.0806 42.8208 26.9634 42.562 26.729C42.3081 26.4946 42.1812 26.1992 42.1812 25.8428C42.1812 25.4863 42.3081 25.1909 42.562 24.9565C42.8208 24.7222 43.148 24.605 43.5435 24.605ZM43.5435 18.7603C43.9341 18.7603 44.2588 18.8774 44.5176 19.1118C44.7764 19.3413 44.9058 19.6367 44.9058 19.998C44.9058 20.3594 44.7764 20.6572 44.5176 20.8916C44.2588 21.1211 43.9341 21.2358 43.5435 21.2358C43.148 21.2358 42.8208 21.1187 42.562 20.8843C42.3081 20.6499 42.1812 20.3545 42.1812 19.998C42.1812 19.6416 42.3081 19.3462 42.562 19.1118C42.8208 18.8774 43.148 18.7603 43.5435 18.7603ZM51.6517 27H49.1761V19.1191L46.7444 19.8296V17.9546L51.4246 16.3359H51.6517V27ZM61.0856 22.8325H62.1695V24.7368H61.0856V27H58.6173V24.7368H54.4938L54.3473 23.228L58.6173 16.3579V16.3359H61.0856V22.8325ZM56.6984 22.8325H58.6173V19.5513L58.4635 19.8003L56.6984 22.8325Z" fill="black"/>
</g>
<defs>
<clipPath id="clip0_358_192">
<rect width="375" height="812" rx="40" fill="white"/>
</clipPath>
<clipPath id="clip1_358_192">
<rect x="16" y="366" width="343" height="350" rx="25" fill="white"/>
</clipPath>
<clipPath id="clip2_358_192">
<rect width="44" height="44" fill="white" transform="translate(16 42)"/>
</clipPath>
<clipPath id="clip3_358_192">
<rect width="44" height="44" fill="white" transform="translate(16 42)"/>
</clipPath>
</defs>
</svg>
