<svg width="375" height="812" viewBox="0 0 375 812" fill="none" xmlns="http://www.w3.org/2000/svg">
<g clip-path="url(#clip0_309_227)">
<rect width="375" height="812" rx="40" fill="#FCF5EF"/>
<rect x="121" y="799" width="134" height="5" rx="2.5" fill="black"/>
<path d="M16 294C16 280.193 27.1929 269 41 269H334C347.807 269 359 280.193 359 294V312H16V294Z" fill="#FEA735"/>
<path d="M121.76 295.136V292.472H131.354V295.136H121.76ZM131.354 288.602V291.212H121.76V288.602H131.354ZM131.354 284.66V287.342H121.76V284.66H131.354ZM126.278 283.382C126.584 282.698 126.908 281.888 127.178 281.114L125.648 280.916C125.504 281.618 125.216 282.59 124.946 283.382H120.428V297.404H121.76V296.396H131.354V297.314H132.74V283.382H126.278ZM151.694 282.032H142.91V283.292H151.694V282.032ZM139.904 280.934C139.004 282.212 137.276 283.832 135.782 284.84C136.016 285.092 136.376 285.614 136.574 285.902C138.176 284.768 140.012 283.022 141.182 281.438L139.904 280.934ZM140.642 284.768C139.4 286.802 137.456 288.872 135.602 290.186C135.872 290.456 136.34 291.032 136.538 291.302C137.204 290.78 137.888 290.132 138.572 289.43V297.422H139.904V287.954C140.642 287.072 141.326 286.154 141.884 285.236L140.642 284.768ZM152.216 286.946H142.136V288.224H148.148V295.64C148.148 295.946 148.04 296.018 147.698 296.036C147.356 296.054 146.168 296.054 144.89 296.018C145.088 296.396 145.268 296.954 145.322 297.314C147.086 297.314 148.094 297.314 148.706 297.116C149.3 296.9 149.498 296.486 149.498 295.658V288.224H152.216V286.946ZM154.376 291.14C154.178 292.706 153.836 294.326 153.278 295.424C153.53 295.514 154.052 295.748 154.25 295.892C154.826 294.74 155.222 293.03 155.474 291.338L154.376 291.14ZM158.66 289.7C158.804 290.132 158.912 290.528 158.966 290.852L159.992 290.42C159.776 289.412 159.146 287.846 158.462 286.658L157.526 287.018C157.778 287.504 158.03 288.044 158.246 288.584L155.834 288.71C156.986 287.198 158.318 285.146 159.29 283.472L158.192 282.986C157.724 283.94 157.076 285.11 156.374 286.226C156.122 285.884 155.798 285.488 155.438 285.092C156.068 284.102 156.842 282.626 157.454 281.384L156.302 280.952C155.942 281.942 155.294 283.328 154.718 284.354C154.538 284.174 154.34 283.976 154.16 283.814L153.44 284.642C154.268 285.416 155.168 286.46 155.69 287.27C155.33 287.828 154.97 288.332 154.628 288.782C154.16 288.8 153.71 288.818 153.314 288.836L153.44 290.042C154.25 289.988 155.168 289.934 156.158 289.862V297.368H157.328V289.79L158.66 289.7ZM166.994 292.85V290.78H168.416V292.85H166.994ZM164.69 292.85V290.78H166.076V292.85H164.69ZM162.44 292.85V290.78H163.79V292.85H162.44ZM167.894 285.488V287.414H161.684V285.488H167.894ZM169.55 289.736H161.648C161.666 289.304 161.684 288.908 161.684 288.512H169.19V284.372H160.478V288.314C160.478 290.042 160.388 292.256 159.668 294.236C159.56 293.354 159.218 292.076 158.786 291.086L157.85 291.374C158.264 292.4 158.624 293.75 158.678 294.632L159.632 294.362C159.362 295.064 159.02 295.748 158.57 296.36C158.84 296.504 159.344 296.882 159.542 297.116C160.604 295.658 161.162 293.804 161.432 291.986V297.368H162.44V293.876H163.79V297.188H164.69V293.876H166.076V297.188H166.994V293.876H168.416V296.09C168.416 296.252 168.38 296.288 168.272 296.288C168.128 296.288 167.75 296.288 167.318 296.27C167.462 296.576 167.642 297.044 167.678 297.368C168.344 297.368 168.812 297.332 169.154 297.17C169.478 296.954 169.55 296.63 169.55 296.108V289.736ZM159.794 282.032V283.202H169.622V282.032H159.794ZM176.318 293.66C176.678 294.668 176.948 296 176.93 296.81L178.028 296.648C178.028 295.838 177.758 294.542 177.362 293.552L176.318 293.66ZM178.856 293.588C179.378 294.452 179.846 295.586 179.99 296.342L181.016 296.036C180.872 295.28 180.368 294.146 179.792 293.3L178.856 293.588ZM183.788 295.01C183.5 294.452 182.834 293.624 182.222 293.048L181.322 293.48C181.934 294.074 182.582 294.92 182.852 295.496L183.788 295.01ZM176.57 291.554C176.912 291.176 177.236 290.798 177.506 290.384H184.85V285.038H179.882V286.028H183.626V287.234H180.152V288.188H183.626V289.412H175.166V288.188H178.604V287.234H175.166V286.082C176.426 285.812 177.848 285.452 178.91 285.002L178.064 284.138C177.272 284.516 175.958 284.912 174.77 285.218L173.96 285.038V290.384H176.03C174.914 291.806 173.06 292.94 171.206 293.66C171.458 293.912 171.854 294.47 171.998 294.722C172.718 294.398 173.456 294.002 174.14 293.552C173.87 294.686 173.348 295.856 172.52 296.54L173.528 297.152C174.5 296.342 174.968 294.974 175.274 293.678L174.356 293.408C174.716 293.174 175.058 292.922 175.382 292.652H185.066C184.922 294.866 184.742 295.784 184.472 296.072C184.328 296.216 184.184 296.234 183.878 296.216C183.554 296.234 182.744 296.216 181.88 296.144C182.096 296.45 182.222 296.954 182.258 297.296C183.14 297.35 184.004 297.368 184.436 297.314C184.94 297.296 185.264 297.188 185.57 296.864C186.002 296.396 186.218 295.172 186.416 292.094C186.434 291.914 186.452 291.554 186.452 291.554H176.57ZM179.99 282.392V280.952H178.676V282.392H171.782V285.56H173.006V283.562H185.696V285.56H186.956V282.392H179.99ZM202.958 286.154H197.558V282.86H202.958V286.154ZM204.272 281.69H196.334V287.306H204.272V281.69ZM195.614 290.798C195.254 290.384 193.724 288.8 193.166 288.332V287.234H195.416V285.974H193.166V282.932C194.012 282.734 194.804 282.482 195.452 282.212L194.516 281.204C193.202 281.798 190.844 282.32 188.828 282.644C188.99 282.95 189.17 283.382 189.242 283.688C190.07 283.562 190.988 283.418 191.87 283.238V285.974H188.936V287.234H191.69C190.97 289.286 189.728 291.608 188.594 292.868C188.81 293.192 189.134 293.714 189.26 294.092C190.178 292.994 191.132 291.194 191.87 289.376V297.332H193.166V289.628C193.778 290.366 194.516 291.356 194.804 291.86L195.614 290.798ZM200.906 295.694V293.372H204.488V292.202H200.906V290.06H204.884V288.872H195.668V290.06H199.574V292.202H196.082V293.372H199.574V295.694H194.858V296.9H205.28V295.694H200.906ZM221.876 283.22C221.336 282.608 220.202 281.69 219.284 281.078L218.384 281.816C219.302 282.464 220.418 283.436 220.94 284.066L221.876 283.22ZM211.85 289.556H215.216V288.26H207.332V289.556H210.536V294.776C209.096 295.064 207.782 295.334 206.774 295.532L207.188 296.846C209.474 296.342 212.768 295.586 215.81 294.848L215.702 293.678C214.406 293.966 213.11 294.218 211.85 294.488V289.556ZM222.614 285.578V284.282H217.286C217.232 283.22 217.214 282.14 217.214 281.024H215.81C215.828 282.122 215.846 283.22 215.9 284.282H206.702V285.578H215.99C216.458 292.238 217.952 297.404 220.886 297.404C222.254 297.404 222.758 296.486 222.992 293.372C222.614 293.228 222.11 292.94 221.804 292.634C221.696 295.028 221.48 296.018 220.994 296.018C219.212 296.018 217.79 291.644 217.358 285.578H222.614ZM232.406 284.912H233.684V283.562H236.42V284.93H237.716V283.562H240.218V282.428H237.716V280.952H236.42V282.428H233.684V280.952H232.406V282.428H229.796V283.562H232.406V284.912ZM229.886 289.862C229.562 289.304 228.212 287.036 227.744 286.352V285.65H229.598V284.39H227.744V280.934H226.466V284.39H224.252V285.65H226.466C225.98 288.08 224.954 290.942 223.91 292.436C224.144 292.76 224.468 293.336 224.612 293.732C225.278 292.67 225.944 291.032 226.466 289.286V297.368H227.744V288.152C228.23 289.088 228.788 290.24 229.04 290.852L229.886 289.862ZM231.776 288.494H238.004V289.772H231.776V288.494ZM231.776 286.262H238.004V287.54H231.776V286.262ZM240.2 293.408V292.274H235.25C235.34 291.806 235.43 291.302 235.484 290.78H239.282V285.254H230.534V290.78H234.17C234.098 291.302 234.026 291.824 233.918 292.274H229.4V293.408H233.522C232.838 294.776 231.56 295.73 228.932 296.324C229.166 296.576 229.508 297.08 229.616 297.368C232.748 296.612 234.188 295.352 234.908 293.444C235.808 295.406 237.464 296.738 239.768 297.368C239.948 297.026 240.326 296.522 240.614 296.27C238.58 295.838 237.05 294.848 236.168 293.408H240.2ZM242.612 291.14C242.414 292.724 242.036 294.326 241.442 295.424C241.73 295.514 242.27 295.766 242.486 295.928C243.08 294.776 243.512 293.048 243.764 291.356L242.612 291.14ZM247.436 289.826C247.598 290.204 247.706 290.546 247.778 290.852L248.84 290.348C248.588 289.376 247.796 287.846 247.058 286.694L246.068 287.126C246.374 287.612 246.68 288.17 246.95 288.728C245.96 288.764 244.97 288.818 244.07 288.854C245.312 287.306 246.752 285.182 247.796 283.49L246.644 282.986C246.14 283.958 245.456 285.128 244.718 286.262C244.43 285.884 244.052 285.452 243.62 285.02C244.304 284.048 245.06 282.608 245.672 281.402L244.484 280.952C244.106 281.942 243.476 283.292 242.882 284.3C242.702 284.138 242.522 283.976 242.342 283.832L241.658 284.714C242.504 285.47 243.458 286.478 244.016 287.288C243.62 287.882 243.206 288.422 242.81 288.89C242.396 288.908 241.982 288.926 241.622 288.926L241.73 290.132L244.664 289.988V297.404H245.87V289.916L247.436 289.826ZM246.518 291.392C247.004 292.508 247.508 293.948 247.67 294.884L248.732 294.524C248.57 293.588 248.048 292.166 247.526 291.068L246.518 291.392ZM250.982 292.202H255.554V295.64H250.982V292.202ZM255.554 283.166V286.478H250.982V283.166H255.554ZM255.554 290.996H250.982V287.684H255.554V290.996ZM256.868 295.64V281.96H249.686V295.64H247.778V296.864H258.254V295.64H256.868Z" fill="black"/>
<rect x="17.5" y="217.5" width="340" height="40" rx="20" fill="#FCF5EF" stroke="#FEA735" stroke-width="3"/>
<path d="M43.3156 233.172V239.71H41.9016V233.172H43.3156ZM44.1556 240.578V232.318H41.0616V241.922H41.9016V240.578H44.1556ZM46.7456 234.096C46.7596 233.214 46.7736 232.29 46.7736 231.338H45.8636C45.8636 232.304 45.8636 233.228 45.8496 234.096H44.6596V235.034H45.8216C45.7236 238.716 45.3176 241.67 43.5536 243.448C43.7776 243.588 44.1136 243.896 44.2816 244.12C46.1856 242.132 46.6196 238.982 46.7316 235.034H47.9356C47.7816 240.396 47.6136 242.258 47.3056 242.678C47.1796 242.874 47.0816 242.902 46.8996 242.902C46.6896 242.902 46.2836 242.902 45.8356 242.86C45.9756 243.126 46.0736 243.518 46.0736 243.798C46.5356 243.84 46.9976 243.826 47.3056 243.798C47.6416 243.742 47.8796 243.63 48.1036 243.294C48.5236 242.692 48.6776 240.746 48.8596 234.586C48.8736 234.474 48.8736 234.096 48.8736 234.096H46.7456ZM50.2736 241.446V233.858H52.0096V241.446H50.2736ZM49.4196 232.92V243.56H50.2736V242.384H52.0096V243.448H52.9056V232.92H49.4196ZM57.7076 233.55V239.024H55.9576V233.55H57.7076ZM58.6456 239.976V232.584H55.0336V241.208H55.9576V239.976H58.6456ZM62.8876 238.73L62.3136 238.926C62.3416 238.492 62.3556 238.058 62.3556 237.61V231.408H61.3616V233.648H59.0236V234.614H61.3616V236.546H59.1216V237.498H61.3616V237.596C61.3616 238.156 61.3476 238.716 61.2776 239.276C60.2136 239.626 59.2056 239.948 58.4636 240.158L58.8696 241.096C59.5416 240.858 60.2976 240.578 61.0816 240.27C60.7736 241.502 60.0876 242.608 58.6736 243.448C58.9256 243.602 59.2756 243.924 59.4436 244.12C61.2216 243.042 61.9356 241.53 62.2156 239.836L63.0276 239.514L62.8876 238.73ZM67.3536 239.472H64.6096V237.498H67.0456V236.546H64.6096V234.614H67.2136V233.648H64.6096V231.38H63.6016V244.05H64.6096V240.438H67.3536V239.472Z" fill="black"/>
<g clip-path="url(#clip1_309_227)">
<path d="M38 86.0007C50.1506 86.0007 60.0007 76.1506 60.0007 64C60.0007 51.8493 50.1506 41.9993 38 41.9993C25.8493 41.9993 15.9993 51.8493 15.9993 64C15.9993 76.1506 25.8493 86.0007 38 86.0007Z" fill="black"/>
<path d="M38 86.0007C50.1506 86.0007 60.0007 76.1506 60.0007 64C60.0007 51.8493 50.1506 41.9993 38 41.9993C25.8493 41.9993 15.9993 51.8493 15.9993 64C15.9993 76.1506 25.8493 86.0007 38 86.0007Z" fill="#FEA735"/>
<path d="M46.657 62.4124L32.8639 62.2907L37.8623 56.5786C38.4398 55.9186 38.3728 54.9159 37.7127 54.3384C37.053 53.7613 36.0496 53.8279 35.4725 54.4877L28.3457 62.6325C28 62.9208 27.7739 63.348 27.7693 63.8331C27.7693 63.8405 27.7714 63.8479 27.7714 63.8553C27.764 64.2321 27.8882 64.6117 28.1485 64.9172L35.4594 73.496C35.7734 73.8643 36.2193 74.0538 36.6684 74.0538C37.0325 74.0538 37.3983 73.9292 37.6975 73.6745C38.365 73.1058 38.4447 72.1035 37.876 71.4364L32.7867 65.4654L46.6288 65.5875C46.6337 65.5875 46.6383 65.5875 46.6432 65.5875C47.5135 65.5875 48.2227 64.8858 48.2304 64.014C48.2382 63.1374 47.534 62.4201 46.657 62.4124Z" fill="black"/>
</g>
<path d="M145.52 64.56V62.136H151.232V63.096C151.232 63.576 151.232 64.08 151.184 64.56H145.52ZM145.52 58.32H151.232V60.72H145.52V58.32ZM159.104 58.32V60.72H153.056V58.32H159.104ZM159.104 64.56H153.008C153.032 64.104 153.056 63.6 153.056 63.12V62.136H159.104V64.56ZM160.856 66.048V56.832H153.056V54.816H162.368V53.208H141.632V54.816H151.232V56.832H143.816V66.048H150.944C150.656 67.2 150.104 68.28 149 69.216C147.872 68.472 146.912 67.488 146.096 66.24L144.608 66.84C145.424 68.232 146.408 69.336 147.56 70.224C146.096 71.064 144.056 71.736 141.2 72.288C141.584 72.696 142.064 73.44 142.256 73.848C145.376 73.2 147.608 72.312 149.216 71.256C152.48 72.984 156.848 73.512 162.392 73.752C162.488 73.176 162.824 72.432 163.136 72C157.808 71.856 153.68 71.496 150.656 70.128C151.856 68.904 152.504 67.536 152.792 66.048H160.856ZM177.968 57.984H183.272C182.744 61.2 181.928 63.864 180.68 66.024C179.408 63.72 178.52 61.008 177.944 58.032L177.968 57.984ZM187.016 57.984V56.28H178.592C179.024 55.008 179.384 53.664 179.672 52.272L177.824 51.936C177.104 55.704 175.76 59.256 173.84 61.608V54.024H165.752V55.68H172.112V60.384H165.752V68.016C165.752 70.056 166.352 70.56 168.464 70.56H172.16C174.008 70.56 174.512 69.792 174.728 66.768C174.224 66.648 173.48 66.36 173.12 66.072C173.048 68.496 172.904 68.88 172.016 68.88H168.632C167.648 68.88 167.456 68.76 167.456 67.992V62.016H172.112V62.928H173.84V62.136C174.272 62.424 174.848 62.832 175.136 63.048C175.736 62.304 176.288 61.44 176.816 60.48C177.488 63.168 178.376 65.592 179.552 67.656C177.92 69.72 175.688 71.256 172.664 72.336C173 72.72 173.552 73.512 173.744 73.92C176.648 72.744 178.856 71.208 180.56 69.192C182 71.184 183.776 72.744 186.032 73.8C186.32 73.32 186.896 72.624 187.28 72.288C184.976 71.304 183.128 69.72 181.688 67.68C183.344 65.136 184.4 61.968 185.072 57.984H187.016ZM202.208 55.008C201.632 57.192 200.192 58.392 196.28 59.088C196.568 59.4 196.976 59.976 197.12 60.36C200.528 59.688 202.304 58.56 203.24 56.784C204.128 58.512 205.88 60.048 209.96 60.768C210.128 60.336 210.536 59.664 210.872 59.328C205.952 58.608 204.608 56.856 204.08 55.008H207.92C207.488 55.704 206.96 56.376 206.456 56.856L207.872 57.36C208.736 56.52 209.624 55.176 210.296 53.952L209.096 53.592L208.808 53.664H200.6C200.912 53.16 201.176 52.68 201.416 52.176L199.808 51.912C199.184 53.352 197.984 54.96 196.184 56.208C196.616 56.376 197.192 56.76 197.528 57.096C198.368 56.448 199.064 55.752 199.664 55.008H202.208ZM194.12 67.152H206.144V68.832H194.12V67.152ZM194.12 64.344H206.144V66H194.12V64.344ZM194.12 61.584H206.144V63.192H194.12V61.584ZM192.392 70.008H207.92V60.384H192.392V70.008ZM196.184 54.288C195.032 53.688 192.824 52.896 191.168 52.44L190.376 53.664C192.08 54.192 194.288 55.032 195.392 55.68L196.184 54.288ZM195.896 56.904C193.448 57.576 190.928 58.296 189.2 58.704L189.896 60.264C191.696 59.688 193.952 58.992 196.112 58.296L195.896 56.904ZM196.4 70.248C194.696 71.208 191.816 72.048 189.368 72.552C189.776 72.864 190.376 73.56 190.688 73.896C193.064 73.248 196.064 72.144 198.008 71.016L196.4 70.248ZM201.992 71.232C204.608 72.096 207.2 73.104 208.688 73.872L210.656 72.984C208.904 72.192 206.048 71.16 203.456 70.32L201.992 71.232ZM229.064 56.544C228.296 55.656 226.64 54.432 225.296 53.616L224.384 54.816C225.752 55.704 227.384 57 228.152 57.912L229.064 56.544ZM228.032 62.28C227.192 61.416 225.416 60.336 224 59.592L223.16 60.84C224.6 61.608 226.304 62.832 227.144 63.72L228.032 62.28ZM221.096 53.352C220.736 54.96 220.064 57.336 219.512 58.752L220.664 59.136C221.312 57.792 222.056 55.536 222.632 53.736L221.096 53.352ZM216.104 58.704C215.936 57.264 215.384 55.104 214.688 53.448L213.392 53.76C214.016 55.44 214.568 57.648 214.688 59.088L216.104 58.704ZM218.72 61.608H222.632V59.928H218.72V52.008H217.064V59.928H213.224V61.608H216.584C215.744 64.296 214.232 67.392 212.84 69.072C213.128 69.504 213.56 70.296 213.752 70.8C214.952 69.192 216.176 66.528 217.064 63.96V73.824H218.72V63.984C219.584 65.328 220.712 67.176 221.144 68.064L222.32 66.672C221.792 65.856 219.392 62.688 218.72 61.944V61.608ZM235.088 66.528L234.824 64.896L231.992 65.4V51.936H230.312V65.712L222.584 67.08L222.872 68.736L230.312 67.392V73.824H231.992V67.08L235.088 66.528Z" fill="black"/>
<circle cx="5" cy="151" r="50" fill="#FFEBCC"/>
<path d="M1.25867 127.249C1.25867 127.249 0.885567 119.414 5.03445 117.25C5.03445 117.25 9.45197 120.041 8.75054 127.249C8.75054 127.249 5.8702 126.07 1.25867 127.249Z" fill="#D3AF7C" stroke="black" stroke-width="2" stroke-miterlimit="10"/>
<path d="M-14.043 186.203V143.013C-14.043 143.013 -14.043 126.253 5.01502 125.999C5.01502 125.999 23.1179 126.253 23.7447 142.699L23.9984 186.203H-14.043Z" fill="white" stroke="black" stroke-width="2" stroke-miterlimit="10"/>
<path d="M14.2828 146.505C15.8983 146.505 17.2079 145.195 17.2079 143.58C17.2079 141.964 15.8983 140.655 14.2828 140.655C12.6673 140.655 11.3577 141.964 11.3577 143.58C11.3577 145.195 12.6673 146.505 14.2828 146.505Z" fill="black" stroke="black" stroke-miterlimit="10"/>
<path d="M24.0132 186.143C24.0132 186.143 34.46 187.456 35.445 178.039C35.445 178.039 37.6538 168.771 26.595 162.399C25.4608 161.742 24.0132 162.563 24.0132 163.847V186.143Z" fill="#D3AF7C" stroke="black" stroke-width="2" stroke-miterlimit="10"/>
<path d="M18.0287 157.295C20.3695 157.295 22.2671 155.397 22.2671 153.056C22.2671 150.716 20.3695 148.818 18.0287 148.818C15.6879 148.818 13.7903 150.716 13.7903 153.056C13.7903 155.397 15.6879 157.295 18.0287 157.295Z" fill="#D7B995"/>
<path d="M-4.11842 152.236L1.83627 148.534C3.4033 147.549 5.91054 147.46 7.59695 148.311L13.8352 151.46C16.1186 152.609 15.7902 154.847 13.2084 155.787L7.194 157.996C6.00008 158.429 4.55245 158.489 3.29883 158.16L-2.87972 156.504C-5.62575 155.773 -6.26748 153.564 -4.11842 152.236Z" fill="#BB8682" stroke="black" stroke-miterlimit="10"/>
<path d="M-6.07373 154.206C-6.07373 154.206 4.01488 156.574 15.3124 153.5" stroke="#040000" stroke-width="0.5" stroke-miterlimit="10"/>
<circle cx="372" cy="151" r="50" fill="#FFEBCC"/>
<path d="M359.609 187.124V145.253C359.609 145.253 358.562 130.687 373.562 126.937C373.562 126.937 351.966 121.862 353.101 139.565C353.101 139.565 338.517 143.372 348.817 154.627C348.817 154.627 336.71 161.106 348.205 169.689C348.205 169.689 339.353 180.437 354.638 186.467C354.638 186.467 356.803 187.378 359.609 187.124Z" fill="#DBA8CC" stroke="#040000" stroke-width="2" stroke-miterlimit="10"/>
<path d="M365.288 131.365C365.288 131.365 363.571 128.753 360.585 128.081C360.585 128.081 356.301 126.887 356.376 130.246C356.376 130.246 357.107 135.396 361.003 137.202C361.003 137.202 362.81 132.634 365.288 131.365Z" fill="white" stroke="black" stroke-width="2" stroke-miterlimit="10"/>
<path d="M359.609 187.124V143.924C359.609 143.924 359.609 127.161 378.671 126.907C378.671 126.907 396.778 127.161 397.405 143.611L397.659 187.124" fill="white"/>
<path d="M359.609 187.124V143.924C359.609 143.924 359.609 127.161 378.671 126.907C378.671 126.907 396.778 127.161 397.405 143.611L397.659 187.124H359.609Z" stroke="black" stroke-width="2" stroke-miterlimit="10"/>
<path d="M368.76 147.432C370.376 147.432 371.686 146.122 371.686 144.506C371.686 142.891 370.376 141.581 368.76 141.581C367.144 141.581 365.834 142.891 365.834 144.506C365.834 146.122 367.144 147.432 368.76 147.432Z" fill="black" stroke="black" stroke-miterlimit="10"/>
<path d="M373.372 128.549C374.716 129.728 379.284 133.057 383.926 128.519C384.135 128.31 384.195 127.997 384.105 127.728L379.926 115.876C379.702 115.234 378.821 115.204 378.537 115.816L373.193 127.683C373.059 127.982 373.134 128.325 373.372 128.549Z" fill="#E73483" stroke="#040000" stroke-width="2" stroke-miterlimit="10"/>
<path d="M390.166 172.764C399.794 170.271 395.644 161.927 395.644 161.927C390.867 149.806 378.925 150.582 378.925 150.582C367.192 150.567 362.042 161.3 362.042 161.3C357.445 172.212 368.506 173.033 368.506 173.033C368.506 173.033 383.299 174.54 390.166 172.764Z" fill="white" stroke="black" stroke-width="2" stroke-miterlimit="10"/>
<path d="M375.283 156.807C375.951 156.807 376.492 156.265 376.492 155.597C376.492 154.93 375.951 154.388 375.283 154.388C374.615 154.388 374.074 154.93 374.074 155.597C374.074 156.265 374.615 156.807 375.283 156.807Z" fill="#DBA8CC"/>
<path d="M372.686 164.42C372.686 164.42 379.358 170.435 384.568 164.42" stroke="#040000" stroke-miterlimit="10"/>
<circle cx="188.5" cy="151" r="50" fill="#FEA735"/>
<path d="M205.928 133.247C205.928 133.247 212.609 131.813 216.575 138.692C216.575 138.692 221.807 149.05 215.019 153.031C215.019 153.031 210.016 155.243 207.972 149.706C207.957 149.706 208.445 140.172 205.928 133.247Z" fill="#6A4B2E" stroke="black" stroke-width="2" stroke-miterlimit="10"/>
<path d="M171.697 133.247C171.697 133.247 165.016 131.813 161.05 138.692C161.05 138.692 155.818 149.05 162.606 153.031C162.606 153.031 167.609 155.243 169.653 149.706C169.668 149.706 169.18 140.172 171.697 133.247Z" fill="#6A4B2E" stroke="black" stroke-width="2" stroke-miterlimit="10"/>
<path d="M169.745 187.323V143.177C169.745 143.177 169.745 126.047 189.224 125.787C189.224 125.787 207.728 126.047 208.368 142.857L208.628 187.323H169.745Z" fill="#906526" stroke="black" stroke-width="2" stroke-miterlimit="10"/>
<path d="M179.385 145.694C181.037 145.694 182.375 144.356 182.375 142.704C182.375 141.053 181.037 139.714 179.385 139.714C177.734 139.714 176.396 141.053 176.396 142.704C176.396 144.356 177.734 145.694 179.385 145.694Z" fill="black" stroke="black" stroke-miterlimit="10"/>
<path d="M198.987 145.694C200.638 145.694 201.977 144.356 201.977 142.704C201.977 141.053 200.638 139.714 198.987 139.714C197.336 139.714 195.997 141.053 195.997 142.704C195.997 144.356 197.336 145.694 198.987 145.694Z" fill="black" stroke="black" stroke-miterlimit="10"/>
<path d="M187.379 146.686H191.009C193.252 146.686 194.472 148.638 193.053 149.92L191.238 151.567C190.185 152.528 188.218 152.528 187.165 151.567L185.35 149.92C183.916 148.623 185.136 146.686 187.379 146.686Z" fill="black" stroke="black" stroke-miterlimit="10"/>
<path d="M182.696 158.279L189.118 152.818L195.692 158.95" stroke="black" stroke-width="2" stroke-miterlimit="10"/>
<path d="M198.026 127.633C198.636 127.877 199.338 127.725 199.75 127.221C200.878 125.833 202.297 123.865 198.895 122.187C198.255 121.867 197.904 121.15 198.041 120.448C198.27 119.304 197.873 117.733 193.938 117.779C193.251 117.794 192.641 117.352 192.443 116.696C192.001 115.232 190.872 113.218 188.248 116.071C187.851 116.513 187.226 116.696 186.662 116.498C185.228 116.01 182.619 115.491 182.543 118.038C182.528 118.74 181.979 119.32 181.277 119.442C179.935 119.686 178.211 120.265 178.867 121.715C179.096 122.233 179.004 122.843 178.638 123.271C177.662 124.399 176.411 126.337 179.629 127.725C179.629 127.74 188.111 123.621 198.026 127.633Z" fill="#6A4B2E" stroke="black" stroke-width="2" stroke-miterlimit="10"/>
<path d="M19.6826 331.701C24.8063 327.551 58.488 302.897 104.128 331.983C104.419 332.165 104.765 332.274 105.111 332.274H131.703C132.704 332.274 133.514 333.075 133.514 334.067V374.183C133.514 375.184 132.695 376.003 131.685 376.003H61.5186C61.0999 376.003 60.6995 376.148 60.3719 376.403L53.5282 381.873C53.2005 382.137 52.8001 382.273 52.3815 382.273H39.7588C39.2856 382.273 38.8305 382.091 38.4938 381.764L32.1506 375.721C31.823 375.402 31.3861 375.229 30.9311 375.211L20.8111 374.965C19.8191 374.938 19.0274 374.137 19.0274 373.145V333.102C19.0001 332.565 19.2549 332.055 19.6826 331.701Z" fill="#BEE1DD"/>
<path d="M162.755 413.907V375.275C162.755 374.265 161.936 373.455 160.926 373.455L61.7733 373.755C61.3638 373.755 60.9634 373.901 60.6357 374.155L53.7283 379.707C53.4007 379.971 53.0002 380.107 52.5907 380.107H39.8679C39.3947 380.107 38.9487 379.925 38.612 379.598L32.2142 373.464C31.8866 373.145 31.4498 372.972 30.9947 372.954L20.8656 372.708C19.8464 372.681 19 373.509 19 374.528V667.18C19 668.181 19.8191 669 20.8201 669H160.935C161.936 669 162.755 668.181 162.755 667.18V656.669C162.755 646.558 154.519 638.385 144.408 638.467L71.8933 639.031L67.7252 645.393C67.3794 645.921 66.7787 646.239 66.1417 646.212L53.6282 645.784C53.1277 645.766 52.6544 645.548 52.3268 645.165L47.3396 639.514C47.0029 639.132 46.5296 638.913 46.02 638.895L34.1982 638.595C33.2062 638.567 32.4144 637.748 32.4235 636.747L35.3904 418.084C35.4086 417.074 36.2367 416.264 37.256 416.292L45.1827 416.474C45.5832 416.483 45.9654 416.619 46.2839 416.874L53.9922 423.072C54.3016 423.326 54.693 423.463 55.0934 423.472L67.2519 423.745C67.7889 423.754 68.3076 423.527 68.6625 423.126L74.9875 415.873C75.3334 415.473 75.843 415.245 76.3708 415.254L160.916 415.709C161.936 415.736 162.755 414.917 162.755 413.907Z" fill="#F8C8BC"/>
<path d="M235.078 456.162V433.628C235.078 423.618 226.997 415.482 216.986 415.427L75.8978 414.608C75.37 414.608 74.8603 414.835 74.5145 415.227L68.1895 422.48C67.8346 422.89 67.3159 423.117 66.7789 423.099L54.6204 422.826C54.2199 422.817 53.8377 422.68 53.5192 422.425L45.8109 416.228C45.5015 415.973 45.1101 415.836 44.7097 415.827L36.783 415.645C35.7728 415.618 34.9356 416.428 34.9173 417.438L31.9505 636.101C31.9414 637.102 32.7241 637.921 33.7252 637.948L45.547 638.249C46.0566 638.258 46.5298 638.485 46.8666 638.867L51.8538 644.519C52.1814 644.892 52.6546 645.12 53.1552 645.138L65.6686 645.566C66.3057 645.584 66.9063 645.274 67.2521 644.747L70.8833 639.204C71.2201 638.695 71.7843 638.385 72.3941 638.385L233.267 637.539C234.268 637.53 235.078 636.72 235.078 635.719L234.787 611.684C234.778 610.683 233.959 609.882 232.967 609.882L88.7662 609.954C88.2293 609.954 87.7105 610.191 87.3647 610.61L83.0328 615.806C82.687 616.225 82.1773 616.462 81.6313 616.462H68.2168C67.7345 616.462 67.2704 616.27 66.9336 615.925L60.5631 609.554C60.2173 609.208 59.7623 609.017 59.2799 609.017H48.6867C47.6856 609.017 46.8666 608.207 46.8666 607.197L46.5662 460.111C46.5662 459.101 47.3762 458.291 48.3864 458.291H58.925C59.3436 458.291 59.7441 458.437 60.0717 458.701L67.8983 465.062C68.2259 465.326 68.6264 465.472 69.045 465.472H81.249C81.6586 465.472 82.0499 465.335 82.3775 465.08L89.9129 459.147C90.2314 458.892 90.6228 458.755 91.0323 458.755L233.276 457.991C234.268 457.982 235.078 457.163 235.078 456.162Z" fill="#94CC93"/>
<path d="M104.71 422H176.569C177.079 422 177.57 422.173 177.916 422.491L192.941 436.042C193.587 436.625 193.578 437.526 192.905 438.099L177.434 451.322C177.088 451.614 176.615 451.778 176.123 451.778H104.701C104.209 451.778 103.745 451.614 103.399 451.322L87.5187 437.935C86.8271 437.353 86.8271 436.416 87.5187 435.833L103.399 422.446C103.745 422.164 104.219 422 104.71 422Z" fill="#D7FAD6"/>
<path d="M88.1743 610.583L227.57 609.591C228.571 609.582 229.381 608.772 229.381 607.771V591.944C229.381 572.587 213.828 557.644 194.47 557.38L90.95 556.816C90.5131 556.816 90.0945 556.97 89.7578 557.253L81.4852 564.315C81.1576 564.597 80.739 564.751 80.3022 564.751H68.6259C68.1982 564.751 67.7887 564.606 67.4611 564.324L59.9166 558.017C59.5889 557.744 59.1794 557.589 58.7517 557.589H48.5589C47.5578 557.589 46.7479 558.399 46.7388 559.391L46.3565 607.443C46.3474 608.426 47.1301 609.245 48.113 609.272L59.1248 609.654C59.5343 609.673 59.9257 609.818 60.2351 610.082L67.0879 615.87C67.4156 616.143 67.8342 616.298 68.2619 616.298L81.4215 616.307C81.9403 616.307 82.4317 616.089 82.7776 615.697L86.8274 611.165C87.1732 610.81 87.6646 610.592 88.1743 610.583Z" fill="#CBA0C9"/>
<path d="M47.0393 513.414V555.796C47.0393 556.797 47.8584 557.616 48.8594 557.616H58.2696C58.6973 557.616 59.1068 557.762 59.4345 558.044L66.979 564.351C67.3066 564.624 67.7161 564.779 68.1438 564.779H79.8201C80.2569 564.779 80.6755 564.624 81.0031 564.342L89.2757 557.28C89.6033 556.998 90.031 556.843 90.4679 556.843L234.942 557.626C245.143 557.562 252.57 550.208 257.211 541.117L270.544 514.47C271.162 513.26 271.499 511.603 268.869 511.603H89.5942C89.1301 511.603 88.675 511.785 88.3383 512.104L81.4127 518.702C81.076 519.02 80.6209 519.202 80.1568 519.202H67.9072C67.434 519.202 66.988 519.02 66.6422 518.693L59.7985 512.104C59.4618 511.776 59.0067 511.594 58.5335 511.594H48.8504C47.8584 511.594 47.0393 512.404 47.0393 513.414Z" fill="#BEE1DD"/>
<path d="M47.6755 458L58.9223 458.081C59.318 458.081 59.6969 458.227 60 458.5L67.8518 464.868C68.1549 465.141 68.5338 465.287 68.9295 465.287L77.6901 465.223C78.0521 465.223 78.3973 465.096 78.692 464.868L86.2441 458.856C86.5303 458.628 86.8839 458.501 87.2375 458.501L318.11 458.091C327.506 458.064 335.1 466.353 334.999 476.518L334.814 493.387C334.704 503.361 327.203 511.394 317.975 511.394L89.6282 512.035C89.2156 512.035 88.8115 512.199 88.5 512.5L81.5 519C81.1885 519.301 80.7928 519.465 80.3718 519.465L67.5 519.5C67.0622 519.5 66.6497 519.318 66.3297 518.99L57.8123 511.895C57.5008 511.567 57.0798 511.385 56.642 511.385H47.6839C46.7578 511.385 46.0001 510.565 46.0001 509.564V459.804C45.9917 458.82 46.7494 458 47.6755 458Z" fill="#ED6547"/>
<path d="M159.737 500H90.2626C89.5682 500 89 499.168 89 498.152V473.848C89 472.832 89.5682 472 90.2626 472H159.737C160.432 472 161 472.832 161 473.848V498.152C161 499.178 160.432 500 159.737 500Z" fill="#B05B47"/>
<path d="M235.401 548.575H197.788C190.17 548.575 184 542.405 184 534.788C184 527.17 190.17 521 197.788 521H235.401C243.018 521 249.188 527.17 249.188 534.788C249.188 542.396 243.018 548.575 235.401 548.575Z" fill="#FCFDFD"/>
<path d="M128.638 548H98.3618C89.8789 548 83 544.026 83 539.125V529.875C83 524.974 89.8789 521 98.3618 521H128.638C137.121 521 144 524.974 144 529.875V539.125C143.985 544.026 137.121 548 128.638 548Z" fill="#7AC1B6"/>
<path d="M298.79 503H215.201C210.674 503 207 498.964 207 493.991V478.009C207 473.036 210.674 469 215.201 469H298.799C303.326 469 307 473.036 307 478.009V493.991C306.992 498.964 303.326 503 298.79 503Z" fill="#F9B8A9"/>
<path d="M211.389 597.231H176.779C173.585 597.231 171 594.646 171 591.452V582.779C171 579.585 173.585 577 176.779 577H211.389C214.583 577 217.168 579.585 217.168 582.779V591.452C217.168 594.646 214.583 597.231 211.389 597.231Z" fill="#F1D5F0"/>
<rect x="16" y="676" width="343" height="43" rx="21.5" fill="#FEA735"/>
<path d="M149.084 691.742H145.628V693.614C145.628 694.694 146.006 694.964 147.338 694.964H149.75C150.704 694.964 151.046 694.64 151.172 693.434C150.848 693.362 150.416 693.218 150.182 693.056C150.128 693.902 150.038 694.01 149.606 694.01H147.464C146.87 694.01 146.762 693.938 146.762 693.596V692.678H150.272V689.636H145.286V690.572H149.084V691.742ZM143.288 691.742H139.76V693.614C139.76 694.694 140.102 694.964 141.434 694.964H143.666C144.584 694.964 144.926 694.658 145.052 693.488C144.728 693.434 144.296 693.29 144.062 693.11C144.008 693.902 143.918 694.01 143.486 694.01H141.542C140.966 694.01 140.876 693.938 140.876 693.614V692.678H144.422V689.636H139.436V690.572H143.288V691.742ZM143.576 697.52H146.528V699.23H143.576V697.52ZM151.064 699.23H147.806V697.52H150.506V696.494H147.806V695.198H146.528V696.494H143.576V695.198H142.334V696.494H139.67V697.52H142.334V699.23H139.094V700.274H151.064V699.23ZM150.794 702.668C149.948 702.002 148.472 701.138 147.158 700.508L146.204 701.102C147.446 701.732 148.742 702.578 149.498 703.244L150.794 702.668ZM142.928 700.472C142.136 701.192 140.804 701.876 139.58 702.362C139.868 702.542 140.354 702.974 140.57 703.208C141.758 702.632 143.198 701.75 144.116 700.886L142.928 700.472ZM138.752 692.354C138.248 691.454 137.06 690.212 135.998 689.366L134.972 690.05C136.016 690.932 137.168 692.21 137.636 693.11L138.752 692.354ZM138.338 695.99H134.882V697.25H137.096V701.894C136.304 702.65 135.422 703.406 134.666 703.964L135.368 705.206C136.232 704.414 137.042 703.658 137.798 702.866C138.914 704.288 140.552 704.936 142.928 705.026C144.962 705.098 148.85 705.062 150.884 704.972C150.938 704.594 151.154 704 151.316 703.712C149.12 703.856 144.926 703.91 142.892 703.82C140.786 703.73 139.184 703.118 138.338 701.768V695.99ZM158.084 696.512C157.49 696.71 156.896 696.908 156.302 697.088V693.776H158.228V692.552H156.302V688.952H155.06V692.552H152.81V693.776H155.06V697.466C154.124 697.754 153.26 698.024 152.576 698.204L152.918 699.5L155.06 698.798V703.82C155.06 704.09 154.97 704.144 154.754 704.144C154.538 704.162 153.836 704.162 153.062 704.144C153.242 704.504 153.404 705.062 153.458 705.368C154.574 705.386 155.258 705.332 155.69 705.134C156.14 704.918 156.302 704.558 156.302 703.82V698.402L158.264 697.754L158.084 696.512ZM165.482 699.662H161.864L162.368 699.518C162.278 699.086 161.99 698.438 161.72 697.952H165.806C165.608 698.456 165.302 699.104 165.068 699.536L165.482 699.662ZM162.908 690.644H164.69V692.534H162.908V690.644ZM161.828 692.534H160.118V690.644H161.828V692.534ZM165.77 690.644H167.588V692.534H165.77V690.644ZM169.244 696.89H164.348V695.612H168.362V694.604H164.348V693.488H168.704V689.672H159.02V693.488H163.088V694.604H159.218V695.612H163.088V696.89H158.336V697.952H161.288L160.55 698.132C160.802 698.582 161.054 699.194 161.18 699.662H158.498V700.706H163.088V701.984H158.876V703.028H163.088V705.512H164.348V703.028H168.596V701.984H164.348V700.706H168.992V699.662H166.202C166.49 699.194 166.814 698.618 167.156 698.024L166.886 697.952H169.244V696.89ZM184.958 694.154H179.558V690.86H184.958V694.154ZM186.272 689.69H178.334V695.306H186.272V689.69ZM177.614 698.798C177.254 698.384 175.724 696.8 175.166 696.332V695.234H177.416V693.974H175.166V690.932C176.012 690.734 176.804 690.482 177.452 690.212L176.516 689.204C175.202 689.798 172.844 690.32 170.828 690.644C170.99 690.95 171.17 691.382 171.242 691.688C172.07 691.562 172.988 691.418 173.87 691.238V693.974H170.936V695.234H173.69C172.97 697.286 171.728 699.608 170.594 700.868C170.81 701.192 171.134 701.714 171.26 702.092C172.178 700.994 173.132 699.194 173.87 697.376V705.332H175.166V697.628C175.778 698.366 176.516 699.356 176.804 699.86L177.614 698.798ZM182.906 703.694V701.372H186.488V700.202H182.906V698.06H186.884V696.872H177.668V698.06H181.574V700.202H178.082V701.372H181.574V703.694H176.858V704.9H187.28V703.694H182.906ZM204.236 691.22C203.696 690.608 202.562 689.69 201.644 689.078L200.744 689.816C201.662 690.464 202.778 691.436 203.3 692.066L204.236 691.22ZM194.21 697.556H197.576V696.26H189.692V697.556H192.896V702.776C191.456 703.064 190.142 703.334 189.134 703.532L189.548 704.846C191.834 704.342 195.128 703.586 198.17 702.848L198.062 701.678C196.766 701.966 195.47 702.218 194.21 702.488V697.556ZM204.974 693.578V692.282H199.646C199.592 691.22 199.574 690.14 199.574 689.024H198.17C198.188 690.122 198.206 691.22 198.26 692.282H189.062V693.578H198.35C198.818 700.238 200.312 705.404 203.246 705.404C204.614 705.404 205.118 704.486 205.352 701.372C204.974 701.228 204.47 700.94 204.164 700.634C204.056 703.028 203.84 704.018 203.354 704.018C201.572 704.018 200.15 699.644 199.718 693.578H204.974ZM215.126 692.912H216.404V691.562H219.14V692.93H220.436V691.562H222.938V690.428H220.436V688.952H219.14V690.428H216.404V688.952H215.126V690.428H212.516V691.562H215.126V692.912ZM212.606 697.862C212.282 697.304 210.932 695.036 210.464 694.352V693.65H212.318V692.39H210.464V688.934H209.186V692.39H206.972V693.65H209.186C208.7 696.08 207.674 698.942 206.63 700.436C206.864 700.76 207.188 701.336 207.332 701.732C207.998 700.67 208.664 699.032 209.186 697.286V705.368H210.464V696.152C210.95 697.088 211.508 698.24 211.76 698.852L212.606 697.862ZM214.496 696.494H220.724V697.772H214.496V696.494ZM214.496 694.262H220.724V695.54H214.496V694.262ZM222.92 701.408V700.274H217.97C218.06 699.806 218.15 699.302 218.204 698.78H222.002V693.254H213.254V698.78H216.89C216.818 699.302 216.746 699.824 216.638 700.274H212.12V701.408H216.242C215.558 702.776 214.28 703.73 211.652 704.324C211.886 704.576 212.228 705.08 212.336 705.368C215.468 704.612 216.908 703.352 217.628 701.444C218.528 703.406 220.184 704.738 222.488 705.368C222.668 705.026 223.046 704.522 223.334 704.27C221.3 703.838 219.77 702.848 218.888 701.408H222.92ZM225.692 699.14C225.494 700.724 225.116 702.326 224.522 703.424C224.81 703.514 225.35 703.766 225.566 703.928C226.16 702.776 226.592 701.048 226.844 699.356L225.692 699.14ZM230.516 697.826C230.678 698.204 230.786 698.546 230.858 698.852L231.92 698.348C231.668 697.376 230.876 695.846 230.138 694.694L229.148 695.126C229.454 695.612 229.76 696.17 230.03 696.728C229.04 696.764 228.05 696.818 227.15 696.854C228.392 695.306 229.832 693.182 230.876 691.49L229.724 690.986C229.22 691.958 228.536 693.128 227.798 694.262C227.51 693.884 227.132 693.452 226.7 693.02C227.384 692.048 228.14 690.608 228.752 689.402L227.564 688.952C227.186 689.942 226.556 691.292 225.962 692.3C225.782 692.138 225.602 691.976 225.422 691.832L224.738 692.714C225.584 693.47 226.538 694.478 227.096 695.288C226.7 695.882 226.286 696.422 225.89 696.89C225.476 696.908 225.062 696.926 224.702 696.926L224.81 698.132L227.744 697.988V705.404H228.95V697.916L230.516 697.826ZM229.598 699.392C230.084 700.508 230.588 701.948 230.75 702.884L231.812 702.524C231.65 701.588 231.128 700.166 230.606 699.068L229.598 699.392ZM234.062 700.202H238.634V703.64H234.062V700.202ZM238.634 691.166V694.478H234.062V691.166H238.634ZM238.634 698.996H234.062V695.684H238.634V698.996ZM239.948 703.64V689.96H232.766V703.64H230.858V704.864H241.334V703.64H239.948Z" fill="black"/>
<path d="M58.468 357.13V357.858H55.864V357.13H58.468ZM62.808 357.858H60.078V357.13H62.808V357.858ZM60.078 359.706V358.978H62.808V359.706H60.078ZM55.864 359.706V358.978H58.468V359.706H55.864ZM54.282 361.246H55.864V360.91H62.808V361.232H64.474V355.926H54.282V361.246ZM61.366 354.148H57.166V353.322H61.366V354.148ZM55.612 352.132V355.338H63.018V352.132H55.612ZM63.424 350.046C63.732 349.668 64.068 349.22 64.404 348.744L62.64 348.226C62.416 348.772 61.996 349.528 61.646 350.018L61.73 350.046H60.078V348.142H58.412V350.046H56.676L56.928 349.934C56.704 349.458 56.256 348.772 55.822 348.268L54.338 348.842C54.604 349.206 54.884 349.64 55.108 350.046H53.26V353.224H54.828V351.46H63.788V353.224H65.44V350.046H63.424ZM68.198 350.368C68.394 350.998 68.534 351.782 68.562 352.314L69.304 352.09C69.262 351.544 69.08 350.718 68.856 350.074L68.198 350.27V349.682H69.374V352.72H68.198V350.368ZM71.586 350.298L70.914 350.06C70.816 350.62 70.578 351.432 70.382 351.992V349.682H71.586V350.298ZM70.382 352.72V352.118L70.956 352.328C71.138 351.922 71.362 351.32 71.586 350.732V352.72H70.382ZM66.686 357.858C68.38 357.788 70.774 357.662 73.042 357.522L73.07 356.234C72.258 356.262 71.418 356.304 70.606 356.332V355.716H72.846V354.456H70.606V353.84H72.874V348.562H66.952V353.84H69.136V354.456H66.98V355.716H69.136V356.388C68.198 356.416 67.344 356.444 66.644 356.458L66.686 357.858ZM67.414 361.218C68.002 360.574 68.24 359.51 68.408 358.516L67.288 358.18C67.162 359.104 66.84 360.07 66.336 360.658L67.414 361.218ZM68.506 358.264C68.66 359.048 68.772 360.056 68.744 360.714L69.822 360.588C69.808 359.916 69.696 358.922 69.528 358.138L68.506 358.264ZM69.906 358.208C70.172 358.95 70.41 359.916 70.466 360.546L71.502 360.336C71.418 359.692 71.166 358.754 70.9 358.012L69.906 358.208ZM71.264 358.082C71.698 358.782 72.118 359.706 72.286 360.322L73.336 359.888C73.154 359.272 72.706 358.376 72.258 357.718L71.264 358.082ZM77.466 359.16H74.876V356.234H77.466V359.16ZM79.524 352.566V351.026H76.822V348.156H75.198V354.722H73.364V361.204H74.876V360.658H77.466V361.148H79.062V354.722H76.822V352.566H79.524ZM82.016 351.74V351.39H82.94V351.74H82.016ZM82.016 350.508H82.94V350.844H82.016V350.508ZM85.18 350.508V350.844H84.2V350.508H85.18ZM85.18 351.74H84.2V351.39H85.18V351.74ZM82.94 354.246H82.156V353.56H81.036V355.086H86.188V353.56H85.012V354.246H84.2V353.462H86.706V352.65H84.2V352.314H86.314V349.934H84.2V349.598H86.664V348.772H84.2V348.156H82.94V348.772H80.56V349.598H82.94V349.934H80.938V352.314H82.94V352.65H80.364V353.462H82.94V354.246ZM87.546 357.746H92.152V356.724H87.546V356.234C88.834 356.15 90.038 356.038 91.032 355.87L90.066 355.044C88.176 355.324 84.676 355.436 81.792 355.422C81.876 355.66 82.016 356.094 82.044 356.346C83.262 356.36 84.606 356.36 85.908 356.304V356.724H81.414V357.746H85.908V358.194H80.49V359.258H85.908V359.748C85.908 359.93 85.824 359.986 85.6 359.986C85.404 360 84.564 360.014 83.892 359.986C84.102 360.322 84.326 360.826 84.424 361.218C85.502 361.218 86.258 361.218 86.818 361.022C87.378 360.84 87.546 360.532 87.546 359.79V359.258H92.978V358.208H87.546V357.746ZM90.598 352.594C90.332 352.888 90.01 353.126 89.646 353.322C89.31 353.112 89.03 352.86 88.806 352.594H90.598ZM91.676 351.53L91.438 351.544H87.938C88.666 351.012 88.876 350.312 88.918 349.64H90.094V349.78C90.094 350.522 90.178 350.802 90.388 351.012C90.584 351.222 90.962 351.306 91.27 351.306H91.9C92.124 351.306 92.39 351.278 92.558 351.194C92.768 351.124 92.908 350.984 92.992 350.816C93.09 350.648 93.146 350.242 93.174 349.85C92.866 349.752 92.432 349.542 92.208 349.346C92.194 349.612 92.18 349.85 92.138 349.948C92.11 350.06 92.082 350.102 92.026 350.13C91.998 350.144 91.942 350.158 91.872 350.158H91.648C91.592 350.158 91.564 350.144 91.522 350.102C91.494 350.046 91.494 349.934 91.494 349.752V348.534H87.546V349.36C87.546 349.864 87.434 350.354 86.524 350.802C86.734 350.928 87.112 351.264 87.378 351.544H86.93V352.594H88.232L87.476 352.818C87.728 353.182 88.022 353.518 88.358 353.826C87.812 353.966 87.224 354.064 86.594 354.134C86.804 354.4 87.056 354.89 87.154 355.198C88.008 355.072 88.792 354.89 89.478 354.624C90.318 355.1 91.326 355.436 92.474 355.632C92.642 355.268 93.006 354.764 93.3 354.484C92.39 354.386 91.55 354.19 90.822 353.91C91.55 353.392 92.096 352.678 92.446 351.74L91.676 351.53Z" fill="black"/>
<path d="M56.2 400.8V400.17H58.524V400.8H56.2ZM56.2 398.546H58.524V399.176H56.2V398.546ZM62.654 398.546V399.176H60.204V398.546H62.654ZM62.654 400.8H60.204V400.17H62.654V400.8ZM60.204 404.51V403.768H64.88V402.522H60.204V401.892H64.362V397.454H60.204V396.922H65.692V395.62H60.204V394.892C61.73 394.78 63.186 394.626 64.404 394.43L63.634 393.142C61.268 393.534 57.474 393.772 54.212 393.842C54.352 394.178 54.534 394.738 54.548 395.116C55.808 395.102 57.18 395.06 58.524 395.004V395.62H53.176V396.922H58.524V397.454H54.576V401.892H58.524V402.522H54.114V403.768H58.524V404.51H53.092V405.826H65.79V404.51H60.204ZM76.612 402.396C76.304 402.746 75.94 403.054 75.52 403.32C75.1 403.054 74.736 402.746 74.428 402.396H76.612ZM74.092 398.91H77.172V399.498H74.092V398.91ZM74.092 397.384H77.172V397.958H74.092V397.384ZM77.872 401.122L77.578 401.178H75.352C75.534 400.968 75.688 400.744 75.842 400.52H78.754V396.362H73.098C73.252 396.166 73.392 395.97 73.518 395.76H79.524V394.388H74.288C74.442 394.052 74.596 393.73 74.736 393.394L73.196 393.142C72.846 394.108 72.23 395.242 71.334 396.18L70.494 395.648L70.242 395.704H69.794V393.212H68.31V395.704H66.826V397.146H69.528C68.8 398.84 67.61 400.506 66.406 401.472C66.658 401.752 67.036 402.536 67.162 402.942C67.554 402.592 67.946 402.186 68.324 401.724V406.218H69.808V400.87C70.172 401.43 70.522 402.018 70.718 402.424L71.642 401.332C71.53 401.178 71.278 400.842 70.984 400.464C71.306 400.044 71.67 399.512 72.034 398.98L71.096 398.322C70.928 398.7 70.634 399.218 70.368 399.652L70.018 399.218C70.48 398.378 70.886 397.482 71.194 396.586C71.544 396.81 71.964 397.174 72.174 397.44C72.314 397.3 72.454 397.16 72.58 397.006V400.52H73.994C73.378 401.304 72.412 402.102 71.082 402.704C71.432 402.928 71.922 403.446 72.16 403.796C72.552 403.586 72.916 403.362 73.252 403.124C73.504 403.46 73.798 403.754 74.106 404.034C73.154 404.412 72.076 404.664 70.928 404.818C71.194 405.126 71.614 405.826 71.754 406.232C73.098 405.98 74.372 405.602 75.492 405.028C76.458 405.588 77.592 405.98 78.88 406.218C79.104 405.77 79.538 405.112 79.902 404.762C78.824 404.622 77.844 404.398 76.99 404.062C77.774 403.432 78.418 402.648 78.852 401.682L77.872 401.122ZM89.688 397.356H90.682C90.682 398.77 90.682 400.156 90.724 401.402C90.388 401.08 89.968 400.73 89.492 400.394C89.646 399.372 89.688 398.364 89.688 397.44V397.356ZM86.3 399.876H85.418C85.642 399.4 85.88 398.798 86.118 398.196L85.544 398.056H86.734V397.356H88.134V397.426C88.134 398.042 88.12 398.7 88.05 399.4C87.714 399.176 87.392 398.98 87.084 398.798L86.3 399.876ZM84.69 398.056C84.564 398.602 84.326 399.288 84.13 399.778L84.494 399.876H82.66L83.038 399.764C82.968 399.316 82.758 398.63 82.506 398.056H84.69ZM89.688 395.83V393.156H88.134V395.83H86.468V396.656H84.354V395.76H86.174V394.388H84.354V393.142H82.814V394.388H80.868V395.76H82.814V396.656H80.322V398.056H81.778L81.19 398.224C81.4 398.728 81.596 399.386 81.694 399.876H80.616V401.276H82.814V402.242H80.728V403.642H82.814V406.176H84.354V403.642H86.314V402.242H84.354V401.276H86.482V400.17C86.902 400.436 87.336 400.744 87.77 401.052C87.406 402.578 86.664 404.076 85.208 405.21C85.6 405.434 86.202 405.924 86.482 406.218C87.868 405.098 88.666 403.642 89.128 402.13C89.506 402.452 89.842 402.788 90.08 403.068L90.752 402.074C90.878 404.23 91.2 405.826 91.984 406.134C92.88 406.512 93.566 405.966 93.678 403.558C93.44 403.362 93.02 402.788 92.768 402.396C92.754 403.474 92.684 404.566 92.614 404.538C92.138 404.37 92.166 399.638 92.292 395.83H89.688ZM106.642 393.94H99.838V395.522H106.642V393.94ZM97.15 393.142C96.478 394.122 95.148 395.382 93.986 396.124C94.28 396.446 94.7 397.118 94.91 397.482C96.24 396.558 97.752 395.116 98.76 393.8L97.15 393.142ZM97.682 396.166C96.786 397.748 95.26 399.372 93.832 400.352C94.168 400.702 94.728 401.458 94.966 401.794C95.344 401.486 95.722 401.136 96.114 400.758V406.232H97.78V398.924C98.34 398.224 98.858 397.496 99.278 396.782L97.682 396.166ZM106.992 397.79H99.25V399.372H103.38V404.244C103.38 404.454 103.282 404.51 103.03 404.51C102.778 404.524 101.854 404.524 101.056 404.482C101.28 404.972 101.49 405.686 101.56 406.176C102.806 406.176 103.702 406.148 104.29 405.896C104.906 405.644 105.074 405.182 105.074 404.286V399.372H106.992V397.79Z" fill="black"/>
<path d="M57.11 434.482C56.928 435.966 56.606 437.254 56.144 438.332C55.696 438.024 55.248 437.744 54.814 437.478C55.052 436.526 55.29 435.518 55.528 434.482H57.11ZM57.796 432.872L57.502 432.914H55.878C56.074 432.004 56.256 431.122 56.424 430.296L54.814 430.142C54.674 430.996 54.492 431.948 54.296 432.914H52.728V434.482H53.96C53.596 436.12 53.204 437.702 52.868 438.864L54.268 439.536L54.408 439.018C54.73 439.242 55.066 439.48 55.388 439.718C54.716 440.684 53.848 441.398 52.798 441.846C53.134 442.182 53.568 442.798 53.778 443.218C54.968 442.616 55.92 441.804 56.676 440.74C57.278 441.258 57.796 441.748 58.146 442.196L59.112 440.768C58.734 440.32 58.16 439.816 57.502 439.298C58.216 437.702 58.65 435.672 58.818 433.04L57.796 432.872ZM61.072 440.222V433.138H63.536V440.222H61.072ZM59.49 431.57V442.84H61.072V441.804H63.536V442.63H65.188V431.57H59.49ZM69.752 435.252V434.356H72.006V435.252H69.752ZM69.752 432.172H72.006V433.068H69.752V432.172ZM75.996 433.068H73.77V432.172H75.996V433.068ZM75.996 435.252H73.77V434.356H75.996V435.252ZM79.118 438.99V437.464H73.77V436.638H77.83V430.786H68.002V436.638H72.006V437.464H66.644V438.99H70.788C69.612 440.04 67.876 440.964 66.21 441.454C66.588 441.804 67.092 442.448 67.344 442.84C69.01 442.224 70.718 441.132 72.006 439.844V443.218H73.77V439.774C75.072 441.048 76.78 442.14 78.404 442.756C78.642 442.336 79.146 441.678 79.524 441.342C77.928 440.88 76.22 439.984 74.988 438.99H79.118Z" fill="black"/>
<path d="M203.004 437.142C203.06 436.61 203.116 436.078 203.158 435.504H204.544C204.544 436.12 204.544 436.652 204.53 437.142H203.004ZM204.572 432.354L204.558 434.034H203.228C203.256 433.488 203.27 432.928 203.27 432.354H204.572ZM199.798 430.842V432.354H201.618C201.618 432.928 201.604 433.488 201.59 434.034H199.966V435.504H201.52C201.478 436.078 201.436 436.61 201.366 437.142H199.798V438.612H201.1C200.792 439.97 200.288 441.118 199.504 441.986C199.882 442.252 200.638 442.91 200.862 443.218C201.842 442 202.416 440.46 202.78 438.612H204.502C204.46 440.082 204.39 440.754 204.25 440.992C204.124 441.216 203.998 441.286 203.816 441.286C203.55 441.286 203.088 441.286 202.57 441.244C202.85 441.748 203.046 442.504 203.074 443.022C203.718 443.036 204.32 443.05 204.754 442.938C205.216 442.826 205.482 442.658 205.804 442.126C206.224 441.426 206.21 438.92 206.238 431.682C206.238 431.472 206.252 430.842 206.252 430.842H199.798ZM211.516 430.744L211.278 430.8H207.12V443.204H208.702V432.368H210.592C210.214 433.432 209.71 434.818 209.248 435.826C210.508 436.918 210.886 437.898 210.886 438.682C210.886 439.144 210.788 439.452 210.494 439.606C210.312 439.69 210.074 439.732 209.85 439.732C209.584 439.746 209.248 439.746 208.828 439.704C209.094 440.152 209.262 440.824 209.29 441.272C209.752 441.286 210.256 441.286 210.62 441.244C211.012 441.188 211.362 441.076 211.642 440.894C212.202 440.516 212.468 439.844 212.468 438.85C212.468 437.926 212.188 436.848 210.886 435.616C211.502 434.384 212.16 432.816 212.706 431.5L211.516 430.744ZM217.9 432.62V433.39H216.36V434.538H217.9V437.548H219.132V434.538H220.686V433.39H219.132V432.62H222.632V433.39H221.092V434.538H222.632V437.646H223.864V434.538H225.95V433.39H223.864V432.62H226.216V431.234H221.162V430.156H219.426V431.234H214.246V435.462C214.246 437.492 214.162 440.348 213.224 442.322C213.56 442.476 214.232 442.98 214.498 443.26C215.59 441.118 215.772 437.688 215.772 435.462V432.62H217.9ZM222.184 434.832H221.274V435.35C221.274 435.868 221.19 436.61 220.644 437.072C220.882 437.184 221.288 437.492 221.456 437.702C222.086 437.058 222.184 436.148 222.184 435.406V434.832ZM220.504 436.932V434.86H219.58V436.932H220.504ZM217.466 434.846H216.556V435.392C216.556 435.924 216.472 436.694 215.982 437.17C216.22 437.31 216.584 437.59 216.752 437.8C217.368 437.114 217.466 436.19 217.466 435.42V434.846ZM222.436 440.376C222.772 440.698 223.122 441.062 223.472 441.44C222.394 441.468 221.33 441.482 220.294 441.496C221.512 440.684 222.8 439.69 223.864 438.78L222.464 438.024C221.862 438.64 221.064 439.326 220.224 439.984C220 439.816 219.734 439.62 219.44 439.424C220 438.976 220.602 438.444 221.162 437.926L219.818 437.212C219.454 437.688 218.922 438.276 218.404 438.766C218.138 438.626 217.9 438.486 217.662 438.36L216.612 439.326C217.382 439.76 218.334 440.39 218.978 440.922C218.67 441.132 218.362 441.342 218.068 441.538C217.312 441.538 216.626 441.552 216.024 441.552L216.136 442.924C218.292 442.868 221.47 442.784 224.494 442.672C224.634 442.868 224.76 443.064 224.858 443.232L226.258 442.532C225.754 441.72 224.648 440.558 223.738 439.746L222.436 440.376ZM225.418 436.792C225.362 436.792 225.334 436.778 225.306 436.736V436.428V434.832H224.34V436.358C224.34 436.988 224.382 437.184 224.55 437.352C224.69 437.52 224.942 437.59 225.18 437.59H225.614C225.754 437.59 225.95 437.562 226.048 437.506C226.188 437.436 226.3 437.324 226.384 437.184C226.454 437.058 226.496 436.666 226.524 436.316C226.272 436.246 225.964 436.078 225.796 435.938C225.796 436.246 225.782 436.484 225.754 436.596C225.712 436.694 225.698 436.75 225.656 436.764C225.642 436.778 225.586 436.792 225.544 436.792H225.418Z" fill="black"/>
<path d="M101.27 532.776V533.994H99.716V532.776H101.27ZM96.622 532.776H98.092V533.994H96.622V532.776ZM98.092 531.502H95.082V535.254H97.35C96.594 536.178 95.418 537.018 94.27 537.494C94.62 537.788 95.082 538.362 95.32 538.754C96.328 538.236 97.322 537.382 98.092 536.416V538.978H99.716V536.514C100.528 537.41 101.522 538.222 102.446 538.712C102.698 538.306 103.216 537.732 103.566 537.41C102.418 536.948 101.13 536.122 100.29 535.254H102.894V531.502H99.716V530.746H103.37V529.36H99.716V528.156H98.092V529.36H94.648V530.746H98.092V531.502ZM94.382 530.578C93.906 529.92 92.884 529.052 92.044 528.464L90.812 529.472C91.638 530.088 92.632 531.012 93.066 531.684L94.382 530.578ZM94.032 533.574H90.798V535.1H92.408V538.054C91.792 538.53 91.092 538.992 90.49 539.342L91.302 541.078C92.072 540.49 92.688 539.944 93.304 539.398C94.214 540.49 95.362 540.882 97.084 540.952C98.75 541.022 101.564 540.994 103.244 540.91C103.328 540.434 103.58 539.622 103.762 539.23C101.9 539.37 98.75 539.412 97.112 539.342C95.656 539.286 94.606 538.908 94.032 537.97V533.574ZM107.038 530.886H117.132V529.402H112.162V528.156H110.426V529.402H105.442V533.322C105.442 535.366 105.358 538.278 104.196 540.266C104.574 540.434 105.274 540.896 105.554 541.176C106.828 539.02 107.038 535.59 107.038 533.322V530.886ZM113.394 533.378V534.302H110.846V533.378H113.394ZM115.046 535.562V533.378H117.062V532.062H115.046V531.138H113.394V532.062H110.846V531.138H109.278V532.062H107.388V533.378H109.278V535.562H115.046ZM113.912 537.424C113.45 537.872 112.876 538.264 112.232 538.572C111.574 538.25 111.014 537.872 110.594 537.424H113.912ZM115.326 536.052L115.032 536.122H107.486V537.424H109.572L108.914 537.662C109.362 538.264 109.908 538.782 110.524 539.216C109.418 539.538 108.186 539.734 106.898 539.846C107.15 540.196 107.444 540.826 107.57 541.246C109.236 541.036 110.804 540.7 112.176 540.154C113.394 540.7 114.822 541.064 116.432 541.26C116.642 540.826 117.076 540.182 117.412 539.832C116.152 539.72 114.99 539.524 113.968 539.23C114.976 538.558 115.802 537.69 116.362 536.57L115.326 536.052Z" fill="black"/>
<path d="M131.841 539.788C131.079 540.476 129.921 540.476 129.159 539.788L124.396 535.484C123.037 534.256 123.906 532 125.737 532L135.263 532C137.094 532 137.963 534.256 136.604 535.484L131.841 539.788Z" fill="black"/>
<path d="M157.544 528.576H153.316V529.836H157.544V528.576ZM158.076 530.452H152.602V531.768H158.076V530.452ZM157.572 534.316H153.26V535.562H157.572V534.316ZM162.92 535.646C162.584 536.36 162.15 536.99 161.604 537.536C161.044 536.976 160.582 536.346 160.246 535.646H162.92ZM156.116 539.174H154.632V537.564H156.116V539.174ZM163.97 534.078L163.69 534.148H158.762C160.218 533.154 160.498 531.558 160.498 530.242V530.004H162.066V531.698C162.066 533.084 162.388 533.518 163.508 533.518H164.32C165.258 533.518 165.622 533.028 165.762 531.292C165.356 531.18 164.712 530.942 164.404 530.704C164.39 531.922 164.334 532.104 164.152 532.104H163.802C163.648 532.104 163.62 532.062 163.62 531.67V528.534H158.93V530.2C158.93 531.138 158.776 532.244 157.572 533.07V532.398H153.26V533.672H157.572V533.14C157.908 533.364 158.496 533.868 158.734 534.148H158.258V535.646H160.204L158.776 536.108C159.21 537.018 159.742 537.83 160.386 538.53C159.56 539.076 158.608 539.468 157.558 539.734V536.248H153.218V541.022H154.632V540.476H157.558V539.762C157.866 540.14 158.258 540.798 158.426 541.204C159.616 540.84 160.694 540.336 161.632 539.678C162.514 540.336 163.536 540.854 164.712 541.204C164.95 540.77 165.426 540.112 165.79 539.762C164.712 539.496 163.732 539.09 162.906 538.558C163.872 537.508 164.614 536.178 165.062 534.484L163.97 534.078ZM170.27 537.802C170.494 538.698 170.634 539.902 170.592 540.658L172.02 540.49C172.02 539.706 171.88 538.53 171.614 537.634L170.27 537.802ZM172.37 537.676C172.664 538.46 172.972 539.51 173.056 540.196L174.386 539.846C174.288 539.188 173.966 538.152 173.644 537.382L172.37 537.676ZM175.366 531.908C175.282 532.286 175.198 532.65 175.114 532.972H172.412C172.622 532.622 172.804 532.272 172.986 531.908H175.366ZM176.29 534.4C176.22 534.792 176.136 535.156 176.052 535.492H170.634C170.942 535.142 171.222 534.778 171.502 534.4H176.29ZM179.104 535.492H177.55C177.746 534.736 177.928 533.798 178.082 532.972H176.626C176.808 532.202 177.018 531.236 177.186 530.41H173.658C173.896 529.794 174.12 529.164 174.316 528.534L172.608 528.142C172.412 528.898 172.16 529.668 171.838 530.41H170.088L171.18 529.962C170.9 529.444 170.312 528.674 169.808 528.142L168.31 528.73C168.744 529.234 169.22 529.906 169.486 530.41H166.756V531.908H171.124C169.99 533.994 168.338 535.814 166.098 536.948C166.392 537.326 166.798 537.984 166.994 538.404C167.47 538.138 167.932 537.858 168.352 537.55C168.1 538.572 167.652 539.594 166.98 540.252L168.268 541.162C169.094 540.294 169.514 538.992 169.794 537.788L168.59 537.382C168.786 537.242 168.982 537.074 169.178 536.92H177.34C177.172 538.6 176.976 539.356 176.738 539.594C176.598 539.734 176.458 539.748 176.234 539.748C175.954 539.762 175.366 539.748 174.764 539.692C175.016 540.112 175.198 540.742 175.226 541.204C175.94 541.232 176.598 541.232 177.004 541.176C177.466 541.12 177.788 541.008 178.124 540.644C178.572 540.182 178.824 538.964 179.062 536.136L179.104 535.492ZM176.514 538.866C176.374 538.348 175.996 537.592 175.618 537.018L174.47 537.41C174.82 537.998 175.17 538.81 175.296 539.3L176.514 538.866Z" fill="black"/>
<path d="M58.188 537.536C58.734 538.152 59.364 539.02 59.602 539.58L60.974 538.768C60.694 538.194 60.022 537.396 59.448 536.794L58.188 537.536ZM59.504 531.474C59.686 531.348 59.854 531.208 60.036 531.082C60.568 531.404 61.1 531.838 61.45 532.216C61.254 532.37 61.044 532.524 60.82 532.664C60.498 532.286 59.98 531.838 59.504 531.474ZM63.144 530.34C62.92 530.718 62.64 531.068 62.346 531.404C61.982 531.054 61.45 530.662 60.946 530.34H63.144ZM65.44 535.24H63.886V533.616H62.318V535.24H58.454C61.394 534.358 63.984 532.65 65.16 529.64L64.124 529.164L63.858 529.22H62.01C62.192 529.01 62.36 528.8 62.514 528.576L60.904 528.156C60.12 529.36 58.678 530.592 57.068 531.292V528.156H55.542V531.964H54.464V528.786H53.022V533.448H55.542V535.044H52.476V536.472H53.162C53.162 537.466 53.064 539.244 52.322 540.448C52.672 540.616 53.26 540.994 53.54 541.246C54.45 539.818 54.604 537.648 54.604 536.486V536.472H55.542V541.218H57.068V531.46C57.376 531.726 57.768 532.132 57.978 532.37C58.132 532.286 58.3 532.202 58.454 532.118C58.916 532.468 59.378 532.902 59.7 533.294C58.972 533.644 58.188 533.924 57.39 534.106C57.656 534.386 58.006 534.876 58.188 535.24H57.502V536.696H62.318V539.398C62.318 539.58 62.248 539.636 62.038 539.636C61.828 539.636 61.114 539.636 60.456 539.608C60.666 540.084 60.876 540.756 60.932 541.232C61.968 541.232 62.696 541.19 63.228 540.938C63.774 540.672 63.886 540.238 63.886 539.426V536.696H65.44V535.24Z" fill="black"/>
<path d="M63.13 489.978H61.618V484.308H63.13V489.978ZM55.052 484.308H56.494V489.978H55.052V484.308ZM60.12 485.274H57.978V484.308H60.12V485.274ZM57.978 488.942H60.12V489.978H57.978V488.942ZM60.12 487.64H57.978V486.576H60.12V487.64ZM65.468 481.508V479.94H52.868V481.508H57.978C57.922 481.928 57.838 482.362 57.754 482.768H53.442V492.218H55.052V491.504H63.13V492.218H64.824V482.768H59.504C59.616 482.362 59.756 481.942 59.882 481.508H65.468ZM74.064 485.918V487.78H71.628V485.918H74.064ZM75.59 489.236V484.462H70.13V490.216H71.628V489.236H75.59ZM78.67 481.48H72.832C73.168 480.864 73.518 480.136 73.812 479.436L71.698 479.142C71.53 479.842 71.25 480.724 70.956 481.48H67.092V492.204H68.758V483.104H76.99V490.244C76.99 490.496 76.906 490.566 76.64 490.566C76.36 490.58 75.422 490.594 74.596 490.538C74.834 490.986 75.086 491.742 75.142 492.218C76.402 492.218 77.298 492.19 77.886 491.924C78.474 491.658 78.67 491.182 78.67 490.272V481.48Z" fill="black"/>
<path d="M58.668 589.536C59.214 590.152 59.844 591.02 60.082 591.58L61.454 590.768C61.174 590.194 60.502 589.396 59.928 588.794L58.668 589.536ZM59.984 583.474C60.166 583.348 60.334 583.208 60.516 583.082C61.048 583.404 61.58 583.838 61.93 584.216C61.734 584.37 61.524 584.524 61.3 584.664C60.978 584.286 60.46 583.838 59.984 583.474ZM63.624 582.34C63.4 582.718 63.12 583.068 62.826 583.404C62.462 583.054 61.93 582.662 61.426 582.34H63.624ZM65.92 587.24H64.366V585.616H62.798V587.24H58.934C61.874 586.358 64.464 584.65 65.64 581.64L64.604 581.164L64.338 581.22H62.49C62.672 581.01 62.84 580.8 62.994 580.576L61.384 580.156C60.6 581.36 59.158 582.592 57.548 583.292V580.156H56.022V583.964H54.944V580.786H53.502V585.448H56.022V587.044H52.956V588.472H53.642C53.642 589.466 53.544 591.244 52.802 592.448C53.152 592.616 53.74 592.994 54.02 593.246C54.93 591.818 55.084 589.648 55.084 588.486V588.472H56.022V593.218H57.548V583.46C57.856 583.726 58.248 584.132 58.458 584.37C58.612 584.286 58.78 584.202 58.934 584.118C59.396 584.468 59.858 584.902 60.18 585.294C59.452 585.644 58.668 585.924 57.87 586.106C58.136 586.386 58.486 586.876 58.668 587.24H57.982V588.696H62.798V591.398C62.798 591.58 62.728 591.636 62.518 591.636C62.308 591.636 61.594 591.636 60.936 591.608C61.146 592.084 61.356 592.756 61.412 593.232C62.448 593.232 63.176 593.19 63.708 592.938C64.254 592.672 64.366 592.238 64.366 591.426V588.696H65.92V587.24ZM72.22 587.856C71.954 587.548 70.806 586.33 70.428 586.022V585.616H71.926V584.062H70.428V582.088C71.03 581.934 71.59 581.752 72.094 581.556L70.988 580.282C69.91 580.772 68.188 581.178 66.648 581.444C66.83 581.78 67.026 582.34 67.11 582.718C67.656 582.648 68.23 582.55 68.818 582.438V584.062H66.816V585.616H68.594C68.076 586.974 67.306 588.458 66.522 589.368C66.788 589.788 67.138 590.474 67.292 590.95C67.838 590.25 68.37 589.256 68.818 588.178V593.204H70.428V587.744C70.764 588.248 71.1 588.794 71.268 589.158L72.22 587.856ZM77.582 588.15C77.288 588.696 76.91 589.172 76.476 589.592C76.07 589.242 75.524 588.864 75.034 588.57C75.188 588.43 75.342 588.29 75.482 588.15H77.582ZM76.91 582.704C76.616 583.166 76.238 583.572 75.804 583.95C75.426 583.6 74.922 583.236 74.46 582.956C74.558 582.872 74.656 582.788 74.74 582.704H76.91ZM78.674 586.736L78.38 586.792H76.616C76.826 586.484 77.022 586.176 77.19 585.854L76.056 585.658C77.414 584.734 78.506 583.474 79.122 581.78L78.058 581.304L77.792 581.374H75.916C76.14 581.08 76.336 580.772 76.518 580.45L74.894 580.156C74.292 581.234 73.158 582.396 71.394 583.208C71.716 583.446 72.206 584.006 72.43 584.356C72.78 584.174 73.102 583.964 73.41 583.768C73.83 584.048 74.306 584.426 74.656 584.762C73.802 585.266 72.822 585.644 71.786 585.882C72.08 586.204 72.472 586.82 72.64 587.198C73.55 586.932 74.418 586.596 75.216 586.162C74.544 587.17 73.438 588.164 71.856 588.906C72.192 589.158 72.654 589.704 72.864 590.068C73.214 589.872 73.55 589.676 73.872 589.466C74.348 589.774 74.852 590.166 75.244 590.53C74.194 591.174 72.92 591.594 71.52 591.846C71.814 592.182 72.178 592.84 72.346 593.26C75.888 592.462 78.618 590.782 79.738 587.156L78.674 586.736ZM84.736 590.32H87.27V589.144H84.736V588.598H87.214V584.272H84.736V583.726H87.424V584.818H88.698C88.6 587.324 88.264 589.326 87.172 590.838C86.36 590.908 85.534 590.978 84.736 591.034V590.32ZM82.132 587.562V586.932H83.224V587.562H82.132ZM85.828 586.932V587.562H84.736V586.932H85.828ZM84.736 585.938V585.322H85.828V585.938H84.736ZM82.132 585.322H83.224V585.938H82.132V585.322ZM90.322 583.292C90.35 582.368 90.35 581.388 90.35 580.366H88.754C88.754 581.402 88.754 582.368 88.74 583.292H87.424V582.522H84.736V581.836C85.646 581.738 86.514 581.612 87.256 581.458L86.528 580.212C84.988 580.548 82.566 580.786 80.494 580.898C80.648 581.22 80.802 581.738 80.858 582.074C81.614 582.06 82.412 582.018 83.224 581.962V582.522H80.466V583.726H83.224V584.272H80.816V588.598H83.224V589.144H80.76V590.32H83.224V591.16C82.146 591.23 81.166 591.3 80.382 591.356L80.578 592.756C82.09 592.63 84.106 592.42 86.122 592.21C86.486 592.518 86.892 592.98 87.102 593.316C89.454 591.454 90.098 588.57 90.28 584.818H91.54C91.456 589.34 91.316 591.048 91.022 591.426C90.896 591.608 90.756 591.664 90.546 591.664C90.28 591.664 89.748 591.65 89.132 591.594C89.412 592.056 89.594 592.728 89.622 593.19C90.294 593.204 90.938 593.218 91.358 593.134C91.82 593.036 92.142 592.896 92.464 592.434C92.912 591.79 93.024 589.76 93.15 584.034C93.15 583.838 93.164 583.292 93.164 583.292H90.322ZM104.77 584.776V585.994H103.216V584.776H104.77ZM100.122 584.776H101.592V585.994H100.122V584.776ZM101.592 583.502H98.582V587.254H100.85C100.094 588.178 98.918 589.018 97.77 589.494C98.12 589.788 98.582 590.362 98.82 590.754C99.828 590.236 100.822 589.382 101.592 588.416V590.978H103.216V588.514C104.028 589.41 105.022 590.222 105.946 590.712C106.198 590.306 106.716 589.732 107.066 589.41C105.918 588.948 104.63 588.122 103.79 587.254H106.394V583.502H103.216V582.746H106.87V581.36H103.216V580.156H101.592V581.36H98.148V582.746H101.592V583.502ZM97.882 582.578C97.406 581.92 96.384 581.052 95.544 580.464L94.312 581.472C95.138 582.088 96.132 583.012 96.566 583.684L97.882 582.578ZM97.532 585.574H94.298V587.1H95.908V590.054C95.292 590.53 94.592 590.992 93.99 591.342L94.802 593.078C95.572 592.49 96.188 591.944 96.804 591.398C97.714 592.49 98.862 592.882 100.584 592.952C102.25 593.022 105.064 592.994 106.744 592.91C106.828 592.434 107.08 591.622 107.262 591.23C105.4 591.37 102.25 591.412 100.612 591.342C99.156 591.286 98.106 590.908 97.532 589.97V585.574ZM110.538 582.886H120.632V581.402H115.662V580.156H113.926V581.402H108.942V585.322C108.942 587.366 108.858 590.278 107.696 592.266C108.074 592.434 108.774 592.896 109.054 593.176C110.328 591.02 110.538 587.59 110.538 585.322V582.886ZM116.894 585.378V586.302H114.346V585.378H116.894ZM118.546 587.562V585.378H120.562V584.062H118.546V583.138H116.894V584.062H114.346V583.138H112.778V584.062H110.888V585.378H112.778V587.562H118.546ZM117.412 589.424C116.95 589.872 116.376 590.264 115.732 590.572C115.074 590.25 114.514 589.872 114.094 589.424H117.412ZM118.826 588.052L118.532 588.122H110.986V589.424H113.072L112.414 589.662C112.862 590.264 113.408 590.782 114.024 591.216C112.918 591.538 111.686 591.734 110.398 591.846C110.65 592.196 110.944 592.826 111.07 593.246C112.736 593.036 114.304 592.7 115.676 592.154C116.894 592.7 118.322 593.064 119.932 593.26C120.142 592.826 120.576 592.182 120.912 591.832C119.652 591.72 118.49 591.524 117.468 591.23C118.476 590.558 119.302 589.69 119.862 588.57L118.826 588.052ZM126.484 580.576H122.256V581.836H126.484V580.576ZM127.016 582.452H121.542V583.768H127.016V582.452ZM126.512 586.316H122.2V587.562H126.512V586.316ZM131.86 587.646C131.524 588.36 131.09 588.99 130.544 589.536C129.984 588.976 129.522 588.346 129.186 587.646H131.86ZM125.056 591.174H123.572V589.564H125.056V591.174ZM132.91 586.078L132.63 586.148H127.702C129.158 585.154 129.438 583.558 129.438 582.242V582.004H131.006V583.698C131.006 585.084 131.328 585.518 132.448 585.518H133.26C134.198 585.518 134.562 585.028 134.702 583.292C134.296 583.18 133.652 582.942 133.344 582.704C133.33 583.922 133.274 584.104 133.092 584.104H132.742C132.588 584.104 132.56 584.062 132.56 583.67V580.534H127.87V582.2C127.87 583.138 127.716 584.244 126.512 585.07V584.398H122.2V585.672H126.512V585.14C126.848 585.364 127.436 585.868 127.674 586.148H127.198V587.646H129.144L127.716 588.108C128.15 589.018 128.682 589.83 129.326 590.53C128.5 591.076 127.548 591.468 126.498 591.734V588.248H122.158V593.022H123.572V592.476H126.498V591.762C126.806 592.14 127.198 592.798 127.366 593.204C128.556 592.84 129.634 592.336 130.572 591.678C131.454 592.336 132.476 592.854 133.652 593.204C133.89 592.77 134.366 592.112 134.73 591.762C133.652 591.496 132.672 591.09 131.846 590.558C132.812 589.508 133.554 588.178 134.002 586.484L132.91 586.078ZM137.46 583.138H146.07V585.056H147.792V581.556H142.668V580.156H140.904V581.556H135.822V585.056H137.46V583.138ZM142.654 589.242H146.504V587.674H142.654V585.924H145.65V584.342H137.95V585.924H140.932V590.866C140.106 590.46 139.448 589.788 139.028 588.668C139.154 588.108 139.252 587.52 139.336 586.89L137.6 586.722C137.348 589.116 136.662 591.048 135.15 592.168C135.542 592.42 136.242 593.008 136.522 593.302C137.32 592.616 137.936 591.72 138.384 590.656C139.672 592.644 141.59 593.064 144.166 593.064H147.666C147.75 592.574 148.016 591.776 148.254 591.37C147.316 591.412 145.006 591.412 144.25 591.412C143.69 591.412 143.158 591.384 142.654 591.328V589.242ZM152.93 589.802C153.154 590.698 153.294 591.902 153.252 592.658L154.68 592.49C154.68 591.706 154.54 590.53 154.274 589.634L152.93 589.802ZM155.03 589.676C155.324 590.46 155.632 591.51 155.716 592.196L157.046 591.846C156.948 591.188 156.626 590.152 156.304 589.382L155.03 589.676ZM158.026 583.908C157.942 584.286 157.858 584.65 157.774 584.972H155.072C155.282 584.622 155.464 584.272 155.646 583.908H158.026ZM158.95 586.4C158.88 586.792 158.796 587.156 158.712 587.492H153.294C153.602 587.142 153.882 586.778 154.162 586.4H158.95ZM161.764 587.492H160.21C160.406 586.736 160.588 585.798 160.742 584.972H159.286C159.468 584.202 159.678 583.236 159.846 582.41H156.318C156.556 581.794 156.78 581.164 156.976 580.534L155.268 580.142C155.072 580.898 154.82 581.668 154.498 582.41H152.748L153.84 581.962C153.56 581.444 152.972 580.674 152.468 580.142L150.97 580.73C151.404 581.234 151.88 581.906 152.146 582.41H149.416V583.908H153.784C152.65 585.994 150.998 587.814 148.758 588.948C149.052 589.326 149.458 589.984 149.654 590.404C150.13 590.138 150.592 589.858 151.012 589.55C150.76 590.572 150.312 591.594 149.64 592.252L150.928 593.162C151.754 592.294 152.174 590.992 152.454 589.788L151.25 589.382C151.446 589.242 151.642 589.074 151.838 588.92H160C159.832 590.6 159.636 591.356 159.398 591.594C159.258 591.734 159.118 591.748 158.894 591.748C158.614 591.762 158.026 591.748 157.424 591.692C157.676 592.112 157.858 592.742 157.886 593.204C158.6 593.232 159.258 593.232 159.664 593.176C160.126 593.12 160.448 593.008 160.784 592.644C161.232 592.182 161.484 590.964 161.722 588.136L161.764 587.492ZM159.174 590.866C159.034 590.348 158.656 589.592 158.278 589.018L157.13 589.41C157.48 589.998 157.83 590.81 157.956 591.3L159.174 590.866Z" fill="black"/>
<path d="M110.454 482.964V481.368H104.924V479.086H103.202V481.368H97.84V482.964H101.844C101.69 485.96 101.368 489.152 97.588 490.902C98.022 491.266 98.526 491.854 98.764 492.316C101.564 490.902 102.726 488.718 103.258 486.352H107.108C106.912 488.9 106.66 490.118 106.296 490.426C106.128 490.58 105.932 490.608 105.624 490.608C105.218 490.608 104.238 490.608 103.272 490.51C103.58 490.986 103.832 491.672 103.86 492.148C104.798 492.19 105.736 492.204 106.254 492.148C106.912 492.092 107.346 491.952 107.766 491.504C108.326 490.888 108.62 489.32 108.872 485.512C108.914 485.288 108.928 484.784 108.928 484.784H103.524C103.594 484.182 103.636 483.566 103.678 482.964H110.454ZM119.064 485.918V487.78H116.628V485.918H119.064ZM120.59 489.236V484.462H115.13V490.216H116.628V489.236H120.59ZM123.67 481.48H117.832C118.168 480.864 118.518 480.136 118.812 479.436L116.698 479.142C116.53 479.842 116.25 480.724 115.956 481.48H112.092V492.204H113.758V483.104H121.99V490.244C121.99 490.496 121.906 490.566 121.64 490.566C121.36 490.58 120.422 490.594 119.596 490.538C119.834 490.986 120.086 491.742 120.142 492.218C121.402 492.218 122.298 492.19 122.886 491.924C123.474 491.658 123.67 491.182 123.67 490.272V481.48Z" fill="black"/>
<path d="M173.15 488.088V487.178H175.488V488.088H173.15ZM175.488 485.078V485.946H173.15V485.078H175.488ZM177.098 483.678H171.568V492.134H173.15V489.306H175.488V490.552C175.488 490.72 175.432 490.776 175.264 490.776C175.082 490.79 174.522 490.79 174.004 490.762C174.214 491.14 174.452 491.756 174.536 492.176C175.39 492.176 176.034 492.148 176.482 491.91C176.958 491.672 177.098 491.28 177.098 490.566V483.678ZM181.088 490.356C181.088 490.552 181.018 490.608 180.794 490.608C180.556 490.622 179.828 490.622 179.114 490.594C179.366 491.028 179.632 491.714 179.716 492.162C180.724 492.176 181.48 492.134 182.012 491.882C182.572 491.616 182.726 491.21 182.726 490.384V483.426H181.088V490.356ZM179.828 483.818H178.302V489.53H179.828V483.818ZM180.626 481.214C180.976 480.724 181.354 480.178 181.69 479.632L179.884 479.1C179.604 479.744 179.156 480.57 178.736 481.214H174.844L175.614 480.948C175.376 480.416 174.816 479.66 174.312 479.128L172.73 479.674C173.122 480.136 173.528 480.738 173.78 481.214H170.798V482.712H183.468V481.214H180.626ZM192.484 483.426H190.664V482.544H192.484V483.426ZM192.484 485.694H190.664V484.77H192.484V485.694ZM192.484 487.99H190.664V487.038H192.484V487.99ZM189.054 489.39H197.09V487.99H194.066V487.038H196.418V485.694H194.066V484.77H196.474V483.426H194.066V482.544H196.852V481.144H194.374C194.626 480.668 194.878 480.15 195.13 479.646L193.296 479.296C193.156 479.842 192.946 480.528 192.708 481.144H191.112C191.378 480.654 191.616 480.164 191.826 479.66L190.174 479.184C189.53 480.85 188.368 482.46 187.08 483.44C187.43 483.748 188.046 484.42 188.298 484.756C188.55 484.532 188.802 484.294 189.054 484.028V489.39ZM187.962 481.718C187.514 481.046 186.548 480.122 185.764 479.492L184.49 480.444C185.274 481.116 186.198 482.082 186.59 482.768L187.962 481.718ZM187.584 484.574H184.434V486.1H186.002V489.152C185.442 489.628 184.812 490.09 184.266 490.44L185.05 492.092C185.764 491.49 186.338 490.958 186.898 490.412C187.738 491.49 188.858 491.896 190.524 491.966C192.232 492.036 195.2 492.008 196.936 491.924C197.02 491.462 197.258 490.692 197.454 490.3C195.522 490.454 192.218 490.496 190.538 490.426C189.11 490.37 188.13 489.978 187.584 489.04V484.574Z" fill="black"/>
<path d="M324.332 485.274C323.086 488.816 320.384 490.132 315.722 490.65C316.072 491.07 316.394 491.728 316.562 492.232C321.63 491.462 324.528 489.894 326.04 485.82L324.332 485.274ZM317.346 484.868C316.716 485.876 315.61 486.898 314.532 487.514C314.938 487.78 315.652 488.34 315.988 488.662C317.038 487.892 318.284 486.646 319.054 485.428L317.346 484.868ZM321.896 483.09V482.026H325.844V480.486H321.896V479.156H320.202V483.09H318.312V480.052H316.618V483.09H314.714V484.672H320.216V487.304C320.216 487.458 320.146 487.472 319.95 487.472C319.754 487.486 318.998 487.486 318.41 487.472C318.62 487.892 318.858 488.522 318.928 488.956C319.894 488.956 320.622 488.956 321.168 488.732C321.714 488.494 321.868 488.102 321.868 487.332V484.672H327.286V483.09H321.896Z" fill="black"/>
<path d="M141.841 490.788C141.079 491.476 139.921 491.476 139.159 490.788L134.396 486.484C133.037 485.256 133.906 483 135.737 483L145.263 483C147.094 483 147.963 485.256 146.604 486.484L141.841 490.788Z" fill="black"/>
<rect x="225" y="729" width="134" height="43" rx="21.5" fill="#FEA735"/>
<path d="M276.923 745.12H289.181V747.622H290.567V743.86H283.727V741.952H282.341V743.86H275.573V747.622H276.923V745.12ZM287.921 748.36V747.118H278.219V748.36H287.921ZM286.589 756.838C285.833 756.838 285.707 756.73 285.707 756.226V751.672H290.999V750.412H275.159V751.672H279.803C279.479 754.39 278.597 756.316 274.763 757.27C275.051 757.522 275.411 758.08 275.555 758.404C279.749 757.234 280.811 754.93 281.225 751.672H284.375V756.226C284.375 757.648 284.807 758.062 286.445 758.062H289.217C290.639 758.062 291.035 757.432 291.179 754.984C290.819 754.876 290.261 754.66 289.955 754.462C289.901 756.514 289.775 756.838 289.109 756.838H286.589ZM304.139 742.834C305.273 743.446 306.641 744.364 307.325 744.994L308.153 744.076C307.451 743.446 306.047 742.582 304.931 742.024L304.139 742.834ZM306.695 747.694C306.137 749.512 305.363 751.132 304.391 752.554C303.905 750.844 303.581 748.702 303.401 746.308H309.125V744.994H303.311C303.257 744.022 303.239 743.014 303.239 741.97H301.853C301.871 742.996 301.889 744.004 301.961 744.994H294.455V750.016C294.455 752.338 294.293 755.416 292.817 757.612C293.123 757.774 293.699 758.242 293.933 758.512C295.553 756.172 295.823 752.554 295.823 750.034V749.89H299.099C299.027 752.986 298.937 754.12 298.685 754.39C298.577 754.552 298.397 754.588 298.145 754.588C297.839 754.588 297.065 754.57 296.237 754.498C296.453 754.84 296.597 755.344 296.615 755.758C297.497 755.794 298.307 755.794 298.757 755.758C299.261 755.704 299.567 755.578 299.837 755.236C300.215 754.768 300.323 753.256 300.413 749.224V748.648H295.823V746.308H302.033C302.267 749.206 302.699 751.852 303.347 753.886C302.195 755.236 300.809 756.352 299.207 757.216C299.513 757.468 299.981 758.008 300.179 758.278C301.565 757.468 302.807 756.46 303.887 755.29C304.715 757.144 305.795 758.242 307.181 758.242C308.549 758.242 309.035 757.36 309.287 754.3C308.927 754.192 308.441 753.886 308.135 753.58C308.009 755.974 307.793 756.91 307.289 756.91C306.371 756.91 305.543 755.884 304.877 754.12C306.209 752.41 307.271 750.358 308.045 748.036L306.695 747.694Z" fill="black"/>
<path opacity="0.35" d="M336.812 18.6693C336.812 17.4727 337.782 16.5026 338.979 16.5026H355.469C356.666 16.5026 357.636 17.4727 357.636 18.6693V24.6693C357.636 25.8659 356.666 26.836 355.469 26.836H338.979C337.782 26.836 336.812 25.8659 336.812 24.6693V18.6693Z" stroke="black"/>
<path opacity="0.4" d="M359.128 19.6693V23.6693C359.926 23.3305 360.445 22.5424 360.445 21.6693C360.445 20.7962 359.926 20.0081 359.128 19.6693Z" fill="black"/>
<path d="M338.296 19.336C338.296 18.5996 338.893 18.0026 339.629 18.0026H354.819C355.555 18.0026 356.152 18.5996 356.152 19.336V24.0026C356.152 24.739 355.555 25.336 354.819 25.336H339.629C338.893 25.336 338.296 24.739 338.296 24.0026V19.336Z" fill="black"/>
<path fill-rule="evenodd" clip-rule="evenodd" d="M323.744 18.2773C325.942 18.2774 328.056 19.1289 329.649 20.6557C329.769 20.7735 329.961 20.772 330.079 20.6523L331.226 19.4857C331.286 19.4249 331.319 19.3427 331.319 19.2571C331.318 19.1715 331.284 19.0897 331.223 19.0297C327.042 14.9901 320.445 14.9901 316.264 19.0297C316.203 19.0896 316.169 19.1715 316.168 19.257C316.168 19.3426 316.201 19.4249 316.261 19.4857L317.408 20.6523C317.526 20.7722 317.718 20.7737 317.838 20.6557C319.431 19.1288 321.546 18.2773 323.744 18.2773ZM323.744 22.073C324.952 22.0729 326.116 22.5255 327.012 23.3427C327.133 23.4587 327.323 23.4562 327.441 23.337L328.587 22.1704C328.647 22.1092 328.681 22.0261 328.68 21.9399C328.679 21.8536 328.644 21.7713 328.582 21.7114C325.856 19.155 321.634 19.155 318.908 21.7114C318.846 21.7713 318.811 21.8537 318.81 21.9399C318.81 22.0262 318.843 22.1092 318.904 22.1704L320.049 23.337C320.167 23.4562 320.358 23.4587 320.479 23.3427C321.373 22.526 322.537 22.0735 323.744 22.073ZM326.038 24.6268C326.04 24.7133 326.007 24.7967 325.945 24.8573L323.964 26.873C323.906 26.9323 323.827 26.9656 323.744 26.9656C323.661 26.9656 323.582 26.9323 323.524 26.873L321.542 24.8573C321.481 24.7967 321.448 24.7133 321.449 24.6268C321.451 24.5403 321.488 24.4583 321.552 24.4003C322.817 23.3215 324.671 23.3215 325.936 24.4003C326 24.4584 326.037 24.5403 326.038 24.6268Z" fill="black"/>
<path fill-rule="evenodd" clip-rule="evenodd" d="M312.189 16.336H311.197C310.65 16.336 310.205 16.7837 310.205 17.336V26.0027C310.205 26.555 310.65 27.0027 311.197 27.0027H312.189C312.737 27.0027 313.181 26.555 313.181 26.0027V17.336C313.181 16.7837 312.737 16.336 312.189 16.336ZM306.568 18.6693H307.56C308.108 18.6693 308.552 19.117 308.552 19.6693V26.0026C308.552 26.5549 308.108 27.0026 307.56 27.0026H306.568C306.02 27.0026 305.576 26.5549 305.576 26.0026V19.6693C305.576 19.117 306.02 18.6693 306.568 18.6693ZM302.931 21.0027H301.939C301.391 21.0027 300.947 21.4504 300.947 22.0027V26.0027C300.947 26.555 301.391 27.0027 301.939 27.0027H302.931C303.479 27.0027 303.923 26.555 303.923 26.0027V22.0027C303.923 21.4504 303.479 21.0027 302.931 21.0027ZM298.301 23.0027H297.309C296.762 23.0027 296.317 23.4504 296.317 24.0027V26.0027C296.317 26.5549 296.762 27.0027 297.309 27.0027H298.301C298.849 27.0027 299.293 26.5549 299.293 26.0027V24.0027C299.293 23.4504 298.849 23.0027 298.301 23.0027Z" fill="black"/>
<path d="M38.4455 22.8765C37.9133 23.355 37.3176 23.5942 36.6584 23.5942C35.6916 23.5942 34.925 23.2671 34.3586 22.6128C33.7922 21.9585 33.509 21.0845 33.509 19.9907C33.509 19.3071 33.6677 18.6724 33.9851 18.0864C34.3025 17.5005 34.7468 17.0366 35.3181 16.6948C35.8943 16.353 36.529 16.1821 37.2224 16.1821C37.9255 16.1821 38.5603 16.3604 39.1267 16.7168C39.698 17.0684 40.1423 17.5688 40.4597 18.2183C40.7771 18.8628 40.9406 19.6074 40.9504 20.4521V21.397C40.9504 22.5737 40.7185 23.5942 40.2546 24.4585C39.7956 25.3228 39.1389 25.9868 38.2844 26.4507C37.4299 26.9146 36.4338 27.1465 35.2961 27.1465H35.1423V25.1689L35.6111 25.1616C37.3103 25.0786 38.2551 24.3169 38.4455 22.8765ZM37.3249 21.8145C37.862 21.8145 38.2478 21.5825 38.4821 21.1187V20.0933C38.4821 19.4097 38.3674 18.9043 38.1379 18.5771C37.9084 18.25 37.5984 18.0864 37.2077 18.0864C36.8611 18.0864 36.5705 18.272 36.3361 18.6431C36.1018 19.0142 35.9846 19.4634 35.9846 19.9907C35.9846 20.5474 36.1042 20.9917 36.3435 21.3237C36.5827 21.6509 36.9099 21.8145 37.3249 21.8145ZM43.5435 24.605C43.9341 24.605 44.2588 24.7222 44.5176 24.9565C44.7764 25.186 44.9058 25.4814 44.9058 25.8428C44.9058 26.2041 44.7764 26.502 44.5176 26.7363C44.2588 26.9658 43.9341 27.0806 43.5435 27.0806C43.148 27.0806 42.8208 26.9634 42.562 26.729C42.3081 26.4946 42.1812 26.1992 42.1812 25.8428C42.1812 25.4863 42.3081 25.1909 42.562 24.9565C42.8208 24.7222 43.148 24.605 43.5435 24.605ZM43.5435 18.7603C43.9341 18.7603 44.2588 18.8774 44.5176 19.1118C44.7764 19.3413 44.9058 19.6367 44.9058 19.998C44.9058 20.3594 44.7764 20.6572 44.5176 20.8916C44.2588 21.1211 43.9341 21.2358 43.5435 21.2358C43.148 21.2358 42.8208 21.1187 42.562 20.8843C42.3081 20.6499 42.1812 20.3545 42.1812 19.998C42.1812 19.6416 42.3081 19.3462 42.562 19.1118C42.8208 18.8774 43.148 18.7603 43.5435 18.7603ZM51.6517 27H49.1761V19.1191L46.7444 19.8296V17.9546L51.4246 16.3359H51.6517V27ZM61.0856 22.8325H62.1695V24.7368H61.0856V27H58.6173V24.7368H54.4938L54.3473 23.228L58.6173 16.3579V16.3359H61.0856V22.8325ZM56.6984 22.8325H58.6173V19.5513L58.4635 19.8003L56.6984 22.8325Z" fill="black"/>
</g>
<defs>
<clipPath id="clip0_309_227">
<rect width="375" height="812" rx="40" fill="white"/>
</clipPath>
<clipPath id="clip1_309_227">
<rect width="44" height="44" fill="white" transform="translate(16 42)"/>
</clipPath>
</defs>
</svg>
