<svg width="375" height="812" viewBox="0 0 375 812" fill="none" xmlns="http://www.w3.org/2000/svg">
<rect width="375" height="812" rx="40" fill="#FCF5EF"/>
<rect x="121" y="799" width="134" height="5" rx="2.5" fill="black"/>
<rect x="16" y="263" width="343" height="43" rx="21.5" fill="#FEA735"/>
<path d="M119.82 290.136V287.472H129.414V290.136H119.82ZM129.414 283.602V286.212H119.82V283.602H129.414ZM129.414 279.66V282.342H119.82V279.66H129.414ZM124.338 278.382C124.644 277.698 124.968 276.888 125.238 276.114L123.708 275.916C123.564 276.618 123.276 277.59 123.006 278.382H118.488V292.404H119.82V291.396H129.414V292.314H130.8V278.382H124.338ZM150.114 277.032H141.33V278.292H150.114V277.032ZM138.324 275.934C137.424 277.212 135.696 278.832 134.202 279.84C134.436 280.092 134.796 280.614 134.994 280.902C136.596 279.768 138.432 278.022 139.602 276.438L138.324 275.934ZM139.062 279.768C137.82 281.802 135.876 283.872 134.022 285.186C134.292 285.456 134.76 286.032 134.958 286.302C135.624 285.78 136.308 285.132 136.992 284.43V292.422H138.324V282.954C139.062 282.072 139.746 281.154 140.304 280.236L139.062 279.768ZM150.636 281.946H140.556V283.224H146.568V290.64C146.568 290.946 146.46 291.018 146.118 291.036C145.776 291.054 144.588 291.054 143.31 291.018C143.508 291.396 143.688 291.954 143.742 292.314C145.506 292.314 146.514 292.314 147.126 292.116C147.72 291.9 147.918 291.486 147.918 290.658V283.224H150.636V281.946ZM153.156 286.14C152.958 287.706 152.616 289.326 152.058 290.424C152.31 290.514 152.832 290.748 153.03 290.892C153.606 289.74 154.002 288.03 154.254 286.338L153.156 286.14ZM157.44 284.7C157.584 285.132 157.692 285.528 157.746 285.852L158.772 285.42C158.556 284.412 157.926 282.846 157.242 281.658L156.306 282.018C156.558 282.504 156.81 283.044 157.026 283.584L154.614 283.71C155.766 282.198 157.098 280.146 158.07 278.472L156.972 277.986C156.504 278.94 155.856 280.11 155.154 281.226C154.902 280.884 154.578 280.488 154.218 280.092C154.848 279.102 155.622 277.626 156.234 276.384L155.082 275.952C154.722 276.942 154.074 278.328 153.498 279.354C153.318 279.174 153.12 278.976 152.94 278.814L152.22 279.642C153.048 280.416 153.948 281.46 154.47 282.27C154.11 282.828 153.75 283.332 153.408 283.782C152.94 283.8 152.49 283.818 152.094 283.836L152.22 285.042C153.03 284.988 153.948 284.934 154.938 284.862V292.368H156.108V284.79L157.44 284.7ZM165.774 287.85V285.78H167.196V287.85H165.774ZM163.47 287.85V285.78H164.856V287.85H163.47ZM161.22 287.85V285.78H162.57V287.85H161.22ZM166.674 280.488V282.414H160.464V280.488H166.674ZM168.33 284.736H160.428C160.446 284.304 160.464 283.908 160.464 283.512H167.97V279.372H159.258V283.314C159.258 285.042 159.168 287.256 158.448 289.236C158.34 288.354 157.998 287.076 157.566 286.086L156.63 286.374C157.044 287.4 157.404 288.75 157.458 289.632L158.412 289.362C158.142 290.064 157.8 290.748 157.35 291.36C157.62 291.504 158.124 291.882 158.322 292.116C159.384 290.658 159.942 288.804 160.212 286.986V292.368H161.22V288.876H162.57V292.188H163.47V288.876H164.856V292.188H165.774V288.876H167.196V291.09C167.196 291.252 167.16 291.288 167.052 291.288C166.908 291.288 166.53 291.288 166.098 291.27C166.242 291.576 166.422 292.044 166.458 292.368C167.124 292.368 167.592 292.332 167.934 292.17C168.258 291.954 168.33 291.63 168.33 291.108V284.736ZM158.574 277.032V278.202H168.402V277.032H158.574ZM175.458 288.66C175.818 289.668 176.088 291 176.07 291.81L177.168 291.648C177.168 290.838 176.898 289.542 176.502 288.552L175.458 288.66ZM177.996 288.588C178.518 289.452 178.986 290.586 179.13 291.342L180.156 291.036C180.012 290.28 179.508 289.146 178.932 288.3L177.996 288.588ZM182.928 290.01C182.64 289.452 181.974 288.624 181.362 288.048L180.462 288.48C181.074 289.074 181.722 289.92 181.992 290.496L182.928 290.01ZM175.71 286.554C176.052 286.176 176.376 285.798 176.646 285.384H183.99V280.038H179.022V281.028H182.766V282.234H179.292V283.188H182.766V284.412H174.306V283.188H177.744V282.234H174.306V281.082C175.566 280.812 176.988 280.452 178.05 280.002L177.204 279.138C176.412 279.516 175.098 279.912 173.91 280.218L173.1 280.038V285.384H175.17C174.054 286.806 172.2 287.94 170.346 288.66C170.598 288.912 170.994 289.47 171.138 289.722C171.858 289.398 172.596 289.002 173.28 288.552C173.01 289.686 172.488 290.856 171.66 291.54L172.668 292.152C173.64 291.342 174.108 289.974 174.414 288.678L173.496 288.408C173.856 288.174 174.198 287.922 174.522 287.652H184.206C184.062 289.866 183.882 290.784 183.612 291.072C183.468 291.216 183.324 291.234 183.018 291.216C182.694 291.234 181.884 291.216 181.02 291.144C181.236 291.45 181.362 291.954 181.398 292.296C182.28 292.35 183.144 292.368 183.576 292.314C184.08 292.296 184.404 292.188 184.71 291.864C185.142 291.396 185.358 290.172 185.556 287.094C185.574 286.914 185.592 286.554 185.592 286.554H175.71ZM179.13 277.392V275.952H177.816V277.392H170.922V280.56H172.146V278.562H184.836V280.56H186.096V277.392H179.13ZM202.458 281.154H197.058V277.86H202.458V281.154ZM203.772 276.69H195.834V282.306H203.772V276.69ZM195.114 285.798C194.754 285.384 193.224 283.8 192.666 283.332V282.234H194.916V280.974H192.666V277.932C193.512 277.734 194.304 277.482 194.952 277.212L194.016 276.204C192.702 276.798 190.344 277.32 188.328 277.644C188.49 277.95 188.67 278.382 188.742 278.688C189.57 278.562 190.488 278.418 191.37 278.238V280.974H188.436V282.234H191.19C190.47 284.286 189.228 286.608 188.094 287.868C188.31 288.192 188.634 288.714 188.76 289.092C189.678 287.994 190.632 286.194 191.37 284.376V292.332H192.666V284.628C193.278 285.366 194.016 286.356 194.304 286.86L195.114 285.798ZM200.406 290.694V288.372H203.988V287.202H200.406V285.06H204.384V283.872H195.168V285.06H199.074V287.202H195.582V288.372H199.074V290.694H194.358V291.9H204.78V290.694H200.406ZM221.736 278.22C221.196 277.608 220.062 276.69 219.144 276.078L218.244 276.816C219.162 277.464 220.278 278.436 220.8 279.066L221.736 278.22ZM211.71 284.556H215.076V283.26H207.192V284.556H210.396V289.776C208.956 290.064 207.642 290.334 206.634 290.532L207.048 291.846C209.334 291.342 212.628 290.586 215.67 289.848L215.562 288.678C214.266 288.966 212.97 289.218 211.71 289.488V284.556ZM222.474 280.578V279.282H217.146C217.092 278.22 217.074 277.14 217.074 276.024H215.67C215.688 277.122 215.706 278.22 215.76 279.282H206.562V280.578H215.85C216.318 287.238 217.812 292.404 220.746 292.404C222.114 292.404 222.618 291.486 222.852 288.372C222.474 288.228 221.97 287.94 221.664 287.634C221.556 290.028 221.34 291.018 220.854 291.018C219.072 291.018 217.65 286.644 217.218 280.578H222.474ZM232.626 279.912H233.904V278.562H236.64V279.93H237.936V278.562H240.438V277.428H237.936V275.952H236.64V277.428H233.904V275.952H232.626V277.428H230.016V278.562H232.626V279.912ZM230.106 284.862C229.782 284.304 228.432 282.036 227.964 281.352V280.65H229.818V279.39H227.964V275.934H226.686V279.39H224.472V280.65H226.686C226.2 283.08 225.174 285.942 224.13 287.436C224.364 287.76 224.688 288.336 224.832 288.732C225.498 287.67 226.164 286.032 226.686 284.286V292.368H227.964V283.152C228.45 284.088 229.008 285.24 229.26 285.852L230.106 284.862ZM231.996 283.494H238.224V284.772H231.996V283.494ZM231.996 281.262H238.224V282.54H231.996V281.262ZM240.42 288.408V287.274H235.47C235.56 286.806 235.65 286.302 235.704 285.78H239.502V280.254H230.754V285.78H234.39C234.318 286.302 234.246 286.824 234.138 287.274H229.62V288.408H233.742C233.058 289.776 231.78 290.73 229.152 291.324C229.386 291.576 229.728 292.08 229.836 292.368C232.968 291.612 234.408 290.352 235.128 288.444C236.028 290.406 237.684 291.738 239.988 292.368C240.168 292.026 240.546 291.522 240.834 291.27C238.8 290.838 237.27 289.848 236.388 288.408H240.42ZM243.192 286.14C242.994 287.724 242.616 289.326 242.022 290.424C242.31 290.514 242.85 290.766 243.066 290.928C243.66 289.776 244.092 288.048 244.344 286.356L243.192 286.14ZM248.016 284.826C248.178 285.204 248.286 285.546 248.358 285.852L249.42 285.348C249.168 284.376 248.376 282.846 247.638 281.694L246.648 282.126C246.954 282.612 247.26 283.17 247.53 283.728C246.54 283.764 245.55 283.818 244.65 283.854C245.892 282.306 247.332 280.182 248.376 278.49L247.224 277.986C246.72 278.958 246.036 280.128 245.298 281.262C245.01 280.884 244.632 280.452 244.2 280.02C244.884 279.048 245.64 277.608 246.252 276.402L245.064 275.952C244.686 276.942 244.056 278.292 243.462 279.3C243.282 279.138 243.102 278.976 242.922 278.832L242.238 279.714C243.084 280.47 244.038 281.478 244.596 282.288C244.2 282.882 243.786 283.422 243.39 283.89C242.976 283.908 242.562 283.926 242.202 283.926L242.31 285.132L245.244 284.988V292.404H246.45V284.916L248.016 284.826ZM247.098 286.392C247.584 287.508 248.088 288.948 248.25 289.884L249.312 289.524C249.15 288.588 248.628 287.166 248.106 286.068L247.098 286.392ZM251.562 287.202H256.134V290.64H251.562V287.202ZM256.134 278.166V281.478H251.562V278.166H256.134ZM256.134 285.996H251.562V282.684H256.134V285.996ZM257.448 290.64V276.96H250.266V290.64H248.358V291.864H258.834V290.64H257.448Z" fill="black"/>
<rect x="17.5" y="264.5" width="340" height="506" rx="23.5" stroke="#FEA735" stroke-width="3"/>
<path d="M16 288C16 274.193 27.1929 263 41 263H334C347.807 263 359 274.193 359 288V311.53H16V288Z" fill="#FEA735"/>
<path d="M137.302 286.405H133.81V287.665H136.024V292.777H137.302V286.405ZM137.302 292.237H136.15C135.322 293.029 134.368 293.839 133.594 294.433L134.296 295.711C135.16 294.901 135.97 294.127 136.744 293.353C137.878 294.775 139.516 295.423 141.91 295.513C143.962 295.585 147.886 295.549 149.938 295.459C149.992 295.081 150.208 294.469 150.37 294.181C148.156 294.325 143.926 294.379 141.892 294.289C139.75 294.199 138.148 293.587 137.302 292.237ZM133.9 280.411C134.944 281.311 136.114 282.607 136.582 283.507L137.716 282.733C137.212 281.833 136.006 280.591 134.944 279.727L133.9 280.411ZM138.634 286.909V287.953H149.56V286.909H138.634ZM138.058 289.681V290.743H150.118V289.681H138.058ZM141.298 285.613V290.203H142.594V285.613H141.298ZM145.546 285.613V290.203H146.824V285.613H145.546ZM139.084 282.121V283.075H143.44V280.015H138.4V280.951H142.252V282.121H139.084ZM138.706 282.121V284.011C138.706 285.091 139.066 285.361 140.398 285.361C140.668 285.361 142.378 285.361 142.666 285.361C143.584 285.361 143.926 285.055 144.052 283.885C143.728 283.831 143.278 283.687 143.062 283.507C143.008 284.299 142.918 284.407 142.486 284.407C142.144 284.407 140.776 284.407 140.524 284.407C139.948 284.407 139.858 284.335 139.858 283.993V282.121H138.706ZM145.024 282.121V283.075H149.308V280.015H144.304V280.951H148.138V282.121H145.024ZM144.628 282.121V283.993C144.628 285.091 145.006 285.361 146.374 285.361C146.662 285.361 148.498 285.361 148.786 285.361C149.758 285.361 150.1 285.055 150.226 283.831C149.902 283.759 149.452 283.615 149.218 283.453C149.164 284.299 149.074 284.407 148.624 284.407C148.264 284.407 146.788 284.407 146.5 284.407C145.888 284.407 145.78 284.335 145.78 283.993V282.121H144.628ZM145.222 291.553C146.464 292.201 147.796 293.065 148.516 293.731L149.848 293.137C148.984 292.471 147.508 291.589 146.194 290.959L145.222 291.553ZM141.928 290.923C141.118 291.661 139.768 292.345 138.544 292.831C138.832 293.011 139.336 293.443 139.534 293.677C140.74 293.101 142.198 292.219 143.116 291.337L141.928 290.923ZM164.788 281.005H166.624V282.913H164.788V281.005ZM161.908 281.005H163.708V282.913H161.908V281.005ZM159.118 281.005H160.828V282.913H159.118V281.005ZM158.002 280.033V283.885H167.758V280.033H158.002ZM158.2 285.001V286.027H167.398V285.001H158.2ZM157.3 287.305V288.385H168.298V287.305H157.3ZM157.48 290.095V291.157H168.046V290.095H157.48ZM157.84 292.453V293.497H167.65V292.453H157.84ZM162.088 283.633V287.737H163.384V283.633H162.088ZM162.088 290.563V295.999H163.384V290.563H162.088ZM159.55 288.547C159.838 289.087 160.108 289.825 160.216 290.275L161.386 289.969C161.278 289.501 160.954 288.799 160.666 288.295L159.55 288.547ZM164.932 288.115C164.752 288.637 164.392 289.447 164.104 289.987L165.13 290.275C165.436 289.807 165.832 289.123 166.192 288.457L164.932 288.115ZM151.486 288.637L151.846 289.951C153.376 289.465 155.356 288.817 157.228 288.169L157.048 286.927C154.996 287.593 152.89 288.241 151.486 288.637ZM151.738 282.931V284.191H157.21V282.931H151.738ZM154.006 279.313V294.289C154.006 294.559 153.898 294.613 153.682 294.613C153.466 294.631 152.782 294.631 151.99 294.613C152.17 294.991 152.332 295.549 152.386 295.873C153.52 295.873 154.222 295.837 154.636 295.621C155.086 295.405 155.266 295.045 155.266 294.289V279.313H154.006ZM180.592 287.791V294.991H181.924V287.791H180.592ZM176.632 287.305V288.493H185.938V287.305H176.632ZM175.858 294.181V295.387H186.334V294.181H175.858ZM177.064 290.653V291.823H185.524V290.653H177.064ZM178.576 281.221H183.994V284.551H178.576V281.221ZM177.316 280.051V285.721H185.308V280.051H177.316ZM172.816 280.789V295.819H174.13V280.789H172.816ZM169.864 284.371V285.649H176.398V284.371H169.864ZM172.888 284.857C172.24 287.089 170.8 289.897 169.504 291.337C169.738 291.643 170.062 292.201 170.188 292.579C171.574 290.905 173.014 287.755 173.734 285.217L172.888 284.857ZM175.48 279.565C174.166 280.177 171.79 280.681 169.756 281.023C169.918 281.329 170.098 281.761 170.17 282.067C172.258 281.779 174.778 281.275 176.434 280.609L175.48 279.565ZM174.076 286.693L173.446 287.233C174.004 287.863 175.354 289.573 175.786 290.311L176.578 289.249C176.218 288.799 174.526 287.089 174.076 286.693ZM199.762 280.195C200.698 280.843 201.796 281.815 202.336 282.463L203.29 281.617C202.732 280.987 201.598 280.051 200.662 279.421L199.762 280.195ZM187.99 282.661V283.975H204.028V282.661H187.99ZM188.602 286.675V287.989H196.558V286.675H188.602ZM191.842 287.377V293.803H193.192V287.377H191.842ZM188.062 293.983L188.476 295.333C190.798 294.811 194.092 294.055 197.17 293.335L197.062 292.129C193.732 292.849 190.204 293.569 188.062 293.983ZM197.152 279.385C197.224 288.097 198.682 295.891 202.264 295.891C203.65 295.891 204.172 294.973 204.406 291.823C204.028 291.697 203.506 291.391 203.2 291.085C203.092 293.497 202.876 294.487 202.372 294.487C200.158 294.487 198.538 287.737 198.592 279.385H197.152ZM211.48 280.789V281.941H221.992V280.789H211.48ZM211.102 290.725V291.859H221.974V290.725H211.102ZM214.126 279.313V283.309H215.404V279.313H214.126ZM218.158 279.313V283.309H219.472V279.313H218.158ZM213.478 286.909H219.76V288.205H213.478V286.909ZM213.478 284.659H219.76V285.937H213.478V284.659ZM212.218 283.651V289.231H221.056V283.651H212.218ZM215.908 289.051C215.602 292.039 214.756 293.893 210.616 294.793C210.868 295.063 211.21 295.567 211.318 295.873C215.818 294.775 216.862 292.597 217.24 289.051H215.908ZM217.546 291.103L216.394 291.355C217.24 293.641 219.004 295.171 221.542 295.855C221.722 295.513 222.1 295.009 222.388 294.739C220.012 294.253 218.284 292.957 217.546 291.103ZM205.9 282.787V284.029H211.3V282.787H205.9ZM208.132 279.295V295.837H209.428V279.295H208.132ZM208.222 283.597C207.772 286.117 206.692 289.267 205.558 290.887C205.792 291.211 206.134 291.805 206.278 292.183C207.466 290.347 208.546 286.765 209.068 283.867L208.222 283.597ZM209.374 284.677L208.69 285.217C209.158 285.991 210.328 288.313 210.724 289.285L211.57 288.295C211.246 287.701 209.77 285.235 209.374 284.677ZM232.45 284.857V286.099H238.282V284.857H232.45ZM232.45 289.429V290.653H238.282V289.429H232.45ZM231.748 280.321V294.883H233.062V281.545H237.652V294.883H239.002V280.321H231.748ZM229.858 294.109V295.351H240.388V294.109H229.858ZM226.51 279.313C226.042 280.501 225.214 282.229 224.53 283.273L225.466 283.669C226.168 282.697 227.032 281.095 227.716 279.763L226.51 279.313ZM228.688 281.365C227.698 283.273 225.988 285.973 224.602 287.575L225.466 288.025C226.834 286.477 228.598 283.885 229.858 281.869L228.688 281.365ZM223.666 283.093C224.638 283.957 225.772 285.199 226.258 286.045L226.978 285.019C226.492 284.227 225.358 283.039 224.35 282.193L223.666 283.093ZM228.112 285.541C228.85 286.729 229.57 288.295 229.84 289.303L230.92 288.799C230.65 287.809 229.876 286.261 229.12 285.109L228.112 285.541ZM223.63 287.359L223.738 288.565C225.448 288.475 227.734 288.349 230.02 288.205V287.107C227.644 287.215 225.25 287.305 223.63 287.359ZM228.562 289.843C229.066 290.959 229.552 292.417 229.714 293.353L230.812 292.975C230.614 292.039 230.11 290.617 229.588 289.519L228.562 289.843ZM224.62 289.591C224.404 291.175 224.044 292.777 223.45 293.875C223.738 294.001 224.278 294.253 224.512 294.397C225.088 293.245 225.538 291.499 225.79 289.807L224.62 289.591ZM226.69 287.881V295.909H227.914V287.881H226.69Z" fill="black"/>
<g clip-path="url(#clip0_496_2)">
<rect x="32" y="327" width="311" height="43" rx="21.5" fill="#FFCD6E"/>
<rect x="32" y="386" width="311" height="43" rx="21.5" fill="#FFCD6E"/>
<rect x="32" y="445" width="311" height="43" rx="21.5" fill="#FFCD6E"/>
<rect x="32" y="504" width="311" height="43" rx="21.5" fill="#FFCD6E"/>
<rect x="32" y="563" width="311" height="43" rx="21.5" fill="#FFCD6E"/>
<rect x="32" y="622" width="311" height="43" rx="21.5" fill="#FFCD6E"/>
<path d="M158.19 349.438V356.44H159.432V350.68H165.876V356.35H167.172V349.438H158.19ZM166.506 339.952C164.508 340.672 160.854 341.23 157.722 341.572C157.884 341.878 158.064 342.4 158.118 342.724C161.34 342.418 165.102 341.86 167.568 341.014L166.506 339.952ZM162.078 341.518V350.158H163.374V341.518H162.078ZM156.876 345.172V346.468H168.342V345.172H156.876ZM159.036 354.424V355.666H166.47V354.424H159.036ZM152.754 341.068C153.87 341.662 155.364 342.544 156.12 343.084L156.912 341.986C156.138 341.464 154.608 340.654 153.51 340.114L152.754 341.068ZM151.872 346.036C152.97 346.612 154.464 347.476 155.202 347.98L155.958 346.882C155.202 346.36 153.69 345.568 152.628 345.046L151.872 346.036ZM152.304 355.288L153.438 356.206C154.5 354.532 155.76 352.282 156.714 350.374L155.742 349.492C154.698 351.544 153.276 353.92 152.304 355.288ZM170.61 343.822V345.19H184.578V343.822H170.61ZM184.056 343.822V344.11C183.696 351.256 183.3 354.064 182.616 354.73C182.382 354.946 182.166 355 181.77 355C181.32 355 180.168 354.982 178.944 354.874C179.196 355.27 179.376 355.864 179.394 356.26C180.51 356.332 181.662 356.368 182.292 356.296C182.976 356.242 183.408 356.098 183.84 355.576C184.632 354.676 185.01 351.994 185.424 344.542C185.442 344.326 185.46 343.822 185.46 343.822H184.056ZM176.496 339.916V343.048C176.496 346.774 176.064 351.886 170.088 355.45C170.412 355.684 170.916 356.188 171.114 356.512C177.414 352.714 177.918 347.152 177.918 343.048V339.916H176.496ZM197.736 348.718V354.388C197.736 355.882 198.168 356.332 199.77 356.332C200.112 356.332 202.002 356.332 202.362 356.332C203.892 356.332 204.252 355.54 204.414 352.48C204.036 352.39 203.46 352.156 203.154 351.904C203.082 354.622 202.974 355.036 202.254 355.036C201.822 355.036 200.256 355.036 199.932 355.036C199.212 355.036 199.086 354.928 199.086 354.388V348.718H197.736ZM193.074 348.808C192.822 352.192 192.12 354.226 187.908 355.27C188.196 355.54 188.556 356.08 188.7 356.422C193.272 355.18 194.19 352.732 194.496 348.808H193.074ZM197.862 344.488C199.662 345.874 201.714 347.89 202.632 349.258L203.82 348.466C202.848 347.098 200.724 345.154 198.96 343.804L197.862 344.488ZM193.65 342.778C193.128 344.182 192.174 346.162 191.4 347.386L192.516 347.818C193.326 346.648 194.316 344.776 195.09 343.228L193.65 342.778ZM188.88 346.954L188.952 348.34C192.192 348.232 197.196 348.016 201.858 347.782L201.93 346.54C197.16 346.72 192.066 346.882 188.88 346.954ZM188.322 342.058V343.336H203.964V342.058H188.322ZM195.396 339.88V342.76H196.782V339.88H195.396ZM210.75 342.562V343.858H222.396V342.562H210.75ZM211.542 346.09V354.1H212.856V347.386H220.668V346.09H211.542ZM220.164 346.09V352.462C220.164 352.678 220.11 352.732 219.894 352.732C219.66 352.75 218.976 352.75 218.184 352.732C218.364 353.11 218.544 353.65 218.598 354.028C219.714 354.028 220.434 354.01 220.92 353.794C221.406 353.56 221.514 353.182 221.514 352.48V346.09H220.164ZM215.754 339.88V356.476H217.14V339.88H215.754ZM206.664 341.122C207.708 341.716 209.13 342.58 209.832 343.156L210.534 342.04C209.796 341.5 208.374 340.69 207.33 340.15L206.664 341.122ZM205.872 346.036C206.916 346.594 208.284 347.44 208.986 347.98L209.652 346.864C208.95 346.342 207.546 345.55 206.556 345.046L205.872 346.036ZM206.376 355.288L207.402 356.206C208.392 354.532 209.58 352.282 210.462 350.374L209.58 349.492C208.608 351.544 207.294 353.92 206.376 355.288Z" fill="black"/>
<path d="M172.464 398.88V415.422H173.76V398.88H172.464ZM170.754 402.354C170.628 403.812 170.286 405.792 169.818 406.998L170.88 407.376C171.366 406.062 171.69 403.974 171.78 402.516L170.754 402.354ZM173.94 402.192C174.48 403.29 175.038 404.73 175.236 405.612L176.28 405.09C176.082 404.244 175.488 402.858 174.93 401.778L173.94 402.192ZM176.856 402.138V415.422H178.17V403.434H184.488V415.296H185.838V402.138H176.856ZM180.618 399.006C180.438 400.086 180.024 401.67 179.682 402.678L180.906 402.912C181.32 401.976 181.788 400.518 182.148 399.204L180.618 399.006ZM177.468 407.556V408.816H185.154V407.556H177.468ZM177.468 413.19V414.504H185.154V413.19H177.468ZM190.878 402.39V403.704H203.352V402.39H190.878ZM190.086 407.664V408.96H202.704V407.664H190.086ZM188.124 413.55V414.864H204.198V413.55H188.124ZM195.468 398.898V414.216H196.854V398.898H195.468ZM191.418 399.186C190.734 401.76 189.564 404.262 188.088 405.864C188.43 406.044 189.042 406.44 189.312 406.674C190.752 404.946 192.012 402.282 192.804 399.492L191.418 399.186Z" fill="black"/>
<path d="M161.736 466.718V472.388C161.736 473.882 162.168 474.332 163.77 474.332C164.112 474.332 166.002 474.332 166.362 474.332C167.892 474.332 168.252 473.54 168.414 470.48C168.036 470.39 167.46 470.156 167.154 469.904C167.082 472.622 166.974 473.036 166.254 473.036C165.822 473.036 164.256 473.036 163.932 473.036C163.212 473.036 163.086 472.928 163.086 472.388V466.718H161.736ZM157.074 466.808C156.822 470.192 156.12 472.226 151.908 473.27C152.196 473.54 152.556 474.08 152.7 474.422C157.272 473.18 158.19 470.732 158.496 466.808H157.074ZM161.862 462.488C163.662 463.874 165.714 465.89 166.632 467.258L167.82 466.466C166.848 465.098 164.724 463.154 162.96 461.804L161.862 462.488ZM157.65 460.778C157.128 462.182 156.174 464.162 155.4 465.386L156.516 465.818C157.326 464.648 158.316 462.776 159.09 461.228L157.65 460.778ZM152.88 464.954L152.952 466.34C156.192 466.232 161.196 466.016 165.858 465.782L165.93 464.54C161.16 464.72 156.066 464.882 152.88 464.954ZM152.322 460.058V461.336H167.964V460.058H152.322ZM159.396 457.88V460.76H160.782V457.88H159.396ZM174.228 459.59V460.796H186.342V459.59H174.228ZM176.496 466.97V467.888H177.918V466.97H176.496ZM179.502 463.208V474.242H180.726V463.208H179.502ZM184.56 464.774V473.108C184.56 473.324 184.506 473.378 184.29 473.378C184.092 473.396 183.372 473.396 182.598 473.378C182.742 473.684 182.886 474.098 182.94 474.404C184.056 474.404 184.794 474.404 185.226 474.224C185.658 474.044 185.784 473.738 185.784 473.108V464.774H184.56ZM174.642 464.774V474.422H175.812V465.944H185.172V464.774H174.642ZM170.592 459.05C171.6 459.554 172.842 460.382 173.418 460.994L174.228 459.896C173.616 459.32 172.374 458.546 171.366 458.078L170.592 459.05ZM169.8 463.892C170.862 464.36 172.14 465.116 172.77 465.674L173.544 464.576C172.914 464.018 171.618 463.316 170.556 462.902L169.8 463.892ZM170.178 473.504L171.384 474.224C172.176 472.55 173.076 470.336 173.76 468.464L172.68 467.744C171.942 469.76 170.916 472.118 170.178 473.504ZM176.928 457.88V463.496H183.444V457.88H182.13V462.326H178.224V457.88H176.928ZM177.288 466.97V467.438H177.504C177.612 469.508 178.098 471.146 178.98 472.028C179.106 471.812 179.43 471.524 179.61 471.416C178.782 470.642 178.314 469.022 178.224 466.97H177.288ZM177.306 468.572C177.18 469.688 176.748 470.894 175.884 471.578C176.082 471.704 176.352 471.974 176.478 472.172C177.468 471.326 177.954 469.958 178.116 468.572H177.306ZM181.392 466.97V467.888H182.76V466.97H181.392ZM182.148 466.97V467.438H182.382C182.49 469.508 183.048 471.11 183.966 471.992C184.128 471.776 184.434 471.488 184.632 471.344C183.732 470.624 183.192 469.022 183.102 466.97H182.148ZM182.184 468.572C182.058 469.634 181.626 470.804 180.726 471.452C180.942 471.56 181.212 471.848 181.338 472.028C182.364 471.218 182.85 469.922 183.03 468.572H182.184ZM195.18 458.816V460.076H203.082V458.816H195.18ZM194.568 465.134V466.43H204.468V465.134H194.568ZM198.816 462.74V472.73C198.816 473 198.726 473.09 198.42 473.108C198.096 473.126 197.088 473.126 195.954 473.09C196.134 473.45 196.368 474.044 196.44 474.404C197.88 474.422 198.816 474.386 199.41 474.17C199.968 473.954 200.166 473.558 200.166 472.748V462.74H198.816ZM202.596 458.816V459.122C201.876 460.292 200.382 461.984 199.086 462.956C199.32 463.136 199.698 463.496 199.896 463.748C201.336 462.668 203.01 460.922 204.09 459.392L203.208 458.744L202.92 458.816H202.596ZM187.908 461.606V462.866H193.83V461.606H187.908ZM190.626 457.898C190.014 461.318 188.934 466.142 188.142 468.896L189.276 469.49C190.086 466.502 191.22 461.642 191.904 458.042L190.626 457.898ZM188.808 468.32C190.824 469.49 193.146 471.326 194.226 472.676L195.036 471.578C193.956 470.246 191.58 468.518 189.564 467.384L188.808 468.32ZM193.38 461.606V461.876C192.93 467.996 191.058 471.812 188.052 473.396C188.34 473.666 188.718 474.152 188.898 474.476C192.21 472.496 194.172 468.68 194.658 461.714L193.848 461.552L193.596 461.606H193.38ZM206.07 465.008V466.25H222.234V465.008H206.07ZM206.988 459.572V460.76H221.352V459.572H206.988ZM218.364 465.566V472.802C218.364 473.09 218.256 473.162 217.896 473.198C217.536 473.198 216.258 473.216 214.908 473.162C215.106 473.54 215.322 474.08 215.412 474.458C217.086 474.458 218.202 474.44 218.886 474.242C219.534 474.026 219.732 473.63 219.732 472.82V465.566H218.364ZM207.924 467.708V473.558H209.22V467.708H207.924ZM208.878 467.708V468.806H213.846V471.272H208.878V472.37H215.124V467.708H208.878ZM213.612 457.88C213.27 461.462 212.28 463.118 206.682 463.82C206.898 464.072 207.204 464.576 207.294 464.9C213.36 464.054 214.602 462.002 215.016 457.88H213.612ZM212.874 461.912C215.304 462.722 218.4 464.018 220.092 464.846L221.064 463.874C219.336 463.082 216.258 461.822 213.9 461.03L212.874 461.912Z" fill="black"/>
<path d="M176.802 516.898V522.37H178.008V516.898H176.802ZM174.588 518.86V519.994H180.24V518.86H174.588ZM175.668 522.91H179.106V525.79H175.668V522.91ZM174.714 521.83V526.888H180.114V521.83H174.714ZM176.604 526.114C176.082 527.842 174.948 529.912 173.886 530.956C174.102 531.28 174.372 531.802 174.498 532.144C175.668 530.902 176.82 528.472 177.414 526.438L176.604 526.114ZM177.864 526.96L177.252 527.554C177.828 528.148 179.34 529.894 179.88 530.632L180.528 529.642C180.114 529.21 178.368 527.392 177.864 526.96ZM180.456 517.456V518.5H185.586V517.456H180.456ZM185.01 517.456V517.654C184.956 519.796 184.884 520.552 184.722 520.786C184.632 520.894 184.524 520.912 184.344 520.912C184.182 520.912 183.804 520.912 183.372 520.858C183.516 521.164 183.624 521.632 183.66 521.974C184.146 521.992 184.668 521.992 184.92 521.956C185.298 521.92 185.55 521.812 185.748 521.56C186.036 521.2 186.126 520.264 186.198 517.96C186.216 517.78 186.216 517.456 186.216 517.456H185.01ZM182.13 517.834C181.968 519.436 181.5 520.768 179.952 521.506C180.204 521.686 180.546 522.1 180.672 522.37C182.508 521.452 183.12 519.85 183.318 517.834H182.13ZM181.914 525.736H184.812V526.942H181.914V525.736ZM181.914 527.86H184.812V529.102H181.914V527.86ZM181.914 523.63H184.812V524.836H181.914V523.63ZM180.816 522.622V530.092H185.946V522.622H180.816ZM183.786 530.794C184.488 531.604 185.28 532.738 185.64 533.458L186.738 532.882C186.36 532.18 185.55 531.1 184.83 530.308L183.786 530.794ZM176.946 522.388V526.24H176.802V533.44H178.008V526.24H177.864V522.388H176.946ZM181.626 530.362C181.104 531.244 180.222 532.09 179.322 532.666C179.61 532.864 180.078 533.296 180.276 533.512C181.194 532.828 182.202 531.748 182.814 530.722L181.626 530.362ZM171.888 516.88V533.422H173.112V516.88H171.888ZM170.43 520.048C170.43 521.614 170.178 523.594 169.602 524.674L170.466 525.052C171.096 523.81 171.33 521.776 171.312 520.174L170.43 520.048ZM173.328 519.724C173.652 520.57 173.904 521.686 173.958 522.37L174.84 522.028C174.786 521.38 174.498 520.3 174.156 519.454L173.328 519.724ZM188.142 519.058V520.21H196.62V519.058H188.142ZM187.854 522.352V523.522H196.638V522.352H187.854ZM189.834 527.05V528.076H194.928V527.05H189.834ZM189.834 529.372V530.416H194.928V529.372H189.834ZM189.96 517.042V523.072H191.202V517.042H189.96ZM193.524 517.042V523.072H194.766V517.042H193.524ZM189.132 524.71V533.44H190.392V525.79H195V524.71H189.132ZM194.334 524.71V532.018C194.334 532.216 194.28 532.288 194.064 532.306C193.848 532.306 193.146 532.324 192.372 532.288C192.534 532.612 192.714 533.098 192.75 533.422C193.866 533.422 194.586 533.404 195.018 533.224C195.468 533.026 195.612 532.684 195.612 532.036V524.71H194.334ZM198.006 520.246V521.506H204.414V520.246H198.006ZM198.456 516.88C198.006 519.922 197.214 522.928 195.918 524.854C196.206 525.106 196.692 525.682 196.872 525.952C198.312 523.792 199.23 520.48 199.77 517.078L198.456 516.88ZM201.948 520.93C201.264 526.546 199.68 530.254 195.666 532.324C195.936 532.594 196.332 533.188 196.476 533.494C200.706 531.082 202.47 527.176 203.28 521.056L201.948 520.93ZM198.708 521.308L197.61 521.488C198.492 526.924 200.148 531.37 203.586 533.458C203.802 533.098 204.234 532.576 204.558 532.306C201.21 530.524 199.518 526.258 198.708 521.308Z" fill="black"/>
<path d="M155.832 580.722H164.67V582.504H155.832V580.722ZM155.832 577.878H164.67V579.66H155.832V577.878ZM156.966 585.15C157.344 584.664 157.74 584.16 158.046 583.638H166.02V576.762H154.518V583.638H156.498C155.364 585.294 153.636 586.77 151.89 587.76C152.214 587.976 152.718 588.444 152.934 588.696C153.924 588.084 154.932 587.274 155.85 586.356H158.352C157.164 588.282 155.328 589.974 153.402 591.054C153.708 591.288 154.212 591.774 154.428 592.008C156.48 590.694 158.514 588.678 159.828 586.356H162.258C161.394 588.498 160.026 590.406 158.37 591.648C158.694 591.828 159.216 592.26 159.45 592.476C161.16 591.054 162.672 588.876 163.626 586.356H165.822C165.534 589.452 165.228 590.73 164.832 591.09C164.67 591.27 164.49 591.288 164.184 591.288C163.86 591.288 163.032 591.288 162.168 591.198C162.366 591.522 162.51 592.008 162.528 592.368C163.428 592.422 164.292 592.422 164.742 592.386C165.264 592.368 165.606 592.242 165.948 591.882C166.488 591.324 166.848 589.776 167.19 585.762C167.226 585.564 167.244 585.15 167.244 585.15H156.966ZM173.202 582.576C173.22 581.766 173.256 580.938 173.256 580.11H177.612V578.868H174.48V575.97H173.166V578.868H169.998V580.11H171.942C171.888 584.7 171.69 589.074 169.746 591.486C170.07 591.72 170.538 592.152 170.736 592.44C172.356 590.406 172.914 587.31 173.13 583.8H175.434C175.326 588.768 175.2 590.532 174.894 590.946C174.75 591.144 174.606 591.198 174.336 591.18C174.066 591.18 173.382 591.18 172.644 591.126C172.86 591.45 172.986 591.972 173.004 592.332C173.76 592.368 174.516 592.368 174.948 592.332C175.416 592.278 175.74 592.152 176.01 591.756C176.478 591.144 176.604 589.128 176.73 583.206C176.748 583.008 176.748 582.576 176.748 582.576H173.202ZM178.242 588.516C180.42 589.524 183.048 591.162 184.29 592.368L185.154 591.216C183.858 590.01 181.212 588.444 179.052 587.49L178.242 588.516ZM183.894 585.51C183.228 584.682 181.77 583.566 180.546 582.828L179.682 583.674C180.906 584.448 182.328 585.618 182.976 586.446L183.894 585.51ZM180.888 575.952C180.222 578.382 178.638 581.082 176.838 582.486C177.09 582.81 177.396 583.35 177.54 583.71C179.358 582.216 180.888 579.66 181.626 577.482C182.472 579.75 184.038 582.216 185.838 583.674C186.018 583.278 186.306 582.738 186.54 582.396C184.83 581.154 183.174 578.58 182.238 575.952H180.888ZM195.756 577.824H192.714V575.988H191.436V577.824H188.286V578.958H195.756V577.824ZM189.384 579.264C189.744 580.11 190.014 581.244 190.086 581.982L191.202 581.694C191.13 580.974 190.806 579.858 190.41 579.03L189.384 579.264ZM193.686 578.994C193.524 579.804 193.146 580.974 192.894 581.712L193.92 581.982C194.226 581.28 194.586 580.218 194.892 579.282L193.686 578.994ZM195.81 589.092C195.378 588.678 193.506 587.112 192.75 586.536V586.104H195.81V584.97H192.75V583.134H195.954V581.982H187.926V583.134H191.472V584.97H188.106V586.104H191.13C190.32 587.688 188.988 589.272 187.746 590.118C188.034 590.37 188.358 590.82 188.538 591.144C189.564 590.334 190.644 589.056 191.472 587.724V592.35H192.75V587.814C193.56 588.588 194.568 589.578 194.982 590.082L195.81 589.092ZM197.79 583.8H202.29V585.672H197.79V583.8ZM197.79 580.83H202.29V582.702H197.79V580.83ZM197.79 577.914H202.29V579.768H197.79V577.914ZM202.002 590.964C201.678 590.964 201.624 590.91 201.624 590.496V586.878H203.55V576.726H196.566V586.878H197.736C197.52 589.128 196.926 590.604 194.55 591.432C194.82 591.666 195.162 592.134 195.306 592.422C197.97 591.378 198.726 589.596 198.978 586.878H200.4V590.514C200.4 591.756 200.67 592.152 201.822 592.152H203.118C204.108 592.152 204.45 591.558 204.522 589.092C204.198 589.002 203.676 588.804 203.424 588.606C203.388 590.712 203.334 590.964 202.974 590.964H202.002ZM217.554 582.468V589.848H218.886V582.468H222.216V581.226H213.918V578.49C216.438 578.166 219.264 577.68 221.226 577.014L220.092 576.006C218.616 576.564 216.042 577.05 213.684 577.392L212.622 577.158V581.316C212.622 583.512 212.388 586.356 210.426 588.48C210.75 588.66 211.218 589.11 211.38 589.398C213.252 587.4 213.774 584.7 213.882 582.468H217.554ZM210.39 579.156C209.76 578.292 208.41 577.14 207.258 576.384L206.268 577.194C207.438 577.986 208.77 579.174 209.328 580.038L210.39 579.156ZM209.886 582.99H206.07V584.25H208.572V588.804C207.672 589.56 206.664 590.316 205.836 590.856L206.556 592.206C207.51 591.432 208.41 590.658 209.274 589.902C210.426 591.288 212.028 591.936 214.368 592.026C216.348 592.098 220.038 592.062 222 591.99C222.054 591.576 222.288 590.946 222.432 590.622C220.326 590.766 216.33 590.82 214.368 590.748C212.298 590.658 210.732 590.046 209.886 588.732V582.99Z" fill="black"/>
<path d="M167.712 636.86C168.18 637.562 168.63 638.498 168.756 639.11H165.57L166.164 638.858C165.984 638.3 165.534 637.544 165.03 636.95C165.984 636.896 166.956 636.842 167.928 636.788L167.712 636.86ZM162.87 640.19H167.982L167.46 640.748C168.414 641.162 169.566 641.846 170.124 642.332L170.826 641.522C170.322 641.09 169.368 640.586 168.522 640.19H175.344V642.35H176.64V639.11H173.4C173.922 638.462 174.48 637.688 174.966 636.95L173.706 636.464C173.31 637.238 172.59 638.372 172.05 639.11H168.81L169.926 638.714C169.782 638.156 169.404 637.364 168.954 636.698C171.492 636.518 173.904 636.23 175.74 635.87L174.858 634.934C171.96 635.51 166.578 635.888 162.186 636.014C162.312 636.266 162.438 636.734 162.474 637.04C163.068 637.022 163.68 637.004 164.31 636.968L163.788 637.184C164.238 637.76 164.724 638.534 164.94 639.11H161.628V642.224H162.87V640.19ZM172.482 641.666C173.526 642.494 174.714 643.718 175.254 644.528L176.208 643.79C175.668 642.98 174.444 641.828 173.4 641.036L172.482 641.666ZM162.996 644.744C164.202 644.042 164.868 642.854 165.282 641.684L164.274 641.252C163.878 642.332 163.158 643.394 162.078 643.97L162.996 644.744ZM172.014 646.544C171.276 647.3 170.304 647.93 169.17 648.434C167.982 647.912 166.992 647.282 166.236 646.544H172.014ZM173.148 645.5L172.932 645.554H167.334C167.712 645.212 168.036 644.852 168.342 644.474L168.018 644.366H170.934C172.104 644.366 172.446 644.024 172.572 642.566C172.23 642.494 171.762 642.368 171.51 642.188C171.438 643.25 171.33 643.376 170.772 643.376H168.144C167.388 643.376 167.262 643.304 167.262 642.944V641.234H166.02V642.962C166.02 643.79 166.236 644.168 166.992 644.294C165.678 645.806 163.518 647.084 161.412 647.894C161.664 648.11 162.15 648.542 162.348 648.776C163.32 648.344 164.346 647.786 165.3 647.156C165.984 647.858 166.812 648.47 167.748 648.992C165.786 649.658 163.5 650.072 161.16 650.288C161.412 650.558 161.736 651.098 161.862 651.404C164.436 651.08 166.992 650.558 169.152 649.676C171.258 650.558 173.778 651.116 176.424 651.386C176.604 651.044 176.91 650.486 177.198 650.216C174.804 650.036 172.536 649.622 170.61 648.992C172.014 648.236 173.166 647.264 173.994 646.058L173.148 645.5ZM183.696 642.62C183.138 642.8 182.598 642.98 182.058 643.16V639.794H183.696V638.552H182.058V634.952H180.888V638.552H178.944V639.794H180.888V643.556C180.06 643.826 179.304 644.06 178.674 644.24L179.034 645.536L180.888 644.888V649.892C180.888 650.126 180.798 650.198 180.564 650.198C180.384 650.216 179.7 650.216 178.944 650.198C179.106 650.558 179.268 651.062 179.322 651.386C180.402 651.386 181.068 651.35 181.464 651.152C181.896 650.936 182.058 650.594 182.058 649.892V644.492L183.894 643.844L183.696 642.62ZM189.204 642.62C189.42 642.872 189.654 643.16 189.762 643.322C190.014 642.926 190.248 642.476 190.464 641.972C190.698 643.646 191.094 645.374 191.706 646.958C191.094 648.308 190.284 649.478 189.186 650.396C189.204 650.306 189.204 650.18 189.204 650.054V642.62ZM193.344 639.614C193.128 641.792 192.822 643.754 192.264 645.446C191.67 643.664 191.328 641.738 191.148 639.992C191.184 639.866 191.22 639.74 191.256 639.614H193.344ZM185.316 647.03V645.626H188.088V647.03H185.316ZM188.088 643.232V644.618H185.316V643.232H188.088ZM185.946 638.066H187.512V640.154H185.946V638.066ZM195.27 639.614V638.426H191.526C191.76 637.364 191.94 636.248 192.084 635.15L190.932 634.97C190.698 636.932 190.338 638.876 189.798 640.478V640.154H188.61V638.066H189.654V637.004H188.61V635.168H187.512V637.004H185.946V635.168H184.848V637.004H183.66V638.066H184.848V640.154H183.372V641.234H189.51C189.366 641.576 189.204 641.882 189.042 642.188H184.182V651.296H185.316V648.02H188.088V650.036C188.088 650.198 188.052 650.252 187.89 650.27C187.71 650.27 187.278 650.27 186.738 650.252C186.9 650.54 187.062 650.954 187.116 651.26C187.872 651.26 188.412 651.242 188.754 651.062C188.97 650.954 189.078 650.81 189.15 650.612C189.402 650.846 189.726 651.242 189.852 651.44C190.86 650.558 191.67 649.496 192.3 648.308C192.93 649.514 193.74 650.612 194.784 651.422C194.946 651.116 195.342 650.648 195.594 650.432C194.424 649.586 193.542 648.398 192.912 647.012C193.74 644.96 194.208 642.494 194.514 639.614H195.27ZM201.3 639.848C201.138 642.152 200.796 644.096 200.256 645.698C199.698 645.212 199.122 644.744 198.564 644.33C198.852 642.944 199.158 641.396 199.446 639.848H201.3ZM201.822 638.606L201.588 638.642H199.662C199.896 637.382 200.094 636.158 200.274 635.06L199.05 634.952C198.888 636.068 198.69 637.346 198.456 638.642H196.926V639.848H198.258C197.844 642.08 197.412 644.258 197.034 645.788L198.114 646.418L198.294 645.644C198.78 646.04 199.284 646.49 199.77 646.94C199.068 648.506 198.132 649.622 196.998 650.324C197.286 650.594 197.628 651.062 197.808 651.386C199.032 650.558 200.004 649.424 200.742 647.894C201.39 648.578 201.948 649.226 202.308 649.784L203.154 648.722C202.722 648.092 202.056 647.354 201.264 646.616C201.984 644.6 202.416 642.008 202.578 638.714L201.822 638.606ZM209.328 647.066V648.614H206.628V647.066H209.328ZM210.3 649.514V646.166H205.674V650.27H206.628V649.514H210.3ZM212.766 644.222H203.19V651.386H204.396V645.266H211.56V650.036C211.56 650.216 211.506 650.288 211.308 650.288C211.11 650.288 210.462 650.288 209.724 650.27C209.886 650.576 210.048 651.044 210.102 651.35C211.146 651.35 211.812 651.332 212.244 651.152C212.658 650.972 212.766 650.63 212.766 650.054V644.222ZM209.76 642.44H206.142V640.892H209.76V642.44ZM209.058 638.84C209.292 639.236 209.562 639.614 209.886 639.992H206.286C206.592 639.632 206.844 639.254 207.096 638.84H209.058ZM213.198 638.84V637.832H207.6C207.78 637.418 207.942 636.968 208.068 636.5C209.67 636.374 211.182 636.176 212.352 635.924L211.416 635.042C209.58 635.456 206.07 635.69 203.208 635.762C203.334 636.014 203.478 636.428 203.514 636.698C204.558 636.698 205.674 636.662 206.79 636.59C206.664 637.022 206.502 637.436 206.304 637.832H202.866V638.84H205.71C204.918 639.974 203.82 640.838 202.506 641.432C202.758 641.63 203.154 642.134 203.298 642.368C203.91 642.062 204.468 641.684 204.99 641.27V643.34H210.984V641.108C211.542 641.594 212.136 641.99 212.73 642.296C212.928 641.99 213.288 641.558 213.558 641.36C212.316 640.856 211.074 639.902 210.264 638.84H213.198Z" fill="black"/>
<path d="M326.064 408.325H311.337C310.598 408.325 310 407.732 310 407C310 406.268 310.598 405.675 311.337 405.675H326.064C326.802 405.675 327.4 406.268 327.4 407C327.4 407.732 326.802 408.325 326.064 408.325Z" fill="white"/>
<path d="M318.7 416C317.962 416 317.364 415.407 317.364 414.675V399.325C317.364 398.594 317.962 398 318.7 398C319.438 398 320.036 398.593 320.036 399.325V414.675C320.036 415.407 319.438 416 318.7 416Z" fill="white"/>
<path d="M326.064 349.325H311.337C310.598 349.325 310 348.732 310 348C310 347.268 310.598 346.675 311.337 346.675H326.064C326.802 346.675 327.4 347.268 327.4 348C327.4 348.732 326.802 349.325 326.064 349.325Z" fill="white"/>
<path d="M318.7 357C317.962 357 317.364 356.407 317.364 355.675V340.325C317.364 339.594 317.962 339 318.7 339C319.438 339 320.036 339.593 320.036 340.325V355.675C320.036 356.407 319.438 357 318.7 357Z" fill="white"/>
<path d="M326.064 467.325H311.337C310.598 467.325 310 466.732 310 466C310 465.268 310.598 464.675 311.337 464.675H326.064C326.802 464.675 327.4 465.268 327.4 466C327.4 466.732 326.802 467.325 326.064 467.325Z" fill="white"/>
<path d="M318.7 475C317.962 475 317.364 474.407 317.364 473.675V458.325C317.364 457.594 317.962 457 318.7 457C319.438 457 320.036 457.593 320.036 458.325V473.675C320.036 474.407 319.438 475 318.7 475Z" fill="white"/>
<path d="M326.064 526.325H311.337C310.598 526.325 310 525.732 310 525C310 524.268 310.598 523.675 311.337 523.675H326.064C326.802 523.675 327.4 524.268 327.4 525C327.4 525.732 326.802 526.325 326.064 526.325Z" fill="white"/>
<path d="M318.7 534C317.962 534 317.364 533.407 317.364 532.675V517.325C317.364 516.594 317.962 516 318.7 516C319.438 516 320.036 516.593 320.036 517.325V532.675C320.036 533.407 319.438 534 318.7 534Z" fill="white"/>
<path d="M326.064 585.325H311.337C310.598 585.325 310 584.732 310 584C310 583.268 310.598 582.675 311.337 582.675H326.064C326.802 582.675 327.4 583.268 327.4 584C327.4 584.732 326.802 585.325 326.064 585.325Z" fill="white"/>
<path d="M318.7 593C317.962 593 317.364 592.407 317.364 591.675V576.325C317.364 575.594 317.962 575 318.7 575C319.438 575 320.036 575.593 320.036 576.325V591.675C320.036 592.407 319.438 593 318.7 593Z" fill="white"/>
<path d="M326.064 644.325H311.337C310.598 644.325 310 643.732 310 643C310 642.268 310.598 641.675 311.337 641.675H326.064C326.802 641.675 327.4 642.268 327.4 643C327.4 643.732 326.802 644.325 326.064 644.325Z" fill="white"/>
<path d="M318.7 652C317.962 652 317.364 651.407 317.364 650.675V635.325C317.364 634.594 317.962 634 318.7 634C319.438 634 320.036 634.593 320.036 635.325V650.675C320.036 651.407 319.438 652 318.7 652Z" fill="white"/>
<rect x="32" y="681" width="311" height="43" rx="21.5" fill="#FFCD6E"/>
<path d="M160.944 696.148V697.444H167.73V696.148H160.944ZM163.59 696.706V705.652H164.922V696.706H163.59ZM160.692 705.796L161.034 707.182C162.96 706.66 165.588 705.922 168.072 705.22L167.928 703.996C165.246 704.68 162.474 705.4 160.692 705.796ZM169.206 697.246V698.524H177.378V697.246H169.206ZM169.908 693.88C169.17 696.94 167.928 699.91 166.29 701.8C166.632 701.962 167.226 702.376 167.46 702.574C169.062 700.558 170.394 697.426 171.24 694.15L169.908 693.88ZM174.534 698.002C173.49 704.104 171.024 707.488 165.624 709.234C165.858 709.54 166.254 710.152 166.362 710.476C172.032 708.424 174.678 704.806 175.92 698.218L174.534 698.002ZM169.764 698.344L168.522 698.578C169.764 704.284 172.068 708.568 176.622 710.458C176.838 710.08 177.252 709.54 177.576 709.27C173.202 707.632 170.862 703.546 169.764 698.344ZM180.312 704.968V705.886H194.1V704.968H180.312ZM179.214 706.858V707.812H195.108V706.858H179.214ZM186.45 703.384V709.09C186.45 709.342 186.36 709.414 186.072 709.432C185.784 709.45 184.74 709.45 183.678 709.414C183.84 709.72 184.038 710.152 184.11 710.458C185.586 710.458 186.486 710.458 187.044 710.296C187.602 710.116 187.8 709.828 187.8 709.126V703.384H186.45ZM191.616 702.646C189.276 703.114 184.596 703.312 180.834 703.33C180.942 703.546 181.068 703.942 181.086 704.158C184.938 704.176 189.69 703.978 192.552 703.402L191.616 702.646ZM179.25 694.78V695.59H187.008V694.78H179.25ZM179.016 699.892V700.666H187.116V699.892H179.016ZM180.798 698.038H185.442V698.686H180.798V698.038ZM180.798 696.814H185.442V697.426H180.798V696.814ZM179.826 696.184V699.316H186.432V696.184H179.826ZM182.526 693.898V702.448H183.624V693.898H182.526ZM187.422 698.326V699.262H193.614V698.326H187.422ZM189.042 694.456V695.428H192.426V694.456H189.042ZM193.146 698.326V698.47C192.282 700.576 189.78 701.548 186.972 701.89C187.188 702.124 187.404 702.538 187.494 702.826C190.59 702.304 193.218 701.188 194.262 698.506L193.614 698.29L193.38 698.326H193.146ZM189.204 699.172L188.196 699.478C189.366 701.476 191.796 702.772 194.748 703.276C194.892 702.988 195.216 702.538 195.468 702.304C192.606 701.926 190.248 700.846 189.204 699.172ZM188.376 694.456V695.518C188.376 696.184 188.16 696.904 186.918 697.498C187.152 697.642 187.62 698.092 187.782 698.344C189.204 697.588 189.528 696.508 189.528 695.536V694.456H188.376ZM191.796 694.456V696.238C191.796 697.03 191.868 697.318 192.102 697.516C192.318 697.714 192.714 697.804 193.02 697.804C193.2 697.804 193.668 697.804 193.848 697.804C194.1 697.804 194.424 697.768 194.604 697.696C194.802 697.624 194.964 697.48 195.072 697.282C195.162 697.084 195.234 696.58 195.252 696.112C194.964 696.04 194.604 695.86 194.406 695.662C194.388 696.094 194.37 696.418 194.316 696.544C194.28 696.688 194.208 696.742 194.136 696.778C194.082 696.796 193.92 696.814 193.794 696.814C193.65 696.814 193.416 696.814 193.308 696.814C193.182 696.814 193.11 696.796 193.038 696.76C192.984 696.706 192.966 696.544 192.966 696.292V694.456H191.796ZM179.952 700.846V702.664H186.36V700.846H185.316V701.854H180.942V700.846H179.952ZM199.212 693.88V710.422H200.58V693.88H199.212ZM197.556 697.3C197.43 698.758 197.106 700.738 196.62 701.944L197.682 702.304C198.168 701.008 198.492 698.92 198.582 697.462L197.556 697.3ZM200.706 697.192C201.21 698.2 201.75 699.514 201.948 700.306L202.956 699.802C202.758 699.028 202.2 697.75 201.642 696.778L200.706 697.192ZM204.378 694.726C203.982 697.156 203.262 699.604 202.2 701.188C202.542 701.332 203.154 701.62 203.424 701.818C204.432 700.126 205.224 697.57 205.692 694.942L204.378 694.726ZM204.396 697.696L203.982 698.992H212.766V697.696H204.396ZM207.312 693.952V709.252H208.662V693.952H207.312ZM203.478 702.736V704.014H212.37V702.736H203.478ZM202.128 708.514V709.81H213.198V708.514H202.128Z" fill="black"/>
<path d="M326.064 703.325H311.337C310.598 703.325 310 702.732 310 702C310 701.268 310.598 700.675 311.337 700.675H326.064C326.802 700.675 327.4 701.268 327.4 702C327.4 702.732 326.802 703.325 326.064 703.325Z" fill="white"/>
<path d="M318.7 711C317.962 711 317.364 710.407 317.364 709.675V694.325C317.364 693.594 317.962 693 318.7 693C319.438 693 320.036 693.593 320.036 694.325V709.675C320.036 710.407 319.438 711 318.7 711Z" fill="white"/>
<rect x="32" y="740" width="311" height="43" rx="21.5" fill="#FFCD6E"/>
<path d="M175.254 762.15V768.342H176.496V763.32H178.242V768.342H179.304V763.32H181.068V768.342H182.148V763.32H183.93V768.342H185.208V762.15H175.254ZM173.634 767.73V768.918H186.45V767.73H173.634ZM170.736 754.032C171.816 754.554 173.148 755.418 173.778 756.066L174.57 754.968C173.922 754.338 172.59 753.528 171.492 753.042L170.736 754.032ZM169.8 758.892C170.916 759.378 172.248 760.17 172.896 760.782L173.688 759.666C173.004 759.072 171.654 758.316 170.556 757.866L169.8 758.892ZM170.232 768.378L171.42 769.206C172.338 767.532 173.418 765.3 174.21 763.392L173.148 762.582C172.266 764.634 171.078 766.992 170.232 768.378ZM177.144 754.788H183.264V759.738H177.144V754.788ZM175.92 753.726V760.8H184.56V753.726H175.92ZM179.916 755.112C179.682 756.48 178.872 757.902 177.504 758.676C177.702 758.838 177.99 759.162 178.116 759.342C179.646 758.496 180.6 756.858 180.906 755.22L179.916 755.112ZM179.52 756.966C180.402 757.686 181.518 758.712 182.058 759.342L182.76 758.712C182.202 758.1 181.086 757.128 180.204 756.444L179.52 756.966ZM197.178 765.858V767.154H202.758V765.858H197.178ZM196.674 754.572V768.648H197.988V755.85H202.02V768.522H203.388V754.572H196.674ZM191.562 754.41V769.422H192.912V754.41H191.562ZM188.034 758.208V759.468H196.062V758.208H188.034ZM191.49 758.658C190.77 761.142 189.114 764.058 187.602 765.606C187.836 765.93 188.178 766.47 188.322 766.848C189.942 765.12 191.598 761.79 192.444 759L191.49 758.658ZM195.018 753.06C193.452 753.708 190.59 754.248 188.196 754.572C188.358 754.878 188.52 755.328 188.592 755.634C191.058 755.346 194.01 754.824 195.936 754.104L195.018 753.06ZM192.804 759.828L192.12 760.494C192.786 761.286 194.532 763.59 195.108 764.544L195.936 763.446C195.468 762.852 193.38 760.404 192.804 759.828Z" fill="black"/>
<path d="M326.064 762.325H311.337C310.598 762.325 310 761.732 310 761C310 760.268 310.598 759.675 311.337 759.675H326.064C326.802 759.675 327.4 760.268 327.4 761C327.4 761.732 326.802 762.325 326.064 762.325Z" fill="white"/>
<path d="M318.7 770C317.962 770 317.364 769.407 317.364 768.675V753.325C317.364 752.594 317.962 752 318.7 752C319.438 752 320.036 752.593 320.036 753.325V768.675C320.036 769.407 319.438 770 318.7 770Z" fill="white"/>
</g>
<g clip-path="url(#clip1_496_2)">
<path d="M38 86.0007C50.1506 86.0007 60.0007 76.1506 60.0007 64C60.0007 51.8493 50.1506 41.9993 38 41.9993C25.8493 41.9993 15.9993 51.8493 15.9993 64C15.9993 76.1506 25.8493 86.0007 38 86.0007Z" fill="#FEA735"/>
<path d="M46.657 62.4124L32.8639 62.2907L37.8623 56.5786C38.4398 55.9186 38.3728 54.9159 37.7127 54.3384C37.053 53.7613 36.0496 53.8279 35.4725 54.4877L28.3457 62.6325C28 62.9208 27.7739 63.348 27.7693 63.8331C27.7693 63.8405 27.7714 63.8479 27.7714 63.8553C27.764 64.2321 27.8882 64.6117 28.1485 64.9172L35.4594 73.496C35.7734 73.8643 36.2193 74.0538 36.6684 74.0538C37.0325 74.0538 37.3983 73.9292 37.6975 73.6745C38.365 73.1058 38.4447 72.1035 37.876 71.4364L32.7867 65.4654L46.6288 65.5875C46.6337 65.5875 46.6383 65.5875 46.6432 65.5875C47.5135 65.5875 48.2227 64.8858 48.2304 64.014C48.2382 63.1374 47.534 62.4201 46.657 62.4124Z" fill="black"/>
</g>
<g clip-path="url(#clip2_496_2)">
<path d="M337 86.0007C349.151 86.0007 359.001 76.1506 359.001 64C359.001 51.8493 349.151 41.9993 337 41.9993C324.849 41.9993 314.999 51.8493 314.999 64C314.999 76.1506 324.849 86.0007 337 86.0007Z" fill="#FEA735"/>
</g>
<path d="M328 65.8261L333.043 71.5" stroke="black" stroke-width="3" stroke-linecap="round"/>
<path d="M333.043 71.5L346.913 57" stroke="black" stroke-width="3" stroke-linecap="round"/>
<path d="M209 142.399C209 142.399 218.115 140.443 223.525 149.828C223.525 149.828 230.663 163.958 221.403 169.39C221.403 169.39 214.577 172.407 211.789 164.853C211.768 164.853 212.434 151.847 209 142.399Z" fill="#6A4B2E" stroke="black" stroke-width="2" stroke-miterlimit="10"/>
<path d="M167.151 142.399C167.151 142.399 158.037 140.443 152.626 149.828C152.626 149.828 145.488 163.958 154.749 169.39C154.749 169.39 161.574 172.407 164.363 164.853C164.384 164.853 163.718 151.847 167.151 142.399Z" fill="#6A4B2E" stroke="black" stroke-width="2" stroke-miterlimit="10"/>
<path d="M161.488 216.17V155.947C161.488 155.947 161.488 132.577 188.062 132.223C188.062 132.223 213.304 132.577 214.178 155.509L214.532 216.17H161.488Z" fill="#906526" stroke="black" stroke-width="2" stroke-miterlimit="10"/>
<path d="M174.639 159.38C176.892 159.38 178.718 157.554 178.718 155.301C178.718 153.049 176.892 151.223 174.639 151.223C172.387 151.223 170.561 153.049 170.561 155.301C170.561 157.554 172.387 159.38 174.639 159.38Z" fill="black" stroke="black" stroke-miterlimit="10"/>
<path d="M201.38 159.38C203.633 159.38 205.459 157.554 205.459 155.301C205.459 153.049 203.633 151.223 201.38 151.223C199.128 151.223 197.302 153.049 197.302 155.301C197.302 157.554 199.128 159.38 201.38 159.38Z" fill="black" stroke="black" stroke-miterlimit="10"/>
<path d="M185.544 160.733H190.497C193.556 160.733 195.221 163.397 193.285 165.145L190.809 167.392C189.373 168.703 186.689 168.703 185.253 167.392L182.776 165.145C180.82 163.376 182.485 160.733 185.544 160.733Z" fill="black" stroke="black" stroke-miterlimit="10"/>
<path d="M179.155 176.548L187.916 169.098L196.885 177.464" stroke="black" stroke-width="2" stroke-miterlimit="10"/>
<path d="M200.069 134.741C200.902 135.074 201.859 134.866 202.421 134.179C203.961 132.286 205.896 129.601 201.255 127.312C200.381 126.875 199.903 125.897 200.09 124.94C200.402 123.379 199.861 121.236 194.492 121.298C193.556 121.319 192.723 120.715 192.453 119.821C191.849 117.823 190.309 115.076 186.73 118.967C186.189 119.571 185.336 119.821 184.566 119.55C182.61 118.884 179.051 118.177 178.947 121.652C178.926 122.609 178.177 123.4 177.22 123.566C175.389 123.899 173.037 124.69 173.932 126.667C174.244 127.375 174.119 128.207 173.62 128.79C172.288 130.33 170.582 132.972 174.973 134.866C174.973 134.887 186.543 129.268 200.069 134.741Z" fill="#6A4B2E" stroke="black" stroke-width="2" stroke-miterlimit="10"/>
<rect x="17.5" y="205.5" width="340" height="40" rx="20" fill="#FCF5EF" stroke="#FEA735" stroke-width="3"/>
<path d="M43.3156 221.172V227.71H41.9016V221.172H43.3156ZM44.1556 228.578V220.318H41.0616V229.922H41.9016V228.578H44.1556ZM46.7456 222.096C46.7596 221.214 46.7736 220.29 46.7736 219.338H45.8636C45.8636 220.304 45.8636 221.228 45.8496 222.096H44.6596V223.034H45.8216C45.7236 226.716 45.3176 229.67 43.5536 231.448C43.7776 231.588 44.1136 231.896 44.2816 232.12C46.1856 230.132 46.6196 226.982 46.7316 223.034H47.9356C47.7816 228.396 47.6136 230.258 47.3056 230.678C47.1796 230.874 47.0816 230.902 46.8996 230.902C46.6896 230.902 46.2836 230.902 45.8356 230.86C45.9756 231.126 46.0736 231.518 46.0736 231.798C46.5356 231.84 46.9976 231.826 47.3056 231.798C47.6416 231.742 47.8796 231.63 48.1036 231.294C48.5236 230.692 48.6776 228.746 48.8596 222.586C48.8736 222.474 48.8736 222.096 48.8736 222.096H46.7456ZM50.2736 229.446V221.858H52.0096V229.446H50.2736ZM49.4196 220.92V231.56H50.2736V230.384H52.0096V231.448H52.9056V220.92H49.4196ZM57.7076 221.55V227.024H55.9576V221.55H57.7076ZM58.6456 227.976V220.584H55.0336V229.208H55.9576V227.976H58.6456ZM62.8876 226.73L62.3136 226.926C62.3416 226.492 62.3556 226.058 62.3556 225.61V219.408H61.3616V221.648H59.0236V222.614H61.3616V224.546H59.1216V225.498H61.3616V225.596C61.3616 226.156 61.3476 226.716 61.2776 227.276C60.2136 227.626 59.2056 227.948 58.4636 228.158L58.8696 229.096C59.5416 228.858 60.2976 228.578 61.0816 228.27C60.7736 229.502 60.0876 230.608 58.6736 231.448C58.9256 231.602 59.2756 231.924 59.4436 232.12C61.2216 231.042 61.9356 229.53 62.2156 227.836L63.0276 227.514L62.8876 226.73ZM67.3536 227.472H64.6096V225.498H67.0456V224.546H64.6096V222.614H67.2136V221.648H64.6096V219.38H63.6016V232.05H64.6096V228.438H67.3536V227.472Z" fill="black"/>
<path opacity="0.35" d="M338.979 16.5026H355.469C356.666 16.5026 357.636 17.4727 357.636 18.6693V24.6693C357.636 25.8659 356.666 26.836 355.469 26.836H338.979C337.782 26.836 336.812 25.8659 336.812 24.6693V18.6693C336.812 17.4727 337.782 16.5026 338.979 16.5026Z" stroke="black"/>
<path opacity="0.4" d="M359.128 19.6693V23.6693C359.926 23.3305 360.445 22.5424 360.445 21.6693C360.445 20.7962 359.926 20.0081 359.128 19.6693" fill="black"/>
<path d="M338.296 19.336C338.296 18.5996 338.893 18.0026 339.629 18.0026H354.819C355.555 18.0026 356.152 18.5996 356.152 19.336V24.0026C356.152 24.739 355.555 25.336 354.819 25.336H339.629C338.893 25.336 338.296 24.739 338.296 24.0026V19.336Z" fill="black"/>
<path fill-rule="evenodd" clip-rule="evenodd" d="M323.744 18.2773C325.942 18.2774 328.056 19.1289 329.649 20.6557C329.769 20.7735 329.961 20.772 330.079 20.6523L331.226 19.4857C331.286 19.4249 331.319 19.3427 331.318 19.2571C331.318 19.1715 331.284 19.0897 331.223 19.0297C327.042 14.9901 320.445 14.9901 316.264 19.0297C316.203 19.0896 316.169 19.1715 316.168 19.257C316.168 19.3426 316.201 19.4249 316.261 19.4857L317.408 20.6523C317.526 20.7722 317.718 20.7737 317.838 20.6557C319.431 19.1288 321.545 18.2773 323.744 18.2773ZM323.744 22.073C324.951 22.0729 326.116 22.5255 327.011 23.3427C327.132 23.4587 327.323 23.4562 327.441 23.337L328.587 22.1704C328.647 22.1092 328.68 22.0261 328.68 21.9399C328.679 21.8536 328.644 21.7713 328.582 21.7114C325.856 19.155 321.634 19.155 318.908 21.7114C318.846 21.7713 318.811 21.8537 318.81 21.9399C318.809 22.0262 318.843 22.1092 318.903 22.1704L320.049 23.337C320.167 23.4562 320.357 23.4587 320.478 23.3427C321.373 22.526 322.537 22.0735 323.744 22.073ZM326.038 24.6268C326.04 24.7133 326.006 24.7967 325.945 24.8573L323.964 26.873C323.906 26.9323 323.826 26.9656 323.744 26.9656C323.661 26.9656 323.582 26.9323 323.524 26.873L321.542 24.8573C321.481 24.7967 321.447 24.7133 321.449 24.6268C321.451 24.5403 321.488 24.4583 321.552 24.4003C322.817 23.3215 324.67 23.3215 325.936 24.4003C325.999 24.4584 326.037 24.5403 326.038 24.6268Z" fill="black"/>
<path fill-rule="evenodd" clip-rule="evenodd" d="M312.189 16.336H311.197C310.65 16.336 310.205 16.7837 310.205 17.336V26.0027C310.205 26.555 310.65 27.0027 311.197 27.0027H312.189C312.737 27.0027 313.181 26.555 313.181 26.0027V17.336C313.181 16.7837 312.737 16.336 312.189 16.336ZM306.568 18.6693H307.56C308.108 18.6693 308.552 19.117 308.552 19.6693V26.0026C308.552 26.5549 308.108 27.0026 307.56 27.0026H306.568C306.02 27.0026 305.576 26.5549 305.576 26.0026V19.6693C305.576 19.117 306.02 18.6693 306.568 18.6693ZM302.931 21.0027H301.939C301.391 21.0027 300.947 21.4504 300.947 22.0027V26.0027C300.947 26.555 301.391 27.0027 301.939 27.0027H302.931C303.479 27.0027 303.923 26.555 303.923 26.0027V22.0027C303.923 21.4504 303.479 21.0027 302.931 21.0027ZM298.301 23.0027H297.309C296.762 23.0027 296.317 23.4504 296.317 24.0027V26.0027C296.317 26.5549 296.762 27.0027 297.309 27.0027H298.301C298.849 27.0027 299.293 26.5549 299.293 26.0027V24.0027C299.293 23.4504 298.849 23.0027 298.301 23.0027Z" fill="black"/>
<path d="M38.4455 22.8765C37.9133 23.355 37.3176 23.5942 36.6584 23.5942C35.6916 23.5942 34.925 23.2671 34.3586 22.6128C33.7922 21.9585 33.509 21.0845 33.509 19.9907C33.509 19.3071 33.6677 18.6724 33.9851 18.0864C34.3025 17.5005 34.7468 17.0366 35.3181 16.6948C35.8943 16.353 36.529 16.1821 37.2224 16.1821C37.9255 16.1821 38.5603 16.3604 39.1267 16.7168C39.698 17.0684 40.1423 17.5688 40.4597 18.2183C40.7771 18.8628 40.9406 19.6074 40.9504 20.4521V21.397C40.9504 22.5737 40.7185 23.5942 40.2546 24.4585C39.7956 25.3228 39.1389 25.9868 38.2844 26.4507C37.4299 26.9146 36.4338 27.1465 35.2961 27.1465H35.1423V25.1689L35.6111 25.1616C37.3103 25.0786 38.2551 24.3169 38.4455 22.8765ZM37.3249 21.8145C37.862 21.8145 38.2478 21.5825 38.4821 21.1187V20.0933C38.4821 19.4097 38.3674 18.9043 38.1379 18.5771C37.9084 18.25 37.5984 18.0864 37.2077 18.0864C36.8611 18.0864 36.5705 18.272 36.3361 18.6431C36.1018 19.0142 35.9846 19.4634 35.9846 19.9907C35.9846 20.5474 36.1042 20.9917 36.3435 21.3237C36.5827 21.6509 36.9099 21.8145 37.3249 21.8145ZM43.5435 24.605C43.9341 24.605 44.2588 24.7222 44.5176 24.9565C44.7764 25.186 44.9058 25.4814 44.9058 25.8428C44.9058 26.2041 44.7764 26.502 44.5176 26.7363C44.2588 26.9658 43.9341 27.0806 43.5435 27.0806C43.148 27.0806 42.8208 26.9634 42.562 26.729C42.3081 26.4946 42.1812 26.1992 42.1812 25.8428C42.1812 25.4863 42.3081 25.1909 42.562 24.9565C42.8208 24.7222 43.148 24.605 43.5435 24.605ZM43.5435 18.7603C43.9341 18.7603 44.2588 18.8774 44.5176 19.1118C44.7764 19.3413 44.9058 19.6367 44.9058 19.998C44.9058 20.3594 44.7764 20.6572 44.5176 20.8916C44.2588 21.1211 43.9341 21.2358 43.5435 21.2358C43.148 21.2358 42.8208 21.1187 42.562 20.8843C42.3081 20.6499 42.1812 20.3545 42.1812 19.998C42.1812 19.6416 42.3081 19.3462 42.562 19.1118C42.8208 18.8774 43.148 18.7603 43.5435 18.7603ZM51.6517 27H49.1761V19.1191L46.7444 19.8296V17.9546L51.4246 16.3359H51.6517V27ZM61.0856 22.8325H62.1695V24.7368H61.0856V27H58.6173V24.7368H54.4938L54.3473 23.228L58.6173 16.3579V16.3359H61.0856V22.8325ZM56.6984 22.8325H58.6173V19.5513L58.4635 19.8003L56.6984 22.8325Z" fill="black"/>
<defs>
<clipPath id="clip0_496_2">
<rect x="16" y="311.53" width="343" height="457.084" rx="25" fill="white"/>
</clipPath>
<clipPath id="clip1_496_2">
<rect width="44" height="44" fill="white" transform="translate(16 42)"/>
</clipPath>
<clipPath id="clip2_496_2">
<rect width="44" height="44" fill="white" transform="translate(315 42)"/>
</clipPath>
</defs>
</svg>
