<svg width="375" height="812" viewBox="0 0 375 812" fill="none" xmlns="http://www.w3.org/2000/svg">
<g clip-path="url(#clip0_117_17)">
<rect width="375" height="812" rx="40" fill="#FCF5EF"/>
<rect x="121" y="799" width="134" height="5" rx="2.5" fill="black"/>
<path d="M152.072 54.432H147.704V52.008H145.976V54.432H141.56V55.92H152.072V54.432ZM149.312 59.76C149.768 58.896 150.248 57.552 150.704 56.352L149.072 55.968C148.856 57 148.304 58.488 147.872 59.448L149.312 59.76ZM145.424 59.424C145.304 58.512 144.896 57.096 144.392 56.016L143 56.376C143.456 57.456 143.84 58.896 143.936 59.832L145.424 59.424ZM151.496 69.048C150.944 68.544 148.616 66.648 147.704 65.976V65.4H152.168V63.888H147.704V61.368H152.36V59.856H141.224V61.368H145.976V63.888H141.296V65.4H145.592C144.392 67.512 142.496 69.672 140.768 70.8C141.152 71.112 141.68 71.688 141.968 72.096C143.312 71.04 144.8 69.336 145.976 67.488V73.776H147.704V67.68C148.712 68.592 149.936 69.768 150.44 70.368L151.496 69.048ZM162.944 59.952H154.928V55.68C157.592 55.152 160.592 54.432 162.632 53.52L161.192 52.2C159.656 52.968 156.968 53.736 154.52 54.264L153.224 53.856V62.208C153.224 65.568 152.888 69.72 149.84 72.696C150.248 72.936 150.896 73.56 151.112 73.944C154.472 70.608 154.928 65.808 154.928 62.232V61.632H158.504V73.68H160.256V61.632H162.944V59.952ZM182.816 66.528V68.376H175.712V66.528H182.816ZM175.712 71.544V69.648H182.816V71.544H175.712ZM174.032 73.824H175.712V72.936H182.816V73.752H184.592V65.16H174.032V73.824ZM175.232 59.256C175.664 60.12 176.072 61.296 176.24 62.016L177.392 61.656C177.224 60.936 176.768 59.784 176.336 58.944L175.232 59.256ZM181.736 62.016C182.168 61.32 182.648 60.288 183.104 59.328L181.856 58.92C181.616 59.688 181.16 60.864 180.776 61.656L181.736 62.016ZM184.184 62.424H179.864V58.392H184.184V62.424ZM174.32 58.392H178.52V62.424H174.32V58.392ZM177.272 52.56V54.096H181.52C182.192 55.128 183.032 56.136 183.944 57.048H174.536C175.424 56.016 176.24 54.84 176.84 53.664L175.28 53.208C174.368 54.912 172.952 56.544 171.464 57.744H169.4V52.296H167.672V57.744H165.128V59.448H167.672V67.128C166.592 67.56 165.584 67.968 164.792 68.256L165.392 70.032L172.424 66.936L171.992 65.328C171.128 65.688 170.24 66.072 169.4 66.408V59.448H171.512V58.464C171.8 58.752 172.112 59.112 172.256 59.304C172.472 59.136 172.688 58.944 172.904 58.752V63.792H185.696V58.632C185.864 58.776 186.056 58.92 186.224 59.04C186.512 58.608 187.064 58.008 187.4 57.696C185.624 56.592 183.584 54.576 182.456 52.56H177.272ZM191.264 64.776V63.024H194.288V64.776H191.264ZM191.264 60.12H194.288V61.848H191.264V60.12ZM199.04 60.12V61.848H195.896V60.12H199.04ZM199.04 64.776H195.896V63.024H199.04V64.776ZM205.352 57.48C205.4 55.8 205.4 54.024 205.4 52.224H203.72C203.72 54.048 203.72 55.8 203.672 57.48H200.816V59.16H203.624C203.408 63.648 202.76 67.512 200.696 70.344V70.248C199.088 70.44 197.456 70.608 195.896 70.752V68.856H200.6V67.488H195.896V66.024H200.552V58.896H195.896V57.384H200.984V55.992H195.896V54.24C197.648 54.048 199.28 53.832 200.576 53.544L199.688 52.176C197.216 52.728 192.896 53.16 189.344 53.352C189.536 53.712 189.704 54.288 189.776 54.672C191.192 54.624 192.752 54.528 194.288 54.408V55.992H189.104V57.384H194.288V58.896H189.8V66.024H194.288V67.488H189.752V68.856H194.288V70.92C192.32 71.112 190.52 71.28 189.08 71.4L189.344 72.96C192.032 72.672 195.752 72.264 199.376 71.832C199.064 72.12 198.728 72.408 198.344 72.672C198.776 72.96 199.4 73.56 199.664 73.944C203.888 70.776 204.992 65.544 205.28 59.16H208.712C208.472 67.872 208.184 71.04 207.632 71.736C207.392 72.048 207.176 72.12 206.768 72.12C206.312 72.12 205.256 72.096 204.104 72C204.368 72.456 204.56 73.2 204.608 73.68C205.712 73.752 206.84 73.776 207.512 73.68C208.232 73.608 208.712 73.416 209.12 72.792C209.936 71.784 210.152 68.448 210.416 58.392C210.416 58.152 210.44 57.48 210.44 57.48H205.352ZM222.056 64.152L221.816 62.568L219.032 63.432V58.536H221.48V56.808H219.032V51.936H217.376V56.808H215.528C215.696 55.752 215.864 54.648 215.984 53.568L214.424 53.304C214.136 56.232 213.68 59.256 212.768 61.296C213.152 61.44 213.824 61.872 214.136 62.088C214.568 61.104 214.904 59.88 215.192 58.536H217.376V63.888C215.696 64.416 214.16 64.824 212.936 65.16L213.416 66.864C214.592 66.504 215.96 66.072 217.376 65.64V73.848H219.032V65.112L222.056 64.152ZM225.392 55.92C225.8 54.744 226.16 53.52 226.448 52.248L224.816 51.912C224.024 55.536 222.584 58.992 220.616 61.128C220.976 61.368 221.696 61.872 221.984 62.16C223.016 60.936 223.928 59.352 224.72 57.6H226.784C225.68 61.44 223.544 65.448 221 67.44C221.504 67.704 222.08 68.112 222.416 68.472C225.032 66.192 227.24 61.704 228.32 57.6H230.288C229.04 63.624 226.448 69.528 222.512 72.36C223.04 72.624 223.664 73.056 224 73.44C227.984 70.272 230.624 63.888 231.824 57.6H232.976C232.496 67.104 231.968 70.656 231.2 71.496C230.936 71.808 230.696 71.904 230.312 71.904C229.832 71.904 228.872 71.88 227.792 71.784C228.104 72.264 228.272 73.008 228.296 73.536C229.352 73.608 230.384 73.632 231.032 73.536C231.752 73.464 232.232 73.248 232.688 72.624C233.648 71.424 234.176 67.704 234.704 56.832C234.728 56.616 234.728 55.92 234.728 55.92H225.392Z" fill="black"/>
<rect x="17.5" y="277.5" width="340" height="40" rx="20" fill="#FCF5EF" stroke="#FEA735" stroke-width="3"/>
<path d="M41.4396 303.98C42.2096 303.266 42.6716 302.062 42.9656 301.026L42.0976 300.704C41.8316 301.712 41.3416 302.818 40.5996 303.476L41.4396 303.98ZM43.9876 301.11C44.2116 301.894 44.3376 302.944 44.3096 303.602L45.2336 303.462C45.2336 302.804 45.1076 301.768 44.8556 300.984L43.9876 301.11ZM46.2556 301.054C46.5916 301.768 46.8576 302.706 46.9276 303.28L47.7956 303.056C47.7116 302.482 47.4036 301.558 47.0676 300.858L46.2556 301.054ZM50.2176 293.172V294.194H43.5116V293.172H50.2176ZM43.5116 295.972V294.908H50.2176V295.972H43.5116ZM53.1996 298.45V297.68H43.5116V296.742H51.2396V292.402H46.9696C47.1656 292.094 47.3616 291.73 47.5296 291.38L46.3396 291.212C46.2416 291.548 46.0596 292.01 45.8776 292.402H42.4896V300.228H51.7716C51.6176 302.118 51.4356 302.888 51.2256 303.126C51.1136 303.224 50.9876 303.238 50.7496 303.238C50.5256 303.238 49.8956 303.238 49.2516 303.196C49.3776 303.42 49.4896 303.798 49.5036 304.036C50.1896 304.092 50.8476 304.092 51.1976 304.064C51.5616 304.036 51.8136 303.952 52.0516 303.714C52.4016 303.336 52.5976 302.356 52.7796 299.836C52.7936 299.71 52.8076 299.43 52.8076 299.43H43.5116V298.45H53.1996ZM50.2316 302.342C50.0496 301.866 49.6156 301.124 49.1956 300.564L48.4536 300.858C48.8596 301.404 49.2936 302.174 49.4616 302.664L50.2316 302.342ZM55.4396 303.98C56.2096 303.266 56.6716 302.062 56.9656 301.026L56.0976 300.704C55.8316 301.712 55.3416 302.818 54.5996 303.476L55.4396 303.98ZM57.9876 301.11C58.2116 301.894 58.3376 302.944 58.3096 303.602L59.2336 303.462C59.2336 302.804 59.1076 301.768 58.8556 300.984L57.9876 301.11ZM60.2556 301.054C60.5916 301.768 60.8576 302.706 60.9276 303.28L61.7956 303.056C61.7116 302.482 61.4036 301.558 61.0676 300.858L60.2556 301.054ZM64.2176 293.172V294.194H57.5116V293.172H64.2176ZM57.5116 295.972V294.908H64.2176V295.972H57.5116ZM67.1996 298.45V297.68H57.5116V296.742H65.2396V292.402H60.9696C61.1656 292.094 61.3616 291.73 61.5296 291.38L60.3396 291.212C60.2416 291.548 60.0596 292.01 59.8776 292.402H56.4896V300.228H65.7716C65.6176 302.118 65.4356 302.888 65.2256 303.126C65.1136 303.224 64.9876 303.238 64.7496 303.238C64.5256 303.238 63.8956 303.238 63.2516 303.196C63.3776 303.42 63.4896 303.798 63.5036 304.036C64.1896 304.092 64.8476 304.092 65.1976 304.064C65.5616 304.036 65.8136 303.952 66.0516 303.714C66.4016 303.336 66.5976 302.356 66.7796 299.836C66.7936 299.71 66.8076 299.43 66.8076 299.43H57.5116V298.45H67.1996ZM64.2316 302.342C64.0496 301.866 63.6156 301.124 63.1956 300.564L62.4536 300.858C62.8596 301.404 63.2936 302.174 63.4616 302.664L64.2316 302.342Z" fill="black"/>
<circle cx="188" cy="181" r="80" fill="#FEA735"/>
<path d="M182.014 141.999C182.014 141.999 181.417 129.462 188.055 126C188.055 126 195.123 130.465 194.001 141.999C194.001 141.999 189.392 140.112 182.014 141.999Z" fill="#D3AF7C" stroke="black" stroke-width="2" stroke-miterlimit="10"/>
<path d="M157.531 237.324V168.22C157.531 168.22 157.531 141.405 188.024 140.999C188.024 140.999 216.988 141.405 217.991 167.719L218.397 237.324H157.531Z" fill="white" stroke="black" stroke-width="2" stroke-miterlimit="10"/>
<path d="M172.168 173.808C174.753 173.808 176.849 171.712 176.849 169.127C176.849 166.543 174.753 164.447 172.168 164.447C169.584 164.447 167.488 166.543 167.488 169.127C167.488 171.712 169.584 173.808 172.168 173.808Z" fill="black" stroke="black" stroke-miterlimit="10"/>
<path d="M202.853 173.808C205.437 173.808 207.533 171.712 207.533 169.127C207.533 166.543 205.437 164.447 202.853 164.447C200.268 164.447 198.172 166.543 198.172 169.127C198.172 171.712 200.268 173.808 202.853 173.808Z" fill="black" stroke="black" stroke-miterlimit="10"/>
<path d="M218.421 237.229C218.421 237.229 235.136 239.33 236.712 224.263C236.712 224.263 240.246 209.434 222.552 199.238C220.737 198.188 218.421 199.501 218.421 201.554V237.229Z" fill="#D3AF7C" stroke="black" stroke-width="2" stroke-miterlimit="10"/>
<path d="M157.579 237.229C157.579 237.229 140.864 239.33 139.288 224.263C139.288 224.263 135.754 209.434 153.448 199.238C155.263 198.188 157.579 199.501 157.579 201.554V237.229Z" fill="#D3AF7C" stroke="black" stroke-width="2" stroke-miterlimit="10"/>
<path d="M208.846 191.072C212.591 191.072 215.627 188.036 215.627 184.29C215.627 180.545 212.591 177.509 208.846 177.509C205.101 177.509 202.064 180.545 202.064 184.29C202.064 188.036 205.101 191.072 208.846 191.072Z" fill="#D7B995"/>
<path d="M166.748 191.072C170.494 191.072 173.53 188.036 173.53 184.29C173.53 180.545 170.494 177.509 166.748 177.509C163.003 177.509 159.967 180.545 159.967 184.29C159.967 188.036 163.003 191.072 166.748 191.072Z" fill="#D7B995"/>
<path d="M173.41 182.977L182.938 177.055C185.445 175.479 189.457 175.336 192.155 176.697L202.136 181.735C205.79 183.574 205.264 187.156 201.133 188.66L191.51 192.194C189.6 192.886 187.284 192.982 185.278 192.457L175.392 189.806C170.999 188.636 169.972 185.102 173.41 182.977Z" fill="#BB8682" stroke="black" stroke-miterlimit="10"/>
<path d="M170.282 186.129C170.282 186.129 186.424 189.919 204.5 185" stroke="#040000" stroke-width="0.5" stroke-miterlimit="10"/>
<circle cx="375" cy="181" r="80" fill="#FFEBCC"/>
<path d="M355.175 238.799V171.804C355.175 171.804 353.5 148.5 377.5 142.5C377.5 142.5 342.946 134.378 344.761 162.705C344.761 162.705 321.427 168.795 337.906 186.804C337.906 186.804 318.537 197.169 336.927 210.902C336.927 210.902 322.764 228.099 347.221 237.748C347.221 237.748 350.684 239.205 355.175 238.799Z" fill="#DBA8CC" stroke="#040000" stroke-width="2" stroke-miterlimit="10"/>
<path d="M364.26 149.584C364.26 149.584 361.514 145.405 356.737 144.33C356.737 144.33 349.882 142.419 350.002 147.793C350.002 147.793 351.172 156.033 357.406 158.923C357.406 158.923 360.295 151.615 364.26 149.584Z" fill="white" stroke="black" stroke-width="2" stroke-miterlimit="10"/>
<path d="M355.175 238.799V169.679C355.175 169.679 355.175 142.857 385.674 142.451C385.674 142.451 414.645 142.857 415.649 169.177L416.055 238.799" fill="white"/>
<path d="M355.175 238.799V169.679C355.175 169.679 355.175 142.857 385.674 142.451C385.674 142.451 414.645 142.857 415.649 169.177L416.055 238.799H355.175Z" stroke="black" stroke-width="2" stroke-miterlimit="10"/>
<path d="M369.815 175.292C372.401 175.292 374.497 173.196 374.497 170.61C374.497 168.025 372.401 165.929 369.815 165.929C367.23 165.929 365.134 168.025 365.134 170.61C365.134 173.196 367.23 175.292 369.815 175.292Z" fill="black" stroke="black" stroke-miterlimit="10"/>
<path d="M404.065 215.822C419.47 211.834 412.83 198.483 412.83 198.483C405.187 179.089 386.08 180.331 386.08 180.331C367.308 180.307 359.068 197.48 359.068 197.48C351.711 214.939 369.409 216.252 369.409 216.252C369.409 216.252 393.078 218.665 404.065 215.822Z" fill="white" stroke="black" stroke-width="2" stroke-miterlimit="10"/>
<g clip-path="url(#clip1_117_17)">
<path d="M38 86.0007C50.1506 86.0007 60.0007 76.1506 60.0007 64C60.0007 51.8493 50.1506 41.9993 38 41.9993C25.8493 41.9993 15.9993 51.8493 15.9993 64C15.9993 76.1506 25.8493 86.0007 38 86.0007Z" fill="#FEA735"/>
<path d="M46.657 62.4124L32.8639 62.2907L37.8623 56.5786C38.4398 55.9186 38.3728 54.9159 37.7127 54.3384C37.053 53.7613 36.0496 53.8279 35.4725 54.4877L28.3457 62.6325C28 62.9208 27.7739 63.348 27.7693 63.8331C27.7693 63.8405 27.7714 63.8479 27.7714 63.8553C27.764 64.2321 27.8882 64.6117 28.1485 64.9172L35.4594 73.496C35.7734 73.8643 36.2193 74.0538 36.6684 74.0538C37.0325 74.0538 37.3983 73.9292 37.6975 73.6745C38.365 73.1058 38.4447 72.1035 37.876 71.4364L32.7867 65.4654L46.6288 65.5875C46.6337 65.5875 46.6383 65.5875 46.6432 65.5875C47.5135 65.5875 48.2227 64.8858 48.2304 64.014C48.2382 63.1374 47.534 62.4201 46.657 62.4124Z" fill="black"/>
</g>
<circle cy="181" r="80" fill="#FFEBCC"/>
<path d="M27.8843 152.595C27.8843 152.595 38.5744 150.301 44.9201 161.308C44.9201 161.308 53.2916 177.88 42.4307 184.25C42.4307 184.25 34.4253 187.789 31.1548 178.93C31.1304 178.93 31.9114 163.675 27.8843 152.595Z" fill="#6A4B2E" stroke="black" stroke-width="2" stroke-miterlimit="10"/>
<path d="M-30.0083 239.116V168.484C-30.0083 168.484 -30.0083 141.075 1.15904 140.66C1.15904 140.66 30.7643 141.075 31.7894 167.971L32.2043 239.116H-30.0083Z" fill="#906526" stroke="black" stroke-width="2" stroke-miterlimit="10"/>
<path d="M16.7793 172.511C19.4213 172.511 21.563 170.369 21.563 167.727C21.563 165.085 19.4213 162.943 16.7793 162.943C14.1373 162.943 11.9956 165.085 11.9956 167.727C11.9956 170.369 14.1373 172.511 16.7793 172.511Z" fill="black" stroke="black" stroke-miterlimit="10"/>
<path d="M-1.79395 174.097H4.01484C7.60262 174.097 9.55515 177.221 7.28533 179.271L4.38094 181.907C2.69688 183.445 -0.451589 183.445 -2.13565 181.907L-5.04004 179.271C-7.33427 177.197 -5.38173 174.097 -1.79395 174.097Z" fill="black" stroke="black" stroke-miterlimit="10"/>
<path d="M-9.28711 192.646L0.988102 183.909L11.5074 193.72" stroke="black" stroke-width="2" stroke-miterlimit="10"/>
<path d="M15.2416 143.613C16.2179 144.004 17.3406 143.76 17.9996 142.954C19.8057 140.733 22.0755 137.585 16.6328 134.9C15.6077 134.387 15.0464 133.24 15.266 132.118C15.6321 130.287 14.9976 127.773 8.70064 127.846C7.60233 127.871 6.62607 127.163 6.30878 126.114C5.60099 123.771 3.79489 120.549 -0.403057 125.113C-1.03763 125.821 -2.03831 126.114 -2.94135 125.796C-5.23558 125.015 -9.40913 124.185 -9.53116 128.261C-9.55557 129.384 -10.4342 130.312 -11.5569 130.507C-13.7047 130.897 -16.4627 131.825 -15.4132 134.143C-15.0471 134.973 -15.1935 135.95 -15.7793 136.633C-17.3413 138.439 -19.3427 141.539 -14.1928 143.76C-14.1928 143.784 -0.622719 137.194 15.2416 143.613Z" fill="#6A4B2E" stroke="black" stroke-width="2" stroke-miterlimit="10"/>
<g clip-path="url(#clip2_117_17)">
<path d="M338 86.0007C350.151 86.0007 360.001 76.1506 360.001 64C360.001 51.8493 350.151 41.9993 338 41.9993C325.849 41.9993 315.999 51.8493 315.999 64C315.999 76.1506 325.849 86.0007 338 86.0007Z" fill="#FEA735"/>
<path d="M332.557 74.3137L327.118 76.5509C325.769 76.9511 326.127 75.7734 326.127 75.7734L328.482 69.9993L332.557 74.3137Z" fill="#F6E9BA"/>
<path d="M326.939 73.6658L328.943 75.7125L326.874 76.5929C326.874 76.5929 325.921 76.7987 326.043 76.0098L326.939 73.6658Z" fill="#2C3C50"/>
<path d="M328.517 69.9079L343.777 54.6017L347.825 58.8513L332.564 74.1879L328.517 69.9079Z" fill="#ECC644" stroke="black" stroke-miterlimit="10"/>
<path d="M347.874 58.8094L343.708 54.6665L346.022 52.3378C346.468 51.888 347.192 51.888 347.638 52.334L350.184 54.8609C350.634 55.3068 350.634 56.0309 350.188 56.4768L347.874 58.8094Z" fill="#DA4E6E" stroke="black" stroke-miterlimit="10"/>
<path d="M332.473 74.3137L327.034 76.5509C325.685 76.9511 326.043 75.7734 326.043 75.7734L328.398 69.9993" stroke="black" stroke-miterlimit="10"/>
<path d="M347.879 58.797L343.731 54.6495L342.171 56.2099L346.318 60.3574L347.879 58.797Z" fill="white" stroke="black" stroke-miterlimit="10"/>
</g>
<rect x="19.2795" y="335.5" width="338.441" height="435" rx="23.5" stroke="#FEA735" stroke-width="3"/>
<path d="M17 359C17 345.193 28.1929 334 42 334H335C348.807 334 360 345.193 360 359V377H17V359Z" fill="#FEA735"/>
<path d="M150.084 349.742H146.628V351.614C146.628 352.694 147.006 352.964 148.338 352.964H150.75C151.704 352.964 152.046 352.64 152.172 351.434C151.848 351.362 151.416 351.218 151.182 351.056C151.128 351.902 151.038 352.01 150.606 352.01H148.464C147.87 352.01 147.762 351.938 147.762 351.596V350.678H151.272V347.636H146.286V348.572H150.084V349.742ZM144.288 349.742H140.76V351.614C140.76 352.694 141.102 352.964 142.434 352.964H144.666C145.584 352.964 145.926 352.658 146.052 351.488C145.728 351.434 145.296 351.29 145.062 351.11C145.008 351.902 144.918 352.01 144.486 352.01H142.542C141.966 352.01 141.876 351.938 141.876 351.614V350.678H145.422V347.636H140.436V348.572H144.288V349.742ZM144.576 355.52H147.528V357.23H144.576V355.52ZM152.064 357.23H148.806V355.52H151.506V354.494H148.806V353.198H147.528V354.494H144.576V353.198H143.334V354.494H140.67V355.52H143.334V357.23H140.094V358.274H152.064V357.23ZM151.794 360.668C150.948 360.002 149.472 359.138 148.158 358.508L147.204 359.102C148.446 359.732 149.742 360.578 150.498 361.244L151.794 360.668ZM143.928 358.472C143.136 359.192 141.804 359.876 140.58 360.362C140.868 360.542 141.354 360.974 141.57 361.208C142.758 360.632 144.198 359.75 145.116 358.886L143.928 358.472ZM139.752 350.354C139.248 349.454 138.06 348.212 136.998 347.366L135.972 348.05C137.016 348.932 138.168 350.21 138.636 351.11L139.752 350.354ZM139.338 353.99H135.882V355.25H138.096V359.894C137.304 360.65 136.422 361.406 135.666 361.964L136.368 363.206C137.232 362.414 138.042 361.658 138.798 360.866C139.914 362.288 141.552 362.936 143.928 363.026C145.962 363.098 149.85 363.062 151.884 362.972C151.938 362.594 152.154 362 152.316 361.712C150.12 361.856 145.926 361.91 143.892 361.82C141.786 361.73 140.184 361.118 139.338 359.768V353.99ZM159.084 354.512C158.49 354.71 157.896 354.908 157.302 355.088V351.776H159.228V350.552H157.302V346.952H156.06V350.552H153.81V351.776H156.06V355.466C155.124 355.754 154.26 356.024 153.576 356.204L153.918 357.5L156.06 356.798V361.82C156.06 362.09 155.97 362.144 155.754 362.144C155.538 362.162 154.836 362.162 154.062 362.144C154.242 362.504 154.404 363.062 154.458 363.368C155.574 363.386 156.258 363.332 156.69 363.134C157.14 362.918 157.302 362.558 157.302 361.82V356.402L159.264 355.754L159.084 354.512ZM166.482 357.662H162.864L163.368 357.518C163.278 357.086 162.99 356.438 162.72 355.952H166.806C166.608 356.456 166.302 357.104 166.068 357.536L166.482 357.662ZM163.908 348.644H165.69V350.534H163.908V348.644ZM162.828 350.534H161.118V348.644H162.828V350.534ZM166.77 348.644H168.588V350.534H166.77V348.644ZM170.244 354.89H165.348V353.612H169.362V352.604H165.348V351.488H169.704V347.672H160.02V351.488H164.088V352.604H160.218V353.612H164.088V354.89H159.336V355.952H162.288L161.55 356.132C161.802 356.582 162.054 357.194 162.18 357.662H159.498V358.706H164.088V359.984H159.876V361.028H164.088V363.512H165.348V361.028H169.596V359.984H165.348V358.706H169.992V357.662H167.202C167.49 357.194 167.814 356.618 168.156 356.024L167.886 355.952H170.244V354.89ZM185.958 352.154H180.558V348.86H185.958V352.154ZM187.272 347.69H179.334V353.306H187.272V347.69ZM178.614 356.798C178.254 356.384 176.724 354.8 176.166 354.332V353.234H178.416V351.974H176.166V348.932C177.012 348.734 177.804 348.482 178.452 348.212L177.516 347.204C176.202 347.798 173.844 348.32 171.828 348.644C171.99 348.95 172.17 349.382 172.242 349.688C173.07 349.562 173.988 349.418 174.87 349.238V351.974H171.936V353.234H174.69C173.97 355.286 172.728 357.608 171.594 358.868C171.81 359.192 172.134 359.714 172.26 360.092C173.178 358.994 174.132 357.194 174.87 355.376V363.332H176.166V355.628C176.778 356.366 177.516 357.356 177.804 357.86L178.614 356.798ZM183.906 361.694V359.372H187.488V358.202H183.906V356.06H187.884V354.872H178.668V356.06H182.574V358.202H179.082V359.372H182.574V361.694H177.858V362.9H188.28V361.694H183.906ZM205.236 349.22C204.696 348.608 203.562 347.69 202.644 347.078L201.744 347.816C202.662 348.464 203.778 349.436 204.3 350.066L205.236 349.22ZM195.21 355.556H198.576V354.26H190.692V355.556H193.896V360.776C192.456 361.064 191.142 361.334 190.134 361.532L190.548 362.846C192.834 362.342 196.128 361.586 199.17 360.848L199.062 359.678C197.766 359.966 196.47 360.218 195.21 360.488V355.556ZM205.974 351.578V350.282H200.646C200.592 349.22 200.574 348.14 200.574 347.024H199.17C199.188 348.122 199.206 349.22 199.26 350.282H190.062V351.578H199.35C199.818 358.238 201.312 363.404 204.246 363.404C205.614 363.404 206.118 362.486 206.352 359.372C205.974 359.228 205.47 358.94 205.164 358.634C205.056 361.028 204.84 362.018 204.354 362.018C202.572 362.018 201.15 357.644 200.718 351.578H205.974ZM216.126 350.912H217.404V349.562H220.14V350.93H221.436V349.562H223.938V348.428H221.436V346.952H220.14V348.428H217.404V346.952H216.126V348.428H213.516V349.562H216.126V350.912ZM213.606 355.862C213.282 355.304 211.932 353.036 211.464 352.352V351.65H213.318V350.39H211.464V346.934H210.186V350.39H207.972V351.65H210.186C209.7 354.08 208.674 356.942 207.63 358.436C207.864 358.76 208.188 359.336 208.332 359.732C208.998 358.67 209.664 357.032 210.186 355.286V363.368H211.464V354.152C211.95 355.088 212.508 356.24 212.76 356.852L213.606 355.862ZM215.496 354.494H221.724V355.772H215.496V354.494ZM215.496 352.262H221.724V353.54H215.496V352.262ZM223.92 359.408V358.274H218.97C219.06 357.806 219.15 357.302 219.204 356.78H223.002V351.254H214.254V356.78H217.89C217.818 357.302 217.746 357.824 217.638 358.274H213.12V359.408H217.242C216.558 360.776 215.28 361.73 212.652 362.324C212.886 362.576 213.228 363.08 213.336 363.368C216.468 362.612 217.908 361.352 218.628 359.444C219.528 361.406 221.184 362.738 223.488 363.368C223.668 363.026 224.046 362.522 224.334 362.27C222.3 361.838 220.77 360.848 219.888 359.408H223.92ZM226.692 357.14C226.494 358.724 226.116 360.326 225.522 361.424C225.81 361.514 226.35 361.766 226.566 361.928C227.16 360.776 227.592 359.048 227.844 357.356L226.692 357.14ZM231.516 355.826C231.678 356.204 231.786 356.546 231.858 356.852L232.92 356.348C232.668 355.376 231.876 353.846 231.138 352.694L230.148 353.126C230.454 353.612 230.76 354.17 231.03 354.728C230.04 354.764 229.05 354.818 228.15 354.854C229.392 353.306 230.832 351.182 231.876 349.49L230.724 348.986C230.22 349.958 229.536 351.128 228.798 352.262C228.51 351.884 228.132 351.452 227.7 351.02C228.384 350.048 229.14 348.608 229.752 347.402L228.564 346.952C228.186 347.942 227.556 349.292 226.962 350.3C226.782 350.138 226.602 349.976 226.422 349.832L225.738 350.714C226.584 351.47 227.538 352.478 228.096 353.288C227.7 353.882 227.286 354.422 226.89 354.89C226.476 354.908 226.062 354.926 225.702 354.926L225.81 356.132L228.744 355.988V363.404H229.95V355.916L231.516 355.826ZM230.598 357.392C231.084 358.508 231.588 359.948 231.75 360.884L232.812 360.524C232.65 359.588 232.128 358.166 231.606 357.068L230.598 357.392ZM235.062 358.202H239.634V361.64H235.062V358.202ZM239.634 349.166V352.478H235.062V349.166H239.634ZM239.634 356.996H235.062V353.684H239.634V356.996ZM240.948 361.64V347.96H233.766V361.64H231.858V362.864H242.334V361.64H240.948Z" fill="black"/>
<g clip-path="url(#clip3_117_17)">
<path d="M34 413.5C34 401.626 43.6259 392 55.5 392H323.5C335.374 392 345 401.626 345 413.5C345 425.374 335.374 435 323.5 435H55.5C43.6259 435 34 425.374 34 413.5Z" fill="#FFCD6E"/>
<rect x="34" y="451" width="311" height="43" rx="21.5" fill="#FFCD6E"/>
<rect x="34" y="510" width="311" height="43" rx="21.5" fill="#FFCD6E"/>
<rect x="34" y="569" width="311" height="43" rx="21.5" fill="#FFCD6E"/>
<rect x="34" y="628" width="311" height="43" rx="21.5" fill="#FFCD6E"/>
<rect x="34" y="687" width="311" height="43" rx="21.5" fill="#FFCD6E"/>
<rect x="34" y="746" width="311" height="43" rx="21.5" fill="#FFCD6E"/>
<path d="M155.456 531.322C158.57 531.232 163.34 531.034 167.876 530.782C168.344 531.304 168.758 531.79 169.046 532.222L170.198 531.448C169.226 530.098 167.138 528.172 165.374 526.84L164.294 527.506C165.086 528.118 165.932 528.856 166.706 529.594C164.258 529.684 161.774 529.774 159.596 529.846C160.226 528.802 160.892 527.506 161.468 526.372H170.342V525.094H163.196V522.934H161.864V525.094H154.826V526.372H159.884C159.434 527.506 158.768 528.874 158.174 529.9C157.13 529.936 156.194 529.954 155.384 529.972L155.456 531.322ZM159.542 531.808C159.29 535.138 158.588 537.19 154.412 538.216C154.7 538.468 155.06 539.008 155.186 539.35C159.722 538.108 160.64 535.678 160.946 531.808H159.542ZM166.346 537.982C165.644 537.982 165.518 537.874 165.518 537.334V531.7H164.168V537.334C164.168 538.81 164.6 539.242 166.184 539.242H168.74C170.27 539.242 170.63 538.468 170.792 535.444C170.414 535.336 169.856 535.12 169.55 534.868C169.46 537.568 169.352 537.982 168.65 537.982H166.346ZM176.012 529.576C175.382 529.018 174.104 528.334 173.06 527.92L172.304 528.892C173.366 529.36 174.644 530.116 175.256 530.674L176.012 529.576ZM173.888 539.152C174.662 537.496 175.562 535.3 176.228 533.428L175.148 532.726C174.428 534.742 173.402 537.046 172.682 538.432L173.888 539.152ZM173.078 524.086C174.086 524.59 175.328 525.418 175.904 526.012L176.696 524.95C176.084 524.356 174.86 523.6 173.852 523.132L173.078 524.086ZM180.656 525.832H184.526V527.344H180.656V525.832ZM185.84 528.496V525.832H188.72V524.644H185.84V522.934H184.526V524.644H180.656V522.934H179.378V524.644H176.696V525.832H179.378V528.496H181.934V529.774H177.11V539.332H178.28V530.926H181.934V536.254C181.178 535.462 180.746 533.896 180.674 531.952H178.964V532.87H179.99C180.008 533.104 180.026 533.338 180.062 533.554H179.756C179.63 534.652 179.198 535.858 178.334 536.542C178.514 536.65 178.802 536.92 178.928 537.1C179.612 536.524 180.044 535.714 180.314 534.814C180.548 535.732 180.926 536.47 181.412 536.974C181.52 536.794 181.754 536.578 181.934 536.434V539.17H183.14V530.926H186.974V536.254C186.11 535.498 185.588 533.95 185.498 531.952H183.788V532.87H184.814C184.832 533.104 184.868 533.32 184.886 533.536H184.598C184.472 534.598 184.04 535.75 183.158 536.398C183.356 536.524 183.644 536.794 183.752 536.974C184.436 536.416 184.886 535.624 185.156 534.76C185.426 535.696 185.84 536.416 186.362 536.92C186.488 536.722 186.776 536.488 186.974 536.344V538.054C186.974 538.27 186.902 538.306 186.686 538.306C186.47 538.324 185.768 538.324 185.012 538.306C185.156 538.612 185.3 539.026 185.354 539.332C186.452 539.332 187.172 539.314 187.604 539.152C188.036 538.972 188.162 538.666 188.162 538.054V529.774H183.14V528.496H185.84ZM195.758 527.866C195.524 530.224 195.056 532.204 194.372 533.824C193.688 533.338 192.968 532.888 192.284 532.492C192.644 531.07 193.022 529.468 193.382 527.866H195.758ZM196.316 526.588L196.082 526.642H193.652C193.922 525.4 194.174 524.194 194.39 523.096L193.112 522.952C192.914 524.068 192.662 525.346 192.374 526.642H190.412V527.866H192.122C191.618 530.116 191.078 532.33 190.646 533.878L191.762 534.454L191.96 533.698C192.59 534.094 193.22 534.526 193.814 534.976C192.968 536.524 191.87 537.64 190.556 538.324C190.844 538.594 191.204 539.08 191.384 539.404C192.788 538.558 193.94 537.388 194.84 535.786C195.596 536.416 196.244 537.046 196.676 537.586L197.486 536.524C197 535.93 196.28 535.264 195.434 534.616C196.316 532.6 196.874 530.026 197.108 526.768L196.316 526.588ZM206.846 530.152H202.562V528.55C203.93 527.488 205.46 525.868 206.468 524.428L205.586 523.78L205.316 523.87H197.612V525.094H204.344C203.624 526.012 202.67 527.038 201.77 527.758H201.23V530.152H197.018V531.394H201.23V537.676C201.23 537.946 201.14 538.036 200.834 538.054C200.528 538.072 199.52 538.072 198.386 538.036C198.584 538.378 198.818 538.972 198.89 539.332C200.312 539.332 201.248 539.296 201.806 539.098C202.382 538.882 202.562 538.486 202.562 537.676V531.394H206.846V530.152ZM223.442 528.892C221.804 528.118 218.996 526.984 216.71 526.21C216.764 526.084 216.818 525.94 216.872 525.796H223.712V524.608H217.196C217.304 524.104 217.394 523.528 217.448 522.934H216.08C216.026 523.546 215.936 524.104 215.828 524.608H209.474V525.796H215.432C214.658 527.452 212.984 528.37 209.186 528.838C209.402 529.09 209.69 529.594 209.798 529.882C213.164 529.432 215.036 528.586 216.116 527.2C218.366 527.992 220.994 529.108 222.47 529.846L223.442 528.892ZM216.278 533.77V536.218H211.706V533.77H216.278ZM217.574 537.316V532.672H210.428V538.486H211.706V537.316H217.574ZM224.594 530.008H208.574V531.232H220.76V537.73C220.76 538.036 220.67 538.108 220.31 538.144C219.95 538.144 218.708 538.162 217.34 538.108C217.538 538.486 217.772 539.008 217.844 539.386C219.5 539.386 220.616 539.368 221.264 539.17C221.912 538.954 222.11 538.576 222.11 537.748V531.232H224.594V530.008Z" fill="black"/>
<path d="M159.362 408.022C158.606 407.518 157.094 406.69 155.996 406.168L155.258 407.122C156.356 407.716 157.85 408.58 158.588 409.102L159.362 408.022ZM158.444 412.882C157.652 412.378 156.158 411.586 155.114 411.064L154.376 412.036C155.474 412.612 156.95 413.476 157.688 413.98L158.444 412.882ZM155.924 422.134C156.986 420.478 158.246 418.246 159.182 416.356L158.21 415.474C157.166 417.508 155.78 419.884 154.808 421.234L155.924 422.134ZM168.272 420.37H161.882V416.662H168.272V420.37ZM170.72 412.468V411.172H165.788V408.058C167.336 407.788 168.776 407.446 169.946 407.05L168.902 406.006C166.904 406.726 163.286 407.284 160.19 407.608C160.316 407.914 160.496 408.418 160.568 408.742C161.846 408.616 163.196 408.454 164.51 408.256V411.172H159.326V412.468H164.51V415.42H160.64V422.368H161.882V421.612H168.272V422.278H169.55V415.42H165.788V412.468H170.72ZM180.35 409.858C180.35 409.588 180.35 409.336 180.35 409.084V405.97H178.964V409.084C178.964 409.336 178.964 409.588 178.964 409.858H173.132V411.19H178.892C178.622 414.556 177.47 418.498 172.592 421.396C172.916 421.612 173.402 422.134 173.618 422.458C178.838 419.272 180.026 414.916 180.278 411.19H186.416C186.074 417.526 185.678 420.064 185.03 420.676C184.814 420.892 184.58 420.946 184.202 420.946C183.752 420.946 182.6 420.928 181.376 420.82C181.646 421.216 181.808 421.792 181.826 422.188C182.924 422.26 184.076 422.296 184.706 422.242C185.39 422.17 185.822 422.026 186.236 421.522C187.028 420.622 187.406 417.94 187.802 410.56C187.82 410.362 187.838 409.858 187.838 409.858H180.35ZM191.456 414.322C194.57 414.232 199.34 414.034 203.876 413.782C204.344 414.304 204.758 414.79 205.046 415.222L206.198 414.448C205.226 413.098 203.138 411.172 201.374 409.84L200.294 410.506C201.086 411.118 201.932 411.856 202.706 412.594C200.258 412.684 197.774 412.774 195.596 412.846C196.226 411.802 196.892 410.506 197.468 409.372H206.342V408.094H199.196V405.934H197.864V408.094H190.826V409.372H195.884C195.434 410.506 194.768 411.874 194.174 412.9C193.13 412.936 192.194 412.954 191.384 412.972L191.456 414.322ZM195.542 414.808C195.29 418.138 194.588 420.19 190.412 421.216C190.7 421.468 191.06 422.008 191.186 422.35C195.722 421.108 196.64 418.678 196.946 414.808H195.542ZM202.346 420.982C201.644 420.982 201.518 420.874 201.518 420.334V414.7H200.168V420.334C200.168 421.81 200.6 422.242 202.184 422.242H204.74C206.27 422.242 206.63 421.468 206.792 418.444C206.414 418.336 205.856 418.12 205.55 417.868C205.46 420.568 205.352 420.982 204.65 420.982H202.346ZM212.12 412.864C211.418 412.36 210.032 411.568 209.06 411.046L208.376 412.036C209.42 412.612 210.788 413.44 211.454 413.98L212.12 412.864ZM209.906 422.152C210.878 420.478 212.03 418.246 212.912 416.374L212.048 415.492C211.076 417.508 209.78 419.884 208.88 421.252L209.906 422.152ZM209.168 407.176C210.194 407.752 211.616 408.616 212.3 409.174L213.002 408.094C212.282 407.554 210.878 406.744 209.834 406.204L209.168 407.176ZM224.756 409.894V408.598H219.536V405.934H218.186V408.598H213.218V409.894H218.186V412.09H213.992V420.064H215.306V413.386H218.186V422.404H219.536V413.386H222.56V418.444C222.56 418.642 222.506 418.696 222.29 418.696C222.056 418.714 221.372 418.714 220.598 418.696C220.778 419.074 220.94 419.596 220.994 419.992C222.092 419.992 222.83 419.974 223.298 419.74C223.766 419.524 223.874 419.146 223.874 418.462V412.09H219.536V409.894H224.756Z" fill="black"/>
<path d="M172.384 471.34C172.834 470.062 173.176 467.974 173.266 466.534L172.24 466.39C172.114 467.848 171.79 469.792 171.322 470.98L172.384 471.34ZM173.95 479.368H175.246V462.934H173.95V479.368ZM175.426 466.228C175.948 467.308 176.488 468.73 176.704 469.594L177.73 469.108C177.514 468.262 176.938 466.876 176.398 465.796L175.426 466.228ZM179.602 477.136V472.798H185.884V477.136H179.602ZM185.884 467.452V471.538H179.602V467.452H185.884ZM182.644 466.156C182.95 465.292 183.274 464.23 183.562 463.258L182.032 463.06C181.888 463.96 181.582 465.202 181.294 466.156H178.306V479.368H179.602V478.45H185.884V479.224H187.216V466.156H182.644ZM198.286 477.514V472.942H204.064V471.646H198.286V467.722H204.73V466.408H198.286V462.952H196.918V466.408H193.264C193.66 465.49 193.984 464.518 194.272 463.528L192.922 463.24C192.22 465.796 191.068 468.28 189.592 469.864C189.952 470.044 190.546 470.44 190.816 470.656C191.482 469.846 192.112 468.856 192.688 467.722H196.918V471.646H191.572V472.942H196.918V477.514H189.628V478.81H205.576V477.514H198.286Z" fill="black"/>
<path d="M186.938 582.554C186.884 584.048 186.812 584.624 186.686 584.822C186.596 584.912 186.488 584.93 186.308 584.93C186.146 584.93 185.786 584.93 185.336 584.876C185.498 585.182 185.606 585.668 185.624 585.992C186.11 586.01 186.614 585.992 186.884 585.974C187.244 585.938 187.496 585.83 187.694 585.578C187.982 585.218 188.072 584.3 188.144 581.996C188.162 581.834 188.162 581.51 188.162 581.51H182.438V582.554H184.022C183.806 583.85 183.266 584.912 181.952 585.542C182.204 585.722 182.528 586.118 182.672 586.388C184.274 585.578 184.922 584.246 185.192 582.554H186.938ZM183.896 591.824H186.758V593.066H183.896V591.824ZM183.896 589.718H186.758V590.942H183.896V589.718ZM183.896 587.612H186.758V588.818H183.896V587.612ZM182.798 594.038H187.892V586.64H182.798V594.038ZM172.502 584.066C172.502 585.632 172.25 587.576 171.692 588.674L172.538 589.052C173.15 587.81 173.402 585.776 173.384 584.192L172.502 584.066ZM173.942 597.35H175.166V580.934H173.942V597.35ZM177.704 586.91H178.964V589.79H177.704V586.91ZM181.106 589.79H179.882V586.91H181.106V589.79ZM182.51 593.606C182.15 593.192 180.62 591.608 180.008 591.05V590.852H182.096V585.848H180.008V584.012H182.222V582.914H180.008V580.952H178.82V582.914H176.624V584.012H178.82V585.848H176.858C176.768 585.2 176.498 584.264 176.192 583.49L175.364 583.76C175.688 584.588 175.958 585.704 175.994 586.388L176.75 586.082V590.852H178.388C177.794 592.382 176.858 594.002 175.922 594.902C176.138 595.226 176.408 595.73 176.534 596.09C177.38 595.19 178.208 593.678 178.82 592.166V597.368H180.008V592.328C180.674 593.084 181.52 594.056 181.862 594.56L182.51 593.606ZM183.608 594.326C183.104 595.172 182.24 596.018 181.34 596.594C181.61 596.792 182.06 597.206 182.276 597.44C183.194 596.756 184.166 595.694 184.778 594.668L183.608 594.326ZM185.768 594.74C186.452 595.55 187.244 596.666 187.604 597.368L188.666 596.81C188.306 596.126 187.496 595.046 186.776 594.272L185.768 594.74ZM193.238 584.246H195.56V586.37H193.238V584.246ZM198.656 586.37H196.802V584.246H198.62V583.112H196.802V581.114H195.56V583.112H193.238V581.114H192.014V583.112H190.214V584.246H192.014V586.37H189.926V587.522H198.656V586.37ZM192.446 593.318V592.058H196.37V593.318H192.446ZM196.37 589.772V591.032H192.446V589.772H196.37ZM197.612 588.71H191.204V597.386H192.446V594.362H196.37V595.964C196.37 596.162 196.298 596.234 196.082 596.252C195.884 596.252 195.2 596.27 194.408 596.234C194.57 596.558 194.75 597.026 194.786 597.35C195.884 597.35 196.604 597.35 197.036 597.152C197.486 596.954 197.612 596.63 197.612 595.982V588.71ZM200.78 585.524H203.858C203.552 587.756 203.084 589.682 202.364 591.32C201.608 589.646 201.104 587.702 200.744 585.65L200.78 585.524ZM206.36 585.524V584.264H201.122C201.374 583.256 201.572 582.194 201.752 581.132L200.456 580.934C200.006 583.958 199.232 586.928 197.954 588.836C198.224 589.088 198.692 589.646 198.872 589.934C199.304 589.268 199.7 588.512 200.024 587.702C200.438 589.52 200.942 591.212 201.608 592.688C200.69 594.2 199.412 595.388 197.684 596.27C197.954 596.522 198.35 597.116 198.476 597.404C200.078 596.486 201.338 595.37 202.31 593.984C203.156 595.424 204.218 596.576 205.55 597.386C205.766 597.026 206.18 596.504 206.504 596.252C205.082 595.478 203.948 594.272 203.066 592.742C204.11 590.798 204.758 588.404 205.154 585.524H206.36Z" fill="black"/>
<path d="M157.832 644.722H166.67V646.504H157.832V644.722ZM157.832 641.878H166.67V643.66H157.832V641.878ZM158.966 649.15C159.344 648.664 159.74 648.16 160.046 647.638H168.02V640.762H156.518V647.638H158.498C157.364 649.294 155.636 650.77 153.89 651.76C154.214 651.976 154.718 652.444 154.934 652.696C155.924 652.084 156.932 651.274 157.85 650.356H160.352C159.164 652.282 157.328 653.974 155.402 655.054C155.708 655.288 156.212 655.774 156.428 656.008C158.48 654.694 160.514 652.678 161.828 650.356H164.258C163.394 652.498 162.026 654.406 160.37 655.648C160.694 655.828 161.216 656.26 161.45 656.476C163.16 655.054 164.672 652.876 165.626 650.356H167.822C167.534 653.452 167.228 654.73 166.832 655.09C166.67 655.27 166.49 655.288 166.184 655.288C165.86 655.288 165.032 655.288 164.168 655.198C164.366 655.522 164.51 656.008 164.528 656.368C165.428 656.422 166.292 656.422 166.742 656.386C167.264 656.368 167.606 656.242 167.948 655.882C168.488 655.324 168.848 653.776 169.19 649.762C169.226 649.564 169.244 649.15 169.244 649.15H158.966ZM175.202 646.576C175.22 645.766 175.256 644.938 175.256 644.11H179.612V642.868H176.48V639.97H175.166V642.868H171.998V644.11H173.942C173.888 648.7 173.69 653.074 171.746 655.486C172.07 655.72 172.538 656.152 172.736 656.44C174.356 654.406 174.914 651.31 175.13 647.8H177.434C177.326 652.768 177.2 654.532 176.894 654.946C176.75 655.144 176.606 655.198 176.336 655.18C176.066 655.18 175.382 655.18 174.644 655.126C174.86 655.45 174.986 655.972 175.004 656.332C175.76 656.368 176.516 656.368 176.948 656.332C177.416 656.278 177.74 656.152 178.01 655.756C178.478 655.144 178.604 653.128 178.73 647.206C178.748 647.008 178.748 646.576 178.748 646.576H175.202ZM180.242 652.516C182.42 653.524 185.048 655.162 186.29 656.368L187.154 655.216C185.858 654.01 183.212 652.444 181.052 651.49L180.242 652.516ZM185.894 649.51C185.228 648.682 183.77 647.566 182.546 646.828L181.682 647.674C182.906 648.448 184.328 649.618 184.976 650.446L185.894 649.51ZM182.888 639.952C182.222 642.382 180.638 645.082 178.838 646.486C179.09 646.81 179.396 647.35 179.54 647.71C181.358 646.216 182.888 643.66 183.626 641.482C184.472 643.75 186.038 646.216 187.838 647.674C188.018 647.278 188.306 646.738 188.54 646.396C186.83 645.154 185.174 642.58 184.238 639.952H182.888ZM197.756 641.824H194.714V639.988H193.436V641.824H190.286V642.958H197.756V641.824ZM191.384 643.264C191.744 644.11 192.014 645.244 192.086 645.982L193.202 645.694C193.13 644.974 192.806 643.858 192.41 643.03L191.384 643.264ZM195.686 642.994C195.524 643.804 195.146 644.974 194.894 645.712L195.92 645.982C196.226 645.28 196.586 644.218 196.892 643.282L195.686 642.994ZM197.81 653.092C197.378 652.678 195.506 651.112 194.75 650.536V650.104H197.81V648.97H194.75V647.134H197.954V645.982H189.926V647.134H193.472V648.97H190.106V650.104H193.13C192.32 651.688 190.988 653.272 189.746 654.118C190.034 654.37 190.358 654.82 190.538 655.144C191.564 654.334 192.644 653.056 193.472 651.724V656.35H194.75V651.814C195.56 652.588 196.568 653.578 196.982 654.082L197.81 653.092ZM199.79 647.8H204.29V649.672H199.79V647.8ZM199.79 644.83H204.29V646.702H199.79V644.83ZM199.79 641.914H204.29V643.768H199.79V641.914ZM204.002 654.964C203.678 654.964 203.624 654.91 203.624 654.496V650.878H205.55V640.726H198.566V650.878H199.736C199.52 653.128 198.926 654.604 196.55 655.432C196.82 655.666 197.162 656.134 197.306 656.422C199.97 655.378 200.726 653.596 200.978 650.878H202.4V654.514C202.4 655.756 202.67 656.152 203.822 656.152H205.118C206.108 656.152 206.45 655.558 206.522 653.092C206.198 653.002 205.676 652.804 205.424 652.606C205.388 654.712 205.334 654.964 204.974 654.964H204.002ZM219.554 646.468V653.848H220.886V646.468H224.216V645.226H215.918V642.49C218.438 642.166 221.264 641.68 223.226 641.014L222.092 640.006C220.616 640.564 218.042 641.05 215.684 641.392L214.622 641.158V645.316C214.622 647.512 214.388 650.356 212.426 652.48C212.75 652.66 213.218 653.11 213.38 653.398C215.252 651.4 215.774 648.7 215.882 646.468H219.554ZM212.39 643.156C211.76 642.292 210.41 641.14 209.258 640.384L208.268 641.194C209.438 641.986 210.77 643.174 211.328 644.038L212.39 643.156ZM211.886 646.99H208.07V648.25H210.572V652.804C209.672 653.56 208.664 654.316 207.836 654.856L208.556 656.206C209.51 655.432 210.41 654.658 211.274 653.902C212.426 655.288 214.028 655.936 216.368 656.026C218.348 656.098 222.038 656.062 224 655.99C224.054 655.576 224.288 654.946 224.432 654.622C222.326 654.766 218.33 654.82 216.368 654.748C214.298 654.658 212.732 654.046 211.886 652.732V646.99Z" fill="black"/>
<path d="M169.712 700.86C170.18 701.562 170.63 702.498 170.756 703.11H167.57L168.164 702.858C167.984 702.3 167.534 701.544 167.03 700.95C167.984 700.896 168.956 700.842 169.928 700.788L169.712 700.86ZM164.87 704.19H169.982L169.46 704.748C170.414 705.162 171.566 705.846 172.124 706.332L172.826 705.522C172.322 705.09 171.368 704.586 170.522 704.19H177.344V706.35H178.64V703.11H175.4C175.922 702.462 176.48 701.688 176.966 700.95L175.706 700.464C175.31 701.238 174.59 702.372 174.05 703.11H170.81L171.926 702.714C171.782 702.156 171.404 701.364 170.954 700.698C173.492 700.518 175.904 700.23 177.74 699.87L176.858 698.934C173.96 699.51 168.578 699.888 164.186 700.014C164.312 700.266 164.438 700.734 164.474 701.04C165.068 701.022 165.68 701.004 166.31 700.968L165.788 701.184C166.238 701.76 166.724 702.534 166.94 703.11H163.628V706.224H164.87V704.19ZM174.482 705.666C175.526 706.494 176.714 707.718 177.254 708.528L178.208 707.79C177.668 706.98 176.444 705.828 175.4 705.036L174.482 705.666ZM164.996 708.744C166.202 708.042 166.868 706.854 167.282 705.684L166.274 705.252C165.878 706.332 165.158 707.394 164.078 707.97L164.996 708.744ZM174.014 710.544C173.276 711.3 172.304 711.93 171.17 712.434C169.982 711.912 168.992 711.282 168.236 710.544H174.014ZM175.148 709.5L174.932 709.554H169.334C169.712 709.212 170.036 708.852 170.342 708.474L170.018 708.366H172.934C174.104 708.366 174.446 708.024 174.572 706.566C174.23 706.494 173.762 706.368 173.51 706.188C173.438 707.25 173.33 707.376 172.772 707.376H170.144C169.388 707.376 169.262 707.304 169.262 706.944V705.234H168.02V706.962C168.02 707.79 168.236 708.168 168.992 708.294C167.678 709.806 165.518 711.084 163.412 711.894C163.664 712.11 164.15 712.542 164.348 712.776C165.32 712.344 166.346 711.786 167.3 711.156C167.984 711.858 168.812 712.47 169.748 712.992C167.786 713.658 165.5 714.072 163.16 714.288C163.412 714.558 163.736 715.098 163.862 715.404C166.436 715.08 168.992 714.558 171.152 713.676C173.258 714.558 175.778 715.116 178.424 715.386C178.604 715.044 178.91 714.486 179.198 714.216C176.804 714.036 174.536 713.622 172.61 712.992C174.014 712.236 175.166 711.264 175.994 710.058L175.148 709.5ZM185.696 706.62C185.138 706.8 184.598 706.98 184.058 707.16V703.794H185.696V702.552H184.058V698.952H182.888V702.552H180.944V703.794H182.888V707.556C182.06 707.826 181.304 708.06 180.674 708.24L181.034 709.536L182.888 708.888V713.892C182.888 714.126 182.798 714.198 182.564 714.198C182.384 714.216 181.7 714.216 180.944 714.198C181.106 714.558 181.268 715.062 181.322 715.386C182.402 715.386 183.068 715.35 183.464 715.152C183.896 714.936 184.058 714.594 184.058 713.892V708.492L185.894 707.844L185.696 706.62ZM191.204 706.62C191.42 706.872 191.654 707.16 191.762 707.322C192.014 706.926 192.248 706.476 192.464 705.972C192.698 707.646 193.094 709.374 193.706 710.958C193.094 712.308 192.284 713.478 191.186 714.396C191.204 714.306 191.204 714.18 191.204 714.054V706.62ZM195.344 703.614C195.128 705.792 194.822 707.754 194.264 709.446C193.67 707.664 193.328 705.738 193.148 703.992C193.184 703.866 193.22 703.74 193.256 703.614H195.344ZM187.316 711.03V709.626H190.088V711.03H187.316ZM190.088 707.232V708.618H187.316V707.232H190.088ZM187.946 702.066H189.512V704.154H187.946V702.066ZM197.27 703.614V702.426H193.526C193.76 701.364 193.94 700.248 194.084 699.15L192.932 698.97C192.698 700.932 192.338 702.876 191.798 704.478V704.154H190.61V702.066H191.654V701.004H190.61V699.168H189.512V701.004H187.946V699.168H186.848V701.004H185.66V702.066H186.848V704.154H185.372V705.234H191.51C191.366 705.576 191.204 705.882 191.042 706.188H186.182V715.296H187.316V712.02H190.088V714.036C190.088 714.198 190.052 714.252 189.89 714.27C189.71 714.27 189.278 714.27 188.738 714.252C188.9 714.54 189.062 714.954 189.116 715.26C189.872 715.26 190.412 715.242 190.754 715.062C190.97 714.954 191.078 714.81 191.15 714.612C191.402 714.846 191.726 715.242 191.852 715.44C192.86 714.558 193.67 713.496 194.3 712.308C194.93 713.514 195.74 714.612 196.784 715.422C196.946 715.116 197.342 714.648 197.594 714.432C196.424 713.586 195.542 712.398 194.912 711.012C195.74 708.96 196.208 706.494 196.514 703.614H197.27ZM203.3 703.848C203.138 706.152 202.796 708.096 202.256 709.698C201.698 709.212 201.122 708.744 200.564 708.33C200.852 706.944 201.158 705.396 201.446 703.848H203.3ZM203.822 702.606L203.588 702.642H201.662C201.896 701.382 202.094 700.158 202.274 699.06L201.05 698.952C200.888 700.068 200.69 701.346 200.456 702.642H198.926V703.848H200.258C199.844 706.08 199.412 708.258 199.034 709.788L200.114 710.418L200.294 709.644C200.78 710.04 201.284 710.49 201.77 710.94C201.068 712.506 200.132 713.622 198.998 714.324C199.286 714.594 199.628 715.062 199.808 715.386C201.032 714.558 202.004 713.424 202.742 711.894C203.39 712.578 203.948 713.226 204.308 713.784L205.154 712.722C204.722 712.092 204.056 711.354 203.264 710.616C203.984 708.6 204.416 706.008 204.578 702.714L203.822 702.606ZM211.328 711.066V712.614H208.628V711.066H211.328ZM212.3 713.514V710.166H207.674V714.27H208.628V713.514H212.3ZM214.766 708.222H205.19V715.386H206.396V709.266H213.56V714.036C213.56 714.216 213.506 714.288 213.308 714.288C213.11 714.288 212.462 714.288 211.724 714.27C211.886 714.576 212.048 715.044 212.102 715.35C213.146 715.35 213.812 715.332 214.244 715.152C214.658 714.972 214.766 714.63 214.766 714.054V708.222ZM211.76 706.44H208.142V704.892H211.76V706.44ZM211.058 702.84C211.292 703.236 211.562 703.614 211.886 703.992H208.286C208.592 703.632 208.844 703.254 209.096 702.84H211.058ZM215.198 702.84V701.832H209.6C209.78 701.418 209.942 700.968 210.068 700.5C211.67 700.374 213.182 700.176 214.352 699.924L213.416 699.042C211.58 699.456 208.07 699.69 205.208 699.762C205.334 700.014 205.478 700.428 205.514 700.698C206.558 700.698 207.674 700.662 208.79 700.59C208.664 701.022 208.502 701.436 208.304 701.832H204.866V702.84H207.71C206.918 703.974 205.82 704.838 204.506 705.432C204.758 705.63 205.154 706.134 205.298 706.368C205.91 706.062 206.468 705.684 206.99 705.27V707.34H212.984V705.108C213.542 705.594 214.136 705.99 214.73 706.296C214.928 705.99 215.288 705.558 215.558 705.36C214.316 704.856 213.074 703.902 212.264 702.84H215.198Z" fill="black"/>
<path d="M169.964 767.978L166.958 768.752V761.48H169.748V760.202H163.016V761.48H165.644V769.076C164.546 769.364 163.556 769.616 162.764 769.796L163.106 771.164C165.014 770.642 167.624 769.886 170.09 769.184L169.964 767.978ZM176.408 762.56C175.958 765.026 175.22 767.042 174.122 768.644C173.06 766.934 172.304 764.846 171.8 762.56H176.408ZM179.324 762.56V761.264H172.268C172.646 760.274 172.952 759.23 173.24 758.186L171.908 757.934C171.188 760.958 169.964 763.91 168.326 765.782C168.65 765.962 169.226 766.376 169.478 766.556C170.018 765.908 170.504 765.116 170.936 764.252C171.512 766.358 172.25 768.212 173.24 769.778C171.872 771.29 170.054 772.406 167.66 773.18C167.894 773.486 168.272 774.098 168.398 774.422C170.774 773.558 172.61 772.406 174.032 770.894C175.22 772.424 176.714 773.594 178.586 774.386C178.802 774.008 179.198 773.486 179.522 773.216C177.632 772.514 176.12 771.344 174.932 769.814C176.3 767.942 177.2 765.584 177.812 762.56H179.324ZM182.852 762.722V762.074H184.58V762.722H182.852ZM182.852 760.85H184.58V761.444H182.852V760.85ZM187.478 760.85V761.444H185.66V760.85H187.478ZM187.478 762.722H185.66V762.074H187.478V762.722ZM184.58 765.854H182.996V764.846H182.006V766.646H188.36V764.846H187.352V765.854H185.66V764.666H189.116V763.892H185.66V763.334H188.45V760.22H185.66V759.626H189.026V758.834H185.66V757.952H184.58V758.834H181.322V759.626H184.58V760.22H181.898V763.334H184.58V763.892H181.088V764.666H184.58V765.854ZM189.782 769.832H196.046V768.932H189.782V767.924C191.564 767.816 193.238 767.618 194.516 767.366L193.598 766.628C191.276 767.096 186.632 767.294 182.906 767.312C182.996 767.528 183.122 767.906 183.14 768.122C184.832 768.122 186.686 768.104 188.486 768.014V768.932H182.384V769.832H188.486V770.804H181.286V771.758H188.486V773.036C188.486 773.288 188.378 773.342 188.09 773.36C187.802 773.378 186.776 773.378 185.714 773.342C185.876 773.648 186.056 774.08 186.146 774.368C187.604 774.386 188.504 774.386 189.062 774.206C189.602 774.044 189.782 773.756 189.782 773.072V771.758H197.054V770.804H189.782V769.832ZM194.678 763.262C194.228 763.892 193.598 764.396 192.842 764.792C192.158 764.36 191.618 763.856 191.24 763.262H194.678ZM195.56 762.308L195.344 762.344H189.818C191.186 761.606 191.51 760.526 191.51 759.572V759.482H193.778V760.274C193.778 761.066 193.85 761.336 194.066 761.552C194.282 761.75 194.678 761.822 194.984 761.822H195.812C196.046 761.822 196.37 761.804 196.55 761.714C196.748 761.642 196.91 761.498 197.018 761.3C197.108 761.12 197.18 760.616 197.198 760.148C196.91 760.076 196.568 759.914 196.352 759.716C196.334 760.13 196.316 760.436 196.28 760.58C196.244 760.724 196.154 760.796 196.1 760.814C196.028 760.85 195.884 760.85 195.74 760.85H195.272C195.146 760.85 195.056 760.85 195.002 760.796C194.93 760.742 194.93 760.58 194.93 760.328V758.492H190.376V759.554C190.376 760.22 190.16 760.94 188.936 761.534C189.17 761.678 189.584 762.092 189.764 762.344H189.422V763.262H190.952L190.196 763.496C190.592 764.162 191.132 764.756 191.78 765.26C190.934 765.566 189.98 765.764 188.99 765.89C189.188 766.124 189.422 766.52 189.512 766.808C190.682 766.61 191.78 766.34 192.752 765.908C193.868 766.556 195.218 767.006 196.694 767.258C196.838 766.97 197.162 766.52 197.414 766.286C196.1 766.124 194.876 765.8 193.85 765.332C194.912 764.666 195.722 763.766 196.208 762.524L195.56 762.308ZM199.736 766.304C200.204 764.99 200.546 762.956 200.636 761.48L199.628 761.336C199.502 762.794 199.178 764.756 198.692 765.944L199.736 766.304ZM201.284 774.368H202.616V757.934H201.284V774.368ZM202.742 761.246C203.246 762.236 203.786 763.532 203.984 764.306L204.992 763.82C204.776 763.064 204.218 761.786 203.678 760.814L202.742 761.246ZM210.644 772.478V767.978H214.316V766.736H210.644V763.01H214.712V761.732H210.644V758.006H209.312V761.732H207.062C207.314 760.85 207.53 759.914 207.71 758.978L206.414 758.762C206 761.21 205.28 763.622 204.236 765.188C204.56 765.332 205.154 765.62 205.424 765.8C205.91 765.026 206.324 764.09 206.684 763.01H209.312V766.736H205.496V767.978H209.312V772.478H204.164V773.756H215.144V772.478H210.644Z" fill="black"/>
<path d="M331.064 473.816H316.337C315.598 473.816 315 473.22 315 472.485C315 471.749 315.598 471.153 316.337 471.153H331.064C331.802 471.153 332.4 471.749 332.4 472.485C332.4 473.22 331.802 473.816 331.064 473.816Z" fill="white"/>
<path d="M323.7 481.531C322.962 481.531 322.364 480.935 322.364 480.199V464.77C322.364 464.035 322.962 463.439 323.7 463.439C324.438 463.439 325.036 464.035 325.036 464.77V480.199C325.036 480.935 324.438 481.531 323.7 481.531Z" fill="white"/>
<path d="M331.064 414.515H316.337C315.598 414.515 315 413.919 315 413.184C315 412.448 315.598 411.852 316.337 411.852H331.064C331.802 411.852 332.4 412.448 332.4 413.184C332.4 413.919 331.802 414.515 331.064 414.515Z" fill="white"/>
<path d="M323.7 422.23C322.962 422.23 322.364 421.634 322.364 420.898V405.469C322.364 404.734 322.962 404.138 323.7 404.138C324.438 404.138 325.036 404.734 325.036 405.469V420.898C325.036 421.634 324.438 422.23 323.7 422.23Z" fill="white"/>
<path d="M331.064 533.117H316.337C315.598 533.117 315 532.521 315 531.786C315 531.05 315.598 530.454 316.337 530.454H331.064C331.802 530.454 332.4 531.05 332.4 531.786C332.4 532.521 331.802 533.117 331.064 533.117Z" fill="white"/>
<path d="M323.7 540.832C322.962 540.832 322.364 540.236 322.364 539.5V524.071C322.364 523.336 322.962 522.74 323.7 522.74C324.438 522.74 325.036 523.336 325.036 524.071V539.5C325.036 540.236 324.438 540.832 323.7 540.832Z" fill="white"/>
<path d="M331.064 592.418H316.337C315.598 592.418 315 591.822 315 591.087C315 590.351 315.598 589.755 316.337 589.755H331.064C331.802 589.755 332.4 590.351 332.4 591.087C332.4 591.822 331.802 592.418 331.064 592.418Z" fill="white"/>
<path d="M323.7 600.133C322.962 600.133 322.364 599.537 322.364 598.801V583.372C322.364 582.637 322.962 582.041 323.7 582.041C324.438 582.041 325.036 582.637 325.036 583.372V598.801C325.036 599.537 324.438 600.133 323.7 600.133Z" fill="white"/>
<path d="M331.064 652.725H316.337C315.598 652.725 315 652.129 315 651.393C315 650.657 315.598 650.061 316.337 650.061H331.064C331.802 650.061 332.4 650.657 332.4 651.393C332.4 652.129 331.802 652.725 331.064 652.725Z" fill="white"/>
<path d="M323.7 660.439C322.962 660.439 322.364 659.843 322.364 659.107V643.679C322.364 642.944 322.962 642.347 323.7 642.347C324.438 642.347 325.036 642.943 325.036 643.679V659.107C325.036 659.843 324.438 660.439 323.7 660.439Z" fill="white"/>
<path d="M331.064 712.026H316.337C315.598 712.026 315 711.43 315 710.694C315 709.958 315.598 709.362 316.337 709.362H331.064C331.802 709.362 332.4 709.958 332.4 710.694C332.4 711.43 331.802 712.026 331.064 712.026Z" fill="white"/>
<path d="M323.7 719.74C322.962 719.74 322.364 719.144 322.364 718.408V702.98C322.364 702.245 322.962 701.648 323.7 701.648C324.438 701.648 325.036 702.244 325.036 702.98V718.408C325.036 719.144 324.438 719.74 323.7 719.74Z" fill="white"/>
<path d="M331.064 771.327H316.337C315.598 771.327 315 770.731 315 769.995C315 769.259 315.598 768.663 316.337 768.663H331.064C331.802 768.663 332.4 769.259 332.4 769.995C332.4 770.731 331.802 771.327 331.064 771.327Z" fill="white"/>
<path d="M323.7 779.041C322.962 779.041 322.364 778.445 322.364 777.709V762.281C322.364 761.546 322.962 760.949 323.7 760.949C324.438 760.949 325.036 761.545 325.036 762.281V777.709C325.036 778.445 324.438 779.041 323.7 779.041Z" fill="white"/>
</g>
<path opacity="0.35" d="M336.812 18.6693C336.812 17.4727 337.782 16.5026 338.979 16.5026H355.469C356.666 16.5026 357.636 17.4727 357.636 18.6693V24.6693C357.636 25.8659 356.666 26.836 355.469 26.836H338.979C337.782 26.836 336.812 25.8659 336.812 24.6693V18.6693Z" stroke="black"/>
<path opacity="0.4" d="M359.128 19.6693V23.6693C359.926 23.3305 360.445 22.5424 360.445 21.6693C360.445 20.7962 359.926 20.0081 359.128 19.6693Z" fill="black"/>
<path d="M338.296 19.336C338.296 18.5996 338.893 18.0026 339.629 18.0026H354.819C355.555 18.0026 356.152 18.5996 356.152 19.336V24.0026C356.152 24.739 355.555 25.336 354.819 25.336H339.629C338.893 25.336 338.296 24.739 338.296 24.0026V19.336Z" fill="black"/>
<path fill-rule="evenodd" clip-rule="evenodd" d="M323.744 18.2773C325.942 18.2774 328.056 19.1289 329.649 20.6557C329.769 20.7735 329.961 20.772 330.079 20.6523L331.226 19.4857C331.286 19.4249 331.319 19.3427 331.318 19.2571C331.318 19.1715 331.284 19.0897 331.223 19.0297C327.042 14.9901 320.445 14.9901 316.264 19.0297C316.203 19.0896 316.169 19.1715 316.168 19.257C316.168 19.3426 316.201 19.4249 316.261 19.4857L317.408 20.6523C317.526 20.7722 317.718 20.7737 317.838 20.6557C319.431 19.1288 321.545 18.2773 323.744 18.2773ZM323.744 22.073C324.951 22.0729 326.116 22.5255 327.011 23.3427C327.132 23.4587 327.323 23.4562 327.441 23.337L328.587 22.1704C328.647 22.1092 328.68 22.0261 328.68 21.9399C328.679 21.8536 328.644 21.7713 328.582 21.7114C325.856 19.155 321.634 19.155 318.908 21.7114C318.846 21.7713 318.811 21.8537 318.81 21.9399C318.809 22.0262 318.843 22.1092 318.903 22.1704L320.049 23.337C320.167 23.4562 320.357 23.4587 320.478 23.3427C321.373 22.526 322.537 22.0735 323.744 22.073ZM326.038 24.6268C326.04 24.7133 326.006 24.7967 325.945 24.8573L323.964 26.873C323.906 26.9323 323.826 26.9656 323.744 26.9656C323.661 26.9656 323.582 26.9323 323.524 26.873L321.542 24.8573C321.481 24.7967 321.447 24.7133 321.449 24.6268C321.451 24.5403 321.488 24.4583 321.552 24.4003C322.817 23.3215 324.67 23.3215 325.936 24.4003C325.999 24.4584 326.037 24.5403 326.038 24.6268Z" fill="black"/>
<path fill-rule="evenodd" clip-rule="evenodd" d="M312.189 16.336H311.197C310.65 16.336 310.205 16.7837 310.205 17.336V26.0027C310.205 26.555 310.65 27.0027 311.197 27.0027H312.189C312.737 27.0027 313.181 26.555 313.181 26.0027V17.336C313.181 16.7837 312.737 16.336 312.189 16.336ZM306.568 18.6693H307.56C308.108 18.6693 308.552 19.117 308.552 19.6693V26.0026C308.552 26.5549 308.108 27.0026 307.56 27.0026H306.568C306.02 27.0026 305.576 26.5549 305.576 26.0026V19.6693C305.576 19.117 306.02 18.6693 306.568 18.6693ZM302.931 21.0027H301.939C301.391 21.0027 300.947 21.4504 300.947 22.0027V26.0027C300.947 26.555 301.391 27.0027 301.939 27.0027H302.931C303.479 27.0027 303.923 26.555 303.923 26.0027V22.0027C303.923 21.4504 303.479 21.0027 302.931 21.0027ZM298.301 23.0027H297.309C296.762 23.0027 296.317 23.4504 296.317 24.0027V26.0027C296.317 26.5549 296.762 27.0027 297.309 27.0027H298.301C298.849 27.0027 299.293 26.5549 299.293 26.0027V24.0027C299.293 23.4504 298.849 23.0027 298.301 23.0027Z" fill="black"/>
<path d="M38.4455 22.8765C37.9133 23.355 37.3176 23.5942 36.6584 23.5942C35.6916 23.5942 34.925 23.2671 34.3586 22.6128C33.7922 21.9585 33.509 21.0845 33.509 19.9907C33.509 19.3071 33.6677 18.6724 33.9851 18.0864C34.3025 17.5005 34.7468 17.0366 35.3181 16.6948C35.8943 16.353 36.529 16.1821 37.2224 16.1821C37.9255 16.1821 38.5603 16.3604 39.1267 16.7168C39.698 17.0684 40.1423 17.5688 40.4597 18.2183C40.7771 18.8628 40.9406 19.6074 40.9504 20.4521V21.397C40.9504 22.5737 40.7185 23.5942 40.2546 24.4585C39.7956 25.3228 39.1389 25.9868 38.2844 26.4507C37.4299 26.9146 36.4338 27.1465 35.2961 27.1465H35.1423V25.1689L35.6111 25.1616C37.3103 25.0786 38.2551 24.3169 38.4455 22.8765ZM37.3249 21.8145C37.862 21.8145 38.2478 21.5825 38.4821 21.1187V20.0933C38.4821 19.4097 38.3674 18.9043 38.1379 18.5771C37.9084 18.25 37.5984 18.0864 37.2077 18.0864C36.8611 18.0864 36.5705 18.272 36.3361 18.6431C36.1018 19.0142 35.9846 19.4634 35.9846 19.9907C35.9846 20.5474 36.1042 20.9917 36.3435 21.3237C36.5827 21.6509 36.9099 21.8145 37.3249 21.8145ZM43.5435 24.605C43.9341 24.605 44.2588 24.7222 44.5176 24.9565C44.7764 25.186 44.9058 25.4814 44.9058 25.8428C44.9058 26.2041 44.7764 26.502 44.5176 26.7363C44.2588 26.9658 43.9341 27.0806 43.5435 27.0806C43.148 27.0806 42.8208 26.9634 42.562 26.729C42.3081 26.4946 42.1812 26.1992 42.1812 25.8428C42.1812 25.4863 42.3081 25.1909 42.562 24.9565C42.8208 24.7222 43.148 24.605 43.5435 24.605ZM43.5435 18.7603C43.9341 18.7603 44.2588 18.8774 44.5176 19.1118C44.7764 19.3413 44.9058 19.6367 44.9058 19.998C44.9058 20.3594 44.7764 20.6572 44.5176 20.8916C44.2588 21.1211 43.9341 21.2358 43.5435 21.2358C43.148 21.2358 42.8208 21.1187 42.562 20.8843C42.3081 20.6499 42.1812 20.3545 42.1812 19.998C42.1812 19.6416 42.3081 19.3462 42.562 19.1118C42.8208 18.8774 43.148 18.7603 43.5435 18.7603ZM51.6517 27H49.1761V19.1191L46.7444 19.8296V17.9546L51.4246 16.3359H51.6517V27ZM61.0856 22.8325H62.1695V24.7368H61.0856V27H58.6173V24.7368H54.4938L54.3473 23.228L58.6173 16.3579V16.3359H61.0856V22.8325ZM56.6984 22.8325H58.6173V19.5513L58.4635 19.8003L56.6984 22.8325Z" fill="black"/>
</g>
<defs>
<clipPath id="clip0_117_17">
<rect width="375" height="812" rx="40" fill="white"/>
</clipPath>
<clipPath id="clip1_117_17">
<rect width="44" height="44" fill="white" transform="translate(16 42)"/>
</clipPath>
<clipPath id="clip2_117_17">
<rect width="44" height="44" fill="white" transform="translate(316 42)"/>
</clipPath>
<clipPath id="clip3_117_17">
<rect x="18" y="377" width="341" height="392" rx="25" fill="white"/>
</clipPath>
</defs>
</svg>
