<svg width="375" height="812" viewBox="0 0 375 812" fill="none" xmlns="http://www.w3.org/2000/svg">
<rect width="375" height="812" rx="40" fill="#FCF5EF"/>
<rect x="121" y="799" width="134" height="5" rx="2.5" fill="black"/>
<g clip-path="url(#clip0_475_658)">
<path d="M38 86.0007C50.1506 86.0007 60.0007 76.1506 60.0007 64C60.0007 51.8493 50.1506 41.9993 38 41.9993C25.8493 41.9993 15.9993 51.8493 15.9993 64C15.9993 76.1506 25.8493 86.0007 38 86.0007Z" fill="#FEA735"/>
<path d="M46.657 62.4124L32.8639 62.2907L37.8623 56.5786C38.4398 55.9186 38.3728 54.9159 37.7127 54.3384C37.053 53.7613 36.0496 53.8279 35.4725 54.4877L28.3457 62.6325C28 62.9208 27.7739 63.348 27.7693 63.8331C27.7693 63.8405 27.7714 63.8479 27.7714 63.8553C27.764 64.2321 27.8882 64.6117 28.1485 64.9172L35.4594 73.496C35.7734 73.8643 36.2193 74.0538 36.6684 74.0538C37.0325 74.0538 37.3983 73.9292 37.6975 73.6745C38.365 73.1058 38.4447 72.1035 37.876 71.4364L32.7867 65.4654L46.6288 65.5875C46.6337 65.5875 46.6383 65.5875 46.6432 65.5875C47.5135 65.5875 48.2227 64.8858 48.2304 64.014C48.2382 63.1374 47.534 62.4201 46.657 62.4124Z" fill="black"/>
</g>
<path d="M117.887 120.938C117.887 120.938 124.325 119.556 128.146 126.184C128.146 126.184 133.187 136.163 126.647 139.999C126.647 139.999 121.826 142.13 119.857 136.795C119.842 136.795 120.312 127.61 117.887 120.938Z" fill="#6A4B2E" stroke="black" stroke-width="2" stroke-miterlimit="10"/>
<path d="M86.1127 120.938C86.1127 120.938 79.6756 119.556 75.8545 126.184C75.8545 126.184 70.8136 136.163 77.3536 139.999C77.3536 139.999 82.174 142.13 84.1433 136.795C84.158 136.795 83.6878 127.61 86.1127 120.938Z" fill="#6A4B2E" stroke="black" stroke-width="2" stroke-miterlimit="10"/>
<path d="M83.0273 173.037V130.505C83.0273 130.505 83.0273 114.001 101.795 113.751C101.795 113.751 119.622 114.001 120.239 130.196L120.489 173.037H83.0273Z" fill="#906526" stroke="black" stroke-width="2" stroke-miterlimit="10"/>
<path d="M92.3151 132.93C93.9059 132.93 95.1956 131.64 95.1956 130.049C95.1956 128.458 93.9059 127.169 92.3151 127.169C90.7242 127.169 89.4346 128.458 89.4346 130.049C89.4346 131.64 90.7242 132.93 92.3151 132.93Z" fill="black" stroke="black" stroke-miterlimit="10"/>
<path d="M111.2 132.93C112.791 132.93 114.081 131.64 114.081 130.049C114.081 128.458 112.791 127.169 111.2 127.169C109.609 127.169 108.32 128.458 108.32 130.049C108.32 131.64 109.609 132.93 111.2 132.93Z" fill="black" stroke="black" stroke-miterlimit="10"/>
<path d="M100.017 133.885H103.514C105.675 133.885 106.85 135.766 105.484 137.001L103.735 138.588C102.721 139.514 100.825 139.514 99.8108 138.588L98.0619 137.001C96.6805 135.752 97.8562 133.885 100.017 133.885Z" fill="black" stroke="black" stroke-miterlimit="10"/>
<path d="M95.5046 145.055L101.692 139.793L108.026 145.701" stroke="black" stroke-width="2" stroke-miterlimit="10"/>
<path d="M110.275 115.529C110.862 115.764 111.538 115.618 111.935 115.133C113.023 113.795 114.39 111.899 111.112 110.283C110.495 109.974 110.157 109.283 110.289 108.607C110.51 107.505 110.128 105.991 106.336 106.035C105.675 106.05 105.087 105.624 104.896 104.992C104.469 103.581 103.382 101.641 100.854 104.389C100.472 104.816 99.8694 104.992 99.3256 104.801C97.9442 104.331 95.4311 103.831 95.3576 106.285C95.3429 106.961 94.8138 107.52 94.1378 107.637C92.8445 107.872 91.1838 108.431 91.8157 109.827C92.0362 110.327 91.948 110.915 91.5953 111.326C90.6547 112.414 89.4496 114.28 92.5506 115.618C92.5506 115.632 100.722 111.664 110.275 115.529Z" fill="#6A4B2E" stroke="black" stroke-width="2" stroke-miterlimit="10"/>
<g clip-path="url(#clip1_475_658)">
<path d="M337 86.0007C349.151 86.0007 359.001 76.1506 359.001 64C359.001 51.8493 349.151 41.9993 337 41.9993C324.849 41.9993 314.999 51.8493 314.999 64C314.999 76.1506 324.849 86.0007 337 86.0007Z" fill="#FEA735"/>
</g>
<path d="M328 65.826L333.043 71.5" stroke="black" stroke-width="3" stroke-linecap="round"/>
<path d="M333.043 71.5L346.913 57" stroke="black" stroke-width="3" stroke-linecap="round"/>
<path d="M246.078 255.454V232.921C246.078 222.91 237.997 214.774 227.986 214.719L86.8976 213.9C86.3697 213.9 85.8601 214.128 85.5143 214.519L79.1893 221.772C78.8344 222.182 78.3156 222.409 77.7787 222.391L65.6201 222.118C65.2197 222.109 64.8375 221.973 64.5189 221.718L56.8107 215.52C56.5012 215.265 56.1099 215.129 55.7095 215.12L47.7827 214.938C46.7726 214.91 45.9353 215.72 45.9171 216.731L42.9503 435.393C42.9412 436.394 43.7238 437.213 44.7249 437.241L56.5467 437.541C57.0564 437.55 57.5296 437.778 57.8663 438.16L62.8535 443.811C63.1811 444.185 63.6544 444.412 64.1549 444.43L76.6684 444.858C77.3054 444.876 77.9061 444.567 78.2519 444.039L81.8831 438.497C82.2198 437.987 82.7841 437.677 83.3938 437.677L244.267 436.831C245.268 436.822 246.078 436.012 246.078 435.011L245.787 410.976C245.778 409.975 244.959 409.174 243.967 409.174L99.766 409.247C99.229 409.247 98.7103 409.484 98.3645 409.902L94.0325 415.099C93.6867 415.517 93.1771 415.754 92.631 415.754H79.2166C78.7343 415.754 78.2701 415.563 77.9334 415.217L71.5629 408.846C71.2171 408.501 70.762 408.31 70.2797 408.31H59.6865C58.6854 408.31 57.8663 407.5 57.8663 406.489L57.566 259.404C57.566 258.394 58.376 257.584 59.3861 257.584H69.9248C70.3434 257.584 70.7438 257.729 71.0714 257.993L78.8981 264.355C79.2257 264.618 79.6261 264.764 80.0447 264.764H92.2488C92.6583 264.764 93.0497 264.628 93.3773 264.373L100.913 258.439C101.231 258.184 101.623 258.048 102.032 258.048L244.276 257.283C245.268 257.274 246.078 256.455 246.078 255.454Z" fill="#94CC93"/>
<path d="M115.71 221.292H187.569C188.079 221.292 188.57 221.465 188.916 221.784L203.941 235.335C204.587 235.917 204.578 236.818 203.905 237.392L188.434 250.615C188.088 250.906 187.615 251.07 187.123 251.07H115.701C115.209 251.07 114.745 250.906 114.399 250.615L98.5187 237.228C97.8271 236.645 97.8271 235.708 98.5187 235.126L114.399 221.738C114.745 221.456 115.219 221.292 115.71 221.292Z" fill="#D7FAD6"/>
<path d="M99.1743 409.875L238.57 408.883C239.571 408.874 240.381 408.064 240.381 407.063V391.237C240.381 371.88 224.828 356.936 205.47 356.672L101.95 356.108C101.513 356.108 101.095 356.263 100.758 356.545L92.4852 363.607C92.1576 363.889 91.739 364.044 91.3022 364.044H79.626C79.1982 364.044 78.7887 363.898 78.4611 363.616L70.9166 357.309C70.5889 357.036 70.1794 356.882 69.7517 356.882H59.5589C58.5578 356.882 57.7479 357.692 57.7388 358.684L57.3565 406.735C57.3474 407.718 58.1301 408.537 59.113 408.565L70.1248 408.947C70.5343 408.965 70.9257 409.111 71.2351 409.374L78.0879 415.163C78.4156 415.436 78.8342 415.59 79.2619 415.59L92.4215 415.599C92.9403 415.599 93.4317 415.381 93.7776 414.99L97.8274 410.457C98.1732 410.103 98.6646 409.884 99.1743 409.875Z" fill="#CBA0C9"/>
<path d="M58.0391 312.707V355.089C58.0391 356.09 58.8581 356.909 59.8592 356.909H69.2693C69.6971 356.909 70.1066 357.054 70.4342 357.337L77.9787 363.643C78.3063 363.916 78.7159 364.071 79.1436 364.071H90.8198C91.2566 364.071 91.6753 363.916 92.0029 363.634L100.275 356.572C100.603 356.29 101.031 356.135 101.468 356.135L245.941 356.918C256.143 356.854 263.569 349.501 268.211 340.409L281.543 313.762C282.162 312.552 282.499 310.896 279.869 310.896H100.594C100.13 310.896 99.6748 311.078 99.3381 311.396L92.4124 317.994C92.0757 318.313 91.6207 318.495 91.1565 318.495H78.907C78.4337 318.495 77.9878 318.313 77.642 317.985L70.7983 311.396C70.4615 311.069 70.0065 310.887 69.5333 310.887H59.8501C58.8581 310.887 58.0391 311.697 58.0391 312.707Z" fill="#BEE1DD"/>
<path d="M58.6753 257.292L69.9221 257.373C70.3178 257.373 70.6967 257.519 70.9998 257.792L78.8516 264.16C79.1547 264.433 79.5335 264.579 79.9293 264.579L88.6899 264.515C89.0519 264.515 89.3971 264.388 89.6917 264.16L97.2438 258.149C97.5301 257.921 97.8837 257.793 98.2373 257.793L329.11 257.383C338.506 257.356 346.1 265.645 345.999 275.81L345.814 292.679C345.704 302.653 338.203 310.687 328.975 310.687L100.628 311.328C100.215 311.328 99.8113 311.492 99.4998 311.792L92.4998 318.292C92.1882 318.593 91.7925 318.757 91.3716 318.757L78.4998 318.792C78.062 318.792 77.6494 318.61 77.3295 318.282L68.812 311.188C68.5005 310.86 68.0795 310.678 67.6417 310.678H58.6837C57.7576 310.678 56.9998 309.858 56.9998 308.856V259.096C56.9914 258.112 57.7491 257.292 58.6753 257.292Z" fill="#ED6547"/>
<path d="M170.737 299.292H101.262C100.568 299.292 99.9998 298.461 99.9998 297.444V273.141C99.9998 272.124 100.568 271.292 101.262 271.292H170.737C171.432 271.292 172 272.124 172 273.141V297.444C172 298.47 171.432 299.292 170.737 299.292Z" fill="#B05B47"/>
<path d="M246.401 347.868H208.787C201.17 347.868 195 341.697 195 334.08C195 326.463 201.17 320.292 208.787 320.292H246.401C254.018 320.292 260.188 326.463 260.188 334.08C260.188 341.688 254.018 347.868 246.401 347.868Z" fill="#FCFDFD"/>
<path d="M139.638 347.292H109.362C100.879 347.292 93.9998 343.318 93.9998 338.417V329.168C93.9998 324.267 100.879 320.292 109.362 320.292H139.638C148.121 320.292 155 324.267 155 329.168V338.417C154.984 343.318 148.121 347.292 139.638 347.292Z" fill="#7AC1B6"/>
<path d="M309.79 302.292H226.201C221.674 302.292 218 298.256 218 293.283V277.301C218 272.328 221.674 268.292 226.201 268.292H309.798C314.326 268.292 318 272.328 318 277.301V293.283C317.992 298.256 314.326 302.292 309.79 302.292Z" fill="#F9B8A9"/>
<path d="M222.389 396.523H187.779C184.584 396.523 182 393.939 182 390.744V382.071C182 378.877 184.584 376.292 187.779 376.292H222.389C225.583 376.292 228.168 378.877 228.168 382.071V390.744C228.168 393.939 225.583 396.523 222.389 396.523Z" fill="#F1D5F0"/>
<path d="M173.755 213.2V174.567C173.755 173.557 172.936 172.747 171.926 172.747L72.7733 173.047C72.3638 173.047 71.9634 173.193 71.6357 173.448L64.7283 178.999C64.4007 179.263 64.0002 179.4 63.5907 179.4H50.8679C50.3947 179.4 49.9487 179.218 49.612 178.89L43.2142 172.756C42.8866 172.437 42.4498 172.265 41.9947 172.246L31.8656 172.001C30.8464 171.973 30 172.802 30 173.821V466.472C30 467.473 30.8191 468.292 31.8201 468.292H171.935C172.936 468.292 173.755 467.473 173.755 466.472V455.961C173.755 445.85 165.519 437.678 155.408 437.759L82.8933 438.324L78.7252 444.685C78.3794 445.213 77.7787 445.531 77.1417 445.504L64.6282 445.076C64.1277 445.058 63.6544 444.84 63.3268 444.458L58.3396 438.806C58.0029 438.424 57.5296 438.205 57.02 438.187L45.1982 437.887C44.2062 437.86 43.4144 437.041 43.4235 436.039L46.3904 217.377C46.4086 216.367 47.2367 215.557 48.256 215.584L56.1827 215.766C56.5832 215.775 56.9654 215.912 57.2839 216.166L64.9922 222.364C65.3016 222.619 65.693 222.755 66.0934 222.764L78.2519 223.037C78.7889 223.047 79.3076 222.819 79.6625 222.419L85.9875 215.165C86.3334 214.765 86.843 214.537 87.3708 214.546L171.916 215.001C172.936 215.029 173.755 214.21 173.755 213.2Z" fill="#F8C8BC"/>
<path d="M40.5 172.292L172 172.792L163.5 181.292H41L40.5 172.292Z" fill="#F8C8BC"/>
<path d="M67.2 200.092V199.462H69.524V200.092H67.2ZM67.2 197.838H69.524V198.468H67.2V197.838ZM73.654 197.838V198.468H71.204V197.838H73.654ZM73.654 200.092H71.204V199.462H73.654V200.092ZM71.204 203.802V203.06H75.88V201.814H71.204V201.184H75.362V196.746H71.204V196.214H76.692V194.912H71.204V194.184C72.73 194.072 74.186 193.918 75.404 193.722L74.634 192.434C72.268 192.826 68.474 193.064 65.212 193.134C65.352 193.47 65.534 194.03 65.548 194.408C66.808 194.394 68.18 194.352 69.524 194.296V194.912H64.176V196.214H69.524V196.746H65.576V201.184H69.524V201.814H65.114V203.06H69.524V203.802H64.092V205.118H76.79V203.802H71.204ZM87.612 201.688C87.304 202.038 86.94 202.346 86.52 202.612C86.1 202.346 85.736 202.038 85.428 201.688H87.612ZM85.092 198.202H88.172V198.79H85.092V198.202ZM85.092 196.676H88.172V197.25H85.092V196.676ZM88.872 200.414L88.578 200.47H86.352C86.534 200.26 86.688 200.036 86.842 199.812H89.754V195.654H84.098C84.252 195.458 84.392 195.262 84.518 195.052H90.524V193.68H85.288C85.442 193.344 85.596 193.022 85.736 192.686L84.196 192.434C83.846 193.4 83.23 194.534 82.334 195.472L81.494 194.94L81.242 194.996H80.794V192.504H79.31V194.996H77.826V196.438H80.528C79.8 198.132 78.61 199.798 77.406 200.764C77.658 201.044 78.036 201.828 78.162 202.234C78.554 201.884 78.946 201.478 79.324 201.016V205.51H80.808V200.162C81.172 200.722 81.522 201.31 81.718 201.716L82.642 200.624C82.53 200.47 82.278 200.134 81.984 199.756C82.306 199.336 82.67 198.804 83.034 198.272L82.096 197.614C81.928 197.992 81.634 198.51 81.368 198.944L81.018 198.51C81.48 197.67 81.886 196.774 82.194 195.878C82.544 196.102 82.964 196.466 83.174 196.732C83.314 196.592 83.454 196.452 83.58 196.298V199.812H84.994C84.378 200.596 83.412 201.394 82.082 201.996C82.432 202.22 82.922 202.738 83.16 203.088C83.552 202.878 83.916 202.654 84.252 202.416C84.504 202.752 84.798 203.046 85.106 203.326C84.154 203.704 83.076 203.956 81.928 204.11C82.194 204.418 82.614 205.118 82.754 205.524C84.098 205.272 85.372 204.894 86.492 204.32C87.458 204.88 88.592 205.272 89.88 205.51C90.104 205.062 90.538 204.404 90.902 204.054C89.824 203.914 88.844 203.69 87.99 203.354C88.774 202.724 89.418 201.94 89.852 200.974L88.872 200.414ZM100.688 196.648H101.682C101.682 198.062 101.682 199.448 101.724 200.694C101.388 200.372 100.968 200.022 100.492 199.686C100.646 198.664 100.688 197.656 100.688 196.732V196.648ZM97.3 199.168H96.418C96.642 198.692 96.88 198.09 97.118 197.488L96.544 197.348H97.734V196.648H99.134V196.718C99.134 197.334 99.12 197.992 99.05 198.692C98.714 198.468 98.392 198.272 98.084 198.09L97.3 199.168ZM95.69 197.348C95.564 197.894 95.326 198.58 95.13 199.07L95.494 199.168H93.66L94.038 199.056C93.968 198.608 93.758 197.922 93.506 197.348H95.69ZM100.688 195.122V192.448H99.134V195.122H97.468V195.948H95.354V195.052H97.174V193.68H95.354V192.434H93.814V193.68H91.868V195.052H93.814V195.948H91.322V197.348H92.778L92.19 197.516C92.4 198.02 92.596 198.678 92.694 199.168H91.616V200.568H93.814V201.534H91.728V202.934H93.814V205.468H95.354V202.934H97.314V201.534H95.354V200.568H97.482V199.462C97.902 199.728 98.336 200.036 98.77 200.344C98.406 201.87 97.664 203.368 96.208 204.502C96.6 204.726 97.202 205.216 97.482 205.51C98.868 204.39 99.666 202.934 100.128 201.422C100.506 201.744 100.842 202.08 101.08 202.36L101.752 201.366C101.878 203.522 102.2 205.118 102.984 205.426C103.88 205.804 104.566 205.258 104.678 202.85C104.44 202.654 104.02 202.08 103.768 201.688C103.754 202.766 103.684 203.858 103.614 203.83C103.138 203.662 103.166 198.93 103.292 195.122H100.688ZM117.642 193.232H110.838V194.814H117.642V193.232ZM108.15 192.434C107.478 193.414 106.148 194.674 104.986 195.416C105.28 195.738 105.7 196.41 105.91 196.774C107.24 195.85 108.752 194.408 109.76 193.092L108.15 192.434ZM108.682 195.458C107.786 197.04 106.26 198.664 104.832 199.644C105.168 199.994 105.728 200.75 105.966 201.086C106.344 200.778 106.722 200.428 107.114 200.05V205.524H108.78V198.216C109.34 197.516 109.858 196.788 110.278 196.074L108.682 195.458ZM117.992 197.082H110.25V198.664H114.38V203.536C114.38 203.746 114.282 203.802 114.03 203.802C113.778 203.816 112.854 203.816 112.056 203.774C112.28 204.264 112.49 204.978 112.56 205.468C113.806 205.468 114.702 205.44 115.29 205.188C115.906 204.936 116.074 204.474 116.074 203.578V198.664H117.992V197.082Z" fill="black"/>
<path d="M68.11 233.774C67.928 235.258 67.606 236.546 67.144 237.624C66.696 237.316 66.248 237.036 65.814 236.77C66.052 235.818 66.29 234.81 66.528 233.774H68.11ZM68.796 232.164L68.502 232.206H66.878C67.074 231.296 67.256 230.414 67.424 229.588L65.814 229.434C65.674 230.288 65.492 231.24 65.296 232.206H63.728V233.774H64.96C64.596 235.412 64.204 236.994 63.868 238.156L65.268 238.828L65.408 238.31C65.73 238.534 66.066 238.772 66.388 239.01C65.716 239.976 64.848 240.69 63.798 241.138C64.134 241.474 64.568 242.09 64.778 242.51C65.968 241.908 66.92 241.096 67.676 240.032C68.278 240.55 68.796 241.04 69.146 241.488L70.112 240.06C69.734 239.612 69.16 239.108 68.502 238.59C69.216 236.994 69.65 234.964 69.818 232.332L68.796 232.164ZM72.072 239.514V232.43H74.536V239.514H72.072ZM70.49 230.862V242.132H72.072V241.096H74.536V241.922H76.188V230.862H70.49ZM80.752 234.544V233.648H83.006V234.544H80.752ZM80.752 231.464H83.006V232.36H80.752V231.464ZM86.996 232.36H84.77V231.464H86.996V232.36ZM86.996 234.544H84.77V233.648H86.996V234.544ZM90.118 238.282V236.756H84.77V235.93H88.83V230.078H79.002V235.93H83.006V236.756H77.644V238.282H81.788C80.612 239.332 78.876 240.256 77.21 240.746C77.588 241.096 78.092 241.74 78.344 242.132C80.01 241.516 81.718 240.424 83.006 239.136V242.51H84.77V239.066C86.072 240.34 87.78 241.432 89.404 242.048C89.642 241.628 90.146 240.97 90.524 240.634C88.928 240.172 87.22 239.276 85.988 238.282H90.118Z" fill="black"/>
<path d="M214.004 236.434C214.06 235.902 214.116 235.37 214.158 234.796H215.544C215.544 235.412 215.544 235.944 215.53 236.434H214.004ZM215.572 231.646L215.558 233.326H214.228C214.256 232.78 214.27 232.22 214.27 231.646H215.572ZM210.798 230.134V231.646H212.618C212.618 232.22 212.604 232.78 212.59 233.326H210.966V234.796H212.52C212.478 235.37 212.436 235.902 212.366 236.434H210.798V237.904H212.1C211.792 239.262 211.288 240.41 210.504 241.278C210.882 241.544 211.638 242.202 211.862 242.51C212.842 241.292 213.416 239.752 213.78 237.904H215.502C215.46 239.374 215.39 240.046 215.25 240.284C215.124 240.508 214.998 240.578 214.816 240.578C214.55 240.578 214.088 240.578 213.57 240.536C213.85 241.04 214.046 241.796 214.074 242.314C214.718 242.328 215.32 242.342 215.754 242.23C216.216 242.118 216.482 241.95 216.804 241.418C217.224 240.718 217.21 238.212 217.238 230.974C217.238 230.764 217.252 230.134 217.252 230.134H210.798ZM222.516 230.036L222.278 230.092H218.12V242.496H219.702V231.66H221.592C221.214 232.724 220.71 234.11 220.248 235.118C221.508 236.21 221.886 237.19 221.886 237.974C221.886 238.436 221.788 238.744 221.494 238.898C221.312 238.982 221.074 239.024 220.85 239.024C220.584 239.038 220.248 239.038 219.828 238.996C220.094 239.444 220.262 240.116 220.29 240.564C220.752 240.578 221.256 240.578 221.62 240.536C222.012 240.48 222.362 240.368 222.642 240.186C223.202 239.808 223.468 239.136 223.468 238.142C223.468 237.218 223.188 236.14 221.886 234.908C222.502 233.676 223.16 232.108 223.706 230.792L222.516 230.036ZM228.9 231.912V232.682H227.36V233.83H228.9V236.84H230.132V233.83H231.686V232.682H230.132V231.912H233.632V232.682H232.092V233.83H233.632V236.938H234.864V233.83H236.95V232.682H234.864V231.912H237.216V230.526H232.162V229.448H230.426V230.526H225.246V234.754C225.246 236.784 225.162 239.64 224.224 241.614C224.56 241.768 225.232 242.272 225.498 242.552C226.59 240.41 226.772 236.98 226.772 234.754V231.912H228.9ZM233.184 234.124H232.274V234.642C232.274 235.16 232.19 235.902 231.644 236.364C231.882 236.476 232.288 236.784 232.456 236.994C233.086 236.35 233.184 235.44 233.184 234.698V234.124ZM231.504 236.224V234.152H230.58V236.224H231.504ZM228.466 234.138H227.556V234.684C227.556 235.216 227.472 235.986 226.982 236.462C227.22 236.602 227.584 236.882 227.752 237.092C228.368 236.406 228.466 235.482 228.466 234.712V234.138ZM233.436 239.668C233.772 239.99 234.122 240.354 234.472 240.732C233.394 240.76 232.33 240.774 231.294 240.788C232.512 239.976 233.8 238.982 234.864 238.072L233.464 237.316C232.862 237.932 232.064 238.618 231.224 239.276C231 239.108 230.734 238.912 230.44 238.716C231 238.268 231.602 237.736 232.162 237.218L230.818 236.504C230.454 236.98 229.922 237.568 229.404 238.058C229.138 237.918 228.9 237.778 228.662 237.652L227.612 238.618C228.382 239.052 229.334 239.682 229.978 240.214C229.67 240.424 229.362 240.634 229.068 240.83C228.312 240.83 227.626 240.844 227.024 240.844L227.136 242.216C229.292 242.16 232.47 242.076 235.494 241.964C235.634 242.16 235.76 242.356 235.858 242.524L237.258 241.824C236.754 241.012 235.648 239.85 234.738 239.038L233.436 239.668ZM236.418 236.084C236.362 236.084 236.334 236.07 236.306 236.028V235.72V234.124H235.34V235.65C235.34 236.28 235.382 236.476 235.55 236.644C235.69 236.812 235.942 236.882 236.18 236.882H236.614C236.754 236.882 236.95 236.854 237.048 236.798C237.188 236.728 237.3 236.616 237.384 236.476C237.454 236.35 237.496 235.958 237.524 235.608C237.272 235.538 236.964 235.37 236.796 235.23C236.796 235.538 236.782 235.776 236.754 235.888C236.712 235.986 236.698 236.042 236.656 236.056C236.642 236.07 236.586 236.084 236.544 236.084H236.418Z" fill="black"/>
<path d="M112.27 332.068V333.286H110.716V332.068H112.27ZM107.622 332.068H109.092V333.286H107.622V332.068ZM109.092 330.794H106.082V334.546H108.35C107.594 335.47 106.418 336.31 105.27 336.786C105.62 337.08 106.082 337.654 106.32 338.046C107.328 337.528 108.322 336.674 109.092 335.708V338.27H110.716V335.806C111.528 336.702 112.522 337.514 113.446 338.004C113.698 337.598 114.216 337.024 114.566 336.702C113.418 336.24 112.13 335.414 111.29 334.546H113.894V330.794H110.716V330.038H114.37V328.652H110.716V327.448H109.092V328.652H105.648V330.038H109.092V330.794ZM105.382 329.87C104.906 329.212 103.884 328.344 103.044 327.756L101.812 328.764C102.638 329.38 103.632 330.304 104.066 330.976L105.382 329.87ZM105.032 332.866H101.798V334.392H103.408V337.346C102.792 337.822 102.092 338.284 101.49 338.634L102.302 340.37C103.072 339.782 103.688 339.236 104.304 338.69C105.214 339.782 106.362 340.174 108.084 340.244C109.75 340.314 112.564 340.286 114.244 340.202C114.328 339.726 114.58 338.914 114.762 338.522C112.9 338.662 109.75 338.704 108.112 338.634C106.656 338.578 105.606 338.2 105.032 337.262V332.866ZM118.038 330.178H128.132V328.694H123.162V327.448H121.426V328.694H116.442V332.614C116.442 334.658 116.358 337.57 115.196 339.558C115.574 339.726 116.274 340.188 116.554 340.468C117.828 338.312 118.038 334.882 118.038 332.614V330.178ZM124.394 332.67V333.594H121.846V332.67H124.394ZM126.046 334.854V332.67H128.062V331.354H126.046V330.43H124.394V331.354H121.846V330.43H120.278V331.354H118.388V332.67H120.278V334.854H126.046ZM124.912 336.716C124.45 337.164 123.876 337.556 123.232 337.864C122.574 337.542 122.014 337.164 121.594 336.716H124.912ZM126.326 335.344L126.032 335.414H118.486V336.716H120.572L119.914 336.954C120.362 337.556 120.908 338.074 121.524 338.508C120.418 338.83 119.186 339.026 117.898 339.138C118.15 339.488 118.444 340.118 118.57 340.538C120.236 340.328 121.804 339.992 123.176 339.446C124.394 339.992 125.822 340.356 127.432 340.552C127.642 340.118 128.076 339.474 128.412 339.124C127.152 339.012 125.99 338.816 124.968 338.522C125.976 337.85 126.802 336.982 127.362 335.862L126.326 335.344Z" fill="black"/>
<path d="M142.841 339.081C142.079 339.769 140.921 339.769 140.159 339.081L135.396 334.776C134.037 333.549 134.906 331.292 136.737 331.292L146.263 331.292C148.094 331.292 148.963 333.549 147.604 334.776L142.841 339.081Z" fill="black"/>
<path d="M168.544 327.868H164.316V329.128H168.544V327.868ZM169.076 329.744H163.602V331.06H169.076V329.744ZM168.572 333.608H164.26V334.854H168.572V333.608ZM173.92 334.938C173.584 335.652 173.15 336.282 172.604 336.828C172.044 336.268 171.582 335.638 171.246 334.938H173.92ZM167.116 338.466H165.632V336.856H167.116V338.466ZM174.97 333.37L174.69 333.44H169.762C171.218 332.446 171.498 330.85 171.498 329.534V329.296H173.066V330.99C173.066 332.376 173.388 332.81 174.508 332.81H175.32C176.258 332.81 176.622 332.32 176.762 330.584C176.356 330.472 175.712 330.234 175.404 329.996C175.39 331.214 175.334 331.396 175.152 331.396H174.802C174.648 331.396 174.62 331.354 174.62 330.962V327.826H169.93V329.492C169.93 330.43 169.776 331.536 168.572 332.362V331.69H164.26V332.964H168.572V332.432C168.908 332.656 169.496 333.16 169.734 333.44H169.258V334.938H171.204L169.776 335.4C170.21 336.31 170.742 337.122 171.386 337.822C170.56 338.368 169.608 338.76 168.558 339.026V335.54H164.218V340.314H165.632V339.768H168.558V339.054C168.866 339.432 169.258 340.09 169.426 340.496C170.616 340.132 171.694 339.628 172.632 338.97C173.514 339.628 174.536 340.146 175.712 340.496C175.95 340.062 176.426 339.404 176.79 339.054C175.712 338.788 174.732 338.382 173.906 337.85C174.872 336.8 175.614 335.47 176.062 333.776L174.97 333.37ZM181.27 337.094C181.494 337.99 181.634 339.194 181.592 339.95L183.02 339.782C183.02 338.998 182.88 337.822 182.614 336.926L181.27 337.094ZM183.37 336.968C183.664 337.752 183.972 338.802 184.056 339.488L185.386 339.138C185.288 338.48 184.966 337.444 184.644 336.674L183.37 336.968ZM186.366 331.2C186.282 331.578 186.198 331.942 186.114 332.264H183.412C183.622 331.914 183.804 331.564 183.986 331.2H186.366ZM187.29 333.692C187.22 334.084 187.136 334.448 187.052 334.784H181.634C181.942 334.434 182.222 334.07 182.502 333.692H187.29ZM190.104 334.784H188.55C188.746 334.028 188.928 333.09 189.082 332.264H187.626C187.808 331.494 188.018 330.528 188.186 329.702H184.658C184.896 329.086 185.12 328.456 185.316 327.826L183.608 327.434C183.412 328.19 183.16 328.96 182.838 329.702H181.088L182.18 329.254C181.9 328.736 181.312 327.966 180.808 327.434L179.31 328.022C179.744 328.526 180.22 329.198 180.486 329.702H177.756V331.2H182.124C180.99 333.286 179.338 335.106 177.098 336.24C177.392 336.618 177.798 337.276 177.994 337.696C178.47 337.43 178.932 337.15 179.352 336.842C179.1 337.864 178.652 338.886 177.98 339.544L179.268 340.454C180.094 339.586 180.514 338.284 180.794 337.08L179.59 336.674C179.786 336.534 179.982 336.366 180.178 336.212H188.34C188.172 337.892 187.976 338.648 187.738 338.886C187.598 339.026 187.458 339.04 187.234 339.04C186.954 339.054 186.366 339.04 185.764 338.984C186.016 339.404 186.198 340.034 186.226 340.496C186.94 340.524 187.598 340.524 188.004 340.468C188.466 340.412 188.788 340.3 189.124 339.936C189.572 339.474 189.824 338.256 190.062 335.428L190.104 334.784ZM187.514 338.158C187.374 337.64 186.996 336.884 186.618 336.31L185.47 336.702C185.82 337.29 186.17 338.102 186.296 338.592L187.514 338.158Z" fill="black"/>
<path d="M69.188 336.828C69.734 337.444 70.364 338.312 70.602 338.872L71.974 338.06C71.694 337.486 71.022 336.688 70.448 336.086L69.188 336.828ZM70.504 330.766C70.686 330.64 70.854 330.5 71.036 330.374C71.568 330.696 72.1 331.13 72.45 331.508C72.254 331.662 72.044 331.816 71.82 331.956C71.498 331.578 70.98 331.13 70.504 330.766ZM74.144 329.632C73.92 330.01 73.64 330.36 73.346 330.696C72.982 330.346 72.45 329.954 71.946 329.632H74.144ZM76.44 334.532H74.886V332.908H73.318V334.532H69.454C72.394 333.65 74.984 331.942 76.16 328.932L75.124 328.456L74.858 328.512H73.01C73.192 328.302 73.36 328.092 73.514 327.868L71.904 327.448C71.12 328.652 69.678 329.884 68.068 330.584V327.448H66.542V331.256H65.464V328.078H64.022V332.74H66.542V334.336H63.476V335.764H64.162C64.162 336.758 64.064 338.536 63.322 339.74C63.672 339.908 64.26 340.286 64.54 340.538C65.45 339.11 65.604 336.94 65.604 335.778V335.764H66.542V340.51H68.068V330.752C68.376 331.018 68.768 331.424 68.978 331.662C69.132 331.578 69.3 331.494 69.454 331.41C69.916 331.76 70.378 332.194 70.7 332.586C69.972 332.936 69.188 333.216 68.39 333.398C68.656 333.678 69.006 334.168 69.188 334.532H68.502V335.988H73.318V338.69C73.318 338.872 73.248 338.928 73.038 338.928C72.828 338.928 72.114 338.928 71.456 338.9C71.666 339.376 71.876 340.048 71.932 340.524C72.968 340.524 73.696 340.482 74.228 340.23C74.774 339.964 74.886 339.53 74.886 338.718V335.988H76.44V334.532Z" fill="black"/>
<path d="M74.13 289.27H72.618V283.6H74.13V289.27ZM66.052 283.6H67.494V289.27H66.052V283.6ZM71.12 284.566H68.978V283.6H71.12V284.566ZM68.978 288.234H71.12V289.27H68.978V288.234ZM71.12 286.932H68.978V285.868H71.12V286.932ZM76.468 280.8V279.232H63.868V280.8H68.978C68.922 281.22 68.838 281.654 68.754 282.06H64.442V291.51H66.052V290.796H74.13V291.51H75.824V282.06H70.504C70.616 281.654 70.756 281.234 70.882 280.8H76.468ZM85.064 285.21V287.072H82.628V285.21H85.064ZM86.59 288.528V283.754H81.13V289.508H82.628V288.528H86.59ZM89.67 280.772H83.832C84.168 280.156 84.518 279.428 84.812 278.728L82.698 278.434C82.53 279.134 82.25 280.016 81.956 280.772H78.092V291.496H79.758V282.396H87.99V289.536C87.99 289.788 87.906 289.858 87.64 289.858C87.36 289.872 86.422 289.886 85.596 289.83C85.834 290.278 86.086 291.034 86.142 291.51C87.402 291.51 88.298 291.482 88.886 291.216C89.474 290.95 89.67 290.474 89.67 289.564V280.772Z" fill="black"/>
<path d="M69.668 388.828C70.214 389.444 70.844 390.312 71.082 390.872L72.454 390.06C72.174 389.486 71.502 388.688 70.928 388.086L69.668 388.828ZM70.984 382.766C71.166 382.64 71.334 382.5 71.516 382.374C72.048 382.696 72.58 383.13 72.93 383.508C72.734 383.662 72.524 383.816 72.3 383.956C71.978 383.578 71.46 383.13 70.984 382.766ZM74.624 381.632C74.4 382.01 74.12 382.36 73.826 382.696C73.462 382.346 72.93 381.954 72.426 381.632H74.624ZM76.92 386.532H75.366V384.908H73.798V386.532H69.934C72.874 385.65 75.464 383.942 76.64 380.932L75.604 380.456L75.338 380.512H73.49C73.672 380.302 73.84 380.092 73.994 379.868L72.384 379.448C71.6 380.652 70.158 381.884 68.548 382.584V379.448H67.022V383.256H65.944V380.078H64.502V384.74H67.022V386.336H63.956V387.764H64.642C64.642 388.758 64.544 390.536 63.802 391.74C64.152 391.908 64.74 392.286 65.02 392.538C65.93 391.11 66.084 388.94 66.084 387.778V387.764H67.022V392.51H68.548V382.752C68.856 383.018 69.248 383.424 69.458 383.662C69.612 383.578 69.78 383.494 69.934 383.41C70.396 383.76 70.858 384.194 71.18 384.586C70.452 384.936 69.668 385.216 68.87 385.398C69.136 385.678 69.486 386.168 69.668 386.532H68.982V387.988H73.798V390.69C73.798 390.872 73.728 390.928 73.518 390.928C73.308 390.928 72.594 390.928 71.936 390.9C72.146 391.376 72.356 392.048 72.412 392.524C73.448 392.524 74.176 392.482 74.708 392.23C75.254 391.964 75.366 391.53 75.366 390.718V387.988H76.92V386.532ZM83.22 387.148C82.954 386.84 81.806 385.622 81.428 385.314V384.908H82.926V383.354H81.428V381.38C82.03 381.226 82.59 381.044 83.094 380.848L81.988 379.574C80.91 380.064 79.188 380.47 77.648 380.736C77.83 381.072 78.026 381.632 78.11 382.01C78.656 381.94 79.23 381.842 79.818 381.73V383.354H77.816V384.908H79.594C79.076 386.266 78.306 387.75 77.522 388.66C77.788 389.08 78.138 389.766 78.292 390.242C78.838 389.542 79.37 388.548 79.818 387.47V392.496H81.428V387.036C81.764 387.54 82.1 388.086 82.268 388.45L83.22 387.148ZM88.582 387.442C88.288 387.988 87.91 388.464 87.476 388.884C87.07 388.534 86.524 388.156 86.034 387.862C86.188 387.722 86.342 387.582 86.482 387.442H88.582ZM87.91 381.996C87.616 382.458 87.238 382.864 86.804 383.242C86.426 382.892 85.922 382.528 85.46 382.248C85.558 382.164 85.656 382.08 85.74 381.996H87.91ZM89.674 386.028L89.38 386.084H87.616C87.826 385.776 88.022 385.468 88.19 385.146L87.056 384.95C88.414 384.026 89.506 382.766 90.122 381.072L89.058 380.596L88.792 380.666H86.916C87.14 380.372 87.336 380.064 87.518 379.742L85.894 379.448C85.292 380.526 84.158 381.688 82.394 382.5C82.716 382.738 83.206 383.298 83.43 383.648C83.78 383.466 84.102 383.256 84.41 383.06C84.83 383.34 85.306 383.718 85.656 384.054C84.802 384.558 83.822 384.936 82.786 385.174C83.08 385.496 83.472 386.112 83.64 386.49C84.55 386.224 85.418 385.888 86.216 385.454C85.544 386.462 84.438 387.456 82.856 388.198C83.192 388.45 83.654 388.996 83.864 389.36C84.214 389.164 84.55 388.968 84.872 388.758C85.348 389.066 85.852 389.458 86.244 389.822C85.194 390.466 83.92 390.886 82.52 391.138C82.814 391.474 83.178 392.132 83.346 392.552C86.888 391.754 89.618 390.074 90.738 386.448L89.674 386.028ZM95.736 389.612H98.27V388.436H95.736V387.89H98.214V383.564H95.736V383.018H98.424V384.11H99.698C99.6 386.616 99.264 388.618 98.172 390.13C97.36 390.2 96.534 390.27 95.736 390.326V389.612ZM93.132 386.854V386.224H94.224V386.854H93.132ZM96.828 386.224V386.854H95.736V386.224H96.828ZM95.736 385.23V384.614H96.828V385.23H95.736ZM93.132 384.614H94.224V385.23H93.132V384.614ZM101.322 382.584C101.35 381.66 101.35 380.68 101.35 379.658H99.754C99.754 380.694 99.754 381.66 99.74 382.584H98.424V381.814H95.736V381.128C96.646 381.03 97.514 380.904 98.256 380.75L97.528 379.504C95.988 379.84 93.566 380.078 91.494 380.19C91.648 380.512 91.802 381.03 91.858 381.366C92.614 381.352 93.412 381.31 94.224 381.254V381.814H91.466V383.018H94.224V383.564H91.816V387.89H94.224V388.436H91.76V389.612H94.224V390.452C93.146 390.522 92.166 390.592 91.382 390.648L91.578 392.048C93.09 391.922 95.106 391.712 97.122 391.502C97.486 391.81 97.892 392.272 98.102 392.608C100.454 390.746 101.098 387.862 101.28 384.11H102.54C102.456 388.632 102.316 390.34 102.022 390.718C101.896 390.9 101.756 390.956 101.546 390.956C101.28 390.956 100.748 390.942 100.132 390.886C100.412 391.348 100.594 392.02 100.622 392.482C101.294 392.496 101.938 392.51 102.358 392.426C102.82 392.328 103.142 392.188 103.464 391.726C103.912 391.082 104.024 389.052 104.15 383.326C104.15 383.13 104.164 382.584 104.164 382.584H101.322ZM115.77 384.068V385.286H114.216V384.068H115.77ZM111.122 384.068H112.592V385.286H111.122V384.068ZM112.592 382.794H109.582V386.546H111.85C111.094 387.47 109.918 388.31 108.77 388.786C109.12 389.08 109.582 389.654 109.82 390.046C110.828 389.528 111.822 388.674 112.592 387.708V390.27H114.216V387.806C115.028 388.702 116.022 389.514 116.946 390.004C117.198 389.598 117.716 389.024 118.066 388.702C116.918 388.24 115.63 387.414 114.79 386.546H117.394V382.794H114.216V382.038H117.87V380.652H114.216V379.448H112.592V380.652H109.148V382.038H112.592V382.794ZM108.882 381.87C108.406 381.212 107.384 380.344 106.544 379.756L105.312 380.764C106.138 381.38 107.132 382.304 107.566 382.976L108.882 381.87ZM108.532 384.866H105.298V386.392H106.908V389.346C106.292 389.822 105.592 390.284 104.99 390.634L105.802 392.37C106.572 391.782 107.188 391.236 107.804 390.69C108.714 391.782 109.862 392.174 111.584 392.244C113.25 392.314 116.064 392.286 117.744 392.202C117.828 391.726 118.08 390.914 118.262 390.522C116.4 390.662 113.25 390.704 111.612 390.634C110.156 390.578 109.106 390.2 108.532 389.262V384.866ZM121.538 382.178H131.632V380.694H126.662V379.448H124.926V380.694H119.942V384.614C119.942 386.658 119.858 389.57 118.696 391.558C119.074 391.726 119.774 392.188 120.054 392.468C121.328 390.312 121.538 386.882 121.538 384.614V382.178ZM127.894 384.67V385.594H125.346V384.67H127.894ZM129.546 386.854V384.67H131.562V383.354H129.546V382.43H127.894V383.354H125.346V382.43H123.778V383.354H121.888V384.67H123.778V386.854H129.546ZM128.412 388.716C127.95 389.164 127.376 389.556 126.732 389.864C126.074 389.542 125.514 389.164 125.094 388.716H128.412ZM129.826 387.344L129.532 387.414H121.986V388.716H124.072L123.414 388.954C123.862 389.556 124.408 390.074 125.024 390.508C123.918 390.83 122.686 391.026 121.398 391.138C121.65 391.488 121.944 392.118 122.07 392.538C123.736 392.328 125.304 391.992 126.676 391.446C127.894 391.992 129.322 392.356 130.932 392.552C131.142 392.118 131.576 391.474 131.912 391.124C130.652 391.012 129.49 390.816 128.468 390.522C129.476 389.85 130.302 388.982 130.862 387.862L129.826 387.344ZM137.484 379.868H133.256V381.128H137.484V379.868ZM138.016 381.744H132.542V383.06H138.016V381.744ZM137.512 385.608H133.2V386.854H137.512V385.608ZM142.86 386.938C142.524 387.652 142.09 388.282 141.544 388.828C140.984 388.268 140.522 387.638 140.186 386.938H142.86ZM136.056 390.466H134.572V388.856H136.056V390.466ZM143.91 385.37L143.63 385.44H138.702C140.158 384.446 140.438 382.85 140.438 381.534V381.296H142.006V382.99C142.006 384.376 142.328 384.81 143.448 384.81H144.26C145.198 384.81 145.562 384.32 145.702 382.584C145.296 382.472 144.652 382.234 144.344 381.996C144.33 383.214 144.274 383.396 144.092 383.396H143.742C143.588 383.396 143.56 383.354 143.56 382.962V379.826H138.87V381.492C138.87 382.43 138.716 383.536 137.512 384.362V383.69H133.2V384.964H137.512V384.432C137.848 384.656 138.436 385.16 138.674 385.44H138.198V386.938H140.144L138.716 387.4C139.15 388.31 139.682 389.122 140.326 389.822C139.5 390.368 138.548 390.76 137.498 391.026V387.54H133.158V392.314H134.572V391.768H137.498V391.054C137.806 391.432 138.198 392.09 138.366 392.496C139.556 392.132 140.634 391.628 141.572 390.97C142.454 391.628 143.476 392.146 144.652 392.496C144.89 392.062 145.366 391.404 145.73 391.054C144.652 390.788 143.672 390.382 142.846 389.85C143.812 388.8 144.554 387.47 145.002 385.776L143.91 385.37ZM148.46 382.43H157.07V384.348H158.792V380.848H153.668V379.448H151.904V380.848H146.822V384.348H148.46V382.43ZM153.654 388.534H157.504V386.966H153.654V385.216H156.65V383.634H148.95V385.216H151.932V390.158C151.106 389.752 150.448 389.08 150.028 387.96C150.154 387.4 150.252 386.812 150.336 386.182L148.6 386.014C148.348 388.408 147.662 390.34 146.15 391.46C146.542 391.712 147.242 392.3 147.522 392.594C148.32 391.908 148.936 391.012 149.384 389.948C150.672 391.936 152.59 392.356 155.166 392.356H158.666C158.75 391.866 159.016 391.068 159.254 390.662C158.316 390.704 156.006 390.704 155.25 390.704C154.69 390.704 154.158 390.676 153.654 390.62V388.534ZM163.93 389.094C164.154 389.99 164.294 391.194 164.252 391.95L165.68 391.782C165.68 390.998 165.54 389.822 165.274 388.926L163.93 389.094ZM166.03 388.968C166.324 389.752 166.632 390.802 166.716 391.488L168.046 391.138C167.948 390.48 167.626 389.444 167.304 388.674L166.03 388.968ZM169.026 383.2C168.942 383.578 168.858 383.942 168.774 384.264H166.072C166.282 383.914 166.464 383.564 166.646 383.2H169.026ZM169.95 385.692C169.88 386.084 169.796 386.448 169.712 386.784H164.294C164.602 386.434 164.882 386.07 165.162 385.692H169.95ZM172.764 386.784H171.21C171.406 386.028 171.588 385.09 171.742 384.264H170.286C170.468 383.494 170.678 382.528 170.846 381.702H167.318C167.556 381.086 167.78 380.456 167.976 379.826L166.268 379.434C166.072 380.19 165.82 380.96 165.498 381.702H163.748L164.84 381.254C164.56 380.736 163.972 379.966 163.468 379.434L161.97 380.022C162.404 380.526 162.88 381.198 163.146 381.702H160.416V383.2H164.784C163.65 385.286 161.998 387.106 159.758 388.24C160.052 388.618 160.458 389.276 160.654 389.696C161.13 389.43 161.592 389.15 162.012 388.842C161.76 389.864 161.312 390.886 160.64 391.544L161.928 392.454C162.754 391.586 163.174 390.284 163.454 389.08L162.25 388.674C162.446 388.534 162.642 388.366 162.838 388.212H171C170.832 389.892 170.636 390.648 170.398 390.886C170.258 391.026 170.118 391.04 169.894 391.04C169.614 391.054 169.026 391.04 168.424 390.984C168.676 391.404 168.858 392.034 168.886 392.496C169.6 392.524 170.258 392.524 170.664 392.468C171.126 392.412 171.448 392.3 171.784 391.936C172.232 391.474 172.484 390.256 172.722 387.428L172.764 386.784ZM170.174 390.158C170.034 389.64 169.656 388.884 169.278 388.31L168.13 388.702C168.48 389.29 168.83 390.102 168.956 390.592L170.174 390.158Z" fill="black"/>
<path d="M121.454 282.256V280.66H115.924V278.378H114.202V280.66H108.84V282.256H112.844C112.69 285.252 112.368 288.444 108.588 290.194C109.022 290.558 109.526 291.146 109.764 291.608C112.564 290.194 113.726 288.01 114.258 285.644H118.108C117.912 288.192 117.66 289.41 117.296 289.718C117.128 289.872 116.932 289.9 116.624 289.9C116.218 289.9 115.238 289.9 114.272 289.802C114.58 290.278 114.832 290.964 114.86 291.44C115.798 291.482 116.736 291.496 117.254 291.44C117.912 291.384 118.346 291.244 118.766 290.796C119.326 290.18 119.62 288.612 119.872 284.804C119.914 284.58 119.928 284.076 119.928 284.076H114.524C114.594 283.474 114.636 282.858 114.678 282.256H121.454ZM130.064 285.21V287.072H127.628V285.21H130.064ZM131.59 288.528V283.754H126.13V289.508H127.628V288.528H131.59ZM134.67 280.772H128.832C129.168 280.156 129.518 279.428 129.812 278.728L127.698 278.434C127.53 279.134 127.25 280.016 126.956 280.772H123.092V291.496H124.758V282.396H132.99V289.536C132.99 289.788 132.906 289.858 132.64 289.858C132.36 289.872 131.422 289.886 130.596 289.83C130.834 290.278 131.086 291.034 131.142 291.51C132.402 291.51 133.298 291.482 133.886 291.216C134.474 290.95 134.67 290.474 134.67 289.564V280.772Z" fill="black"/>
<path d="M184.15 287.38V286.47H186.488V287.38H184.15ZM186.488 284.37V285.238H184.15V284.37H186.488ZM188.098 282.97H182.568V291.426H184.15V288.598H186.488V289.844C186.488 290.012 186.432 290.068 186.264 290.068C186.082 290.082 185.522 290.082 185.004 290.054C185.214 290.432 185.452 291.048 185.536 291.468C186.39 291.468 187.034 291.44 187.482 291.202C187.958 290.964 188.098 290.572 188.098 289.858V282.97ZM192.088 289.648C192.088 289.844 192.018 289.9 191.794 289.9C191.556 289.914 190.828 289.914 190.114 289.886C190.366 290.32 190.632 291.006 190.716 291.454C191.724 291.468 192.48 291.426 193.012 291.174C193.572 290.908 193.726 290.502 193.726 289.676V282.718H192.088V289.648ZM190.828 283.11H189.302V288.822H190.828V283.11ZM191.626 280.506C191.976 280.016 192.354 279.47 192.69 278.924L190.884 278.392C190.604 279.036 190.156 279.862 189.736 280.506H185.844L186.614 280.24C186.376 279.708 185.816 278.952 185.312 278.42L183.73 278.966C184.122 279.428 184.528 280.03 184.78 280.506H181.798V282.004H194.468V280.506H191.626ZM203.484 282.718H201.664V281.836H203.484V282.718ZM203.484 284.986H201.664V284.062H203.484V284.986ZM203.484 287.282H201.664V286.33H203.484V287.282ZM200.054 288.682H208.09V287.282H205.066V286.33H207.418V284.986H205.066V284.062H207.474V282.718H205.066V281.836H207.852V280.436H205.374C205.626 279.96 205.878 279.442 206.13 278.938L204.296 278.588C204.156 279.134 203.946 279.82 203.708 280.436H202.112C202.378 279.946 202.616 279.456 202.826 278.952L201.174 278.476C200.53 280.142 199.368 281.752 198.08 282.732C198.43 283.04 199.046 283.712 199.298 284.048C199.55 283.824 199.802 283.586 200.054 283.32V288.682ZM198.962 281.01C198.514 280.338 197.548 279.414 196.764 278.784L195.49 279.736C196.274 280.408 197.198 281.374 197.59 282.06L198.962 281.01ZM198.584 283.866H195.434V285.392H197.002V288.444C196.442 288.92 195.812 289.382 195.266 289.732L196.05 291.384C196.764 290.782 197.338 290.25 197.898 289.704C198.738 290.782 199.858 291.188 201.524 291.258C203.232 291.328 206.2 291.3 207.936 291.216C208.02 290.754 208.258 289.984 208.454 289.592C206.522 289.746 203.218 289.788 201.538 289.718C200.11 289.662 199.13 289.27 198.584 288.332V283.866Z" fill="black"/>
<path d="M335.332 284.566C334.086 288.108 331.384 289.424 326.722 289.942C327.072 290.362 327.394 291.02 327.562 291.524C332.63 290.754 335.528 289.186 337.04 285.112L335.332 284.566ZM328.346 284.16C327.716 285.168 326.61 286.19 325.532 286.806C325.938 287.072 326.652 287.632 326.988 287.954C328.038 287.184 329.284 285.938 330.054 284.72L328.346 284.16ZM332.896 282.382V281.318H336.844V279.778H332.896V278.448H331.202V282.382H329.312V279.344H327.618V282.382H325.714V283.964H331.216V286.596C331.216 286.75 331.146 286.764 330.95 286.764C330.754 286.778 329.998 286.778 329.41 286.764C329.62 287.184 329.858 287.814 329.928 288.248C330.894 288.248 331.622 288.248 332.168 288.024C332.714 287.786 332.868 287.394 332.868 286.624V283.964H338.286V282.382H332.896Z" fill="black"/>
<path d="M152.841 290.081C152.079 290.769 150.921 290.769 150.159 290.081L145.396 285.776C144.037 284.549 144.906 282.292 146.737 282.292L156.263 282.292C158.094 282.292 158.963 284.549 157.604 285.776L152.841 290.081Z" fill="black"/>
<path opacity="0.35" d="M338.979 16.5026H355.469C356.666 16.5026 357.636 17.4726 357.636 18.6692V24.6692C357.636 25.8658 356.666 26.8359 355.469 26.8359H338.979C337.782 26.8359 336.812 25.8658 336.812 24.6692V18.6692C336.812 17.4726 337.782 16.5026 338.979 16.5026Z" stroke="black"/>
<path opacity="0.4" d="M359.128 19.6692V23.6692C359.926 23.3304 360.445 22.5423 360.445 21.6692C360.445 20.7961 359.926 20.008 359.128 19.6692" fill="black"/>
<path d="M338.296 19.3359C338.296 18.5995 338.893 18.0026 339.629 18.0026H354.819C355.555 18.0026 356.152 18.5995 356.152 19.3359V24.0026C356.152 24.7389 355.555 25.3359 354.819 25.3359H339.629C338.893 25.3359 338.296 24.7389 338.296 24.0026V19.3359Z" fill="black"/>
<path fill-rule="evenodd" clip-rule="evenodd" d="M323.744 18.2773C325.942 18.2774 328.056 19.1289 329.649 20.6557C329.769 20.7735 329.961 20.772 330.079 20.6523L331.226 19.4857C331.286 19.4249 331.319 19.3427 331.318 19.2571C331.318 19.1715 331.284 19.0897 331.223 19.0297C327.042 14.9901 320.445 14.9901 316.264 19.0297C316.203 19.0896 316.169 19.1715 316.168 19.257C316.168 19.3426 316.201 19.4249 316.261 19.4857L317.408 20.6523C317.526 20.7722 317.718 20.7737 317.838 20.6557C319.431 19.1288 321.545 18.2773 323.744 18.2773ZM323.744 22.073C324.951 22.0729 326.116 22.5255 327.011 23.3427C327.132 23.4587 327.323 23.4562 327.441 23.337L328.587 22.1704C328.647 22.1092 328.68 22.0261 328.68 21.9399C328.679 21.8536 328.644 21.7713 328.582 21.7114C325.856 19.155 321.634 19.155 318.908 21.7114C318.846 21.7713 318.811 21.8537 318.81 21.9399C318.809 22.0262 318.843 22.1092 318.903 22.1704L320.049 23.337C320.167 23.4562 320.357 23.4587 320.478 23.3427C321.373 22.526 322.537 22.0735 323.744 22.073ZM326.038 24.6268C326.04 24.7133 326.006 24.7967 325.945 24.8573L323.964 26.873C323.906 26.9323 323.826 26.9656 323.744 26.9656C323.661 26.9656 323.582 26.9323 323.524 26.873L321.542 24.8573C321.481 24.7967 321.447 24.7133 321.449 24.6268C321.451 24.5403 321.488 24.4583 321.552 24.4003C322.817 23.3215 324.67 23.3215 325.936 24.4003C325.999 24.4584 326.037 24.5403 326.038 24.6268Z" fill="black"/>
<path fill-rule="evenodd" clip-rule="evenodd" d="M312.189 16.3359H311.197C310.65 16.3359 310.205 16.7837 310.205 17.3359V26.0026C310.205 26.5549 310.65 27.0026 311.197 27.0026H312.189C312.737 27.0026 313.181 26.5549 313.181 26.0026V17.3359C313.181 16.7837 312.737 16.3359 312.189 16.3359ZM306.568 18.6693H307.56C308.108 18.6693 308.552 19.117 308.552 19.6693V26.0026C308.552 26.5549 308.108 27.0026 307.56 27.0026H306.568C306.02 27.0026 305.576 26.5549 305.576 26.0026V19.6693C305.576 19.117 306.02 18.6693 306.568 18.6693ZM302.931 21.0026H301.939C301.391 21.0026 300.947 21.4503 300.947 22.0026V26.0026C300.947 26.5549 301.391 27.0026 301.939 27.0026H302.931C303.479 27.0026 303.923 26.5549 303.923 26.0026V22.0026C303.923 21.4503 303.479 21.0026 302.931 21.0026ZM298.301 23.0026H297.309C296.762 23.0026 296.317 23.4503 296.317 24.0026V26.0026C296.317 26.5549 296.762 27.0026 297.309 27.0026H298.301C298.849 27.0026 299.293 26.5549 299.293 26.0026V24.0026C299.293 23.4503 298.849 23.0026 298.301 23.0026Z" fill="black"/>
<path d="M38.4455 22.8765C37.9133 23.355 37.3176 23.5942 36.6584 23.5942C35.6916 23.5942 34.925 23.2671 34.3586 22.6128C33.7922 21.9585 33.509 21.0845 33.509 19.9907C33.509 19.3071 33.6677 18.6724 33.9851 18.0864C34.3025 17.5005 34.7468 17.0366 35.3181 16.6948C35.8943 16.353 36.529 16.1821 37.2224 16.1821C37.9255 16.1821 38.5603 16.3604 39.1267 16.7168C39.698 17.0684 40.1423 17.5688 40.4597 18.2183C40.7771 18.8628 40.9406 19.6074 40.9504 20.4521V21.397C40.9504 22.5737 40.7185 23.5942 40.2546 24.4585C39.7956 25.3228 39.1389 25.9868 38.2844 26.4507C37.4299 26.9146 36.4338 27.1465 35.2961 27.1465H35.1423V25.1689L35.6111 25.1616C37.3103 25.0786 38.2551 24.3169 38.4455 22.8765ZM37.3249 21.8145C37.862 21.8145 38.2478 21.5825 38.4821 21.1187V20.0933C38.4821 19.4097 38.3674 18.9043 38.1379 18.5771C37.9084 18.25 37.5984 18.0864 37.2077 18.0864C36.8611 18.0864 36.5705 18.272 36.3361 18.6431C36.1018 19.0142 35.9846 19.4634 35.9846 19.9907C35.9846 20.5474 36.1042 20.9917 36.3435 21.3237C36.5827 21.6509 36.9099 21.8145 37.3249 21.8145ZM43.5435 24.605C43.9341 24.605 44.2588 24.7222 44.5176 24.9565C44.7764 25.186 44.9058 25.4814 44.9058 25.8428C44.9058 26.2041 44.7764 26.502 44.5176 26.7363C44.2588 26.9658 43.9341 27.0806 43.5435 27.0806C43.148 27.0806 42.8208 26.9634 42.562 26.729C42.3081 26.4946 42.1812 26.1992 42.1812 25.8428C42.1812 25.4863 42.3081 25.1909 42.562 24.9565C42.8208 24.7222 43.148 24.605 43.5435 24.605ZM43.5435 18.7603C43.9341 18.7603 44.2588 18.8774 44.5176 19.1118C44.7764 19.3413 44.9058 19.6367 44.9058 19.998C44.9058 20.3594 44.7764 20.6572 44.5176 20.8916C44.2588 21.1211 43.9341 21.2358 43.5435 21.2358C43.148 21.2358 42.8208 21.1187 42.562 20.8843C42.3081 20.6499 42.1812 20.3545 42.1812 19.998C42.1812 19.6416 42.3081 19.3462 42.562 19.1118C42.8208 18.8774 43.148 18.7603 43.5435 18.7603ZM51.6517 27H49.1761V19.1191L46.7444 19.8296V17.9546L51.4246 16.3359H51.6517V27ZM61.0856 22.8325H62.1695V24.7368H61.0856V27H58.6173V24.7368H54.4938L54.3473 23.228L58.6173 16.3579V16.3359H61.0856V22.8325ZM56.6984 22.8325H58.6173V19.5513L58.4635 19.8003L56.6984 22.8325Z" fill="black"/>
<defs>
<clipPath id="clip0_475_658">
<rect width="44" height="44" fill="white" transform="translate(16 42)"/>
</clipPath>
<clipPath id="clip1_475_658">
<rect width="44" height="44" fill="white" transform="translate(315 42)"/>
</clipPath>
</defs>
</svg>
