<svg width="375" height="812" viewBox="0 0 375 812" fill="none" xmlns="http://www.w3.org/2000/svg">
<g clip-path="url(#clip0_117_17)">
<rect width="375" height="812" rx="40" fill="#FCF5EF"/>
<rect x="121" y="799" width="134" height="5" rx="2.5" fill="black"/>
<rect x="16" y="372" width="343" height="43" rx="21.5" fill="#FEA735"/>
<path d="M118.023 398.136V395.472H127.617V398.136H118.023ZM127.617 391.602V394.212H118.023V391.602H127.617ZM127.617 387.66V390.342H118.023V387.66H127.617ZM122.541 386.382C122.847 385.698 123.171 384.888 123.441 384.114L121.911 383.916C121.767 384.618 121.479 385.59 121.209 386.382H116.691V400.404H118.023V399.396H127.617V400.314H129.003V386.382H122.541ZM148.317 385.032H139.533V386.292H148.317V385.032ZM136.527 383.934C135.627 385.212 133.899 386.832 132.405 387.84C132.639 388.092 132.999 388.614 133.197 388.902C134.799 387.768 136.635 386.022 137.805 384.438L136.527 383.934ZM137.265 387.768C136.023 389.802 134.079 391.872 132.225 393.186C132.495 393.456 132.963 394.032 133.161 394.302C133.827 393.78 134.511 393.132 135.195 392.43V400.422H136.527V390.954C137.265 390.072 137.949 389.154 138.507 388.236L137.265 387.768ZM148.839 389.946H138.759V391.224H144.771V398.64C144.771 398.946 144.663 399.018 144.321 399.036C143.979 399.054 142.791 399.054 141.513 399.018C141.711 399.396 141.891 399.954 141.945 400.314C143.709 400.314 144.717 400.314 145.329 400.116C145.923 399.9 146.121 399.486 146.121 398.658V391.224H148.839V389.946ZM151.359 394.14C151.161 395.706 150.819 397.326 150.261 398.424C150.513 398.514 151.035 398.748 151.233 398.892C151.809 397.74 152.205 396.03 152.457 394.338L151.359 394.14ZM155.643 392.7C155.787 393.132 155.895 393.528 155.949 393.852L156.975 393.42C156.759 392.412 156.129 390.846 155.445 389.658L154.509 390.018C154.761 390.504 155.013 391.044 155.229 391.584L152.817 391.71C153.969 390.198 155.301 388.146 156.273 386.472L155.175 385.986C154.707 386.94 154.059 388.11 153.357 389.226C153.105 388.884 152.781 388.488 152.421 388.092C153.051 387.102 153.825 385.626 154.437 384.384L153.285 383.952C152.925 384.942 152.277 386.328 151.701 387.354C151.521 387.174 151.323 386.976 151.143 386.814L150.423 387.642C151.251 388.416 152.151 389.46 152.673 390.27C152.313 390.828 151.953 391.332 151.611 391.782C151.143 391.8 150.693 391.818 150.297 391.836L150.423 393.042C151.233 392.988 152.151 392.934 153.141 392.862V400.368H154.311V392.79L155.643 392.7ZM163.977 395.85V393.78H165.399V395.85H163.977ZM161.673 395.85V393.78H163.059V395.85H161.673ZM159.423 395.85V393.78H160.773V395.85H159.423ZM164.877 388.488V390.414H158.667V388.488H164.877ZM166.533 392.736H158.631C158.649 392.304 158.667 391.908 158.667 391.512H166.173V387.372H157.461V391.314C157.461 393.042 157.371 395.256 156.651 397.236C156.543 396.354 156.201 395.076 155.769 394.086L154.833 394.374C155.247 395.4 155.607 396.75 155.661 397.632L156.615 397.362C156.345 398.064 156.003 398.748 155.553 399.36C155.823 399.504 156.327 399.882 156.525 400.116C157.587 398.658 158.145 396.804 158.415 394.986V400.368H159.423V396.876H160.773V400.188H161.673V396.876H163.059V400.188H163.977V396.876H165.399V399.09C165.399 399.252 165.363 399.288 165.255 399.288C165.111 399.288 164.733 399.288 164.301 399.27C164.445 399.576 164.625 400.044 164.661 400.368C165.327 400.368 165.795 400.332 166.137 400.17C166.461 399.954 166.533 399.63 166.533 399.108V392.736ZM156.777 385.032V386.202H166.605V385.032H156.777ZM173.661 396.66C174.021 397.668 174.291 399 174.273 399.81L175.371 399.648C175.371 398.838 175.101 397.542 174.705 396.552L173.661 396.66ZM176.199 396.588C176.721 397.452 177.189 398.586 177.333 399.342L178.359 399.036C178.215 398.28 177.711 397.146 177.135 396.3L176.199 396.588ZM181.131 398.01C180.843 397.452 180.177 396.624 179.565 396.048L178.665 396.48C179.277 397.074 179.925 397.92 180.195 398.496L181.131 398.01ZM173.913 394.554C174.255 394.176 174.579 393.798 174.849 393.384H182.193V388.038H177.225V389.028H180.969V390.234H177.495V391.188H180.969V392.412H172.509V391.188H175.947V390.234H172.509V389.082C173.769 388.812 175.191 388.452 176.253 388.002L175.407 387.138C174.615 387.516 173.301 387.912 172.113 388.218L171.303 388.038V393.384H173.373C172.257 394.806 170.403 395.94 168.549 396.66C168.801 396.912 169.197 397.47 169.341 397.722C170.061 397.398 170.799 397.002 171.483 396.552C171.213 397.686 170.691 398.856 169.863 399.54L170.871 400.152C171.843 399.342 172.311 397.974 172.617 396.678L171.699 396.408C172.059 396.174 172.401 395.922 172.725 395.652H182.409C182.265 397.866 182.085 398.784 181.815 399.072C181.671 399.216 181.527 399.234 181.221 399.216C180.897 399.234 180.087 399.216 179.223 399.144C179.439 399.45 179.565 399.954 179.601 400.296C180.483 400.35 181.347 400.368 181.779 400.314C182.283 400.296 182.607 400.188 182.913 399.864C183.345 399.396 183.561 398.172 183.759 395.094C183.777 394.914 183.795 394.554 183.795 394.554H173.913ZM177.333 385.392V383.952H176.019V385.392H169.125V388.56H170.349V386.562H183.039V388.56H184.299V385.392H177.333ZM200.661 389.154H195.261V385.86H200.661V389.154ZM201.975 384.69H194.037V390.306H201.975V384.69ZM193.317 393.798C192.957 393.384 191.427 391.8 190.869 391.332V390.234H193.119V388.974H190.869V385.932C191.715 385.734 192.507 385.482 193.155 385.212L192.219 384.204C190.905 384.798 188.547 385.32 186.531 385.644C186.693 385.95 186.873 386.382 186.945 386.688C187.773 386.562 188.691 386.418 189.573 386.238V388.974H186.639V390.234H189.393C188.673 392.286 187.431 394.608 186.297 395.868C186.513 396.192 186.837 396.714 186.963 397.092C187.881 395.994 188.835 394.194 189.573 392.376V400.332H190.869V392.628C191.481 393.366 192.219 394.356 192.507 394.86L193.317 393.798ZM198.609 398.694V396.372H202.191V395.202H198.609V393.06H202.587V391.872H193.371V393.06H197.277V395.202H193.785V396.372H197.277V398.694H192.561V399.9H202.983V398.694H198.609ZM219.939 386.22C219.399 385.608 218.265 384.69 217.347 384.078L216.447 384.816C217.365 385.464 218.481 386.436 219.003 387.066L219.939 386.22ZM209.913 392.556H213.279V391.26H205.395V392.556H208.599V397.776C207.159 398.064 205.845 398.334 204.837 398.532L205.251 399.846C207.537 399.342 210.831 398.586 213.873 397.848L213.765 396.678C212.469 396.966 211.173 397.218 209.913 397.488V392.556ZM220.677 388.578V387.282H215.349C215.295 386.22 215.277 385.14 215.277 384.024H213.873C213.891 385.122 213.909 386.22 213.963 387.282H204.765V388.578H214.053C214.521 395.238 216.015 400.404 218.949 400.404C220.317 400.404 220.821 399.486 221.055 396.372C220.677 396.228 220.173 395.94 219.867 395.634C219.759 398.028 219.543 399.018 219.057 399.018C217.275 399.018 215.853 394.644 215.421 388.578H220.677ZM230.829 387.912H232.107V386.562H234.843V387.93H236.139V386.562H238.641V385.428H236.139V383.952H234.843V385.428H232.107V383.952H230.829V385.428H228.219V386.562H230.829V387.912ZM228.309 392.862C227.985 392.304 226.635 390.036 226.167 389.352V388.65H228.021V387.39H226.167V383.934H224.889V387.39H222.675V388.65H224.889C224.403 391.08 223.377 393.942 222.333 395.436C222.567 395.76 222.891 396.336 223.035 396.732C223.701 395.67 224.367 394.032 224.889 392.286V400.368H226.167V391.152C226.653 392.088 227.211 393.24 227.463 393.852L228.309 392.862ZM230.199 391.494H236.427V392.772H230.199V391.494ZM230.199 389.262H236.427V390.54H230.199V389.262ZM238.623 396.408V395.274H233.673C233.763 394.806 233.853 394.302 233.907 393.78H237.705V388.254H228.957V393.78H232.593C232.521 394.302 232.449 394.824 232.341 395.274H227.823V396.408H231.945C231.261 397.776 229.983 398.73 227.355 399.324C227.589 399.576 227.931 400.08 228.039 400.368C231.171 399.612 232.611 398.352 233.331 396.444C234.231 398.406 235.887 399.738 238.191 400.368C238.371 400.026 238.749 399.522 239.037 399.27C237.003 398.838 235.473 397.848 234.591 396.408H238.623ZM241.395 394.14C241.197 395.724 240.819 397.326 240.225 398.424C240.513 398.514 241.053 398.766 241.269 398.928C241.863 397.776 242.295 396.048 242.547 394.356L241.395 394.14ZM246.219 392.826C246.381 393.204 246.489 393.546 246.561 393.852L247.623 393.348C247.371 392.376 246.579 390.846 245.841 389.694L244.851 390.126C245.157 390.612 245.463 391.17 245.733 391.728C244.743 391.764 243.753 391.818 242.853 391.854C244.095 390.306 245.535 388.182 246.579 386.49L245.427 385.986C244.923 386.958 244.239 388.128 243.501 389.262C243.213 388.884 242.835 388.452 242.403 388.02C243.087 387.048 243.843 385.608 244.455 384.402L243.267 383.952C242.889 384.942 242.259 386.292 241.665 387.3C241.485 387.138 241.305 386.976 241.125 386.832L240.441 387.714C241.287 388.47 242.241 389.478 242.799 390.288C242.403 390.882 241.989 391.422 241.593 391.89C241.179 391.908 240.765 391.926 240.405 391.926L240.513 393.132L243.447 392.988V400.404H244.653V392.916L246.219 392.826ZM245.301 394.392C245.787 395.508 246.291 396.948 246.453 397.884L247.515 397.524C247.353 396.588 246.831 395.166 246.309 394.068L245.301 394.392ZM249.765 395.202H254.337V398.64H249.765V395.202ZM254.337 386.166V389.478H249.765V386.166H254.337ZM254.337 393.996H249.765V390.684H254.337V393.996ZM255.651 398.64V384.96H248.469V398.64H246.561V399.864H257.037V398.64H255.651Z" fill="black"/>
<rect x="16" y="445" width="343" height="43" rx="21.5" fill="#FEA735"/>
<path d="M148.084 459.742H144.628V461.614C144.628 462.694 145.006 462.964 146.338 462.964H148.75C149.704 462.964 150.046 462.64 150.172 461.434C149.848 461.362 149.416 461.218 149.182 461.056C149.128 461.902 149.038 462.01 148.606 462.01H146.464C145.87 462.01 145.762 461.938 145.762 461.596V460.678H149.272V457.636H144.286V458.572H148.084V459.742ZM142.288 459.742H138.76V461.614C138.76 462.694 139.102 462.964 140.434 462.964H142.666C143.584 462.964 143.926 462.658 144.052 461.488C143.728 461.434 143.296 461.29 143.062 461.11C143.008 461.902 142.918 462.01 142.486 462.01H140.542C139.966 462.01 139.876 461.938 139.876 461.614V460.678H143.422V457.636H138.436V458.572H142.288V459.742ZM142.576 465.52H145.528V467.23H142.576V465.52ZM150.064 467.23H146.806V465.52H149.506V464.494H146.806V463.198H145.528V464.494H142.576V463.198H141.334V464.494H138.67V465.52H141.334V467.23H138.094V468.274H150.064V467.23ZM149.794 470.668C148.948 470.002 147.472 469.138 146.158 468.508L145.204 469.102C146.446 469.732 147.742 470.578 148.498 471.244L149.794 470.668ZM141.928 468.472C141.136 469.192 139.804 469.876 138.58 470.362C138.868 470.542 139.354 470.974 139.57 471.208C140.758 470.632 142.198 469.75 143.116 468.886L141.928 468.472ZM137.752 460.354C137.248 459.454 136.06 458.212 134.998 457.366L133.972 458.05C135.016 458.932 136.168 460.21 136.636 461.11L137.752 460.354ZM137.338 463.99H133.882V465.25H136.096V469.894C135.304 470.65 134.422 471.406 133.666 471.964L134.368 473.206C135.232 472.414 136.042 471.658 136.798 470.866C137.914 472.288 139.552 472.936 141.928 473.026C143.962 473.098 147.85 473.062 149.884 472.972C149.938 472.594 150.154 472 150.316 471.712C148.12 471.856 143.926 471.91 141.892 471.82C139.786 471.73 138.184 471.118 137.338 469.768V463.99ZM157.084 464.512C156.49 464.71 155.896 464.908 155.302 465.088V461.776H157.228V460.552H155.302V456.952H154.06V460.552H151.81V461.776H154.06V465.466C153.124 465.754 152.26 466.024 151.576 466.204L151.918 467.5L154.06 466.798V471.82C154.06 472.09 153.97 472.144 153.754 472.144C153.538 472.162 152.836 472.162 152.062 472.144C152.242 472.504 152.404 473.062 152.458 473.368C153.574 473.386 154.258 473.332 154.69 473.134C155.14 472.918 155.302 472.558 155.302 471.82V466.402L157.264 465.754L157.084 464.512ZM164.482 467.662H160.864L161.368 467.518C161.278 467.086 160.99 466.438 160.72 465.952H164.806C164.608 466.456 164.302 467.104 164.068 467.536L164.482 467.662ZM161.908 458.644H163.69V460.534H161.908V458.644ZM160.828 460.534H159.118V458.644H160.828V460.534ZM164.77 458.644H166.588V460.534H164.77V458.644ZM168.244 464.89H163.348V463.612H167.362V462.604H163.348V461.488H167.704V457.672H158.02V461.488H162.088V462.604H158.218V463.612H162.088V464.89H157.336V465.952H160.288L159.55 466.132C159.802 466.582 160.054 467.194 160.18 467.662H157.498V468.706H162.088V469.984H157.876V471.028H162.088V473.512H163.348V471.028H167.596V469.984H163.348V468.706H167.992V467.662H165.202C165.49 467.194 165.814 466.618 166.156 466.024L165.886 465.952H168.244V464.89ZM183.958 462.154H178.558V458.86H183.958V462.154ZM185.272 457.69H177.334V463.306H185.272V457.69ZM176.614 466.798C176.254 466.384 174.724 464.8 174.166 464.332V463.234H176.416V461.974H174.166V458.932C175.012 458.734 175.804 458.482 176.452 458.212L175.516 457.204C174.202 457.798 171.844 458.32 169.828 458.644C169.99 458.95 170.17 459.382 170.242 459.688C171.07 459.562 171.988 459.418 172.87 459.238V461.974H169.936V463.234H172.69C171.97 465.286 170.728 467.608 169.594 468.868C169.81 469.192 170.134 469.714 170.26 470.092C171.178 468.994 172.132 467.194 172.87 465.376V473.332H174.166V465.628C174.778 466.366 175.516 467.356 175.804 467.86L176.614 466.798ZM181.906 471.694V469.372H185.488V468.202H181.906V466.06H185.884V464.872H176.668V466.06H180.574V468.202H177.082V469.372H180.574V471.694H175.858V472.9H186.28V471.694H181.906ZM203.236 459.22C202.696 458.608 201.562 457.69 200.644 457.078L199.744 457.816C200.662 458.464 201.778 459.436 202.3 460.066L203.236 459.22ZM193.21 465.556H196.576V464.26H188.692V465.556H191.896V470.776C190.456 471.064 189.142 471.334 188.134 471.532L188.548 472.846C190.834 472.342 194.128 471.586 197.17 470.848L197.062 469.678C195.766 469.966 194.47 470.218 193.21 470.488V465.556ZM203.974 461.578V460.282H198.646C198.592 459.22 198.574 458.14 198.574 457.024H197.17C197.188 458.122 197.206 459.22 197.26 460.282H188.062V461.578H197.35C197.818 468.238 199.312 473.404 202.246 473.404C203.614 473.404 204.118 472.486 204.352 469.372C203.974 469.228 203.47 468.94 203.164 468.634C203.056 471.028 202.84 472.018 202.354 472.018C200.572 472.018 199.15 467.644 198.718 461.578H203.974ZM214.126 460.912H215.404V459.562H218.14V460.93H219.436V459.562H221.938V458.428H219.436V456.952H218.14V458.428H215.404V456.952H214.126V458.428H211.516V459.562H214.126V460.912ZM211.606 465.862C211.282 465.304 209.932 463.036 209.464 462.352V461.65H211.318V460.39H209.464V456.934H208.186V460.39H205.972V461.65H208.186C207.7 464.08 206.674 466.942 205.63 468.436C205.864 468.76 206.188 469.336 206.332 469.732C206.998 468.67 207.664 467.032 208.186 465.286V473.368H209.464V464.152C209.95 465.088 210.508 466.24 210.76 466.852L211.606 465.862ZM213.496 464.494H219.724V465.772H213.496V464.494ZM213.496 462.262H219.724V463.54H213.496V462.262ZM221.92 469.408V468.274H216.97C217.06 467.806 217.15 467.302 217.204 466.78H221.002V461.254H212.254V466.78H215.89C215.818 467.302 215.746 467.824 215.638 468.274H211.12V469.408H215.242C214.558 470.776 213.28 471.73 210.652 472.324C210.886 472.576 211.228 473.08 211.336 473.368C214.468 472.612 215.908 471.352 216.628 469.444C217.528 471.406 219.184 472.738 221.488 473.368C221.668 473.026 222.046 472.522 222.334 472.27C220.3 471.838 218.77 470.848 217.888 469.408H221.92ZM224.692 467.14C224.494 468.724 224.116 470.326 223.522 471.424C223.81 471.514 224.35 471.766 224.566 471.928C225.16 470.776 225.592 469.048 225.844 467.356L224.692 467.14ZM229.516 465.826C229.678 466.204 229.786 466.546 229.858 466.852L230.92 466.348C230.668 465.376 229.876 463.846 229.138 462.694L228.148 463.126C228.454 463.612 228.76 464.17 229.03 464.728C228.04 464.764 227.05 464.818 226.15 464.854C227.392 463.306 228.832 461.182 229.876 459.49L228.724 458.986C228.22 459.958 227.536 461.128 226.798 462.262C226.51 461.884 226.132 461.452 225.7 461.02C226.384 460.048 227.14 458.608 227.752 457.402L226.564 456.952C226.186 457.942 225.556 459.292 224.962 460.3C224.782 460.138 224.602 459.976 224.422 459.832L223.738 460.714C224.584 461.47 225.538 462.478 226.096 463.288C225.7 463.882 225.286 464.422 224.89 464.89C224.476 464.908 224.062 464.926 223.702 464.926L223.81 466.132L226.744 465.988V473.404H227.95V465.916L229.516 465.826ZM228.598 467.392C229.084 468.508 229.588 469.948 229.75 470.884L230.812 470.524C230.65 469.588 230.128 468.166 229.606 467.068L228.598 467.392ZM233.062 468.202H237.634V471.64H233.062V468.202ZM237.634 459.166V462.478H233.062V459.166H237.634ZM237.634 466.996H233.062V463.684H237.634V466.996ZM238.948 471.64V457.96H231.766V471.64H229.858V472.864H240.334V471.64H238.948Z" fill="black"/>
<path d="M145.52 64.56V62.136H151.232V63.096C151.232 63.576 151.232 64.08 151.184 64.56H145.52ZM145.52 58.32H151.232V60.72H145.52V58.32ZM159.104 58.32V60.72H153.056V58.32H159.104ZM159.104 64.56H153.008C153.032 64.104 153.056 63.6 153.056 63.12V62.136H159.104V64.56ZM160.856 66.048V56.832H153.056V54.816H162.368V53.208H141.632V54.816H151.232V56.832H143.816V66.048H150.944C150.656 67.2 150.104 68.28 149 69.216C147.872 68.472 146.912 67.488 146.096 66.24L144.608 66.84C145.424 68.232 146.408 69.336 147.56 70.224C146.096 71.064 144.056 71.736 141.2 72.288C141.584 72.696 142.064 73.44 142.256 73.848C145.376 73.2 147.608 72.312 149.216 71.256C152.48 72.984 156.848 73.512 162.392 73.752C162.488 73.176 162.824 72.432 163.136 72C157.808 71.856 153.68 71.496 150.656 70.128C151.856 68.904 152.504 67.536 152.792 66.048H160.856ZM177.968 57.984H183.272C182.744 61.2 181.928 63.864 180.68 66.024C179.408 63.72 178.52 61.008 177.944 58.032L177.968 57.984ZM187.016 57.984V56.28H178.592C179.024 55.008 179.384 53.664 179.672 52.272L177.824 51.936C177.104 55.704 175.76 59.256 173.84 61.608V54.024H165.752V55.68H172.112V60.384H165.752V68.016C165.752 70.056 166.352 70.56 168.464 70.56H172.16C174.008 70.56 174.512 69.792 174.728 66.768C174.224 66.648 173.48 66.36 173.12 66.072C173.048 68.496 172.904 68.88 172.016 68.88H168.632C167.648 68.88 167.456 68.76 167.456 67.992V62.016H172.112V62.928H173.84V62.136C174.272 62.424 174.848 62.832 175.136 63.048C175.736 62.304 176.288 61.44 176.816 60.48C177.488 63.168 178.376 65.592 179.552 67.656C177.92 69.72 175.688 71.256 172.664 72.336C173 72.72 173.552 73.512 173.744 73.92C176.648 72.744 178.856 71.208 180.56 69.192C182 71.184 183.776 72.744 186.032 73.8C186.32 73.32 186.896 72.624 187.28 72.288C184.976 71.304 183.128 69.72 181.688 67.68C183.344 65.136 184.4 61.968 185.072 57.984H187.016ZM202.208 55.008C201.632 57.192 200.192 58.392 196.28 59.088C196.568 59.4 196.976 59.976 197.12 60.36C200.528 59.688 202.304 58.56 203.24 56.784C204.128 58.512 205.88 60.048 209.96 60.768C210.128 60.336 210.536 59.664 210.872 59.328C205.952 58.608 204.608 56.856 204.08 55.008H207.92C207.488 55.704 206.96 56.376 206.456 56.856L207.872 57.36C208.736 56.52 209.624 55.176 210.296 53.952L209.096 53.592L208.808 53.664H200.6C200.912 53.16 201.176 52.68 201.416 52.176L199.808 51.912C199.184 53.352 197.984 54.96 196.184 56.208C196.616 56.376 197.192 56.76 197.528 57.096C198.368 56.448 199.064 55.752 199.664 55.008H202.208ZM194.12 67.152H206.144V68.832H194.12V67.152ZM194.12 64.344H206.144V66H194.12V64.344ZM194.12 61.584H206.144V63.192H194.12V61.584ZM192.392 70.008H207.92V60.384H192.392V70.008ZM196.184 54.288C195.032 53.688 192.824 52.896 191.168 52.44L190.376 53.664C192.08 54.192 194.288 55.032 195.392 55.68L196.184 54.288ZM195.896 56.904C193.448 57.576 190.928 58.296 189.2 58.704L189.896 60.264C191.696 59.688 193.952 58.992 196.112 58.296L195.896 56.904ZM196.4 70.248C194.696 71.208 191.816 72.048 189.368 72.552C189.776 72.864 190.376 73.56 190.688 73.896C193.064 73.248 196.064 72.144 198.008 71.016L196.4 70.248ZM201.992 71.232C204.608 72.096 207.2 73.104 208.688 73.872L210.656 72.984C208.904 72.192 206.048 71.16 203.456 70.32L201.992 71.232ZM229.064 56.544C228.296 55.656 226.64 54.432 225.296 53.616L224.384 54.816C225.752 55.704 227.384 57 228.152 57.912L229.064 56.544ZM228.032 62.28C227.192 61.416 225.416 60.336 224 59.592L223.16 60.84C224.6 61.608 226.304 62.832 227.144 63.72L228.032 62.28ZM221.096 53.352C220.736 54.96 220.064 57.336 219.512 58.752L220.664 59.136C221.312 57.792 222.056 55.536 222.632 53.736L221.096 53.352ZM216.104 58.704C215.936 57.264 215.384 55.104 214.688 53.448L213.392 53.76C214.016 55.44 214.568 57.648 214.688 59.088L216.104 58.704ZM218.72 61.608H222.632V59.928H218.72V52.008H217.064V59.928H213.224V61.608H216.584C215.744 64.296 214.232 67.392 212.84 69.072C213.128 69.504 213.56 70.296 213.752 70.8C214.952 69.192 216.176 66.528 217.064 63.96V73.824H218.72V63.984C219.584 65.328 220.712 67.176 221.144 68.064L222.32 66.672C221.792 65.856 219.392 62.688 218.72 61.944V61.608ZM235.088 66.528L234.824 64.896L231.992 65.4V51.936H230.312V65.712L222.584 67.08L222.872 68.736L230.312 67.392V73.824H231.992V67.08L235.088 66.528Z" fill="black"/>
<rect x="17.5" y="300.5" width="340" height="40" rx="20" fill="#FCF5EF" stroke="#FEA735" stroke-width="3"/>
<path d="M43.3156 316.172V322.71H41.9016V316.172H43.3156ZM44.1556 323.578V315.318H41.0616V324.922H41.9016V323.578H44.1556ZM46.7456 317.096C46.7596 316.214 46.7736 315.29 46.7736 314.338H45.8636C45.8636 315.304 45.8636 316.228 45.8496 317.096H44.6596V318.034H45.8216C45.7236 321.716 45.3176 324.67 43.5536 326.448C43.7776 326.588 44.1136 326.896 44.2816 327.12C46.1856 325.132 46.6196 321.982 46.7316 318.034H47.9356C47.7816 323.396 47.6136 325.258 47.3056 325.678C47.1796 325.874 47.0816 325.902 46.8996 325.902C46.6896 325.902 46.2836 325.902 45.8356 325.86C45.9756 326.126 46.0736 326.518 46.0736 326.798C46.5356 326.84 46.9976 326.826 47.3056 326.798C47.6416 326.742 47.8796 326.63 48.1036 326.294C48.5236 325.692 48.6776 323.746 48.8596 317.586C48.8736 317.474 48.8736 317.096 48.8736 317.096H46.7456ZM50.2736 324.446V316.858H52.0096V324.446H50.2736ZM49.4196 315.92V326.56H50.2736V325.384H52.0096V326.448H52.9056V315.92H49.4196ZM57.7076 316.55V322.024H55.9576V316.55H57.7076ZM58.6456 322.976V315.584H55.0336V324.208H55.9576V322.976H58.6456ZM62.8876 321.73L62.3136 321.926C62.3416 321.492 62.3556 321.058 62.3556 320.61V314.408H61.3616V316.648H59.0236V317.614H61.3616V319.546H59.1216V320.498H61.3616V320.596C61.3616 321.156 61.3476 321.716 61.2776 322.276C60.2136 322.626 59.2056 322.948 58.4636 323.158L58.8696 324.096C59.5416 323.858 60.2976 323.578 61.0816 323.27C60.7736 324.502 60.0876 325.608 58.6736 326.448C58.9256 326.602 59.2756 326.924 59.4436 327.12C61.2216 326.042 61.9356 324.53 62.2156 322.836L63.0276 322.514L62.8876 321.73ZM67.3536 322.472H64.6096V320.498H67.0456V319.546H64.6096V317.614H67.2136V316.648H64.6096V314.38H63.6016V327.05H64.6096V323.438H67.3536V322.472Z" fill="black"/>
<circle cx="188" cy="196" r="80" fill="#FEA735"/>
<circle cy="196" r="80" fill="#FFEBCC"/>
<path d="M-5.98613 156.999C-5.98613 156.999 -6.58309 144.462 0.055121 141C0.055121 141 7.12315 145.465 6.00086 156.999C6.00086 156.999 1.39232 155.112 -5.98613 156.999Z" fill="#D3AF7C" stroke="black" stroke-width="2" stroke-miterlimit="10"/>
<path d="M-30.4689 252.324V183.22C-30.4689 183.22 -30.4689 156.405 0.0239193 155.999C0.0239193 155.999 28.9885 156.405 29.9914 182.719L30.3973 252.324H-30.4689Z" fill="white" stroke="black" stroke-width="2" stroke-miterlimit="10"/>
<path d="M14.8524 188.808C17.4372 188.808 19.5326 186.712 19.5326 184.127C19.5326 181.543 17.4372 179.447 14.8524 179.447C12.2676 179.447 10.1722 181.543 10.1722 184.127C10.1722 186.712 12.2676 188.808 14.8524 188.808Z" fill="black" stroke="black" stroke-miterlimit="10"/>
<path d="M30.4211 252.229C30.4211 252.229 47.1361 254.33 48.712 239.263C48.712 239.263 52.2461 224.434 34.5521 214.238C32.7374 213.188 30.4211 214.501 30.4211 216.554V252.229Z" fill="#D3AF7C" stroke="black" stroke-width="2" stroke-miterlimit="10"/>
<path d="M20.8461 206.072C24.5914 206.072 27.6275 203.036 27.6275 199.29C27.6275 195.545 24.5914 192.509 20.8461 192.509C17.1007 192.509 14.0646 195.545 14.0646 199.29C14.0646 203.036 17.1007 206.072 20.8461 206.072Z" fill="#D7B995"/>
<path d="M-14.5897 197.977L-5.06218 192.055C-2.55495 190.479 1.45664 190.336 4.1549 191.697L14.1361 196.735C17.7895 198.574 17.2642 202.156 13.1332 203.66L3.51018 207.194C1.59991 207.886 -0.716306 207.982 -2.7221 207.457L-12.6078 204.806C-17.0014 203.636 -18.0282 200.102 -14.5897 197.977Z" fill="#BB8682" stroke="black" stroke-miterlimit="10"/>
<path d="M-17.7179 201.129C-17.7179 201.129 -1.57612 204.919 16.4999 200" stroke="#040000" stroke-width="0.5" stroke-miterlimit="10"/>
<path d="M215.884 167.595C215.884 167.595 226.574 165.301 232.92 176.308C232.92 176.308 241.292 192.88 230.431 199.25C230.431 199.25 222.425 202.789 219.155 193.93C219.13 193.93 219.911 178.675 215.884 167.595Z" fill="#6A4B2E" stroke="black" stroke-width="2" stroke-miterlimit="10"/>
<path d="M161.116 167.595C161.116 167.595 150.426 165.301 144.08 176.308C144.08 176.308 135.708 192.88 146.569 199.25C146.569 199.25 154.575 202.789 157.845 193.93C157.87 193.93 157.089 178.675 161.116 167.595Z" fill="#6A4B2E" stroke="black" stroke-width="2" stroke-miterlimit="10"/>
<path d="M157.992 254.116V183.484C157.992 183.484 157.992 156.075 189.159 155.66C189.159 155.66 218.764 156.075 219.789 182.971L220.204 254.116H157.992Z" fill="#906526" stroke="black" stroke-width="2" stroke-miterlimit="10"/>
<path d="M173.416 187.511C176.058 187.511 178.2 185.369 178.2 182.727C178.2 180.085 176.058 177.943 173.416 177.943C170.774 177.943 168.633 180.085 168.633 182.727C168.633 185.369 170.774 187.511 173.416 187.511Z" fill="black" stroke="black" stroke-miterlimit="10"/>
<path d="M204.779 187.511C207.421 187.511 209.563 185.369 209.563 182.727C209.563 180.085 207.421 177.943 204.779 177.943C202.137 177.943 199.996 180.085 199.996 182.727C199.996 185.369 202.137 187.511 204.779 187.511Z" fill="black" stroke="black" stroke-miterlimit="10"/>
<path d="M186.206 189.097H192.015C195.603 189.097 197.555 192.221 195.285 194.271L192.381 196.907C190.697 198.445 187.548 198.445 185.864 196.907L182.96 194.271C180.666 192.197 182.618 189.097 186.206 189.097Z" fill="black" stroke="black" stroke-miterlimit="10"/>
<path d="M178.713 207.646L188.988 198.909L199.507 208.72" stroke="black" stroke-width="2" stroke-miterlimit="10"/>
<path d="M203.242 158.613C204.218 159.004 205.341 158.76 206 157.954C207.806 155.733 210.076 152.585 204.633 149.9C203.608 149.387 203.046 148.24 203.266 147.118C203.632 145.287 202.998 142.773 196.701 142.846C195.602 142.871 194.626 142.163 194.309 141.114C193.601 138.771 191.795 135.549 187.597 140.113C186.962 140.821 185.962 141.114 185.059 140.796C182.765 140.015 178.591 139.185 178.469 143.261C178.445 144.384 177.566 145.312 176.443 145.507C174.295 145.897 171.537 146.825 172.587 149.143C172.953 149.973 172.807 150.95 172.221 151.633C170.659 153.439 168.657 156.539 173.807 158.76C173.807 158.784 187.377 152.194 203.242 158.613Z" fill="#6A4B2E" stroke="black" stroke-width="2" stroke-miterlimit="10"/>
<circle cx="375" cy="196" r="80" fill="#FFEBCC"/>
<path d="M355.175 253.799V186.804C355.175 186.804 353.5 163.5 377.5 157.5C377.5 157.5 342.946 149.378 344.761 177.705C344.761 177.705 321.427 183.795 337.906 201.804C337.906 201.804 318.537 212.169 336.927 225.902C336.927 225.902 322.764 243.099 347.221 252.748C347.221 252.748 350.684 254.205 355.175 253.799Z" fill="#DBA8CC" stroke="#040000" stroke-width="2" stroke-miterlimit="10"/>
<path d="M364.26 164.584C364.26 164.584 361.514 160.405 356.737 159.33C356.737 159.33 349.882 157.419 350.002 162.793C350.002 162.793 351.172 171.033 357.406 173.923C357.406 173.923 360.295 166.615 364.26 164.584Z" fill="white" stroke="black" stroke-width="2" stroke-miterlimit="10"/>
<path d="M355.175 253.799V184.679C355.175 184.679 355.175 157.857 385.674 157.451C385.674 157.451 414.645 157.857 415.649 184.177L416.055 253.799" fill="white" stroke="black" stroke-width="2" stroke-miterlimit="10"/>
<path d="M369.815 190.292C372.401 190.292 374.497 188.196 374.497 185.61C374.497 183.025 372.401 180.929 369.815 180.929C367.23 180.929 365.134 183.025 365.134 185.61C365.134 188.196 367.23 190.292 369.815 190.292Z" fill="black" stroke="black" stroke-miterlimit="10"/>
<path d="M404.065 230.822C419.47 226.834 412.83 213.483 412.83 213.483C405.187 194.089 386.08 195.331 386.08 195.331C367.308 195.307 359.068 212.48 359.068 212.48C351.711 229.939 369.409 231.252 369.409 231.252C369.409 231.252 393.078 233.665 404.065 230.822Z" fill="white" stroke="black" stroke-width="2" stroke-miterlimit="10"/>
<rect x="225" y="729" width="134" height="43" rx="21.5" fill="#FEA735"/>
<path d="M276.923 745.12H289.181V747.622H290.567V743.86H283.727V741.952H282.341V743.86H275.573V747.622H276.923V745.12ZM287.921 748.36V747.118H278.219V748.36H287.921ZM286.589 756.838C285.833 756.838 285.707 756.73 285.707 756.226V751.672H290.999V750.412H275.159V751.672H279.803C279.479 754.39 278.597 756.316 274.763 757.27C275.051 757.522 275.411 758.08 275.555 758.404C279.749 757.234 280.811 754.93 281.225 751.672H284.375V756.226C284.375 757.648 284.807 758.062 286.445 758.062H289.217C290.639 758.062 291.035 757.432 291.179 754.984C290.819 754.876 290.261 754.66 289.955 754.462C289.901 756.514 289.775 756.838 289.109 756.838H286.589ZM304.139 742.834C305.273 743.446 306.641 744.364 307.325 744.994L308.153 744.076C307.451 743.446 306.047 742.582 304.931 742.024L304.139 742.834ZM306.695 747.694C306.137 749.512 305.363 751.132 304.391 752.554C303.905 750.844 303.581 748.702 303.401 746.308H309.125V744.994H303.311C303.257 744.022 303.239 743.014 303.239 741.97H301.853C301.871 742.996 301.889 744.004 301.961 744.994H294.455V750.016C294.455 752.338 294.293 755.416 292.817 757.612C293.123 757.774 293.699 758.242 293.933 758.512C295.553 756.172 295.823 752.554 295.823 750.034V749.89H299.099C299.027 752.986 298.937 754.12 298.685 754.39C298.577 754.552 298.397 754.588 298.145 754.588C297.839 754.588 297.065 754.57 296.237 754.498C296.453 754.84 296.597 755.344 296.615 755.758C297.497 755.794 298.307 755.794 298.757 755.758C299.261 755.704 299.567 755.578 299.837 755.236C300.215 754.768 300.323 753.256 300.413 749.224V748.648H295.823V746.308H302.033C302.267 749.206 302.699 751.852 303.347 753.886C302.195 755.236 300.809 756.352 299.207 757.216C299.513 757.468 299.981 758.008 300.179 758.278C301.565 757.468 302.807 756.46 303.887 755.29C304.715 757.144 305.795 758.242 307.181 758.242C308.549 758.242 309.035 757.36 309.287 754.3C308.927 754.192 308.441 753.886 308.135 753.58C308.009 755.974 307.793 756.91 307.289 756.91C306.371 756.91 305.543 755.884 304.877 754.12C306.209 752.41 307.271 750.358 308.045 748.036L306.695 747.694Z" fill="black"/>
<g clip-path="url(#clip1_117_17)">
<path d="M38 86.0007C50.1506 86.0007 60.0007 76.1506 60.0007 64C60.0007 51.8493 50.1506 41.9993 38 41.9993C25.8493 41.9993 15.9993 51.8493 15.9993 64C15.9993 76.1506 25.8493 86.0007 38 86.0007Z" fill="#FEA735"/>
<path d="M46.6571 62.4124L32.8641 62.2907L37.8624 56.5786C38.4399 55.9186 38.3729 54.9159 37.7128 54.3384C37.0531 53.7613 36.0497 53.8279 35.4726 54.4877L28.3459 62.6325C28.0001 62.9208 27.774 63.348 27.7694 63.8331C27.7694 63.8405 27.7715 63.8479 27.7715 63.8553C27.7641 64.2321 27.8883 64.6117 28.1487 64.9172L35.4595 73.496C35.7735 73.8643 36.2194 74.0538 36.6685 74.0538C37.0326 74.0538 37.3985 73.9292 37.6976 73.6745C38.3651 73.1058 38.4448 72.1035 37.8761 71.4364L32.7868 65.4654L46.6289 65.5875C46.6338 65.5875 46.6384 65.5875 46.6433 65.5875C47.5137 65.5875 48.2228 64.8858 48.2305 64.014C48.2383 63.1374 47.5341 62.4201 46.6571 62.4124Z" fill="black"/>
</g>
<path opacity="0.35" d="M338.979 16.5026H355.469C356.666 16.5026 357.636 17.4727 357.636 18.6693V24.6693C357.636 25.8659 356.666 26.836 355.469 26.836H338.979C337.782 26.836 336.812 25.8659 336.812 24.6693V18.6693C336.812 17.4727 337.782 16.5026 338.979 16.5026Z" stroke="black"/>
<path opacity="0.4" d="M359.128 19.6693V23.6693C359.926 23.3305 360.445 22.5424 360.445 21.6693C360.445 20.7962 359.926 20.0081 359.128 19.6693" fill="black"/>
<path d="M338.296 19.336C338.296 18.5996 338.893 18.0026 339.629 18.0026H354.819C355.555 18.0026 356.152 18.5996 356.152 19.336V24.0026C356.152 24.739 355.555 25.336 354.819 25.336H339.629C338.893 25.336 338.296 24.739 338.296 24.0026V19.336Z" fill="black"/>
<path fill-rule="evenodd" clip-rule="evenodd" d="M323.744 18.2773C325.942 18.2774 328.056 19.1289 329.649 20.6557C329.769 20.7735 329.961 20.772 330.079 20.6523L331.226 19.4857C331.286 19.4249 331.319 19.3427 331.318 19.2571C331.318 19.1715 331.284 19.0897 331.223 19.0297C327.042 14.9901 320.445 14.9901 316.264 19.0297C316.203 19.0896 316.169 19.1715 316.168 19.257C316.168 19.3426 316.201 19.4249 316.261 19.4857L317.408 20.6523C317.526 20.7722 317.718 20.7737 317.838 20.6557C319.431 19.1288 321.545 18.2773 323.744 18.2773ZM323.744 22.073C324.951 22.0729 326.116 22.5255 327.011 23.3427C327.132 23.4587 327.323 23.4562 327.441 23.337L328.587 22.1704C328.647 22.1092 328.68 22.0261 328.68 21.9399C328.679 21.8536 328.644 21.7713 328.582 21.7114C325.856 19.155 321.634 19.155 318.908 21.7114C318.846 21.7713 318.811 21.8537 318.81 21.9399C318.809 22.0262 318.843 22.1092 318.903 22.1704L320.049 23.337C320.167 23.4562 320.357 23.4587 320.478 23.3427C321.373 22.526 322.537 22.0735 323.744 22.073ZM326.038 24.6268C326.04 24.7133 326.006 24.7967 325.945 24.8573L323.964 26.873C323.906 26.9323 323.826 26.9656 323.744 26.9656C323.661 26.9656 323.582 26.9323 323.524 26.873L321.542 24.8573C321.481 24.7967 321.447 24.7133 321.449 24.6268C321.451 24.5403 321.488 24.4583 321.552 24.4003C322.817 23.3215 324.67 23.3215 325.936 24.4003C325.999 24.4584 326.037 24.5403 326.038 24.6268Z" fill="black"/>
<path fill-rule="evenodd" clip-rule="evenodd" d="M312.189 16.336H311.197C310.65 16.336 310.205 16.7837 310.205 17.336V26.0027C310.205 26.555 310.65 27.0027 311.197 27.0027H312.189C312.737 27.0027 313.181 26.555 313.181 26.0027V17.336C313.181 16.7837 312.737 16.336 312.189 16.336ZM306.568 18.6693H307.56C308.108 18.6693 308.552 19.117 308.552 19.6693V26.0026C308.552 26.5549 308.108 27.0026 307.56 27.0026H306.568C306.02 27.0026 305.576 26.5549 305.576 26.0026V19.6693C305.576 19.117 306.02 18.6693 306.568 18.6693ZM302.931 21.0027H301.939C301.391 21.0027 300.947 21.4504 300.947 22.0027V26.0027C300.947 26.555 301.391 27.0027 301.939 27.0027H302.931C303.479 27.0027 303.923 26.555 303.923 26.0027V22.0027C303.923 21.4504 303.479 21.0027 302.931 21.0027ZM298.301 23.0027H297.309C296.762 23.0027 296.317 23.4504 296.317 24.0027V26.0027C296.317 26.5549 296.762 27.0027 297.309 27.0027H298.301C298.849 27.0027 299.293 26.5549 299.293 26.0027V24.0027C299.293 23.4504 298.849 23.0027 298.301 23.0027Z" fill="black"/>
<path d="M38.4455 22.8765C37.9133 23.355 37.3176 23.5942 36.6584 23.5942C35.6916 23.5942 34.925 23.2671 34.3586 22.6128C33.7922 21.9585 33.509 21.0845 33.509 19.9907C33.509 19.3071 33.6677 18.6724 33.9851 18.0864C34.3025 17.5005 34.7468 17.0366 35.3181 16.6948C35.8943 16.353 36.529 16.1821 37.2224 16.1821C37.9255 16.1821 38.5603 16.3604 39.1267 16.7168C39.698 17.0684 40.1423 17.5688 40.4597 18.2183C40.7771 18.8628 40.9406 19.6074 40.9504 20.4521V21.397C40.9504 22.5737 40.7185 23.5942 40.2546 24.4585C39.7956 25.3228 39.1389 25.9868 38.2844 26.4507C37.4299 26.9146 36.4338 27.1465 35.2961 27.1465H35.1423V25.1689L35.6111 25.1616C37.3103 25.0786 38.2551 24.3169 38.4455 22.8765ZM37.3249 21.8145C37.862 21.8145 38.2478 21.5825 38.4821 21.1187V20.0933C38.4821 19.4097 38.3674 18.9043 38.1379 18.5771C37.9084 18.25 37.5984 18.0864 37.2077 18.0864C36.8611 18.0864 36.5705 18.272 36.3361 18.6431C36.1018 19.0142 35.9846 19.4634 35.9846 19.9907C35.9846 20.5474 36.1042 20.9917 36.3435 21.3237C36.5827 21.6509 36.9099 21.8145 37.3249 21.8145ZM43.5435 24.605C43.9341 24.605 44.2588 24.7222 44.5176 24.9565C44.7764 25.186 44.9058 25.4814 44.9058 25.8428C44.9058 26.2041 44.7764 26.502 44.5176 26.7363C44.2588 26.9658 43.9341 27.0806 43.5435 27.0806C43.148 27.0806 42.8208 26.9634 42.562 26.729C42.3081 26.4946 42.1812 26.1992 42.1812 25.8428C42.1812 25.4863 42.3081 25.1909 42.562 24.9565C42.8208 24.7222 43.148 24.605 43.5435 24.605ZM43.5435 18.7603C43.9341 18.7603 44.2588 18.8774 44.5176 19.1118C44.7764 19.3413 44.9058 19.6367 44.9058 19.998C44.9058 20.3594 44.7764 20.6572 44.5176 20.8916C44.2588 21.1211 43.9341 21.2358 43.5435 21.2358C43.148 21.2358 42.8208 21.1187 42.562 20.8843C42.3081 20.6499 42.1812 20.3545 42.1812 19.998C42.1812 19.6416 42.3081 19.3462 42.562 19.1118C42.8208 18.8774 43.148 18.7603 43.5435 18.7603ZM51.6517 27H49.1761V19.1191L46.7444 19.8296V17.9546L51.4246 16.3359H51.6517V27ZM61.0856 22.8325H62.1695V24.7368H61.0856V27H58.6173V24.7368H54.4938L54.3473 23.228L58.6173 16.3579V16.3359H61.0856V22.8325ZM56.6984 22.8325H58.6173V19.5513L58.4635 19.8003L56.6984 22.8325Z" fill="black"/>
</g>
<defs>
<clipPath id="clip0_117_17">
<rect width="375" height="812" rx="40" fill="white"/>
</clipPath>
<clipPath id="clip1_117_17">
<rect width="44" height="44" fill="white" transform="translate(16 42)"/>
</clipPath>
</defs>
</svg>
