<svg width="375" height="812" viewBox="0 0 375 812" fill="none" xmlns="http://www.w3.org/2000/svg">
<g clip-path="url(#clip0_222_1026)">
<rect width="375" height="812" rx="40" fill="#FCF5EF"/>
<rect x="121" y="799" width="134" height="5" rx="2.5" fill="black"/>
<g clip-path="url(#clip1_222_1026)">
<path d="M38 86.0007C50.1506 86.0007 60.0007 76.1506 60.0007 64C60.0007 51.8493 50.1506 41.9993 38 41.9993C25.8493 41.9993 15.9993 51.8493 15.9993 64C15.9993 76.1506 25.8493 86.0007 38 86.0007Z" fill="black"/>
<path d="M38 86.0007C50.1506 86.0007 60.0007 76.1506 60.0007 64C60.0007 51.8493 50.1506 41.9993 38 41.9993C25.8493 41.9993 15.9993 51.8493 15.9993 64C15.9993 76.1506 25.8493 86.0007 38 86.0007Z" fill="#FEA735"/>
<path d="M46.6571 62.4124L32.8641 62.2907L37.8624 56.5786C38.4399 55.9186 38.3729 54.9159 37.7128 54.3384C37.0531 53.7613 36.0498 53.8279 35.4726 54.4877L28.3459 62.6325C28.0001 62.9208 27.774 63.348 27.7694 63.8331C27.7694 63.8405 27.7715 63.8479 27.7715 63.8553C27.7641 64.2321 27.8883 64.6117 28.1487 64.9172L35.4595 73.496C35.7735 73.8643 36.2194 74.0538 36.6685 74.0538C37.0326 74.0538 37.3985 73.9292 37.6976 73.6745C38.3651 73.1058 38.4448 72.1035 37.8761 71.4364L32.7868 65.4654L46.6289 65.5875C46.6338 65.5875 46.6384 65.5875 46.6433 65.5875C47.5137 65.5875 48.2228 64.8858 48.2305 64.014C48.2383 63.1374 47.5341 62.4201 46.6571 62.4124Z" fill="black"/>
</g>
<path d="M124.64 59.544V61.44H120.296V59.544H124.64ZM120.296 64.608V62.712H124.64V64.608H120.296ZM127.256 56.064C126.392 54.864 124.64 53.136 123.176 51.936H121.448C120.56 53.904 118.928 56.352 116.576 58.2C116.936 58.416 117.488 58.944 117.776 59.304C118.088 59.04 118.376 58.776 118.664 58.512V70.872C118.088 71.016 117.536 71.136 117.056 71.232L117.584 72.912C119.624 72.336 122.288 71.592 124.856 70.848C125.24 71.592 125.552 72.312 125.72 72.888L127.256 72.168C126.752 70.704 125.456 68.472 124.184 66.792L122.768 67.44C123.224 68.064 123.68 68.784 124.112 69.504C122.792 69.84 121.496 70.176 120.296 70.488V65.976H126.224V58.224H123.44V55.944H121.904V58.224H118.976C120.584 56.616 121.76 54.864 122.576 53.424C123.92 54.576 125.36 56.28 126.104 57.36L127.256 56.064ZM132.704 61.872V66.456H129.344V61.872H132.704ZM134.168 67.944V60.384H127.856V69.888H129.344V67.944H134.168ZM134.792 56.832H127.328V58.296H134.792V56.832ZM138.2 53.064H127.16V54.72H136.52V71.496C136.52 71.952 136.328 72.096 135.896 72.12C135.464 72.12 134.072 72.144 132.368 72.096C132.656 72.552 132.968 73.368 133.064 73.824C135.224 73.848 136.376 73.8 137.12 73.512C137.912 73.2 138.2 72.6 138.2 71.52V53.064ZM147.656 69.24H151.136C151.76 70.008 152.528 70.656 153.44 71.232C151.472 71.4 149.48 71.568 147.656 71.712V69.24ZM155.024 61.224C155.504 61.896 156.08 62.544 156.728 63.144H152.792V61.824H151.112V63.144H147.368C148.04 62.544 148.616 61.896 149.144 61.224H155.024ZM147.656 64.344H156.344V65.64H147.656V64.344ZM147.656 68.04V66.696H156.344V68.04H147.656ZM158.12 69.24V64.272C159.296 65.136 160.616 65.832 161.936 66.288C162.176 65.832 162.68 65.232 163.064 64.896C160.736 64.224 158.384 62.832 156.896 61.224H162.536V59.832H152.864V58.464H159.872V57.12H152.864V55.776H161.168V54.36H156.608C157.088 53.784 157.592 53.064 158.096 52.368L156.2 51.888C155.864 52.584 155.24 53.64 154.76 54.36H149.144L149.264 54.312C148.976 53.592 148.256 52.584 147.56 51.864L146.024 52.416C146.528 52.992 147.008 53.712 147.368 54.36H142.784V55.776H151.064V57.12H144.104V58.464H151.064V59.832H141.44V61.224H147.056C145.496 62.928 143.192 64.368 140.84 65.304C141.248 65.592 141.872 66.264 142.088 66.576C143.36 66 144.68 65.256 145.88 64.368V71.832L143.144 72.048L143.336 73.608C146.12 73.368 150.056 73.008 153.8 72.624V71.448C155.912 72.696 158.648 73.488 161.672 73.848C161.888 73.392 162.296 72.696 162.656 72.36C160.76 72.192 158.936 71.88 157.352 71.424C158.552 70.92 159.896 70.272 160.952 69.6L159.632 68.808C158.672 69.408 157.112 70.272 155.792 70.872C154.688 70.416 153.752 69.888 152.984 69.24H158.12ZM171.152 52.056C170.672 52.992 170 53.952 169.256 54.888C168.56 53.952 167.696 53.016 166.592 52.104L165.344 53.088C166.544 54.096 167.432 55.152 168.128 56.232C167.144 57.288 166.064 58.272 164.984 59.064C165.368 59.352 165.944 59.88 166.208 60.24C167.144 59.52 168.08 58.68 168.944 57.792C169.4 58.8 169.664 59.856 169.832 60.96C168.752 63.168 166.808 65.52 165.08 66.744C165.512 67.08 166.016 67.656 166.304 68.112C167.6 67.056 168.968 65.4 170.072 63.672C170.096 64.056 170.096 64.44 170.096 64.8C170.096 67.992 169.856 70.8 169.232 71.64C169.04 71.904 168.8 72.024 168.416 72.072C167.84 72.144 166.88 72.144 165.68 72.072C165.992 72.576 166.184 73.224 166.184 73.824C167.264 73.872 168.296 73.872 169.16 73.704C169.736 73.608 170.216 73.32 170.552 72.888C171.56 71.544 171.824 68.352 171.824 64.824C171.824 61.92 171.584 59.088 170.192 56.448C171.176 55.296 172.064 54.096 172.76 52.896L171.152 52.056ZM179.96 61.584V66.432H176.264V61.584H179.96ZM181.568 67.992V60.024H174.632V69.744H176.264V67.992H181.568ZM176.72 55.464C177.152 54.456 177.536 53.4 177.848 52.344L176.144 51.936C175.232 55.128 173.696 58.32 171.848 60.36C172.256 60.624 172.952 61.128 173.264 61.44C174.248 60.264 175.184 58.776 176 57.12H184.472C184.184 67.2 183.8 70.872 183.128 71.688C182.864 72.024 182.6 72.096 182.216 72.072C181.688 72.072 180.464 72.072 179.144 71.976C179.456 72.456 179.624 73.224 179.672 73.752C180.896 73.824 182.168 73.848 182.912 73.776C183.704 73.68 184.208 73.464 184.712 72.768C185.6 71.616 185.888 67.8 186.224 56.424C186.224 56.16 186.248 55.464 186.248 55.464H176.72ZM195.152 52.056C194.672 52.992 194 53.952 193.256 54.888C192.56 53.952 191.696 53.016 190.592 52.104L189.344 53.088C190.544 54.096 191.432 55.152 192.128 56.232C191.144 57.288 190.064 58.272 188.984 59.064C189.368 59.352 189.944 59.88 190.208 60.24C191.144 59.52 192.08 58.68 192.944 57.792C193.4 58.8 193.664 59.856 193.832 60.96C192.752 63.168 190.808 65.52 189.08 66.744C189.512 67.08 190.016 67.656 190.304 68.112C191.6 67.056 192.968 65.4 194.072 63.672C194.096 64.056 194.096 64.44 194.096 64.8C194.096 67.992 193.856 70.8 193.232 71.64C193.04 71.904 192.8 72.024 192.416 72.072C191.84 72.144 190.88 72.144 189.68 72.072C189.992 72.576 190.184 73.224 190.184 73.824C191.264 73.872 192.296 73.872 193.16 73.704C193.736 73.608 194.216 73.32 194.552 72.888C195.56 71.544 195.824 68.352 195.824 64.824C195.824 61.92 195.584 59.088 194.192 56.448C195.176 55.296 196.064 54.096 196.76 52.896L195.152 52.056ZM203.96 61.584V66.432H200.264V61.584H203.96ZM205.568 67.992V60.024H198.632V69.744H200.264V67.992H205.568ZM200.72 55.464C201.152 54.456 201.536 53.4 201.848 52.344L200.144 51.936C199.232 55.128 197.696 58.32 195.848 60.36C196.256 60.624 196.952 61.128 197.264 61.44C198.248 60.264 199.184 58.776 200 57.12H208.472C208.184 67.2 207.8 70.872 207.128 71.688C206.864 72.024 206.6 72.096 206.216 72.072C205.688 72.072 204.464 72.072 203.144 71.976C203.456 72.456 203.624 73.224 203.672 73.752C204.896 73.824 206.168 73.848 206.912 73.776C207.704 73.68 208.208 73.464 208.712 72.768C209.6 71.616 209.888 67.8 210.224 56.424C210.224 56.16 210.248 55.464 210.248 55.464H200.72ZM232.232 60.528H224.192V58.224H232.232V60.528ZM232.232 64.176H224.192V61.824H232.232V64.176ZM232.232 67.824H224.192V65.472H232.232V67.824ZM222.512 56.832V69.216H233.984V56.832H228.32C228.56 56.16 228.8 55.392 229.04 54.648H234.824V53.088H221.408V54.648H227C226.88 55.344 226.688 56.136 226.52 56.832H222.512ZM219.032 52.344C217.616 54.024 215.096 55.872 213.008 56.928C213.488 57.24 214.016 57.792 214.328 58.2C216.488 56.952 219.032 55.008 220.712 53.04L219.032 52.344ZM219.464 59.016C218.072 60.888 215.504 62.808 213.32 63.912C213.8 64.272 214.304 64.848 214.64 65.28C216.92 63.96 219.488 61.848 221.096 59.712L219.464 59.016ZM219.968 65.688C218.528 68.208 215.72 70.56 212.936 71.88C213.416 72.264 213.944 72.864 214.208 73.296C217.16 71.736 219.968 69.192 221.648 66.336L219.968 65.688ZM225.2 69.744C224.024 70.776 221.576 71.952 219.536 72.576C219.872 72.936 220.424 73.488 220.664 73.848C222.752 73.152 225.2 71.928 226.736 70.728L225.2 69.744ZM229.232 70.8C230.84 71.664 232.952 72.984 233.984 73.872L235.376 72.792C234.272 71.904 232.16 70.632 230.552 69.84L229.232 70.8ZM243.872 56.784H247.664V55.128H240.824C241.112 54.216 241.376 53.256 241.568 52.248L239.84 51.912C239.264 54.816 238.28 57.672 236.864 59.52C237.272 59.76 238.016 60.24 238.328 60.552C239.072 59.52 239.696 58.224 240.272 56.784H242.096V60.72C242.096 60.984 242.096 61.272 242.096 61.56H237.152V63.264H241.976C241.664 66.408 240.536 69.864 236.888 72.456C237.272 72.72 237.896 73.392 238.136 73.776C240.872 71.832 242.336 69.24 243.104 66.696C244.4 68.16 246.272 70.416 247.088 71.592L248.288 70.08C247.544 69.24 244.64 66 243.512 64.872C243.608 64.344 243.704 63.792 243.752 63.264H248.36V61.56H243.848C243.872 61.272 243.872 60.984 243.872 60.744V56.784ZM250.856 69.576V55.68H255.92V69.576H250.856ZM249.128 54V73.152H250.856V71.256H255.92V72.912H257.696V54H249.128Z" fill="black"/>
<path d="M32.906 133.544V132.212H17.534V133.544H25.49C23.708 136.622 20.63 139.61 17.084 141.392C17.354 141.698 17.786 142.22 17.984 142.562C20.486 141.248 22.682 139.394 24.5 137.324V147.332H25.922V135.524C26.372 134.858 26.804 134.21 27.2 133.544H32.906ZM26.282 137.414C28.406 138.818 31.07 140.942 32.348 142.31L33.41 141.284C32.096 139.916 29.36 137.9 27.272 136.55L26.282 137.414ZM42.752 137.468V141.572H38.054V137.468H42.752ZM44.066 142.85V136.172H36.758V144.29H38.054V142.85H44.066ZM50.852 132.212H34.922V133.544H47.27V145.442C47.27 145.82 47.144 145.946 46.748 145.964C46.334 145.982 44.858 146 43.418 145.928C43.634 146.306 43.904 146.972 43.994 147.35C45.758 147.35 47 147.35 47.72 147.098C48.404 146.9 48.638 146.414 48.638 145.46V133.544H50.852V132.212ZM68.528 132.194H63.974V130.934H62.642V132.194H58.268V133.202H68.528V132.194ZM57.53 131.564H53.102V132.644H57.53V131.564ZM58.034 133.922H52.256V135.02H58.034V133.922ZM56.45 142.238V145.244H54.056V142.238H56.45ZM57.566 141.14H52.976V147.17H54.056V146.324H57.566V141.14ZM52.994 139.808H57.566V138.728H52.994V139.808ZM52.994 137.414H57.566V136.352H52.994V137.414ZM61.976 140.672H64.676V141.68H61.976V140.672ZM61.976 138.836H64.676V139.772H61.976V138.836ZM59.978 134.768H61.868V136.154H59.978V134.768ZM64.91 134.768H66.872V136.154H64.91V134.768ZM67.646 142.958C67.106 143.336 66.224 143.858 65.486 144.254C65.09 143.768 64.766 143.246 64.514 142.67H68.636V141.68H65.9V140.672H67.97V139.772H65.9V138.836H68.294V137.936H65.9V136.964H67.952V133.958H63.884V136.964H64.676V137.936H61.976V136.964H62.93V133.958H58.952V136.964H60.788V137.936H58.592V138.836H60.788V139.772H58.916V140.672H60.788V141.68H58.034V142.67H61.526C60.482 143.318 59.078 143.822 57.764 144.164C57.98 144.38 58.286 144.83 58.43 145.046C59.096 144.83 59.798 144.578 60.482 144.272V145.91C59.87 146 59.294 146.09 58.808 146.162L59.15 147.224C60.734 146.954 62.75 146.594 64.712 146.234L64.64 145.226C63.614 145.406 62.588 145.568 61.634 145.73V143.678C62.174 143.372 62.678 143.03 63.092 142.67H63.38C64.226 144.938 65.828 146.63 68.132 147.404C68.294 147.098 68.636 146.666 68.888 146.432C67.808 146.126 66.872 145.604 66.116 144.92C66.854 144.56 67.7 144.146 68.366 143.642L67.646 142.958ZM80.03 145.874C78.896 145.874 78.698 145.658 78.698 144.74V137.918L80.966 137.072V143.408H82.118V136.64L84.548 135.722C84.53 138.566 84.494 140.528 84.368 141.014C84.278 141.464 84.098 141.536 83.864 141.536C83.666 141.536 83.144 141.536 82.802 141.518C82.946 141.806 83.036 142.256 83.09 142.616C83.54 142.616 84.152 142.598 84.602 142.49C85.07 142.382 85.43 142.058 85.556 141.338C85.682 140.6 85.736 137.99 85.736 134.678L85.79 134.462L84.908 134.102L84.692 134.282L84.548 134.408L82.118 135.326V130.988H80.966V135.758L78.698 136.622V132.518H77.492V137.072L75.476 137.828L75.872 138.944L74.234 139.43V135.866H76.088V134.606H74.234V130.952H72.992V134.606H71.678C71.822 133.778 71.912 132.914 72.002 132.068L70.886 131.888C70.688 134.066 70.4 136.352 69.752 137.846C70.04 137.99 70.544 138.296 70.724 138.44C71.03 137.72 71.264 136.838 71.462 135.866H72.992V139.79C71.786 140.15 70.67 140.456 69.806 140.69L70.22 141.932L72.992 141.086V147.368H74.234V140.708C74.972 140.492 75.71 140.258 76.448 140.024L76.268 138.836L77.492 138.368V144.722C77.492 146.576 78.05 147.044 79.976 147.044H84.152C85.862 147.044 86.24 146.288 86.456 144.074C86.078 143.984 85.592 143.786 85.286 143.588C85.178 145.424 84.998 145.874 84.098 145.874H80.03ZM91.712 133.868V141.698H89.444V133.868H91.712ZM92.936 132.572H88.202V144.38H89.444V142.994H92.936V132.572ZM103.736 134.948V133.688H96.788C97.112 132.914 97.418 132.086 97.67 131.24L96.338 130.934C95.708 133.238 94.61 135.47 93.242 136.91C93.548 137.108 94.106 137.558 94.358 137.792C95.024 137 95.654 136.046 96.194 134.948H103.736ZM96.788 145.784C95.96 145.784 95.456 145.586 95.456 145.118C95.456 144.506 95.924 143.588 102.638 138.098C102.728 138.008 102.818 137.936 102.854 137.846L101.936 137.342L101.63 137.396H95.186V138.638H99.938C94.34 143.372 94.07 144.398 94.07 145.28C94.07 146.432 94.934 147.098 96.842 147.098H101.774C103.394 147.098 103.934 146.594 104.114 143.552C103.718 143.48 103.25 143.318 102.89 143.102C102.818 145.442 102.602 145.784 101.846 145.784H96.788Z" fill="black"/>
<g clip-path="url(#clip2_222_1026)">
<rect x="16" y="166" width="90" height="99" rx="15" fill="white"/>
<path d="M106 193L16 193L16 181C16 172.716 22.7157 166 31 166L91 166C99.2843 166 106 172.716 106 181L106 193Z" fill="#FEE1AA"/>
<path d="M82.4932 197.594C82.4932 197.594 82.4932 211.994 68.8941 217.099L66.5994 214.535C66.5994 214.535 75.1931 213.18 78.3118 203.908C78.3118 203.908 79.336 199.658 79.3822 197.594C79.3822 197.594 79.4438 196.208 81.0455 196.008C81.0378 196 82.5779 195.831 82.4932 197.594Z" fill="#643219" stroke="black" stroke-width="2" stroke-miterlimit="10"/>
<path d="M70.7655 234.171C74.2103 234.171 77.0029 231.379 77.0029 227.934C77.0029 224.489 74.2103 221.697 70.7655 221.697C67.3207 221.697 64.5281 224.489 64.5281 227.934C64.5281 231.379 67.3207 234.171 70.7655 234.171Z" fill="#423052" stroke="black" stroke-width="2" stroke-miterlimit="10"/>
<path d="M70.4533 225.08C71.1321 224.493 71.3082 223.584 70.8465 223.05C70.3847 222.516 69.4601 222.559 68.7813 223.146C68.1024 223.733 67.9264 224.641 68.3881 225.175C68.8498 225.709 69.7744 225.667 70.4533 225.08Z" fill="#6A567A"/>
<path d="M56.6813 219.402C60.1261 219.402 62.9187 216.609 62.9187 213.164C62.9187 209.72 60.1261 206.927 56.6813 206.927C53.2364 206.927 50.4438 209.72 50.4438 213.164C50.4438 216.609 53.2364 219.402 56.6813 219.402Z" fill="#8C709A" stroke="black" stroke-width="2" stroke-miterlimit="10"/>
<path d="M56.375 210.308C57.0539 209.722 57.2299 208.813 56.7682 208.279C56.3065 207.745 55.3819 207.788 54.703 208.374C54.0242 208.961 53.8482 209.87 54.3099 210.404C54.7716 210.938 55.6962 210.895 56.375 210.308Z" fill="#9E87AD"/>
<path d="M45.3309 219.894C48.7757 219.894 51.5683 217.102 51.5683 213.657C51.5683 210.212 48.7757 207.42 45.3309 207.42C41.8861 207.42 39.0935 210.212 39.0935 213.657C39.0935 217.102 41.8861 219.894 45.3309 219.894Z" fill="#645293" stroke="black" stroke-width="2" stroke-miterlimit="10"/>
<path d="M45.0187 210.803C45.6976 210.217 45.8736 209.308 45.4119 208.774C44.9502 208.24 44.0256 208.283 43.3467 208.869C42.6679 209.456 42.4918 210.365 42.9536 210.899C43.4153 211.433 44.3399 211.39 45.0187 210.803Z" fill="#8B81B1"/>
<path d="M40.364 242.511C43.8088 242.511 46.6014 239.718 46.6014 236.274C46.6014 232.829 43.8088 230.036 40.364 230.036C36.9192 230.036 34.1266 232.829 34.1266 236.274C34.1266 239.718 36.9192 242.511 40.364 242.511Z" fill="#645293" stroke="black" stroke-width="2" stroke-miterlimit="10"/>
<path d="M40.0519 233.42C40.7308 232.833 40.9068 231.924 40.4451 231.39C39.9834 230.856 39.0588 230.899 38.3799 231.486C37.7011 232.073 37.525 232.981 37.9868 233.515C38.4485 234.05 39.3731 234.007 40.0519 233.42Z" fill="#8B81B1"/>
<path d="M41.3804 231.084C44.8252 231.084 47.6178 228.291 47.6178 224.846C47.6178 221.401 44.8252 218.609 41.3804 218.609C37.9355 218.609 35.1429 221.401 35.1429 224.846C35.1429 228.291 37.9355 231.084 41.3804 231.084Z" fill="#533B62" stroke="black" stroke-width="2" stroke-miterlimit="10"/>
<path d="M41.0797 221.998C41.7586 221.411 41.9346 220.502 41.4729 219.968C41.0112 219.434 40.0866 219.477 39.4078 220.064C38.7289 220.651 38.5529 221.56 39.0146 222.094C39.4763 222.628 40.4009 222.585 41.0797 221.998Z" fill="#6A567A"/>
<path d="M51.3218 229.574C54.7666 229.574 57.5592 226.782 57.5592 223.337C57.5592 219.892 54.7666 217.099 51.3218 217.099C47.8769 217.099 45.0844 219.892 45.0844 223.337C45.0844 226.782 47.8769 229.574 51.3218 229.574Z" fill="#645293" stroke="black" stroke-width="2" stroke-miterlimit="10"/>
<path d="M51.0121 220.488C51.691 219.902 51.867 218.993 51.4053 218.459C50.9436 217.925 50.019 217.968 49.3401 218.554C48.6613 219.141 48.4853 220.05 48.947 220.584C49.4087 221.118 50.3333 221.075 51.0121 220.488Z" fill="#8B81B1"/>
<path d="M49.7121 240.401C53.157 240.401 55.9495 237.608 55.9495 234.164C55.9495 230.719 53.157 227.926 49.7121 227.926C46.2673 227.926 43.4747 230.719 43.4747 234.164C43.4747 237.608 46.2673 240.401 49.7121 240.401Z" fill="#8C709A" stroke="black" stroke-width="2" stroke-miterlimit="10"/>
<path d="M49.4012 231.316C50.08 230.729 50.256 229.82 49.7943 229.286C49.3326 228.752 48.408 228.795 47.7292 229.382C47.0503 229.969 46.8743 230.877 47.336 231.411C47.7977 231.946 48.7223 231.903 49.4012 231.316Z" fill="#9E87AD"/>
<path d="M59.6762 236.589C63.1211 236.589 65.9137 233.797 65.9137 230.352C65.9137 226.907 63.1211 224.115 59.6762 224.115C56.2314 224.115 53.4388 226.907 53.4388 230.352C53.4388 233.797 56.2314 236.589 59.6762 236.589Z" fill="#533B62" stroke="black" stroke-width="2" stroke-miterlimit="10"/>
<path d="M59.367 227.506C60.0458 226.919 60.2219 226.01 59.7601 225.476C59.2984 224.942 58.3738 224.985 57.695 225.572C57.0161 226.159 56.8401 227.068 57.3018 227.602C57.7635 228.136 58.6881 228.093 59.367 227.506Z" fill="#6A567A"/>
<path d="M48.7654 250.373C52.2102 250.373 55.0028 247.581 55.0028 244.136C55.0028 240.691 52.2102 237.898 48.7654 237.898C45.3205 237.898 42.528 240.691 42.528 244.136C42.528 247.581 45.3205 250.373 48.7654 250.373Z" fill="#533B62" stroke="black" stroke-width="2" stroke-miterlimit="10"/>
<path d="M48.4561 241.289C49.1349 240.702 49.311 239.793 48.8493 239.259C48.3876 238.725 47.4629 238.768 46.7841 239.355C46.1052 239.942 45.9292 240.851 46.3909 241.385C46.8526 241.919 47.7772 241.876 48.4561 241.289Z" fill="#6A567A"/>
<path d="M59.2687 247.84C62.7135 247.84 65.5061 245.047 65.5061 241.602C65.5061 238.158 62.7135 235.365 59.2687 235.365C55.8238 235.365 53.0312 238.158 53.0312 241.602C53.0312 245.047 55.8238 247.84 59.2687 247.84Z" fill="#645293" stroke="black" stroke-width="2" stroke-miterlimit="10"/>
<path d="M58.9634 238.746C59.6423 238.159 59.8183 237.25 59.3566 236.716C58.8949 236.182 57.9703 236.225 57.2914 236.812C56.6126 237.399 56.4365 238.307 56.8983 238.842C57.36 239.376 58.2846 239.333 58.9634 238.746Z" fill="#8B81B1"/>
<path d="M63.7887 226.124C67.2335 226.124 70.0261 223.332 70.0261 219.887C70.0261 216.442 67.2335 213.65 63.7887 213.65C60.3439 213.65 57.5513 216.442 57.5513 219.887C57.5513 223.332 60.3439 226.124 63.7887 226.124Z" fill="#645293" stroke="black" stroke-width="2" stroke-miterlimit="10"/>
<path d="M63.4838 217.037C64.1627 216.45 64.3387 215.541 63.877 215.007C63.4153 214.473 62.4907 214.516 61.8118 215.103C61.133 215.69 60.9569 216.598 61.4186 217.132C61.8803 217.666 62.805 217.624 63.4838 217.037Z" fill="#8B81B1"/>
<path d="M37.2374 252.876C40.6822 252.876 43.4748 250.083 43.4748 246.638C43.4748 243.193 40.6822 240.401 37.2374 240.401C33.7926 240.401 31 243.193 31 246.638C31 250.083 33.7926 252.876 37.2374 252.876Z" fill="#8C709A" stroke="black" stroke-width="2" stroke-miterlimit="10"/>
<path d="M36.9297 243.792C37.6086 243.205 37.7846 242.297 37.3229 241.763C36.8612 241.228 35.9366 241.271 35.2577 241.858C34.5789 242.445 34.4029 243.354 34.8646 243.888C35.3263 244.422 36.2509 244.379 36.9297 243.792Z" fill="#9E87AD"/>
<path d="M69.1561 243.558C72.6009 243.558 75.3935 240.765 75.3935 237.321C75.3935 233.876 72.6009 231.083 69.1561 231.083C65.7113 231.083 62.9187 233.876 62.9187 237.321C62.9187 240.765 65.7113 243.558 69.1561 243.558Z" fill="#8C709A" stroke="black" stroke-width="2" stroke-miterlimit="10"/>
<path d="M68.845 234.466C69.5239 233.879 69.6999 232.971 69.2382 232.437C68.7765 231.902 67.8519 231.945 67.173 232.532C66.4942 233.119 66.3181 234.028 66.7798 234.562C67.2416 235.096 68.1662 235.053 68.845 234.466Z" fill="#9E87AD"/>
<path d="M77.465 211.393L89.2929 224.014C89.3237 224.045 89.3006 224.107 89.2544 224.099C88.4228 223.968 83.9719 223.129 80.4913 219.525C80.4913 219.525 76.0019 215.251 77.2648 211.439C77.2879 211.347 77.4034 211.324 77.465 211.393Z" fill="#3E9C41" stroke="black" stroke-width="2" stroke-miterlimit="10"/>
<path d="M77.5804 211.386L89.2697 223.937C89.3313 223.999 89.4391 223.953 89.4237 223.868C89.3159 222.782 88.6845 218.501 85.4657 214.936C85.4657 214.936 81.5153 210.184 77.6343 211.162C77.5419 211.193 77.5111 211.316 77.5804 211.386Z" fill="#81B14A" stroke="black" stroke-width="2" stroke-miterlimit="10"/>
<path d="M78.2044 210.916L90.9642 214.373C90.995 214.381 91.0027 214.427 90.9719 214.443C90.3789 214.689 87.1447 215.929 83.4331 214.989C83.4331 214.989 78.7974 214.011 78.0889 211.024C78.0735 210.962 78.1351 210.9 78.2044 210.916Z" fill="#3E9C41" stroke="black" stroke-width="2" stroke-miterlimit="10"/>
<path d="M78.2735 210.869L90.91 214.342C90.9717 214.358 91.0256 214.288 90.9871 214.235C90.4788 213.572 88.3535 211.039 84.8267 210.015C84.8267 210.015 80.3527 208.513 78.2196 210.708C78.1734 210.754 78.1965 210.846 78.2735 210.869Z" fill="#81B14A" stroke="black" stroke-width="2" stroke-miterlimit="10"/>
<path d="M56.092 176.692L55.56 177.112C56.008 177.322 56.526 177.63 56.848 177.896H54.692V176.916H53.768V177.896H50.66C50.954 177.504 51.234 177.098 51.472 176.692H56.092ZM57.814 179.324H54.692V178.568H58.192V177.896H57.1L57.534 177.49C57.254 177.224 56.694 176.888 56.204 176.692H59.816C59.676 181.69 59.522 183.51 59.2 183.916C59.074 184.098 58.962 184.14 58.766 184.126C58.57 184.126 58.22 184.126 57.8 184.098C57.814 184.042 57.814 183.972 57.814 183.888V179.324ZM54.692 182.348V181.48H56.904V182.348H54.692ZM51.654 182.348V181.48H53.768V182.348H51.654ZM54.692 179.982H56.904V180.822H54.692V179.982ZM53.768 179.982V180.822H51.654V179.982H53.768ZM58.052 175.306V174.186H61.272V173.262H58.052V172.296H57.03V173.262H53.194V172.296H52.186V173.262H49.064V174.186H52.186V174.942L51.276 174.802C50.814 175.992 49.96 177.434 48.658 178.54C48.924 178.666 49.302 178.918 49.512 179.142C49.848 178.834 50.156 178.512 50.436 178.176V178.568H53.768V179.324H50.758V184.77H51.654V182.992H53.768V184.714H54.692V182.992H56.904V183.902C56.904 184.028 56.862 184.07 56.736 184.084C56.582 184.084 56.162 184.098 55.658 184.07C55.77 184.252 55.896 184.546 55.938 184.77C56.652 184.77 57.128 184.756 57.436 184.63C57.52 184.602 57.576 184.56 57.632 184.504C57.688 184.7 57.716 184.896 57.73 185.036C58.276 185.064 58.85 185.078 59.2 185.022C59.592 184.98 59.844 184.882 60.096 184.518C60.53 183.944 60.67 182.082 60.838 176.314C60.838 176.174 60.852 175.81 60.852 175.81H51.962C52.046 175.642 52.116 175.474 52.2 175.306H53.194V174.186H57.03V175.306H58.052ZM71.772 175.306V174.326H74.992V173.388H71.772V172.296H70.75V173.388H66.9V172.296H65.892V173.388H62.77V174.326H65.892V174.872L64.926 174.718C64.478 175.964 63.624 177.518 62.35 178.68C62.616 178.792 62.994 179.058 63.162 179.282C63.96 178.498 64.59 177.602 65.094 176.692H73.41C73.284 181.704 73.116 183.496 72.808 183.888C72.682 184.084 72.584 184.126 72.388 184.112C72.164 184.112 71.744 184.112 71.268 184.07V181.41H70.344V183.076H68.412V181.018H71.954V180.178H68.412V178.806H71.268V178.022H66.382C66.508 177.742 66.606 177.462 66.704 177.182L65.836 176.986C65.514 177.994 64.968 178.988 64.296 179.674C64.492 179.772 64.884 180.01 65.066 180.136C65.388 179.772 65.71 179.31 65.99 178.806H67.46V180.178H63.806V181.018H67.46V183.076H65.528V181.41H64.604V184.616H65.528V183.916H70.344V184.462H71.268V184.364C71.352 184.602 71.408 184.854 71.422 185.036C71.94 185.064 72.5 185.078 72.836 185.036C73.228 184.98 73.466 184.882 73.718 184.532C74.138 183.958 74.278 182.082 74.446 176.342C74.446 176.188 74.46 175.81 74.46 175.81H65.542C65.668 175.544 65.794 175.278 65.892 175.026V175.306H66.9V174.326H70.75V175.306H71.772Z" fill="black"/>
<rect x="343" y="166" width="90" height="99" rx="15" fill="white"/>
<path d="M433 193L343 193L343 181C343 172.716 349.716 166 358 166L418 166C426.284 166 433 172.716 433 181L433 193Z" fill="#FEE1AA"/>
<rect x="125" y="166" width="90" height="99" rx="15" fill="white"/>
<path d="M147.45 210.958L141.16 217.432L150.765 225.644L157.056 219.17L147.45 210.958Z" fill="#814537" stroke="#040000" stroke-width="2" stroke-miterlimit="10"/>
<path d="M153.722 204.471L147.432 210.946L157.037 219.158L163.327 212.683L153.722 204.471Z" fill="#814537" stroke="#040000" stroke-width="2" stroke-miterlimit="10"/>
<path d="M160.006 198L153.716 204.474L163.322 212.687L169.612 206.212L160.006 198Z" fill="#814537" stroke="#040000" stroke-width="2" stroke-miterlimit="10"/>
<path d="M156.782 218.935L150.492 225.41L160.097 233.622L166.388 227.147L156.782 218.935Z" fill="#814537" stroke="#040000" stroke-width="2" stroke-miterlimit="10"/>
<path d="M163.053 212.448L156.763 218.923L166.369 227.135L172.659 220.661L163.053 212.448Z" fill="#814537" stroke="#040000" stroke-width="2" stroke-miterlimit="10"/>
<path d="M169.338 205.977L163.048 212.452L172.654 220.664L178.944 214.189L169.338 205.977Z" fill="#814537" stroke="#040000" stroke-width="2" stroke-miterlimit="10"/>
<path d="M166.354 227.125L160.064 233.599L169.669 241.811L175.959 235.337L166.354 227.125Z" fill="#814537" stroke="#040000" stroke-width="2" stroke-miterlimit="10"/>
<path d="M172.625 220.638L166.335 227.112L175.941 235.324L182.231 228.85L172.625 220.638Z" fill="#814537" stroke="#040000" stroke-width="2" stroke-miterlimit="10"/>
<path d="M178.915 214.162L172.625 220.637L182.23 228.849L188.52 222.374L178.915 214.162Z" fill="#814537" stroke="#040000" stroke-width="2" stroke-miterlimit="10"/>
<path d="M183.713 218.269L164.846 237.688L179.708 250.394L198.575 230.975L183.713 218.269Z" fill="#D54426" stroke="#040000" stroke-width="2" stroke-miterlimit="10"/>
<path d="M167.091 235.001L180.651 216.168L186.772 224.473L167.091 235.001Z" fill="white" stroke="#040000" stroke-width="2" stroke-miterlimit="10"/>
<path d="M156.768 219.728L151.331 225.324L152.108 225.988L157.544 220.392L156.768 219.728Z" fill="#C68A6B"/>
<path d="M160.704 232.008L152.812 225.261L152.104 225.989L159.996 232.737L160.704 232.008Z" fill="#C68A6B"/>
<path d="M166.379 227.953L160.943 233.549L161.719 234.213L167.156 228.617L166.379 227.953Z" fill="#C68A6B"/>
<path d="M165.494 236.108L162.422 233.482L161.714 234.21L164.786 236.837L165.494 236.108Z" fill="#C68A6B"/>
<path d="M172.644 221.485L167.207 227.081L167.984 227.745L173.42 222.149L172.644 221.485Z" fill="#C68A6B"/>
<path d="M170.788 228.803L168.687 227.01L167.984 227.737L170.197 229.629L170.788 228.803Z" fill="#C68A6B"/>
<path d="M178.93 215.017L173.493 220.612L174.27 221.276L179.707 215.68L178.93 215.017Z" fill="#C68A6B"/>
<path d="M176.061 221.472L174.978 220.542L174.269 221.269L175.47 222.298L176.061 221.472Z" fill="#C68A6B"/>
<path d="M163.114 213.284L157.678 218.879L158.454 219.543L163.891 213.948L163.114 213.284Z" fill="#C68A6B"/>
<path d="M167.05 225.56L159.158 218.812L158.45 219.541L166.342 226.288L167.05 225.56Z" fill="#C68A6B"/>
<path d="M169.358 206.831L163.922 212.427L164.698 213.091L170.135 207.495L169.358 206.831Z" fill="#C68A6B"/>
<path d="M173.298 219.11L165.406 212.363L164.698 213.091L172.591 219.838L173.298 219.11Z" fill="#C68A6B"/>
<path d="M153.749 205.347L148.312 210.943L149.089 211.607L154.526 206.011L153.749 205.347Z" fill="#C68A6B"/>
<path d="M157.382 217.363L149.796 210.877L149.088 211.605L156.674 218.091L157.382 217.363Z" fill="#C68A6B"/>
<path d="M147.491 211.818L142.054 217.413L142.831 218.077L148.267 212.482L147.491 211.818Z" fill="#C68A6B"/>
<path d="M151.121 223.831L143.534 217.345L142.826 218.074L150.413 224.56L151.121 223.831Z" fill="#C68A6B"/>
<path d="M160.046 198.881L154.61 204.477L155.386 205.141L160.823 199.545L160.046 198.881Z" fill="#C68A6B"/>
<path d="M163.677 210.895L156.091 204.409L155.383 205.137L162.969 211.623L163.677 210.895Z" fill="#C68A6B"/>
<path d="M166.947 236.374L187.56 226.352L195.835 232.912L197.72 231.003L183.725 219.052L183.574 219.212L187.646 224.62L168.299 234.976L166.947 236.374Z" fill="#B44522"/>
<path d="M141.506 217.733L164.851 237.687V241.167L141.033 220.684L141 217.696C141 217.585 141.42 217.653 141.506 217.733Z" fill="#814537" stroke="#040000" stroke-width="2" stroke-miterlimit="10"/>
<path d="M150.765 225.649L150.699 229" stroke="#040000" stroke-width="2" stroke-miterlimit="10"/>
<path d="M160.097 233.627V237.083" stroke="#040000" stroke-width="2" stroke-miterlimit="10"/>
<path d="M198.823 231.372L199 234.846L180.153 254.88L164.852 241.173V237.693L179.713 250.395L198.271 231.292C198.646 230.91 198.685 231.366 198.823 231.372Z" fill="#D54426" stroke="#040000" stroke-width="2" stroke-miterlimit="10"/>
<path d="M180.159 254.88L179.712 250.395" stroke="#040000" stroke-width="2" stroke-miterlimit="10"/>
<path d="M215 193L125 193L125 181C125 172.716 131.716 166 140 166L200 166C208.284 166 215 172.716 215 181L215 193Z" fill="#FEE1AA"/>
<path d="M162.594 176.172V175.15H155.006V176.158H149.98V177.194H152.01V182.724C151.17 182.92 150.414 183.088 149.798 183.228L150.036 184.278C151.548 183.9 153.634 183.396 155.608 182.892L155.496 181.912C154.684 182.108 153.858 182.304 153.06 182.486V177.194H155.062V176.172H156.952C156.602 177.936 156.126 180.022 155.734 181.352L156.812 181.506C156.91 181.17 157.008 180.778 157.106 180.344H161.18C160.886 183.928 160.564 185.454 160.088 185.86C159.934 186.014 159.752 186.042 159.444 186.042C159.094 186.042 158.17 186.028 157.232 185.93C157.428 186.224 157.568 186.686 157.596 186.994C158.492 187.05 159.36 187.064 159.808 187.036C160.34 186.994 160.676 186.896 160.998 186.532C161.586 185.93 161.936 184.222 162.272 179.854C162.286 179.7 162.3 179.35 162.3 179.35H157.344C157.582 178.328 157.834 177.194 158.03 176.172H162.594ZM166.556 179.126H173.458V181.366H166.556V179.126ZM172.674 185.944C172.086 185.944 171.974 185.874 171.974 185.468V182.318H174.508V178.188H170.476V176.648H176.034V175.682H170.476V174.282H169.44V175.682H164.008V176.648H169.44V178.188H165.562V182.318H167.732C167.452 184.278 166.724 185.524 163.658 186.154C163.868 186.378 164.162 186.812 164.26 187.106C167.634 186.294 168.516 184.726 168.852 182.318H170.938V185.468C170.938 186.602 171.274 186.938 172.576 186.938H174.774C175.95 186.938 176.258 186.42 176.384 184.32C176.09 184.25 175.642 184.082 175.404 183.886C175.348 185.678 175.264 185.944 174.69 185.944H172.674ZM183.552 177.334C183.552 177.124 183.552 176.928 183.552 176.732V174.31H182.474V176.732C182.474 176.928 182.474 177.124 182.474 177.334H177.938V178.37H182.418C182.208 180.988 181.312 184.054 177.518 186.308C177.77 186.476 178.148 186.882 178.316 187.134C182.376 184.656 183.3 181.268 183.496 178.37H188.27C188.004 183.298 187.696 185.272 187.192 185.748C187.024 185.916 186.842 185.958 186.548 185.958C186.198 185.958 185.302 185.944 184.35 185.86C184.56 186.168 184.686 186.616 184.7 186.924C185.554 186.98 186.45 187.008 186.94 186.966C187.472 186.91 187.808 186.798 188.13 186.406C188.746 185.706 189.04 183.62 189.348 177.88C189.362 177.726 189.376 177.334 189.376 177.334H183.552Z" fill="black"/>
<rect x="234" y="166" width="90" height="99" rx="15" fill="white"/>
<path d="M265.387 230.884C265.387 230.884 269.793 229.124 273.508 226.514C273.508 226.514 282.813 220.349 285.503 227.772C285.503 227.772 286.754 234.104 289.051 236.554C289.051 236.554 291.85 239.52 291.581 244.522C291.581 244.522 291.428 250.621 287.139 251.952C287.139 251.952 284.74 252.286 280.065 255.907C280.065 255.907 272.708 261.01 268.833 255.34C268.833 255.34 264.413 248.091 261.898 246.434C261.898 246.434 258.815 244.464 261.629 239.578C261.629 239.578 262.494 238.255 262.392 234.947C262.399 234.94 262.472 232.069 265.387 230.884Z" fill="white" stroke="black" stroke-width="2" stroke-miterlimit="10"/>
<path d="M275.522 247.052C278.975 247.052 281.774 244.253 281.774 240.8C281.774 237.347 278.975 234.547 275.522 234.547C272.069 234.547 269.27 237.347 269.27 240.8C269.27 244.253 272.069 247.052 275.522 247.052Z" fill="#EAB934" stroke="black" stroke-width="2" stroke-miterlimit="10"/>
<path d="M270.876 242.167C270.876 242.167 270.323 240.734 271.108 240.458C271.108 240.458 271.734 240.138 272.184 241.963C272.184 241.963 272.824 243.548 273.333 244.137C273.333 244.137 273.922 244.747 273.464 244.98C273.457 244.973 272.119 245.373 270.876 242.167Z" fill="#F0EDE1"/>
<path d="M274.097 245.256C274.097 245.256 274.467 246.048 275.834 245.714C275.834 245.714 276.401 245.54 275.521 245.125C275.521 245.132 273.675 244.485 274.097 245.256Z" fill="#F0EDE1"/>
<path d="M248.529 231.138C248.529 231.138 241.964 217.231 249.99 211.124C249.99 211.124 257.87 204.218 269.262 213.269L268.048 218.437L262.32 217.747L261.774 226.849L254.417 223.606L253.254 230.077L248.529 231.138Z" fill="white" stroke="black" stroke-width="2" stroke-miterlimit="10"/>
<path d="M302.777 232.774C302.777 232.774 319.788 221.491 309.923 208.078C309.923 208.078 298.226 191.968 285.968 205.25C285.968 205.25 281.025 210.731 280.211 214.679L286.165 215.006L285.961 220.713L295.914 219.557L294.721 227.278L299.992 227.183L302.777 232.774Z" fill="white" stroke="black" stroke-width="2" stroke-miterlimit="10"/>
<path d="M324 193L234 193L234 181C234 172.716 240.716 166 249 166L309 166C317.284 166 324 172.716 324 181L324 193Z" fill="#FEE1AA"/>
<path d="M265.84 185.622V182.066H270.334V181.058H265.84V178.006H270.852V176.984H265.84V174.296H264.776V176.984H261.934C262.242 176.27 262.494 175.514 262.718 174.744L261.668 174.52C261.122 176.508 260.226 178.44 259.078 179.672C259.358 179.812 259.82 180.12 260.03 180.288C260.548 179.658 261.038 178.888 261.486 178.006H264.776V181.058H260.618V182.066H264.776V185.622H259.106V186.63H271.51V185.622H265.84ZM278.006 174.282C277.166 174.604 275.724 174.926 274.366 175.15L273.736 175.01C273.47 176.088 273.05 177.208 272.476 177.964C272.7 178.062 273.078 178.314 273.232 178.454C273.708 177.796 274.114 176.872 274.408 175.892C275.906 175.696 277.6 175.346 278.776 174.94L278.006 174.282ZM277.068 175.794C277.558 176.466 278.062 177.39 278.272 178.006L279.056 177.656C278.818 177.054 278.314 176.144 277.796 175.486L277.068 175.794ZM275.486 182.122C275.472 182.5 275.43 182.836 275.388 183.158H272.728V183.97H275.22C274.884 185.132 274.156 185.86 272.504 186.322C272.714 186.49 272.966 186.854 273.064 187.078C274.492 186.63 275.304 185.986 275.78 185.062C276.704 185.65 277.698 186.406 278.216 186.938L278.818 186.294C278.23 185.706 277.068 184.894 276.088 184.292C276.116 184.194 276.144 184.082 276.172 183.97H278.944V183.158H276.326C276.368 182.836 276.396 182.486 276.424 182.122H275.486ZM276.802 180.484C277.012 180.694 277.222 180.932 277.418 181.17C276.69 181.198 275.976 181.226 275.29 181.254C276.102 180.512 276.998 179.574 277.698 178.776L276.858 178.37C276.508 178.86 276.004 179.462 275.486 180.036C275.29 179.84 275.038 179.616 274.772 179.406C275.192 178.944 275.696 178.314 276.13 177.726L275.766 177.586L276.452 177.418C276.41 177.026 276.242 176.382 276.046 175.906L275.29 176.06C275.458 176.536 275.612 177.124 275.654 177.544L275.248 177.39C275.01 177.852 274.604 178.482 274.212 178.972C274.058 178.86 273.904 178.748 273.75 178.65L273.232 179.224C273.806 179.63 274.464 180.19 274.898 180.652C274.674 180.876 274.45 181.086 274.24 181.282L272.77 181.324L272.854 182.164C274.226 182.122 276.116 182.038 277.992 181.954C278.104 182.122 278.202 182.29 278.286 182.43L279 181.968C278.692 181.436 278.076 180.652 277.46 180.078L276.802 180.484ZM280.568 183.536H282.192V185.454H280.568V183.536ZM282.192 179.854H280.568V178.006H282.192V179.854ZM282.192 182.654H280.568V180.75H282.192V182.654ZM285.398 185.454H283.172V183.536H284.992V182.654H283.172V180.75H284.992V179.854H283.172V178.006H285.244V177.082H283.13C283.396 176.396 283.69 175.5 283.956 174.716L282.92 174.478C282.78 175.234 282.472 176.326 282.178 177.082H280.708C281.016 176.256 281.268 175.388 281.478 174.52L280.47 174.296C280.008 176.424 279.21 178.524 278.146 179.868C278.384 180.05 278.748 180.456 278.916 180.666C279.154 180.344 279.378 179.994 279.588 179.602V187.05H280.568V186.392H285.398V185.454ZM289.318 176.172C288.786 177.852 287.652 179.154 286.252 179.924C286.434 180.162 286.672 180.68 286.756 180.918C287.862 180.246 288.8 179.308 289.5 178.132C290.55 179.588 292.216 179.868 294.82 179.868H298.726C298.782 179.588 298.95 179.154 299.104 178.916C298.362 178.944 295.38 178.944 294.82 178.944C294.246 178.944 293.7 178.93 293.224 178.888V177.698H296.542V176.928H293.224V175.808H297.284C297.074 176.326 296.836 176.844 296.626 177.208L297.508 177.46C297.886 176.858 298.292 175.92 298.614 175.108L297.886 174.884L297.704 174.926H287.204V175.808H292.202V178.762C291.18 178.566 290.41 178.16 289.892 177.39C290.046 177.068 290.172 176.732 290.284 176.41L289.318 176.172ZM293.238 185.51V184.096H295.66L295.03 184.628C295.366 184.866 295.758 185.16 296.136 185.426L293.238 185.51ZM288.898 183.284V181.884H292.216V183.284H288.898ZM296.542 181.884V183.284H293.238V181.884H296.542ZM297.578 184.096V181.086H293.238V180.176H292.216V181.086H287.904V184.096H292.216V185.538C290.074 185.594 288.114 185.636 286.7 185.65L286.784 186.644C289.402 186.574 293.392 186.392 297.144 186.224C297.606 186.588 298.04 186.952 298.362 187.246L299.034 186.574C298.292 185.93 296.878 184.866 295.758 184.096H297.578Z" fill="black"/>
</g>
<path d="M15 682C15 668.193 26.1929 657 40 657H333C346.807 657 358 668.193 358 682V747C358 760.807 346.807 772 333 772H40C26.1929 772 15 760.807 15 747V682Z" fill="#FEE1AA"/>
<path d="M148 674.516C148 674.516 46.8142 636.154 -1 594.5L-6 599.561C-6 599.561 39.8655 642.709 139.798 679L148 674.516Z" fill="#E22925" stroke="black" stroke-width="2" stroke-miterlimit="10"/>
<path d="M193.689 663.722C193.689 663.722 198.333 664.461 196.741 669.029C196.741 669.029 193.689 681.672 180.25 683.34C180.25 683.34 169.768 683.889 166.944 683.643C166.944 683.643 164.935 713.194 157.486 726.765V757.225L163.513 759.822C163.513 759.822 164.215 760.277 164.101 762.324L163.873 766.987H146.056L146.283 760.997C146.283 760.997 146.814 738.271 142.341 733.797C142.341 733.797 128.637 737.38 106.573 723.657C106.573 723.657 100.603 719.581 97.3423 725.23C97.3423 725.23 91.8265 738.858 75.8855 741.701C75.8855 741.701 69.8769 742.251 68.8344 751.482L68.8912 754.818C68.8912 754.818 68.986 757.036 69.9527 757.548L74.6724 759.879C74.6724 759.879 75.8855 760.144 75.7339 761.661L75.1842 766.987H54.1255C54.1255 766.987 53.3294 745.019 55.7177 740.356C55.7177 740.356 60.7975 728.357 63.6597 724.036C63.6597 724.036 66.7114 719.866 66.1996 711.886C66.1996 711.886 66.1238 701.934 71.9429 694.826C71.9429 694.826 77.383 684.761 92.5847 683.719C92.5847 683.719 111.862 683.378 120.6 679.549C120.6 679.549 138.19 671.891 135.347 669.92C135.347 669.92 129.774 663.21 132.712 657.94L139.441 644.672C139.441 644.672 140.483 640.938 146.075 640.938L169.844 641.905C169.844 641.905 176.459 642.89 176.478 648.387C176.478 648.387 175.948 654.055 180.137 656.651C180.118 656.651 190.183 663.058 193.689 663.722Z" fill="#6A4B2E" stroke="black" stroke-width="2" stroke-miterlimit="10"/>
<path d="M73.7057 692.343C73.7057 692.343 61.0439 688.458 62.0485 676.933C62.0485 676.933 62.674 669.92 63.2616 667.816C63.2616 667.816 65.4983 661.03 57.8216 659.021C57.8216 659.021 50.4103 657.258 49.5573 666.546C49.5573 666.546 45.6906 686.998 58.3523 699.489C58.3523 699.489 62.0485 702.844 66.9768 704.474C66.9768 704.493 68.1899 698.75 73.7057 692.343Z" fill="#6A4B2E" stroke="black" stroke-width="2" stroke-miterlimit="10"/>
<path d="M166.926 683.643C166.926 683.643 148.767 681.293 135.612 670.564C135.612 670.564 132.617 673.351 129.793 675.019C129.793 675.019 144.161 688.041 166.338 689.841L166.926 683.643Z" fill="#E22925" stroke="black" stroke-width="2" stroke-miterlimit="10"/>
<path d="M204.438 727.25V725.882H197.598C197.616 725.54 197.616 725.198 197.616 724.874V721.688H204.888V720.32H189.174V721.688H196.212V724.856C196.212 725.198 196.212 725.54 196.176 725.882H189.732V727.25H196.032C195.546 729.86 193.944 732.506 188.832 734.252C189.12 734.504 189.516 735.08 189.642 735.404C194.448 733.748 196.392 731.264 197.148 728.672C198.516 732.092 200.766 734.36 204.438 735.404C204.636 735.026 205.032 734.45 205.356 734.162C201.486 733.208 199.182 730.796 198.012 727.25H204.438ZM222.078 727.25V725.882H215.238C215.256 725.54 215.256 725.198 215.256 724.874V721.688H222.528V720.32H206.814V721.688H213.852V724.856C213.852 725.198 213.852 725.54 213.816 725.882H207.372V727.25H213.672C213.186 729.86 211.584 732.506 206.472 734.252C206.76 734.504 207.156 735.08 207.282 735.404C212.088 733.748 214.032 731.264 214.788 728.672C216.156 732.092 218.406 734.36 222.078 735.404C222.276 735.026 222.672 734.45 222.996 734.162C219.126 733.208 216.822 730.796 215.652 727.25H222.078ZM227.424 722.246H229.746V724.37H227.424V722.246ZM232.842 724.37H230.988V722.246H232.806V721.112H230.988V719.114H229.746V721.112H227.424V719.114H226.2V721.112H224.4V722.246H226.2V724.37H224.112V725.522H232.842V724.37ZM226.632 731.318V730.058H230.556V731.318H226.632ZM230.556 727.772V729.032H226.632V727.772H230.556ZM231.798 726.71H225.39V735.386H226.632V732.362H230.556V733.964C230.556 734.162 230.484 734.234 230.268 734.252C230.07 734.252 229.386 734.27 228.594 734.234C228.756 734.558 228.936 735.026 228.972 735.35C230.07 735.35 230.79 735.35 231.222 735.152C231.672 734.954 231.798 734.63 231.798 733.982V726.71ZM234.966 723.524H238.044C237.738 725.756 237.27 727.682 236.55 729.32C235.794 727.646 235.29 725.702 234.93 723.65L234.966 723.524ZM240.546 723.524V722.264H235.308C235.56 721.256 235.758 720.194 235.938 719.132L234.642 718.934C234.192 721.958 233.418 724.928 232.14 726.836C232.41 727.088 232.878 727.646 233.058 727.934C233.49 727.268 233.886 726.512 234.21 725.702C234.624 727.52 235.128 729.212 235.794 730.688C234.876 732.2 233.598 733.388 231.87 734.27C232.14 734.522 232.536 735.116 232.662 735.404C234.264 734.486 235.524 733.37 236.496 731.984C237.342 733.424 238.404 734.576 239.736 735.386C239.952 735.026 240.366 734.504 240.69 734.252C239.268 733.478 238.134 732.272 237.252 730.742C238.296 728.798 238.944 726.404 239.34 723.524H240.546ZM245.748 726.26C244.848 727.574 243.39 728.906 241.968 729.77C242.31 729.968 242.868 730.4 243.12 730.652C244.488 729.698 246.072 728.186 247.098 726.692L245.748 726.26ZM254.748 726.746C253.2 731.246 249.726 733.37 243.3 734.162C243.57 734.468 243.84 735.008 243.984 735.404C250.68 734.432 254.352 732.092 256.08 727.196L254.748 726.746ZM250.662 724.37V722.318H256.134V721.058H250.662V718.952H249.312V724.37H246V720.338H244.668V724.37H241.986V725.612H249.312V729.77C249.312 729.95 249.258 730.004 248.988 730.022C248.718 730.04 247.836 730.04 246.9 730.004C247.062 730.364 247.26 730.85 247.332 731.21C248.61 731.21 249.438 731.21 249.96 731.012C250.482 730.814 250.644 730.472 250.644 729.788V725.612H257.952V724.37H250.662Z" fill="black"/>
<rect x="15" y="492" width="343" height="115" rx="25" fill="#FEE1AA"/>
<path d="M46.944 563.26V564.718H63.288V563.26H46.944ZM68.04 556.024C67.14 558.742 65.7 561.442 64.098 563.188C64.332 563.512 64.692 564.25 64.8 564.538C65.412 563.854 65.988 563.044 66.546 562.162V572.386H67.824V559.858C68.382 558.742 68.868 557.554 69.264 556.366L68.04 556.024ZM76.68 567.616H73.638V564.826H76.68V567.616ZM78.444 561.838V560.812H75.672V558.778H74.574V560.812H71.874V561.838H74.574V563.818H72.612V568.606H77.742V563.818H75.672V561.838H78.444ZM71.136 570.1V558.202H79.056V570.1H71.136ZM69.894 557.032V572.35H71.136V571.288H79.056V572.206H80.334V557.032H69.894ZM90.972 564.286H93.438L93.006 564.664C93.438 564.808 93.906 565.006 94.374 565.222L90.972 565.276V564.286ZM85.428 563.386V562.27H89.676V563.386H85.428ZM85.428 560.326H89.676V561.406H85.428V560.326ZM95.346 560.326V561.406H90.972V560.326H95.346ZM95.346 563.386H90.972V562.27H95.346V563.386ZM98.478 567.274H94.194V566.122L95.976 566.068C96.372 566.32 96.732 566.572 97.002 566.788L97.794 566.032C97.074 565.474 95.796 564.772 94.572 564.286H96.66V559.408H90.972V558.4H97.758V557.32H90.972V555.97H89.676V557.32H82.782V558.4H89.676V559.408H84.168V564.286H89.676V565.276C87.102 565.312 84.744 565.33 82.962 565.33L83.016 566.374C85.608 566.338 89.208 566.266 92.898 566.158V567.274H82.26V568.372H85.986L85.104 569.128C86.184 569.794 87.444 570.766 88.074 571.468L89.028 570.586C88.398 569.92 87.138 568.984 86.076 568.372H92.898V570.91C92.898 571.144 92.808 571.216 92.538 571.234C92.25 571.252 91.242 571.252 90.144 571.216C90.324 571.54 90.522 572.026 90.576 572.368C92.016 572.368 92.916 572.368 93.474 572.17C94.05 571.99 94.194 571.63 94.194 570.946V568.372H98.478V567.274ZM113.724 557.788V558.94H102.78V557.788H113.724ZM102.78 559.876H115.002V556.852H101.484V562.054C101.484 564.898 101.34 568.858 99.612 571.666C99.936 571.792 100.494 572.116 100.746 572.314C102.528 569.398 102.78 565.06 102.78 562.054V559.876ZM110.754 562.54H114.822V561.856H110.754V562.54ZM110.79 560.47V561.172H114.75V560.47H110.79ZM109.818 562.846V560.182H108.576V562.846H109.818ZM103.734 562.54H107.586V561.856H103.734V562.54ZM103.77 560.47V561.172H107.55V560.47H103.77ZM112.032 569.884V567.706H108.72V567.004H114.066C113.904 569.848 113.706 570.928 113.472 571.234C113.364 571.378 113.238 571.396 113.022 571.396C112.932 571.396 112.788 571.396 112.608 571.396C112.266 570.946 111.618 570.334 111.024 569.884H112.032ZM108.72 569.884H110.736L110.106 570.208C110.25 570.316 110.394 570.442 110.538 570.568L108.72 570.64V569.884ZM110.97 569.2H108.72V568.372H110.97V569.2ZM105.39 569.2V568.372H107.568V569.2H105.39ZM107.568 567.004V567.706H104.994C105.264 567.472 105.498 567.238 105.732 567.004H107.568ZM104.706 563.944H106.938V564.844H104.706V563.944ZM108.018 563.944H110.358V564.844H108.018V563.944ZM111.42 563.944H113.796V564.844H111.42V563.944ZM106.452 566.158C106.614 565.942 106.758 565.744 106.902 565.528H114.93V563.26H103.59V565.528H105.534C104.832 566.464 103.752 567.49 102.312 568.282C102.582 568.444 102.996 568.786 103.176 569.056C103.608 568.786 104.004 568.516 104.364 568.228V569.884H107.568V570.694C105.966 570.748 104.49 570.784 103.338 570.82L103.428 571.774C105.534 571.684 108.468 571.54 111.348 571.378C111.528 571.576 111.69 571.756 111.798 571.918L111.978 571.81C112.014 572.008 112.05 572.188 112.068 572.35C112.662 572.368 113.238 572.368 113.58 572.332C113.976 572.314 114.264 572.206 114.516 571.918C114.912 571.45 115.11 570.19 115.29 566.68C115.308 566.5 115.326 566.158 115.326 566.158H106.452ZM123.264 563.782H119.484V560.02H123.264V563.782ZM119.484 569.29V564.97H123.264V569.29H119.484ZM120.996 555.898C120.87 556.744 120.546 557.95 120.276 558.814H118.26V571.918H119.484V570.496H124.488V558.814H121.5C121.806 558.04 122.13 557.05 122.436 556.168L120.996 555.898ZM133.29 558.76H127.908C128.214 557.914 128.466 557.05 128.682 556.168L127.404 555.862C126.828 558.328 125.856 560.812 124.65 562.396C124.938 562.576 125.514 562.936 125.748 563.152C126.378 562.306 126.936 561.208 127.44 560.002H132.012C131.778 567.166 131.508 569.902 130.914 570.532C130.734 570.766 130.536 570.802 130.176 570.802C129.762 570.802 128.682 570.802 127.512 570.694C127.764 571.072 127.926 571.612 127.962 572.008C128.97 572.062 129.996 572.098 130.626 572.026C131.238 571.972 131.652 571.81 132.048 571.306C132.768 570.424 133.002 567.652 133.29 559.444V558.76ZM130.446 566.86C129.87 565.798 128.628 564.07 127.62 562.792L126.576 563.404C127.566 564.7 128.772 566.482 129.312 567.562L130.446 566.86ZM142.65 556.204V570.514C142.65 570.874 142.506 571 142.128 571C141.786 571.018 140.49 571.036 139.176 570.982C139.392 571.36 139.644 571.99 139.734 572.368C141.408 572.386 142.524 572.35 143.172 572.134C143.802 571.9 144.072 571.504 144.072 570.514V556.204H142.65ZM146.952 560.74C148.482 563.314 149.922 566.662 150.354 568.786L151.758 568.192C151.308 566.05 149.796 562.774 148.212 560.254L146.952 560.74ZM137.952 560.38C137.52 562.792 136.53 565.888 134.928 567.778C135.288 567.922 135.864 568.246 136.188 568.48C137.808 566.482 138.852 563.26 139.428 560.65L137.952 560.38ZM163.458 568.876V570.226H158.652V568.876H163.458ZM164.718 571.036V568.066H157.428V571.666H158.652V571.036H164.718ZM156.996 563.062H165.096V563.98H160.038V566.068H156.996V563.062ZM165.096 566.068H161.262V564.79H165.096V566.068ZM168.066 566.068H166.392V562.036H155.754V566.068H154.008V572.332H155.304V567.112H166.734V570.892C166.734 571.108 166.662 571.18 166.428 571.18C166.194 571.18 165.33 571.198 164.394 571.162C164.574 571.486 164.772 571.99 164.844 572.332C166.14 572.332 166.932 572.314 167.436 572.134C167.922 571.936 168.066 571.558 168.066 570.91V566.068ZM163.746 560.524C163.116 560.524 163.044 560.47 163.044 560.11V558.49H167.436V559.66C167.13 559.588 166.734 559.462 166.518 559.3C166.446 560.38 166.356 560.524 165.852 560.524H163.746ZM161.586 557.41V555.934H160.236V557.41H153.198V560.056H154.476V558.49H158.076C157.68 560.038 156.582 560.902 153.27 561.316C153.504 561.55 153.792 562.018 153.918 562.324C157.662 561.73 158.958 560.632 159.516 558.49H161.712V560.11C161.712 561.208 162.108 561.478 163.602 561.478H166.032C167.076 561.478 167.454 561.154 167.562 559.912H168.768V557.41H161.586Z" fill="black"/>
<path d="M269.9 600.341H218.865C217.321 600.341 216.061 599.081 216.061 597.537V526.379L269.9 472.541V600.341Z" fill="#65AD66" stroke="#040000" stroke-width="2" stroke-miterlimit="10"/>
<path d="M269.9 600.341H320.934C322.478 600.341 323.738 599.081 323.738 597.537V526.113L269.9 472.523V600.341Z" fill="#94CC93" stroke="#040000" stroke-width="2" stroke-miterlimit="10"/>
<path d="M269.899 519.246V600.341H231.641V557.487C231.641 536.37 248.765 519.246 269.899 519.246Z" fill="#94CC93" stroke="#040000" stroke-width="2" stroke-miterlimit="10"/>
<path d="M269.899 519.246V600.341H308.158V557.487C308.14 536.37 291.016 519.246 269.899 519.246Z" fill="#65AD66" stroke="#040000" stroke-width="2" stroke-miterlimit="10"/>
<path d="M269.154 539.156C277.396 539.156 284.078 533.444 284.078 526.397C284.078 519.351 277.396 513.638 269.154 513.638C260.912 513.638 254.23 519.351 254.23 526.397C254.23 533.444 260.912 539.156 269.154 539.156Z" fill="white"/>
<path d="M251.764 518.449C253.637 516.84 253.307 513.384 251.027 510.73C248.747 508.076 245.38 507.23 243.507 508.839C241.634 510.449 241.963 513.905 244.244 516.559C246.524 519.212 249.891 520.059 251.764 518.449Z" fill="white"/>
<path d="M264.027 512.087C266.868 511.548 268.55 507.841 267.785 503.807C267.02 499.772 264.097 496.938 261.257 497.477C258.416 498.016 256.734 501.723 257.499 505.757C258.264 509.792 261.187 512.626 264.027 512.087Z" fill="white"/>
<path d="M282 506.426C283.286 502.526 282.103 498.63 279.357 497.725C276.612 496.819 273.343 499.247 272.057 503.147C270.771 507.046 271.954 510.942 274.7 511.847C277.446 512.753 280.714 510.325 282 506.426Z" fill="white"/>
<path d="M293.264 517.028C295.44 514.364 295.629 510.918 293.686 509.331C291.743 507.744 288.404 508.617 286.228 511.281C284.052 513.944 283.863 517.39 285.806 518.978C287.749 520.565 291.088 519.692 293.264 517.028Z" fill="white"/>
<path d="M330.41 533.655L264.522 467.767C261.648 464.893 261.648 460.226 264.522 457.351C267.397 454.476 272.064 454.476 274.939 457.351L340.844 523.256C343.719 526.131 343.719 530.798 340.844 533.673C337.952 536.547 333.285 536.547 330.41 533.655Z" fill="#DB655F" stroke="black" stroke-width="2" stroke-miterlimit="10"/>
<path d="M274.832 467.572L208.572 533.85C205.698 536.725 201.031 536.725 198.156 533.85C195.281 530.975 195.281 526.308 198.156 523.434L264.434 457.156C267.309 454.281 271.975 454.281 274.85 457.156C277.725 460.031 277.725 464.698 274.832 467.572Z" fill="#D24F30" stroke="black" stroke-width="2" stroke-miterlimit="10"/>
<rect x="16" y="327" width="343" height="115" rx="25" fill="#FEE1AA"/>
<path d="M222.977 415.361C223.71 414.417 224.281 413.324 224.633 412.103C226.119 406.945 223.142 401.559 217.984 400.073C213.287 398.72 208.402 401.069 206.443 405.395L206.236 405.391C206.91 400.669 204.019 396.05 199.303 394.691C194.145 393.205 188.759 396.181 187.273 401.339C186.923 402.555 186.823 403.789 186.941 404.978C186.941 404.978 187.56 415.689 199.682 428.494C199.682 428.494 213.775 426.24 222.532 415.902C222.684 415.729 222.83 415.549 222.977 415.361C222.973 415.36 222.973 415.36 222.977 415.361Z" fill="#FF3C38"/>
<path d="M222.977 415.361C223.71 414.417 224.281 413.324 224.633 412.103C226.119 406.945 223.142 401.559 217.984 400.073C213.287 398.72 208.402 401.069 206.443 405.395L206.236 405.391C206.91 400.669 204.019 396.05 199.303 394.691C194.145 393.205 188.759 396.181 187.273 401.339C186.923 402.555 186.823 403.789 186.941 404.978C186.941 404.978 187.56 415.689 199.682 428.494C199.682 428.494 213.775 426.24 222.532 415.902C222.684 415.729 222.83 415.549 222.977 415.361ZM222.977 415.361C222.973 415.36 222.973 415.36 222.977 415.361Z" stroke="#FF3C38" stroke-miterlimit="10" stroke-linejoin="round"/>
<path d="M243.938 377.86C244.406 378.562 244.856 379.498 244.982 380.11H241.796L242.39 379.858C242.21 379.3 241.76 378.544 241.256 377.95C242.21 377.896 243.182 377.842 244.154 377.788L243.938 377.86ZM239.096 381.19H244.208L243.686 381.748C244.64 382.162 245.792 382.846 246.35 383.332L247.052 382.522C246.548 382.09 245.594 381.586 244.748 381.19H251.57V383.35H252.866V380.11H249.626C250.148 379.462 250.706 378.688 251.192 377.95L249.932 377.464C249.536 378.238 248.816 379.372 248.276 380.11H245.036L246.152 379.714C246.008 379.156 245.63 378.364 245.18 377.698C247.718 377.518 250.13 377.23 251.966 376.87L251.084 375.934C248.186 376.51 242.804 376.888 238.412 377.014C238.538 377.266 238.664 377.734 238.7 378.04C239.294 378.022 239.906 378.004 240.536 377.968L240.014 378.184C240.464 378.76 240.95 379.534 241.166 380.11H237.854V383.224H239.096V381.19ZM248.708 382.666C249.752 383.494 250.94 384.718 251.48 385.528L252.434 384.79C251.894 383.98 250.67 382.828 249.626 382.036L248.708 382.666ZM239.222 385.744C240.428 385.042 241.094 383.854 241.508 382.684L240.5 382.252C240.104 383.332 239.384 384.394 238.304 384.97L239.222 385.744ZM248.24 387.544C247.502 388.3 246.53 388.93 245.396 389.434C244.208 388.912 243.218 388.282 242.462 387.544H248.24ZM249.374 386.5L249.158 386.554H243.56C243.938 386.212 244.262 385.852 244.568 385.474L244.244 385.366H247.16C248.33 385.366 248.672 385.024 248.798 383.566C248.456 383.494 247.988 383.368 247.736 383.188C247.664 384.25 247.556 384.376 246.998 384.376H244.37C243.614 384.376 243.488 384.304 243.488 383.944V382.234H242.246V383.962C242.246 384.79 242.462 385.168 243.218 385.294C241.904 386.806 239.744 388.084 237.638 388.894C237.89 389.11 238.376 389.542 238.574 389.776C239.546 389.344 240.572 388.786 241.526 388.156C242.21 388.858 243.038 389.47 243.974 389.992C242.012 390.658 239.726 391.072 237.386 391.288C237.638 391.558 237.962 392.098 238.088 392.404C240.662 392.08 243.218 391.558 245.378 390.676C247.484 391.558 250.004 392.116 252.65 392.386C252.83 392.044 253.136 391.486 253.424 391.216C251.03 391.036 248.762 390.622 246.836 389.992C248.24 389.236 249.392 388.264 250.22 387.058L249.374 386.5ZM260.03 376.564H255.602V377.644H260.03V376.564ZM260.534 378.922H254.756V380.02H260.534V378.922ZM258.95 387.238V390.244H256.556V387.238H258.95ZM260.066 386.14H255.476V392.17H256.556V391.324H260.066V386.14ZM255.494 384.808H260.066V383.728H255.494V384.808ZM255.494 382.414H260.066V381.352H255.494V382.414ZM267.284 378.076V379.048L266.186 378.796C266.06 379.192 265.808 379.732 265.574 380.2H263.198C263.414 379.822 263.612 379.444 263.792 379.066H264.584V378.076H267.284ZM265.664 381.982H263.234V381.136H265.664V381.982ZM265.664 383.638H263.234V382.774H265.664V383.638ZM265.664 385.33H263.234V384.43H265.664V385.33ZM262.028 386.248H270.992V385.33H266.852V384.43H270.146V383.638H266.852V382.774H270.146V381.982H266.852V381.136H270.578V380.2H266.798C266.996 379.858 267.194 379.462 267.392 379.066H268.508V378.076H271.028V377.068H268.508V375.934H267.284V377.068H264.584V375.934H263.396V377.068H260.786V378.076H263.396V378.904L262.712 378.742C262.154 380.074 261.182 381.388 260.12 382.288C260.39 382.45 260.822 382.81 261.02 382.99C261.362 382.684 261.704 382.306 262.028 381.91V386.248ZM268.472 388.048C267.86 388.75 267.032 389.326 266.078 389.794C265.088 389.308 264.278 388.732 263.702 388.048H268.472ZM269.552 386.968L269.318 387.022H261.074V388.048H263.234L262.514 388.354C263.09 389.11 263.864 389.776 264.782 390.352C263.378 390.856 261.794 391.18 260.21 391.36C260.426 391.63 260.678 392.098 260.786 392.404C262.604 392.134 264.404 391.702 266.006 391C267.356 391.648 268.922 392.098 270.56 392.368C270.722 392.062 271.064 391.576 271.334 391.306C269.912 391.126 268.526 390.802 267.302 390.334C268.58 389.596 269.642 388.624 270.326 387.382L269.552 386.968ZM282.53 390.874C281.396 390.874 281.198 390.658 281.198 389.74V382.918L283.466 382.072V388.408H284.618V381.64L287.048 380.722C287.03 383.566 286.994 385.528 286.868 386.014C286.778 386.464 286.598 386.536 286.364 386.536C286.166 386.536 285.644 386.536 285.302 386.518C285.446 386.806 285.536 387.256 285.59 387.616C286.04 387.616 286.652 387.598 287.102 387.49C287.57 387.382 287.93 387.058 288.056 386.338C288.182 385.6 288.236 382.99 288.236 379.678L288.29 379.462L287.408 379.102L287.192 379.282L287.048 379.408L284.618 380.326V375.988H283.466V380.758L281.198 381.622V377.518H279.992V382.072L277.976 382.828L278.372 383.944L276.734 384.43V380.866H278.588V379.606H276.734V375.952H275.492V379.606H274.178C274.322 378.778 274.412 377.914 274.502 377.068L273.386 376.888C273.188 379.066 272.9 381.352 272.252 382.846C272.54 382.99 273.044 383.296 273.224 383.44C273.53 382.72 273.764 381.838 273.962 380.866H275.492V384.79C274.286 385.15 273.17 385.456 272.306 385.69L272.72 386.932L275.492 386.086V392.368H276.734V385.708C277.472 385.492 278.21 385.258 278.948 385.024L278.768 383.836L279.992 383.368V389.722C279.992 391.576 280.55 392.044 282.476 392.044H286.652C288.362 392.044 288.74 391.288 288.956 389.074C288.578 388.984 288.092 388.786 287.786 388.588C287.678 390.424 287.498 390.874 286.598 390.874H282.53Z" fill="black"/>
<path d="M193.319 338.772C193.886 333.965 193.581 328.98 192.249 324.012C186.624 303.019 165.045 290.56 144.052 296.185C124.934 301.308 112.9 319.664 115.149 338.763L114.419 339.181C106.872 321.4 87.1986 311.436 68.0163 316.576C47.0232 322.201 34.5645 343.78 40.1896 364.774C41.5164 369.725 43.749 374.211 46.6434 378.09C46.6434 378.09 71.1755 413.941 139.975 433.019C139.975 433.019 184.144 395.746 192.907 341.596C193.069 340.659 193.198 339.731 193.319 338.772Z" fill="#FF3C38" stroke="black" stroke-width="2" stroke-miterlimit="10"/>
<path d="M190.645 342.958L160.145 339.193C160.145 339.193 148.756 337.779 150.196 324.82C150.196 324.82 151.889 312.549 163.105 313.512L186.98 316.458" stroke="white" stroke-miterlimit="10"/>
<path d="M165.754 327.693L165.985 325.862C166.131 324.741 167.181 324.237 167.738 325.032L168.455 326.042C168.872 326.635 168.744 327.631 168.2 328.103L167.252 328.924C166.514 329.568 165.613 328.831 165.754 327.693Z" fill="white" stroke="white" stroke-miterlimit="10"/>
<path d="M167.716 309.373C167.716 309.373 165.082 313.583 167.103 318.366" stroke="white" stroke-miterlimit="10"/>
<path d="M173.817 309.834C173.817 309.834 170.064 313.073 170.594 318.255" stroke="white" stroke-miterlimit="10"/>
<path d="M163.314 344.802C163.314 344.802 161.79 340.075 164.923 335.937" stroke="white" stroke-miterlimit="10"/>
<path d="M169.332 345.852C169.332 345.852 166.491 341.786 168.256 336.899" stroke="white" stroke-miterlimit="10"/>
<path d="M163.507 321.146C163.643 320.046 162.877 319.045 161.795 318.911C160.713 318.776 159.725 319.559 159.588 320.66C159.451 321.76 160.218 322.761 161.3 322.895C162.382 323.03 163.37 322.247 163.507 321.146Z" fill="white" stroke="white" stroke-miterlimit="10"/>
<path d="M162.135 332.182C162.271 331.082 161.505 330.081 160.423 329.947C159.341 329.812 158.353 330.595 158.216 331.696C158.079 332.796 158.846 333.797 159.928 333.931C161.01 334.065 161.998 333.282 162.135 332.182Z" fill="white" stroke="white" stroke-miterlimit="10"/>
<path d="M151.865 318.997C151.865 318.997 150.297 315.003 151.977 310.568C151.977 310.568 157.01 309.288 159.84 313.631C159.84 313.631 155.727 314.372 151.865 318.997Z" stroke="white" stroke-miterlimit="10"/>
<path d="M150.383 331.348C150.383 331.348 147.886 334.851 148.424 339.551C148.424 339.551 153.001 342.017 156.801 338.509C156.801 338.509 152.985 336.766 150.383 331.348Z" stroke="white" stroke-miterlimit="10"/>
<path d="M171.481 321.436C171.481 321.436 175.46 326.158 169.359 327.106C169.194 327.132 169.149 327.351 169.287 327.417C170.351 327.99 174.537 330.149 170.3 333.569" stroke="white" stroke-miterlimit="10"/>
<path d="M148.614 359.235C145.966 356.853 145.031 352.466 146.905 349.267C149.053 345.617 153.745 344.412 157.395 346.56C161.045 348.708 162.251 353.4 160.103 357.05C159.892 357.416 158.533 358.433 158.256 358.747" stroke="white" stroke-miterlimit="10"/>
<path d="M145.398 381.206C145.219 381.821 144.543 383.462 144.214 384.031C142.066 387.681 137.374 388.887 133.724 386.739C130.074 384.591 128.868 379.898 131.016 376.248C133.164 372.598 137.856 371.393 141.506 373.541" stroke="white" stroke-miterlimit="10"/>
<path d="M168.748 395.148L146.551 382.048C146.551 382.048 136.678 376.226 143.144 364.909C143.144 364.909 149.586 354.337 159.499 359.668L182.328 372.238" stroke="white" stroke-miterlimit="10"/>
<path d="M150.073 378.27C151.144 377.983 151.78 376.882 151.493 375.811C151.206 374.741 150.105 374.105 149.034 374.392C147.963 374.679 147.328 375.78 147.615 376.851C147.901 377.921 149.002 378.557 150.073 378.27Z" fill="white" stroke="white" stroke-miterlimit="10"/>
<path d="M156.733 366.97C157.804 366.683 158.439 365.582 158.152 364.511C157.865 363.441 156.764 362.805 155.694 363.092C154.623 363.379 153.987 364.48 154.274 365.551C154.561 366.622 155.662 367.257 156.733 366.97Z" fill="white" stroke="white" stroke-miterlimit="10"/>
<path d="M166.567 358.032C166.567 358.032 162.477 360.845 162.428 366.045" stroke="white" stroke-miterlimit="10"/>
<path d="M171.983 360.874C171.983 360.874 167.243 362.351 165.668 367.307" stroke="white" stroke-miterlimit="10"/>
<path d="M148.423 388.777C148.423 388.777 148.903 383.839 153.44 381.284" stroke="white" stroke-miterlimit="10"/>
<path d="M153.534 392.148C153.534 392.148 152.539 387.279 156.113 383.505" stroke="white" stroke-miterlimit="10"/>
<path d="M156.897 374.123L157.828 372.534C158.407 371.554 159.566 371.519 159.771 372.477L160.029 373.696C160.17 374.414 159.677 375.267 158.976 375.472L157.787 375.842C156.855 376.144 156.334 375.098 156.897 374.123Z" fill="white" stroke="white" stroke-miterlimit="10"/>
<path d="M160.693 380.405L159.734 374.84L165.497 373.141" stroke="white" stroke-miterlimit="10"/>
<path d="M78.1574 403.397L94.4053 375.255C94.4053 375.255 100.717 364.323 113.226 371.328C113.226 371.328 124.921 378.311 119.15 389.27L102.951 417.725" stroke="white" stroke-miterlimit="10"/>
<path d="M101.293 380.64C102.47 380.325 103.169 379.115 102.853 377.938C102.538 376.761 101.328 376.062 100.151 376.377C98.9738 376.693 98.2752 377.903 98.5906 379.08C98.906 380.257 100.116 380.956 101.293 380.64Z" fill="white" stroke="white" stroke-miterlimit="10"/>
<path d="M113.79 387.855C114.967 387.539 115.665 386.329 115.35 385.152C115.034 383.975 113.824 383.277 112.647 383.592C111.47 383.908 110.772 385.117 111.087 386.295C111.402 387.472 112.612 388.17 113.79 387.855Z" fill="white" stroke="white" stroke-miterlimit="10"/>
<path d="M121.012 383.721C121.012 383.721 125.807 385.27 125.793 391.114C125.793 391.114 125.312 399.642 119.518 399.683C119.518 399.683 115.518 399.243 116.247 394.977C116.243 394.961 120.056 389.061 121.012 383.721Z" stroke="white" stroke-miterlimit="10"/>
<path d="M98.2953 370.605C98.2953 370.605 94.5562 367.227 89.5026 370.162C89.5026 370.162 82.3575 374.842 85.2191 379.88C85.2191 379.88 87.5998 383.124 90.9298 380.36C90.9298 380.36 94.1283 374.092 98.2953 370.605Z" stroke="white" stroke-miterlimit="10"/>
<path d="M104.351 383.977L106.668 385.315C108.09 386.136 108.167 387.833 106.772 388.138L105.003 388.526C103.981 388.748 102.721 388.021 102.403 387.024L101.854 385.299C101.425 383.954 102.929 383.156 104.351 383.977Z" fill="white" stroke="white" stroke-miterlimit="10"/>
<path d="M97.0944 389.649L103.205 388.544L105.138 394.862" stroke="white" stroke-miterlimit="10"/>
<path d="M118.615 376.377C118.615 376.377 124.505 375.795 120.995 370.964C120.995 370.964 126.467 367.797 120.609 365.039C120.609 365.039 119.619 359.997 115.738 362.565C115.738 362.565 112.357 358.662 111.112 362.414C111.112 362.414 107.103 362.131 107.671 365.019C107.671 365.019 104.156 366.39 106.33 368.796C106.341 368.776 113.776 369.601 118.615 376.377Z" stroke="white" stroke-miterlimit="10"/>
<path d="M71.0302 353.401C72.1099 353.112 72.7507 352.002 72.4614 350.922C72.1721 349.842 71.0622 349.201 69.9824 349.491C68.9027 349.78 68.2619 350.89 68.5512 351.97C68.8405 353.05 69.9504 353.69 71.0302 353.401Z" fill="white" stroke="white" stroke-miterlimit="10"/>
<path d="M77.8141 364.809C78.8939 364.519 79.5346 363.409 79.2453 362.33C78.956 361.25 77.8461 360.609 76.7664 360.898C75.6866 361.188 75.0458 362.298 75.3351 363.377C75.6245 364.457 76.7343 365.098 77.8141 364.809Z" fill="white" stroke="white" stroke-miterlimit="10"/>
<path d="M41.9346 361.094L67.6067 345.816C67.6067 345.816 77.5759 339.881 84.4696 351.122C84.4696 351.122 90.7249 361.967 81.1706 368.169L55.3941 383.698" stroke="white" stroke-miterlimit="10"/>
<path d="M55.4464 383.701C55.4464 383.701 58.3676 390.373 64.3138 387.629C64.3138 387.629 70.6071 385.668 70.4747 376.84C70.4555 375.935 69.4598 375.36 68.707 375.82L55.4464 383.701Z" stroke="white" stroke-miterlimit="10"/>
<path d="M41.9827 361.081C41.9827 361.081 37.5076 355.341 42.7577 351.41C42.7577 351.41 47.4854 346.811 55.1884 351.136C55.9766 351.578 56.0122 352.736 55.239 353.184L41.9827 361.081Z" stroke="white" stroke-miterlimit="10"/>
<path d="M83.1235 348.855C83.1235 348.855 87.6448 345.857 90.4019 347.558C90.4019 347.558 90.3058 351.173 85.7739 353.298C85.7782 353.314 85.4486 351.186 83.1235 348.855Z" stroke="white" stroke-miterlimit="10"/>
<path d="M73.7531 371.256C75.3197 370.836 76.2494 369.226 75.8296 367.659C75.4098 366.093 73.7996 365.163 72.2331 365.583C70.6665 366.002 69.7369 367.613 70.1566 369.179C70.5764 370.746 72.1866 371.675 73.7531 371.256Z" fill="white"/>
<path d="M64.4272 355.617C65.9938 355.197 66.9234 353.587 66.5037 352.02C66.0839 350.454 64.4737 349.524 62.9072 349.944C61.3406 350.364 60.411 351.974 60.8307 353.54C61.2505 355.107 62.8607 356.037 64.4272 355.617Z" fill="white"/>
<path d="M65.6277 354.969L69.9351 357.198C71.0719 357.787 72.0098 359.236 72.1043 360.55L72.435 365.374C72.5653 367.143 71.1105 367.739 69.6374 366.536L66.21 363.744C65.5286 363.188 64.9793 362.357 64.7271 361.479L63.5166 357.218C62.9938 355.331 64.0889 354.162 65.6277 354.969Z" stroke="white" stroke-width="0.75" stroke-miterlimit="10"/>
<path d="M63.7688 354.505C63.7688 354.505 66.3764 361.673 72.198 367.31" stroke="white" stroke-width="0.75" stroke-miterlimit="10"/>
<path opacity="0.35" d="M336.812 18.6692C336.812 17.4726 337.782 16.5026 338.979 16.5026H355.469C356.666 16.5026 357.636 17.4726 357.636 18.6692V24.6692C357.636 25.8658 356.666 26.8359 355.469 26.8359H338.979C337.782 26.8359 336.812 25.8658 336.812 24.6692V18.6692Z" stroke="black"/>
<path opacity="0.4" d="M359.128 19.6692V23.6692C359.926 23.3304 360.445 22.5423 360.445 21.6692C360.445 20.7961 359.926 20.008 359.128 19.6692Z" fill="black"/>
<path d="M338.296 19.3359C338.296 18.5995 338.893 18.0026 339.629 18.0026H354.819C355.555 18.0026 356.152 18.5995 356.152 19.3359V24.0026C356.152 24.7389 355.555 25.3359 354.819 25.3359H339.629C338.893 25.3359 338.296 24.7389 338.296 24.0026V19.3359Z" fill="black"/>
<path fill-rule="evenodd" clip-rule="evenodd" d="M323.744 18.2773C325.942 18.2774 328.056 19.1289 329.649 20.6557C329.769 20.7735 329.961 20.772 330.079 20.6523L331.226 19.4857C331.286 19.4249 331.319 19.3427 331.318 19.2571C331.318 19.1715 331.284 19.0897 331.223 19.0297C327.042 14.9901 320.445 14.9901 316.264 19.0297C316.203 19.0896 316.169 19.1715 316.168 19.257C316.168 19.3426 316.201 19.4249 316.261 19.4857L317.408 20.6523C317.526 20.7722 317.718 20.7737 317.838 20.6557C319.431 19.1288 321.545 18.2773 323.744 18.2773ZM323.744 22.073C324.951 22.0729 326.116 22.5255 327.011 23.3427C327.132 23.4587 327.323 23.4562 327.441 23.337L328.587 22.1704C328.647 22.1092 328.68 22.0261 328.68 21.9399C328.679 21.8536 328.644 21.7713 328.582 21.7114C325.856 19.155 321.634 19.155 318.908 21.7114C318.846 21.7713 318.811 21.8537 318.81 21.9399C318.809 22.0262 318.843 22.1092 318.903 22.1704L320.049 23.337C320.167 23.4562 320.357 23.4587 320.478 23.3427C321.373 22.526 322.537 22.0735 323.744 22.073ZM326.038 24.6268C326.04 24.7133 326.006 24.7967 325.945 24.8573L323.964 26.873C323.906 26.9323 323.826 26.9656 323.744 26.9656C323.661 26.9656 323.582 26.9323 323.524 26.873L321.542 24.8573C321.481 24.7967 321.447 24.7133 321.449 24.6268C321.451 24.5403 321.488 24.4583 321.552 24.4003C322.817 23.3215 324.67 23.3215 325.936 24.4003C325.999 24.4584 326.037 24.5403 326.038 24.6268Z" fill="black"/>
<path fill-rule="evenodd" clip-rule="evenodd" d="M312.189 16.3359H311.197C310.65 16.3359 310.205 16.7837 310.205 17.3359V26.0026C310.205 26.5549 310.65 27.0026 311.197 27.0026H312.189C312.737 27.0026 313.181 26.5549 313.181 26.0026V17.3359C313.181 16.7837 312.737 16.3359 312.189 16.3359ZM306.568 18.6693H307.56C308.108 18.6693 308.552 19.117 308.552 19.6693V26.0026C308.552 26.5549 308.108 27.0026 307.56 27.0026H306.568C306.02 27.0026 305.576 26.5549 305.576 26.0026V19.6693C305.576 19.117 306.02 18.6693 306.568 18.6693ZM302.931 21.0026H301.939C301.391 21.0026 300.947 21.4503 300.947 22.0026V26.0026C300.947 26.5549 301.391 27.0026 301.939 27.0026H302.931C303.479 27.0026 303.923 26.5549 303.923 26.0026V22.0026C303.923 21.4503 303.479 21.0026 302.931 21.0026ZM298.301 23.0026H297.309C296.762 23.0026 296.317 23.4503 296.317 24.0026V26.0026C296.317 26.5549 296.762 27.0026 297.309 27.0026H298.301C298.849 27.0026 299.293 26.5549 299.293 26.0026V24.0026C299.293 23.4503 298.849 23.0026 298.301 23.0026Z" fill="black"/>
<path d="M38.4455 22.8765C37.9133 23.355 37.3176 23.5942 36.6584 23.5942C35.6916 23.5942 34.925 23.2671 34.3586 22.6128C33.7922 21.9585 33.509 21.0845 33.509 19.9907C33.509 19.3071 33.6677 18.6724 33.9851 18.0864C34.3025 17.5005 34.7468 17.0366 35.3181 16.6948C35.8943 16.353 36.529 16.1821 37.2224 16.1821C37.9255 16.1821 38.5603 16.3604 39.1267 16.7168C39.698 17.0684 40.1423 17.5688 40.4597 18.2183C40.7771 18.8628 40.9406 19.6074 40.9504 20.4521V21.397C40.9504 22.5737 40.7185 23.5942 40.2546 24.4585C39.7956 25.3228 39.1389 25.9868 38.2844 26.4507C37.4299 26.9146 36.4338 27.1465 35.2961 27.1465H35.1423V25.1689L35.6111 25.1616C37.3103 25.0786 38.2551 24.3169 38.4455 22.8765ZM37.3249 21.8145C37.862 21.8145 38.2478 21.5825 38.4821 21.1187V20.0933C38.4821 19.4097 38.3674 18.9043 38.1379 18.5771C37.9084 18.25 37.5984 18.0864 37.2077 18.0864C36.8611 18.0864 36.5705 18.272 36.3361 18.6431C36.1018 19.0142 35.9846 19.4634 35.9846 19.9907C35.9846 20.5474 36.1042 20.9917 36.3435 21.3237C36.5827 21.6509 36.9099 21.8145 37.3249 21.8145ZM43.5435 24.605C43.9341 24.605 44.2588 24.7222 44.5176 24.9565C44.7764 25.186 44.9058 25.4814 44.9058 25.8428C44.9058 26.2041 44.7764 26.502 44.5176 26.7363C44.2588 26.9658 43.9341 27.0806 43.5435 27.0806C43.148 27.0806 42.8208 26.9634 42.562 26.729C42.3081 26.4946 42.1812 26.1992 42.1812 25.8428C42.1812 25.4863 42.3081 25.1909 42.562 24.9565C42.8208 24.7222 43.148 24.605 43.5435 24.605ZM43.5435 18.7603C43.9341 18.7603 44.2588 18.8774 44.5176 19.1118C44.7764 19.3413 44.9058 19.6367 44.9058 19.998C44.9058 20.3594 44.7764 20.6572 44.5176 20.8916C44.2588 21.1211 43.9341 21.2358 43.5435 21.2358C43.148 21.2358 42.8208 21.1187 42.562 20.8843C42.3081 20.6499 42.1812 20.3545 42.1812 19.998C42.1812 19.6416 42.3081 19.3462 42.562 19.1118C42.8208 18.8774 43.148 18.7603 43.5435 18.7603ZM51.6517 27H49.1761V19.1191L46.7444 19.8296V17.9546L51.4246 16.3359H51.6517V27ZM61.0856 22.8325H62.1695V24.7368H61.0856V27H58.6173V24.7368H54.4938L54.3473 23.228L58.6173 16.3579V16.3359H61.0856V22.8325ZM56.6984 22.8325H58.6173V19.5513L58.4635 19.8003L56.6984 22.8325Z" fill="black"/>
</g>
<defs>
<clipPath id="clip0_222_1026">
<rect width="375" height="812" rx="40" fill="white"/>
</clipPath>
<clipPath id="clip1_222_1026">
<rect width="44" height="44" fill="white" transform="translate(16 42)"/>
</clipPath>
<clipPath id="clip2_222_1026">
<rect width="343" height="160" fill="white" transform="translate(16 135)"/>
</clipPath>
</defs>
</svg>
