<svg width="375" height="812" viewBox="0 0 375 812" fill="none" xmlns="http://www.w3.org/2000/svg">
<g clip-path="url(#clip0_492_1175)">
<rect width="375" height="812" rx="40" fill="#FCF5EF"/>
<rect x="121" y="799" width="134" height="5" rx="2.5" fill="black"/>
<g clip-path="url(#clip1_492_1175)">
<rect x="16" y="166" width="90" height="99" rx="15" fill="white"/>
<path d="M106 193L16 193L16 181C16 172.716 22.7157 166 31 166L91 166C99.2843 166 106 172.716 106 181L106 193Z" fill="#FEE1AA"/>
<path d="M82.4932 197.594C82.4932 197.594 82.4932 211.994 68.8941 217.099L66.5994 214.535C66.5994 214.535 75.1931 213.18 78.3118 203.908C78.3118 203.908 79.336 199.658 79.3822 197.594C79.3822 197.594 79.4438 196.208 81.0455 196.008C81.0378 196 82.5779 195.831 82.4932 197.594Z" fill="#643219" stroke="black" stroke-width="2" stroke-miterlimit="10"/>
<path d="M70.7655 234.171C74.2103 234.171 77.0029 231.379 77.0029 227.934C77.0029 224.489 74.2103 221.697 70.7655 221.697C67.3207 221.697 64.5281 224.489 64.5281 227.934C64.5281 231.379 67.3207 234.171 70.7655 234.171Z" fill="#423052" stroke="black" stroke-width="2" stroke-miterlimit="10"/>
<path d="M70.4534 225.08C71.1323 224.493 71.3083 223.584 70.8466 223.05C70.3849 222.516 69.4603 222.559 68.7814 223.146C68.1026 223.733 67.9265 224.641 68.3882 225.175C68.85 225.709 69.7746 225.667 70.4534 225.08Z" fill="#6A567A"/>
<path d="M56.6813 219.402C60.1261 219.402 62.9187 216.609 62.9187 213.164C62.9187 209.72 60.1261 206.927 56.6813 206.927C53.2364 206.927 50.4438 209.72 50.4438 213.164C50.4438 216.609 53.2364 219.402 56.6813 219.402Z" fill="#8C709A" stroke="black" stroke-width="2" stroke-miterlimit="10"/>
<path d="M56.375 210.308C57.0539 209.722 57.2299 208.813 56.7682 208.279C56.3065 207.745 55.3819 207.788 54.703 208.374C54.0242 208.961 53.8482 209.87 54.3099 210.404C54.7716 210.938 55.6962 210.895 56.375 210.308Z" fill="#9E87AD"/>
<path d="M45.3309 219.894C48.7757 219.894 51.5683 217.102 51.5683 213.657C51.5683 210.212 48.7757 207.42 45.3309 207.42C41.8861 207.42 39.0935 210.212 39.0935 213.657C39.0935 217.102 41.8861 219.894 45.3309 219.894Z" fill="#645293" stroke="black" stroke-width="2" stroke-miterlimit="10"/>
<path d="M45.0188 210.803C45.6977 210.217 45.8737 209.308 45.412 208.774C44.9503 208.24 44.0257 208.283 43.3468 208.869C42.668 209.456 42.492 210.365 42.9537 210.899C43.4154 211.433 44.34 211.39 45.0188 210.803Z" fill="#8B81B1"/>
<path d="M40.3641 242.511C43.8089 242.511 46.6015 239.718 46.6015 236.274C46.6015 232.829 43.8089 230.036 40.3641 230.036C36.9193 230.036 34.1267 232.829 34.1267 236.274C34.1267 239.718 36.9193 242.511 40.3641 242.511Z" fill="#645293" stroke="black" stroke-width="2" stroke-miterlimit="10"/>
<path d="M40.052 233.42C40.7309 232.833 40.9069 231.924 40.4452 231.39C39.9835 230.856 39.0589 230.899 38.38 231.486C37.7012 232.073 37.5252 232.981 37.9869 233.515C38.4486 234.05 39.3732 234.007 40.052 233.42Z" fill="#8B81B1"/>
<path d="M41.3802 231.084C44.8251 231.084 47.6176 228.291 47.6176 224.846C47.6176 221.401 44.8251 218.609 41.3802 218.609C37.9354 218.609 35.1428 221.401 35.1428 224.846C35.1428 228.291 37.9354 231.084 41.3802 231.084Z" fill="#533B62" stroke="black" stroke-width="2" stroke-miterlimit="10"/>
<path d="M41.0796 221.998C41.7585 221.411 41.9345 220.502 41.4728 219.968C41.0111 219.434 40.0865 219.477 39.4076 220.064C38.7288 220.651 38.5528 221.56 39.0145 222.094C39.4762 222.628 40.4008 222.585 41.0796 221.998Z" fill="#6A567A"/>
<path d="M51.3219 229.574C54.7667 229.574 57.5593 226.782 57.5593 223.337C57.5593 219.892 54.7667 217.099 51.3219 217.099C47.8771 217.099 45.0845 219.892 45.0845 223.337C45.0845 226.782 47.8771 229.574 51.3219 229.574Z" fill="#645293" stroke="black" stroke-width="2" stroke-miterlimit="10"/>
<path d="M51.0122 220.488C51.6911 219.902 51.8671 218.993 51.4054 218.459C50.9437 217.925 50.0191 217.968 49.3402 218.554C48.6614 219.141 48.4854 220.05 48.9471 220.584C49.4088 221.118 50.3334 221.075 51.0122 220.488Z" fill="#8B81B1"/>
<path d="M49.712 240.401C53.1568 240.401 55.9494 237.608 55.9494 234.164C55.9494 230.719 53.1568 227.926 49.712 227.926C46.2672 227.926 43.4746 230.719 43.4746 234.164C43.4746 237.608 46.2672 240.401 49.712 240.401Z" fill="#8C709A" stroke="black" stroke-width="2" stroke-miterlimit="10"/>
<path d="M49.4009 231.316C50.0798 230.729 50.2558 229.82 49.7941 229.286C49.3324 228.752 48.4078 228.795 47.7289 229.382C47.0501 229.969 46.874 230.877 47.3358 231.411C47.7975 231.946 48.7221 231.903 49.4009 231.316Z" fill="#9E87AD"/>
<path d="M59.6764 236.589C63.1212 236.589 65.9138 233.797 65.9138 230.352C65.9138 226.907 63.1212 224.115 59.6764 224.115C56.2315 224.115 53.439 226.907 53.439 230.352C53.439 233.797 56.2315 236.589 59.6764 236.589Z" fill="#533B62" stroke="black" stroke-width="2" stroke-miterlimit="10"/>
<path d="M59.3672 227.506C60.0461 226.919 60.2221 226.01 59.7604 225.476C59.2987 224.942 58.3741 224.985 57.6952 225.572C57.0164 226.159 56.8404 227.068 57.3021 227.602C57.7638 228.136 58.6884 228.093 59.3672 227.506Z" fill="#6A567A"/>
<path d="M48.7652 250.373C52.2101 250.373 55.0026 247.581 55.0026 244.136C55.0026 240.691 52.2101 237.898 48.7652 237.898C45.3204 237.898 42.5278 240.691 42.5278 244.136C42.5278 247.581 45.3204 250.373 48.7652 250.373Z" fill="#533B62" stroke="black" stroke-width="2" stroke-miterlimit="10"/>
<path d="M48.4561 241.289C49.1349 240.702 49.311 239.793 48.8493 239.259C48.3876 238.725 47.4629 238.768 46.7841 239.355C46.1052 239.942 45.9292 240.851 46.3909 241.385C46.8526 241.919 47.7772 241.876 48.4561 241.289Z" fill="#6A567A"/>
<path d="M59.2687 247.84C62.7135 247.84 65.5061 245.047 65.5061 241.602C65.5061 238.158 62.7135 235.365 59.2687 235.365C55.8238 235.365 53.0312 238.158 53.0312 241.602C53.0312 245.047 55.8238 247.84 59.2687 247.84Z" fill="#645293" stroke="black" stroke-width="2" stroke-miterlimit="10"/>
<path d="M58.9634 238.746C59.6423 238.159 59.8183 237.25 59.3566 236.716C58.8949 236.182 57.9703 236.225 57.2914 236.812C56.6126 237.399 56.4365 238.307 56.8983 238.842C57.36 239.376 58.2846 239.333 58.9634 238.746Z" fill="#8B81B1"/>
<path d="M63.7887 226.124C67.2335 226.124 70.0261 223.332 70.0261 219.887C70.0261 216.442 67.2335 213.65 63.7887 213.65C60.3439 213.65 57.5513 216.442 57.5513 219.887C57.5513 223.332 60.3439 226.124 63.7887 226.124Z" fill="#645293" stroke="black" stroke-width="2" stroke-miterlimit="10"/>
<path d="M63.4837 217.037C64.1625 216.45 64.3386 215.541 63.8768 215.007C63.4151 214.473 62.4905 214.516 61.8117 215.103C61.1328 215.69 60.9568 216.598 61.4185 217.132C61.8802 217.666 62.8048 217.624 63.4837 217.037Z" fill="#8B81B1"/>
<path d="M37.2374 252.876C40.6822 252.876 43.4748 250.083 43.4748 246.638C43.4748 243.193 40.6822 240.401 37.2374 240.401C33.7926 240.401 31 243.193 31 246.638C31 250.083 33.7926 252.876 37.2374 252.876Z" fill="#8C709A" stroke="black" stroke-width="2" stroke-miterlimit="10"/>
<path d="M36.9297 243.792C37.6086 243.205 37.7846 242.297 37.3229 241.763C36.8612 241.228 35.9366 241.271 35.2577 241.858C34.5789 242.445 34.4029 243.354 34.8646 243.888C35.3263 244.422 36.2509 244.379 36.9297 243.792Z" fill="#9E87AD"/>
<path d="M69.1561 243.558C72.6009 243.558 75.3935 240.765 75.3935 237.321C75.3935 233.876 72.6009 231.083 69.1561 231.083C65.7113 231.083 62.9187 233.876 62.9187 237.321C62.9187 240.765 65.7113 243.558 69.1561 243.558Z" fill="#8C709A" stroke="black" stroke-width="2" stroke-miterlimit="10"/>
<path d="M68.845 234.466C69.5239 233.879 69.6999 232.971 69.2382 232.437C68.7765 231.902 67.8519 231.945 67.173 232.532C66.4942 233.119 66.3181 234.028 66.7798 234.562C67.2416 235.096 68.1662 235.053 68.845 234.466Z" fill="#9E87AD"/>
<path d="M77.465 211.393L89.2929 224.014C89.3237 224.045 89.3006 224.107 89.2544 224.099C88.4228 223.968 83.9719 223.129 80.4913 219.525C80.4913 219.525 76.0019 215.251 77.2648 211.439C77.2879 211.347 77.4034 211.324 77.465 211.393Z" fill="#3E9C41" stroke="black" stroke-width="2" stroke-miterlimit="10"/>
<path d="M77.5802 211.386L89.2696 223.937C89.3312 223.999 89.439 223.953 89.4236 223.868C89.3158 222.782 88.6844 218.501 85.4656 214.936C85.4656 214.936 81.5152 210.184 77.6342 211.162C77.5417 211.193 77.5109 211.316 77.5802 211.386Z" fill="#81B14A" stroke="black" stroke-width="2" stroke-miterlimit="10"/>
<path d="M78.2043 210.916L90.964 214.373C90.9949 214.381 91.0025 214.427 90.9717 214.443C90.3788 214.689 87.1446 215.929 83.433 214.989C83.433 214.989 78.7973 214.011 78.0888 211.024C78.0734 210.962 78.135 210.9 78.2043 210.916Z" fill="#3E9C41" stroke="black" stroke-width="2" stroke-miterlimit="10"/>
<path d="M78.2737 210.869L90.9102 214.342C90.9718 214.358 91.0257 214.288 90.9872 214.235C90.4789 213.572 88.3536 211.039 84.8268 210.015C84.8268 210.015 80.3528 208.513 78.2198 210.708C78.1735 210.754 78.1966 210.846 78.2737 210.869Z" fill="#81B14A" stroke="black" stroke-width="2" stroke-miterlimit="10"/>
<path d="M56.092 176.692L55.56 177.112C56.008 177.322 56.526 177.63 56.848 177.896H54.692V176.916H53.768V177.896H50.66C50.954 177.504 51.234 177.098 51.472 176.692H56.092ZM57.814 179.324H54.692V178.568H58.192V177.896H57.1L57.534 177.49C57.254 177.224 56.694 176.888 56.204 176.692H59.816C59.676 181.69 59.522 183.51 59.2 183.916C59.074 184.098 58.962 184.14 58.766 184.126C58.57 184.126 58.22 184.126 57.8 184.098C57.814 184.042 57.814 183.972 57.814 183.888V179.324ZM54.692 182.348V181.48H56.904V182.348H54.692ZM51.654 182.348V181.48H53.768V182.348H51.654ZM54.692 179.982H56.904V180.822H54.692V179.982ZM53.768 179.982V180.822H51.654V179.982H53.768ZM58.052 175.306V174.186H61.272V173.262H58.052V172.296H57.03V173.262H53.194V172.296H52.186V173.262H49.064V174.186H52.186V174.942L51.276 174.802C50.814 175.992 49.96 177.434 48.658 178.54C48.924 178.666 49.302 178.918 49.512 179.142C49.848 178.834 50.156 178.512 50.436 178.176V178.568H53.768V179.324H50.758V184.77H51.654V182.992H53.768V184.714H54.692V182.992H56.904V183.902C56.904 184.028 56.862 184.07 56.736 184.084C56.582 184.084 56.162 184.098 55.658 184.07C55.77 184.252 55.896 184.546 55.938 184.77C56.652 184.77 57.128 184.756 57.436 184.63C57.52 184.602 57.576 184.56 57.632 184.504C57.688 184.7 57.716 184.896 57.73 185.036C58.276 185.064 58.85 185.078 59.2 185.022C59.592 184.98 59.844 184.882 60.096 184.518C60.53 183.944 60.67 182.082 60.838 176.314C60.838 176.174 60.852 175.81 60.852 175.81H51.962C52.046 175.642 52.116 175.474 52.2 175.306H53.194V174.186H57.03V175.306H58.052ZM71.772 175.306V174.326H74.992V173.388H71.772V172.296H70.75V173.388H66.9V172.296H65.892V173.388H62.77V174.326H65.892V174.872L64.926 174.718C64.478 175.964 63.624 177.518 62.35 178.68C62.616 178.792 62.994 179.058 63.162 179.282C63.96 178.498 64.59 177.602 65.094 176.692H73.41C73.284 181.704 73.116 183.496 72.808 183.888C72.682 184.084 72.584 184.126 72.388 184.112C72.164 184.112 71.744 184.112 71.268 184.07V181.41H70.344V183.076H68.412V181.018H71.954V180.178H68.412V178.806H71.268V178.022H66.382C66.508 177.742 66.606 177.462 66.704 177.182L65.836 176.986C65.514 177.994 64.968 178.988 64.296 179.674C64.492 179.772 64.884 180.01 65.066 180.136C65.388 179.772 65.71 179.31 65.99 178.806H67.46V180.178H63.806V181.018H67.46V183.076H65.528V181.41H64.604V184.616H65.528V183.916H70.344V184.462H71.268V184.364C71.352 184.602 71.408 184.854 71.422 185.036C71.94 185.064 72.5 185.078 72.836 185.036C73.228 184.98 73.466 184.882 73.718 184.532C74.138 183.958 74.278 182.082 74.446 176.342C74.446 176.188 74.46 175.81 74.46 175.81H65.542C65.668 175.544 65.794 175.278 65.892 175.026V175.306H66.9V174.326H70.75V175.306H71.772Z" fill="black"/>
<rect x="343" y="166" width="90" height="99" rx="15" fill="white"/>
<path d="M433 193L343 193L343 181C343 172.716 349.716 166 358 166L418 166C426.284 166 433 172.716 433 181L433 193Z" fill="#FEE1AA"/>
<rect x="125" y="166" width="90" height="99" rx="15" fill="white"/>
<path d="M147.45 210.958L141.16 217.432L150.766 225.644L157.056 219.17L147.45 210.958Z" fill="#814537" stroke="#040000" stroke-width="2" stroke-miterlimit="10"/>
<path d="M153.722 204.471L147.432 210.946L157.037 219.158L163.327 212.683L153.722 204.471Z" fill="#814537" stroke="#040000" stroke-width="2" stroke-miterlimit="10"/>
<path d="M160.007 198L153.716 204.474L163.322 212.687L169.612 206.212L160.007 198Z" fill="#814537" stroke="#040000" stroke-width="2" stroke-miterlimit="10"/>
<path d="M156.782 218.935L150.492 225.41L160.098 233.622L166.388 227.147L156.782 218.935Z" fill="#814537" stroke="#040000" stroke-width="2" stroke-miterlimit="10"/>
<path d="M163.054 212.448L156.764 218.923L166.369 227.135L172.659 220.661L163.054 212.448Z" fill="#814537" stroke="#040000" stroke-width="2" stroke-miterlimit="10"/>
<path d="M169.339 205.977L163.048 212.452L172.654 220.664L178.944 214.189L169.339 205.977Z" fill="#814537" stroke="#040000" stroke-width="2" stroke-miterlimit="10"/>
<path d="M166.354 227.125L160.064 233.599L169.669 241.811L175.96 235.337L166.354 227.125Z" fill="#814537" stroke="#040000" stroke-width="2" stroke-miterlimit="10"/>
<path d="M172.626 220.638L166.335 227.112L175.941 235.324L182.231 228.85L172.626 220.638Z" fill="#814537" stroke="#040000" stroke-width="2" stroke-miterlimit="10"/>
<path d="M178.915 214.162L172.625 220.637L182.23 228.849L188.521 222.374L178.915 214.162Z" fill="#814537" stroke="#040000" stroke-width="2" stroke-miterlimit="10"/>
<path d="M183.713 218.269L164.847 237.688L179.709 250.394L198.575 230.975L183.713 218.269Z" fill="#D54426" stroke="#040000" stroke-width="2" stroke-miterlimit="10"/>
<path d="M167.091 235.001L180.652 216.168L186.772 224.473L167.091 235.001Z" fill="white" stroke="#040000" stroke-width="2" stroke-miterlimit="10"/>
<path d="M156.768 219.728L151.331 225.324L152.108 225.988L157.544 220.392L156.768 219.728Z" fill="#C68A6B"/>
<path d="M160.704 232.008L152.812 225.261L152.104 225.989L159.996 232.737L160.704 232.008Z" fill="#C68A6B"/>
<path d="M166.379 227.953L160.942 233.549L161.719 234.213L167.156 228.617L166.379 227.953Z" fill="#C68A6B"/>
<path d="M165.494 236.108L162.422 233.482L161.714 234.21L164.786 236.837L165.494 236.108Z" fill="#C68A6B"/>
<path d="M172.644 221.485L167.207 227.081L167.984 227.745L173.42 222.149L172.644 221.485Z" fill="#C68A6B"/>
<path d="M170.788 228.803L168.687 227.01L167.984 227.737L170.197 229.629L170.788 228.803Z" fill="#C68A6B"/>
<path d="M178.93 215.017L173.493 220.612L174.27 221.276L179.706 215.68L178.93 215.017Z" fill="#C68A6B"/>
<path d="M176.061 221.472L174.978 220.542L174.269 221.269L175.47 222.298L176.061 221.472Z" fill="#C68A6B"/>
<path d="M163.114 213.284L157.678 218.879L158.454 219.543L163.891 213.948L163.114 213.284Z" fill="#C68A6B"/>
<path d="M167.05 225.56L159.158 218.812L158.45 219.541L166.343 226.288L167.05 225.56Z" fill="#C68A6B"/>
<path d="M169.358 206.831L163.922 212.427L164.698 213.091L170.135 207.495L169.358 206.831Z" fill="#C68A6B"/>
<path d="M173.298 219.11L165.406 212.363L164.698 213.091L172.591 219.838L173.298 219.11Z" fill="#C68A6B"/>
<path d="M153.749 205.347L148.312 210.943L149.089 211.607L154.526 206.011L153.749 205.347Z" fill="#C68A6B"/>
<path d="M157.382 217.363L149.796 210.877L149.088 211.605L156.674 218.091L157.382 217.363Z" fill="#C68A6B"/>
<path d="M147.49 211.818L142.054 217.413L142.83 218.077L148.267 212.482L147.49 211.818Z" fill="#C68A6B"/>
<path d="M151.121 223.831L143.534 217.345L142.826 218.074L150.413 224.56L151.121 223.831Z" fill="#C68A6B"/>
<path d="M160.046 198.881L154.61 204.477L155.386 205.141L160.823 199.545L160.046 198.881Z" fill="#C68A6B"/>
<path d="M163.677 210.895L156.091 204.409L155.383 205.137L162.969 211.623L163.677 210.895Z" fill="#C68A6B"/>
<path d="M166.946 236.374L187.56 226.352L195.835 232.912L197.719 231.003L183.725 219.052L183.574 219.212L187.646 224.62L168.299 234.976L166.946 236.374Z" fill="#B44522"/>
<path d="M141.506 217.733L164.851 237.687V241.167L141.033 220.684L141 217.696C141 217.585 141.42 217.653 141.506 217.733Z" fill="#814537" stroke="#040000" stroke-width="2" stroke-miterlimit="10"/>
<path d="M150.765 225.649L150.699 229" stroke="#040000" stroke-width="2" stroke-miterlimit="10"/>
<path d="M160.097 233.627V237.083" stroke="#040000" stroke-width="2" stroke-miterlimit="10"/>
<path d="M198.823 231.372L199 234.846L180.153 254.88L164.852 241.173V237.693L179.713 250.395L198.271 231.292C198.646 230.91 198.685 231.366 198.823 231.372Z" fill="#D54426" stroke="#040000" stroke-width="2" stroke-miterlimit="10"/>
<path d="M180.159 254.88L179.712 250.395" stroke="#040000" stroke-width="2" stroke-miterlimit="10"/>
<path d="M215 193L125 193L125 181C125 172.716 131.716 166 140 166L200 166C208.284 166 215 172.716 215 181L215 193Z" fill="#FEE1AA"/>
<path d="M162.594 176.172V175.15H155.006V176.158H149.98V177.194H152.01V182.724C151.17 182.92 150.414 183.088 149.798 183.228L150.036 184.278C151.548 183.9 153.634 183.396 155.608 182.892L155.496 181.912C154.684 182.108 153.858 182.304 153.06 182.486V177.194H155.062V176.172H156.952C156.602 177.936 156.126 180.022 155.734 181.352L156.812 181.506C156.91 181.17 157.008 180.778 157.106 180.344H161.18C160.886 183.928 160.564 185.454 160.088 185.86C159.934 186.014 159.752 186.042 159.444 186.042C159.094 186.042 158.17 186.028 157.232 185.93C157.428 186.224 157.568 186.686 157.596 186.994C158.492 187.05 159.36 187.064 159.808 187.036C160.34 186.994 160.676 186.896 160.998 186.532C161.586 185.93 161.936 184.222 162.272 179.854C162.286 179.7 162.3 179.35 162.3 179.35H157.344C157.582 178.328 157.834 177.194 158.03 176.172H162.594ZM166.556 179.126H173.458V181.366H166.556V179.126ZM172.674 185.944C172.086 185.944 171.974 185.874 171.974 185.468V182.318H174.508V178.188H170.476V176.648H176.034V175.682H170.476V174.282H169.44V175.682H164.008V176.648H169.44V178.188H165.562V182.318H167.732C167.452 184.278 166.724 185.524 163.658 186.154C163.868 186.378 164.162 186.812 164.26 187.106C167.634 186.294 168.516 184.726 168.852 182.318H170.938V185.468C170.938 186.602 171.274 186.938 172.576 186.938H174.774C175.95 186.938 176.258 186.42 176.384 184.32C176.09 184.25 175.642 184.082 175.404 183.886C175.348 185.678 175.264 185.944 174.69 185.944H172.674ZM183.552 177.334C183.552 177.124 183.552 176.928 183.552 176.732V174.31H182.474V176.732C182.474 176.928 182.474 177.124 182.474 177.334H177.938V178.37H182.418C182.208 180.988 181.312 184.054 177.518 186.308C177.77 186.476 178.148 186.882 178.316 187.134C182.376 184.656 183.3 181.268 183.496 178.37H188.27C188.004 183.298 187.696 185.272 187.192 185.748C187.024 185.916 186.842 185.958 186.548 185.958C186.198 185.958 185.302 185.944 184.35 185.86C184.56 186.168 184.686 186.616 184.7 186.924C185.554 186.98 186.45 187.008 186.94 186.966C187.472 186.91 187.808 186.798 188.13 186.406C188.746 185.706 189.04 183.62 189.348 177.88C189.362 177.726 189.376 177.334 189.376 177.334H183.552Z" fill="black"/>
<rect x="234" y="166" width="90" height="99" rx="15" fill="white"/>
<path d="M265.387 230.884C265.387 230.884 269.793 229.124 273.508 226.514C273.508 226.514 282.813 220.349 285.503 227.772C285.503 227.772 286.753 234.104 289.051 236.554C289.051 236.554 291.85 239.52 291.581 244.522C291.581 244.522 291.428 250.621 287.139 251.952C287.139 251.952 284.74 252.286 280.065 255.907C280.065 255.907 272.708 261.01 268.833 255.34C268.833 255.34 264.413 248.091 261.898 246.434C261.898 246.434 258.815 244.464 261.629 239.578C261.629 239.578 262.494 238.255 262.392 234.947C262.399 234.94 262.472 232.069 265.387 230.884Z" fill="white" stroke="black" stroke-width="2" stroke-miterlimit="10"/>
<path d="M275.522 247.052C278.975 247.052 281.774 244.253 281.774 240.8C281.774 237.347 278.975 234.547 275.522 234.547C272.069 234.547 269.27 237.347 269.27 240.8C269.27 244.253 272.069 247.052 275.522 247.052Z" fill="#EAB934" stroke="black" stroke-width="2" stroke-miterlimit="10"/>
<path d="M270.876 242.167C270.876 242.167 270.323 240.734 271.108 240.458C271.108 240.458 271.734 240.138 272.184 241.963C272.184 241.963 272.824 243.548 273.333 244.137C273.333 244.137 273.922 244.747 273.464 244.98C273.457 244.973 272.119 245.373 270.876 242.167Z" fill="#F0EDE1"/>
<path d="M274.096 245.256C274.096 245.256 274.467 246.048 275.834 245.714C275.834 245.714 276.401 245.54 275.521 245.125C275.521 245.132 273.675 244.485 274.096 245.256Z" fill="#F0EDE1"/>
<path d="M248.529 231.138C248.529 231.138 241.964 217.231 249.99 211.124C249.99 211.124 257.87 204.218 269.262 213.269L268.048 218.437L262.32 217.747L261.774 226.849L254.417 223.606L253.254 230.077L248.529 231.138Z" fill="white" stroke="black" stroke-width="2" stroke-miterlimit="10"/>
<path d="M302.777 232.774C302.777 232.774 319.788 221.491 309.923 208.078C309.923 208.078 298.226 191.968 285.969 205.25C285.969 205.25 281.025 210.731 280.211 214.679L286.165 215.006L285.961 220.713L295.914 219.557L294.722 227.278L299.992 227.183L302.777 232.774Z" fill="white" stroke="black" stroke-width="2" stroke-miterlimit="10"/>
<path d="M324 193L234 193L234 181C234 172.716 240.716 166 249 166L309 166C317.284 166 324 172.716 324 181L324 193Z" fill="#FEE1AA"/>
<path d="M265.84 185.622V182.066H270.334V181.058H265.84V178.006H270.852V176.984H265.84V174.296H264.776V176.984H261.934C262.242 176.27 262.494 175.514 262.718 174.744L261.668 174.52C261.122 176.508 260.226 178.44 259.078 179.672C259.358 179.812 259.82 180.12 260.03 180.288C260.548 179.658 261.038 178.888 261.486 178.006H264.776V181.058H260.618V182.066H264.776V185.622H259.106V186.63H271.51V185.622H265.84ZM278.006 174.282C277.166 174.604 275.724 174.926 274.366 175.15L273.736 175.01C273.47 176.088 273.05 177.208 272.476 177.964C272.7 178.062 273.078 178.314 273.232 178.454C273.708 177.796 274.114 176.872 274.408 175.892C275.906 175.696 277.6 175.346 278.776 174.94L278.006 174.282ZM277.068 175.794C277.558 176.466 278.062 177.39 278.272 178.006L279.056 177.656C278.818 177.054 278.314 176.144 277.796 175.486L277.068 175.794ZM275.486 182.122C275.472 182.5 275.43 182.836 275.388 183.158H272.728V183.97H275.22C274.884 185.132 274.156 185.86 272.504 186.322C272.714 186.49 272.966 186.854 273.064 187.078C274.492 186.63 275.304 185.986 275.78 185.062C276.704 185.65 277.698 186.406 278.216 186.938L278.818 186.294C278.23 185.706 277.068 184.894 276.088 184.292C276.116 184.194 276.144 184.082 276.172 183.97H278.944V183.158H276.326C276.368 182.836 276.396 182.486 276.424 182.122H275.486ZM276.802 180.484C277.012 180.694 277.222 180.932 277.418 181.17C276.69 181.198 275.976 181.226 275.29 181.254C276.102 180.512 276.998 179.574 277.698 178.776L276.858 178.37C276.508 178.86 276.004 179.462 275.486 180.036C275.29 179.84 275.038 179.616 274.772 179.406C275.192 178.944 275.696 178.314 276.13 177.726L275.766 177.586L276.452 177.418C276.41 177.026 276.242 176.382 276.046 175.906L275.29 176.06C275.458 176.536 275.612 177.124 275.654 177.544L275.248 177.39C275.01 177.852 274.604 178.482 274.212 178.972C274.058 178.86 273.904 178.748 273.75 178.65L273.232 179.224C273.806 179.63 274.464 180.19 274.898 180.652C274.674 180.876 274.45 181.086 274.24 181.282L272.77 181.324L272.854 182.164C274.226 182.122 276.116 182.038 277.992 181.954C278.104 182.122 278.202 182.29 278.286 182.43L279 181.968C278.692 181.436 278.076 180.652 277.46 180.078L276.802 180.484ZM280.568 183.536H282.192V185.454H280.568V183.536ZM282.192 179.854H280.568V178.006H282.192V179.854ZM282.192 182.654H280.568V180.75H282.192V182.654ZM285.398 185.454H283.172V183.536H284.992V182.654H283.172V180.75H284.992V179.854H283.172V178.006H285.244V177.082H283.13C283.396 176.396 283.69 175.5 283.956 174.716L282.92 174.478C282.78 175.234 282.472 176.326 282.178 177.082H280.708C281.016 176.256 281.268 175.388 281.478 174.52L280.47 174.296C280.008 176.424 279.21 178.524 278.146 179.868C278.384 180.05 278.748 180.456 278.916 180.666C279.154 180.344 279.378 179.994 279.588 179.602V187.05H280.568V186.392H285.398V185.454ZM289.318 176.172C288.786 177.852 287.652 179.154 286.252 179.924C286.434 180.162 286.672 180.68 286.756 180.918C287.862 180.246 288.8 179.308 289.5 178.132C290.55 179.588 292.216 179.868 294.82 179.868H298.726C298.782 179.588 298.95 179.154 299.104 178.916C298.362 178.944 295.38 178.944 294.82 178.944C294.246 178.944 293.7 178.93 293.224 178.888V177.698H296.542V176.928H293.224V175.808H297.284C297.074 176.326 296.836 176.844 296.626 177.208L297.508 177.46C297.886 176.858 298.292 175.92 298.614 175.108L297.886 174.884L297.704 174.926H287.204V175.808H292.202V178.762C291.18 178.566 290.41 178.16 289.892 177.39C290.046 177.068 290.172 176.732 290.284 176.41L289.318 176.172ZM293.238 185.51V184.096H295.66L295.03 184.628C295.366 184.866 295.758 185.16 296.136 185.426L293.238 185.51ZM288.898 183.284V181.884H292.216V183.284H288.898ZM296.542 181.884V183.284H293.238V181.884H296.542ZM297.578 184.096V181.086H293.238V180.176H292.216V181.086H287.904V184.096H292.216V185.538C290.074 185.594 288.114 185.636 286.7 185.65L286.784 186.644C289.402 186.574 293.392 186.392 297.144 186.224C297.606 186.588 298.04 186.952 298.362 187.246L299.034 186.574C298.292 185.93 296.878 184.866 295.758 184.096H297.578Z" fill="black"/>
</g>
<path d="M15 682C15 668.193 26.1929 657 40 657H333C346.807 657 358 668.193 358 682V747C358 760.807 346.807 772 333 772H40C26.1929 772 15 760.807 15 747V682Z" fill="#FEE1AA"/>
<path d="M148 674.516C148 674.516 46.8142 636.154 -1 594.5L-6 599.561C-6 599.561 39.8655 642.709 139.798 679L148 674.516Z" fill="#E22925" stroke="black" stroke-width="2" stroke-miterlimit="10"/>
<path d="M193.689 663.722C193.689 663.722 198.333 664.461 196.741 669.029C196.741 669.029 193.689 681.672 180.25 683.34C180.25 683.34 169.768 683.889 166.944 683.643C166.944 683.643 164.935 713.194 157.485 726.765V757.225L163.513 759.822C163.513 759.822 164.214 760.277 164.101 762.324L163.873 766.987H146.056L146.283 760.997C146.283 760.997 146.814 738.271 142.341 733.797C142.341 733.797 128.636 737.38 106.573 723.657C106.573 723.657 100.602 719.581 97.3421 725.23C97.3421 725.23 91.8262 738.858 75.8853 741.701C75.8853 741.701 69.8766 742.251 68.8341 751.482L68.891 754.818C68.891 754.818 68.9858 757.036 69.9525 757.548L74.6722 759.879C74.6722 759.879 75.8853 760.144 75.7336 761.661L75.184 766.987H54.1252C54.1252 766.987 53.3291 745.019 55.7174 740.356C55.7174 740.356 60.7973 728.357 63.6595 724.036C63.6595 724.036 66.7112 719.866 66.1994 711.886C66.1994 711.886 66.1236 701.934 71.9427 694.826C71.9427 694.826 77.3827 684.761 92.5844 683.719C92.5844 683.719 111.861 683.378 120.6 679.549C120.6 679.549 138.19 671.891 135.346 669.92C135.346 669.92 129.774 663.21 132.712 657.94L139.441 644.672C139.441 644.672 140.483 640.938 146.075 640.938L169.844 641.905C169.844 641.905 176.459 642.89 176.478 648.387C176.478 648.387 175.947 654.055 180.136 656.651C180.117 656.651 190.182 663.058 193.689 663.722Z" fill="#6A4B2E" stroke="black" stroke-width="2" stroke-miterlimit="10"/>
<path d="M73.7056 692.343C73.7056 692.343 61.0438 688.458 62.0484 676.933C62.0484 676.933 62.6739 669.92 63.2615 667.816C63.2615 667.816 65.4982 661.03 57.8215 659.021C57.8215 659.021 50.4102 657.258 49.5572 666.546C49.5572 666.546 45.6904 686.998 58.3522 699.489C58.3522 699.489 62.0484 702.844 66.9766 704.474C66.9766 704.493 68.1897 698.75 73.7056 692.343Z" fill="#6A4B2E" stroke="black" stroke-width="2" stroke-miterlimit="10"/>
<path d="M166.925 683.643C166.925 683.643 148.767 681.293 135.612 670.564C135.612 670.564 132.617 673.351 129.793 675.019C129.793 675.019 144.161 688.041 166.338 689.841L166.925 683.643Z" fill="#E22925" stroke="black" stroke-width="2" stroke-miterlimit="10"/>
<rect x="15" y="492" width="343" height="115" rx="25" fill="#FEE1AA"/>
<path d="M269.9 600.341H218.865C217.321 600.341 216.061 599.081 216.061 597.537V526.379L269.9 472.541V600.341V600.341Z" fill="#65AD66" stroke="#040000" stroke-width="2" stroke-miterlimit="10"/>
<path d="M269.899 600.341H320.934C322.478 600.341 323.738 599.081 323.738 597.537V526.113L269.899 472.523V600.341Z" fill="#94CC93" stroke="#040000" stroke-width="2" stroke-miterlimit="10"/>
<path d="M269.899 519.246V600.341H231.641V557.487C231.641 536.37 248.765 519.246 269.899 519.246Z" fill="#94CC93" stroke="#040000" stroke-width="2" stroke-miterlimit="10"/>
<path d="M269.899 519.246V600.341H308.158V557.487C308.14 536.37 291.016 519.246 269.899 519.246Z" fill="#65AD66" stroke="#040000" stroke-width="2" stroke-miterlimit="10"/>
<path d="M269.154 539.156C277.396 539.156 284.078 533.444 284.078 526.397C284.078 519.351 277.396 513.638 269.154 513.638C260.912 513.638 254.23 519.351 254.23 526.397C254.23 533.444 260.912 539.156 269.154 539.156Z" fill="white"/>
<path d="M251.764 518.449C253.637 516.84 253.308 513.384 251.027 510.73C248.747 508.076 245.38 507.23 243.507 508.839C241.634 510.449 241.964 513.905 244.244 516.559C246.524 519.212 249.891 520.059 251.764 518.449Z" fill="white"/>
<path d="M264.027 512.087C266.868 511.548 268.55 507.841 267.785 503.807C267.02 499.772 264.097 496.938 261.257 497.477C258.416 498.016 256.734 501.723 257.499 505.757C258.264 509.792 261.187 512.626 264.027 512.087Z" fill="white"/>
<path d="M282.001 506.426C283.287 502.526 282.104 498.63 279.358 497.725C276.612 496.819 273.344 499.247 272.058 503.147C270.772 507.046 271.955 510.942 274.7 511.847C277.446 512.753 280.715 510.325 282.001 506.426Z" fill="white"/>
<path d="M293.264 517.028C295.44 514.364 295.629 510.918 293.686 509.331C291.743 507.744 288.404 508.617 286.228 511.281C284.052 513.944 283.863 517.39 285.806 518.978C287.749 520.565 291.088 519.692 293.264 517.028Z" fill="white"/>
<path d="M330.41 533.655L264.522 467.767C261.648 464.893 261.648 460.226 264.522 457.351C267.397 454.476 272.064 454.476 274.939 457.351L340.844 523.256C343.718 526.131 343.718 530.798 340.844 533.673C337.951 536.547 333.284 536.547 330.41 533.655Z" fill="#DB655F" stroke="black" stroke-width="2" stroke-miterlimit="10"/>
<path d="M274.832 467.572L208.572 533.85C205.698 536.725 201.031 536.725 198.156 533.85C195.281 530.975 195.281 526.308 198.156 523.434L264.434 457.156C267.309 454.281 271.975 454.281 274.85 457.156C277.725 460.031 277.725 464.698 274.832 467.572Z" fill="#D24F30" stroke="black" stroke-width="2" stroke-miterlimit="10"/>
<rect x="16" y="327" width="343" height="115" rx="25" fill="#FEE1AA"/>
<path d="M222.977 415.361C223.71 414.417 224.281 413.324 224.633 412.103C226.119 406.945 223.142 401.559 217.984 400.073C213.287 398.72 208.402 401.069 206.443 405.395L206.236 405.391C206.91 400.669 204.019 396.05 199.303 394.691C194.145 393.205 188.759 396.181 187.273 401.339C186.923 402.555 186.823 403.789 186.941 404.978C186.941 404.978 187.56 415.689 199.682 428.494C199.682 428.494 213.775 426.24 222.532 415.902C222.684 415.729 222.83 415.549 222.977 415.361C222.973 415.36 222.973 415.36 222.977 415.361Z" fill="#FF3C38"/>
<path d="M222.977 415.361C223.71 414.417 224.281 413.324 224.633 412.103C226.119 406.945 223.142 401.559 217.984 400.073C213.287 398.72 208.402 401.069 206.443 405.395L206.236 405.391C206.91 400.669 204.019 396.05 199.303 394.691C194.145 393.205 188.759 396.181 187.273 401.339C186.923 402.555 186.823 403.789 186.941 404.978C186.941 404.978 187.56 415.689 199.682 428.494C199.682 428.494 213.775 426.24 222.532 415.902C222.684 415.729 222.83 415.549 222.977 415.361ZM222.977 415.361C222.973 415.36 222.973 415.36 222.977 415.361Z" stroke="#FF3C38" stroke-miterlimit="10" stroke-linejoin="round"/>
<path d="M193.319 338.772C193.886 333.965 193.581 328.98 192.249 324.012C186.624 303.019 165.045 290.56 144.052 296.185C124.934 301.308 112.9 319.664 115.149 338.763L114.419 339.181C106.872 321.4 87.1986 311.436 68.0163 316.576C47.0232 322.201 34.5645 343.78 40.1896 364.774C41.5164 369.725 43.749 374.211 46.6434 378.09C46.6434 378.09 71.1755 413.941 139.975 433.019C139.975 433.019 184.144 395.746 192.907 341.596C193.069 340.659 193.198 339.731 193.319 338.772Z" fill="#FF3C38" stroke="black" stroke-width="2" stroke-miterlimit="10"/>
<path d="M190.645 342.958L160.145 339.193C160.145 339.193 148.756 337.779 150.196 324.82C150.196 324.82 151.889 312.549 163.105 313.512L186.98 316.458" stroke="white" stroke-miterlimit="10"/>
<path d="M165.755 327.693L165.986 325.862C166.132 324.741 167.182 324.237 167.738 325.032L168.455 326.042C168.872 326.635 168.744 327.631 168.2 328.103L167.252 328.924C166.515 329.568 165.613 328.831 165.755 327.693Z" fill="white" stroke="white" stroke-miterlimit="10"/>
<path d="M167.716 309.373C167.716 309.373 165.082 313.583 167.102 318.366" stroke="white" stroke-miterlimit="10"/>
<path d="M173.817 309.834C173.817 309.834 170.064 313.073 170.594 318.255" stroke="white" stroke-miterlimit="10"/>
<path d="M163.314 344.802C163.314 344.802 161.79 340.075 164.923 335.937" stroke="white" stroke-miterlimit="10"/>
<path d="M169.332 345.852C169.332 345.852 166.491 341.786 168.256 336.899" stroke="white" stroke-miterlimit="10"/>
<path d="M163.507 321.146C163.643 320.046 162.877 319.045 161.795 318.911C160.713 318.776 159.725 319.559 159.588 320.66C159.452 321.76 160.218 322.761 161.3 322.895C162.382 323.03 163.37 322.247 163.507 321.146Z" fill="white" stroke="white" stroke-miterlimit="10"/>
<path d="M162.135 332.182C162.271 331.082 161.505 330.081 160.423 329.947C159.341 329.812 158.353 330.595 158.216 331.696C158.08 332.796 158.846 333.797 159.928 333.931C161.01 334.065 161.998 333.282 162.135 332.182Z" fill="white" stroke="white" stroke-miterlimit="10"/>
<path d="M151.865 318.997C151.865 318.997 150.297 315.003 151.977 310.568C151.977 310.568 157.01 309.288 159.84 313.631C159.84 313.631 155.727 314.372 151.865 318.997Z" stroke="white" stroke-miterlimit="10"/>
<path d="M150.383 331.348C150.383 331.348 147.886 334.851 148.424 339.551C148.424 339.551 153.001 342.017 156.801 338.509C156.801 338.509 152.985 336.766 150.383 331.348Z" stroke="white" stroke-miterlimit="10"/>
<path d="M171.481 321.436C171.481 321.436 175.46 326.158 169.359 327.106C169.194 327.132 169.149 327.351 169.287 327.417C170.351 327.99 174.537 330.149 170.3 333.569" stroke="white" stroke-miterlimit="10"/>
<path d="M148.614 359.235C145.966 356.853 145.031 352.466 146.905 349.267C149.053 345.617 153.745 344.412 157.395 346.56C161.046 348.708 162.251 353.4 160.103 357.05C159.892 357.416 158.533 358.433 158.256 358.747" stroke="white" stroke-miterlimit="10"/>
<path d="M145.398 381.206C145.219 381.821 144.542 383.462 144.214 384.031C142.066 387.681 137.374 388.887 133.724 386.739C130.074 384.591 128.868 379.898 131.016 376.248C133.164 372.598 137.856 371.393 141.506 373.541" stroke="white" stroke-miterlimit="10"/>
<path d="M168.748 395.148L146.551 382.048C146.551 382.048 136.678 376.226 143.144 364.909C143.144 364.909 149.586 354.337 159.499 359.668L182.328 372.238" stroke="white" stroke-miterlimit="10"/>
<path d="M150.073 378.27C151.144 377.983 151.779 376.882 151.492 375.811C151.205 374.741 150.105 374.105 149.034 374.392C147.963 374.679 147.327 375.78 147.614 376.851C147.901 377.921 149.002 378.557 150.073 378.27Z" fill="white" stroke="white" stroke-miterlimit="10"/>
<path d="M156.733 366.97C157.804 366.683 158.439 365.582 158.152 364.511C157.865 363.441 156.764 362.805 155.693 363.092C154.623 363.379 153.987 364.48 154.274 365.551C154.561 366.622 155.662 367.257 156.733 366.97Z" fill="white" stroke="white" stroke-miterlimit="10"/>
<path d="M166.566 358.032C166.566 358.032 162.477 360.845 162.427 366.045" stroke="white" stroke-miterlimit="10"/>
<path d="M171.983 360.874C171.983 360.874 167.243 362.351 165.669 367.307" stroke="white" stroke-miterlimit="10"/>
<path d="M148.423 388.777C148.423 388.777 148.903 383.839 153.44 381.284" stroke="white" stroke-miterlimit="10"/>
<path d="M153.534 392.148C153.534 392.148 152.539 387.279 156.114 383.505" stroke="white" stroke-miterlimit="10"/>
<path d="M156.897 374.123L157.828 372.534C158.407 371.554 159.566 371.519 159.771 372.477L160.029 373.696C160.17 374.414 159.677 375.267 158.976 375.472L157.787 375.842C156.855 376.144 156.334 375.098 156.897 374.123Z" fill="white" stroke="white" stroke-miterlimit="10"/>
<path d="M160.693 380.405L159.734 374.84L165.497 373.141" stroke="white" stroke-miterlimit="10"/>
<path d="M78.1576 403.397L94.4056 375.255C94.4056 375.255 100.717 364.323 113.226 371.328C113.226 371.328 124.922 378.311 119.15 389.27L102.951 417.725" stroke="white" stroke-miterlimit="10"/>
<path d="M101.293 380.64C102.47 380.325 103.169 379.115 102.853 377.938C102.538 376.761 101.328 376.062 100.151 376.377C98.9738 376.693 98.2752 377.903 98.5906 379.08C98.906 380.257 100.116 380.956 101.293 380.64Z" fill="white" stroke="white" stroke-miterlimit="10"/>
<path d="M113.79 387.855C114.967 387.539 115.665 386.329 115.35 385.152C115.035 383.975 113.825 383.277 112.647 383.592C111.47 383.908 110.772 385.117 111.087 386.295C111.403 387.472 112.613 388.17 113.79 387.855Z" fill="white" stroke="white" stroke-miterlimit="10"/>
<path d="M121.012 383.721C121.012 383.721 125.807 385.27 125.793 391.114C125.793 391.114 125.312 399.642 119.518 399.683C119.518 399.683 115.518 399.243 116.248 394.977C116.243 394.961 120.056 389.061 121.012 383.721Z" stroke="white" stroke-miterlimit="10"/>
<path d="M98.2954 370.605C98.2954 370.605 94.5563 367.227 89.5027 370.162C89.5027 370.162 82.3577 374.842 85.2193 379.88C85.2193 379.88 87.5999 383.124 90.9299 380.36C90.9299 380.36 94.1285 374.092 98.2954 370.605Z" stroke="white" stroke-miterlimit="10"/>
<path d="M104.352 383.977L106.668 385.315C108.09 386.136 108.167 387.833 106.772 388.138L105.004 388.526C103.981 388.748 102.721 388.021 102.403 387.024L101.855 385.299C101.425 383.954 102.929 383.156 104.352 383.977Z" fill="white" stroke="white" stroke-miterlimit="10"/>
<path d="M97.0945 389.649L103.205 388.544L105.138 394.862" stroke="white" stroke-miterlimit="10"/>
<path d="M118.615 376.377C118.615 376.377 124.505 375.795 120.995 370.964C120.995 370.964 126.467 367.797 120.609 365.039C120.609 365.039 119.619 359.997 115.739 362.565C115.739 362.565 112.357 358.662 111.112 362.414C111.112 362.414 107.103 362.131 107.671 365.019C107.671 365.019 104.156 366.39 106.33 368.796C106.341 368.776 113.776 369.601 118.615 376.377Z" stroke="white" stroke-miterlimit="10"/>
<path d="M71.0302 353.401C72.1099 353.112 72.7507 352.002 72.4614 350.922C72.1721 349.842 71.0622 349.201 69.9824 349.491C68.9027 349.78 68.2619 350.89 68.5512 351.97C68.8405 353.05 69.9504 353.69 71.0302 353.401Z" fill="white" stroke="white" stroke-miterlimit="10"/>
<path d="M77.8141 364.809C78.8939 364.519 79.5346 363.409 79.2453 362.33C78.956 361.25 77.8461 360.609 76.7664 360.898C75.6866 361.188 75.0458 362.298 75.3351 363.377C75.6245 364.457 76.7343 365.098 77.8141 364.809Z" fill="white" stroke="white" stroke-miterlimit="10"/>
<path d="M41.9347 361.094L67.6068 345.816C67.6068 345.816 77.576 339.881 84.4697 351.122C84.4697 351.122 90.725 361.967 81.1708 368.169L55.3942 383.698" stroke="white" stroke-miterlimit="10"/>
<path d="M55.4464 383.701C55.4464 383.701 58.3676 390.373 64.3138 387.629C64.3138 387.629 70.6071 385.668 70.4747 376.84C70.4555 375.935 69.4598 375.36 68.707 375.82L55.4464 383.701Z" stroke="white" stroke-miterlimit="10"/>
<path d="M41.9827 361.081C41.9827 361.081 37.5076 355.341 42.7577 351.41C42.7577 351.41 47.4854 346.811 55.1884 351.136C55.9766 351.578 56.0122 352.736 55.239 353.184L41.9827 361.081Z" stroke="white" stroke-miterlimit="10"/>
<path d="M83.1235 348.855C83.1235 348.855 87.6448 345.857 90.4019 347.558C90.4019 347.558 90.3058 351.173 85.7739 353.298C85.7782 353.314 85.4486 351.186 83.1235 348.855Z" stroke="white" stroke-miterlimit="10"/>
<path d="M73.7533 371.256C75.3198 370.836 76.2495 369.226 75.8297 367.659C75.41 366.093 73.7998 365.163 72.2332 365.583C70.6667 366.002 69.737 367.613 70.1568 369.179C70.5765 370.746 72.1867 371.675 73.7533 371.256Z" fill="white"/>
<path d="M64.4273 355.617C65.9939 355.197 66.9235 353.587 66.5038 352.02C66.084 350.454 64.4738 349.524 62.9073 349.944C61.3407 350.364 60.4111 351.974 60.8308 353.54C61.2506 355.107 62.8608 356.037 64.4273 355.617Z" fill="white"/>
<path d="M65.6277 354.969L69.9351 357.198C71.0719 357.787 72.0098 359.236 72.1043 360.55L72.435 365.374C72.5653 367.143 71.1105 367.739 69.6374 366.536L66.21 363.744C65.5286 363.188 64.9793 362.357 64.7271 361.479L63.5166 357.218C62.9938 355.331 64.0889 354.162 65.6277 354.969Z" stroke="white" stroke-width="0.75" stroke-miterlimit="10"/>
<path d="M63.7688 354.505C63.7688 354.505 66.3764 361.673 72.198 367.31" stroke="white" stroke-width="0.75" stroke-miterlimit="10"/>
<g clip-path="url(#clip2_492_1175)">
<path d="M38 86.0007C50.1506 86.0007 60.0007 76.1506 60.0007 64C60.0007 51.8493 50.1506 41.9993 38 41.9993C25.8493 41.9993 15.9993 51.8493 15.9993 64C15.9993 76.1506 25.8493 86.0007 38 86.0007Z" fill="#FEA735"/>
<path d="M46.657 62.4124L32.8639 62.2907L37.8623 56.5786C38.4398 55.9186 38.3728 54.9159 37.7127 54.3384C37.053 53.7613 36.0496 53.8279 35.4725 54.4877L28.3457 62.6325C28 62.9208 27.7739 63.348 27.7693 63.8331C27.7693 63.8405 27.7714 63.8479 27.7714 63.8553C27.764 64.2321 27.8882 64.6117 28.1485 64.9172L35.4594 73.496C35.7734 73.8643 36.2193 74.0538 36.6684 74.0538C37.0325 74.0538 37.3983 73.9292 37.6975 73.6745C38.365 73.1058 38.4447 72.1035 37.876 71.4364L32.7867 65.4654L46.6288 65.5875C46.6337 65.5875 46.6383 65.5875 46.6432 65.5875C47.5135 65.5875 48.2227 64.8858 48.2304 64.014C48.2382 63.1374 47.534 62.4201 46.657 62.4124Z" fill="black"/>
</g>
<path opacity="0.35" d="M338.979 16.5026H355.469C356.666 16.5026 357.636 17.4726 357.636 18.6692V24.6692C357.636 25.8658 356.666 26.8359 355.469 26.8359H338.979C337.782 26.8359 336.812 25.8658 336.812 24.6692V18.6692C336.812 17.4726 337.782 16.5026 338.979 16.5026Z" stroke="black"/>
<path opacity="0.4" d="M359.128 19.6692V23.6692C359.926 23.3304 360.445 22.5423 360.445 21.6692C360.445 20.7961 359.926 20.008 359.128 19.6692" fill="black"/>
<path d="M338.296 19.3359C338.296 18.5995 338.893 18.0026 339.629 18.0026H354.819C355.555 18.0026 356.152 18.5995 356.152 19.3359V24.0026C356.152 24.7389 355.555 25.3359 354.819 25.3359H339.629C338.893 25.3359 338.296 24.7389 338.296 24.0026V19.3359Z" fill="black"/>
<path fill-rule="evenodd" clip-rule="evenodd" d="M323.744 18.2773C325.942 18.2774 328.056 19.1289 329.649 20.6557C329.769 20.7735 329.961 20.772 330.079 20.6523L331.226 19.4857C331.286 19.4249 331.319 19.3427 331.319 19.2571C331.318 19.1715 331.284 19.0897 331.223 19.0297C327.042 14.9901 320.445 14.9901 316.264 19.0297C316.203 19.0896 316.169 19.1715 316.168 19.257C316.168 19.3426 316.201 19.4249 316.261 19.4857L317.408 20.6523C317.526 20.7722 317.718 20.7737 317.838 20.6557C319.431 19.1288 321.546 18.2773 323.744 18.2773ZM323.744 22.073C324.952 22.0729 326.116 22.5255 327.012 23.3427C327.133 23.4587 327.323 23.4562 327.441 23.337L328.587 22.1704C328.647 22.1092 328.681 22.0261 328.68 21.9399C328.679 21.8536 328.644 21.7713 328.582 21.7114C325.856 19.155 321.634 19.155 318.908 21.7114C318.846 21.7713 318.811 21.8537 318.81 21.9399C318.81 22.0262 318.843 22.1092 318.904 22.1704L320.049 23.337C320.167 23.4562 320.358 23.4587 320.479 23.3427C321.373 22.526 322.537 22.0735 323.744 22.073ZM326.038 24.6268C326.04 24.7133 326.007 24.7967 325.945 24.8573L323.964 26.873C323.906 26.9323 323.827 26.9656 323.744 26.9656C323.661 26.9656 323.582 26.9323 323.524 26.873L321.542 24.8573C321.481 24.7967 321.448 24.7133 321.449 24.6268C321.451 24.5403 321.488 24.4583 321.552 24.4003C322.817 23.3215 324.671 23.3215 325.936 24.4003C326 24.4584 326.037 24.5403 326.038 24.6268Z" fill="black"/>
<path fill-rule="evenodd" clip-rule="evenodd" d="M312.189 16.3359H311.197C310.65 16.3359 310.205 16.7837 310.205 17.3359V26.0026C310.205 26.5549 310.65 27.0026 311.197 27.0026H312.189C312.737 27.0026 313.181 26.5549 313.181 26.0026V17.3359C313.181 16.7837 312.737 16.3359 312.189 16.3359ZM306.568 18.6693H307.56C308.108 18.6693 308.552 19.117 308.552 19.6693V26.0026C308.552 26.5549 308.108 27.0026 307.56 27.0026H306.568C306.02 27.0026 305.576 26.5549 305.576 26.0026V19.6693C305.576 19.117 306.02 18.6693 306.568 18.6693ZM302.931 21.0026H301.939C301.391 21.0026 300.947 21.4503 300.947 22.0026V26.0026C300.947 26.5549 301.391 27.0026 301.939 27.0026H302.931C303.479 27.0026 303.923 26.5549 303.923 26.0026V22.0026C303.923 21.4503 303.479 21.0026 302.931 21.0026ZM298.301 23.0026H297.309C296.762 23.0026 296.317 23.4503 296.317 24.0026V26.0026C296.317 26.5549 296.762 27.0026 297.309 27.0026H298.301C298.849 27.0026 299.293 26.5549 299.293 26.0026V24.0026C299.293 23.4503 298.849 23.0026 298.301 23.0026Z" fill="black"/>
<path d="M38.4455 22.8765C37.9133 23.355 37.3176 23.5942 36.6584 23.5942C35.6916 23.5942 34.925 23.2671 34.3586 22.6128C33.7922 21.9585 33.509 21.0845 33.509 19.9907C33.509 19.3071 33.6677 18.6724 33.9851 18.0864C34.3025 17.5005 34.7468 17.0366 35.3181 16.6948C35.8943 16.353 36.529 16.1821 37.2224 16.1821C37.9255 16.1821 38.5603 16.3604 39.1267 16.7168C39.698 17.0684 40.1423 17.5688 40.4597 18.2183C40.7771 18.8628 40.9406 19.6074 40.9504 20.4521V21.397C40.9504 22.5737 40.7185 23.5942 40.2546 24.4585C39.7956 25.3228 39.1389 25.9868 38.2844 26.4507C37.4299 26.9146 36.4338 27.1465 35.2961 27.1465H35.1423V25.1689L35.6111 25.1616C37.3103 25.0786 38.2551 24.3169 38.4455 22.8765ZM37.3249 21.8145C37.862 21.8145 38.2478 21.5825 38.4821 21.1187V20.0933C38.4821 19.4097 38.3674 18.9043 38.1379 18.5771C37.9084 18.25 37.5984 18.0864 37.2077 18.0864C36.8611 18.0864 36.5705 18.272 36.3361 18.6431C36.1018 19.0142 35.9846 19.4634 35.9846 19.9907C35.9846 20.5474 36.1042 20.9917 36.3435 21.3237C36.5827 21.6509 36.9099 21.8145 37.3249 21.8145ZM43.5435 24.605C43.9341 24.605 44.2588 24.7222 44.5176 24.9565C44.7764 25.186 44.9058 25.4814 44.9058 25.8428C44.9058 26.2041 44.7764 26.502 44.5176 26.7363C44.2588 26.9658 43.9341 27.0806 43.5435 27.0806C43.148 27.0806 42.8208 26.9634 42.562 26.729C42.3081 26.4946 42.1812 26.1992 42.1812 25.8428C42.1812 25.4863 42.3081 25.1909 42.562 24.9565C42.8208 24.7222 43.148 24.605 43.5435 24.605ZM43.5435 18.7603C43.9341 18.7603 44.2588 18.8774 44.5176 19.1118C44.7764 19.3413 44.9058 19.6367 44.9058 19.998C44.9058 20.3594 44.7764 20.6572 44.5176 20.8916C44.2588 21.1211 43.9341 21.2358 43.5435 21.2358C43.148 21.2358 42.8208 21.1187 42.562 20.8843C42.3081 20.6499 42.1812 20.3545 42.1812 19.998C42.1812 19.6416 42.3081 19.3462 42.562 19.1118C42.8208 18.8774 43.148 18.7603 43.5435 18.7603ZM51.6517 27H49.1761V19.1191L46.7444 19.8296V17.9546L51.4246 16.3359H51.6517V27ZM61.0856 22.8325H62.1695V24.7368H61.0856V27H58.6173V24.7368H54.4938L54.3473 23.228L58.6173 16.3579V16.3359H61.0856V22.8325ZM56.6984 22.8325H58.6173V19.5513L58.4635 19.8003L56.6984 22.8325Z" fill="black"/>
</g>
<defs>
<clipPath id="clip0_492_1175">
<rect width="375" height="812" rx="40" fill="white"/>
</clipPath>
<clipPath id="clip1_492_1175">
<rect width="343" height="160" fill="white" transform="translate(16 135)"/>
</clipPath>
<clipPath id="clip2_492_1175">
<rect width="44" height="44" fill="white" transform="translate(16 42)"/>
</clipPath>
</defs>
</svg>
