<svg width="46" height="19" viewBox="0 0 46 19" fill="none" xmlns="http://www.w3.org/2000/svg">
<path d="M21.0493 10.1522C21.0493 11.3827 20.771 12.3666 20.2144 13.1039C19.6626 13.8363 18.9155 14.2025 17.9731 14.2025C17.2456 14.2025 16.6475 13.9364 16.1787 13.4042V17.1029H13.7104V6.13123H16.0176L16.0908 6.86365C16.5645 6.27771 17.187 5.98474 17.9585 5.98474C18.9351 5.98474 19.6943 6.34607 20.2363 7.06873C20.7783 7.7865 21.0493 8.77527 21.0493 10.035V10.1522ZM18.5811 9.99841C18.5811 8.59216 18.1709 7.88904 17.3506 7.88904C16.7646 7.88904 16.374 8.099 16.1787 8.51892V11.639C16.3936 12.0785 16.7891 12.2982 17.3652 12.2982C18.1514 12.2982 18.5566 11.6195 18.5811 10.2621V9.99841ZM21.533 10.0204C21.533 9.22937 21.6868 8.52625 21.9944 7.91101C22.3021 7.29089 22.7439 6.81482 23.3201 6.48279C23.8963 6.15076 24.5726 5.98474 25.3489 5.98474C26.5354 5.98474 27.4705 6.35339 28.1541 7.0907C28.8377 7.82312 29.1795 8.82166 29.1795 10.0863V10.1742C29.1795 11.4095 28.8353 12.391 28.1468 13.1185C27.4632 13.8412 26.5354 14.2025 25.3636 14.2025C24.2356 14.2025 23.3299 13.8656 22.6463 13.1918C21.9627 12.5131 21.594 11.5951 21.5403 10.4379L21.533 10.0204ZM24.0013 10.1742C24.0013 10.9066 24.116 11.4437 24.3455 11.7855C24.575 12.1273 24.9144 12.2982 25.3636 12.2982C26.2425 12.2982 26.6917 11.6219 26.7112 10.2694V10.0204C26.7112 8.59949 26.2571 7.88904 25.3489 7.88904C24.5237 7.88904 24.077 8.50183 24.0086 9.72742L24.0013 10.1742ZM29.6559 10.0204C29.6559 9.22937 29.8097 8.52625 30.1173 7.91101C30.4249 7.29089 30.8668 6.81482 31.443 6.48279C32.0191 6.15076 32.6954 5.98474 33.4718 5.98474C34.6583 5.98474 35.5934 6.35339 36.277 7.0907C36.9605 7.82312 37.3023 8.82166 37.3023 10.0863V10.1742C37.3023 11.4095 36.9581 12.391 36.2696 13.1185C35.586 13.8412 34.6583 14.2025 33.4864 14.2025C32.3585 14.2025 31.4527 13.8656 30.7691 13.1918C30.0855 12.5131 29.7169 11.5951 29.6632 10.4379L29.6559 10.0204ZM32.1241 10.1742C32.1241 10.9066 32.2389 11.4437 32.4684 11.7855C32.6979 12.1273 33.0372 12.2982 33.4864 12.2982C34.3653 12.2982 34.8146 11.6219 34.8341 10.2694V10.0204C34.8341 8.59949 34.38 7.88904 33.4718 7.88904C32.6466 7.88904 32.1998 8.50183 32.1314 9.72742L32.1241 10.1742ZM45.4472 10.1522C45.4472 11.3827 45.1688 12.3666 44.6122 13.1039C44.0604 13.8363 43.3134 14.2025 42.371 14.2025C41.6435 14.2025 41.0453 13.9364 40.5766 13.4042V17.1029H38.1083V6.13123H40.4154L40.4887 6.86365C40.9623 6.27771 41.5849 5.98474 42.3563 5.98474C43.3329 5.98474 44.0922 6.34607 44.6342 7.06873C45.1762 7.7865 45.4472 8.77527 45.4472 10.035V10.1522ZM42.9789 9.99841C42.9789 8.59216 42.5688 7.88904 41.7484 7.88904C41.1625 7.88904 40.7719 8.099 40.5766 8.51892V11.639C40.7914 12.0785 41.1869 12.2982 41.7631 12.2982C42.5492 12.2982 42.9545 11.6195 42.9789 10.2621V9.99841Z" fill="black" fill-opacity="0.15"/>
<path fill-rule="evenodd" clip-rule="evenodd" d="M4.36136 6.07815C4.36136 6.07815 6.31043 6.38025 6.62645 7.51906C6.62645 7.51906 6.76496 7.91668 6.52708 8.353C6.56496 8.30101 6.58329 8.26943 6.58329 8.26943C8.18013 8.35992 8.72169 9.33306 8.72169 9.33306C9.20474 10.0152 9.1028 10.5644 8.91878 10.9163C11.0937 11.2279 10.7097 13.4929 10.7097 13.4929C10.4174 15.6188 6.14336 15.8847 6.14336 15.8847C0.853047 16.2508 0.112404 13.8897 0.112404 13.8897C-0.555847 11.8988 1.97376 11.0872 1.97376 11.0872C2.16165 11.4319 2.50344 11.6782 2.91331 11.8537C1.59129 11.083 1.7329 10.2115 1.7329 10.2115C2.02109 8.85276 3.31861 8.70797 3.31861 8.70797C3.71824 9.39 4.88008 9.26521 4.98085 9.25439C4.98539 9.2539 4.98778 9.25365 4.98784 9.25371C5.20334 9.22258 5.39504 9.16687 5.56411 9.09723C5.12409 9.24315 4.04578 9.48804 3.31861 8.7066C3.31861 8.7066 2.87311 8.06202 3.40075 7.75295C3.40075 7.75295 3.9632 7.42996 4.0328 7.30049C4.0328 7.30049 4.33491 7.13621 3.95067 6.59326C3.94927 6.59326 3.47593 5.92779 4.36136 6.07815ZM6.46284 12.2071C7.17538 12.0794 7.69895 11.8653 8.07493 11.6478C7.53081 11.935 6.98485 12.1098 6.46284 12.2071Z" fill="black" fill-opacity="0.15"/>
</svg>
