<?xml version="1.0" encoding="utf-8"?>
<!-- Generator: Adobe Illustrator 25.2.0, SVG Export Plug-In . SVG Version: 6.00 Build 0)  -->
<svg version="1.1" id="圖層_1" xmlns="http://www.w3.org/2000/svg" xmlns:xlink="http://www.w3.org/1999/xlink" x="0px" y="0px"
	 viewBox="0 0 100 100" style="enable-background:new 0 0 100 100;" xml:space="preserve">
<style type="text/css">
	.st0{stroke:#FFFFFF;stroke-miterlimit:10;}
	.st1{fill:#E94925;stroke:#040000;stroke-width:2;stroke-miterlimit:10;}
	.st2{fill:#C1E4EF;stroke:#040000;stroke-width:2;stroke-miterlimit:10;}
	.st3{fill:#FFFFFF;}
	.st4{fill:#7A524B;}
	.st5{fill:#5F4641;}
	.st6{fill:#F6E9BA;}
	.st7{fill:#2C3C50;}
	.st8{fill:#ECC644;stroke:#000000;stroke-miterlimit:10;}
	.st9{fill:#DA4E6E;stroke:#000000;stroke-miterlimit:10;}
	.st10{fill:none;stroke:#000000;stroke-miterlimit:10;}
	.st11{fill:#FFFFFF;stroke:#000000;stroke-miterlimit:10;}
	.st12{fill:#6A4B2E;stroke:#000000;stroke-width:2;stroke-miterlimit:10;}
	.st13{fill:#E22925;stroke:#000000;stroke-width:2;stroke-miterlimit:10;}
	.st14{fill:#6F401E;stroke:#000000;stroke-width:2;stroke-miterlimit:10;}
	.st15{fill:none;stroke:#040000;stroke-width:2;stroke-miterlimit:10;}
	.st16{fill:#040000;stroke:#040000;stroke-miterlimit:10;}
	.st17{fill:#906526;stroke:#000000;stroke-width:2;stroke-miterlimit:10;}
	.st18{fill:#D3AF7C;stroke:#000000;stroke-width:2;stroke-miterlimit:10;}
	.st19{stroke:#000000;stroke-miterlimit:10;}
	.st20{fill:none;stroke:#000000;stroke-width:2;stroke-miterlimit:10;}
	.st21{fill:#F1DBBD;stroke:#000000;stroke-width:2;stroke-miterlimit:10;}
	.st22{fill:#ECA368;stroke:#000000;stroke-width:2;stroke-miterlimit:10;}
	.st23{fill:none;stroke:#FFFFFF;stroke-width:0.5;stroke-miterlimit:10;}
	.st24{fill:#ECED81;stroke:#000000;stroke-miterlimit:10;}
	.st25{fill:#EB5A41;stroke:#000000;stroke-miterlimit:10;}
	.st26{fill:#EE7C62;stroke:#000000;stroke-miterlimit:10;}
	.st27{fill:none;stroke:#C55643;stroke-width:0.5;stroke-miterlimit:10;}
	.st28{fill:#040000;}
	.st29{fill:#ECED81;stroke:#000000;stroke-width:2;stroke-miterlimit:10;}
	.st30{fill:#B33F2D;}
	.st31{fill:#FFFFFF;stroke:#000000;stroke-width:2;stroke-miterlimit:10;}
	.st32{fill:#BB8682;stroke:#000000;stroke-miterlimit:10;}
	.st33{fill:none;stroke:#040000;stroke-width:0.5;stroke-miterlimit:10;}
	.st34{fill:#B5B5B5;stroke:#000000;stroke-width:2;stroke-miterlimit:10;}
	.st35{fill:#FFFFFF;stroke:#040000;stroke-width:2;stroke-miterlimit:10;}
	.st36{fill:#E73483;stroke:#040000;stroke-width:2;stroke-miterlimit:10;}
	.st37{fill:#DBA8CC;stroke:#040000;stroke-width:2;stroke-miterlimit:10;}
	.st38{fill:#814537;stroke:#040000;stroke-width:2;stroke-miterlimit:10;}
	.st39{fill:#D54426;stroke:#040000;stroke-width:2;stroke-miterlimit:10;}
	.st40{fill:#C68A6B;}
	.st41{fill:#B44522;}
	.st42{fill:#643219;stroke:#000000;stroke-width:2;stroke-miterlimit:10;}
	.st43{fill:#423052;stroke:#000000;stroke-width:2;stroke-miterlimit:10;}
	.st44{fill:#6A567A;}
	.st45{fill:#8C709A;stroke:#000000;stroke-width:2;stroke-miterlimit:10;}
	.st46{fill:#9E87AD;}
	.st47{fill:#645293;stroke:#000000;stroke-width:2;stroke-miterlimit:10;}
	.st48{fill:#8B81B1;}
	.st49{fill:#533B62;stroke:#000000;stroke-width:2;stroke-miterlimit:10;}
	.st50{fill:#3E9C41;stroke:#000000;stroke-width:2;stroke-miterlimit:10;}
	.st51{fill:#81B14A;stroke:#000000;stroke-width:2;stroke-miterlimit:10;}
	.st52{fill:#55A284;stroke:#000000;stroke-width:2;stroke-miterlimit:10;}
	.st53{fill:#F0BE7F;stroke:#000000;stroke-width:2;stroke-miterlimit:10;}
	.st54{fill:none;stroke:#DE7860;stroke-width:2;stroke-miterlimit:10;}
	.st55{fill:url(#SVGID_1_);stroke:#000000;stroke-width:2;stroke-miterlimit:10;}
	.st56{fill:url(#SVGID_2_);stroke:#000000;stroke-width:2;stroke-miterlimit:10;}
	.st57{fill:url(#SVGID_3_);stroke:#000000;stroke-width:2;stroke-miterlimit:10;}
	.st58{fill:#FDF4EA;stroke:#040000;stroke-width:2;stroke-miterlimit:10;}
	.st59{fill:none;stroke:#C29C93;stroke-width:2;stroke-miterlimit:10;}
	.st60{fill:#392D4B;stroke:#000000;stroke-width:2;stroke-miterlimit:10;}
	.st61{fill:#685A7C;}
	.st62{fill:#65AD66;stroke:#040000;stroke-width:2;stroke-miterlimit:10;}
	.st63{fill:#94CC93;stroke:#040000;stroke-width:2;stroke-miterlimit:10;}
	.st64{fill:#DB655F;stroke:#000000;stroke-width:2;stroke-miterlimit:10;}
	.st65{fill:#D24F30;stroke:#000000;stroke-width:2;stroke-miterlimit:10;}
	.st66{fill:#EAB934;stroke:#000000;stroke-width:2;stroke-miterlimit:10;}
	.st67{fill:#F0EDE1;}
	.st68{fill:#F4CADE;}
	.st69{fill:#D9AE58;stroke:#040000;stroke-width:2;stroke-miterlimit:10;}
	.st70{fill:#F4E2C2;}
	.st71{fill:#F1DFC0;stroke:#040000;stroke-miterlimit:10;}
	.st72{fill:#C4E6F1;stroke:#000000;stroke-width:2;stroke-miterlimit:10;}
	.st73{fill:#E8DE80;stroke:#000000;stroke-width:2;stroke-miterlimit:10;}
	.st74{fill:#F7F5F5;stroke:#000000;stroke-width:2;stroke-miterlimit:10;}
	.st75{fill:#AEDCE5;}
	.st76{fill:#D7B995;}
	.st77{fill:#E55F7B;stroke:#000000;stroke-width:2;stroke-miterlimit:10;}
	.st78{fill:none;stroke:#FFFFFF;stroke-miterlimit:10;}
	.st79{fill:#FFFFFF;stroke:#FFFFFF;stroke-miterlimit:10;}
	.st80{fill:none;stroke:#FFFFFF;stroke-width:0.75;stroke-miterlimit:10;}
	.st81{fill:#DBA8CC;}
	.st82{fill:none;stroke:#040000;stroke-miterlimit:10;}
	.st83{fill:none;stroke:#FFFFFF;stroke-width:2;stroke-miterlimit:10;}
</style>
<g>
	<path class="st72" d="M49.94,17.54c0,0,8.64,4.08,4.11,16.63c-0.32,0.88-1.04,1.55-1.94,1.81l-4.31,1.22
		c4.95,3.4,5.47,14.15,5.47,14.15c4.19,1.12,8.15,0.07,8.15,0.07c1.02-1.68,1.91-12.79,1.91-12.79c0.38-15.91-4.13-21.38-13.2-21.38
		C50.13,17.25,49.65,17.33,49.94,17.54z"/>
	<path class="st73" d="M53.3,57.58c0,0,4.74,1.77,7.9,0l0.21-6.16c0,0-3.96,1.17-8.15-0.07L53.3,57.58z"/>
	<ellipse transform="matrix(0.981 -0.1942 0.1942 0.981 -4.6256 9.0297)" class="st74" cx="43.75" cy="28.11" rx="7.19" ry="9.86"/>
	<path class="st73" d="M44.71,18.1l5.16-0.6c0,0,8.78,4.51,4.21,16.64c-0.33,0.89-1.09,1.56-2.01,1.79l-3.06,0.77
		c-0.33,0.08-0.57-0.31-0.33-0.56c1.4-1.43,3.42-4.63,1.89-10.43c0,0-1.67-5.81-5.89-7.12C44.4,18.52,44.43,18.13,44.71,18.1z"/>
	<path class="st74" d="M54.19,57.86c1.66,0.57,4.93,0.53,6,0.16c0,0-0.65,14.86,1.77,20.11c0.19,0.41,0.05,0.89-0.34,1.12
		l-3.37,1.95c-0.48,0.28-1.09,0.05-1.26-0.48C56.02,77.82,53.46,68.94,54.19,57.86z"/>
	<circle cx="42.23" cy="22.49" r="0.67"/>
	<circle cx="45.6" cy="24.99" r="0.67"/>
	<circle cx="40.28" cy="25.58" r="0.67"/>
	<circle cx="43.22" cy="28.01" r="0.67"/>
	<circle cx="47.22" cy="30.06" r="0.67"/>
	<circle cx="44.82" cy="33.53" r="0.67"/>
	<circle cx="41.15" cy="30.73" r="0.67"/>
	<path class="st75" d="M19.45,23.98h-2.04c-0.45,0-0.82-0.37-0.82-0.82v0c0-0.45,0.37-0.82,0.82-0.82h2.04
		c0.45,0,0.82,0.37,0.82,0.82v0C20.27,23.61,19.9,23.98,19.45,23.98z"/>
	<path class="st75" d="M26.38,25.62l-2.03,0.22c-0.45,0.05-0.86-0.28-0.9-0.73v0c-0.05-0.45,0.28-0.86,0.73-0.9l2.03-0.22
		c0.45-0.05,0.86,0.28,0.9,0.73l0,0C27.15,25.16,26.83,25.57,26.38,25.62z"/>
	<path class="st75" d="M28.29,33.13l-1.89,0.76c-0.42,0.17-0.9-0.03-1.07-0.45l0,0c-0.17-0.42,0.03-0.9,0.45-1.07l1.89-0.76
		c0.42-0.17,0.9,0.03,1.07,0.45v0C28.91,32.48,28.71,32.96,28.29,33.13z"/>
	<path class="st75" d="M27.08,39.42l-2.47,1.42c-0.39,0.23-0.9,0.09-1.12-0.3l0,0c-0.23-0.39-0.09-0.9,0.3-1.12l2.47-1.42
		c0.39-0.23,0.9-0.09,1.12,0.3l0,0C27.61,38.69,27.47,39.19,27.08,39.42z"/>
	<path class="st75" d="M28.18,48.18l1.92-2.11c0.31-0.34,0.83-0.36,1.16-0.05h0c0.34,0.31,0.36,0.83,0.05,1.16l-1.92,2.11
		c-0.31,0.34-0.83,0.36-1.16,0.05h0C27.89,49.04,27.87,48.52,28.18,48.18z"/>
	<path class="st75" d="M32.66,40.65l-1.57,0.91c-0.39,0.23-0.9,0.09-1.12-0.3l0,0c-0.23-0.39-0.09-0.9,0.3-1.12l1.57-0.91
		c0.39-0.23,0.9-0.09,1.12,0.3h0C33.18,39.92,33.05,40.42,32.66,40.65z"/>
	<path class="st75" d="M34.34,35l-1.57,0.91c-0.39,0.23-0.9,0.09-1.12-0.3v0c-0.23-0.39-0.09-0.9,0.3-1.12l1.57-0.91
		c0.39-0.23,0.9-0.09,1.12,0.3h0C34.86,34.27,34.73,34.77,34.34,35z"/>
	<path class="st75" d="M39.13,41.03l-1.57,0.91c-0.39,0.23-0.9,0.09-1.12-0.3h0c-0.23-0.39-0.09-0.9,0.3-1.12l1.57-0.91
		c0.39-0.23,0.9-0.09,1.12,0.3v0C39.66,40.3,39.52,40.8,39.13,41.03z"/>
	<path class="st75" d="M30.63,22.86l-2.04-0.09c-0.45-0.02-0.81-0.4-0.79-0.86v0c0.02-0.45,0.4-0.81,0.86-0.79l2.04,0.09
		c0.45,0.02,0.81,0.4,0.79,0.86v0C31.47,22.53,31.08,22.88,30.63,22.86z"/>
	<path class="st75" d="M21.58,29.7l-2.02,0.32c-0.45,0.07-0.87-0.23-0.94-0.68v0c-0.07-0.45,0.23-0.87,0.68-0.94l2.02-0.32
		c0.45-0.07,0.87,0.23,0.94,0.68v0C22.34,29.21,22.03,29.63,21.58,29.7z"/>
	<path class="st75" d="M32.58,28.66l-2.02,0.32c-0.45,0.07-0.87-0.23-0.94-0.68v0c-0.07-0.45,0.23-0.87,0.68-0.94l2.02-0.32
		c0.45-0.07,0.87,0.23,0.94,0.68v0C33.33,28.17,33.02,28.59,32.58,28.66z"/>
</g>
</svg>
