<svg width="62" height="19" viewBox="0 0 62 19" fill="none" xmlns="http://www.w3.org/2000/svg">
<path d="M18.8413 11.8295C18.8413 11.6195 18.7315 11.451 18.5117 11.3241C18.292 11.1971 17.8745 11.0653 17.2593 10.9286C16.6441 10.7919 16.1362 10.6136 15.7358 10.3939C15.3355 10.1693 15.0303 9.89832 14.8203 9.58093C14.6104 9.26355 14.5054 8.89978 14.5054 8.48962C14.5054 7.76208 14.8057 7.16394 15.4063 6.69519C16.0068 6.22156 16.793 5.98474 17.7647 5.98474C18.8096 5.98474 19.6494 6.22156 20.2842 6.69519C20.919 7.16882 21.2363 7.79138 21.2363 8.56287H18.7607C18.7607 7.9281 18.4263 7.61072 17.7573 7.61072C17.4985 7.61072 17.2813 7.68396 17.1055 7.83044C16.9297 7.97205 16.8418 8.15027 16.8418 8.36511C16.8418 8.58484 16.9492 8.76306 17.1641 8.89978C17.3789 9.0365 17.7207 9.1488 18.1895 9.23669C18.6631 9.32458 19.0781 9.42957 19.4346 9.55164C20.626 9.96179 21.2217 10.6967 21.2217 11.7562C21.2217 12.4789 20.8994 13.0673 20.2549 13.5214C19.6152 13.9755 18.7852 14.2025 17.7647 14.2025C17.0859 14.2025 16.4805 14.0804 15.9482 13.8363C15.416 13.5922 15.001 13.2601 14.7031 12.8402C14.4053 12.4203 14.2564 11.9784 14.2564 11.5145H16.5635C16.5732 11.8807 16.6953 12.1493 16.9297 12.3202C17.1641 12.4862 17.4644 12.5692 17.8306 12.5692C18.1675 12.5692 18.419 12.5009 18.585 12.3641C18.7559 12.2274 18.8413 12.0492 18.8413 11.8295ZM24.4959 6.98083C25.0232 6.31677 25.6971 5.98474 26.5174 5.98474C27.3914 5.98474 28.0506 6.24353 28.4949 6.76111C28.9393 7.27869 29.1663 8.04285 29.1761 9.05359V14.056H26.7005V9.11218C26.7005 8.69226 26.615 8.38464 26.4441 8.18933C26.2732 7.98914 25.9827 7.88904 25.5726 7.88904C25.0648 7.88904 24.7059 8.05017 24.4959 8.37244V14.056H22.0276V2.80603H24.4959V6.98083ZM29.9381 10.0204C29.9381 9.22937 30.0919 8.52625 30.3995 7.91101C30.7071 7.29089 31.149 6.81482 31.7252 6.48279C32.3014 6.15076 32.9776 5.98474 33.754 5.98474C34.9405 5.98474 35.8756 6.35339 36.5592 7.0907C37.2428 7.82312 37.5846 8.82166 37.5846 10.0863V10.1742C37.5846 11.4095 37.2403 12.391 36.5519 13.1185C35.8683 13.8412 34.9405 14.2025 33.7687 14.2025C32.6407 14.2025 31.735 13.8656 31.0514 13.1918C30.3678 12.5131 29.9991 11.5951 29.9454 10.4379L29.9381 10.0204ZM32.4064 10.1742C32.4064 10.9066 32.5211 11.4437 32.7506 11.7855C32.9801 12.1273 33.3194 12.2982 33.7687 12.2982C34.6476 12.2982 35.0968 11.6219 35.1163 10.2694V10.0204C35.1163 8.59949 34.6622 7.88904 33.754 7.88904C32.9288 7.88904 32.482 8.50183 32.4137 9.72742L32.4064 10.1742ZM45.2167 10.8041L46.015 6.13123H48.3808L46.5131 14.056H44.4257L43.1147 9.35388L41.7963 14.056H39.7089L37.8412 6.13123H40.2069L40.9906 10.9139L42.2504 6.13123H43.9716L45.2167 10.8041ZM52.8049 14.2025C51.5891 14.2025 50.6052 13.8412 49.8532 13.1185C49.1013 12.391 48.7253 11.4462 48.7253 10.2841V10.079C48.7253 9.26843 48.8742 8.5531 49.1721 7.93298C49.4748 7.31287 49.9143 6.83435 50.4904 6.49744C51.0666 6.15564 51.7502 5.98474 52.5412 5.98474C53.6545 5.98474 54.5334 6.33142 55.1779 7.02478C55.8225 7.71326 56.1447 8.67517 56.1447 9.91052V10.87H51.2375C51.3254 11.3143 51.5183 11.6635 51.8161 11.9174C52.114 12.1713 52.4997 12.2982 52.9733 12.2982C53.7546 12.2982 54.3649 12.0248 54.8044 11.4779L55.9323 12.8109C55.6247 13.2357 55.1877 13.5751 54.6213 13.829C54.0598 14.078 53.4543 14.2025 52.8049 14.2025ZM52.5266 7.88904C51.8039 7.88904 51.3742 8.36755 51.2375 9.32458H53.7277V9.13416C53.7375 8.73865 53.6374 8.43347 53.4274 8.21863C53.2175 7.9989 52.9172 7.88904 52.5266 7.88904ZM61.6382 8.36511L60.8252 8.30652C60.0488 8.30652 59.5508 8.55066 59.3311 9.03894V14.056H56.8628V6.13123H59.1773L59.2578 7.14929C59.6729 6.37292 60.2515 5.98474 60.9937 5.98474C61.2573 5.98474 61.4868 6.01404 61.6821 6.07263L61.6382 8.36511Z" fill="black" fill-opacity="0.15"/>
<path fill-rule="evenodd" clip-rule="evenodd" d="M8.22427 2.83436C8.35493 2.89058 9.09658 3.24634 9.38708 4.18951C9.09438 3.17641 8.29926 2.86199 8.22427 2.83436ZM9.06141 6.33309C9.18324 6.28024 9.2808 6.18571 9.33885 6.06762C9.27748 6.18416 9.17604 6.27618 9.05271 6.32435L8.49519 6.54308C8.43499 6.56608 8.38065 6.49651 8.41991 6.44285C8.63418 6.15588 8.91366 5.55985 8.60546 4.60294C8.91746 5.59913 8.60081 6.59209 7.89191 6.82836C7.17725 7.06655 6.33455 6.4455 6.0097 5.4412C5.68485 4.43691 6.00086 3.42967 6.71552 3.19148C7.10102 3.063 7.52378 3.18453 7.88242 3.48137C7.70649 3.32678 7.49629 3.20119 7.25378 3.15559C7.19945 3.14856 7.19591 3.07277 7.24787 3.06055L8.20446 2.8262L8.21627 2.83097C8.16142 2.79786 8.24749 2.7721 8.24749 2.7721C9.95379 2.56326 10.9312 3.51269 11.2346 6.58501C11.2346 6.58501 11.3291 8.7448 11.1768 9.09178L11.1749 9.09252L11.2806 10.283C11.2131 10.3335 11.1399 10.3744 11.0634 10.4073C11.0772 10.4018 11.0898 10.3963 11.1009 10.3908C11.1009 10.3908 11.3289 13.2671 11.9079 14.2223C11.9533 14.2969 11.9382 14.3925 11.8703 14.4458L11.2823 14.8989C11.1986 14.9639 11.0784 14.9336 11.0339 14.8355C10.7831 14.2994 10.0922 12.6485 9.96839 10.4981C10.0405 10.514 10.1267 10.5222 10.2193 10.5244C9.97255 10.5091 9.79437 10.4649 9.79437 10.4649L9.64001 9.2662C10.3883 9.39646 11.0528 9.14228 11.1599 9.09834C11.0469 9.14105 10.3835 9.37447 9.64189 9.26597C9.64189 9.26597 9.2907 7.20796 8.27935 6.66725L9.06141 6.33309ZM8.52965 4.39097L8.54041 4.41871C8.53475 4.40436 8.52899 4.3901 8.52312 4.37594L8.52965 4.39097ZM2.25064 4.82134L2.63442 4.77436C2.72095 4.76377 2.77996 4.68424 2.76935 4.59759C2.75875 4.51094 2.68042 4.44821 2.59576 4.45857L2.21199 4.50555C2.12733 4.51591 2.06644 4.59567 2.07705 4.68232C2.08766 4.76897 2.16598 4.8317 2.25064 4.82134ZM3.97677 4.93056L3.60006 5.01967C3.51658 5.03966 3.43167 4.98556 3.41354 4.89983C3.39353 4.81433 3.44595 4.72778 3.52966 4.70972L3.90637 4.62061C3.98985 4.60062 4.07476 4.65472 4.09289 4.74045C4.11078 4.82426 4.06025 4.91057 3.97677 4.93056ZM4.17544 6.52249L4.51309 6.33263C4.58809 6.29022 4.61441 6.19319 4.57253 6.11623C4.53065 6.03927 4.43563 6.01181 4.36063 6.05422L4.02298 6.24408C3.94797 6.28648 3.92166 6.38352 3.96354 6.46048C4.00542 6.53743 4.10044 6.56489 4.17544 6.52249ZM4.43348 7.56999L4.00228 7.90029C3.93433 7.95356 3.83509 7.93835 3.78451 7.86832C3.73205 7.79852 3.74637 7.69709 3.81455 7.64575L4.24575 7.31544C4.3137 7.26217 4.41294 7.27739 4.46352 7.34742C4.51622 7.41914 4.50167 7.51865 4.43348 7.56999ZM5.15857 8.78276L4.8471 9.23326C4.7968 9.30587 4.8147 9.40531 4.88385 9.45548C4.95324 9.50757 5.05059 9.49175 5.1009 9.41914L5.41237 8.96863C5.46291 8.89795 5.44689 8.79828 5.37562 8.74642C5.30623 8.69433 5.20888 8.71015 5.15857 8.78276ZM5.51243 7.68019L5.23852 7.89157C5.17057 7.94483 5.07133 7.92962 5.02075 7.85959C4.96829 7.78979 4.98261 7.68836 5.05079 7.63702L5.3247 7.42564C5.39265 7.37237 5.49189 7.38759 5.54247 7.45762C5.59493 7.52742 5.58038 7.62692 5.51243 7.68019ZM5.42143 6.76499L5.69534 6.55361C5.76329 6.50035 5.77784 6.40085 5.72538 6.33104C5.6748 6.26101 5.57556 6.2458 5.50761 6.29907L5.2337 6.51044C5.16552 6.56179 5.1512 6.66321 5.20366 6.73301C5.25424 6.80305 5.35348 6.81826 5.42143 6.76499ZM6.73834 7.60237L6.46443 7.81375C6.39649 7.86702 6.29724 7.8518 6.24666 7.78177C6.1942 7.71197 6.20852 7.61054 6.2767 7.5592L6.55061 7.34782C6.61856 7.29456 6.71781 7.30977 6.76838 7.3798C6.82108 7.45153 6.80653 7.55103 6.73834 7.60237ZM4.32537 4.33089L4.71126 4.30125C4.79639 4.29474 4.86151 4.21836 4.85443 4.12933C4.84735 4.04029 4.77067 3.97541 4.68554 3.98192L4.29965 4.01156C4.21264 4.0183 4.14963 4.09637 4.15648 4.18348C4.16356 4.27252 4.24024 4.3374 4.32537 4.33089ZM3.16992 5.82668L2.79745 5.93481C2.71445 5.95866 2.62836 5.91056 2.60459 5.82552C2.58081 5.74048 2.62735 5.6527 2.71036 5.62886L3.08283 5.52073C3.16584 5.49689 3.25192 5.54498 3.2757 5.63002C3.30135 5.71483 3.25293 5.80284 3.16992 5.82668ZM4.84233 5.4812L5.2148 5.37307C5.29593 5.34946 5.34435 5.26145 5.32058 5.17641C5.2968 5.09137 5.21072 5.04328 5.12771 5.06712L4.75524 5.17525C4.67223 5.19909 4.62569 5.28687 4.64947 5.37191C4.67324 5.45695 4.75933 5.50504 4.84233 5.4812Z" fill="black" fill-opacity="0.15"/>
</svg>
