<svg width="375" height="812" viewBox="0 0 375 812" fill="none" xmlns="http://www.w3.org/2000/svg">
<g clip-path="url(#clip0_222_991)">
<rect width="375" height="812" rx="40" fill="#FCF5EF"/>
<rect x="197" y="630" width="127" height="127" rx="63.5" fill="#FFEBCC"/>
<rect x="121" y="799" width="134" height="5" rx="2.5" fill="black"/>
<rect x="-66" y="61" width="127" height="127" rx="63.5" fill="#FFEBCC"/>
<rect x="-41" y="401" width="175" height="175" rx="87.5" fill="#FFEBCC"/>
<circle cx="361.5" cy="354.5" r="101.5" fill="#FFEBCC"/>
<path d="M55 202H263.415C315.877 202 314.446 287.826 263.415 287.826C202.751 287.826 146.251 287.826 125.585 287.826C62.6308 287.826 64.0615 393 125.585 393C208.76 393 278.518 393 303 393" stroke="#FFCD6E" stroke-width="10" stroke-linecap="round"/>
<path d="M309.44 393C361.475 393 362.163 505 311.59 505" stroke="#FEA735" stroke-width="10" stroke-linecap="round"/>
<path d="M87.558 670H276.915C324.579 670 323.279 595.857 276.915 595.857C221.798 595.857 170.465 595.857 151.688 595.857C94.491 595.857 95.7909 505 151.688 505C227.257 505 290.636 505 312.88 505" stroke="#FEA735" stroke-width="10" stroke-linecap="round"/>
<path d="M87.558 670C36.8415 670 36.1709 734 85.4623 734" stroke="#FEA735" stroke-width="10" stroke-linecap="round"/>
<line x1="88" y1="734" x2="168" y2="734" stroke="#FEA735" stroke-width="10" stroke-linecap="round"/>
<path d="M188.141 753.413H170.088C169.542 753.413 169.096 752.967 169.096 752.421V727.25L188.141 708.205V753.413Z" fill="#65AD66" stroke="#040000" stroke-width="2" stroke-miterlimit="10"/>
<path d="M188.141 753.413H206.194C206.74 753.413 207.186 752.967 207.186 752.421V727.156L188.141 708.199V753.413Z" fill="#94CC93" stroke="#040000" stroke-width="2" stroke-miterlimit="10"/>
<path d="M188.141 724.726V753.413H174.608V738.254C174.608 730.784 180.665 724.726 188.141 724.726Z" fill="#94CC93" stroke="#040000" stroke-width="2" stroke-miterlimit="10"/>
<path d="M188.141 724.726V753.413H201.675V738.254C201.669 730.784 195.611 724.726 188.141 724.726Z" fill="#65AD66" stroke="#040000" stroke-width="2" stroke-miterlimit="10"/>
<path d="M187.878 731.769C190.793 731.769 193.157 729.749 193.157 727.256C193.157 724.764 190.793 722.743 187.878 722.743C184.962 722.743 182.599 724.764 182.599 727.256C182.599 729.749 184.962 731.769 187.878 731.769Z" fill="white"/>
<path d="M181.726 724.445C182.389 723.875 182.272 722.653 181.465 721.714C180.659 720.775 179.468 720.476 178.805 721.045C178.142 721.615 178.259 722.837 179.066 723.776C179.872 724.715 181.063 725.014 181.726 724.445Z" fill="white"/>
<path d="M186.064 722.194C187.069 722.004 187.664 720.692 187.393 719.265C187.123 717.838 186.089 716.835 185.084 717.026C184.079 717.216 183.484 718.528 183.755 719.955C184.025 721.382 185.059 722.385 186.064 722.194Z" fill="white"/>
<path d="M192.422 720.191C192.877 718.812 192.458 717.434 191.487 717.114C190.516 716.793 189.359 717.652 188.904 719.031C188.449 720.411 188.868 721.789 189.839 722.109C190.811 722.43 191.967 721.571 192.422 720.191Z" fill="white"/>
<path d="M196.406 723.942C197.176 723 197.243 721.781 196.556 721.219C195.868 720.658 194.687 720.966 193.917 721.909C193.148 722.851 193.081 724.07 193.768 724.632C194.455 725.193 195.636 724.884 196.406 723.942Z" fill="white"/>
<path d="M209.546 729.823L186.239 706.516C185.222 705.499 185.222 703.849 186.239 702.832C187.256 701.815 188.907 701.815 189.924 702.832L213.237 726.145C214.254 727.162 214.254 728.813 213.237 729.83C212.214 730.847 210.563 730.847 209.546 729.823Z" fill="#DB655F" stroke="black" stroke-width="2" stroke-miterlimit="10"/>
<path d="M189.886 706.447L166.447 729.893C165.43 730.909 163.78 730.909 162.763 729.893C161.746 728.876 161.746 727.225 162.763 726.208L186.208 702.763C187.225 701.746 188.876 701.746 189.893 702.763C190.909 703.78 190.909 705.43 189.886 706.447Z" fill="#D24F30" stroke="black" stroke-width="2" stroke-miterlimit="10"/>
<path d="M157.472 56.328H160.568V59.16H157.472V56.328ZM164.696 59.16H162.224V56.328H164.648V54.816H162.224V52.152H160.568V54.816H157.472V52.152H155.84V54.816H153.44V56.328H155.84V59.16H153.056V60.696H164.696V59.16ZM156.416 68.424V66.744H161.648V68.424H156.416ZM161.648 63.696V65.376H156.416V63.696H161.648ZM163.304 62.28H154.76V73.848H156.416V69.816H161.648V71.952C161.648 72.216 161.552 72.312 161.264 72.336C161 72.336 160.088 72.36 159.032 72.312C159.248 72.744 159.488 73.368 159.536 73.8C161 73.8 161.96 73.8 162.536 73.536C163.136 73.272 163.304 72.84 163.304 71.976V62.28ZM167.528 58.032H171.632C171.224 61.008 170.6 63.576 169.64 65.76C168.632 63.528 167.96 60.936 167.48 58.2L167.528 58.032ZM174.968 58.032V56.352H167.984C168.32 55.008 168.584 53.592 168.824 52.176L167.096 51.912C166.496 55.944 165.464 59.904 163.76 62.448C164.12 62.784 164.744 63.528 164.984 63.912C165.56 63.024 166.088 62.016 166.52 60.936C167.072 63.36 167.744 65.616 168.632 67.584C167.408 69.6 165.704 71.184 163.4 72.36C163.76 72.696 164.288 73.488 164.456 73.872C166.592 72.648 168.272 71.16 169.568 69.312C170.696 71.232 172.112 72.768 173.888 73.848C174.176 73.368 174.728 72.672 175.16 72.336C173.264 71.304 171.752 69.696 170.576 67.656C171.968 65.064 172.832 61.872 173.36 58.032H174.968ZM182.384 61.68C181.184 63.432 179.24 65.208 177.344 66.36C177.8 66.624 178.544 67.2 178.88 67.536C180.704 66.264 182.816 64.248 184.184 62.256L182.384 61.68ZM194.384 62.328C192.32 68.328 187.688 71.16 179.12 72.216C179.48 72.624 179.84 73.344 180.032 73.872C188.96 72.576 193.856 69.456 196.16 62.928L194.384 62.328ZM188.936 59.16V56.424H196.232V54.744H188.936V51.936H187.136V59.16H182.72V53.784H180.944V59.16H177.368V60.816H187.136V66.36C187.136 66.6 187.064 66.672 186.704 66.696C186.344 66.72 185.168 66.72 183.92 66.672C184.136 67.152 184.4 67.8 184.496 68.28C186.2 68.28 187.304 68.28 188 68.016C188.696 67.752 188.912 67.296 188.912 66.384V60.816H198.656V59.16H188.936ZM212.864 64.296V57.936H219.752V64.296H212.864ZM204.152 64.296V57.936H211.016V64.296H204.152ZM212.864 56.184V51.912H211.016V56.184H202.4V67.536H204.152V66.048H211.016V73.824H212.864V66.048H219.752V67.416H221.576V56.184H212.864Z" fill="black"/>
<path d="M308.849 323.399C308.849 323.399 317.963 321.443 323.374 330.828C323.374 330.828 330.512 344.958 321.251 350.39C321.251 350.39 314.426 353.407 311.637 345.853C311.616 345.853 312.282 332.847 308.849 323.399Z" fill="#6A4B2E" stroke="black" stroke-width="2" stroke-miterlimit="10"/>
<path d="M262.151 323.399C262.151 323.399 253.037 321.443 247.626 330.828C247.626 330.828 240.488 344.958 249.749 350.39C249.749 350.39 256.574 353.407 259.363 345.853C259.384 345.853 258.718 332.847 262.151 323.399Z" fill="#6A4B2E" stroke="black" stroke-width="2" stroke-miterlimit="10"/>
<path d="M259.488 397.17V336.946C259.488 336.946 259.488 313.577 286.062 313.223C286.062 313.223 311.304 313.577 312.178 336.509L312.532 397.17H259.488Z" fill="#906526" stroke="black" stroke-width="2" stroke-miterlimit="10"/>
<path d="M272.639 340.38C274.892 340.38 276.718 338.554 276.718 336.301C276.718 334.049 274.892 332.223 272.639 332.223C270.387 332.223 268.561 334.049 268.561 336.301C268.561 338.554 270.387 340.38 272.639 340.38Z" fill="black" stroke="black" stroke-miterlimit="10"/>
<path d="M299.38 340.38C301.633 340.38 303.459 338.554 303.459 336.301C303.459 334.049 301.633 332.223 299.38 332.223C297.128 332.223 295.302 334.049 295.302 336.301C295.302 338.554 297.128 340.38 299.38 340.38Z" fill="black" stroke="black" stroke-miterlimit="10"/>
<path d="M283.544 341.733H288.497C291.556 341.733 293.221 344.397 291.285 346.145L288.809 348.392C287.373 349.703 284.689 349.703 283.253 348.392L280.776 346.145C278.82 344.376 280.485 341.733 283.544 341.733Z" fill="black" stroke="black" stroke-miterlimit="10"/>
<path d="M277.155 357.548L285.916 350.099L294.885 358.464" stroke="black" stroke-width="2" stroke-miterlimit="10"/>
<path d="M298.069 315.741C298.902 316.074 299.859 315.866 300.421 315.179C301.961 313.286 303.896 310.601 299.255 308.312C298.381 307.875 297.903 306.897 298.09 305.94C298.402 304.379 297.861 302.236 292.492 302.298C291.556 302.319 290.723 301.715 290.453 300.821C289.849 298.823 288.309 296.076 284.73 299.967C284.189 300.571 283.336 300.821 282.566 300.55C280.61 299.884 277.051 299.177 276.947 302.652C276.926 303.609 276.177 304.4 275.22 304.566C273.389 304.899 271.037 305.69 271.932 307.667C272.244 308.375 272.119 309.207 271.62 309.79C270.288 311.33 268.582 313.972 272.973 315.866C272.973 315.887 284.543 310.268 298.069 315.741Z" fill="#6A4B2E" stroke="black" stroke-width="2" stroke-miterlimit="10"/>
<g clip-path="url(#clip1_222_991)">
<path d="M38 86.0007C50.1506 86.0007 60.0007 76.1506 60.0007 64C60.0007 51.8493 50.1506 41.9993 38 41.9993C25.8493 41.9993 15.9993 51.8493 15.9993 64C15.9993 76.1506 25.8493 86.0007 38 86.0007Z" fill="#FEA735"/>
<path d="M46.6571 62.4124L32.8641 62.2907L37.8624 56.5786C38.4399 55.9186 38.3729 54.9159 37.7128 54.3384C37.0531 53.7613 36.0498 53.8279 35.4726 54.4877L28.3459 62.6325C28.0001 62.9208 27.774 63.348 27.7694 63.8331C27.7694 63.8405 27.7715 63.8479 27.7715 63.8553C27.7641 64.2321 27.8883 64.6117 28.1487 64.9172L35.4595 73.496C35.7735 73.8643 36.2194 74.0538 36.6685 74.0538C37.0326 74.0538 37.3985 73.9292 37.6976 73.6745C38.3651 73.1058 38.4448 72.1035 37.8761 71.4364L32.7868 65.4654L46.6289 65.5875C46.6338 65.5875 46.6384 65.5875 46.6433 65.5875C47.5137 65.5875 48.2228 64.8858 48.2305 64.014C48.2383 63.1374 47.5341 62.4201 46.6571 62.4124Z" fill="black"/>
</g>
<g clip-path="url(#clip2_222_991)">
<path d="M38 86.0007C50.1506 86.0007 60.0007 76.1506 60.0007 64C60.0007 51.8493 50.1506 41.9993 38 41.9993C25.8493 41.9993 15.9993 51.8493 15.9993 64C15.9993 76.1506 25.8493 86.0007 38 86.0007Z" fill="#FEA735"/>
<path d="M46.6571 62.4124L32.8641 62.2907L37.8624 56.5786C38.4399 55.9186 38.3729 54.9159 37.7128 54.3384C37.0531 53.7613 36.0497 53.8279 35.4726 54.4877L28.3459 62.6325C28.0001 62.9208 27.774 63.348 27.7694 63.8331C27.7694 63.8405 27.7715 63.8479 27.7715 63.8553C27.7641 64.2321 27.8883 64.6117 28.1487 64.9172L35.4595 73.496C35.7735 73.8643 36.2194 74.0538 36.6685 74.0538C37.0326 74.0538 37.3985 73.9292 37.6976 73.6745C38.3651 73.1058 38.4448 72.1035 37.8761 71.4364L32.7868 65.4654L46.6289 65.5875C46.6338 65.5875 46.6384 65.5875 46.6433 65.5875C47.5137 65.5875 48.2228 64.8858 48.2305 64.014C48.2383 63.1374 47.5341 62.4201 46.6571 62.4124Z" fill="black"/>
</g>
<path opacity="0.35" d="M336.812 18.6692C336.812 17.4726 337.782 16.5026 338.979 16.5026H355.469C356.666 16.5026 357.636 17.4726 357.636 18.6692V24.6692C357.636 25.8658 356.666 26.8359 355.469 26.8359H338.979C337.782 26.8359 336.812 25.8658 336.812 24.6692V18.6692Z" stroke="black"/>
<path opacity="0.4" d="M359.128 19.6692V23.6692C359.926 23.3304 360.445 22.5423 360.445 21.6692C360.445 20.7961 359.926 20.008 359.128 19.6692Z" fill="black"/>
<path d="M338.296 19.3359C338.296 18.5995 338.893 18.0026 339.629 18.0026H354.819C355.555 18.0026 356.152 18.5995 356.152 19.3359V24.0026C356.152 24.7389 355.555 25.3359 354.819 25.3359H339.629C338.893 25.3359 338.296 24.7389 338.296 24.0026V19.3359Z" fill="black"/>
<path fill-rule="evenodd" clip-rule="evenodd" d="M323.744 18.2773C325.942 18.2774 328.056 19.1289 329.649 20.6557C329.769 20.7735 329.961 20.772 330.079 20.6523L331.226 19.4857C331.286 19.4249 331.319 19.3427 331.318 19.2571C331.318 19.1715 331.284 19.0897 331.223 19.0297C327.042 14.9901 320.445 14.9901 316.264 19.0297C316.203 19.0896 316.169 19.1715 316.168 19.257C316.168 19.3426 316.201 19.4249 316.261 19.4857L317.408 20.6523C317.526 20.7722 317.718 20.7737 317.838 20.6557C319.431 19.1288 321.545 18.2773 323.744 18.2773ZM323.744 22.073C324.951 22.0729 326.116 22.5255 327.011 23.3427C327.132 23.4587 327.323 23.4562 327.441 23.337L328.587 22.1704C328.647 22.1092 328.68 22.0261 328.68 21.9399C328.679 21.8536 328.644 21.7713 328.582 21.7114C325.856 19.155 321.634 19.155 318.908 21.7114C318.846 21.7713 318.811 21.8537 318.81 21.9399C318.809 22.0262 318.843 22.1092 318.903 22.1704L320.049 23.337C320.167 23.4562 320.357 23.4587 320.478 23.3427C321.373 22.526 322.537 22.0735 323.744 22.073ZM326.038 24.6268C326.04 24.7133 326.006 24.7967 325.945 24.8573L323.964 26.873C323.906 26.9323 323.826 26.9656 323.744 26.9656C323.661 26.9656 323.582 26.9323 323.524 26.873L321.542 24.8573C321.481 24.7967 321.447 24.7133 321.449 24.6268C321.451 24.5403 321.488 24.4583 321.552 24.4003C322.817 23.3215 324.67 23.3215 325.936 24.4003C325.999 24.4584 326.037 24.5403 326.038 24.6268Z" fill="black"/>
<path fill-rule="evenodd" clip-rule="evenodd" d="M312.189 16.3359H311.197C310.65 16.3359 310.205 16.7837 310.205 17.3359V26.0026C310.205 26.5549 310.65 27.0026 311.197 27.0026H312.189C312.737 27.0026 313.181 26.5549 313.181 26.0026V17.3359C313.181 16.7837 312.737 16.3359 312.189 16.3359ZM306.568 18.6693H307.56C308.108 18.6693 308.552 19.117 308.552 19.6693V26.0026C308.552 26.5549 308.108 27.0026 307.56 27.0026H306.568C306.02 27.0026 305.576 26.5549 305.576 26.0026V19.6693C305.576 19.117 306.02 18.6693 306.568 18.6693ZM302.931 21.0026H301.939C301.391 21.0026 300.947 21.4503 300.947 22.0026V26.0026C300.947 26.5549 301.391 27.0026 301.939 27.0026H302.931C303.479 27.0026 303.923 26.5549 303.923 26.0026V22.0026C303.923 21.4503 303.479 21.0026 302.931 21.0026ZM298.301 23.0026H297.309C296.762 23.0026 296.317 23.4503 296.317 24.0026V26.0026C296.317 26.5549 296.762 27.0026 297.309 27.0026H298.301C298.849 27.0026 299.293 26.5549 299.293 26.0026V24.0026C299.293 23.4503 298.849 23.0026 298.301 23.0026Z" fill="black"/>
<path d="M38.4455 22.8765C37.9133 23.355 37.3176 23.5942 36.6584 23.5942C35.6916 23.5942 34.925 23.2671 34.3586 22.6128C33.7922 21.9585 33.509 21.0845 33.509 19.9907C33.509 19.3071 33.6677 18.6724 33.9851 18.0864C34.3025 17.5005 34.7468 17.0366 35.3181 16.6948C35.8943 16.353 36.529 16.1821 37.2224 16.1821C37.9255 16.1821 38.5603 16.3604 39.1267 16.7168C39.698 17.0684 40.1423 17.5688 40.4597 18.2183C40.7771 18.8628 40.9406 19.6074 40.9504 20.4521V21.397C40.9504 22.5737 40.7185 23.5942 40.2546 24.4585C39.7956 25.3228 39.1389 25.9868 38.2844 26.4507C37.4299 26.9146 36.4338 27.1465 35.2961 27.1465H35.1423V25.1689L35.6111 25.1616C37.3103 25.0786 38.2551 24.3169 38.4455 22.8765ZM37.3249 21.8145C37.862 21.8145 38.2478 21.5825 38.4821 21.1187V20.0933C38.4821 19.4097 38.3674 18.9043 38.1379 18.5771C37.9084 18.25 37.5984 18.0864 37.2077 18.0864C36.8611 18.0864 36.5705 18.272 36.3361 18.6431C36.1018 19.0142 35.9846 19.4634 35.9846 19.9907C35.9846 20.5474 36.1042 20.9917 36.3435 21.3237C36.5827 21.6509 36.9099 21.8145 37.3249 21.8145ZM43.5435 24.605C43.9341 24.605 44.2588 24.7222 44.5176 24.9565C44.7764 25.186 44.9058 25.4814 44.9058 25.8428C44.9058 26.2041 44.7764 26.502 44.5176 26.7363C44.2588 26.9658 43.9341 27.0806 43.5435 27.0806C43.148 27.0806 42.8208 26.9634 42.562 26.729C42.3081 26.4946 42.1812 26.1992 42.1812 25.8428C42.1812 25.4863 42.3081 25.1909 42.562 24.9565C42.8208 24.7222 43.148 24.605 43.5435 24.605ZM43.5435 18.7603C43.9341 18.7603 44.2588 18.8774 44.5176 19.1118C44.7764 19.3413 44.9058 19.6367 44.9058 19.998C44.9058 20.3594 44.7764 20.6572 44.5176 20.8916C44.2588 21.1211 43.9341 21.2358 43.5435 21.2358C43.148 21.2358 42.8208 21.1187 42.562 20.8843C42.3081 20.6499 42.1812 20.3545 42.1812 19.998C42.1812 19.6416 42.3081 19.3462 42.562 19.1118C42.8208 18.8774 43.148 18.7603 43.5435 18.7603ZM51.6517 27H49.1761V19.1191L46.7444 19.8296V17.9546L51.4246 16.3359H51.6517V27ZM61.0856 22.8325H62.1695V24.7368H61.0856V27H58.6173V24.7368H54.4938L54.3473 23.228L58.6173 16.3579V16.3359H61.0856V22.8325ZM56.6984 22.8325H58.6173V19.5513L58.4635 19.8003L56.6984 22.8325Z" fill="black"/>
</g>
<defs>
<clipPath id="clip0_222_991">
<rect width="375" height="812" rx="40" fill="white"/>
</clipPath>
<clipPath id="clip1_222_991">
<rect width="44" height="44" fill="white" transform="translate(16 42)"/>
</clipPath>
<clipPath id="clip2_222_991">
<rect width="44" height="44" fill="white" transform="translate(16 42)"/>
</clipPath>
</defs>
</svg>
