<svg width="195" height="195" viewBox="0 0 195 195" fill="none" xmlns="http://www.w3.org/2000/svg">
<path d="M59.2416 24.7738C59.2416 24.7738 81.3107 17.087 95.63 47.0075C96.63 49.1096 96.5711 51.5303 95.4796 53.5384L90.2081 63.1104C104.725 60.5792 124.567 78.6311 124.567 78.6311C133.756 73.39 138.725 64.7203 138.725 64.7203C137.52 60.0028 119.471 38.8884 119.471 38.8884C92.0833 10.1921 74.676 8.31712 59.0576 23.9355C59.0576 23.9355 58.3721 24.9031 59.2416 24.7738Z" fill="#C4E6F1" stroke="black" stroke-width="2" stroke-miterlimit="10"/>
<path d="M135.6 89.5602C135.6 89.5602 146.882 84.5177 149.203 75.9565L138.708 64.7376C138.708 64.7376 133.951 73.6189 124.55 78.6484L135.6 89.5602Z" fill="#E8DE80" stroke="black" stroke-width="2" stroke-miterlimit="10"/>
<path d="M87.5625 67.8086C92.9113 59.7414 88.1382 47.0451 76.9016 39.4505C65.665 31.856 52.2198 32.2391 46.8711 40.3062C41.5223 48.3734 46.2954 61.0697 57.532 68.6643C68.7686 76.2588 82.2138 75.8757 87.5625 67.8086Z" fill="#F7F5F5" stroke="black" stroke-width="2" stroke-miterlimit="10"/>
<path d="M51.2227 34.7668L59.0506 24.8239C59.0506 24.8239 82.1187 17.6539 95.6289 46.903C96.6293 49.0399 96.5014 51.5295 95.3226 53.5191L91.4105 60.1455C90.9832 60.8548 89.8826 60.5807 89.8552 59.7268C89.7456 54.7955 87.5838 45.677 74.7265 38.0889C74.7265 38.0889 61.6104 30.7243 52.0347 35.6821C51.4292 36.0409 50.7934 35.3019 51.2227 34.7668Z" fill="#E8DE80" stroke="black" stroke-width="2" stroke-miterlimit="10"/>
<path d="M137.626 88.5212C141.489 86.6673 147.049 80.9659 148.24 78.4713C148.24 78.4713 173.312 105.782 186.732 110.868C187.782 111.264 188.387 112.351 188.121 113.428L185.755 122.668C185.422 123.988 183.966 124.633 182.739 123.991C175.957 120.55 155.898 109.307 137.626 88.5212Z" fill="#F7F5F5" stroke="black" stroke-width="2" stroke-miterlimit="10"/>
<path d="M55.8705 47.956C56.5077 47.3188 56.4955 46.2736 55.8433 45.6214C55.1911 44.9692 54.1459 44.957 53.5087 45.5942C52.8715 46.2314 52.8837 47.2766 53.5358 47.9288C54.188 48.581 55.2333 48.5932 55.8705 47.956Z" fill="black"/>
<path d="M66.0971 46.5421C66.7343 45.9049 66.7222 44.8596 66.07 44.2074C65.4178 43.5552 64.3725 43.5431 63.7353 44.1803C63.0982 44.8174 63.1103 45.8627 63.7625 46.5149C64.4147 47.1671 65.46 47.1792 66.0971 46.5421Z" fill="black"/>
<path d="M57.959 56.76C58.5962 56.1228 58.584 55.0775 57.9318 54.4253C57.2796 53.7731 56.2344 53.761 55.5972 54.3982C54.96 55.0353 54.9722 56.0806 55.6244 56.7328C56.2766 57.385 57.3218 57.3971 57.959 56.76Z" fill="black"/>
<path d="M67.3047 55.9803C67.9418 55.3431 67.9297 54.2978 67.2775 53.6457C66.6253 52.9935 65.58 52.9813 64.9428 53.6185C64.3057 54.2557 64.3178 55.3009 64.97 55.9531C65.6222 56.6053 66.6675 56.6175 67.3047 55.9803Z" fill="black"/>
<path d="M77.8058 52.7056C78.4429 52.0684 78.4308 51.0232 77.7786 50.371C77.1264 49.7188 76.0811 49.7066 75.444 50.3438C74.8068 50.981 74.8189 52.0263 75.4711 52.6785C76.1233 53.3307 77.1686 53.3428 77.8058 52.7056Z" fill="black"/>
<path d="M79.7888 62.9544C80.426 62.3172 80.4139 61.272 79.7617 60.6198C79.1095 59.9676 78.0642 59.9554 77.427 60.5926C76.7899 61.2298 76.802 62.275 77.4542 62.9272C78.1064 63.5794 79.1517 63.5916 79.7888 62.9544Z" fill="black"/>
<path d="M68.5341 64.3389C69.1713 63.7017 69.1591 62.6565 68.5069 62.0043C67.8547 61.3521 66.8095 61.3399 66.1723 61.9771C65.5351 62.6143 65.5473 63.6596 66.1995 64.3118C66.8517 64.964 67.8969 64.9761 68.5341 64.3389Z" fill="black"/>
<path d="M18.0891 88.628L14.5763 92.1409C13.8014 92.9158 12.5121 92.9008 11.7189 92.1076C10.9258 91.3145 10.9108 90.0252 11.6857 89.2503L15.1985 85.7375C15.9734 84.9626 17.2627 84.9776 18.0558 85.7707C18.849 86.5639 18.8812 87.8359 18.0891 88.628Z" fill="#AEDCE5"/>
<path d="M32.9128 79.5854L29.8049 83.4688C29.1182 84.3318 27.8305 84.4562 26.9685 83.7319C26.0893 83.0249 25.9349 81.734 26.6393 80.8886L29.7471 77.0052C30.4339 76.1422 31.7215 76.0178 32.5836 76.7421C33.428 77.4487 33.5996 78.7224 32.9128 79.5854Z" fill="#AEDCE5"/>
<path d="M49.4385 89.5329L47.5235 94.127C47.0999 95.1499 45.9209 95.6239 44.8879 95.1764C43.8548 94.7289 43.3532 93.5384 43.7768 92.5156L45.6919 87.9215C46.1155 86.8986 47.2945 86.4246 48.3275 86.8721C49.3605 87.3196 49.8621 88.5101 49.4385 89.5329Z" fill="#AEDCE5"/>
<path d="M58.4237 102.685L56.6732 109.441C56.407 110.518 55.282 111.15 54.2158 110.841C53.1324 110.55 52.4745 109.41 52.7584 108.351L54.5089 101.595C54.775 100.518 55.9 99.8862 56.9662 100.195C58.0673 100.504 58.7075 101.626 58.4237 102.685Z" fill="#AEDCE5"/>
<path d="M75.7755 116.248L75.3628 109.223C75.2973 108.09 76.1575 107.16 77.2722 107.138C78.404 107.099 79.355 107.981 79.4028 109.096L79.8155 116.121C79.881 117.254 79.0208 118.185 77.9062 118.207C76.8091 118.246 75.841 117.382 75.7755 116.248Z" fill="#AEDCE5"/>
<path d="M70.2179 95.262L69.1183 99.5694C68.8521 100.646 67.7271 101.278 66.6609 100.969C65.5774 100.678 64.9196 99.538 65.2034 98.4787L66.303 94.1712C66.5692 93.0943 67.6942 92.4628 68.7604 92.7714C69.8439 93.0627 70.4841 94.1851 70.2179 95.262Z" fill="#AEDCE5"/>
<path d="M63.1526 82.4109L62.053 86.7184C61.7868 87.7953 60.6618 88.4268 59.5956 88.1182C58.5121 87.8269 57.8543 86.6869 58.1381 85.6276L59.2377 81.3202C59.5039 80.2432 60.6289 79.6118 61.6951 79.9203C62.7786 80.2116 63.4188 81.334 63.1526 82.4109Z" fill="#AEDCE5"/>
<path d="M82.0114 84.773L80.9118 89.0804C80.6456 90.1574 79.5206 90.7889 78.4544 90.4803C77.3709 90.189 76.7131 89.049 76.9969 87.9896L78.0965 83.6822C78.3627 82.6053 79.4877 81.9738 80.5539 82.2824C81.655 82.5913 82.2952 83.7137 82.0114 84.773Z" fill="#AEDCE5"/>
<path d="M35.3668 67.4022L31.6953 70.7565C30.8852 71.4961 29.5955 71.4463 28.8192 70.6011C28.0605 69.7735 28.0803 68.4846 28.9077 67.7277L32.5791 64.3735C33.3893 63.6339 34.679 63.6837 35.4553 64.5289C36.2316 65.3741 36.1769 66.6626 35.3668 67.4022Z" fill="#AEDCE5"/>
<path d="M31.8385 95.0419L28.9241 99.0843C28.2726 99.9826 27.0206 100.177 26.1069 99.5044C25.1932 98.8318 24.9696 97.5749 25.6211 96.6767L28.5355 92.6343C29.187 91.736 30.439 91.5415 31.3527 92.2141C32.2836 92.8695 32.49 94.1436 31.8385 95.0419Z" fill="#AEDCE5"/>
<path d="M48.9475 74.2669L46.0331 78.3094C45.3816 79.2076 44.1296 79.4021 43.2159 78.7295C42.3022 78.0569 42.0785 76.8 42.73 75.9018L45.6444 71.8594C46.2959 70.9611 47.5479 70.7666 48.4616 71.4392C49.3753 72.1118 49.5818 73.3859 48.9475 74.2669Z" fill="#AEDCE5"/>
</svg>
