<svg width="124" height="123" viewBox="0 0 124 123" fill="none" xmlns="http://www.w3.org/2000/svg">
<path d="M37.645 15.5736C37.645 15.5736 51.6015 10.7125 60.657 29.6341C61.2894 30.9635 61.2521 32.4943 60.5618 33.7642L57.2282 39.8176C66.4084 38.2169 78.9569 49.6328 78.9569 49.6328C84.7681 46.3184 87.9101 40.8357 87.9101 40.8357C87.1483 37.8523 75.734 24.4996 75.734 24.4996C58.4141 6.35207 47.4057 5.16636 37.5287 15.0434C37.5287 15.0434 37.0951 15.6553 37.645 15.5736Z" fill="#C4E6F1" stroke="black" stroke-width="2" stroke-miterlimit="10"/>
<path d="M85.9338 56.5444C85.9338 56.5444 93.0684 53.3555 94.5367 47.9414L87.8993 40.8466C87.8993 40.8466 84.891 46.4631 78.9461 49.6438L85.9338 56.5444Z" fill="#E8DE80" stroke="black" stroke-width="2" stroke-miterlimit="10"/>
<path d="M55.5551 42.7887C58.9377 37.687 55.9192 29.6579 48.8132 24.8551C41.7071 20.0523 33.2044 20.2946 29.8219 25.3962C26.4393 30.4979 29.4578 38.527 36.5639 43.3298C43.6699 48.1326 52.1726 47.8904 55.5551 42.7887Z" fill="#F7F5F5" stroke="black" stroke-width="2" stroke-miterlimit="10"/>
<path d="M32.5739 21.8931L37.5242 15.6052C37.5242 15.6052 52.1125 11.0709 60.6563 29.568C61.2889 30.9194 61.2081 32.4938 60.4626 33.7521L57.9886 37.9426C57.7184 38.3911 57.0223 38.2178 57.005 37.6778C56.9357 34.5593 55.5686 28.7927 47.4376 23.994C47.4376 23.994 39.143 19.3366 33.0874 22.472C32.7044 22.6989 32.3024 22.2315 32.5739 21.8931Z" fill="#E8DE80" stroke="black" stroke-width="2" stroke-miterlimit="10"/>
<path d="M87.2151 55.8872C89.6581 54.7148 93.1745 51.1093 93.9273 49.5317C93.9273 49.5317 109.783 66.8029 118.27 70.0193C118.934 70.2694 119.316 70.9569 119.148 71.638L117.652 77.4814C117.441 78.3162 116.52 78.7241 115.745 78.3185C111.456 76.1424 98.7702 69.0322 87.2151 55.8872Z" fill="#F7F5F5" stroke="black" stroke-width="2" stroke-miterlimit="10"/>
<path d="M35.5131 30.2339C35.9161 29.8309 35.9084 29.1699 35.4959 28.7575C35.0835 28.345 34.4225 28.3373 34.0195 28.7403C33.6166 29.1433 33.6242 29.8043 34.0367 30.2167C34.4491 30.6292 35.1102 30.6369 35.5131 30.2339Z" fill="black"/>
<path d="M41.9804 29.3398C42.3834 28.9368 42.3757 28.2758 41.9632 27.8634C41.5508 27.4509 40.8898 27.4432 40.4868 27.8462C40.0839 28.2491 40.0916 28.9102 40.504 29.3226C40.9165 29.7351 41.5775 29.7427 41.9804 29.3398Z" fill="black"/>
<path d="M36.8339 35.8016C37.2368 35.3986 37.2292 34.7376 36.8167 34.3252C36.4043 33.9127 35.7432 33.905 35.3403 34.308C34.9373 34.7109 34.945 35.3719 35.3575 35.7844C35.7699 36.1968 36.4309 36.2045 36.8339 35.8016Z" fill="black"/>
<path d="M42.7441 35.3085C43.147 34.9055 43.1393 34.2445 42.7269 33.8321C42.3144 33.4196 41.6534 33.4119 41.2505 33.8149C40.8475 34.2178 40.8552 34.8788 41.2676 35.2913C41.6801 35.7037 42.3411 35.7114 42.7441 35.3085Z" fill="black"/>
<path d="M49.385 33.2376C49.7879 32.8346 49.7802 32.1736 49.3678 31.7611C48.9553 31.3487 48.2943 31.341 47.8914 31.744C47.4884 32.1469 47.4961 32.8079 47.9085 33.2204C48.321 33.6328 48.982 33.6405 49.385 33.2376Z" fill="black"/>
<path d="M50.6391 39.7189C51.042 39.3159 51.0343 38.6549 50.6219 38.2425C50.2094 37.83 49.5484 37.8223 49.1455 38.2253C48.7425 38.6282 48.7502 39.2892 49.1626 39.7017C49.5751 40.1141 50.2361 40.1218 50.6391 39.7189Z" fill="black"/>
<path d="M43.5216 40.5945C43.9245 40.1915 43.9168 39.5305 43.5044 39.1181C43.0919 38.7056 42.4309 38.6979 42.028 39.1009C41.625 39.5038 41.6327 40.1649 42.0451 40.5773C42.4576 40.9898 43.1186 40.9974 43.5216 40.5945Z" fill="black"/>
<path d="M11.6202 55.9548L9.39869 58.1764C8.90865 58.6664 8.09332 58.6569 7.59174 58.1553C7.09015 57.6537 7.08066 56.8384 7.5707 56.3484L9.79223 54.1268C10.2823 53.6368 11.0976 53.6463 11.5992 54.1479C12.1008 54.6495 12.1211 55.4539 11.6202 55.9548Z" fill="#AEDCE5"/>
<path d="M20.9947 50.2363L19.0293 52.6922C18.595 53.2379 17.7807 53.3166 17.2355 52.8586C16.6795 52.4114 16.5819 51.5951 17.0273 51.0604L18.9927 48.6046C19.4271 48.0588 20.2414 47.9802 20.7865 48.4382C21.3205 48.8851 21.429 49.6905 20.9947 50.2363Z" fill="#AEDCE5"/>
<path d="M31.4456 56.5271L30.2345 59.4324C29.9666 60.0792 29.221 60.379 28.5677 60.096C27.9144 59.813 27.5972 59.0602 27.8651 58.4133L29.0762 55.508C29.344 54.8612 30.0897 54.5614 30.743 54.8444C31.3962 55.1274 31.7135 55.8802 31.4456 56.5271Z" fill="#AEDCE5"/>
<path d="M37.1278 64.8446L36.0207 69.1172C35.8524 69.7983 35.141 70.1976 34.4667 70.0025C33.7815 69.8182 33.3655 69.0973 33.545 68.4274L34.652 64.1548C34.8204 63.4738 35.5318 63.0744 36.2061 63.2696C36.9024 63.4649 37.3072 64.1747 37.1278 64.8446Z" fill="#AEDCE5"/>
<path d="M48.101 73.422L47.84 68.9793C47.7986 68.2627 48.3426 67.6742 49.0475 67.6603C49.7633 67.6356 50.3647 68.1935 50.3949 68.8989L50.6559 73.3416C50.6973 74.0581 50.1533 74.6467 49.4484 74.6605C48.7547 74.6855 48.1424 74.1386 48.101 73.422Z" fill="#AEDCE5"/>
<path d="M44.5864 60.1502L43.891 62.8742C43.7227 63.5553 43.0112 63.9546 42.337 63.7595C41.6518 63.5753 41.2358 62.8543 41.4153 62.1844L42.1107 59.4604C42.279 58.7793 42.9904 58.38 43.6647 58.5751C44.3499 58.7594 44.7547 59.4692 44.5864 60.1502Z" fill="#AEDCE5"/>
<path d="M40.1183 52.0231L39.4229 54.7472C39.2546 55.4282 38.5431 55.8276 37.8689 55.6324C37.1837 55.4482 36.7677 54.7273 36.9472 54.0573L37.6426 51.3333C37.8109 50.6523 38.5223 50.2529 39.1966 50.4481C39.8818 50.6323 40.2866 51.3421 40.1183 52.0231Z" fill="#AEDCE5"/>
<path d="M52.0446 53.5169L51.3492 56.2409C51.1809 56.922 50.4694 57.3213 49.7951 57.1262C49.11 56.942 48.694 56.221 48.8735 55.5511L49.5688 52.8271C49.7372 52.146 50.4486 51.7467 51.1229 51.9418C51.8192 52.1372 52.2241 52.847 52.0446 53.5169Z" fill="#AEDCE5"/>
<path d="M22.5466 42.5316L20.2248 44.6528C19.7124 45.1206 18.8968 45.089 18.4059 44.5545C17.9261 44.0312 17.9386 43.2161 18.4619 42.7374L20.7837 40.6162C21.296 40.1485 22.1116 40.18 22.6026 40.7145C23.0935 41.249 23.0589 42.0639 22.5466 42.5316Z" fill="#AEDCE5"/>
<path d="M20.3153 60.011L18.4723 62.5675C18.0602 63.1355 17.2685 63.2585 16.6907 62.8332C16.1129 62.4078 15.9714 61.613 16.3834 61.0449L18.2265 58.4885C18.6385 57.9204 19.4303 57.7974 20.0081 58.2228C20.5968 58.6372 20.7273 59.443 20.3153 60.011Z" fill="#AEDCE5"/>
<path d="M31.135 46.8729L29.2919 49.4293C28.8799 49.9974 28.0882 50.1204 27.5104 49.695C26.9325 49.2697 26.7911 48.4748 27.2031 47.9068L29.0462 45.3504C29.4582 44.7823 30.2499 44.6593 30.8278 45.0847C31.4056 45.51 31.5361 46.3157 31.135 46.8729Z" fill="#AEDCE5"/>
</svg>
