<svg width="157" height="163" viewBox="0 0 157 163" fill="none" xmlns="http://www.w3.org/2000/svg">
<path d="M52.8635 18.5115C52.8635 18.5115 71.5963 14.0368 80.8591 39.7569C81.5049 41.5634 81.2561 43.5434 80.1947 45.0995L75.0793 52.5116C87.192 51.6387 101.967 68.0845 101.967 68.0845C109.936 64.5482 114.728 57.8509 114.728 57.8509C114.131 53.8829 101.081 35.0745 101.081 35.0745C81.0007 9.27548 66.8826 6.29604 52.7821 17.8088C52.7821 17.8088 52.1399 18.5454 52.8635 18.5115Z" fill="#C4E6F1" stroke="black" stroke-width="2" stroke-miterlimit="10"/>
<path d="M110.108 77.96C110.108 77.96 119.776 74.7599 122.389 67.9323L114.713 57.8637C114.713 57.8637 110.076 64.752 101.951 68.0973L110.108 77.96Z" fill="#E8DE80" stroke="black" stroke-width="2" stroke-miterlimit="10"/>
<path d="M72.5207 56.145C77.5748 49.9733 74.7128 39.1673 66.1283 32.0091C57.5437 24.8509 46.4874 24.0512 41.4332 30.2229C36.3791 36.3947 39.2411 47.2007 47.8257 54.3589C56.4102 61.517 67.4666 62.3167 72.5207 56.145Z" fill="#F7F5F5" stroke="black" stroke-width="2" stroke-miterlimit="10"/>
<path d="M45.4603 26.0412L52.7027 18.5367C52.7027 18.5367 72.2118 14.5685 80.8667 39.6711C81.51 41.5062 81.1989 43.537 80.0675 45.0708L76.3107 50.1802C75.9016 50.7264 75.0218 50.4104 75.0701 49.708C75.3887 45.6554 74.3716 37.9994 64.4575 30.7123C64.4575 30.7123 54.3128 23.5869 46.0503 26.859C45.5241 27.103 45.064 26.4443 45.4603 26.0412Z" fill="#E8DE80" stroke="black" stroke-width="2" stroke-miterlimit="10"/>
<path d="M111.855 77.2758C115.176 76.0757 120.208 71.8614 121.391 69.9144C121.391 69.9144 139.687 94.3854 150.27 99.6676C151.098 100.079 151.504 101.02 151.196 101.881L148.491 109.262C148.108 110.317 146.861 110.725 145.908 110.097C140.633 106.714 125.116 95.8334 111.855 77.2758Z" fill="#F7F5F5" stroke="black" stroke-width="2" stroke-miterlimit="10"/>
<path d="M48.1788 37.2408C48.7541 36.7711 48.8307 35.913 48.3499 35.3242C47.8692 34.7354 47.0131 34.6388 46.4378 35.1085C45.8626 35.5782 45.786 36.4363 46.2667 37.0251C46.7475 37.6139 47.6035 37.7105 48.1788 37.2408Z" fill="black"/>
<path d="M56.6815 36.9287C57.2568 36.459 57.3334 35.6009 56.8527 35.0121C56.3719 34.4233 55.5159 34.3267 54.9406 34.7964C54.3653 35.2661 54.2887 36.1242 54.7695 36.713C55.2502 37.3018 56.1063 37.3984 56.6815 36.9287Z" fill="black"/>
<path d="M49.162 44.6329C49.7373 44.1632 49.8139 43.3051 49.3331 42.7163C48.8524 42.1275 47.9963 42.0309 47.4211 42.5006C46.8458 42.9703 46.7692 43.8284 47.2499 44.4172C47.7307 45.006 48.5867 45.1026 49.162 44.6329Z" fill="black"/>
<path d="M56.8897 44.7678C57.4649 44.2981 57.5415 43.44 57.0608 42.8512C56.58 42.2624 55.724 42.1658 55.1487 42.6355C54.5735 43.1052 54.4968 43.9633 54.9776 44.5521C55.4583 45.1409 56.3144 45.2375 56.8897 44.7678Z" fill="black"/>
<path d="M65.7716 42.9526C66.3469 42.4829 66.4235 41.6248 65.9428 41.036C65.462 40.4472 64.6059 40.3506 64.0307 40.8203C63.4554 41.29 63.3788 42.1481 63.8595 42.7369C64.3403 43.3257 65.1964 43.4223 65.7716 42.9526Z" fill="black"/>
<path d="M66.5488 51.5206C67.124 51.0509 67.2007 50.1928 66.7199 49.604C66.2392 49.0152 65.3831 48.9186 64.8078 49.3883C64.2326 49.858 64.156 50.7161 64.6367 51.3049C65.1175 51.8937 65.9735 51.9903 66.5488 51.5206Z" fill="black"/>
<path d="M57.2054 51.7235C57.7807 51.2538 57.8573 50.3957 57.3765 49.8069C56.8958 49.2181 56.0397 49.1215 55.4645 49.5912C54.8892 50.0609 54.8126 50.919 55.2933 51.5078C55.7741 52.0966 56.6302 52.1932 57.2054 51.7235Z" fill="black"/>
<path d="M13.8298 67.4608L10.6583 70.0502C9.95874 70.6214 8.90282 70.5023 8.31817 69.7863C7.73352 69.0702 7.82802 68.0118 8.5276 67.4406L11.699 64.8512C12.3986 64.28 13.4546 64.3991 14.0392 65.1151C14.6239 65.8312 14.5449 66.8769 13.8298 67.4608Z" fill="#AEDCE5"/>
<path d="M26.734 61.274L23.864 64.2009C23.2293 64.8516 22.1632 64.8469 21.5164 64.1816C20.854 63.529 20.8343 62.4578 21.4819 61.8229L24.352 58.8961C24.9866 58.2453 26.0528 58.25 26.6996 58.9153C27.3335 59.5647 27.3687 60.6233 26.734 61.274Z" fill="#AEDCE5"/>
<path d="M39.4606 70.7999L37.5097 74.4082C37.0777 75.2119 36.0716 75.5029 35.2616 75.0504C34.4517 74.5978 34.139 73.5802 34.5711 72.7765L36.5219 69.1682C36.954 68.3645 37.96 68.0735 38.77 68.526C39.58 68.9786 39.8927 69.9962 39.4606 70.7999Z" fill="#AEDCE5"/>
<path d="M45.7385 82.3287L43.7435 87.7235C43.436 88.5845 42.4613 89.0091 41.6125 88.6677C40.7483 88.3391 40.3033 87.3499 40.6238 86.5048L42.6188 81.11C42.9263 80.2489 43.9011 79.8244 44.7498 80.1657C45.6271 80.5102 46.059 81.4836 45.7385 82.3287Z" fill="#AEDCE5"/>
<path d="M58.8428 94.8877L59.0863 89.0931C59.1265 88.1585 59.9089 87.4667 60.8247 87.5411C61.7561 87.6028 62.4628 88.4049 62.4096 89.3235L62.166 95.1181C62.1258 96.0526 61.3434 96.7445 60.4276 96.6701C59.5248 96.6116 58.8026 95.8222 58.8428 94.8877Z" fill="#AEDCE5"/>
<path d="M56.0243 77.2191L54.7658 80.66C54.4583 81.521 53.4836 81.9456 52.6349 81.6043C51.7706 81.2756 51.3257 80.2864 51.6461 79.4413L52.9046 76.0004C53.2121 75.1394 54.1869 74.7148 55.0356 75.0561C55.8998 75.3848 56.3318 76.3581 56.0243 77.2191Z" fill="#AEDCE5"/>
<path d="M51.2957 66.0961L50.0372 69.5369C49.7297 70.398 48.755 70.8225 47.9062 70.4812C47.042 70.1526 46.597 69.1633 46.9175 68.3182L48.176 64.8773C48.4835 64.0163 49.4582 63.5917 50.3069 63.9331C51.1712 64.2617 51.6032 65.235 51.2957 66.0961Z" fill="#AEDCE5"/>
<path d="M66.5636 69.5952L65.3051 73.0361C64.9977 73.8971 64.0229 74.3217 63.1742 73.9804C62.3099 73.6517 61.865 72.6625 62.1855 71.8174L63.4439 68.3765C63.7514 67.5155 64.7262 67.0909 65.5749 67.4322C66.4521 67.7768 66.8841 68.7501 66.5636 69.5952Z" fill="#AEDCE5"/>
<path d="M29.7555 51.4876L26.4671 53.9338C25.7415 54.4732 24.6882 54.3255 24.1216 53.5681C23.5681 52.8267 23.6911 51.7715 24.4322 51.2194L27.7206 48.7732C28.4461 48.2338 29.4995 48.3816 30.0661 49.1389C30.6326 49.8963 30.481 50.9482 29.7555 51.4876Z" fill="#AEDCE5"/>
<path d="M24.5727 73.859L21.8481 76.9323C21.2394 77.6149 20.1967 77.6706 19.5033 77.0434C18.8098 76.4162 18.7305 75.3671 19.3391 74.6845L22.0637 71.6112C22.6724 70.9287 23.7151 70.8729 24.4086 71.5001C25.1176 72.1146 25.1813 73.1764 24.5727 73.859Z" fill="#AEDCE5"/>
<path d="M40.3224 58.2416L37.5978 61.3148C36.9891 61.9974 35.9464 62.0532 35.253 61.4259C34.5595 60.7987 34.4802 59.7496 35.0888 59.067L37.8134 55.9938C38.4221 55.3112 39.4648 55.2555 40.1583 55.8827C40.8517 56.5099 40.9155 57.5717 40.3224 58.2416Z" fill="#AEDCE5"/>
</svg>
