<svg width="84" height="37" viewBox="0 0 84 37" fill="none" xmlns="http://www.w3.org/2000/svg">
<path d="M12.4358 5.56L1.21575 27.75C0.765754 28.65 1.03575 29.76 1.87575 30.31C4.69575 32.15 13.6358 35.25 41.8958 35.25C41.8958 35.25 72.6258 35.65 81.7758 30.08C82.6358 29.55 82.9358 28.45 82.5058 27.53L72.0958 5.56C72.0958 5.56 61.7057 9.92 41.8958 8.99C41.8958 8.99 24.5258 9.31 12.4358 5.56Z" fill="#E94925" stroke="#040000" stroke-width="2" stroke-miterlimit="10"/>
<path d="M71.7458 4.87C71.7458 7 57.5058 9 40.5158 9C23.5258 9 12.7758 7.13 12.7758 5C12.7758 2.87 25.4758 1 42.4758 1C59.4758 1 71.7458 2.74 71.7458 4.87Z" fill="#E94925" stroke="#040000" stroke-width="2" stroke-miterlimit="10"/>
<path d="M34.7157 16.85L31.2758 25.61L29.6758 25.44L28.6058 18.94C28.5558 18.63 28.5357 18.31 28.5557 17.98H28.5357C28.4657 18.33 28.3758 18.64 28.2758 18.91L25.8658 25.05L24.2458 24.88L22.6458 15.59L24.1858 15.75L25.1858 22.53C25.2258 22.83 25.2458 23.15 25.2258 23.5H25.2658C25.3058 23.25 25.4057 22.93 25.5557 22.55L28.1158 16.16L29.5357 16.31L30.5958 23.15C30.6358 23.4 30.6558 23.7 30.6558 24.06H30.6758C30.7258 23.77 30.8058 23.47 30.9258 23.16L33.2558 16.7L34.7157 16.85Z" fill="white"/>
<path d="M42.2557 26.04L40.7057 26L39.9157 23.62L36.2857 23.52L35.4157 25.86L33.8657 25.82L37.5257 16.84L39.0857 16.88L42.2557 26.04ZM39.5657 22.44L38.3957 18.83C38.3557 18.7 38.3157 18.47 38.2757 18.14H38.2357C38.1957 18.41 38.1357 18.63 38.0757 18.81L36.7257 22.37L39.5657 22.44Z" fill="white"/>
<path d="M48.2558 17.95L45.6458 18.03L45.8758 25.9L44.4658 25.94L44.2358 18.07L41.6358 18.15L41.5958 16.94L48.2158 16.75L48.2558 17.95Z" fill="white"/>
<path d="M55.0557 25.25L50.0457 25.69L49.2457 16.65L54.0457 16.22L54.1557 17.42L50.7557 17.72L50.9957 20.38L54.1557 20.1L54.2657 21.3L51.1057 21.58L51.3557 24.36L54.9657 24.04L55.0557 25.25Z" fill="white"/>
<path d="M63.7558 23.97L62.1258 24.22L60.2858 22C59.9258 21.57 59.6158 21.28 59.3558 21.14C59.0958 21 58.8158 20.96 58.5158 21L57.7658 21.12L58.3458 24.8L56.9558 25.02L55.5558 16.05L58.4058 15.6C59.3358 15.45 60.0858 15.55 60.6558 15.89C61.2258 16.23 61.5758 16.78 61.6958 17.55C61.7858 18.15 61.6958 18.69 61.4058 19.18C61.1158 19.66 60.6758 20.04 60.0758 20.31V20.33C60.4958 20.41 61.0258 20.81 61.6458 21.53L63.7558 23.97ZM57.1158 16.99L57.5858 19.98L58.8158 19.79C59.3258 19.71 59.7158 19.5 59.9758 19.15C60.2358 18.81 60.3258 18.4 60.2558 17.94C60.1058 17 59.4758 16.62 58.3658 16.79L57.1158 16.99Z" fill="white"/>
</svg>
