<svg width="91" height="40" viewBox="0 0 91 40" fill="none" xmlns="http://www.w3.org/2000/svg">
<path d="M13.4478 5.95923L1.23464 30.1028C0.745246 31.0816 1.03888 32.2888 1.95243 32.887C5.01932 34.888 14.742 38.2595 45.4762 38.2595C45.4762 38.2595 78.8966 38.6945 88.8476 32.6368C89.7829 32.0604 90.1092 30.8641 89.6415 29.8636L78.3202 5.95923C78.3202 5.95923 67.0205 10.7009 45.4762 9.68952C45.4762 9.7004 26.5854 10.0484 13.4478 5.95923Z" fill="#E94925" stroke="#040000" stroke-width="2" stroke-miterlimit="10"/>
<path d="M77.9504 5.20882C77.9504 7.5253 62.4637 9.7004 43.9863 9.7004C25.5088 9.7004 13.8176 7.66668 13.8176 5.3502C13.8176 3.03372 27.6295 1 46.1178 1C64.6062 1 77.9504 2.90321 77.9504 5.20882Z" fill="#E94925" stroke="#040000" stroke-width="2" stroke-miterlimit="10"/>
<path d="M37.6675 18.2485L33.9263 27.7755L32.1863 27.5906L31.0226 20.5215C30.9682 20.1844 30.9465 19.8364 30.9682 19.4775H30.9465C30.8703 19.8581 30.7724 20.1953 30.6637 20.4889L28.0318 27.1665L26.27 26.9816L24.5299 16.8782L26.2047 17.0522L27.2923 24.4258C27.3358 24.7521 27.3575 25.1001 27.3358 25.4808H27.3793C27.4228 25.2089 27.5315 24.8608 27.6947 24.4476L30.4788 17.4981L32.0231 17.6613L33.1759 25.1001C33.2194 25.372 33.2412 25.6983 33.2412 26.0898H33.2629C33.3173 25.7744 33.4043 25.4481 33.5348 25.111L36.0688 18.0854L37.6675 18.2485Z" fill="white"/>
<path d="M45.8786 28.2323L44.1929 28.1888L43.3337 25.6004L39.3859 25.4916L38.4397 28.0365L36.754 27.993L40.7345 18.2268L42.431 18.2703L45.8786 28.2323ZM42.9422 24.3171L41.6698 20.391C41.6263 20.2497 41.5828 19.9995 41.5392 19.6406H41.4957C41.4522 19.9343 41.387 20.1735 41.3217 20.3693L39.8535 24.241L42.9422 24.3171Z" fill="white"/>
<path d="M52.4038 19.4448L49.5653 19.5318L49.8155 28.0908L48.282 28.1343L48.0319 19.5753L45.2043 19.6623L45.1608 18.3464L52.3603 18.1398L52.4038 19.4448Z" fill="white"/>
<path d="M59.7883 27.3839L54.3396 27.8624L53.4696 18.031L58.6898 17.5634L58.8095 18.8684L55.1118 19.1947L55.3728 22.0876L58.8095 21.783L58.9291 23.0881L55.4924 23.3926L55.7643 26.416L59.6904 26.068L59.7883 27.3839Z" fill="white"/>
<path d="M69.2501 25.9811L67.4774 26.2529L65.4763 23.8386C65.0848 23.3709 64.7476 23.0555 64.4649 22.9033C64.1821 22.751 63.8776 22.7075 63.5513 22.751L62.7357 22.8815L63.3664 26.8837L61.8439 27.1339L60.3213 17.3785L63.4208 16.8891C64.4322 16.726 65.2479 16.8348 65.8678 17.2045C66.4877 17.5743 66.8683 18.1724 66.9988 19.0099C67.0967 19.6624 66.9988 20.2497 66.6835 20.7826C66.3681 21.3046 65.8895 21.7179 65.237 22.0115V22.0332C65.6938 22.1202 66.2702 22.5553 66.9445 23.3383L69.2501 25.9811ZM62.0287 18.4008L62.5399 21.6526L63.8776 21.446C64.4322 21.359 64.8564 21.1306 65.1391 20.7499C65.4219 20.3802 65.5198 19.9343 65.4436 19.434C65.2805 18.4117 64.5954 17.9984 63.3882 18.1833L62.0287 18.4008Z" fill="white"/>
</svg>
