<?xml version="1.0" encoding="utf-8"?>
<!-- Generator: Adobe Illustrator 25.2.0, SVG Export Plug-In . SVG Version: 6.00 Build 0)  -->
<svg version="1.1" id="圖層_1" xmlns="http://www.w3.org/2000/svg" xmlns:xlink="http://www.w3.org/1999/xlink" x="0px" y="0px"
	 viewBox="0 0 100 100" style="enable-background:new 0 0 100 100;" xml:space="preserve">
<style type="text/css">
	.st0{stroke:#FFFFFF;stroke-miterlimit:10;}
	.st1{fill:#E94925;stroke:#040000;stroke-width:2;stroke-miterlimit:10;}
	.st2{fill:#C1E4EF;stroke:#040000;stroke-width:2;stroke-miterlimit:10;}
	.st3{fill:#FFFFFF;}
	.st4{fill:#7A524B;}
	.st5{fill:#5F4641;}
	.st6{fill:#F6E9BA;}
	.st7{fill:#2C3C50;}
	.st8{fill:#ECC644;stroke:#000000;stroke-miterlimit:10;}
	.st9{fill:#DA4E6E;stroke:#000000;stroke-miterlimit:10;}
	.st10{fill:none;stroke:#000000;stroke-miterlimit:10;}
	.st11{fill:#FFFFFF;stroke:#000000;stroke-miterlimit:10;}
	.st12{fill:#6A4B2E;stroke:#000000;stroke-width:2;stroke-miterlimit:10;}
	.st13{fill:#E22925;stroke:#000000;stroke-width:2;stroke-miterlimit:10;}
	.st14{fill:#6F401E;stroke:#000000;stroke-width:2;stroke-miterlimit:10;}
	.st15{fill:none;stroke:#040000;stroke-width:2;stroke-miterlimit:10;}
	.st16{fill:#040000;stroke:#040000;stroke-miterlimit:10;}
	.st17{fill:#906526;stroke:#000000;stroke-width:2;stroke-miterlimit:10;}
	.st18{fill:#D3AF7C;stroke:#000000;stroke-width:2;stroke-miterlimit:10;}
	.st19{stroke:#000000;stroke-miterlimit:10;}
	.st20{fill:none;stroke:#000000;stroke-width:2;stroke-miterlimit:10;}
	.st21{fill:#F1DBBD;stroke:#000000;stroke-width:2;stroke-miterlimit:10;}
	.st22{fill:#ECA368;stroke:#000000;stroke-width:2;stroke-miterlimit:10;}
	.st23{fill:none;stroke:#FFFFFF;stroke-width:0.5;stroke-miterlimit:10;}
	.st24{fill:#ECED81;stroke:#000000;stroke-miterlimit:10;}
	.st25{fill:#EB5A41;stroke:#000000;stroke-miterlimit:10;}
	.st26{fill:#EE7C62;stroke:#000000;stroke-miterlimit:10;}
	.st27{fill:none;stroke:#C55643;stroke-width:0.5;stroke-miterlimit:10;}
	.st28{fill:#040000;}
	.st29{fill:#ECED81;stroke:#000000;stroke-width:2;stroke-miterlimit:10;}
	.st30{fill:#B33F2D;}
	.st31{fill:#FFFFFF;stroke:#000000;stroke-width:2;stroke-miterlimit:10;}
	.st32{fill:#BB8682;stroke:#000000;stroke-miterlimit:10;}
	.st33{fill:none;stroke:#040000;stroke-width:0.5;stroke-miterlimit:10;}
	.st34{fill:#B5B5B5;stroke:#000000;stroke-width:2;stroke-miterlimit:10;}
	.st35{fill:#FFFFFF;stroke:#040000;stroke-width:2;stroke-miterlimit:10;}
	.st36{fill:#E73483;stroke:#040000;stroke-width:2;stroke-miterlimit:10;}
	.st37{fill:#DBA8CC;stroke:#040000;stroke-width:2;stroke-miterlimit:10;}
	.st38{fill:#814537;stroke:#040000;stroke-width:2;stroke-miterlimit:10;}
	.st39{fill:#D54426;stroke:#040000;stroke-width:2;stroke-miterlimit:10;}
	.st40{fill:#C68A6B;}
	.st41{fill:#B44522;}
	.st42{fill:#643219;stroke:#000000;stroke-width:2;stroke-miterlimit:10;}
	.st43{fill:#423052;stroke:#000000;stroke-width:2;stroke-miterlimit:10;}
	.st44{fill:#6A567A;}
	.st45{fill:#8C709A;stroke:#000000;stroke-width:2;stroke-miterlimit:10;}
	.st46{fill:#9E87AD;}
	.st47{fill:#645293;stroke:#000000;stroke-width:2;stroke-miterlimit:10;}
	.st48{fill:#8B81B1;}
	.st49{fill:#533B62;stroke:#000000;stroke-width:2;stroke-miterlimit:10;}
	.st50{fill:#3E9C41;stroke:#000000;stroke-width:2;stroke-miterlimit:10;}
	.st51{fill:#81B14A;stroke:#000000;stroke-width:2;stroke-miterlimit:10;}
	.st52{fill:#55A284;stroke:#000000;stroke-width:2;stroke-miterlimit:10;}
	.st53{fill:#F0BE7F;stroke:#000000;stroke-width:2;stroke-miterlimit:10;}
	.st54{fill:none;stroke:#DE7860;stroke-width:2;stroke-miterlimit:10;}
	.st55{fill:url(#SVGID_1_);stroke:#000000;stroke-width:2;stroke-miterlimit:10;}
	.st56{fill:url(#SVGID_2_);stroke:#000000;stroke-width:2;stroke-miterlimit:10;}
	.st57{fill:url(#SVGID_3_);stroke:#000000;stroke-width:2;stroke-miterlimit:10;}
	.st58{fill:#FDF4EA;stroke:#040000;stroke-width:2;stroke-miterlimit:10;}
	.st59{fill:none;stroke:#C29C93;stroke-width:2;stroke-miterlimit:10;}
	.st60{fill:#392D4B;stroke:#000000;stroke-width:2;stroke-miterlimit:10;}
	.st61{fill:#685A7C;}
	.st62{fill:#65AD66;stroke:#040000;stroke-width:2;stroke-miterlimit:10;}
	.st63{fill:#94CC93;stroke:#040000;stroke-width:2;stroke-miterlimit:10;}
	.st64{fill:#DB655F;stroke:#000000;stroke-width:2;stroke-miterlimit:10;}
	.st65{fill:#D24F30;stroke:#000000;stroke-width:2;stroke-miterlimit:10;}
	.st66{fill:#EAB934;stroke:#000000;stroke-width:2;stroke-miterlimit:10;}
	.st67{fill:#F0EDE1;}
	.st68{fill:#F4CADE;}
	.st69{fill:#D9AE58;stroke:#040000;stroke-width:2;stroke-miterlimit:10;}
	.st70{fill:#F4E2C2;}
	.st71{fill:#F1DFC0;stroke:#040000;stroke-miterlimit:10;}
	.st72{fill:#C4E6F1;stroke:#000000;stroke-width:2;stroke-miterlimit:10;}
	.st73{fill:#E8DE80;stroke:#000000;stroke-width:2;stroke-miterlimit:10;}
	.st74{fill:#F7F5F5;stroke:#000000;stroke-width:2;stroke-miterlimit:10;}
	.st75{fill:#AEDCE5;}
	.st76{fill:#D7B995;}
	.st77{fill:#E55F7B;stroke:#000000;stroke-width:2;stroke-miterlimit:10;}
	.st78{fill:none;stroke:#FFFFFF;stroke-miterlimit:10;}
	.st79{fill:#FFFFFF;stroke:#FFFFFF;stroke-miterlimit:10;}
	.st80{fill:none;stroke:#FFFFFF;stroke-width:0.75;stroke-miterlimit:10;}
	.st81{fill:#DBA8CC;}
	.st82{fill:none;stroke:#040000;stroke-miterlimit:10;}
	.st83{fill:none;stroke:#FFFFFF;stroke-width:2;stroke-miterlimit:10;}
</style>
<g>
	<g>
		<path class="st1" d="M16.96,33.95L5.73,56.15c-0.45,0.9-0.18,2.01,0.66,2.56c2.82,1.84,11.76,4.94,40.02,4.94
			c0,0,30.73,0.4,39.88-5.17c0.86-0.53,1.16-1.63,0.73-2.55L76.61,33.95c0,0-10.39,4.36-30.2,3.43
			C46.41,37.39,29.04,37.71,16.96,33.95z"/>
		<path class="st2" d="M76.27,33.26c0,2.13-14.24,4.13-31.23,4.13s-27.74-1.87-27.74-4s12.7-4,29.7-4S76.27,31.14,76.27,33.26z"/>
	</g>
	<g>
		<path class="st3" d="M39.23,45.25l-3.44,8.76l-1.6-0.17l-1.07-6.5c-0.05-0.31-0.07-0.63-0.05-0.96l-0.02,0
			c-0.07,0.35-0.16,0.66-0.26,0.93l-2.42,6.14l-1.62-0.17l-1.6-9.29l1.54,0.16l1,6.78c0.04,0.3,0.06,0.62,0.04,0.97l0.04,0
			c0.04-0.25,0.14-0.57,0.29-0.95l2.56-6.39l1.42,0.15l1.06,6.84c0.04,0.25,0.06,0.55,0.06,0.91l0.02,0
			c0.05-0.29,0.13-0.59,0.25-0.9l2.33-6.46L39.23,45.25z"/>
		<path class="st3" d="M46.78,54.43l-1.55-0.04L44.44,52l-3.63-0.1l-0.87,2.34l-1.55-0.04l3.66-8.98l1.56,0.04L46.78,54.43z
			 M44.08,50.83l-1.17-3.61c-0.04-0.13-0.08-0.36-0.12-0.69l-0.04,0c-0.04,0.27-0.1,0.49-0.16,0.67l-1.35,3.56L44.08,50.83z"/>
		<path class="st3" d="M52.78,46.35l-2.61,0.08l0.23,7.87l-1.41,0.04l-0.23-7.87l-2.6,0.08l-0.04-1.21l6.62-0.19L52.78,46.35z"/>
		<path class="st3" d="M59.57,53.65l-5.01,0.44l-0.8-9.04l4.8-0.43l0.11,1.2l-3.4,0.3l0.24,2.66l3.16-0.28l0.11,1.2l-3.16,0.28
			l0.25,2.78l3.61-0.32L59.57,53.65z"/>
		<path class="st3" d="M68.27,52.36l-1.63,0.25L64.8,50.4c-0.36-0.43-0.67-0.72-0.93-0.86s-0.54-0.18-0.84-0.14l-0.75,0.12
			l0.58,3.68l-1.39,0.22l-1.4-8.97l2.85-0.45c0.93-0.15,1.68-0.05,2.25,0.29c0.57,0.34,0.92,0.89,1.04,1.66
			c0.09,0.6,0,1.14-0.29,1.63c-0.29,0.48-0.73,0.86-1.33,1.13l0,0.02c0.42,0.08,0.95,0.48,1.57,1.2L68.27,52.36z M61.63,45.38
			l0.47,2.99l1.23-0.19c0.51-0.08,0.9-0.29,1.16-0.64c0.26-0.34,0.35-0.75,0.28-1.21c-0.15-0.94-0.78-1.32-1.89-1.15L61.63,45.38z"
			/>
	</g>
</g>
</svg>
