<svg width="88" height="39" viewBox="0 0 88 39" fill="none" xmlns="http://www.w3.org/2000/svg">
<path d="M13.7817 6.5296L2.07801 29.6661C1.60902 30.6041 1.89041 31.7609 2.76585 32.3341C5.70481 34.2517 15.022 37.4825 44.4741 37.4825C44.4741 37.4825 76.5005 37.8994 86.0365 32.0944C86.9328 31.5421 87.2454 30.3957 86.7973 29.4368L75.9481 6.5296C75.9481 6.5296 65.1198 11.0735 44.4741 10.1043C44.4741 10.1147 26.3714 10.4482 13.7817 6.5296Z" fill="#E94925" stroke="#040000" stroke-width="2" stroke-miterlimit="10"/>
<path d="M75.5938 5.81048C75.5938 8.03034 60.7531 10.1147 43.0463 10.1147C25.3396 10.1147 14.1361 8.16582 14.1361 5.94596C14.1361 3.72611 27.3719 1.77722 45.089 1.77722C62.8062 1.77722 75.5938 3.60105 75.5938 5.81048Z" fill="#E94925" stroke="#040000" stroke-width="2" stroke-miterlimit="10"/>
<path d="M36.9913 18.3063L33.4062 27.4358L31.7387 27.2587L30.6235 20.4845C30.5714 20.1614 30.5506 19.8279 30.5714 19.484H30.5506C30.4776 19.8487 30.3838 20.1718 30.2796 20.4532L27.7575 26.8522L26.0692 26.6751L24.4017 16.9931L26.0066 17.1599L27.0488 24.2259C27.0905 24.5386 27.1114 24.8721 27.0905 25.2368H27.1322C27.1739 24.9763 27.2781 24.6428 27.4344 24.2468L30.1024 17.5872L31.5823 17.7435L32.687 24.8721C32.7287 25.1326 32.7496 25.4453 32.7496 25.8205H32.7704C32.8225 25.5182 32.9059 25.2056 33.031 24.8825L35.4593 18.15L36.9913 18.3063Z" fill="white"/>
<path d="M44.8597 27.8736L43.2443 27.8319L42.421 25.3515L38.6379 25.2472L37.7312 27.686L36.1158 27.6443L39.9302 18.2854L41.556 18.3271L44.8597 27.8736ZM42.0458 24.1217L40.8265 20.3594C40.7848 20.2239 40.7431 19.9842 40.7014 19.6403H40.6597C40.618 19.9217 40.5555 20.151 40.493 20.3386L39.086 24.0487L42.0458 24.1217Z" fill="white"/>
<path d="M51.1128 19.4527L48.3927 19.536L48.6324 27.738L47.1629 27.7797L46.9232 19.5777L44.2136 19.6611L44.1719 18.4001L51.0711 18.202L51.1128 19.4527Z" fill="white"/>
<path d="M58.1893 27.0606L52.9679 27.5192L52.1342 18.0978L57.1366 17.6497L57.2513 18.9003L53.7079 19.2129L53.958 21.9851L57.2513 21.6933L57.3659 22.944L54.0726 23.2358L54.3332 26.1331L58.0955 25.7996L58.1893 27.0606Z" fill="white"/>
<path d="M67.2564 25.7162L65.5576 25.9768L63.64 23.6631C63.2648 23.215 62.9417 22.9127 62.6707 22.7668C62.3998 22.6209 62.108 22.5792 61.7953 22.6209L61.0137 22.746L61.6181 26.5812L60.1591 26.8209L58.7 17.4725L61.6702 17.0035C62.6395 16.8472 63.4211 16.9514 64.0152 17.3058C64.6092 17.6601 64.974 18.2333 65.099 19.0358C65.1928 19.6611 65.099 20.2239 64.7968 20.7346C64.4946 21.2348 64.036 21.6308 63.4107 21.9122V21.9331C63.8484 22.0165 64.4008 22.4333 65.0469 23.1837L67.2564 25.7162ZM60.3362 18.4522L60.8261 21.5683L62.108 21.3703C62.6395 21.2869 63.0459 21.0681 63.3169 20.7033C63.5879 20.349 63.6817 19.9217 63.6087 19.4423C63.4524 18.4626 62.7958 18.0666 61.639 18.2437L60.3362 18.4522Z" fill="white"/>
</svg>
