<svg width="375" height="812" viewBox="0 0 375 812" fill="none" xmlns="http://www.w3.org/2000/svg">
<g clip-path="url(#clip0_308_50)">
<rect width="375" height="812" rx="40" fill="#FEA735"/>
<rect x="121" y="799" width="134" height="5" rx="2.5" fill="black"/>
<path d="M241.429 319.077L262.193 269.144C262.193 269.144 270.576 248.928 293.691 258.155C293.691 258.155 315.4 267.516 307.93 287.667L287.328 338.099" stroke="white" stroke-width="2" stroke-miterlimit="10"/>
<path d="M271.474 277.95C273.422 278.758 275.657 277.834 276.465 275.885C277.273 273.937 276.349 271.702 274.4 270.894C272.451 270.086 270.217 271.01 269.409 272.959C268.601 274.908 269.525 277.142 271.474 277.95Z" fill="white" stroke="white" stroke-width="2" stroke-miterlimit="10"/>
<path d="M294.606 287.543C296.554 288.351 298.789 287.426 299.597 285.478C300.405 283.529 299.48 281.294 297.532 280.486C295.583 279.678 293.348 280.603 292.54 282.551C291.732 284.5 292.657 286.735 294.606 287.543Z" fill="white" stroke="white" stroke-width="2" stroke-miterlimit="10"/>
<path d="M269.551 285.233L278.585 283.747C280.968 283.343 284.037 284.489 285.645 286.359L291.595 293.277C293.774 295.805 292.258 298.341 288.674 298.184L280.314 297.84C278.658 297.765 276.882 297.113 275.534 296.09L268.91 291.001C265.956 288.763 266.294 285.76 269.551 285.233Z" stroke="white" stroke-width="2" stroke-miterlimit="10"/>
<path d="M266.225 286.639C266.225 286.639 278.257 294.561 293.422 296.503" stroke="white" stroke-width="2" stroke-miterlimit="10"/>
<path d="M252.578 292.33C252.578 292.33 240.634 285.52 234.736 296.387C234.736 296.387 227.436 306.461 237.588 319.679C238.627 321.038 240.784 320.772 241.426 319.224L252.578 292.33V292.33Z" stroke="white" stroke-width="2" stroke-miterlimit="10"/>
<path d="M298.539 311.178C298.539 311.178 311.797 314.819 308.275 326.671C308.275 326.671 306.303 338.955 289.777 341.11C288.08 341.334 286.744 339.62 287.386 338.072L298.539 311.178V311.178Z" stroke="white" stroke-width="2" stroke-miterlimit="10"/>
<path d="M-21.3328 99.6379L26.8155 70.1523C26.8155 70.1523 45.5231 58.6995 58.8073 79.7846C58.8073 79.7846 70.8937 100.143 52.9824 112.065L9.92539 138.767" stroke="#FCF5EF" stroke-width="2" stroke-miterlimit="10"/>
<path d="M32.103 94.0046L33.9391 97.0163C35.0563 98.8664 34.0881 100.871 32.3084 100.345L30.033 99.6899C28.7046 99.3001 27.7094 97.6585 27.9595 96.3057L28.3987 93.9495C28.7406 92.1521 30.9669 92.1801 32.103 94.0046Z" fill="#FCF5EF" stroke="#FCF5EF" stroke-width="2" stroke-miterlimit="10"/>
<path d="M51.02 123.743C51.02 123.743 49.9419 114.314 41.2243 109.571" stroke="#FCF5EF" stroke-width="2" stroke-miterlimit="10"/>
<path d="M41.3526 130.322C41.3526 130.322 43.1041 121.011 36.1385 113.896" stroke="#FCF5EF" stroke-width="2" stroke-miterlimit="10"/>
<path d="M15.3716 65.5245C15.3716 65.5245 23.2811 70.7745 23.5256 80.692" stroke="#FCF5EF" stroke-width="2" stroke-miterlimit="10"/>
<path d="M5.1326 71.1688C5.1326 71.1688 14.2219 73.8605 17.4054 83.268" stroke="#FCF5EF" stroke-width="2" stroke-miterlimit="10"/>
<path d="M43.27 101.115C44.3765 102.922 46.7144 103.505 48.492 102.417C50.2695 101.329 50.8135 98.9816 49.707 97.1742C48.6006 95.3668 46.2627 94.7837 44.4851 95.8719C42.7076 96.9601 42.1636 99.3074 43.27 101.115Z" fill="#FCF5EF" stroke="#FCF5EF" stroke-width="2" stroke-miterlimit="10"/>
<path d="M32.1753 82.9844C33.2818 84.7918 35.6197 85.3748 37.3972 84.2867C39.1747 83.1985 39.7187 80.8512 38.6123 79.0438C37.5058 77.2364 35.1679 76.6534 33.3904 77.7415C31.6129 78.8297 31.0689 81.177 32.1753 82.9844Z" fill="#FCF5EF" stroke="#FCF5EF" stroke-width="2" stroke-miterlimit="10"/>
<path d="M63.2497 90.4767C63.2497 90.4767 70.3516 94.5784 73.1235 103.209C73.1235 103.209 67.125 111.118 57.7218 107.997C57.7218 107.997 62.9604 101.971 63.2497 90.4767Z" stroke="#FCF5EF" stroke-width="2" stroke-miterlimit="10"/>
<path d="M50.7263 70.2295C50.7263 70.2295 50.2851 62.0195 43.883 55.6357C43.883 55.6357 34.1036 57.4013 32.6029 67.1732C32.6284 67.192 40.3643 65.2576 50.7263 70.2295Z" stroke="#FCF5EF" stroke-width="2" stroke-miterlimit="10"/>
<path d="M31.0054 110.223C31.0054 110.223 19.4327 107.905 27.4232 99.2207C27.6371 98.9845 27.4441 98.6053 27.1591 98.6709C24.8853 99.0809 16.0572 100.839 18.3161 90.6815" stroke="#FCF5EF" stroke-width="2" stroke-miterlimit="10"/>
<path d="M332.721 443.839L317.802 389.431C311.497 369.041 288.736 374.799 288.736 374.799C264.949 381.513 270.574 402.506 270.574 402.506L277.436 428.115" stroke="white" stroke-width="2" stroke-miterlimit="10"/>
<path d="M283.205 403.81C285.229 403.268 286.43 401.188 285.888 399.164C285.345 397.141 283.265 395.94 281.242 396.482C279.218 397.024 278.017 399.104 278.56 401.128C279.102 403.152 281.182 404.352 283.205 403.81Z" fill="white" stroke="white" stroke-miterlimit="10"/>
<path d="M307.227 397.374C309.251 396.831 310.452 394.751 309.909 392.728C309.367 390.704 307.287 389.503 305.264 390.046C303.24 390.588 302.039 392.668 302.581 394.691C303.124 396.715 305.204 397.916 307.227 397.374Z" fill="white" stroke="white" stroke-miterlimit="10"/>
<path d="M332.72 443.759C332.72 443.759 346.246 441.898 344.319 429.771C344.319 429.771 343.975 417.421 327.984 413.15C326.343 412.708 324.805 414.222 325.236 415.83L332.72 443.759Z" stroke="white" stroke-width="2" stroke-miterlimit="10"/>
<path d="M285.087 456.522C285.087 456.522 272.442 461.673 268.048 450.208C268.048 450.208 262.171 439.34 273.884 427.646C275.084 426.443 277.173 426.985 277.604 428.593L285.087 456.522Z" stroke="white" stroke-width="2" stroke-miterlimit="10"/>
<path d="M283.987 376.071C283.987 376.071 280.89 366.382 285.361 362.279C285.361 362.279 291.831 364.292 293.372 373.557C293.372 373.557 289.368 373.046 283.987 376.071Z" stroke="white" stroke-width="2" stroke-miterlimit="10"/>
<path d="M315.541 409.632C318.473 408.846 320.213 405.832 319.427 402.9C318.642 399.968 315.628 398.228 312.696 399.014C309.764 399.799 308.024 402.813 308.809 405.745C309.595 408.678 312.609 410.418 315.541 409.632Z" fill="white"/>
<path d="M282.584 418.463C285.516 417.677 287.256 414.663 286.47 411.731C285.684 408.799 282.671 407.059 279.738 407.845C276.806 408.63 275.066 411.644 275.852 414.576C276.638 417.508 279.651 419.249 282.584 418.463Z" fill="white"/>
<path d="M286.101 410.728L292.318 404.093C293.95 402.334 297.06 401.38 299.458 401.88L308.329 403.73C311.575 404.403 311.915 407.318 308.997 409.362L302.204 414.147C300.854 415.09 299.061 415.651 297.38 415.66L289.085 415.659C285.4 415.664 283.855 413.113 286.101 410.728Z" stroke="white" stroke-width="2" stroke-miterlimit="10"/>
<path d="M284.313 413.852C284.313 413.852 298.581 412.814 311.701 405.171" stroke="white" stroke-width="2" stroke-miterlimit="10"/>
<path d="M51.0894 200.137L84.685 157.741C84.685 157.741 97.7216 141.289 116.627 155.864C116.627 155.864 134.2 170.194 122.022 186.826L88.4318 229.728" stroke="white" stroke-width="2" stroke-miterlimit="10"/>
<path d="M90.9377 168.299C92.5235 169.556 94.8278 169.289 96.0844 167.703C97.341 166.118 97.0741 163.813 95.4883 162.557C93.9025 161.3 91.5982 161.567 90.3416 163.153C89.085 164.739 89.3519 167.043 90.9377 168.299Z" fill="white" stroke="white" stroke-miterlimit="10"/>
<path d="M109.762 183.217C111.348 184.473 113.652 184.206 114.909 182.62C116.166 181.035 115.899 178.73 114.313 177.474C112.727 176.217 110.423 176.484 109.166 178.07C107.91 179.656 108.177 181.96 109.762 183.217Z" fill="white" stroke="white" stroke-miterlimit="10"/>
<path d="M51.0897 200.137L83.6522 159.044C83.6522 159.044 94.3918 143.348 112.392 152.848C112.392 152.848 94.3423 130.144 81.6878 148.401C81.6878 148.401 64.4146 140.795 65.77 159.851C65.77 159.851 48.8508 156.795 53.4562 174.157C53.4562 174.157 36.4105 177.821 46.7221 195.627C46.7221 195.627 48.1382 198.204 51.0897 200.137Z" stroke="white" stroke-width="2" stroke-miterlimit="10"/>
<path d="M110.149 153.354C110.551 155.556 112.445 162.376 120.53 161.532C120.898 161.49 121.2 161.229 121.321 160.895L126.436 146.013C126.716 145.209 125.875 144.495 125.12 144.875L110.647 152.365C110.283 152.554 110.089 152.949 110.149 153.354Z" fill="#FEA735" stroke="white" stroke-width="2" stroke-miterlimit="10"/>
<path d="M92.2452 209.807C103.633 214.848 106.05 203.431 106.05 203.431C110.788 187.821 98.4644 179.296 98.4644 179.296C86.9612 170.157 73.5604 176.685 73.5604 176.685C60.5622 183.818 70.7793 193.226 70.7793 193.226C70.7793 193.226 84.1248 206.21 92.2452 209.807Z" stroke="white" stroke-width="2" stroke-miterlimit="10"/>
<path d="M90.0494 182.573C90.7048 183.092 91.6571 182.982 92.1764 182.326C92.6957 181.671 92.5854 180.719 91.93 180.199C91.2747 179.68 90.3224 179.79 89.8031 180.446C89.2838 181.101 89.3941 182.053 90.0494 182.573Z" fill="white"/>
<path d="M97.3094 188.278C97.9648 188.797 98.9171 188.687 99.4364 188.032C99.9557 187.376 99.8454 186.424 99.1901 185.905C98.5347 185.385 97.5824 185.496 97.0631 186.151C96.5438 186.806 96.6541 187.759 97.3094 188.278Z" fill="white"/>
<path d="M81.5796 188.024C81.5796 188.024 83.4498 199.117 93.2409 197.264" stroke="white" stroke-width="2" stroke-miterlimit="10"/>
<path d="M126.431 169.773C126.431 169.773 130.147 168.545 133.6 170.207C133.6 170.207 138.733 172.367 136.048 175.605C136.048 175.605 131.325 180.09 126.096 178.833C126.096 178.833 127.876 172.946 126.431 169.773Z" stroke="white" stroke-width="2" stroke-miterlimit="10"/>
<path d="M100.892 149.848C100.892 149.848 100.857 145.586 98.2436 142.35C98.2436 142.35 94.6874 137.461 91.9315 141.103C91.9315 141.103 88.363 147.207 90.9889 152.42C90.9889 152.42 96.3918 149.848 100.892 149.848Z" fill="#FEA735" stroke="white" stroke-width="2" stroke-miterlimit="10"/>
<path d="M225.239 221.386C219.886 217.706 212.883 218.297 208.197 222.395C211.01 227.639 212.331 234.694 207.471 242.681C208.075 243.276 208.742 243.847 209.46 244.341C215.792 248.693 224.462 247.087 228.814 240.755C233.166 234.424 231.57 225.738 225.239 221.386Z" stroke="white" stroke-width="2" stroke-miterlimit="10"/>
<path d="M215.74 224.116C213.416 222.518 210.674 222.052 208.109 222.54C210.687 227.668 211.749 234.411 207.219 242.016C211.269 243.201 215.804 241.747 218.327 238.077C221.47 233.504 220.313 227.259 215.74 224.116Z" fill="white"/>
<path d="M182.082 191.72C187.434 195.4 189.542 201.735 187.406 207.563C181.502 206.815 174.292 208.524 168.576 215.923C167.804 215.572 167.032 215.154 166.313 214.66C159.982 210.308 158.376 201.637 162.728 195.306C167.08 188.975 175.75 187.368 182.082 191.72Z" stroke="white" stroke-width="2" stroke-miterlimit="10"/>
<path d="M182.456 200.939C184.781 202.537 186.198 204.93 186.661 207.5C180.95 206.93 174.274 208.354 168.796 215.308C166.239 211.951 165.972 207.196 168.495 203.526C171.638 198.953 177.899 197.807 182.456 200.939Z" fill="white"/>
<path d="M176.202 225.893C177.857 227.031 180.122 226.612 181.26 224.956C182.398 223.301 181.978 221.036 180.323 219.899C178.667 218.761 176.403 219.18 175.265 220.836C174.127 222.491 174.546 224.756 176.202 225.893Z" fill="white" stroke="white" stroke-miterlimit="10"/>
<path d="M195.854 239.402C197.509 240.539 199.774 240.12 200.911 238.464C202.049 236.809 201.63 234.545 199.974 233.407C198.319 232.269 196.054 232.688 194.917 234.344C193.779 235.999 194.198 238.264 195.854 239.402Z" fill="white" stroke="white" stroke-miterlimit="10"/>
<path d="M209.309 256.06C209.309 256.06 204.72 248.289 195.295 247.552" stroke="white" stroke-width="2" stroke-miterlimit="10"/>
<path d="M203.467 265.51C203.467 265.51 201.373 256.729 192.589 253.259" stroke="white" stroke-width="2" stroke-miterlimit="10"/>
<path d="M155.814 219.288C155.814 219.288 164.713 220.789 168.777 229.324" stroke="white" stroke-width="2" stroke-miterlimit="10"/>
<path d="M149.084 228.128C149.084 228.128 158.032 226.938 164.419 233.895" stroke="white" stroke-width="2" stroke-miterlimit="10"/>
<path d="M181.332 236.514L184.1 238.416C185.798 239.583 185.711 241.708 183.953 241.94L181.714 242.248C180.399 242.425 178.916 241.405 178.61 240.114L178.095 237.914C177.682 236.189 179.635 235.347 181.332 236.514Z" fill="white" stroke="white" stroke-miterlimit="10"/>
<path d="M169.474 242.594L179.676 241.545L182.041 252.223" stroke="white" stroke-width="2" stroke-miterlimit="10"/>
<path d="M137.849 260.985L168.271 216.726C168.271 216.726 180.076 199.552 199.784 212.716C199.784 212.716 218.156 225.727 207.214 243.022L176.831 287.78" stroke="white" stroke-width="2" stroke-miterlimit="10"/>
<path d="M116.003 598.919L111.747 570.648C111.747 570.648 89.9714 575.322 87.6568 555.421C87.6568 555.421 85.1628 541.349 99.4463 532.972" stroke="#FCF5EF" stroke-width="2" stroke-miterlimit="10"/>
<path d="M100.749 538.009C102.964 538.738 110.182 540.379 113.395 532.531C113.53 532.17 113.469 531.768 113.187 531.495L102.035 519.418C101.448 518.786 100.345 519.174 100.349 520.055L100.037 537.085C100.098 537.486 100.344 537.885 100.749 538.009Z" stroke="#FCF5EF" stroke-width="2" stroke-miterlimit="10"/>
<path d="M172.956 579.55C174.954 568.987 163.174 560.977 163.174 560.977C165.475 542.277 148.693 539.508 148.693 539.508C147.025 519.248 130.654 523.821 130.654 523.821C118.84 500.523 107.043 524.762 107.043 524.762L111.536 529.663L116.57 520.12C117.181 518.935 118.814 518.706 119.706 519.697L122.963 524.14C122.963 524.14 156.229 575.605 158.124 583.803" stroke="#FCF5EF" stroke-width="2" stroke-miterlimit="10"/>
<path d="M116.995 548.999C118.055 547.164 117.426 544.817 115.591 543.758C113.756 542.698 111.409 543.327 110.35 545.162C109.29 546.997 109.919 549.344 111.754 550.404C113.589 551.463 115.936 550.834 116.995 548.999Z" fill="#FCF5EF" stroke="#FCF5EF" stroke-width="2" stroke-miterlimit="10"/>
<path d="M95.5831 626.699C95.5831 626.699 104.564 624.342 110.371 633.436C110.371 633.436 118.11 647.174 109.14 652.996C109.14 652.996 102.485 656.306 99.3695 648.915C99.3488 648.916 99.4253 635.945 95.5831 626.699Z" stroke="white" stroke-width="2" stroke-miterlimit="10"/>
<path d="M48.2391 626.897C48.2391 626.897 39.2519 624.563 33.4692 633.673C33.4692 633.673 25.7661 647.431 34.7507 653.229C34.7507 653.229 41.4149 656.522 44.5107 649.123C44.5314 649.124 44.421 636.153 48.2391 626.897Z" stroke="white" stroke-width="2"/>
<path d="M46.0115 699.776V639.792C46.0115 639.792 46.0115 616.515 72.4802 616.163C72.4802 616.163 97.6223 616.515 98.4929 639.357L98.8452 699.776" stroke="white" stroke-width="2" stroke-miterlimit="10"/>
<path d="M59.1111 643.212C61.3548 643.212 63.1737 641.393 63.1737 639.149C63.1737 636.906 61.3548 635.087 59.1111 635.087C56.8674 635.087 55.0486 636.906 55.0486 639.149C55.0486 641.393 56.8674 643.212 59.1111 643.212Z" fill="white" stroke="white" stroke-miterlimit="10"/>
<path d="M85.7456 643.212C87.9893 643.212 89.8082 641.393 89.8082 639.149C89.8082 636.906 87.9893 635.087 85.7456 635.087C83.502 635.087 81.6831 636.906 81.6831 639.149C81.6831 641.393 83.502 643.212 85.7456 643.212Z" fill="white" stroke="white" stroke-miterlimit="10"/>
<path d="M69.9719 644.559H74.905C77.9519 644.559 79.6101 647.212 77.6825 648.953L75.2159 651.192C73.7857 652.498 71.1119 652.498 69.6817 651.192L67.2152 648.953C65.2668 647.191 66.925 644.559 69.9719 644.559Z" stroke="white" stroke-width="2" stroke-miterlimit="10"/>
<path d="M63.6089 660.312L72.3351 652.892L81.2685 661.224" stroke="white" stroke-width="2" stroke-miterlimit="10"/>
<path d="M84.4396 618.671C85.2687 619.002 86.2221 618.795 86.7818 618.111C88.3156 616.225 90.2432 613.551 85.6211 611.271C84.7505 610.836 84.2738 609.862 84.4603 608.908C84.7712 607.354 84.2323 605.219 78.8847 605.281C77.952 605.302 77.1229 604.701 76.8534 603.809C76.2523 601.819 74.7185 599.083 71.1534 602.959C70.6145 603.561 69.7647 603.809 68.9978 603.54C67.0494 602.877 63.5051 602.172 63.4014 605.633C63.3807 606.587 62.6345 607.374 61.6811 607.54C59.8571 607.872 57.5149 608.659 58.4062 610.628C58.7171 611.333 58.5927 612.162 58.0953 612.743C56.7687 614.276 55.0691 618.484 59.4425 618.795C59.4425 618.816 70.9669 613.219 84.4396 618.671Z" stroke="white" stroke-width="2" stroke-miterlimit="10"/>
<path d="M209.395 446.528C207.489 439.992 210.385 431.923 216.649 428.611C223.813 424.841 232.651 427.604 236.42 434.768C240.19 441.932 237.427 450.77 230.263 454.539C229.552 454.921 226.32 455.206 225.554 455.439" stroke="#FCF5EF" stroke-width="2" stroke-miterlimit="10"/>
<path d="M182.028 478.984C181.119 479.803 178.368 481.789 177.261 482.383C170.098 486.152 161.259 483.389 157.49 476.226C153.72 469.062 156.483 460.224 163.647 456.455C170.811 452.685 179.649 455.448 183.418 462.612" stroke="#FCF5EF" stroke-width="2" stroke-miterlimit="10"/>
<path d="M205.98 525.117L183.063 481.482C183.063 481.482 172.879 462.085 194.775 450.203C194.775 450.203 215.882 439.508 226.626 458.146L251.071 501.546" stroke="#FCF5EF" stroke-width="2" stroke-miterlimit="10"/>
<path d="M192.444 479.367C194.738 480.058 197.157 478.759 197.848 476.466C198.539 474.172 197.24 471.753 194.947 471.062C192.654 470.371 190.234 471.669 189.543 473.963C188.852 476.256 190.151 478.676 192.444 479.367Z" fill="#FCF5EF" stroke="#FCF5EF" stroke-miterlimit="10"/>
<path d="M214.638 467.707C216.931 468.398 219.35 467.099 220.042 464.806C220.733 462.512 219.434 460.093 217.141 459.402C214.847 458.711 212.428 460.01 211.737 462.303C211.045 464.596 212.344 467.016 214.638 467.707Z" fill="#FCF5EF" stroke="#FCF5EF" stroke-miterlimit="10"/>
<path d="M239.757 462.6C239.757 462.6 230.28 463.056 224.966 471.456" stroke="#FCF5EF" stroke-width="2" stroke-miterlimit="10"/>
<path d="M245.698 472.67C245.698 472.67 236.51 470.299 228.963 476.768" stroke="#FCF5EF" stroke-width="2" stroke-miterlimit="10"/>
<path d="M179.354 494.34C179.354 494.34 185.104 486.8 195.048 487.213" stroke="#FCF5EF" stroke-width="2" stroke-miterlimit="10"/>
<path d="M184.276 504.932C184.276 504.932 187.559 496.018 197.166 493.482" stroke="#FCF5EF" stroke-width="2" stroke-miterlimit="10"/>
<path d="M207.873 479.056L210.985 477.41C212.912 476.401 214.83 477.509 214.199 479.273L213.391 481.514C212.898 482.822 211.238 483.713 209.893 483.341L207.588 482.746C205.779 482.267 205.946 480.065 207.873 479.056Z" fill="white" stroke="#FCF5EF" stroke-width="2" stroke-miterlimit="10"/>
<path d="M207.697 493.045L211.731 483.067L222.834 486.115" stroke="#FCF5EF" stroke-width="2" stroke-miterlimit="10"/>
<path opacity="0.35" d="M338.979 16.5026H355.469C356.666 16.5026 357.636 17.4726 357.636 18.6692V24.6692C357.636 25.8658 356.666 26.8359 355.469 26.8359H338.979C337.782 26.8359 336.812 25.8658 336.812 24.6692V18.6692C336.812 17.4726 337.782 16.5026 338.979 16.5026Z" stroke="black"/>
<path opacity="0.4" d="M359.128 19.6692V23.6692C359.926 23.3304 360.445 22.5423 360.445 21.6692C360.445 20.7961 359.926 20.008 359.128 19.6692" fill="black"/>
<path d="M338.296 19.3359C338.296 18.5995 338.893 18.0026 339.629 18.0026H354.819C355.555 18.0026 356.152 18.5995 356.152 19.3359V24.0026C356.152 24.7389 355.555 25.3359 354.819 25.3359H339.629C338.893 25.3359 338.296 24.7389 338.296 24.0026V19.3359Z" fill="black"/>
<path fill-rule="evenodd" clip-rule="evenodd" d="M323.744 18.2773C325.942 18.2774 328.056 19.1289 329.649 20.6557C329.769 20.7735 329.961 20.772 330.079 20.6523L331.226 19.4857C331.286 19.4249 331.319 19.3427 331.318 19.2571C331.318 19.1715 331.284 19.0897 331.223 19.0297C327.042 14.9901 320.445 14.9901 316.264 19.0297C316.203 19.0896 316.169 19.1715 316.168 19.257C316.168 19.3426 316.201 19.4249 316.261 19.4857L317.408 20.6523C317.526 20.7722 317.718 20.7737 317.838 20.6557C319.431 19.1288 321.545 18.2773 323.744 18.2773ZM323.744 22.073C324.951 22.0729 326.116 22.5255 327.011 23.3427C327.132 23.4587 327.323 23.4562 327.441 23.337L328.587 22.1704C328.647 22.1092 328.68 22.0261 328.68 21.9399C328.679 21.8536 328.644 21.7713 328.582 21.7114C325.856 19.155 321.634 19.155 318.908 21.7114C318.846 21.7713 318.811 21.8537 318.81 21.9399C318.809 22.0262 318.843 22.1092 318.903 22.1704L320.049 23.337C320.167 23.4562 320.357 23.4587 320.478 23.3427C321.373 22.526 322.537 22.0735 323.744 22.073ZM326.038 24.6268C326.04 24.7133 326.006 24.7967 325.945 24.8573L323.964 26.873C323.906 26.9323 323.826 26.9656 323.744 26.9656C323.661 26.9656 323.582 26.9323 323.524 26.873L321.542 24.8573C321.481 24.7967 321.447 24.7133 321.449 24.6268C321.451 24.5403 321.488 24.4583 321.552 24.4003C322.817 23.3215 324.67 23.3215 325.936 24.4003C325.999 24.4584 326.037 24.5403 326.038 24.6268Z" fill="black"/>
<path fill-rule="evenodd" clip-rule="evenodd" d="M312.189 16.3359H311.197C310.65 16.3359 310.205 16.7837 310.205 17.3359V26.0026C310.205 26.5549 310.65 27.0026 311.197 27.0026H312.189C312.737 27.0026 313.181 26.5549 313.181 26.0026V17.3359C313.181 16.7837 312.737 16.3359 312.189 16.3359ZM306.568 18.6693H307.56C308.108 18.6693 308.552 19.117 308.552 19.6693V26.0026C308.552 26.5549 308.108 27.0026 307.56 27.0026H306.568C306.02 27.0026 305.576 26.5549 305.576 26.0026V19.6693C305.576 19.117 306.02 18.6693 306.568 18.6693ZM302.931 21.0026H301.939C301.391 21.0026 300.947 21.4503 300.947 22.0026V26.0026C300.947 26.5549 301.391 27.0026 301.939 27.0026H302.931C303.479 27.0026 303.923 26.5549 303.923 26.0026V22.0026C303.923 21.4503 303.479 21.0026 302.931 21.0026ZM298.301 23.0026H297.309C296.762 23.0026 296.317 23.4503 296.317 24.0026V26.0026C296.317 26.5549 296.762 27.0026 297.309 27.0026H298.301C298.849 27.0026 299.293 26.5549 299.293 26.0026V24.0026C299.293 23.4503 298.849 23.0026 298.301 23.0026Z" fill="black"/>
<path d="M38.4455 22.8765C37.9133 23.355 37.3176 23.5942 36.6584 23.5942C35.6916 23.5942 34.925 23.2671 34.3586 22.6128C33.7922 21.9585 33.509 21.0845 33.509 19.9907C33.509 19.3071 33.6677 18.6724 33.9851 18.0864C34.3025 17.5005 34.7468 17.0366 35.3181 16.6948C35.8943 16.353 36.529 16.1821 37.2224 16.1821C37.9255 16.1821 38.5603 16.3604 39.1267 16.7168C39.698 17.0684 40.1423 17.5688 40.4597 18.2183C40.7771 18.8628 40.9406 19.6074 40.9504 20.4521V21.397C40.9504 22.5737 40.7185 23.5942 40.2546 24.4585C39.7956 25.3228 39.1389 25.9868 38.2844 26.4507C37.4299 26.9146 36.4338 27.1465 35.2961 27.1465H35.1423V25.1689L35.6111 25.1616C37.3103 25.0786 38.2551 24.3169 38.4455 22.8765ZM37.3249 21.8145C37.862 21.8145 38.2478 21.5825 38.4821 21.1187V20.0933C38.4821 19.4097 38.3674 18.9043 38.1379 18.5771C37.9084 18.25 37.5984 18.0864 37.2077 18.0864C36.8611 18.0864 36.5705 18.272 36.3361 18.6431C36.1018 19.0142 35.9846 19.4634 35.9846 19.9907C35.9846 20.5474 36.1042 20.9917 36.3435 21.3237C36.5827 21.6509 36.9099 21.8145 37.3249 21.8145ZM43.5435 24.605C43.9341 24.605 44.2588 24.7222 44.5176 24.9565C44.7764 25.186 44.9058 25.4814 44.9058 25.8428C44.9058 26.2041 44.7764 26.502 44.5176 26.7363C44.2588 26.9658 43.9341 27.0806 43.5435 27.0806C43.148 27.0806 42.8208 26.9634 42.562 26.729C42.3081 26.4946 42.1812 26.1992 42.1812 25.8428C42.1812 25.4863 42.3081 25.1909 42.562 24.9565C42.8208 24.7222 43.148 24.605 43.5435 24.605ZM43.5435 18.7603C43.9341 18.7603 44.2588 18.8774 44.5176 19.1118C44.7764 19.3413 44.9058 19.6367 44.9058 19.998C44.9058 20.3594 44.7764 20.6572 44.5176 20.8916C44.2588 21.1211 43.9341 21.2358 43.5435 21.2358C43.148 21.2358 42.8208 21.1187 42.562 20.8843C42.3081 20.6499 42.1812 20.3545 42.1812 19.998C42.1812 19.6416 42.3081 19.3462 42.562 19.1118C42.8208 18.8774 43.148 18.7603 43.5435 18.7603ZM51.6517 27H49.1761V19.1191L46.7444 19.8296V17.9546L51.4246 16.3359H51.6517V27ZM61.0856 22.8325H62.1695V24.7368H61.0856V27H58.6173V24.7368H54.4938L54.3473 23.228L58.6173 16.3579V16.3359H61.0856V22.8325ZM56.6984 22.8325H58.6173V19.5513L58.4635 19.8003L56.6984 22.8325Z" fill="black"/>
<path d="M117.787 691V665.406H125.345C127.607 665.406 129.611 665.91 131.357 666.918C133.115 667.926 134.474 669.355 135.435 671.207C136.396 673.059 136.877 675.18 136.877 677.57V678.854C136.877 681.279 136.39 683.412 135.418 685.252C134.457 687.092 133.08 688.51 131.287 689.506C129.506 690.502 127.461 691 125.152 691H117.787ZM122.234 668.992V687.449H125.134C127.466 687.449 129.254 686.723 130.496 685.27C131.75 683.805 132.388 681.707 132.412 678.977V677.553C132.412 674.775 131.808 672.654 130.601 671.189C129.394 669.725 127.642 668.992 125.345 668.992H122.234ZM139.373 681.314C139.373 679.451 139.743 677.775 140.481 676.287C141.219 674.787 142.256 673.639 143.592 672.842C144.928 672.033 146.463 671.629 148.198 671.629C150.764 671.629 152.844 672.455 154.438 674.107C156.043 675.76 156.911 677.951 157.039 680.682L157.057 681.684C157.057 683.559 156.694 685.234 155.967 686.711C155.252 688.188 154.221 689.33 152.873 690.139C151.538 690.947 149.991 691.352 148.233 691.352C145.549 691.352 143.399 690.461 141.782 688.68C140.176 686.887 139.373 684.502 139.373 681.525V681.314ZM143.645 681.684C143.645 683.641 144.049 685.176 144.858 686.289C145.666 687.391 146.791 687.941 148.233 687.941C149.674 687.941 150.793 687.379 151.59 686.254C152.399 685.129 152.803 683.482 152.803 681.314C152.803 679.393 152.387 677.869 151.555 676.744C150.735 675.619 149.616 675.057 148.198 675.057C146.803 675.057 145.696 675.613 144.875 676.727C144.055 677.828 143.645 679.48 143.645 681.684ZM171.472 689.137C170.218 690.613 168.437 691.352 166.128 691.352C164.066 691.352 162.501 690.748 161.435 689.541C160.38 688.334 159.853 686.588 159.853 684.303V671.98H164.124V684.25C164.124 686.664 165.126 687.871 167.13 687.871C169.204 687.871 170.605 687.127 171.331 685.639V671.98H175.603V691H171.577L171.472 689.137ZM195.924 681.684C195.924 684.637 195.262 686.986 193.937 688.732C192.625 690.479 190.814 691.352 188.506 691.352C186.279 691.352 184.545 690.549 183.303 688.943L183.092 691H179.224V664H183.496V673.809C184.726 672.355 186.385 671.629 188.471 671.629C190.791 671.629 192.613 672.49 193.937 674.213C195.262 675.936 195.924 678.344 195.924 681.438V681.684ZM191.652 681.314C191.652 679.252 191.289 677.705 190.562 676.674C189.836 675.643 188.781 675.127 187.398 675.127C185.547 675.127 184.246 675.936 183.496 677.553V685.393C184.258 687.045 185.57 687.871 187.433 687.871C188.769 687.871 189.801 687.373 190.527 686.377C191.254 685.381 191.629 683.875 191.652 681.859V681.314ZM203.342 691H199.071V664H203.342V691ZM215.665 691.352C212.958 691.352 210.761 690.502 209.074 688.803C207.398 687.092 206.56 684.818 206.56 681.982V681.455C206.56 679.557 206.923 677.863 207.65 676.375C208.388 674.875 209.419 673.709 210.743 672.877C212.068 672.045 213.544 671.629 215.173 671.629C217.763 671.629 219.761 672.455 221.167 674.107C222.585 675.76 223.294 678.098 223.294 681.121V682.844H210.866C210.995 684.414 211.517 685.656 212.431 686.57C213.357 687.484 214.517 687.941 215.911 687.941C217.868 687.941 219.462 687.15 220.693 685.568L222.995 687.766C222.234 688.902 221.214 689.787 219.937 690.42C218.671 691.041 217.247 691.352 215.665 691.352ZM215.156 675.057C213.984 675.057 213.034 675.467 212.308 676.287C211.593 677.107 211.136 678.25 210.937 679.715H219.075V679.398C218.982 677.969 218.601 676.891 217.933 676.164C217.265 675.426 216.339 675.057 215.156 675.057ZM241.964 687.941C243.03 687.941 243.915 687.631 244.618 687.01C245.321 686.389 245.696 685.621 245.743 684.707H249.768C249.721 685.891 249.352 686.998 248.661 688.029C247.969 689.049 247.032 689.857 245.848 690.455C244.665 691.053 243.387 691.352 242.016 691.352C239.356 691.352 237.247 690.49 235.688 688.768C234.13 687.045 233.35 684.666 233.35 681.631V681.191C233.35 678.297 234.124 675.982 235.671 674.248C237.217 672.502 239.327 671.629 241.999 671.629C244.26 671.629 246.1 672.291 247.518 673.615C248.948 674.928 249.698 676.656 249.768 678.801H245.743C245.696 677.711 245.321 676.814 244.618 676.111C243.926 675.408 243.042 675.057 241.964 675.057C240.581 675.057 239.514 675.561 238.764 676.568C238.014 677.564 237.634 679.082 237.622 681.121V681.807C237.622 683.869 237.991 685.41 238.729 686.43C239.479 687.438 240.557 687.941 241.964 687.941ZM256.484 674.055C257.878 672.438 259.642 671.629 261.775 671.629C265.83 671.629 267.886 673.943 267.945 678.572V691H263.673V678.73C263.673 677.418 263.386 676.492 262.812 675.953C262.249 675.402 261.417 675.127 260.316 675.127C258.605 675.127 257.328 675.889 256.484 677.412V691H252.212V664H256.484V674.055ZM279.934 691.352C277.227 691.352 275.029 690.502 273.342 688.803C271.666 687.092 270.828 684.818 270.828 681.982V681.455C270.828 679.557 271.192 677.863 271.918 676.375C272.656 674.875 273.688 673.709 275.012 672.877C276.336 672.045 277.813 671.629 279.442 671.629C282.031 671.629 284.029 672.455 285.436 674.107C286.854 675.76 287.563 678.098 287.563 681.121V682.844H275.135C275.264 684.414 275.785 685.656 276.699 686.57C277.625 687.484 278.785 687.941 280.18 687.941C282.137 687.941 283.731 687.15 284.961 685.568L287.264 687.766C286.502 688.902 285.483 689.787 284.205 690.42C282.94 691.041 281.516 691.352 279.934 691.352ZM279.424 675.057C278.252 675.057 277.303 675.467 276.576 676.287C275.861 677.107 275.404 678.25 275.205 679.715H283.344V679.398C283.25 677.969 282.869 676.891 282.201 676.164C281.533 675.426 280.608 675.057 279.424 675.057ZM298.55 691.352C295.843 691.352 293.645 690.502 291.958 688.803C290.282 687.092 289.444 684.818 289.444 681.982V681.455C289.444 679.557 289.807 677.863 290.534 676.375C291.272 674.875 292.304 673.709 293.628 672.877C294.952 672.045 296.429 671.629 298.057 671.629C300.647 671.629 302.645 672.455 304.052 674.107C305.47 675.76 306.179 678.098 306.179 681.121V682.844H293.751C293.88 684.414 294.401 685.656 295.315 686.57C296.241 687.484 297.401 687.941 298.796 687.941C300.753 687.941 302.347 687.15 303.577 685.568L305.88 687.766C305.118 688.902 304.099 689.787 302.821 690.42C301.556 691.041 300.132 691.352 298.55 691.352ZM298.04 675.057C296.868 675.057 295.919 675.467 295.192 676.287C294.477 677.107 294.02 678.25 293.821 679.715H301.96V679.398C301.866 677.969 301.485 676.891 300.817 676.164C300.149 675.426 299.224 675.057 298.04 675.057ZM319.451 685.832C319.451 685.07 319.134 684.49 318.502 684.092C317.88 683.693 316.843 683.342 315.39 683.037C313.937 682.732 312.724 682.346 311.752 681.877C309.619 680.846 308.552 679.352 308.552 677.395C308.552 675.754 309.244 674.383 310.627 673.281C312.009 672.18 313.767 671.629 315.9 671.629C318.173 671.629 320.007 672.191 321.402 673.316C322.808 674.441 323.511 675.9 323.511 677.693H319.24C319.24 676.873 318.935 676.193 318.326 675.654C317.716 675.104 316.908 674.828 315.9 674.828C314.962 674.828 314.195 675.045 313.597 675.479C313.011 675.912 312.718 676.492 312.718 677.219C312.718 677.875 312.994 678.385 313.545 678.748C314.095 679.111 315.209 679.48 316.884 679.855C318.56 680.219 319.873 680.658 320.822 681.174C321.783 681.678 322.492 682.287 322.949 683.002C323.418 683.717 323.652 684.584 323.652 685.604C323.652 687.314 322.943 688.703 321.525 689.77C320.107 690.824 318.25 691.352 315.953 691.352C314.394 691.352 313.005 691.07 311.787 690.508C310.568 689.945 309.619 689.172 308.939 688.188C308.259 687.203 307.92 686.143 307.92 685.006H312.068C312.127 686.014 312.507 686.793 313.211 687.344C313.914 687.883 314.845 688.152 316.005 688.152C317.13 688.152 317.986 687.941 318.572 687.52C319.158 687.086 319.451 686.523 319.451 685.832ZM335.043 691.352C332.336 691.352 330.139 690.502 328.451 688.803C326.776 687.092 325.938 684.818 325.938 681.982V681.455C325.938 679.557 326.301 677.863 327.028 676.375C327.766 674.875 328.797 673.709 330.121 672.877C331.446 672.045 332.922 671.629 334.551 671.629C337.141 671.629 339.139 672.455 340.545 674.107C341.963 675.76 342.672 678.098 342.672 681.121V682.844H330.244C330.373 684.414 330.895 685.656 331.809 686.57C332.735 687.484 333.895 687.941 335.289 687.941C337.246 687.941 338.84 687.15 340.071 685.568L342.373 687.766C341.612 688.902 340.592 689.787 339.315 690.42C338.049 691.041 336.625 691.352 335.043 691.352ZM334.534 675.057C333.362 675.057 332.412 675.467 331.686 676.287C330.971 677.107 330.514 678.25 330.315 679.715H338.453V679.398C338.36 677.969 337.979 676.891 337.311 676.164C336.643 675.426 335.717 675.057 334.534 675.057Z" fill="white"/>
</g>
<defs>
<clipPath id="clip0_308_50">
<rect width="375" height="812" rx="40" fill="white"/>
</clipPath>
</defs>
</svg>
